<?xml version="1.0" encoding="utf-8"?>
<!-- Generator: Adobe Illustrator 14.0.0, SVG Export Plug-In . SVG Version: 6.00 Build 43363)  -->
<!DOCTYPE svg PUBLIC "-//W3C//DTD SVG 1.1//EN" "http://www.w3.org/Graphics/SVG/1.1/DTD/svg11.dtd">
<svg version="1.1" id="图层_1" xmlns="http://www.w3.org/2000/svg" xmlns:xlink="http://www.w3.org/1999/xlink" x="0px" y="0px"
	 width="1280px" height="720px" viewBox="0 0 1280 720" enable-background="new 0 0 1280 720" xml:space="preserve">
<g>
	<g>
		<path fill-rule="evenodd" clip-rule="evenodd" d="M87,207.23c12.072-3.986,24.468-12.146,33.5-22.5
			c9.998-11.461,21.655-26.11,21.5-44c2.004,19.461-9.127,34.875-19.5,45.5c-10.279,10.529-24.478,19.002-40,23
			c17.202-15.313,39.445-28.202,36.5-62c2.071,3.049,2.205,9.386,2,13c-1.235,21.742-19.208,36.497-33.5,46
			C87.405,206.635,86.999,206.729,87,207.23z"/>
		<path fill-rule="evenodd" clip-rule="evenodd" d="M185,269.23c-9.554-9.589-28.621-5.113-35.5,4
			C153.038,259.674,177.912,256.646,185,269.23z"/>
		<path fill-rule="evenodd" clip-rule="evenodd" d="M226,291.23c2.139,0.214,3.585,3.158,2.5,5
			C225.585,296.646,225.946,293.785,226,291.23z"/>
		<path fill-rule="evenodd" clip-rule="evenodd" d="M209.5,327.73c-3.854,2.29-11.86,0.241-15-1.5c0-0.5,0-1,0-1.5
			C199.459,323.827,202.695,328.827,209.5,327.73z"/>
		<path fill-rule="evenodd" clip-rule="evenodd" d="M221.5,325.23c-1.621,1.712-3.879,2.788-7,3
			C216.627,327.242,219.054,324.276,221.5,325.23z"/>
		<path fill-rule="evenodd" clip-rule="evenodd" d="M216,438.73c-8.025-1.325-17.25-5.737-25.5-8.5c6.732-8.935,14.857-16.477,22-25
			c0.808-0.141,0.861,0.473,1.5,0.5C214.35,417.047,215.34,427.724,216,438.73z M192.5,430.23c8.028,1.972,14.607,5.393,22.5,7.5
			c-1.258-9.908-1.014-21.319-2.5-31C206.341,414.746,197.009,422.229,192.5,430.23z"/>
		<path fill-rule="evenodd" clip-rule="evenodd" d="M235.5,420.73c5.733,8.1,10.334,17.333,16.5,25
			c-5.374,5.46-10.57,11.097-17.5,15C231.66,448.192,233.75,433.007,235.5,420.73z M235,458.73c5.727-1.798,10.208-9.107,16-12.5
			c-5.229-7.438-10.384-14.949-15-23C234.946,434.826,233.067,446.908,235,458.73z"/>
		<path fill-rule="evenodd" clip-rule="evenodd" d="M260,466.73c-4.025-3.475-6.409-8.592-9.5-13c-6.316,2.684-9.94,8.06-16.5,10.5
			c5.467-4.699,10.323-10.01,17-13.5C254.132,455.932,257.375,461.021,260,466.73z"/>
		<path fill-rule="evenodd" clip-rule="evenodd" d="M202,596.73c-0.347,2.311,0.682,5.434,2,7.5c-1.786-0.214-2.744-1.256-3.5-2.5
			C200.147,599.211,201.397,598.295,202,596.73z"/>
		<path fill-rule="evenodd" clip-rule="evenodd" d="M139.5,611.73c3.446,4.889,16.471,7.181,9.5,15
			c-0.833-8.501-8.096-10.57-12.5-15.5c1.017-3.982,7.94-2.06,11-4c1.279-0.022,0.61,0.372,0.5,1
			C144.284,608.514,142.857,611.087,139.5,611.73z"/>
		<path fill-rule="evenodd" clip-rule="evenodd" d="M273.5,665.23c-4.665-17.003-13.386-29.947-23.5-41.5
			c11.907,10.093,19.629,24.371,24.5,41.5C274.167,665.23,273.833,665.23,273.5,665.23z"/>
		<path fill-rule="evenodd" clip-rule="evenodd" d="M188.5,665.23c-0.5,0-1,0-1.5,0c-13.142-9.024-21.677-22.656-27-39.5
			c4.06,4.074,4.64,10.102,7,15c5.071,10.521,12.787,17.776,21.5,24C188.5,664.897,188.5,665.063,188.5,665.23z"/>
		<path fill-rule="evenodd" clip-rule="evenodd" d="M70.5,665.23c2.285-10.073,8.75-16.591,14.5-23.5
			c4.132-4.966,7.992-9.928,11-15.5c6.775-12.55,6-28.884,6-46.5c0-2.146,0.355-6.819-0.5-10c-1.665-6.191-12.206-12.267-13-20
			c-4.287,3.894-14.375,6.711-21,5c2.594-6.245,2.798-14.047,5.5-20c1.18-2.6,5.096-4.398,5.5-7c0.591-3.808-3.108-7.546-3-12
			c-6.028-7.139-13.997-12.336-22.5-17c3.728-4.272,10.822-5.178,16-8c-5.392-29.3-26.35-67.441-9.5-99
			c-1.003-12.33,8.077-17.239,19-19.5c3.311-0.686,7.059-0.069,10.5-1c6.996-1.893,11.269-7.265,16.5-8
			c-3.534-1.532-5.934-5.131-9.5-7c-2.404-1.26-6.003-0.6-7.5-3.5c9.96-4.078,23.442,2.151,33.5-1.5c0.213-11.547,0.268-22.935-5-29
			c-1.66,11.006-3.905,21.428-10,28c0.93-7.903,0.334-17.332,0.5-26c-5.786,2.049-5.012,14.986-9.5,20
			c0.584-10.21,0.43-20.573-4.5-26.5c-1.944,12.946-7.16,27.445-6,42.5c0.253,3.287,2.384,7.615,0.5,10.5
			c-6.069-8.431-9.208-19.792-13-30.5c-6.575,14.758-18.49,24.177-35,29c6.31-5.31,14.619-10.832,19-20.5
			c3.093-6.826,5.548-18.096,5-26.5c-0.589-9.027-6.945-14.536-10-22c-0.85,7.41-0.226,14.373,2,20c1.516,3.833,5.744,6.22,5,10
			c-17.516-8.447-24.624-31.348-28-55.5c-1.835-13.129-3.398-27.254-0.5-38.5c2.917-11.319,9.194-18.98,13.5-27.5
			c-4.745,1.953-10.438,5.52-15.5,5.5c18.144-15.023,33.395-32.938,35-64.5c-5.115,1.385-7.847,5.153-14,5.5
			c3.576-5.72,9.293-7.831,14-12.5c17.156-17.019,26.387-40.362,63-37c1.758-11.458,5.944-21.767,14.5-28
			c12.87-9.375,40.279-13.207,57.5-4.5c-18.296-5.08-46.305-3.231-58.5,8.5c-3.707,3.565-14.183,16.638-12,25
			c1.248,4.78,8.286,6.069,13.5,8c-5.175-1.401-4.818-10.834-1.5-16.5c8.167-13.948,29.15-26.098,50.5-23.5
			c-26.543,0.957-42.958,12.042-51.5,31c6.484-2.374,17.526-5.575,24.5-1.5c20.368-6.293,42.079-2.287,57,5.5
			c8.501,4.437,16.46,10.058,24.5,13.5c4.352,1.863,11.089,2.18,14,4.5c3.087,2.46,3.826,7.993,6,11.5
			c5.475,8.832,14.549,15.833,19.5,23c-4.617-2.05-9.183-4.15-14-6c11.905,13.997,23.299,40.666,11.5,62.5
			c5.594,14.406,10.634,29.366,19.5,40.5c-9.553-8.938-23.018-17.508-32-27c-0.994-1.051-3.689-4.591-3-2.5
			c4.106,17.667,8.766,31.347,17.5,44.5c8.562,12.893,12.762,28.454,11.5,49.5c-3.585-9.873-4.536-24.271-10-31.5
			c-1.345-1.779-3.328-4.558-5-4c5.016,15.948,5.183,44.265-2,58c0.258-13.579-3.387-24.08-9-31c-1-1.233-2.404-3.891-4-3
			c1.396,17.604,5.43,32.57,6.5,50.5c2.153,1.347,7.294-0.294,8,2.5c-1.651,2.349-7.622,0.378-8,4c1.728,2.895,5.801,1.772,9,3.5
			c5.107,2.757,7.925,8.683,9,13.5c2.399,10.747-2.636,18.663-5.5,26c-3.692,9.458-12.799,27.262-13,36
			c-0.154,6.677,3.851,14.854,5.5,21.5c5.029,20.261,13.132,32.212,23,45.5c1.886,2.54,4.493,5.275,4.5,8.5
			c-11.504-9.829-21.112-21.555-31.5-32.5c-0.173,13.585-5.942,23.137-11,32c-1.855,3.251-4.225,6.546-5,9.5
			c-1.268,4.829,0.098,12.826-0.5,19c-1.138,11.763-5.799,23.692-4.5,34.5c0.801,6.667,7.662,14.83,12,20.5
			c14.379,18.792,28.506,41.797,40.5,58.5c-1.333,0-2.667,0-4,0c-8.251-14.416-17.301-28.032-26.5-41.5
			c-2.235-0.599-3.53-2.137-5.5-3c-7.844,0.822-17.14,0.193-22.5,3.5c9.152,11.348,15.644,25.356,20.5,41c-1.167,0-2.333,0-3.5,0
			c-5.701-18.299-13.744-34.256-26-46c8.786,10.381,7.521,30.813,11.5,46c-1,0-2,0-3,0c-0.83-1.67-1.17-3.83-2-5.5
			c-21.715,3.809-35.88-12.294-55.5-4.5c2.21,4.289,6.593,6.406,9.5,10c-1.667,0-3.333,0-5,0c-10.142-10.691-21.398-20.269-26.5-36
			c-3.202-1.616-8.721-6.059-15.5-3c3.738-2.155,9.866-2.548,14-0.5c-1.642-5.027-1.765-15.9-7-19c-1.392,1.608-1.859,4.141-4.5,4.5
			c0.692-6.583-3.759-15.625-4-24.5c1.706,5.294,2.264,11.736,4.5,16.5c1.857,0.236,2.288,0.373,5,0.5
			c-2.345-21.245,3.894-45.368,4.5-68.5c-6.876,19.624-10.129,42.871-36,43.5c2.732,7.51,0.136,15.173,1,22
			c1.208,9.554,7.356,19.023,13,26.5c10.822,14.337,21.896,26.611,35,38c-1.5,0-3,0-4.5,0c0-0.167,0-0.333,0-0.5
			c-5.513-4.653-9.965-10.369-15-15.5c-1.076,8.076,3.275,10.725,5,16c-1,0-2,0-3,0c-2.468-4.638-7.347-11.277-4-18.5
			c-11.461-12.038-21.821-25.18-27-43.5c0.083,6.962-1.702,13.189-3.5,19c-1.656,5.352-3.144,11.953-6,16
			c-4.517,6.399-13.724,7.271-16.5,15c6.578,7.255,17.075,10.592,29.5,12c-5.167,0-10.333,0-15.5,0c0-0.167,0-0.333,0-0.5
			c-5.772-3.248-16.527-4.085-16.5-12c0.026-7.763,12.605-10.661,16.5-16c7.701-10.558,11.934-41.806,9-58.5
			c-4.462-0.262-8.617-1.131-12.5-2.5c-3.604-1.271-7.015-4.25-9.5-3.5c-2.9,16.245,0.915,33.354-3,47
			c-5.161,17.99-22.86,28.354-27.5,46C72.833,665.23,71.667,665.23,70.5,665.23z M297.5,253.23c1.634,0.202-1.646-3.219-2.5-4.5
			c-6.143-9.212-7.852-19.591-13-31.5c-5.561-12.864-14.626-22.998-12.5-40.5c-0.254,17.754,7.518,27.482,14,38.5
			c8.466-16.207,1.703-35.183-5.5-47c-6.009-9.859-14.307-18.537-21.5-26.5c-2.388-2.644-6.064-5.335-6-9
			c11.358,8.143,18.371,23.295,33,26.5c-10.954-7.213-18.046-18.287-24.5-30c-5.032-0.584-8.459-5.048-13-4.5
			c-19.132-16.781-74.556-34.211-96-9.5c2.55-4.784,7.302-7.364,12-10c-7.717-3.499-16.812,0.019-21.5,4
			c0.443,3.896,6.033,5.293,6.5,7.5c-7.38-0.35-15.042-4.578-19-10c-29.598-1.593-42.209,14.199-55,29
			c-6.053,7.004-13.202,12.145-19,18.5c8.338-3.83,17.812-9.187,24-13.5c-2.052,3.781-6.617,5.05-10,7.5
			c-0.232,32.602-18.556,49.777-34.5,65c13.296-2.704,20.347-14.319,27.5-21.5c-3.122,5.878-8.702,9.298-11,16
			c-28.516,26.743-19.173,102.052,10,121c-3.861-7.326-9.683-14.356-9-25.5c0.149-2.44,1.327-4.9,1-7.5
			c-0.335-2.667-2.495-5.925-3.5-9c-6.413-19.622-8.479-44.852,3-60.5c-8.609,17.661-6.583,47.114,1,64.5
			c0.356,1.269,2.854-1.209,3,1c-0.021,1.646-0.844,2.489-0.5,4.5c2.779,8.835,10.637,15.224,11.5,25.5
			c1.715,20.417-10.823,37.62-22,45.5c12.015-5.916,27.917-16.087,29.5-31.5c0.831-8.095-2.487-18.53-2-28.5
			c0.633-12.96-2.541-15.244-8-24.5c-13.339-22.616-3.861-53.54,5.5-75c-4.716,21.78-15.134,44.515-6.5,67.5
			c3.603,9.591,12.369,14.692,13.5,26c0.511,5.111,0.089,9.256,0,13c-0.311-2.522-0.615-5.052-1.5-7
			c-0.986,24.053,3.821,46.463,13,62c-0.979-6.472-2.015-12.491-2-19.5c0.027-12.37,5.842-25.041,5.5-34.5
			c-0.225-6.215-5.686-7.181-6-12c8.951,7.549,13.839,19.161,14.5,35c1.324-7.343,3.899-13.435,7.5-18.5
			c-1.243-6.59-2.085-13.582-2.5-21c-5.486-4.948-19.752-8.76-23.5-17.5c-1.814-4.229-2.072-12.815,0.5-18.5
			c1.941-4.291,7.28-4.588,11-8c-6.358-8.241-6.793-25.086-3.5-36.5c1.063-3.683,2.126-8.541,5.5-9
			c-2.617,9.394-6.905,17.893-5.5,29c1.111,8.786,6.375,18.273,10,27.5c8.987,22.872,9.836,48.557,9.5,80.5
			c4.881-6.953,2.923-20.744,7.5-28c-2.267-6.901-5.66-15.338-6.5-22c5.052,8.833,6.844,20.742,10.5,31
			c0.687,1.927,2.035,3.032,2.5,5c2.97,12.566,1.988,26.922,1,40.5c-1.81,24.87-7.891,51.42-12,71.5
			c-7.439,8.728-16.332,18.668-22,27.5c3.787-2.449,7.275-8.17,12-11c1.18-0.707,2.039-0.166,3-1c1.949-1.69,3.979-5.652,6.5-9
			c7.438-9.882,18.107-26.926,14.5-42.5c4.114,1.51,3.401,7.244,4,11.5c1.408,10.008,1.69,20.901,1,30.5
			c2.417-14.515,7.621-31.245,5-47.5c3.269-28.952-0.746-59.241-6.5-82.5c-11.935-12.917-22.122-33.59-22.5-57
			c-0.066-4.097-0.222-8.697,2-11.5c-2.246,19.421,2.859,37.765,11.5,52.5c10.242,17.465,23.294,32.618,38,41.5
			c-4.893-9.107-13.106-14.894-15.5-26.5c-9.842-4.325-17.902-13.097-18-25.5c4.632,15.701,17.409,25.923,33,29
			c-11.904-4.929-20.101-13.565-22-28.5c-4.79-4.83-10.337-10.735-14-17.5c-3.608-6.664-8.267-14.618-7.5-22.5
			c6.196,25.47,23.868,42.132,42,54c-12.379-16.473-26.372-33.937-24-63.5c-1.802-1.604-3.198,4.104-5,2.5
			c6.622-4.467,6.222-14.477,8.5-23c1.299-4.859,3.439-9.509,5.5-14c5.541-12.076,12.669-24.31,26.5-25.5
			c-12.399,3.202-18.653,13.72-24,24.5c-4.114,8.295-6.901,18.119-8,28c7.921-6.413,21.238-11.761,37-12
			c4.196-4.304,3.899-13.101,6.5-19c1.269,5.124-0.265,13.569-2,19.5c1.788,0.212,2.668,1.332,5,1
			c3.513-10.487,5.208-22.792,9.5-32.5c-0.653,2.847-0.628,6.372-1.5,9c9.953,11.521,13.198,39.538,1.5,51.5
			c9.691-3.37,12.119-13.467,13-25c1.438-18.821-7.309-39.474-12.5-50.5c-2.63,6.37-7.766,10.234-9.5,17.5
			c-2.549,1.043-3.034,6.508-6.5,5c4.263-8.98,10.696-18.898,8-32.5c-1.522-7.679-9.625-13.031-10-19.5
			c8.715,6.667,14.878,20.492,12,35.5c3.369-4.823,5.391-11.303,6.5-19c0.64-4.438-1.136-10.279,2.5-13
			c1.375,8.235-1.015,16.965-2.5,24c10.669,17.358,17.335,48.186,14,78c-0.36,3.221-1.686,6.336-3,9.5
			c1.853-6.654,4.055-17.43,1-24.5c-0.958,9.21-9.046,13.952-15,16.5c0.822-4.548,5.555-7.356,7-12c4.103-13.187-2.341-29.039-7-38
			c-2.319,24.847-13.51,43.49-32.5,50c7.713-7.953,14.644-16.689,17.5-29.5c-9.62,13.047-18.937,26.396-40.5,27.5
			c2.741,26.425,14.356,43.977,28.5,59c-9.013-4.32-15.803-10.864-24-16c1.736,13.764,13.562,20.104,21,26.5
			c-5.708-0.125-9.304-2.363-14-3.5c0.935,6.357,5.695,7.952,10.5,11.5c9.308,6.874,21.939,11.258,35.5,12
			c4.349-3.911,7.443-10.211,14.5-9c2.143,0.368,3.575,2.796,6,3.5c3.256,0.945,5.72-0.616,8.5,1c7.626-3.31,15.625-9.555,22-17.5
			c5.462-6.807,12.277-16.213,14.5-25c2.773-10.964,0.026-27.117,1-40.5c0.7-9.618,4.669-14.503-1.5-20
			c-6.714-0.399-10.996-2.071-15-5c-3.726-2.725-6.067-9.011-12.5-7c-0.663,11.838-4.179,23.486-5.5,33
			c3.949-5.428,11.374-17.254,23-15c8.169,1.583,9.804,12.021,4.5,16.5c2.778-4.261,1.022-13.915-4-13c6.443,9.01,1.219,26.339-6,31
			c-4.761,0.094-8.242-1.092-10-4c0.942,0.105,2.598,2.004,3,1c-4.222-2.445-3.899-9.434-5-15c-0.204,1.963-0.194,4.14-2,4.5
			c0.311-2.856,1.244-5.09,1-8.5c-2.939,1.052-3.636,4.732-6,5c-2.387,10.946-6.067,20.6-11.5,28.5c3.428-10.799,3.236-28.932,1-41
			c-0.189,8.979-3.904,17.094-8.5,20c3.465-4.229,6.173-10.439,7-17.5c0.909-7.763-2.182-15.392-2-21
			c6.994,12.024,8.039,33.892,6,50.5c5.398-16.602,10.568-33.432,12.5-53.5c-2.183-0.491-3.412,2.555-5,1
			c0.699-2.134,3.719-1.948,5-3.5c1.959-18.514-2.607-37.352-4-52.5c7.26,13.073,2.896,37.771,11.5,49.5
			c2.463-1.049,7.868-0.061,9.5-0.5c-1.194-2.147-5.068-4.254-5-6c4.472,5.195,12.159,7.175,17,12c-1.619-0.564-4.247-2.73-5.5-2
			c6.294,5.872,10.316,14.017,14.5,22c-2.495-16.005-7.489-29.511-14.5-41c1.177-6.424-7.372-14.234-7-21.5
			C255.701,212.696,274.516,235.048,297.5,253.23z M229.5,222.23c1.413,0.413,1.295-0.705,2.5-0.5c-0.564-2.436-1.237-4.763-2.5-6.5
			C229.5,217.564,229.5,219.897,229.5,222.23z M268,265.73c-2.149-5.518-2.254-13.08-5.5-17.5c-5.058,17.553,1.585,44.858-7,59.5
			c8.874,12.793,9.706,33.627,10.5,54.5c2.714-0.381,3.875,0.792,6.5,0.5c-1.137-25.452-10.727-51.685-4-76
			c-0.185,7.148-1.197,13.47-1,21c9.772,7.061,13.55,20.117,14,36.5c3.897-17.593,3.698-46.473-3-59c3.307-2.302,5.638,1.61,7.5,3.5
			c6.695,6.794,9.519,17.512,11,29c0.514-22.736-9.783-34.067-18-49c-7.177-13.042-7.916-27.441-13-43.5
			c-2.46-1.706-3.62-4.713-6-6.5C265.316,231.415,268.744,248.653,268,265.73z M256.5,235.23c-4.828-5.338-6.391-13.942-19-11.5
			C241.913,229.152,248.894,234.668,256.5,235.23z M161,254.73c9.125-6.708,17.076-14.591,20.5-27c-2.011,0.344-2.854-0.479-4.5-0.5
			C174.669,239.066,167.464,248.693,161,254.73z M135,241.73c-0.165,3.835-0.782,7.218-0.5,11.5
			c16.291-0.208,26.496-11.495,33.5-20.5c1.112-1.43,3.346-3.634,2.5-5C156.478,230.208,144.293,234.524,135,241.73z M94,257.73
			c-9.516,0.788-13.978,13.693-10.5,22.5c2.369,5.998,16.323,12.841,20.5,16.5c1.064-2.154,0.84-3.093,0.5-6
			c-4.086-1.458-10.312-3.296-9.5-8c1.911,2.922,3.672,5.994,8.5,6c-1.697-9.47-4.376-17.957-7.5-26c-4.97,0.863-8.002,3.665-9,8.5
			c-1.792-6.236,3.098-8.919,8-10C94.917,259.814,94.083,259.147,94,257.73z M247.5,265.23c0.614-1.886,1.008-3.992,1-6.5
			C242.041,255.707,241.389,265.728,247.5,265.23z M233,263.23c-0.373-1.539,1.373-0.961,1-2.5c-0.581-0.42-1.34-0.66-2.5-0.5
			C231.201,262.029,231.68,263.051,233,263.23z M232,263.73c-3.944,12.378,15.702,14.646,15.5,2.5c-2.073,0.135-1.948-0.657-3.5,0
			c-0.407,2.935-2.666,6.656-6,5c0.006-0.661,0.876-0.457,1-1c-1.767-0.725-2.737-0.756-4-1c0.281-2.281-1.885-2.115-1.5-4.5
			c0.278,0.001,0.567-0.405,0-0.5C233.012,265.887,232.512,263.672,232,263.73z M230.5,335.73c1.181,3.319,2.642,6.358,5,8.5
			c-0.091-6.76,4.657-11.339,7.5-13.5c-1.588,9.444,4.056,15.927,8.5,21c-2.243-4.278-3.223-10.785-2.5-16.5
			c1.264-9.993,11.571-17.764,5.5-26C248.705,320.269,240.226,328.623,230.5,335.73z M250,335.73c-0.941,7.131,1.635,12.63,2.5,18
			c-5.639-5.028-10.956-10.377-11.5-20.5c-2.106,3.56-3.608,7.725-3,14c5.928,7.238,15.676,10.657,25,14.5
			c-1.063-14.938,1.182-33.182-5.5-42.5C255.164,323.495,250.88,329.068,250,335.73z M137,346.23c2.504-2.996,7.633-3.367,11.5-5
			c-5.043-5.957-10.806-11.194-16-17C133.906,331.657,134.984,339.413,137,346.23z M161,348.23c-3.145,0.39-5.747-3.854-9-5
			c1.382,2.785,0.959,7.374,1,11.5c13.059,6.324,35.309,5.081,38-9c-15.54-2.294-30.601-7.732-40.5-14
			C154.117,336.782,158.384,343.844,161,348.23z M194.5,344.23c1.837,0.163,4.427-0.427,5.5,0.5c0.804-2.529,3.358-3.308,6-4
			c0.078,0.588-0.086,1.419,0.5,1.5c0.954-0.713,2.171-1.162,3.5-1.5C206.34,334.085,197.027,339.64,194.5,344.23z M223,341.73
			c1.131,2.46,5.191,4.351,3.5,8c4.092,2.224,9.345,5.985,5.5,12c-1.932-0.099-3.685-0.018-5,0.5c1.537,2.963,3.976,5.024,4.5,9
			c-1.306,2.527-3.5,4.167-6,5.5c5.333,4.304,6.711,14.767,5,24.5c9.834-9.666,14.155-29.178,32.5-32c0-2.167,0-4.333,0-6.5
			c-16.022-4.145-28.78-11.553-35-25.5C226.815,339.212,223.911,339.475,223,341.73z M204.5,344.73
			c5.507-0.159,8.758-2.575,13.5-3.5C214.034,337.751,208.245,343.238,204.5,344.73z M222,342.23c-6.763,1.571-11.339,5.328-20,5
			c-2.563,1.942-4.875,6.785-7.5,7c0.775-3.225,4.404-3.596,4.5-7.5c-1.833,0-3.667,0-5.5,0c-3.589,4.244-6.304,9.363-11,12.5
			c-12.267,23.545-18.816,50.039-29,75c-10.068,24.677-21.699,49.055-28.5,74.5c-3.896,6.604-6.524,14.477-9.5,22
			c-0.444-1.824,0.883-2.663,0-3.5c-14.149-0.862-26.759-2.191-32,7.5c6.628,10.857,10.528,25.493,19.5,33.5
			c6.389,5.701,21.141,10.687,32,9.5c6.601-0.721,14.208-9.09,17.5-14.5c4.977-8.178,8.289-21.378,11-34
			c7.678-35.747,16.043-78.635,24-111c0.542-2.205,3.415-5.02,4.5-7c1.33-2.428,2.01-4.668,3-7.5
			c4.359-12.471,11.939-18.247,15-30.5c3.542-1.958,7.199-3.802,11.5-5c1.357,0.977,2.248,2.419,3,4
			c-2.295,2.372-6.369,2.965-7.5,6.5c6.87,0.036,9.427-4.239,12.5-8c-1.329-7.181-10.607-8.847-16-9c6.057,0.35,6.645-7.299,12-6
			c-0.809,2.358-4.148,2.186-5,4.5c3.419,1.755,7.503,0.345,11-0.5c0.123-1.543,0.507-2.827,1-4c-4.758-1.814-6.435-6.867-11.5-7
			c-6.386-0.167-9.897,8.576-15.5,7c3.93-3.237,5.948-8.386,11-10.5c2.35,1.983,6.204,2.462,9.5,3.5
			C225.409,345.822,222.941,344.789,222,342.23z M149,343.23c-4.037,2.13-9.364,2.97-12,6.5c3.133,17.612-0.436,36.801,2,54.5
			c1.546,11.232,8.005,21.711,12,29.5c3.363-9.971,8.13-18.537,12-28c-3.737-5.377-4.289-11.862-8-18.5
			c-4.93-8.816-16.008-16.374-7.5-27.5c-2.926-4.199,0.579-8.112,3-10C150.629,346.934,150.409,344.489,149,343.23z M92.5,353.23
			c10.408,5.26,24.236,11.431,30,23c1.141-6.969-0.239-13.523,0-21C111.412,358.556,102.621,352.094,92.5,353.23z M149.5,366.73
			c4.106,6.061,14.077,6.257,23.5,7c1.493-5.174,4.513-8.82,6.5-13.5c-11.333,0.837-25.567,1.138-30-6.5
			c-2.047,2.786,1.341,6.361,0.5,11c5.713,4.453,15.545,4.789,23.5,7C165.795,373.633,155.058,370.272,149.5,366.73z M266,367.73
			c2.135-0.864,5.327-0.673,6.5-2.5c0-0.333,0-0.667,0-1c-1.695-0.805-3.975-1.024-6.5-1C266,364.73,266,366.23,266,367.73z
			 M274,365.23c1.373,1.177,4.627-0.018,6-0.5C278.532,364.778,274.455,362.96,274,365.23z M118,404.23
			c0.798-7.951,3.289-15.964,2.5-22c-0.607-4.651-9.006-17.15-14-17.5c-5.527-0.388-12.268,6.666-18,8
			c-3.54,0.824-7.121,0.266-10.5,1c-9.271,2.014-17.6,6.862-17,15c5.11-7.768,14.851-12.855,27-12c18.429,6.904,23.904,26.763,27,49
			C116.65,420.292,117.184,412.358,118,404.23z M155,382.73c3.795-1.968,9.719,1.264,13.5,2.5c-5.693,0.75-8.351-3.264-13-2
			c3.762,5.904,5.395,13.938,9,20c2.078-9.756,4.806-18.86,7.5-28c-10.914-0.753-22.08-1.254-24.5-10.5
			C145.158,373.602,151.937,377.605,155,382.73z M255,435.73c0.811,9.303,5.63,21.621,9.5,28c4.477,7.38,6.471,15.803,10.5,23.5
			c5.788,11.058,17.785,18.824,25,27.5c-14.338-13.338-19.279-31.809-25.5-53c-2.085-7.104-4.117-14.319-4.5-22
			c-1.131-22.707,7.141-47.072,3-71.5c-2.747,0.586-5.44,1.227-7.5,2.5C265.629,394.933,253.197,415.051,255,435.73z M212,374.73
			c-0.439,3.061-1.325,5.676-2.5,8c1.504,1.162,3.11,2.223,4.5,3.5c3.789-1.711,8.717-2.283,13-3.5c-1.546-1.121-1.885-3.448-4-4
			c-1.338,2.276-5.658,1.361-8,0.5c-0.29-4.445,7.319-5.799,5.5-8.5C218.059,372.456,214.608,373.172,212,374.73z M285.5,410.73
			c1.56-3.702,4.1-7.362,5-10.5c3.929-13.695-2.938-27.436-16-28c4.724,23.911-5.361,46.817-1,71.5
			C275.866,435.153,281.504,420.215,285.5,410.73z M240.5,494.73c1.912,10.388-0.962,16.56-6,19.5
			c-0.65,11.565,0.369,19.766-1.5,31.5c-1.633,10.258-5.365,19.076-4.5,29c1.103,12.65,7.191,22.252,14,31.5
			c6.814-2.336,15.232,0.665,21,0.5c-19.027-12.956-5.73-48.461-8-72c6.779-11.745,16.151-26.739,16.5-43
			c0.264-12.305-8.364-18.468-12-28.5c-3.408-9.402-5.945-20.303-7-31.5c-3.075,0.199-6.771-0.364-8-0.5
			c2.618-3.882,5.408-7.592,9-10.5c2.766-14.89,10.034-30.085,7.5-47c-1.719,0.053-3.591,0.258-4-1
			c-13.647,3.687-15.396,19.271-23,29c1.573,9.028-2.806,18.443-3,28c-0.176,8.661,1.149,17.067,0.5,25.5
			c-0.784,10.179-4.143,20.317-0.5,30.5c1.677,0.825,3.18-2.806,6-2.5c0.445,3.592,5.956,7.353,7,12c1.271,5.658,0.646,15.735-3,17
			c-0.953-0.253-2.091-2.856-1-3.5c1.171,0.162,0.485,2.181,1.5,2.5c4.284-9.586,0.167-22.497-6-26.5c-1.46,0.898-4.255,2.232-2,4
			c1.123,1.726,0.927-2.025,3-1C237.419,489.638,239.931,491.639,240.5,494.73z M98,459.73c4.344-5.45,10.513-11.272,13-17
			c4.728-10.886,3.242-22.587-0.5-35c-4.218-13.994-10.714-25.242-22.5-29.5c-11.086-0.905-19.777,3.26-24.5,9.5
			c-4.369,5.771-8.278,15.95-9,23c-0.492,4.803-0.421,10.177,0,15c2.165,24.819,15.313,49.712,18.5,70.5
			c22.735,2.235,24.915-16.085,45.5-16c-2.104-9.563-1.428-21.905-1.5-33.5c-7.817,10.521-19.926,23.734-32.5,29.5
			C87.939,471.221,93.134,465.836,98,459.73z M206.5,387.23c3.189,2.478,7.576,3.757,10,7c-6.11,8.761-14.262,17.245-21,25
			c-2.238,2.576-3.894,6.619-7.5,7c8.23-11.271,18.074-20.927,26.5-32c-3.355-1.645-5.822-4.178-9.5-5.5
			c-4.869,6.496-6.801,16.031-11,23c-1.375,2.281-3.9,4.011-5,6.5c-2.596,5.875-2.966,14.29-4.5,21.5
			c-4.73,22.228-10.151,44.671-13,65.5c11.333-9.834,35.917-6.416,53.5-10c-2.247-8.268-1.758-23.565-6.5-31
			c-1.85,1.65-1.846,5.154-5,5.5c4.4-6.03,4.825-13.619,8-22c2.813-7.426,3.291-10.897,3.5-19c0.354-13.702,5.913-28.334,3-44
			c-4.259-1.343-8.661,1.278-12.5,2c8.83,4.521,3.754,21.768,5,37c0.586,7.167,1.011,16.291,0,22.5c-8.686-1.691-18.228-5.527-26-8
			c-2.541-0.808-6.694-0.617-7-3.5c11.326,2.508,20.784,6.883,32,9.5c-0.511-16.52-1.173-35.453-0.5-51.5
			C215.357,390.578,209.349,380.964,206.5,387.23z M229,417.73c-0.983,6.719-0.604,11.685-1,17.5c-0.649,9.531-8.952,18.224-7,29
			c0.464,2.563,2.421,4.699,3,7c1.889,7.517-0.166,15.328,4.5,23c5.864-0.453,2.099-6.203,1.5-9.5
			c-2.927-16.113,1.79-29.361,1.5-45.5c-0.061-3.363-1.108-6.688-1-10c0.305-9.319,3.829-18.158,3.5-26.5
			c-0.028-0.305-0.075-0.592-0.5-0.5C229.278,405.292,230.061,410.482,229,417.73z M131,456.23c-0.67,2.843-0.191,7.027-3,9
			c-0.042-15.257,4.471-33.403,0-48c-1.237,10.93-5.564,18.769-9.5,27c1.343,11.324-0.572,25.905,2,36
			c3.081,0.586,7.115,0.218,8.5,2.5c0.003,8.672-6.908,13.09-5,22c7.388-23.778,16.63-45.703,25.5-68
			c-4.416-6.918-7.124-15.543-10.5-23.5C138.652,430.225,134.059,443.262,131,456.23z M247,430.23c1.501,0.665,3.825,0.508,6,0.5
			c-0.672-3.186,1.503-6.145,0-8.5C251.527,425.424,248.629,427.193,247,430.23z M109.5,482.73c-10.794,4.094-15.242,13.87-29,15
			c-8.411,0.69-16.269-1.063-23.5,2c8.668,2.165,12.765,8.901,19,13.5c8.281-10.818,27.165-18.497,45.5-13
			c1.569-6.098,4.871-10.462,6-17C121.056,482.416,115.119,480.6,109.5,482.73z M227,497.23c-17.885,2.282-44.121,0.545-56.5,10
			c-1.228,8.606-4.778,17.554-5,25.5c14.145-11.107,30.766-18.979,54-20c9.697-0.427,16.946,0.564,20-6
			c-1.248-5.419,0.606-13.939-3.5-16.5C234.425,493.989,230.375,495.271,227,497.23z M59,496.73c0.898,0.789,7.407-1.18,11.5-0.5
			c0.401-1.734-0.745-1.922-0.5-3.5C65.725,493.455,62.823,495.554,59,496.73z M93.5,503.23c0.06,1.44-0.273,3.273,0.5,4
			c0.272,1.194,3.123-1.799,3.5-0.5c1.046,1.666-1.031,3.763-3,4c0.545,2.121,0.375,4.958,1.5,6.5c6.409-2.351,16.259-3.971,24-2
			c2.277-3.824,1.877-7.256,2-13C114.294,499.154,100.124,499.509,93.5,503.23z M91.5,503.73c-4.793,3.577-13.371,5.376-14,12
			c-0.356,3.75,3.067,7.055,3,12c3.947-4.054,7.465-8.535,14-10c-0.067-2.6-0.933-4.4-1-7c0.077-1.451,4.207-1.421,2.5-3
			c-0.46,0.873-1.563,1.104-3,1C91.831,507.732,93.598,503.8,91.5,503.73z M168,533.23c1.763,1.154-1.352,4.257,0.5,5.5
			c6.023-1.645,9.39-8.607,12.5-11.5c-2.536,6.297-6.342,11.325-13,13.5c-1.652,9.181-2.076,18.267-3.5,28
			c-1.316,8.992-4.61,18.951-3.5,28c0.664,5.411,3.923,10.44,5.5,15.5c3.665,11.758,5.451,21.208,12,30.5
			c2.668,3.785,7.598,10.513,10.5,11c3.125,0.524,7.32-2.185,10.5-2.5c17.41-1.728,26.977,11.145,46,6.5
			c-0.639-15.09-2.425-30.406-7.5-40.5c-1.958-3.894-4.892-6.861-6.5-10.5c-5.301-11.996-9.776-26.86-10-42.5
			c-0.163-11.34,3.282-23.281,1.5-35.5c-2.815-2.019-5.476-4.19-6.5-8c2.396,1.771,3.539,4.795,7,5.5c0.22-3.843,3.251-9.997,2-12
			C199.576,513.807,182.453,522.184,168,533.23z M229,515.73c-3.187,7.495-2.68,15.708-3,23.5c-0.302,7.357-3.059,15.322-3.5,22.5
			c-1.414,23.021,8.943,40.094,17.5,54c2.363-2.304,7.063-2.271,11-3c1.005-1.363-2.348-2.633-2-5c4.979-2.283,5.977,3.63,9,4.5
			c2.815,0.811,6.192-0.908,9.5-0.5c-1.206-0.961-1.985-2.348-3-3.5c-5.036-0.031-10.306-2.148-15.5-2
			c-4.944,0.142-9.843,3.147-13.5,1.5c1.519-0.648,4.009-0.324,5-1.5c-5.827-10.11-11.966-18.904-13-31.5
			c-1.541-18.768,9.058-38.417,5.5-60.5c-1.333,0-2.667,0-4,0C229,514.73,229,515.23,229,515.73z M82,529.73
			c-9.609,1.726-9.119,16.214-12,23c5.979-5.356,7.799-13.747,12.5-20c7.013-9.329,18.236-8.259,34-7c0.423-3.577,2.163-5.837,3-9
			C102.882,515.049,87.799,518.954,82,529.73z M72,553.23c7.112,0.112,12.137-1.863,15.5-5.5c-2.229-2.938-3.271-7.062-5.5-10
			C79.212,543.442,75.561,548.291,72,553.23z M274,620.73c-2.143-2.19-3.609-5.058-5.5-7.5c-4.167,0-8.333,0-12.5,0
			c-1.202-1.964-1.354-4.979-5-4.5c-1.005,1.363,2.348,2.633,2,5c-4.46,0.539-9.318,0.682-12.5,2.5c1.772,3.062,3.793,5.874,7,7.5
			C252.953,619.563,269.055,619.206,274,620.73z"/>
		<path fill-rule="evenodd" clip-rule="evenodd" d="M152.5,567.73c1.145,3.818-1.892,7.77-1.5,12.5
			C149.859,578.338,151.774,571.067,152.5,567.73z"/>
	</g>
</g>
</svg>
