<?xml version="1.0" encoding="utf-8"?>
<!-- Generator: Adobe Illustrator 14.0.0, SVG Export Plug-In . SVG Version: 6.00 Build 43363)  -->
<!DOCTYPE svg PUBLIC "-//W3C//DTD SVG 1.1//EN" "http://www.w3.org/Graphics/SVG/1.1/DTD/svg11.dtd">
<svg version="1.1" id="图层_1" xmlns="http://www.w3.org/2000/svg" xmlns:xlink="http://www.w3.org/1999/xlink" x="0px" y="0px"
	 width="1280px" height="720px" viewBox="0 0 1280 720" enable-background="new 0 0 1280 720" xml:space="preserve">
<g id="XMLID_2_">
	<g>
		<path d="M366,410.5c2.38,8.95,4.78,17.42,4,29c-1.06,15.76-5.45,33.95-8,50c-2.45,15.44-3.92,29.04-9,42
			c-0.22,0.56-2.54,5.03-1.5,2.5c1.59-5.57,3.5-11.33,5-17.5c1.38-5.69,4.36-13.42,3.5-19c-0.46-3-4.86-8.52-7-10.5
			c-7.48-6.93-23.68-7.18-30.5,1c-1.59,15.41-1.44,32.56-1.5,49.5c0.4,1.71-0.74,2.85-0.5,0.5c0-0.67,0-1.33,0-2s0-1.33,0-2
			c-1.27-32.29-1.08-70.83,11.5-92.5c-0.71-10.59-6.11-20.01-10.5-28.5c-3.09,1.41-4.68,4.53-6,8c-1.25,3.29-0.75,7.8-3.5,10
			c-0.5-3.86-0.08-11.11-4-13c-0.19-3.33-0.92-6.11-1.96-8.59c1.25-2.51-0.84-5.8-0.54-8.91c3.2,5.8,1.71,16.29,6.5,20.5
			c0,1.67,0,3.33,0,5c4.3-5.38,1.03-19.71,0-27.5c6.37-7.63,5.97-22.03,15-27c2.24,0.04,3.29-0.21,5,0.5c1.56,0.65-2.29-0.46-3.5,0
			c-7.12,2.73-7.98,15.72-12.5,22c-0.38,1.71,2.03,0.63,1.5,2.5c2.58,16.59,13.04,25.29,15.5,42c1.38-1.28,2.07-3.26,3-5
			c-3.93,10.24-10.95,21.71-11.5,37c3.45-0.89,6.39-2.28,10-3c-3.72,1.45-6.2,4.13-10.5,5c-0.1,4.73-0.83,8.84-1.5,13
			c2.62-0.12,4.32-3.09,7-4c12.91-4.39,26.91,4.44,30.5,14c1.51-5.49,1.92-12.08,3-18c-4.33-5-10.53-8.14-18-10
			c-1.94-0.24-7.52,0.54-7-0.5c12.51-1.34,18.08,4.25,25,8.5c1.47-15.22,7.2-29.18,6-45c-1.33-17.57-9.6-34.02-13-49
			c1.47,2.03,2.47,4.53,3,7.5c1.68-3.54,2.77-10.16,2.5-14c-5.17-2.5-12.99-2.34-17-6c-3.8,0.36-5.88,2.46-9.5,3
			c3.75-1.22,5.5-4.92,9-5c4.84-0.11,7.83,7.93,14,5.5c-9.25-11.92-19.97-26.69-20-49.5c-5.24,21.76-9.73,44.27-22,59
			c1.63-12.03,6.96-20.37,6.5-34.5c-2.17,9.16-6.13,16.53-12.5,21.5c-2.1,11.4-7.87,19.12-15,25.5c2.09-7.74,4.01-15.65,3.5-26
			c-5.96,25.88-13.85,49.81-30,65.5c13.87-18.63,22.96-42.04,29.5-68c4.32,7.12,3.03,18.57-1,25c8.33-8.5,12.43-25.57,16.5-40
			c0.43,4.77-1.71,11.29-3,16c5.55-6.28,12-16,12.5-29c3.9,14.43-1.5,28.15-5,38.5c10.93-20.77,18.07-47.53,20-78
			c2.08-32.96-14.6-49.14-36-60c-1.67,0.33-0.87,3.13-2,4c11.77,7.89,23.59,15.74,29,30c-6.47-12.53-16.65-21.35-28.5-28.5
			c-1.82,0.85-1.17,4.17-2.5,5.5c12.09,8.25,25.49,15.18,24,37c2.31-6.37-0.3-14.53-2.5-19.5c2.37,0.42,2.28,4.26,3,7
			c1.92,7.24,2.8,15.48-0.5,24c-5.05,13.01-18.53,28.55-27.5,37c-3.38,3.19-7.8,5.35-9,9.5c13.36-6.31,25.81-17.85,32.5-32.5
			c-4.65,15.3-11.7,30.44-20,44c-8.11,13.25-18.44,25.42-30,33.5c6.74-4.76,11.12-11.88,16-18.5c-0.2-4.7,0.8-8.2,2-11.5
			c-1.31-3.09-2.92-8.33-1.5-12.5c-0.65-1.1-2.7,0.59-4,0.5c5.54-2.52,2.77-10.78,4-18c1.16,3.17,0.17,8.5,0.5,12.5
			c11.41-10.92,25.15-23.85,32-41c-1.56-5.61-6.92-7.41-11-10.5c5.96,0.7,10.14,3.2,12.5,7.5c5.94-8.87,1.15-26.66-5-33.5
			c-5.59-6.22-12.76-10.48-18.5-15c-2.46,6.88-2.91,15.75-7,21c1.34,5.33,9.57,7.27,9.5,13.5c-0.05,4-2.58,8.84-3,14
			c-0.62,7.56,2.21,14.12,1.5,21c-5.73-10.67-12.72-22.97-28.5-24c-9.15-0.6-16.62,3.82-23,8.5c-0.64,2.36-1.36,4.64-2,7
			c-3.26-1.07-4.06-4.6-9.5-3.5c-4.06,4.77-6.29,11.38-6,20.5c-3.73-9.29,3.22-19.47,5.5-26.5c-3.73,0.77-7.19,1.81-9,4.5
			c1.71-5.46,14-4.67,17-10.5c-0.12-3.12,0.82-5.18,1.5-7.5c-11.63-1.53-24.07-2.26-28.5-11c1.63-3.37,1.46-8.54,2.5-12.5
			c1.5-0.5,2.23-1.77,4.5-1.5c0.36-2.53-1.37-2.96-1.5-5c-11.92,3.18-25.41-1.75-34-7.5c-2.3-1.54-4.91-4.16-6.5-4.5
			c-3.56-0.75-6.83,1.68-10.5,1.5c-4.2-0.21-7.83-3.18-12-0.5c4.5,1.52,9.38,4,12.5,8c5.52,7.07,6.23,18,11,27
			c3.35,6.32,8.92,8.22,9.5,16.5c-3.09-6.41-7.75-11.25-11-17.5c-1.64,6.22-5.78,17.22-4,25.5c0.35,1.61,0.49,0.09,1,1
			c3.68,21.35-8.78,35.15-9,53.5c-0.22,18.44,8.76,38.9,2,59c-1.45-1.48,0.19-4.12,0-6c-7.37,8.13-1.52,29.48-6,40.5
			c-0.63-3.47,1.69-8.31,1-13.5c-3.68,17.43-13.07,29.68-26,38c-6.5,4.18-14.17,6.72-21,11c-6.73,4.21-12.55,9.68-20,12
			c-0.79-1.07,2.17-1.61,4-2.5c5.45-2.65,9.57-6.66,14.5-10.5c6.75-5.26,15.11-6.69,22-11c12.97-8.11,20.98-20.94,25-37
			c0.48-0.86,1.66-1.01,2-2c-1.91-10.91-1.77-21.13,4.5-27c4.3-24.61-6.47-46.53,0-68.5c-2.88,1.79-8.32,5.34-13,7
			c0.09,8.09-5.63,10.37-11,13c-0.42-0.58-0.66-1.34-0.5-2.5c-8.48,8.02-18.01,14.99-27.5,22c-1.57-0.35-0.65-1.33-0.5-2.5
			c-14.54,9.23-27,25.89-43.5,36.5c-5.31,3.41-18.61,9.85-24.5,5.5c-1.8-1.33-4.27-6.55-6-9c-4.68-6.65-11.76-20.03-8-33.5
			c3.77-13.52,8.44-28.89,12.5-44.5c4.19-16.11,5.24-33.15,11.5-45.5c-6.53,23.91-13.14,54.59-20,80.5c-1,3.79-3.01,7.25-3.5,10.5
			c-2.49,16.46,6.83,28.38,12.5,39.5c7.17,7,17.58-1.29,24.5-6c15.58-10.61,31.53-25.33,45-35.5c2.69-13.36-6.89-36.6-19.5-34
			c-4.81,0.99-8.56,7.3-13.5,9.5c0.56,8.81,0.97,18.9-0.5,27c-0.44-23.23-0.8-53.26,3-76.5c0-1.83,0-3.67,0-5.5c0-1,0-2,0-3
			c0.39-0.91,0.54,0.3,0.5,1c0.09,18.92-3.17,34.49-2.5,54c2.92-0.42,7.87-3.13,10-6c-0.54-8.93,6.42-14.54,16.5-14.5
			c6.55-4.61,13.34-8.99,15.5-18c6.96-1.89,8.16-8.45,11.5-15c4.39-8.61,12.6-15.6,19-23c-7.05,9.78-17.89,20.11-22.5,34
			c12.37,8.3,18.5,22.84,21.5,40.5c11.74-3.41,18.4-17.44,13.5-31.5c1.7,3.63,2.74,7.92,3,13c7.52-15.89-4.4-37.54,5-52
			c-1.3-2.03-1.69-4.98-2-8c-6.07,1.1-13.6,0.73-17,4.5c1.04-4.13,10.33-4.34,16-5.5c-1.48-9.7-9.63-23.89-21-20.5
			c0.14-2.58,4.38-4.71,7.5-5c2.47-0.23,4.47,1.3,7.5,1.5c4.05,0.26,7.93-1.99,11-1.5c3.96,0.63,8.57,6.07,14,8.5
			c7.9,3.53,15.6,6.39,25,4.5c-6.43-3.98-11.22-7-17-12c-1.14,1.86-0.02,5.98-1,8c-5.17-2.66-6.54-9.12-8-15.5
			c-2.34,2.83-2.44,7.89-6,9.5c-1.69-2.68-0.32-4.59-1-7.5c-0.77-3.3-3.81-5.67-4.5-9c-1.6-7.75,0.49-16.41-1.5-24
			c-1.12-4.3-6.43-7.41-6-12c-1.52,11.15-2.76,22.57-7.5,30.5c5.59-1.58,8.45-10.21,12.5-15c-1.48,8.02-8.54,14.79-16,18.5
			c6.08-9.81,10.74-21.87,10-36.5c-0.47-9.36-5.09-19.89-3-30.5c-5.31,5.35-11.08,14.59-13,25c0.62-11.05,6.76-20.91,13.5-27.5
			c0.07-6.27,1.75-10.92,2.5-16.5c0.2,8.9-2.74,20.01-2,31c0.93,13.87,4.88,26.88,12,34.5c-2.27-13.92-2.05-30.42,3-41
			c-1.91-0.39-4.76,2.56-7.5,3c3.32-5.18,10.92-6.08,14-11.5c-0.55,1.78-2.13,2.54-2.5,4.5c1.53,0.36,1.47-0.86,3-0.5
			c-0.3-1.2,0.63-3.63-0.5-4c0.18-0.32,0.35-0.65,0.5-1c0.19-6.98-0.77-15.1,3-18.5c-0.39,5.97-2.92,14.05-2,23
			c2.93-0.07,4.83-1.17,8-1c2.18-10.82,6.16-19.84,11-28c1.12,1.77-1.02,4.07-2,6c-2.93,5.78-5.88,13.49-7.5,21
			c11.45,0.95,15.05-10.28,21.5-16c0.7-5.16-0.02-9.78-0.5-15c5.44,16.02-3.15,31.11-8,43c3.74-2.03,6.27-6.54,9-11
			c2.69-4.4,4.24-9.42,6.5-14c-2.86,14.14-3.91,32.09-13.5,42c0.19,0.8,2.36-0.6,3-1c0.46,0.99-3.15,2.17-5,2.5
			c6.97-7.19,10.31-18.02,11.5-31c-3.41,5.48-8.48,11.2-12.5,14.5c1.79-7.38,6.81-15.86,8.5-25c-5.67,6.21-13.25,12.38-22,16.5
			c0.31,2.95-1.6,5.93-1,8.5c0.6,2.59,2.99,2.9,3.5,3.5c-1.02,1.88-3.44-1.32-4.5-2.5c0.13-4.37,1.07-7.93,1.5-12
			c-2.02-1.34-5.05,0.6-7,1c0.77,5.4,3.79,8.55,5.5,13c-3.47-3.03-5.54-7.46-7-12.5c-1.88-0.38-2.39,0.61-4,0.5
			c-2.82,4.01-3.9,9.76-5,15.5c0.89,0.04,3.09-2.89,5.5-3c-2.36,0.93-3.53,4.72-6,4c0.57,3.51-1.24,8.21-0.5,12
			c0.78,4.02,3.95,6.99,4.5,11c0.73,5.27-0.9,11.19,0,17.5c1.37,9.59,12.38,18.91,18.5,24c10.46,8.71,20.41,17.75,36.5,14
			c3.86-0.9,8.27-2.27,12.5-4c2.9-1.19,2.76-1.87,4.5-2.5c6.15-2.24,13.01-6.12,18.5-10c0.53-13.48,7.22-20.78,10.5-31.5
			c-5.49,7.18-14.31,15.36-23.5,20.5c-1.2-2.46,4.22-4.74,6-6.5c10.8-10.71,19.07-27.56,19-50c-6.28-2.39-9.79-7.54-14.5-11.5
			c2.21,4.52,4.87,6.27,4.5,11.5c-4.89-7.11-13.02-10.98-20.5-15.5c-0.79,0.88-0.67,2.66-1,4c-1.32-0.84,0.44-4.78-1.5-5
			c-1.21,2.22,1.44,4.88,1.5,7.5c-1.95-2.38-3.53-5.13-4.5-8.5c-2.81-1.88-8.06,0.29-9-2.5c2.44-1.4,5.44,0.41,8,0.5
			c0.06-6.06-2.67-13.66-2.5-21.5c-5.05,21.78-12.95,40.72-27.5,53c6.19-6.86,15.8-20.51,20-32c4.54-12.41,6.66-26.04,10.5-39.5
			c-1.38,11.87-3.35,31.98,3.5,41c2.9-9.26,1.99-22.35,7-29.5c-0.79,5.38-3.79,12.88-4,20.5c5.23,6.5,10.11,17.5,18.5,22.5
			c-5.8-7.2-12.27-13.73-12-27c3.86,14.14,11.81,24.19,23.5,30.5c-2.28-14.89-5.3-29.03-15-36.5c10.43,5.93,17.5,27.56,16,48.5
			c-1.31,18.22-12.55,32.7-21,41.5c7.67-4.78,13.95-10.95,19-18.5c5.04-7.53,7.27-16.86,12.5-24.5c-2.64,9.53-7.04,17.29-12,24.5
			c-4.65,18.21-12.38,30.95-12.5,53c4.63-9.79,8.44-18.85,14.5-28c7.07-10.68,15.27-17.6,16.5-33.5c0.66-8.6-1.33-21.06,1-30
			c0.04,3.3-0.24,6.9,0.5,9.5c11.69,3.64,6.58,25.54-2.5,28.5c-1.14,5.53-3.12,10.21-6,14c1.84,3.93-1.22,9.7,0.5,13.5
			c2.44-0.85,2.27-4.2,3.5-6.5c3.34-6.24,9.78-12.17,14-18c3.72,4.61,4.05,12.61,5,20c-1.61-2.23-1.01-6.26-2-10
			c-0.46-1.75-2.03-7.24-3.5-7.5c-1.21-0.22-7.66,8.82-8.5,10c-2.96,4.15-5.16,8.45-6.5,12c7.57,6.82,18.09,10.89,25,19.5
			c11.74,14.64,16.87,39.8,10.5,66c0.74,0.27,0.78,0.31,1.5,1.5c0.95,8.78,2.17,17.29,5.5,25c4.55,10.54,8.21,20.08,18,24.5
			c1.87,6.29-2.71,11.95-2,19.5C361.02,398.11,364.38,404.4,366,410.5z M316,418.5c0.99-3.18,3.51-4.82,4.5-8
			c-2.18-4.49-3.09-10.25-5-15C313.9,401.74,314.57,412.19,316,418.5z M308,186.5c2.19-0.66,3.78,1.85,3,2.5
			c-0.43-1.23-1.17-2.17-3-2c0.24,6.78-0.31,10.25-1,16.5c2.5-0.17,2.42-2.91,4-4c0.48,4.15-6.01,3.98-4,8
			c5.49-3.24,12.1-22.62,1-24.5C308,184.17,308,185.33,308,186.5z M289,364.5c9.04-12.79,18.68-27.66,24-42.5
			c-7.05,10.12-15.46,18.87-27.5,24C285.94,352.9,286.65,359.51,289,364.5z M298.5,242.5c1.72-0.62,1.73-2.94,2-5
			c-0.64-0.03-0.69-0.64-1.5-0.5C299.37,239.37,298.44,240.44,298.5,242.5z M298,234.5c-0.32-2.51,0.66-6.32-0.5-8
			c-1.15,2.18-3.59,3.08-4,6C294.55,233.52,296.69,235.32,298,234.5z M297.5,248.5c-1.5-1.37,0.67-3.3,0-5.5
			c-0.95-0.21-0.9-1.43-2.5-1C294.76,244.92,294.72,250.26,297.5,248.5z M297.5,241.5c0-1.83,0-3.67,0-5.5
			c-0.88-0.32-2.48-2.47-3.5-1C295.19,237.15,293.95,241.71,297.5,241.5z M295,315.5c-2.62-9.76-2.94-24.04,1.5-32
			c-2.45-4.38-5.79-7.88-9.5-11c-1.63,1.37-2.17,3.83-4.5,4.5c0.76-2.41,2.17-4.17,3-6.5c-2.92-2.42-5.36-5.31-9.5-6.5
			c-0.77,0.92-1.07,4.9-2,4c0.84-0.83,0.4-2.94,0.5-4.5c-1.02-0.18-3.28-1.67-4-0.5c1.62,0.38,3.17,0.83,3,3
			c-4.75,7.08-21.67,6.13-27.5,11.5c-3.52,3.25-2.85,10.53-4,15.5c1.45-1.06,2.79-4.86,4-4.5c-2.17,8.5-11.92,9.41-14.5,17.5
			c5.16-0.49,8.66,0.67,10.5,3.5c-0.21-3.38,0.72-5.61,1.5-8c5.57-3.38,10.39-7.13,17.5-8C279.33,291.25,289.47,303.61,295,315.5z
			 M287.5,270.5c3.95-9.9,8.95-24.98,5-38c-1.19,6.59-8.65,10.49-9,17.5c-0.13,2.61,1.87,6.58,2.5,10
			C286.71,263.81,286.58,267.12,287.5,270.5z M286.5,368c1.61-1.81,1.22-6.63-0.5-8C286.32,362.51,285.34,366.32,286.5,368z
			 M286,268.5c0.18-7.18-1.75-12.25-4.5-16.5c-1.3,3.87-3.77,6.56-4.5,11C281.04,263.8,282.8,266.87,286,268.5z M274.5,262
			c0.66-4.85,1.4-12.26,1-16.5c-3.71,6.29-14.25,5.75-18.5,11.5C261.66,259.84,268,261,274.5,262z M272.5,266
			c-3.31-4.52-10.19-5.48-16-7.5c0,0.67,0,1.33,0,2c2.22-0.08,7.59,8.14,2.5,10.5c-0.09-2.48,1.13-4.41,0-6.5
			c-5.44,11.67-31.74,11.21-40.5,2.5c1.38-0.29,1.56-1.77,2-3c-1.83-0.17-2.78,0.56-4,1c0.42,4.3,0.37,9.23-2,12
			c5.79,6.37,15.91,8.42,27.5,9C241.06,268.23,264.66,275,272.5,266z M267.5,163.5c-3.65-3.85-5.8-9.2-9-13.5
			c-1.12,1.88,0.18,6.18-1,8C260.77,159.57,264.79,163.04,267.5,163.5z M255.5,264c-1.27-1.87,0.53-7.26-1-7.5
			c-8.47,4.81-25.24,7.34-32.5,3.5c1.19,2.44-0.35,4.91-0.5,7.5C231.64,270.47,250.47,273.5,255.5,264z M199,251.5
			c1.46-8.46-2.57-11.43-6.5-14.5C193.8,242.7,195.14,248.36,199,251.5z M187,244.5c2.65-2.43,1.75-9.65,2.5-12.5
			c-9.3-5.08-1.68-26.48-8-35.5c0.39,4.11,1.04,7.96,1,12.5c-1.58,0.73-2.98-2.3-3,0C179.92,222.92,182.76,234.41,187,244.5z
			 M152.5,354c2.77-15.15-10.55-51.68-26.5-40.5c-0.82,2.18-1.57,4.43-2,7c14.74,5.76,17.48,23.52,22,39.5
			C147.31,358.24,152.02,356.61,152.5,354z M127,373c4.68-5.65,12.05-8.62,16.5-14.5c-2.14-12.22-7.25-36.59-20-36
			c-4.73,0.22-9.57,5.92-11,9C126.14,336.04,132.19,358.97,127,373z M116.5,381.5c20.32-9.18,10.77-48.94-11.5-50
			c-4.18,2.68-10.83,5.46-10,11.5C112.96,344.52,119.9,364.96,116.5,381.5z"/>
		<path d="M350,372.5c2.72,1.61,4.03,4.63,5.5,7.5C353.46,377.71,351.44,375.39,350,372.5z"/>
		<path d="M309.66,546.91c3.01-1.54,6.85-6.33,9.84-9.41c-1,5.17-7.73,8.93-10.5,14c-1.67,0-1.71,1.63-3.5,1.5
			c-2.95,3.39-4.97,7.7-7,12c1.74,2.76,1.94,9.16,1,13c1.98,0.3,2.9-1.95,4.5-0.5c-1.13-4.21-0.04-10.32,3-12
			c0.05,4.88-3.1,6.55-2.5,10.5c0.99,6.47,13.39,7.07,19.5,9.5c1.96-1.37,1.17-5.5,4-6c1.45,1.6-0.8,2.52-0.5,4.5
			c2.96-2.42,6.3-0.41,10-1.5c4.3-1.27,8.83-7.72,9.5-13c0.59-4.64-1.5-9.75-1-15c0.35-3.71,5.53-15.39,4-20
			c2.04,6.17-1.83,12.99-2.5,19c-0.6,5.39,0.99,10.48,0.5,15c-0.81,7.42-4.4,11.25-9,16c-7.18-0.51-12.88,0.45-16.5,3.5
			c-2.65-0.69-4.8-1.87-7-3c-3.17,10-4.81,21.53-5,34.5c-1.11,0.28-0.71-0.96-1.5-1c0.26,5.59-1.63,9.04-1,15
			c-0.59-0.08-0.42-0.91-0.5-1.5c-1.76,4.54-1.06,11.07-1.5,12c0-0.33,0-0.67,0-1c-1.6-0.67-0.28,1.73-1,2.5c-0.17,0.19-0.6-1.2-1-1
			c-1.03,0.51-2.03,3.19-3.5,4.5c-5.06,4.53-15.11,10.28-22.5,11.5c13.22-5.38,24.75-9.44,27-23c2.28-13.74,0.41-30.58,4.5-43.5
			c0.92,0.08,0.31,1.69,1,2c0.17-0.17,0.32-0.35,0.45-0.54c0.01,0.01,0.03,0.021,0.05,0.04c0-0.03,0-0.07,0-0.1
			c1.21-1.75,1.42-4.511,2-6.9c-1.59,1.36-2.13,3.81-2,6.9c-0.01,0.02-0.03,0.04-0.05,0.06c-2.59-2.26,1.57-6.06-0.45-8.96
			c0.01-1.17,1.36,0.18,1,1c0.77-0.73,1.05-1.95,1-3.5c-0.14-1.03-1.86-0.47-2-1.5c-5.51,1.31-7.55,8.3-10.5,13.5
			c-1.87,3.28-5.31,5.55-4.5,7.5c-5.11,1.99-10.01-0.58-15-0.5c-3.03,0.05-5.75,1.91-8.5,1.5c-6.64-1-9.9-7.92-14-12.5
			c-4.57-2.93-11.04-3.96-14.5-8c4.79-9.9,9.23-27.77,3-38.5c-2.84-4.9-6.76-7.61-12.08-8.99c0.03,0,0.05,0,0.08-0.01
			c-0.08-0.01-0.16-0.02-0.25-0.03c-5.17-1.3-11.65-1.37-19.75-0.97c0.69,1.14,3.48,0.19,5,0.5c-4.71,0.21-17.45,1.77-22,0.5
			c-1.03,0.27-0.12,2.37-1.5,1c-3.4,16.18-18.78,22.42-18.5,41c0.18,11.87,6.72,22.73,5,38c0.36,1.14,1.5,1.5,2.5,2
			c2.19-1.48,3.11-4.22,3.5-7.5c0.6,7.17-1.68,13.48-6,18.5c-1.91,2.22-8.6,5.1-9.5,7.5c-0.32,0.84,4.14,5.56,5.5,7.5
			c2.54,3.62,3.59,6.49,7,8c2.06,0.09,1.49-1.69,2-2c19.49-4.76,40.86-14.8,64.5-10.5c3.05-0.93,2.82-3.5,6-5
			c-0.86-7.22-0.99-21.4,2-28c1.99,7.24-2.47,19.49,0.5,28c-1.62,2.22-3.51,4.16-4,7.5c-1.16-0.14-1.15-1.34-0.5-2
			c-1.08,0.76-5.98,2.01-10,1.5c1.23,2.94,4.96,3.51,7.5,5c2.48,1.46,4.77,3.54,7.5,4.5c1.9,4.69,10.92,5.89,16,9
			c-11.08-2.47-16.92-5.68-26.5-11.5c-3.81-2.31-9.28-7.52-12-8c-3.01-0.53-5.12,1.39-7.5,2c-6.68,1.72-13.55,2.06-20,4
			c-7.88,2.37-18.07,5.83-28.5,7c0.42-0.74,1.61-0.72,2.5-1c-3.14-2.11-8.3-4.6-11-8c-2.81-3.53-2.47-5.51-3-9
			c5.35-3.71,10.56-9.46,12.5-15c-2.14-0.29-4.44-3.14-7.5-4c-8.69,6.19-12.43,17.42-24,19.5c-1.47,0.42,0.3,1.61,0,2.5
			c-8.85-2.8-18.09-3.59-25.5-7.5c-4.94-2.61-8.6-7.3-14-7.5c-3.29-3.88-7.01-7.32-11-10.5c0.05-1.55-0.61-2.39-1-3.5
			c-8.08-2.42-16.16-7.5-22.5-10c-3.28-3.45-6.82-14.22,0-16.5c-0.01-0.49-0.61-0.39-1-0.5c10.74-17.15,26.42-27.93,27.5-55.5
			c7.41-5.59,12.83-13.17,17-22c-7.37-3.97-19.33-2.51-26.5,0.5c1.94-3.61,8.56-3.7,13-4c15.07-1.03,27.77,7.32,33,16
			c-3.68-4.82-7.89-9.11-14.5-11c-5.88,8.21-10.49,14.95-17,22c1.36,1.31,3.77,1.56,5.5,2.5c0.16,0.97-4.5-1.35-6-2
			c-1.79,0.38-3.18,1.16-3.5,3c0.31,2.05,7.74,0.52,5,2.5c1.58,0.25,1.77-0.9,3.5-0.5c-0.08,0.59-0.91,0.42-1.5,0.5
			c3.75,1.25,10.18,4.15,15.5,5.5c-3.5-1.83-6.88-3.79-11.5-4.5c6.06-0.79,9.66,3.8,15,4.5c13.71,1.8,20.26-11.34,26.5-19
			c-0.41-1.26-2.64-0.7-3.5-1.5c-2.01,0.66-2.34,2.99-4,4c0.15,0.68,1.25,0.42,2,0.5c-3.13,2.01-5.91,6.57-9.5,6.5
			c0.06,0.36,0.05,0.69,0,1c-0.56-1.32-1.94,0.67-2.5,1c0.94-2.4,6.61-4.38,8.5-7.5c-0.88,0.45-1.55,1.12-2,2
			c0.07-1.78,3.52-4.47,4.5-7c1.02-0.15-0.1,1.44-0.5,1.5c0.31,0.91,2.09-0.86,2-2c-3.59-2.67-13.36,2.15-16.5-2.5
			c6.63,3.11,15.64-1.26,21.5,2c1.34,0.34,0.97-1.03,1.5-1.5c-0.12,3.18,7.15,2.69,9,5.5c3.77,0.27,5.5-1.5,8.5-2
			c-0.83-9.03,4.42-12.2,8-18.5c2.33-4.1,5.09-11.79,4.5-16.5c-0.59-4.73-5.74-8.59-6.5-15c-2.02-17.15,12.32-25.33,18.5-37.5
			c-2.46-2.21-6.07-3.26-9.5-4.5c3.72-6.78,10.45-10.55,15-16.5c-2.52-10.24-0.54-20.6-3.5-30c-1.9-6.03-4.66-8.07-5.5-16.5
			c-1.16-11.61-11.61-18.81-10.5-30c0.6-5.99,5.17-10.88,5.5-17.5c-5.76-6.84-3.72-15.59-3-26.5c3.72,7.36-2.64,17.46,3,24
			c3.79-9.38,1.57-24.76,13.5-26c1.39-4.45,3.68-7.99,7.5-10c-3.58,2.97-5.19,9.25-7.5,12c-1.17,0-2.33,0-3.5,0
			c-6.82,9.01-7.98,19.7-10.5,32c-0.72,3.54-2.64,7.37-3,11c-1.36,13.84,10.42,23.27,10,38c0.39,1.44,2.42,1.25,3.5,2
			c-0.33,1.5-1.07-0.48-2,0c0.36,2.8,4.24,5.05,5,8.5c0.83,3.79-0.27,8.73,0,13c0.62,10.02,2.85,19.96,3.5,28
			c0.28-1.28,0.63-2.5,1.03-3.67c-1.2,5.95,1.03,10.97,1.47,16.17c-3.86-0.31-6.06-2.27-9-3.5c-4.39,4.62-7.75,9.51-11,15
			c-5.36,9.06-11.34,19.84-4.5,31c1.15,1.88,3.6,3.54,4,5.5c1.14,5.59-3.42,13.83-6,18.5c-3.23,5.85-6.5,10.39-7.5,17
			c2.31-0.35,3.69-1.65,6-2c1.95-5.04,4.27-10.66,7.5-17c2.74-5.37,8.1-12.03,7.5-17c-0.72-5.98-8.03-7.15-10-13
			c-0.53-17.37,8.39-25.27,16.5-34c-0.27-0.35-0.38-0.86-0.59-1.28c3.71,3.23,6.83,9.49,9.59,15.28c5.11,10.73,7.55,21.83,8.5,37.5
			c0.45,7.48-0.9,15.07-1.5,23c0.2,1.8-0.91,0.69-0.5-0.5c4.22-29.68-3.87-54.91-14.5-73c-8.12,6.65-14.34,16.96-16,28
			c-1.38,9.18,8.61,10.31,9.5,17.5c0.57,4.62-4.26,10.93-6,14.5c-2.43,4.98-4.02,9.11-6.5,13.5c7.24,5.43,17.86,7.47,30.5,7.5
			c1.02-0.81,1.26-2.41,2-3.5c0.88,0.43-0.69,2.6-1,3.5c0.83,0,1.67,0,2.5,0c-4.2,0.3-4.59,4.41-6.5,7c11.28-4.51,16.58,5.77,22.5,8
			c1.24,3.95,12.24,9.27,15,16.5c6.56-3.71,15.06-10.57,24.5-5.5c-4.02-0.23-11.65-2.29-15,1.5c1.41,10.15,1.75,24.13-1,33
			c1.73,3.6,4.83,5.83,6.5,9.5c6.91,1.75,14.66,2.67,19.5,6.5c4.65-6.92,10.51-9.46,21-14.5c-2.35-0.11-1.77-1.56-3.5-4
			c-1.75,1.25-4.04,1.96-7,2c1.35-6.84-2.21-17.86,2.5-23c-6.15-2.08-10.13-8.79-18.5-7c-1.33,0-2.67,0-4,0
			c-1.59-0.69,1.77-0.5,2.5-0.5c10.42-4.47,17.23,9.18,23.5,2.5c-0.47-1-3.47-3.95-4-6.5c-0.43-2.1,0.19-8.51,0.5-4.5
			c0.85,3.64,2.69,6.31,4.5,9c6.6-3.55,1.49-8.49-0.5-16c-4.07-15.33-9.25-31.99-8.5-50c-2.45,3.22-2.93,8.4-3.5,13.5
			c-2.59-13.1,10.96-24.19,9.5-36.5c-0.61-5.1-4.56-5.88-7-10c10.93,2.68,8.95,22.07,3,29c-3.28,14.18,1.65,24.43,4.5,36.5
			c2.41,10.21,2.9,19.79,8,26C309.71,543.79,310.54,546.21,309.66,546.91z M292,601.5c3.46-5.71,9.4-11.6,12-16.5
			c-5.44,3.98-13.97,7.25-16,13c-5.93-1.87-14.6-7.41-20-5c-2.49-4.18-6-7.34-9-11c2.71-1.03,0.21-4.7,0.97-5.94
			c-0.09,0.301,0.45,1.11,0.53,0.94c2.55-5.25-0.97-20.61,0-28c-2.82,1.41-7.25,3.45-6,6c-1-0.94-0.79-1.82-2.5-1
			c1.11,11.3,0.33,24.53-7,29c5.91,3.9,10.77,3.2,15,7c2.94,2.64,4.38,7.31,8,9.5c5.61,3.4,16.72-1.48,23,2
			C291.87,601.06,292.93,599.83,292,601.5z M195,535c8.39,0.94,24.26-3.95,36.5-2.5c-4.47-4.03-12.64-6.47-19-4.5
			c0.06-3.28,3.55-3.12,4-6c-2.02-0.34-9.11,0.86-6.5-1c-1.77-0.13-4.57,1.26-2.5-0.5c-8.85-0.15-14.76-3.24-21-6
			c-0.85,1.72-0.78,3.23-1,4.5c-2.31,0.86-4.59,1.75-6.5,3C186.97,522.95,192.72,533.25,195,535z M210.5,436
			c-1.17-7.17-2.03-14.64-4-21c-3.96,5.04-9.46,8.54-13,14C199.66,430.84,204.33,434.17,210.5,436z M195,537
			c-2.08-0.38-4.5-5.32-5.5-3.5c-1.19,10.94-6.53,18.88-13,27c-4.58,5.74-10.57,8.36-11.5,17c-0.63,5.88,0.31,12.84-1,20
			c2.86,3.74,6.01,13.79,10,13c-0.54-0.12-1.2-0.82-0.5-1c1.5,2.34,3.2,4.47,6,5.5c1.16-17.15-7-28.54-3.5-44
			C179,557.77,192.36,550.12,195,537z M187.34,531.98c0.09,0.51,0.29,1.09,0.66,1.52c-0.68-7.71-6.32-7.59-11-11.5
			c-4.6,3.81-12.26,2.01-18-0.5c-5.1,11.07-14.03,18.31-27.5,21c0.04-1.51-1.12-0.38-3-0.5c-7.81-0.51-15.48-7.09-23.5-8
			c0,16.67-8.06,25.27-13,37c16.7,9.53,22.14,32.83,36.5,45c-17.11-10.22-19.83-34.84-37.5-44.5c-3.89,3.61-6.42,8.58-10,12.5
			c0.86,0.2,1.28-0.74,1.5,0c-2.13,1.37-4.33,2.67-7,3.5c0.17,5.17,3.34,7.33,4.5,11.5c6.99,1.06,12.49,6.09,19.5,6.5
			c-2.13-4.57-6.76-9.2-8.5-12.5c10.63,4.84,11.68,19.1,20,26c8.58,7.12,17.27,9.45,29.5,14.5c-1.52,0.48-4.07-2.07-4,0
			c5.1-0.22,7.57,1.6,13,2c9.45-4.38,16.78-10.89,23-18.5c-2.47-0.17,0.42-1.31,0-2.5c-9.36-5.76-11.07-18.44-9.5-34.5
			c0.83-8.51,7.47-15.17,12.5-21.5c6.07-7.65,10.65-16.17,11.5-23C187.2,533.86,187.3,532.73,187.34,531.98z"/>
		<path d="M345,120c-5.14,0.94-14.34-0.85-20-2.5c1.52,10.12,6.46,20.14,10,31c3.62,11.1,1.75,24.01,6,35.5
			c-4.56-5.31-8.67-14.4-11-23.5c5.69,23.91-6.46,44.01-6.5,68.5c0.35,2.85-0.85,2.85-0.5,0c-0.06-7.88,0.29-19.73,2.5-28
			c1.44-5.37,4.01-8.81,4.5-16c0.7-10.2-0.82-18.69-1.5-27c-1.44-4.11-6.67-6.94-6-11.5c7.88,8.62,11.77,21.23,16,33.5
			c-1.34-22.33-10.2-41.47-14.5-62.5c-11.55-3.78-17.49-13.17-24-22c9.45,11.72,19.49,22.84,39.5,24c-13.11-6.69-21.21-17.6-31-27.5
			c-6.57-6.64-14.56-14.29-26.5-15c0.22-1.12,2.46-0.2,3.5-0.5c18.27,5.62,27.08,20.44,41,31C332.58,112.12,336.93,117.46,345,120z"
			/>
		<path d="M338.5,426c0,1.5,0,3,0,4.5c-1.28-3.22-3.24-5.76-5-8.5C335.39,423.11,336.94,424.56,338.5,426z"/>
		<path d="M311.5,291c-3.92-3.08-8.01-5.99-13.5-7.5c0-0.67,0-1.33,0-2C304.02,283.14,308.36,286.47,311.5,291z"/>
		<path d="M306.04,409.41c-0.01,0.03-0.02,0.06-0.04,0.09c-0.09-0.27-0.19-0.55-0.28-0.82
			C305.83,408.92,305.94,409.16,306.04,409.41z"/>
		<path d="M305.72,408.68c-2.07-4.56-5.17-8.1-7.72-12.18c-4.34,6.16-5.87,15.13-7.5,24c4.16,4.22,3.19,14.63,1.5,21
			c3.98,1.71,0.34,14.85,4,18.5c-2.99-1.85-3.12-10.88-4-16.5c-1.12,2.21-1.35,5.32-2,8c-1.09-7.72,6.86-22.3,0-28
			c-0.2,4.47-0.77,8.57-0.5,13.5c-3.1-14.63,1.85-31.23,8.63-41.41C302.26,398.36,303.96,403.54,305.72,408.68z"/>
		<path d="M305,595c-0.78,8.89-4.45,19.22-5.5,29.5C298.34,613.67,301.16,602.49,305,595z"/>
		<path d="M298.98,394.36c0.34-0.471,0.68-0.92,1.02-1.36C299.69,393.49,299.34,393.93,298.98,394.36z"/>
		<path d="M298,395.5c0.33-0.38,0.66-0.75,0.98-1.14c-0.29,0.399-0.57,0.81-0.85,1.229C298.09,395.56,298.05,395.53,298,395.5z"/>
		<path d="M287.5,138c-0.52,0.04-0.94-0.02-1.31-0.13C286.63,137.92,287.07,137.97,287.5,138z"/>
		<path d="M283.5,137c1.12,0.06,1.76,0.6,2.67,0.86c-16.46-2.06-32.87-18.24-26.67-39.36c-2.2,20.86,8.79,32.42,23,38.5
			c-6.17-8.79-17.29-18.83-11.5-33.5C268.31,118.21,276.91,128.44,283.5,137z"/>
		<path d="M269,177c3.74,3.93,9.5,5.84,9,14c-0.59-0.08-0.42-0.91-0.5-1.5c-1.97,3.2-2.7,7.63-6.5,9c0.45-3.09,4.89-9.06,3.5-14
			c-2.38,9.8-5.77,21.22-15,22.5c0.35,1.31,2.35,0.99,3,2c-6.32,0.65-12.96-2.71-14.5-8.5c1.97,1.2,3.03,3.3,5,4.5
			c-5.16-7.07-7.62-20.76-1-28c-3.77,1.57-6.04,4.63-10,6c4.41-5.83,11.46-10.86,22.5-8.5c-0.57-1.6-3.86-0.47-4-2.5
			c1.71,0.46,3.58,0.75,5,1.5C265.68,170.45,268.92,174.19,269,177z M270,197c0.08-1.59,1.17-3.68,0-5c-1.62-0.29-2.33,0.34-3.5,0.5
			c-0.2-6.32-7.81-5.52-13.5-5c-0.27,0.73,0.58,2.58-0.5,2.5c0.44-1.6-0.77-1.56-1.5-2c-0.08,0.58-0.79,0.54-1.5,0.5
			c-0.55,2.38,2.98,0.69,3,2.5c-0.35,1.65-1.72,2.28-3,3c0.57,10.81,15.04,15.4,19,4.5c-0.96-1.23-4.13-2.85-3-4.5
			C266.75,195.25,266.77,197.73,270,197z M249,187c3.56-0.03,5.92-3.63,5-6.5C250.92,181.25,248.92,183.09,249,187z"/>
		<path d="M269,390.5c10.69,0.85,13.81,19.6,8,30C277.61,409.94,279.15,393.23,269,390.5z"/>
		<path d="M268.5,78.5c3.76-5.74,8.55-13.15,7.5-21c-1.74-12.94-25.01-13.92-35.44-8.53c4.23-5.83,23.08-5.17,29.44-1.97
			c12.99,6.55,5.16,26-2,34.5c3.06-0.94,5.15-2.85,8-4c-2.46,1.88-6.88,6.11-11,8c-0.82-2.34-2.47-3.86-3.5-6
			c-6.37-2.31-14.5-2.65-22.56-3.06c3.39-0.3,6.72-1.99,10.06-1.94c6.01,0.08,11.46,3.8,15,6.5c4.95-18-3.12-35.78-24-31
			c0.14-0.36,0.32-0.69,0.55-1.01c20.39-3.95,28.09,11,25.95,29.51c5.23-6.94,4.13-21.46-2-26.5
			C273.18,54.31,271.76,72.87,268.5,78.5z"/>
		<path d="M263,197.5c0.97,2.09-4.12,4.16-7,2.5c0.06-1.85-2.32-2.93-1-4.5C255.28,198.92,260.79,200.32,263,197.5z"/>
		<path d="M247,174.5c-2,1.66-3.07,4.26-5.5,5.5C243.07,177.9,243.57,174.74,247,174.5z"/>
		<path d="M240.56,48.97c0,0-0.01,0.01-0.01,0.02c-0.02,0-0.03,0.01-0.05,0.01C240.52,48.99,240.54,48.98,240.56,48.97z"/>
		<path d="M238.94,76.44c-0.31,0.04-0.63,0.06-0.94,0.06c-2.98,0.03-6.28-0.25-9.5-0.79C231.87,76.08,235.4,76.27,238.94,76.44z"/>
		<path d="M225.5,523c10.28,1.89,15.15,9.19,19,17.5c-4.7-7.47-9.43-14.9-21-15.5c-0.1-7.49,6.36-12.65,5.5-21.5
			c-0.23-2.36-2.11-4.5-2.5-7c-3.44-21.96,1.39-48.85-16-58c15.51,6.53,15.95,34.94,18,57.5c0.24,2.65,1.48,5.43,1.5,8
			C230.04,510.99,227.04,517.72,225.5,523z"/>
		<path d="M237.5,239.5c1.3-11.1-14.87-11.48-20.5-7c0.59,2.08,0.78,4.55,2.5,5.5c0.97-2.87,2.77-4.89,5.5-6
			c-4.55,2.32-6.86,9.54-1,12c-2.97-1.07-8.54-6.22-8-10.5c0.95-7.56,14.13-4.21,20.5-2.5c5.71,5.58-0.14,16.65-7.5,15
			C233.09,245.09,235.47,242.47,237.5,239.5z"/>
		<path d="M234.5,542c3.08,2.54,2.29,10.47,2,14.5c-1.69,23.63-14.31,44.9-25,60C221.83,596.92,236,571.76,234.5,542z"/>
		<path d="M234.25,536.47c0.06,0.011,0.11,0.03,0.17,0.04c-4.1,0.84-7.75,0.65-8.92,0.49C221.39,536.43,231.2,536.17,234.25,536.47z
			"/>
		<path d="M228.5,334.5c-0.31,13.16,3.38,23.75,2.5,36.5c-1.07,15.6-6.03,28.38-13,38.5c-1.38,2-3.73,4.48-5.37,6.9
			c3.33-6.58,8-11.96,10.87-18.9c3.23-7.82,5.02-17.61,5.5-27.5c0.48-9.91-4.11-23.31-1-35.5c0.32-2.34-0.65-5.99,0.5-7.5
			c0,1.33,0,2.67,0,4C228.5,332.17,228.5,333.33,228.5,334.5z"/>
		<path d="M228,83c0.22-0.02,3.17,0.31,1.5,1c-1.76-0.24-3.43-0.57-5-1c-9.28-2.56-15.15-8.52-17.5-18
			c4.12,9.48,9.51,14.31,20.99,18H228z"/>
		<path d="M226,383.5c-2.85,0.67-5.31-3.35-8-4.5C220.38,378.79,223.1,382.56,226,383.5z"/>
		<path d="M224.5,83c0.08,0.58-0.11,0.89-0.5,1c-11.72,0.29-20.93-0.63-28.5,1c-23.17,5-25.97,35.36-46,44
			c11.61-6.69,17.94-21.93,27.5-33c9.86-11.4,22.21-14.56,46-13C223.5,83,224,83,224.5,83z"/>
		<path d="M231.5,109.5c-5.48,10.52-17.89,18.44-33.5,20.5C212.22,126.22,223.7,119.7,231.5,109.5z"/>
		<path d="M222,285c-1.65,4.01-5.28,6.05-8,9c-0.1,2.76,1.63,3.7,3.5,4.5c2.81-0.9,0.76-4.36-1-5c1.46-0.78,3.83,1.82,5,3
			c-2.88,10.14-6.65,18.6-10.5,29c-1.15,3.11-3.3,7.23-3.5,10c-0.36,4.99,2.43,11.17,3.5,16.5c1.09,5.44,3.59,12.35,3,17
			c-0.21,1.68-3.83,3.75-2,6c-0.64,1.41-0.96-4.3,0-4.5c-3.86-5.64-8.63-10.37-13-15.5c2.78-6.22,4.74-13.26,7.5-19.5
			c-2.22-9.62-3.82-19.84-6-29.5c4.24-2.43,8.86-4.47,14-6C210.26,292.64,217.73,288.36,222,285z M219,300.5
			c0.53-0.03,0.39-0.64-0.5-0.5c-5.34,1.07-10.87,3.84-16.5,6c1.47,9.36,2.75,18.91,5.5,27C210.96,321.79,215.63,311.8,219,300.5z
			 M207,362c2.04,2.38,3.81,6.78,6,6c-2.51-9.65-3.71-20.62-6.5-30c-1.78,5.88-4.35,10.98-6,17C202.04,357.25,204.83,359.47,207,362
			z"/>
		<path d="M216,72c3.12,1.61,7.71,2.92,12.47,3.71c-8.57-0.94-16.07-3.07-19.97-9.21C211.71,67.02,213.07,70.49,216,72z"/>
		<path d="M204.5,308c3.42-1.42,7.81-4.52,11-4.5c-1.68,7.48-4.8,13.53-6.5,21C205.51,320.99,206.2,313.3,204.5,308z M214,305
			c-3.43,0.74-5.9,2.43-8.5,4c1.5,3.66,1.5,8.84,3,12.5C210.29,315.96,212.51,310.84,214,305z"/>
		<path d="M213,113.5c0.4,7.71-10.3,12.15-16.5,16.5c4.5-5.16,11.56-7.77,15-14c-4.45,0.64-9.27,2.7-14,1.5
			c5.46-1.54,8.6-5.4,13.5-7.5c-2.62,3.54-6.6,5.74-11.5,7C204.01,117.84,208.31,114.15,213,113.5z"/>
		<path d="M211,419.5c0.32-1,0.91-2.04,1.63-3.1c-0.79,1.56-1.5,3.189-2.1,4.93C210.65,420.73,210.8,420.12,211,419.5z"/>
		<path d="M208.5,432c-3.2,0.12-7.03-3.24-10.5-4.5c1.38-3.29,4.71-4.63,6.5-7.5C207.5,422.33,207.41,427.76,208.5,432z M199.5,427
			c2.56,0.94,5.99,3.67,8,3.5c-1.53-2.47-1.14-6.86-3-9C203.13,423.63,200.87,424.87,199.5,427z"/>
		<path d="M205.5,344.5c2.85,4.81,2.89,12.45,4.5,18.5c-3.1-0.47-5.39-5.9-8-8.5C203.32,351.32,204.18,347.68,205.5,344.5z
			 M208.5,360.5c-1.16-4.34-1.56-9.44-3-13.5c-0.21,2.96-1.79,4.54-2,7.5C204.86,356.81,206.51,358.82,208.5,360.5z"/>
		<path d="M206.5,474.5c3.39-1.19,2.13-4.75,1.5-8c0.58-0.39,4.38,9.43-2,9c0-0.83,0-1.67,0-2.5
			C206.59,473.08,206.42,473.91,206.5,474.5z"/>
		<path d="M207.5,298c-2.08-0.92-2.49-3.51-4.5-4.5C204.52,292.99,207.18,295.64,207.5,298z"/>
		<path d="M202.5,204c0.75,1.65,1.22-1.04,2.5-0.5c-1.94,4.53-7.78,5.09-13,4c0.37-1.13,2.8-0.2,4-0.5
			c-5.95-5.25-10.27-14.68-9.5-25c-1.08,0.92-1.32,2.68-2.5,3.5c0.46,1.88,1.13,3.53,1.5,5.5c-9.62-11.12,12.43-18.01,19-9.5
			c-0.33,1.5-1.07-0.48-2,0C205.44,186.02,207.66,198.82,202.5,204z M205,194.5c0-1,0-2,0-3c-1.71,0.29-3.64,0.36-3.5,2.5
			C202.17,195.31,203.72,194.96,205,194.5z M205,196c-1.71,0.34-6.88-1.38-4-4c-3.63-3.74-11-2.9-11,3.5c3.24-0.29-0.8,1.35,1,2.5
			c1.18,1.22,0.93-0.75,2.5-0.5c-0.7,0.96-1.32,2.01-1.5,3.5C195.99,208.02,204.42,203.32,205,196z M190.5,180
			c1.53-1.13,5.57,0.24,7-1C195.22,178.41,191.67,178.14,190.5,180z M189.5,191c0.76-0.9,1.8-1.53,1.5-3.5
			c-0.89-0.45-0.64-2.03-2.5-1.5C187.22,187.32,187.42,190.43,189.5,191z"/>
		<path d="M204.91,436.72c-0.3-0.26-0.6-0.5-0.91-0.72C204.49,436.07,204.73,436.36,204.91,436.72z"/>
		<path d="M199,197c1.65,1.2-0.64,2.66-1,3.5c-1.75,0.08-3.2-0.13-4-1C194.22,197.22,199.17,199.67,199,197z"/>
		<path d="M194,368c-0.33,3.33-0.24,7.09-1,10c-4.44-7.03-12.03-15.21-9.5-26C188.27,356.07,189.18,363.99,194,368z M192.5,375.5
			c-0.26-2.76,0.29-4.71,0.5-7c-4.14-3.19-5.03-9.64-8.5-13.5C182.76,364.36,189.65,369.09,192.5,375.5z"/>
		<path d="M187.34,531.97C187.12,530.77,187.45,529.92,187.34,531.97L187.34,531.97z"/>
		<path d="M186,332.5c1.65,3.15-3.21,8-2.5,13.5c-2.22-1.62-5.31-2.36-8-3.5C178.72,338.89,183.25,336.59,186,332.5z M183,345
			c-0.7-4.04,2.25-7.08,1.5-9.5c-1.77,3.06-5.27,4.39-7.5,7C179.64,342.69,181.3,343.87,183,345z"/>
		<path d="M177,359.5c5.36,3.64,7.68,10.32,11,16c-4.64-3.36-6.86-9.14-10.5-13.5c-2.69,1.47-4.56,3.77-8,4.5
			C171.44,363.61,174.71,362.04,177,359.5z"/>
		<path d="M172,341.5c2.75,3.58,2.57,10.1,6,13c-2.24,3.76-5.82,6.18-8,10C169.11,357.28,171.27,348.77,172,341.5z M176.5,354.5
			c-1.99-2.34-2.73-5.94-4-9c-0.45,5.06-1.86,11.8-1.5,16C172.4,358.73,175.26,357.43,176.5,354.5z"/>
		<path d="M172.5,121.5c-8.25,4.92-16.08,10.25-28,11.5C155.16,130.82,163.51,123.69,172.5,121.5z"/>
		<path d="M166,126c-3.38,7.49-8.49,15.71-10,27c-1.49,11.15-1.43,23.53-2,36C151.46,165.43,154.86,139.22,166,126z"/>
		<path d="M147,625.5c-4.32,0.15-8.71-3.96-12.5-6C138.12,620.05,142.01,624.66,147,625.5z"/>
		<path d="M150.5,544c-3.66,2.1-9.51,4.9-16,7c-6.26,2.03-18.25,5.83-20,2c2.1,2.42,13.08-1.63,19-3.5
			C140.01,547.45,145.86,545.86,150.5,544z"/>
		<path d="M135.5,534.5c3.39,0.06,5.57-1.09,7.5-2.5c-0.91,5.06-16.15,3.51-24,2c4.34-0.12,13.38,1.96,17.5-0.5
			C136.38,534.04,135.51,533.84,135.5,534.5z"/>
		<path d="M127,262c4.26,4.41,5.42,11.92,6,20c-2.6,5.04-13.62,8.36-19.5,8.5c-3.71,0.09,2.31-0.6,2-0.5c5.11-1.64,12.33-3.52,16-9
			c-0.6-8.07-1.85-15.48-8-18c0.35-0.96,2.35,0.61,3,1c1.73-0.81-3.13-1.8-1.5-2.5c1.38-0.33,2.59,0.01,5,1.5
			C129.34,264.26,128.36,261.69,127,262z"/>
		<path d="M127.5,223.5c1.25,11.12-2.65,14.34-8,19.5c-3.43,3.31-8.57,6.76-5.5,10.5c5.26-3,10.03-8.27,10.5-14.5
			c5.27,7.38-6.41,10.05-8.5,15c-1.17,0-2.33,0-3.5,0c-0.91,4.42-1.74,8.92-4,12c3.52-1.81,6.7-3.97,11-5
			c-0.08-0.59-0.91-0.42-1.5-0.5c1.61-1.41,4.54,0.11,6.5,0c-9.48,4.02-19.58,7.42-26,14.5c0.74-5.09,10.42-5.58,10.5-13
			c-3.03,0.3-4.95,1.71-7,3c0.39,1.11,1.75,1.25,2.5,2c-0.4,1-2.06-0.89-3-1c-4.5,1.98-5.85,5.64-10,7c1.35-3.83,11.27-6.63,5.5-10
			c-3.94,2.89-8.11,5.56-8,12.5c0.52,0.96,1.98-1.31,2.5-2c1.18,0.42-1.38,1.23-0.5,3c2.69,5.81,6.44,10.56,11,14.5
			c5.68,0.6,11.19,1.57,16.5,0c-5.27,1.74-12.67,2.32-16.5,1c-4.95-1.71-6.47-7.7-9.5-11.5c-1.39,2.94-2.2,6.47-3,10
			c-4.24,1.8-10.48,2.57-16,2c-4.08-0.42-11.01-1.59-13.5-3.5c-5.92-4.53-1.33-16.46,0.5-22.5c1.1-0.57,2.04-1.29,4-1
			c2.25-7.41,6.62-22.77,9.5-31.5c1.75-5.29,3.68-8.21,6.36-10.42C76.21,228.19,75.2,237.54,73,244c-2.69,7.9-7.61,14.8-8,22
			c-1.85-0.02-2.9,0.77-4,1.5c-1.09,6.11-4.76,13.42-1.5,18.5c4.04,6.3,21.65,7.19,28,3.5c1.73-3.47,5.47-8.94,1.5-12.5
			c-1.43,0.78,1.04,2.33-0.5,3c-10.05,2.82-20.71-1.79-24-9c4.86,4.83,10.84,10.55,21.5,8c1.88-6.29,4.08-12.25,7-17.5
			c0.08,0.59-0.09,1.42,0.5,1.5c3.54-2.96,9.32-3.68,11-8.5c-2.2-0.67-4.13,1.5-5.5,0c5.32-0.85,5.02-7.31,6-12.5
			c-0.31-2.04-4.17-3.14-3.5-4.5c5.96,0.69,6.38,7.84,4,13c2.49,0.15,4.59-0.08,6.5-0.5c1.92-1.91,2.49-5.18,3-8.5
			c-4.33-1.84-4.72-7.61-6.5-12c1.71,0.79,1.56,3.44,3,4.5c0.36-1.81,0.19-4.14,1-5.5c-1.28,8.22,3.61,10.44,3,17
			c0.83-3.83,3.45-5.88,6-8c-1.14-4.2-3.83-9.5-3.5-13.5c2.63,4.94,5.77,12.56,3.79,16.19c-0.71,0.66-1.47,1.26-2.29,1.81
			c1.09-0.33,1.83-0.96,2.29-1.81c3.7-3.43,5.8-8.47,4.71-16.69c-2.48-0.82-4.38-3.38-7-4.5c-3.73-1.6-15.95-5.7-19-5.5
			c-2.68,0.18-6.03,3.68-9,5c-2.5,1.11-5.15,1.69-7.35,2.56c1.93-1.09,4.18-2.17,6.85-3.56c3.23-1.68,5.8-4.8,9.5-5
			c4.68-0.25,9.57,3.06,14.5,4.5C120.33,218.55,124.41,220.18,127.5,223.5z M111,251.5c-1.61-0.11-2.12,0.88-4,0.5
			c-2.17,3.83-4.05,7.95-8.5,9.5c-0.24,1.57,1.35,1.32,1.5,2.5c3.38-0.79,6.1-2.24,9.5-3C109.32,257.16,110.95,255.12,111,251.5z"/>
		<path d="M125,265.5c5.95,2.88,1.65,14.83,2.5,17c-3.27,3.6-10.31,5.99-15.5,6c2.73-0.93,5.86-1.48,8-3c-1.7-1.3-5.79-0.21-5.5-3.5
			c1.65,0.02,2.49,0.84,4.5,0.5c1.92-0.41-0.04-4.71,2-5c3.23,0.81,0.91,6.6-0.5,7.5c7.85-0.42,9.18-15.09,3.5-19
			c-9.04,2.13-17.86,4.48-23,10.5c2.04,4.65,3.99,11.97,9.5,11.5c2.25,0.03-1.32,1.25-2,1.5c-4.43-2.74-5.89-8.44-9-12.5
			C104.72,269.93,114.97,266.21,125,265.5z"/>
		<path d="M125,271c-1.31,0.46-5.67-0.31-8.5,0c-0.26-0.4-0.52-0.81-0.5-1.5C118.98,268.17,123.48,269.25,125,271z"/>
		<path d="M111,275c-0.19,2.81,0,6-2.5,6.5c-1.08-2.33,0.03-5.23,1-7C110.31,274.36,110.36,274.97,111,275z"/>
		<path d="M96,276c3.81,2.7,6.45,10.88,11.5,14C101.3,286.92,98.59,280.16,96,276z"/>
		<path d="M98.5,244.5c-0.89,0.95-0.36,3.3-0.5,5c-1.41-0.59-1.52-2.48-2-4c-1.87,0.63-2.15,2.85-3,4.5c1.2,1.97,2.48,3.86,5,4.5
			c-1.59,0.74-4.41-1.58-6-2.5c-1.71,4.12-3.42,8.25-7.5,10c4.48-2.59,6.27-10.29,4.5-17.5c1.71,0.46,1.55,2.78,2,4.5
			c1.52-0.81,2.84-1.82,3.5-3.5c-0.16-1.84-3.56-0.44-3.5-2.5C92.56,242.63,96.68,243.52,98.5,244.5z"/>
		<path d="M81.5,222.5c0.75-0.59,1.65-1.05,2.64-1.44c-1.42,0.8-2.66,1.6-3.78,2.52C80.72,223.18,81.09,222.82,81.5,222.5z"/>
	</g>
	<g>
	</g>
</g>
</svg>
