<?xml version="1.0" encoding="utf-8"?>
<!-- Generator: Adobe Illustrator 14.0.0, SVG Export Plug-In . SVG Version: 6.00 Build 43363)  -->
<!DOCTYPE svg PUBLIC "-//W3C//DTD SVG 1.1//EN" "http://www.w3.org/Graphics/SVG/1.1/DTD/svg11.dtd">
<svg version="1.1" id="图层_1" xmlns="http://www.w3.org/2000/svg" xmlns:xlink="http://www.w3.org/1999/xlink" x="0px" y="0px"
	 width="1280px" height="720px" viewBox="0 0 1280 720" enable-background="new 0 0 1280 720" xml:space="preserve">
<g>
	<path fill-rule="evenodd" clip-rule="evenodd" d="M789.501,182.792c5.189-0.646,12.012,5.688,19.6,4
		c-15.25-4.001-24.426-18.949-38.8-26.8c-3.994-2.182-11.043-6.339-16-5.6c-3.819,0.57-4.916,4.773-9.6,5.2
		c3.729-1.686,6.253-6.108,10.399-6.4c3.922-0.276,12.742,4.604,16,6.4c13.979,7.703,23.958,22.724,39.601,26.8
		C803.621,189.406,795.288,184.896,789.501,182.792z"/>
	<path fill-rule="evenodd" clip-rule="evenodd" d="M745.901,179.992c-1.017,1.299-4.914,1.015-6,0c0.464-1.782,3.283,1.203,4.8-0.4
		c0.279-3.091-2.733-4.206-4.4-6c-4.855-5.226-6.365-12.978-15.6-14c8.247-1.069,11.212,7.535,16,12.8
		C742.823,174.726,745.867,176.848,745.901,179.992z"/>
	<path fill-rule="evenodd" clip-rule="evenodd" d="M724.301,190.792c0.715-0.113,0.821,0.378,0.4,0.4
		c-4.256,12.144-10.534,22.266-20.8,28.4C713.37,212.661,719.345,202.236,724.301,190.792z"/>
	<path fill-rule="evenodd" clip-rule="evenodd" d="M770.301,214.792c7.793,4.074,12.476,14.724,12.4,28
		C781.146,230.88,777.47,221.089,770.301,214.792z"/>
	<path fill-rule="evenodd" clip-rule="evenodd" d="M741.101,264.392c0.4,0,0.801,0,1.2,0c-0.021,1.19,1.177,2.03,0.4,2.8
		C741.744,266.683,741.072,265.887,741.101,264.392z"/>
	<path fill-rule="evenodd" clip-rule="evenodd" d="M724.301,278.392c1.62,1.18,1.523,4.077,2.4,6
		C724.574,283.719,724.624,280.869,724.301,278.392z"/>
	<path fill-rule="evenodd" clip-rule="evenodd" d="M739.101,300.392c-6.292-1.14-15.896-3.526-24.399-1.6
		C721.524,295.446,733.258,297.793,739.101,300.392z"/>
	<path fill-rule="evenodd" clip-rule="evenodd" d="M800.301,297.192c4.204,4.808,3.944,16.325,0.4,21.6
		C801.652,312.874,803.166,303.635,800.301,297.192z"/>
	<path fill-rule="evenodd" clip-rule="evenodd" d="M868.301,412.792c2.73-4.205,7.434-9.899,10.8-14.8
		c7.407,2.46,8.725,11.009,11.601,18c3.207-30.31-5.321-51.033-19.601-67.601c-4.937-5.729-11.279-10.14-16.399-15.6
		c-7.906-8.431-16.39-16.439-19.2-28.8c6.778,19.915,25.276,30.36,37.6,46.4c5.471,7.12,12.703,15.815,15.601,26.4
		c2.542,9.286,5.139,25.594,3.6,36.399c-0.517,3.63-1.636,7.958-0.8,13.601c-1.836-10.564-4.004-20.796-10.4-26.8
		c-6.871,2.737-10.124,12.535-15.199,18.399c7.056-17.625,7.693-55.23-3.2-69.2c-2.161-2.771-4.738-4.046-6.4-6.8
		c9.297,3.768,14.409,19.643,15.601,36c0.855,11.753-0.08,26.971-3.601,34C868.301,412.525,868.301,412.658,868.301,412.792z"/>
	<path fill-rule="evenodd" clip-rule="evenodd" d="M755.501,315.592c-0.739,1.403-5.45,0.937-6.8,0.4
		C749.831,313.96,753.011,316.362,755.501,315.592z"/>
	<path fill-rule="evenodd" clip-rule="evenodd" d="M774.301,315.192c-1.069,2.263-6.077,0.59-7.2,2.8
		C766.715,315.786,770.821,314.842,774.301,315.192z"/>
	<path fill-rule="evenodd" clip-rule="evenodd" d="M757.501,352.792c1.992,1.657,3.829,5.438,3.2,8.399
		c-2.072-0.061-3.203-1.063-4.4-2C756.058,356.415,757.043,354.867,757.501,352.792z M759.901,359.992
		c-0.22-2.047-1.003-3.531-2-4.8C756.988,357.197,757.464,360.128,759.901,359.992z"/>
	<path fill-rule="evenodd" clip-rule="evenodd" d="M764.301,410.792c3.095,0.946,3.936,6.143,3.2,9.6
		C766.888,416.738,765.988,413.372,764.301,410.792z"/>
	<path fill-rule="evenodd" clip-rule="evenodd" d="M721.901,417.992c3.357,0.441,6.466,2.976,10.8,4
		c11.231,2.654,25.526,0.91,34-2.801C755.596,426.344,731.863,425.823,721.901,417.992z"/>
	<path fill-rule="evenodd" clip-rule="evenodd" d="M747.501,443.992c0.156-2.854,1.137-10.512-0.4-14
		c-5.544,1.068-14.968,1.871-20.8-0.801c3.264-1.007,8.37,1.61,13.2,1.2c2.837-0.241,4.94-2.026,7.6-1.6
		C749.538,431.933,749.861,440.664,747.501,443.992z"/>
	<path fill-rule="evenodd" clip-rule="evenodd" d="M818.301,438.392c2.587,8.669-0.202,17.201,4,23.601
		c2.482,3.778,8.122,4.374,8.8,8.399c1.458,8.647-6.761,18.219-10.399,24.4c1.621-5.266,6.064-10.361,8-15.601
		c0.86-2.328,1.922-6.088,1.2-8.8c-0.885-3.322-5.85-3.435-8.4-6.8C816.884,457.5,819.35,448.556,818.301,438.392z"/>
	<path fill-rule="evenodd" clip-rule="evenodd" d="M702.701,261.192c-0.936,0.376-4.61-3.057-6-4.8
		c-3.448-4.326-6.419-10.678-9.2-15.2c-1.186,4.292-0.186,7.57,0.8,11.2c-4.461-9.908-10.661-21.078-8-35.6
		c-3.829,4.704-6.421,10.646-10.399,15.2c4.839-9.162,12.371-19.095,16-30.8c-0.134,4.669-2.872,10.193-5.2,14
		c-1.018,10.585,1.399,21.55,5.2,29.6c0.429-3.667-0.177-9.83,0-13.6c1.225,12.555,9.309,20.38,15.6,28.4
		c-2.391-4.981-3.947-12.801-2.8-20c1.998,7.869,4.045,15.688,8,21.6c-1.825-10.231-6.312-23.213-4.8-36.8
		c0.572,6.228,0.671,12.929,2,18.4c4.624-5.843,5.364-11.045,7.6-20.8c2.021,0.778,2.273,3.327,3.2,5.2
		c3.279-0.72,2.977-5.023,3.2-8.8c2.296,2.837,0.95,8.883-2.4,9.6c5.941,7.792,12.547,14.919,21.2,20
		c-8.678-3.189-15.419-11.78-21.601-18.8c-5.494,2.906-6.844,9.956-10.8,14.4c-0.063,2.998,0.938,4.928,1.2,7.6
		c3.865-1.785,7.702-7.255,16-6.8c2.55,0.14,5.117,1.158,6.8,3.2c-4.548-2.992-14.321-2.275-18,1.2
		c8.699-4.545,14.714,2.766,23.601,2.8c5.575,4.059,7.251,16.133-0.801,18.8c3.932-2.729,4.764-7.39,1.601-11.6
		c1.832,0.301,1.696,2.57,2.8,3.6c1.394-4.331-2.097-7.233-3.6-10c-1.483-0.283-1.717,0.684-3.2,0.4
		c-7.31-4.028-17.522-6.956-25.2-0.4c0.716,4.085,1.636,7.964,2.8,11.6c-3.799-4.734-6.992-10.074-8.399-17.2
		C699.12,252.103,701.585,259.885,702.701,261.192z M710.701,232.392c0.986-1.68,2.907-2.426,3.6-4.4
		c-1.524-0.742-1.275-3.258-2.8-4C712.021,227.318,710.111,230.327,710.701,232.392z"/>
	<path fill-rule="evenodd" clip-rule="evenodd" d="M696.701,213.592c6.846-4.754,11.6-11.6,16-18.8c0-1.2,0-2.4,0-3.6
		c3.576,8.889-1.637,18.72-4.8,24.8c1.333-4.935,5.328-10.67,4.8-18.8c-4.712,6.24-10.055,13.92-16.4,17.2
		c4.977-10.357,13.042-21.091,13.2-37.6c1.864,13.451-6.15,27.416-12.4,36C697.025,213.116,696.699,213.19,696.701,213.592z"/>
	<path fill-rule="evenodd" clip-rule="evenodd" d="M725.901,227.192c3.794,8.339,9.54,14.726,13.199,23.2
		c-6.245-10.954-15.255-19.144-17.199-34.4c1.931,2.336,1.703,6.83,3.199,9.6c5.206,2.638,9.101,9.752,15.2,12.8
		C734.763,236.995,730.493,230.867,725.901,227.192z"/>
	<path fill-rule="evenodd" clip-rule="evenodd" d="M756.701,245.992c-1.526-2.762-7.559-6.547-5.2-13.2
		c-1.224-0.29-1.177,0.69-2.4,0.4c0.32,2.586-1.268,3.265-2,4.8c-0.932-0.829,0.96-2.217,0.801-3.6
		c-0.097-1.031-0.688,0.549-1.601,0c5.522-5.589,21.094-3.949,25.601,1.6c-1.226,1.308-1.166,3.902-3.2,4.4
		c0.586-1.281,1.511-2.222,1.2-4.4c-0.746-1.121-2.191-1.542-3.601-2c1.255,1.774,2.677,8.882,0,11.6c1.84,0.106,2.023-1.443,3.2-2
		c0.995,0.06,0.117,1.354,0,1.6c2.141-0.407,2.916,0.55,3.6,1.6c-0.42,1.846-1.931,2.602-4.399,2.4
		c-2.855-5.579-12.123,1.98-14.4-4.4C755.323,244.97,756.14,245.353,756.701,245.992z M757.901,239.192
		c0.158-1.321,3.021-3.71,2.399-3.2C758.842,235.997,756.526,240.196,757.901,239.192z M759.101,238.392
		c1.22-0.003,2.616-1.887,2-2.4C760.237,236.595,759.64,237.464,759.101,238.392z M764.701,236.792
		c-0.512-0.022-0.554-0.513-1.2-0.4c-2.94,3.541-2.785,3.131,0.8,0.4C764.3,237.014,764.625,237.246,764.701,236.792z
		 M755.501,239.592c1.157-0.177,1.823-0.843,2-2C756.101,237.524,756.241,238.999,755.501,239.592z M755.901,237.192
		c-0.341,1.173-1.007-0.521-2,0c-1.588,2.548,0.019,5.228,2.399,6c0.62-1.004,1.623-1.339,0.8-2.8c-1.294-0.172-3.459,0.526-3.6-0.8
		c0.312-0.088,0.465-0.335,0.4-0.8C754.969,239.702,756.777,237.979,755.901,237.192z M760.701,243.592
		c-0.837-0.876-1.504-0.824-2,0.4c0.728,1.117,3.474-0.217,2.399-0.8C761.078,243.436,761.041,243.666,760.701,243.592z
		 M756.301,243.592c0.646,1.887,2.776,2.291,4.4,3.2c1.069-1.064,2.787-1.479,4.8-1.6c1.484-0.444,1.896-8.27,0-6
		c0.311,0.089,0.789,0.011,0.8,0.4c-1.272,0.327-2.944,0.255-4,0.8c-0.127,0.928,0.064,1.536,0.4,2c1.416-0.174,2.276-0.615,3.2,0.4
		c-2.813-0.181-5.316,5.027-8,0.8c1.264,0.042,2.425-2.077,2-2.4C759.341,242.632,757.904,243.195,756.301,243.592z
		 M768.301,246.392c-0.979,0.943,0.598,0.744,0.4,2c1.768,0.034,3.398-0.067,3.2-2C771.253,245.791,768.949,245.791,768.301,246.392
		z"/>
	<path fill-rule="evenodd" clip-rule="evenodd" d="M809.501,212.792c-2.163-2.237-2.039-6.761-4.8-8.4
		c-0.956,13.984,9.938,21.001,7.6,35.6c-0.336,2.101-1.073,3.729-2.8,5.2c0.838-1.536-0.956-5.436-1.2-9.2
		c-2.892,12.374,4.876,17.231,8.4,24.4c1.849,3.761,2.143,7.583,4.399,11.6c8.361,3.711,13.108,8.175,14,18.4
		c0.935,10.71-2.297,24.292,2.4,32c9.159,13.375,20.929,24.139,30,37.6c-3.14-1.832-4.894-5.386-7.2-8.4
		c-6.715-8.775-16.11-16.843-22-26.8c2.074,5.092,1.417,10.275,2.4,14.8c0.58,2.669,1.907,4.537,2,7.2
		c0.148,4.29-1.076,8.364-2.4,11.6c-1.287,3.146-4.034,5.082-5.6,8.4c-2.715,5.754-2.38,17.561-2.8,26.8
		c-0.211,4.632-0.852,8.159,1.199,11.6c5.062,2.238,5.638,8.014,7.2,15.601c1.377,6.685,2.784,11.633,1.2,18.399
		c2.567,5.738,7.349,9.835,7.6,17.601c0.189,5.84-1.759,12.143-3.6,18.399c-1.546,5.257-3.505,11.621-6.4,15.601
		c-3.583,4.926-13.339,10.343-19.199,14.399c-4.741,3.282-9.421,7.535-17.601,5.601c-7.754-1.834-11.435-9.647-20.8-10.8
		c0.518,6.626,1.908,13.13,4,19.6c1.994,6.169,5.433,11.696,6.8,16.8c2.149,8.025,0.942,20.235-4.399,24
		c-1.776,1.252-4.184,0.963-6,1.601c-6.784,2.379-11.284,8.085-18,10.8c-1.122,2.078-1.612,4.788-2.4,7.2
		c-2.365,1.905-4.812,3.374-7.6,6c-1.894,1.782-4.571,5.563-7.2,6c-2.094,0.348-7.971-0.896-11.601-1.2
		c-13.491-1.129-25.486-6.354-29.199-18c5.145-13.521,18.134-19.199,31.6-24.4c5.539-11.774,17.046-12.927,15.2-32
		c-0.46-4.751-2.834-11.732-5.2-18c-2.321-6.147-3.966-12.95-6.4-16.8c-3.092-4.89-10.246-8.898-16-12.8
		c-7.133-4.837-17.661-14.775-11.199-24.4c-3.36-5.173-7.577-9.489-13.2-12.399c-1.504,5.071,1.356,11.236,2.8,17.199
		c4.115,17.005,3.964,40.146,12,54.4c6.048,1.769,9.529,8.693,12.8,15.2c1.416,2.815,3.826,5.668,4,7.6
		c0.357,3.979-2.728,7.451-5.6,10c-5.743-1.341-10.981,1.129-14.8,3.2c-1.995,1.081-3.733,2.975-6,4
		c-2.029,0.918-4.739,0.411-6.801,1.2c-4.758,1.82-7.354,8.618-11.199,12c-6.537,5.748-26.267,5.476-34.801-0.4
		c-3.585-2.468-7.897-8.671-7.199-15.2c0.277-2.604,3.286-9.038,7.199-9.6c6.505-0.933,13.476-0.837,18.801-3.6
		c3.774-1.959,6.182-5.247,9.199-7.601c2.854-2.225,5.911-4.236,8.801-7.6c-3.855-13.109-9.415-23.979-16-34.8
		c-2.868-4.713-6.43-7.751-7.601-14c-3.73-1.47-5.574-4.826-6.8-8.801c6.44,1.09,13.526,1.818,18.8-0.8
		c0.937,1.635,2.435,3.496,2.4,5.601c-0.022,1.36-1.324,1.484-1.601,2.8c-0.9,4.288,3.134,8.244,3.2,13.2
		c1.332-0.106,2.748-1.452,4-0.4c0.924,2.559,1.869,8.675,0,10.4c1.968,8.101,10.663,15.898,12,25.199
		c1.371,9.536-4.069,14.604-8.8,20c-4.554,1.181-7.55,3.917-10.4,6.801c1.296,3.504,3.381,6.219,4.801,9.6
		c8.315-7.951,19.494-16.505,33.199-20.4c-0.174,0.492-0.512,0.822-1.199,0.801c7.99,2.788,9.23-4.635,11.6-8.801
		c-2.806-6.527-6.02-12.646-13.2-14.8c-8.883-19.021-7.896-47.786-14.8-68.8c-3.862,4.138-6.222,9.778-10.4,13.6
		c1.565-3.104,5.277-7.609,8.4-12.8c2.54-4.221,6.35-11.771,5.6-16c-0.854-4.816-8.217-5.532-11.199-9.2
		c-1.859,9.342-6.041,16.359-10,23.601c1.447,0.766,3.555-1.233,4.8-2c-0.688,4.78-11.345,3.054-13.601,7.6
		c0.389,4.478,5.49,9.968,2.4,14c2.36-4.918-4.327-10.587-3.6-14.399c0.545-2.859,4.579-3.237,8.399-4
		c-1.824-4.176-5.119-6.881-7.2-10.801c-5.166,3.233-11.637,5.163-20.8,4.4c-6.611,7.672,4.561,12.645,8.4,17.2
		c-0.261-2.006-0.754-3.78-1.2-5.601c2.619,2.983,2.745,10.586,3.6,14c-1.852-0.948-1.881-3.719-2-6.399
		c-3.404-5.612-12.355-7.53-12-15.601c-3.253-3.547-6.133-7.466-8.399-12c6.406-7.128,11.653,1.316,16.399,4.801
		c-2.234-12.458-11.346-22.902-9.6-37.601c0.308-2.592,1.703-5.396,2.8-8.399c3.439-9.424,9.484-14.61,22.8-13.601
		c14.55,1.104,27.035,11.004,37.2,15.601c4.404-6.93,13.38-9.287,22.8-11.2c-1.124-8.476-6.121-13.079-6.8-22
		c-2.02-3.181-2.72-7.68-4.399-11.2c-7.659,3.808-9.105,13.828-15.2,19.2c-4.708-1.16-6.687-5.047-8.4-9.2
		c-4.472,2.595-9.568,4.565-12.8,8.4c-11.382,3.777-21.732-7.952-22.4-16.8c-0.497-6.595,2.833-15.512,5.601-21.6
		c5.582-12.281,10.193-25.747,16-38c1.428-3.014,3.208-5.769,4.8-8.8c2.693-5.131,3.445-10.417,8.4-13.2
		c-0.508,2.025-2.33,2.737-3.601,4c-0.025,1.975-1.174,2.826-1.2,4.8c-8.563,11.62-15.883,34.102-23.199,50
		c-2.872,6.24-6.718,14.75-5.601,23.2c0.909,6.874,9.429,19.984,20,16c1.787-0.674,2.16-2.443,3.601-3.6
		c4.756-3.822,11.953-5.422,17.6-8.8c-0.429-11.438-4.506-19.228-11.2-24.4c-1.119,2.747-1.082,6.651-2,9.6
		c1.195,1.339,1.816,3.25,4,3.6c-1.976,1.558-2.955-1.298-4-2c0,1.2,0,2.4,0,3.6c-1.967-13.875,5.836-34.675,9.601-48.4
		c3.669-13.378,6.867-25.22,25.199-22c-0.809,1.057-0.061,3.672-0.8,4.8c-1.246-2.033-3.201-0.475-5.6-0.4
		c0.021-1.802,3.418-0.67,2-2.8c-0.514-1.368-3.905-1.49-5.2-0.8c-0.515,5.209,5.833,6.947,10.8,8c3.919-0.851,3.307-6.142,2.8-10.4
		c1.674,1.66,1.467,5.201,1.601,8.4c-1.063,1.204-2.371,2.162-3.601,3.2c-3.612-0.788-6.751-2.048-10.399-2.8
		c-0.732-1.801-1.739-3.327-2-5.6c-1.24-0.041-1.911,0.489-2.8,0.8c2.701,4.233,8.699,8.633,12.399,13.2
		c4.656,1.546,9.222,3.44,14.4,4.8c5.665,1.487,14.369,4.315,19.6,1.6c8.249-4.281,14.708-13.494,19.2-21.6
		c-0.775-3.625-0.863-7.937-0.8-12.4c-2.396,1.208-4.65,6.014-9.2,6.4c3.267-5.267,6.634-10.433,7.6-18
		c-4.695-8.371-5.426-20.708-20.399-18.8c3.439,2.827,8.713,3.82,13.6,5.2c-6.208,0.74-11.541-2.857-16-5.2
		c-0.913,1.929,2.944,4.416,2,6.4c-6.049-1.685-8.024-7.442-16-7.2c-1.193-0.807-1.974-2.026-3.2-2.8
		c1.79-1.108,2.543,2.246,5.2,1.6c-1.171-2.432-5.096-5.568-7.6-8c0.934,10.399,2.686,19.981,6.399,27.6
		c-4.713-7.153-6.593-17.14-7.199-28.4c-0.021-1.847-2.279-1.454-2-3.6c7.149,3.784,7.798,14.069,19.6,13.2
		c-1.126-3.141-4.801-3.733-5.6-7.2c4.43,3.703,7.49,8.776,16.8,7.6c-11.705-5.495-20.779-13.621-29.2-22.4
		c10.49,7.376,19.826,19.374,35.6,22.8c-0.123,0.543-1.001,0.332-1.6,0.4c4.061,3.141,6.784,11.081,9.6,16.8
		c1.552-1.718,1.146-4.936,0.801-7.6c2.221,8.523-2.207,19.976-6.4,26c2.78-2.022,8.457-4.608,7.6-11.6
		c1.84,8.71,0.001,21.391,2.801,29.2c0.493-8.307,1.738-15.861,6-20.4c2.34,6.859,5.779,12.62,6.8,20.8
		c2.139-12.528-5.811-21.831-2.8-34c1.008,2.446-0.731,6.006,0.399,8.8c2.921,1.346,6.749,1.784,10,2.8
		c-2.338-5.505-7.393-10.342-9.2-18.4c-1.852-8.26-1.093-16.231-5.199-22.8c-2.995-4.79-6.892-7.294-11.2-10.4
		c8.035,2.766,14.234,10.832,16.399,20.8c9.134-0.207,10.773,13.853,4.4,19.2c-0.585-2.529,3.66-5.843,3.2-10.4
		c-0.347-3.427-3.514-7.747-6.8-7.6c-0.956,0.725-0.226,3.132,0,4c0.596,0.827,0.996-1.91,2-2c1.636,0.246,2.419,2.976,2,4
		c-1.229-0.371-0.695-2.504-1.601-3.2c-5.91,6.035,3.039,23.488,8.4,26.8c0.817-4.156-2.047-6.747-2-8.8
		c3.256,2.877,3.276,8.99,7.2,11.2c-3.135-5.983-4.521-18.111-2.4-25.6c1.411,4.322,1.921,9.546,2.8,14.4
		c5.243-15.41-8.892-23.518-6-39.2c-0.56-0.774-1.48-1.186-2.399-1.6c3.788-0.718,5.592,4.005,6.8,7.2
		c0.902-9.704-4.738-16.328-8.8-22.4C806.162,192.061,811.262,202.089,809.501,212.792z M781.501,326.392
		c8.371-12.387,16.248-40.126,6.8-56.8c0.087,1.397,1.595,3.448,0.8,4.4c-2.298-2.105-4.457-6.472-4.8-9.2
		c1.502,0.898,1.515,3.286,2.8,4.4c-1.007-5.148,2.494-10.798,0-13.6c-3.423,5.244-4.021,13.312-4.8,21.2
		c-1.372-3.161-1.769-7.298-3.2-10.4c-1.817,3.504-0.391,11.767,2.801,14c-5.81,6.992-12.544,13.057-25.2,13.2
		c-1.581-0.127,0.296-1.238-0.8-1.6c-3.939,2.791,5.879,7.42,10,7.2c1.249,0.123-1.017-1.156,0.399-1.2
		c10.684-4.916,17.196-14.003,19.601-27.2c0.378,14.516-9.507,22.223-19.2,28C774.876,304.262,783.765,314.362,781.501,326.392z
		 M754.301,225.592c-0.525-2.008-1.65-3.416-2.399-5.2c-1.61,0.257-4.254-0.52-5.2,0.4
		C749.419,222.207,751.583,224.177,754.301,225.592z M793.901,257.192c2.86,0.605,3.526,3.406,4.8,5.6
		c0.945-3.875-1.215-7.757-1.2-10c3.924,4.209,5.649,10.617,9.6,14.8c-0.711-4.756-2.582-8.352-2.399-14
		c-3.578-1.355-7.18-2.688-12-2.8C792.958,253.068,793.819,254.74,793.901,257.192z M811.501,254.792c0.19,1.032,1.353,3.15,0.8,3.6
		c-2.589-0.003-3.646-4.844-6-6.4c-0.104,1.171,0.904,1.229,0.8,2.4c-3.533,6.623,5.596,10.558,6.4,16.8
		c2.677-0.401,6.082,0.573,7.2,0.4C817.182,266.71,815.249,258.112,811.501,254.792z M781.101,319.192
		c-0.517-3.577-3.594-7.681-5.6-10.8c-2.305-3.584-4.584-6.912-8-8.8c-1.491,0.985-2.082,0.384-4.4,0.4
		c0.321,1.388-0.596,1.538-0.399,2.8c-0.066,1.132,2.466-0.333,2.399,0.8c-1.146,2.986-2.593,5.674-4,8.4
		c0.871,4.462,2.006,8.661,2.4,13.6c-1.834,0.101-1.656-1.81-3.6-1.6c-0.381,4.02-0.567,8.233-2,11.2
		c0.224-4.176,0.976-7.824,1.199-12c-0.516-1.484-2.711-1.289-2.8-3.2c2.702-4.807,5.056-9.132,2.4-15.6
		c2.273-0.393,3.229-2.104,3.6-4.4c-2.906-0.693-4.252-2.947-6.8-4c-1.11,0.623-2.33,1.137-3.2,2c-1.479,8.245-5.25,13.045-6,21.6
		c-0.87,9.931,3.357,13.816,6.8,19.2c2.24,3.502,3.421,6.898,5.601,10C759.088,334.348,783.323,334.566,781.101,319.192z
		 M793.501,281.192c0.396-9.196-1.303-16.297-4.4-22C786.4,267.829,792.879,273.306,793.501,281.192z M798.301,265.992
		c-0.413-3.054-1.303-5.631-3.6-6.8c2.056,5.458,2.019,13.304,1.6,19.2c2.397-0.711,5.932-1.825,8.4-1.2
		c2.757-1.777,4.395-4.672,8-5.6c-1.433-3.901-3.497-7.169-6-10c0.5,2.7,1.261,5.139,1.6,8c-3.861-2.007-5.877-7.987-8.399-10
		C800.722,261.49,800.209,265.491,798.301,265.992z M723.501,263.992c-0.09,0.756,0.451,0.882,0.4,1.6c1.462,0.129,1.59-1.077,2-2
		C724.679,263.303,724.443,264.001,723.501,263.992z M713.101,298.792c5.714-4.82,10.682-10.386,20.4-11.2
		c0.902-1.631,3.098-1.969,4-3.6c-11.763-2.771-17.904-11.163-26-17.6c-3.315,8.74,5.31,12.224,4.8,20.8
		c1.425-3.375,1.323-8.277,2-12.4c0.303,5.699,6.131,8,8,10.8c-3.101-1.033-4.678-3.588-7.2-5.2c-0.466,4.868-1.394,9.273-5.6,10.4
		c4.951-9.346-5.211-14.545-4-22.8c-4.942,6.544-5.849,15.307-8.4,23.6c-2.53,8.225-5.599,16.713-6.8,25.6
		c10.598,6.578,12.358,21.738,12.8,38.4c3.732-3.334,4.217-9.917,6.801-14.4c0.085,1.832-1.55,4.032-0.801,5.2
		c1.375-4.625,5.077-6.923,8-10c-1.355-3.577-2.828-7.038-4.399-10.4c4.311,5.29,6.906,12.293,9.6,19.2
		c-0.075-3.795-1.503-8.358-1.2-11.2c3.354,4.679,1.725,10.76,2.4,16.8c0.818,7.312,5.752,13.351,6.8,19.6
		c10.781-0.953,22.109-4.838,34.4-4c9.106,0.621,18.771,4.614,24.8,0c1.379-6.087,3.797-11.137,5.6-16.8
		c-4.482-2.972-9.146-4.933-7.6-12.8c0.942-4.797,5.772-8.739,8.8-14c3.398-5.904,3.942-11.815,6.4-16.8
		c-0.363,13.77-9.841,20.559-13.2,30c4.74-2.184,7.233-5.989,12.4-6.8c10.674-1.676,14.913,8.197,20,14.4
		c3.862,4.711,9.187,9.473,9.6,12c0.763,4.66-3.273,8.31-3.6,11.6c1.035,0.547,2.411-1.091,3.199-2
		c2.797-3.224,5.909-9.432,6.4-14.399c1.1-11.121-7.54-18.816-8-26.4c2.445,3.955,3.954,8.846,6.4,12.8
		c-1.117-13.95-9.415-22.852-7.601-38.4c1.2,2.533,0.342,7.125,1.601,9.6c2.051-18.683-0.319-34.067-15.601-36
		c-10.172-1.287-12.178,7.963-19.6,8.8c0.933-1.467,3.067-1.733,4-3.2c-2.862-0.062-4.476,1.125-6.8,1.6
		c-3.759,18.375-5.494,38.773-16,50.4c-1.276,0.237-1.237-0.75-2,0c-7.267,5.401-16.352,8.982-18.4,19.6
		c2.975,3.045,4.245,9.861,4.4,14.4c-5.212,0.011-9.602-0.8-11.601-4c0.884-4.207,4.324-6.702,4.4-10.8
		c0.198-10.728-17.577-18.926-10.4-34c-4.502-7.499-12.633-11.367-20.8-15.2c-2.31,2.224-6.45,2.617-8.4,5.2
		c0.599,0.068,1.477-0.143,1.601,0.4c-8.974,0.894-15.32,6.546-22.8,7.6c6.923-1.744,10.322-7.011,18.8-7.2
		c2.813-2.653,6.709-4.224,9.6-6.8c-0.815,0.343-2.204-0.629-1.2-0.8c9.808,2.726,16.918,8.149,23.2,14.4
		c1.664-5.403,4.561-9.574,5.601-15.6c1.001-0.333,1.57-1.096,2.8-1.2c-0.712-1.849-1.32-3.46,0.8-5.6
		c-0.183-1.17-2.222-2.552-1.6-3.2c2.387,0.528,3.206,3.446,3.199,5.2c11.749,0.282,17.443-5.49,23.2-11.2
		c-2.228-2.706-2.524-7.342-3.2-11.6c-1.646,2.067-3.311,5.312-5.6,7.6c-2.398,2.398-9.079,9.269-12,10
		c-5.829,1.46-13.502-2.118-20.4-2.8c-3.431,2.987-8.475,6.435-12.8,7.2c0.809-1.203,4.501-1.618,4-2.8
		c-7.241,2.225-12.151,6.782-17.6,10.8C712.699,299.19,713.025,299.116,713.101,298.792z M759.901,305.192
		c0.226,1.908,0.417,3.849,1.199,5.2c0.885-2.049,2.14-3.728,2.801-6C762.211,304.302,761.317,305.008,759.901,305.192z
		 M757.501,320.392c1.808,1.259,3.393,2.741,5.2,4c-0.623-3.777-1.143-7.657-2.4-10.8
		C759.564,316.056,758.117,317.808,757.501,320.392z M805.501,329.992c-2.972,0.602-11.871,6.102-12.8,8.4
		c-2.209,5.466,3.198,8.125,6.8,10c2.303-6.364,4.681-12.652,8.4-17.6c-0.978,3.022-2.331,5.669-3.2,8.8
		c11.922,0.611,17.892,7.175,22,15.6c0.687-2.247,1.195-4.671,2-6.8C823.783,343.567,816.674,327.729,805.501,329.992z
		 M727.501,441.592c-0.371-1.722-1.521-0.348-2-1.6c-4.182-10.885-4.884-25.25-7.2-38c-4.704-0.297-7.562-6.481-5.6-10.801
		c0.979,4.088,1.102,9.031,5.6,9.601c-1.102-6.124,0.235-11.249,2-15.601c5.9-4.721,15.264-13.492,24-11.199
		c9.236,2.424,19.4,9.625,26.4,14c5.17,0.225,9.065,1.896,13.6,3.199c4.028,1.158,9.983,4.324,13.601,4.4
		c3.146,0.066,8.647-2.884,10.8-4.8c4.314-3.841,10.156-14.993,12.399-20.4c4.17-10.05-8.151-22.761-20-22.4
		c12.261-2.309,18.394,8.212,22.4,16.8c5.884-13.825-6.323-23.44-19.2-24.8c-5.21,8.523-6.84,20.626-12,29.2
		c-0.255-0.872,1.134-1.272-0.399-1.199c-8.856,2.813-20.68-1.572-32-0.801c-16.926,1.154-34.012,5.104-45.601,11.2
		c-4.215,6.141-13.345,16.179-4.8,23.601c-0.438-2.502-2.21-5.782-1.6-8c2.794,4.806,2.484,12.715,10.399,12.399
		c-7.249,0.237-14.244-5.712-14-12.8c0.163-4.725,4.473-7.229,6-11.2c-11.619-4.61-22.24-14.333-37.6-15.2
		c-6.601-0.372-12.972,0.172-17.2,4.4c-2.563,2.564-6.037,11.419-6.8,14.8c-2.344,10.392,3.237,22.127,6.399,30
		c8.972,3.55,25.61,2.788,34.801-1.2c0.768-1.632,0.778-4.021,2-5.199c0.701,0.765,1.497,1.436,2.8,1.6
		c1.512-4.049-0.981-9.316-0.4-12.4c1.753,3.448,1.814,8.586,2,13.601c3.245,2.088,6.492,4.174,8,8
		c-0.829,3.837-1.463,7.87-3.2,10.8c8.962,4.505,14.256,12.678,19.601,20.8c-2.472-0.861-2.982-3.685-4.8-5.2
		c-0.635,1.131-0.635,4.47,0,5.601c4.541,1.624,9.341-1.771,12.399-1.601c-2.589,2.186-9.2,3.799-13.2,2
		c-1.531-2.424,1.227-7.534-1.199-8.399c-3.243,6.464-0.427,9.673,2.8,14c4.652,6.239,8.48,8.506,14.399,12.8
		c3.314,2.404,5.521,5.584,8.4,6.4c-6.12-7.63-5.59-21.657-11.6-28.4c-2.038-2.286-5.803-2.943-7.601-6
		c-2.125-3.614-2.061-8.067,0-12.8C722.198,434.63,723.644,441.047,727.501,441.592z M704.701,343.992
		c-1.529,1.538-4.178,1.956-5.601,3.6c1.757,2.777,2.914,6.153,6.4,7.2C704.998,351.428,706.526,346.033,704.701,343.992z
		 M753.501,360.392c2.174,1.431,6.332,2.996,9.2,2.4c1.084-4.403-2.372-10.152-4.8-13.6
		C756.639,353.13,754.356,356.047,753.501,360.392z M823.101,368.392c2.405,1.062,4.927,2.007,6.801,3.601
		c1.189-5.744,4.052-9.815,4.399-16.4c-1.664-1.802-3.242-3.691-4.8-5.6C828.131,356.889,825.211,362.234,823.101,368.392z
		 M809.101,391.592c-2.755,2.442-7.889,5.115-12,4.8c-1.954-0.149-3.121-1.64-5.199-2.399c-5.74-2.099-13.614-3.184-18-4.4
		c4.351,2.583,8.712,5.154,13.199,7.6c11.529-2.272,19.329,5.601,22.4,14.4c1.231-0.28,0.769-0.28,2,0
		c8.069,10.331,25.626,11.174,29.6,25.6c0.896-6.231-0.704-11.264-2-17.6c-0.965-4.718-1.673-9.473-4-11.6
		c-2.104-1.925-4.7-2.188-6.399-4.4c-2.673-3.479-3.33-7.21-4-12c1.894,3.681,3.514,12.815,6.8,12.4
		c-2.229-11.602,0.856-26.485,1.6-36.4c-1.403,2.33-2.523,4.942-4,7.2c0.457-4.457-4.317-3.682-6.8-5.2
		C817.996,376.149,815.091,386.282,809.101,391.592z M721.501,556.792c8.264-4.729,14.53,2.629,18,7.6
		c3.068-0.668,6.968-2.627,9.6-2.399c-3.191,0.808-5.24,2.759-8.8,3.199c1.9,4.366,5.785,6.749,5.2,13.601
		c4.579-2.45,7.181-10.851,12.4-15.2c4.496-3.747,9.605-6.518,13.6-10.8c2.028-2.175,8.71-12.589,11.6-12.8
		c1.963-0.144,3.272,2.115,4.801,2.399c4.931-4.441,1.004-10.477-0.801-15.2c-1.087-2.845-2.353-5.802-3.199-8.8
		c-2.634-9.322-2.995-18.841-3.601-30.399c-0.963-18.397-7.045-35.428-9.2-50c3.01,9.657,5.326,20.007,7.601,30.399
		c2.832-9.835,13.336-11.997,20.8-17.2c5.729-12.651,6.586-33.947-1.6-44.399c-8.014-7.689-17.853-11.839-28.801-18.8
		c-6.838-4.349-17.25-12.371-26-13.2c-8.156-0.773-18.126,5.755-21.6,10.8c-1.979,2.874-2.729,7.922-2.4,11.6
		c1.281,14.332,3.014,29.251,7.2,41.601c-0.602-2.87-1.798-7.263-0.8-10.4c0.659,5.208,1.968,9.766,2.8,14.8
		c3.083,0.917,4.927,3.074,6.4,5.601c0.201,9.531,3.035,16.432,4.399,24.8c5.332,3.43,17.862,3.977,16.4-6
		c-4.177,3.063-12.692,3.619-17.2,0.4c2.94-0.188,8.102,2.292,12.4,0.8c-1.021-7.446-0.999-13.602-4.8-18
		c-1.844-2.133-4.561-2.81-5.601-5.601c11.579,0.875,15.777-7.638,14.8-18c7.146-1.121,11.129-5.404,16-8.8
		c1.353,1.448,1.359,4.241,2.4,6c1.449-2.15,1.584-5.615,2.8-8c1.284,3.689-1.801,6.462-2.8,9.2c2.938,5.469-2.075,10.722-5.6,14.8
		c-2.531,2.929-5.699,5.454-8,5.601c5.711-4.289,10.686-9.314,14-16c-1.362-3.305-1.517-7.818-3.601-10.4
		c-3.393,4.341-8.898,6.567-14.399,8.8c1.196,11.863-4.882,16.452-13.601,18.4c6.907,3.359,8.618,11.915,9.601,21.2
		c2.265,0.383,2.773-2.621,4.399-1.601c2.924,10.627-10.313,11.67-17.2,9.2c3.002,4.93,5.134,12.645,14.4,10
		c-0.099-2.976-2.642-7.298-0.8-9.6c0.216,3.25,0.484,6.448,1.6,8.8c2.015-0.52,2.883-2.185,6-1.601
		c0.082,3.149-1.117,5.017-0.8,8.4c-1.841,0.427-3.354,1.179-4,2.8c4.448,10.495,3.006,26.201,8.4,35.601
		c1.932,3.367,4.269,3.609,3.199,8c-2.022,8.306-9.16,16.798-14.8,21.199c4.579-6.237,11.794-12.495,13.601-20
		c1.291-5.367-1.038-6.301-2.801-9.199c-5.863-9.648-3.924-24.702-8.8-36c-2.243,1.166-5.491-0.101-7.6-0.4
		c3.558,10.616,8.907,22.2,6,36.8c-3.292,6.575-11.218,10.648-13.2,17.2c3.157-1.242,3.856-4.944,7.2-6
		C742.819,550.648,726.563,551.581,721.501,556.792z M778.701,469.592c1.903,8.896,2.301,19.299,2.8,29.6
		c5.935,1.8,11.014,4.453,15.6,7.601c-0.152-2.521-3.707-3.75-3.199-5.601c3.708,4.592,6.398,9.132,12.8,9.2
		c7.597,0.082,13.04-5.579,18.8-9.6c4.134-2.886,8.818-6.092,11.2-8.8c6.308-7.174,10.448-20.71,11.2-31.2
		c0.921-12.862-5.479-15.546-8.4-24.8c-2.759,6.041-5.435,12.165-10.8,15.6c0.71-12.727-8.831-20.757-9.601-32
		c3.392,10.076,8.284,18.649,11.2,29.2c3.568-8.768-1.749-16.899-3.6-24c3.585,5.615,5.681,12.719,6,21.6
		c2.833-3.3,4.449-7.817,6.8-11.6c-5.229-10.771-20.3-13.833-28-20.8c2.751,3.117,4.663,9.201,4.8,13.6
		c-0.767-7.194-6.437-13.098-9.2-18.4c-1.369-2.629-2.332-6.271-4-7.6c-3.043-2.426-8.049-3.34-12.399-4.4
		c6.172,6.704,13.761,15.338,14.8,28c0.856,10.436-2.031,19.215-5.6,26.4c-2.962,5.963-6.116,11.99-10.4,14.8
		c3.43-4.304,7.514-10.085,9.2-14.8C792.415,457.973,781.694,459.918,778.701,469.592z M793.501,401.191
		c-1.643-0.699-3.484-4.758-5.2-2.8C790.131,398.97,792.073,401.542,793.501,401.191z M655.501,417.592
		c0.729,3.672,2.49,6.31,2.8,10.4c-5.709-1.794-9.15-13.012-16-6.4c1.918,3.683,3.55,7.65,6.8,10c2.147-0.252,1.397-3.403,3.601-3.6
		c7.893,2.521,14.957-1.176,20.399-3.601c3.126,2.741,4.927,6.807,8,9.601c2.763-5.905,6.883-10.451,8.4-17.601
		C679.593,419.396,665.944,421.513,655.501,417.592z M728.701,449.191c4.814,5.771,4.519,13.518,8.399,21.2
		c-0.586-6.404-2.733-11.613-3.199-17.2c-0.101-1.197,0.421-3.049,0-4.399c-1.17-3.747-7.246-4.642-10-8
		c-2.364-2.883-1.31-4.958-4-7.2C717.269,444.144,725.113,444.893,728.701,449.191z M678.301,455.592
		c-4.734,2.228-12.522,1.238-17.6,1.2c1.298,7.111,13.708,7.85,19.2,4C680.072,458.354,678.983,457.176,678.301,455.592z
		 M677.101,462.792c-2.847,1.899-7.059,0.176-10.399,1.2c2.749,6.165,5.546,15.71,15.2,12.399
		C680.08,472.079,679.297,466.729,677.101,462.792z M674.701,477.992c2.238,2.561,3.396,6.203,5.6,8.8
		c6.394,1.935,7.135-6.262,5.2-10.8C682.052,476.964,678.236,478.252,674.701,477.992z M744.301,485.592
		c0.258,2.409,1.438,3.895,1.601,6.4c3.846,2.571,9.481,1.393,12.8-0.801c-0.282-2.682,0.411-4.389,0.399-6.8
		C754.892,485.81,749.116,488.26,744.301,485.592z M697.501,511.592c-1.33-8.791-9.502-17.724-12.8-24.8
		c-1.056,1.361-3.463,0.078-4.4,0.8c4.395,7.472,7.387,16.347,10.8,24.8c1.321-1.492-0.654-6.031,0.801-6.399
		c1.034,4.963,0.058,10.133-2.4,12.8c-0.623-2.37,1.873-3.709,0.8-5.2c-3.134,3.946-7.924,6.478-12,10
		c-1.682,1.453-2.841,4.021-4.8,5.2c-2.721,1.637-6.164,1.079-9.2,2.8c3.258,0.209,6.345,0.589,10,0.4
		c2.009,1.19,2.979,3.421,4.4,5.199C685.546,530.105,699.634,525.687,697.501,511.592z M722.701,529.592
		c-1.55-1.573-7.037,0.88-8.8-0.8c-11.981,4.952-22.326,11.54-30,20.8c-3.227-5.841-5.595-12.539-10.4-16.8
		c-11.05-0.475-25.564-3.591-26.8,8.8c-0.569,5.706,2.936,11.164,6,13.6c4.145,3.295,14.12,4.801,20.399,5.2
		c17.105,1.09,19.795-16.49,30.4-19.6c-0.56,1.039-4.533,2.484-2.8,3.2c9.3-2.301,12.891-10.31,26-8.801
		c4.531-3.503,5.853-10.882,1.2-14.8C726.176,523.467,725.016,527.106,722.701,529.592z M765.501,571.191
		c2.126-1.351,8.962-7.406,14.8-9.6c2.273-0.854,5.479-0.765,7.2-2c4.169-2.991,6.002-14.634,3.6-20.4
		c-0.79,2.143-1.714,4.153-4,4.801c-4.326-7.927-9.602,3.423-12.8,7.199c-6.533,7.715-14.415,11.506-20,18.4
		c-3.014,3.721-5.22,7.988-8.8,10.4c-0.429-7.687-3.337-8.683-7.2-14c-3.354-4.617-5.196-10.158-11.6-10
		c-1.677,0.041-4.385,2.432-6.4,2.8c-1.156,0.211-0.584-0.891-1.6-0.4c-2.179,1.052-4.966,4.042-6.8,6
		c-4.363,4.659-6.352,8.353-2,14c3.412,4.43,9.661,8.313,16.399,10c5.529,1.385,11.595,1.164,16.8,2c1.438,0.231,2.46,1,3.601,0.8
		c5.133-0.897,8.729-10.621,14-11.6c2.738-11.396,10.955-17.312,19.6-22.8C774.984,561.209,769.404,565.361,765.501,571.191z"/>
	<path fill-rule="evenodd" clip-rule="evenodd" d="M756.701,275.592c-1.132-1.029,1.45-1.727,1.6-2.8
		c0.196-1.263-0.721-1.413-0.399-2.8c-3.053-2-4.305,1.643-6.801,2.8c-2.77,1.285-6.728,0.542-4,3.6c0.57-0.763,0.931-1.737,1.2-2.8
		c1.127,0.404-0.11,1.699,0,2.4c0.844,1.023,2.951,0.783,4.8,0.8c-2.24,1.9-7.766,0.715-8-2c0.145-2.923,2.642-1.55,5.601-2.4
		c3.079-0.884,3.236-5.603,7.6-3.2C760.543,271.521,758.831,274.409,756.701,275.592z"/>
</g>
</svg>
