<?xml version="1.0" encoding="utf-8"?>
<!-- Generator: Adobe Illustrator 14.0.0, SVG Export Plug-In . SVG Version: 6.00 Build 43363)  -->
<!DOCTYPE svg PUBLIC "-//W3C//DTD SVG 1.1//EN" "http://www.w3.org/Graphics/SVG/1.1/DTD/svg11.dtd">
<svg version="1.1" id="图层_1" xmlns="http://www.w3.org/2000/svg" xmlns:xlink="http://www.w3.org/1999/xlink" x="0px" y="0px"
	 width="1280px" height="820px" viewBox="0 0 1280 820" enable-background="new 0 0 1280 820" xml:space="preserve">
<g>
	<path d="M514.701,111.992c7.778-3.821,14.672-8.527,21.2-13.6c-4.834,8.499-16.647,10.02-23.601,16.4
		c0.738-3.407,3.468-6.093,5.2-9.6c2.109-4.272,4.091-8.579,4.8-14.8c4.407-3.993,9.349-7.452,16.4-8.8
		c-1.373-1.027-4.96,0.16-6.4-0.8c-0.8,0-1.6,0-2.399,0c5.453-0.366,14.193-1.838,20-2c-9.504,3.163-19.551,5.783-26.4,11.6
		C521.261,98.285,518.556,105.714,514.701,111.992z"/>
	<path d="M635.901,94.392c15.771,7.429,10.018,36.382,15.199,54.4c-5.489-12.896-1.44-34.334-9.6-47.2
		C639.688,98.732,637.273,97.756,635.901,94.392z"/>
	<path d="M621.101,96.392c6.716,10.612,1.043,28.835,3.601,40.8c1.214-6.519-0.21-15.676,6.8-16.4
		c-5.259,2.741-5.349,10.65-6.4,17.6c-1.777-1.289-1.692-4.44-2-7.2c-3.138,13.663-9.189,24.41-20,30.4
		C619.988,151.785,628.726,122.705,621.101,96.392z"/>
	<path d="M543.501,157.192c1.023-0.018,0.488,0.297,0.4,0.8c-4.919,4.014-4.833,13.034-6.4,20.4c-1.284,0.351-0.829-1.037-1.6-1.2
		c-0.292-1.752,0.795,0.322,0.8-0.8C536.894,167.917,539.676,162.034,543.501,157.192z"/>
	<path d="M651.101,157.192c1.957-0.223,0.956,2.511,1.2,4c-0.867,0.067-0.181-1.419-0.398-2c-3.464,4.27-4.392,11.076-5.2,18
		C645.857,169.814,649.06,163.018,651.101,157.192z"/>
	<path d="M625.901,160.792c-2.828-0.294-4.729,0.338-6.801,0.8C620.05,160.447,624.659,159.01,625.901,160.792z"/>
	<path d="M605.901,183.992c0.355,0.177,0.715,0.352,0.8,0.8c-0.042,1.692-1.077,2.39-2.4,2.8
		C604.896,186.454,605.029,184.854,605.901,183.992z"/>
	<path d="M630.701,191.592c2.455,7.262,0.174,15.984-0.8,23.2C629.789,208.238,631.729,199.19,630.701,191.592z"/>
	<path d="M586.701,194.392c2.61,1.522,4.615,3.652,8.399,4C592.757,199.657,587.861,196.937,586.701,194.392z"/>
	<path d="M520.701,195.592c0.618-1.223,0.352,1.735,0.399,2.4c0.802-0.532,0.892-1.775,1.2-2.8c0.611,1.029-0.244,4.009-1.6,4.4
		C520.701,198.258,520.701,196.925,520.701,195.592z"/>
	<path d="M605.501,199.192c-0.49,1.51-2.817,1.183-4.8,1.2C601.673,199.364,603.642,199.333,605.501,199.192z"/>
	<path d="M578.701,232.392c1.375,0.492,0.584,3.149,1.2,4.4c0.441,0.8,2.147-0.487,3.6,0c1.997,9.336,1.747,20.919,2.8,31.2
		c-4.148,1.451-8.019,3.181-12.399,4.4c2.366-11.766,5.832-22.435,8.399-34c-2.778-0.159-4.742,2.341-7.6,0.8
		c0.515-1.085,1.987-1.212,3.6-1.2C578.475,236.166,577.896,233.587,578.701,232.392z M575.101,271.592
		c3.236-1.563,6.683-2.918,10.4-4c-1.079-8.654-1.133-18.333-2.4-26.8C580.773,251.131,576.553,261.709,575.101,271.592z"/>
	<path d="M581.501,250.392c2.571,2.896,1.33,9.604,2,14.4c-2.305,0.44-4.503,2.856-6.4,2.4
		C578.731,261.755,579.65,255.607,581.501,250.392z M578.701,266.392c1.194-0.938,2.682-1.584,4-2.4
		c-1.099-2.769,0.324-8.058-0.8-10.8C581.15,257.644,578.423,262.244,578.701,266.392z"/>
	<path d="M465.501,421.992c-0.064-0.465,0.088-0.712,0.4-0.8c17.042,1.976,24.707-5.427,31.199-14
		C492.7,417.995,480.886,423.505,465.501,421.992z"/>
	<path d="M745.901,439.992c-1.018,1.299-4.914,1.015-6,0c0.464-1.782,3.282,1.203,4.8-0.4c0.278-3.091-2.733-4.206-4.4-6
		c-4.854-5.226-6.365-12.978-15.6-14c8.247-1.069,11.212,7.535,16,12.8C742.823,434.726,745.867,436.848,745.901,439.992z"/>
	<path d="M504.301,433.192c7.311,2.441,6.712,10.11,7.601,19.6c1.078,11.532,5.349,22.601,9.199,30.4c-1.897-1.185-2.96-3.92-4-6.4
		c-2.955-7.049-6.279-17.186-6.8-26.4C509.841,442.247,509.073,437.046,504.301,433.192z"/>
	<path d="M443.501,433.992c0.4,0,0.8,0,1.2,0c-2.075,10.325-3.668,21.132-10.8,26.4
		C438.612,453.103,441.681,444.172,443.501,433.992z"/>
	<path d="M589.901,62.792c-0.178,0.356-0.352,0.715-0.801,0.8c-13.236-4.553-31.433-0.861-40.399,6
		c-4.839,3.703-8.673,8.698-15.2,9.6c12.473-7.096,24.667-19.579,43.2-19.6c4.293-0.005,7.813,1.552,12,2.4
		C589.226,62.133,589.33,62.696,589.901,62.792z"/>
	<path d="M592.701,63.592c-3.249,0.003-4.495-3.998-5.601-6.4c-1.2-2.609-2.87-6-3.199-8.4c-1.91-13.92,16.337-18.373,28.399-13.2
		c3.595,1.542,5.479,4.76,8.8,6c-8.917,1.274-18.618-0.913-24.8,4C591.483,49.421,591.998,56.792,592.701,63.592z M618.301,40.392
		c-8.711-7.227-32.564-9.722-33.6,4.4c-0.483,6.591,4.078,10.074,6,15.2C587.821,42.953,603.772,41.349,618.301,40.392z"/>
	<path d="M595.501,64.792c11.164-5.186,29.642-4.944,40.4,0.4c2.153,8.646,7.652,13.947,16,16.4c-4.535,2.125-10.763-0.24-14.4-1.6
		c12.88,11.121,24.292,27.175,25.6,51.2c-3.854-20.925-10.592-39.123-25.199-50c-1.804-1.343-4.526-2.06-6-4.4
		c6.074,0.343,10.078,6.175,18.8,5.2c-8.32-2.613-12.948-8.918-16.4-16.4c-6.198-1.812-13.336-4.12-20.8-4
		C606.492,61.705,600.918,65.982,595.501,64.792z"/>
	<path d="M525.901,107.192c0.469,0.064,0.337,0.729,0.399,1.2c-10.399,16.074-20.535,39.791-15.6,66
		C503.799,149.635,514.859,121.778,525.901,107.192z"/>
	<path d="M580.701,87.992c-3.42,11.384-15.078,18.784-24.4,21.6C566.607,104.564,575.774,98.398,580.701,87.992z"/>
	<path d="M567.501,108.392c0.172,0.628,1.258,0.342,0.8,1.6c-3.405,6.995-6.016,14.784-12.8,18.4
		c12.44-3.826,16.547-15.986,24.4-24.4c-6.663,9.738-11.667,21.132-24.4,24.8c0.116-2.309,2.882-2.745,4.4-4.4
		c3.61-3.938,5.121-10.064,7.199-15.6c-5.007-0.034-8.439,4.663-13.6,2.8c-0.982-0.355,1.556-0.275,2-0.4
		c12.39-3.481,31.036-10.3,38-20.8C590.384,100.342,578.014,104.505,567.501,108.392z"/>
	<path d="M642.301,168.792c0.903,2.302,2.117,6.41,3.602,6.8c-3.398-5.002-4.256-12.544-5.2-20c1.447,1.045,2.999,3.807,4.8,3.2
		c-3.685-4.716-4.547-12.253-5.2-20c2.146,2.425,4.225,5.412,6.4,8.4c2.003,2.75,3.628,7.068,7.2,7.2
		c-4.184-3.245-6.905-7.996-10-12.4c-2.912-4.143-6.241-9.096-7.602-14.8c-1.264-5.302-0.438-10.136-3.2-13.6
		c1.508,4.07,1.483,8.368,2.4,12.8c0.833,4.023,3.216,7.565,4,11.2c1.442,6.686,0.119,13.158,3.6,18.8
		c-8.729-6.203-12.144-17.722-15.6-29.2c1.235,6.898,2.954,13.313,6,18.4c-2.153-2.516-5.51-5.953-9.2-5.6
		c7.097,3.438,10.583,10.484,14,17.6c-0.82-3.179-2.155-5.844-3.2-8.8c5.681,3.56,3.29,11.493,6.4,18.4
		c-5.1,3.514-7.478,9.241-9.635,15.319C634.198,176.952,638.056,171.865,642.301,168.792z"/>
	<path d="M630.562,186.229c0.439-1.244,0.868-2.488,1.306-3.718C631.353,183.733,630.914,184.977,630.562,186.229z"/>
	<path d="M597.901,333.592c2.5,10.706,0.31,23.114,4.8,30c3.932,6.029,11.241,11.635,17.6,16.8
		c15.998,12.994,36.453,21.465,55.602,30.4c9.421,4.396,18.63,8.197,18.8,20.4c-0.19-0.028-0.378-0.059-0.567-0.088
		c0.812,0.746,1.522,1.595,2.141,2.524c-0.139-4.265-1.762-7.044-1.974-11.236c-4.128-7.766-12.43-9.192-20.398-13.2
		c-3.787-1.904-7.418-4.169-11.2-6c-15.298-7.406-31.585-13.416-43.601-24.4c-5.812-5.313-13.073-11.598-16.399-18
		c-4.108-7.907-1.328-19.34-4-29.6c10.566-10.584,10.012-29.789,9.2-49.2c2.272-3.593,3.147-8.585,5.199-12.4
		c2.932,8.802,7.104,16.364,11.601,23.6c0.866,20.067-3.631,51.097,8,60.4c-9.884-12.117-6.439-37.561-7.2-58.8
		c7.366,10.9,18.694,19.972,28,27.6c-21.079-18.87-41.219-37.269-43.2-74c-0.466-8.636,0.089-16.587-0.8-23.2
		c0.855,5.924-2.696,9.567-2.8,13.2c1.126-0.884,1.673-4.445,2.8-4c0.195,5.271-0.435,11.368,0.4,16
		c-10.108,2.825-13.701,14.298-20,19.6c4.29-10.551,7.898-30.639,0-40c9.601,16.134-0.739,33.481-4,49.2
		c-3.926,18.924,5.766,44.603-7.601,56.8c-2.061-0.739-4.789-0.811-6.8-1.6c-0.804-1.195-0.226-3.773-0.4-5.6
		c4.074-4.467,8.011-9.486,7.601-17.2c-0.276-5.193-0.798-8.215,3.2-10c-2.354-0.21-3.269,3.119-4.4,2.8
		c-1.374-1.686,0.689-5.041-0.4-6.4c-2.175,5.23,0.407,10.321,0.4,15.2c-0.016,10.434-7.583,16.488-15.2,20.4
		c-1.021-1.112-1.87-2.396-2.8-3.6c3.771-6.492,8.342-12.512,9.2-21.2c0.922-9.336-1.656-19.193-2.4-28.8
		c-0.597-7.708,2.724-12.112,3.2-18.4c1.217-16.037-5.02-26.66-8.8-37.2c5.776,4.018,13.069,9.67,23.2,6.8
		c5.421,2.979,7.066,9.733,9.6,15.6c1.363-8.84-7.75-12.726-8.8-17.6c-1.013-4.692,2.01-8.658,2.8-13.6
		c-3.391,2.742-3.805,8.461-3.6,14.8c-10.238,2.845-25.744-5.174-25.601-11.2c0.047-1.98,2.388-3.477,2.8-5.6
		c6.583,3.816,13.45,7.35,22.801,8.4c-8.073-2.861-17.665-4.202-22.4-10.4c1.354-1.712,1.128-5.005,2.4-6.8
		c1.21,3.056,1.859,6.673,3.6,9.2c0.213-5.68-0.609-10.324-2.4-14c6.172,7.902,15.598,16.57,28.4,15.2
		c0.271,1.863,2.624,1.642,4,2.4c1.026,1.49,2.971,3.019,4.4,4.8c1.242,1.549,2.215,4.95,4,3.6c-3.605-3.861-6.867-8.067-11.2-11.2
		c4.785-0.948,8.702-2.764,13.2-4c-3.051,3.386-1.863,11.162-1.601,16.8c0.884-0.05,0.17-1.697,0.4-2.4
		c-0.36-6.226,0.91-10.823,2.399-15.2c6.933-2.693,12.419-5.466,16.4-10c3.148-3.584,3.516-7.555,4.8-12.8
		c0.079-0.322,0.17-0.643,0.262-0.963c-1.74,4.924-3.663,9.832-7.062,13.763c-3.876,4.486-9.136,7.13-15.2,9.6
		c-5.189,2.114-13.09,6.128-19.2,5.6c-4.83-0.417-10.248-3.984-14.399-7.2c-7.326-5.675-12.241-11.543-14.4-21.2
		c2.62,1.916,4.709,6.487,7.2,7.2c-3.806-4.054-7.766-9.06-10.4-14.8c-2.539-5.535-6.258-11.992-4.8-18.8
		c4.357,10.047,11.266,19.664,22,22c-8.868-6.929-15.815-19.359-14.399-35.6c0.938-10.763,5.312-20.744,10.399-26.4
		c-6.562,5.085-10.433,17.298-11.2,28c-1.034,14.442,5.658,26.643,12.801,32.8c-8.598-3.477-16.01-13.475-19.601-21.6
		c-1.078-2.439-0.893-5.403-3.2-6.8c2.287,3,1.352,6.197,1.601,10c0.584,8.909,5.426,16.462,8.8,22.8c0.763,9.505,6.666,16,6.8,24.8
		c-1.583-9.483-7.894-14.24-15.2-18c2.949,1.789,1.274,10.438,1.601,14.4c-3.203-5.772-2.16-11.472-4-17.6
		c-1.16-3.862-5.257-7.585-6.4-12.4c-0.871-3.669,0.602-6.453-1.2-10.4c-0.624,28.224,3.956,51.245,14.4,68.4
		c-4.026-10.507-8.85-20.217-10.8-32.8c1.526,1.117,3.92,0.753,6,0.4c0.84,2.493,1.147,5.519,3.2,6.8
		c-0.011-2.523,0.157-5.225-0.4-7.2c4.096,0.315,10.444-2.62,8.8,2.8c-2.219-1.137-5.289,0.488-6.8-0.8
		c-2.939,7.637,0.225,13.082,2.8,18.8c5.407,12.007,12.966,26.867,8.8,43.6c-1.857-10.542-8.848-15.953-16-21.2
		c-1.776-8.49-5.561-17.105-6.399-25.2c2.692,7.041,7.139,14.46,12.8,17.2c-7.661-5.731-13.202-18.726-16.4-29.6
		c-0.916-3.114-0.617-6.662-2.8-9.2c-0.25,6.006,3.304,11.959,4.8,18.4c3.315,14.273,6.168,27.674,10.8,39.6
		c2.388,6.146,6.521,11.463,6.801,17.6c-2.426-4.642-3.72-10.415-8-13.2c1.221,10.667,4.89,19.795,4,30.8
		c-1.298,16.023-9.605,30.844-13.2,42.8c8.49-17.91,19.233-44.668,10.8-69.6c2.828,2.905,4.422,7.045,6.8,10.4
		c1.494-5.642-2.611-9.429-4.399-13.6c-1.887-4.396-3.407-8.881-4.801-14c8.263,4.539,14.527,11.073,14.801,23.6
		c-1.217,2.48-1.496,6.096-1.2,9.6c0.568,6.752,1.705,13.491,2,20c0.545,12.003-2.813,20.58-9.2,28.4c-2.17-1.563-3.916-3.55-6-5.2
		c-0.033,3.944-4.269,4.759-4,9.2c0.067,1.108,0.95,1.99,1.708,2.81c-2.03-3.161,1.376-7.374,2.692-10.41
		c1.767,1.433,3.366,3.033,4.8,4.8c-1.418,2.982-3.708,5.092-6.4,6.8c-0.157-0.125-0.28-0.256-0.414-0.385
		c0.28,0.391,0.457,0.779,0.414,1.185c-0.052,0.488-3.56,3.019-4.8,4.4c-9.631,10.72-16.555,21.867-22.4,35.2
		c-10.036,1.511-17.622-2.193-24-5.6c0.052-3.149,0.618-5.782,0.8-8.8c6.782,3.557,17.317,11.024,26.801,5.6
		c-11.214,3.407-20.042-2.902-26.801-7.6c-0.142-17.058-5.889-28.512-16.8-34.8c1.439-13.761,3.993-26.407,6.8-38.8
		c6.071-7.992,14.456-14.263,21.2-21.6c1.958-2.13,4.495-4.184,5.601-6c6.354-10.443,9.309-39.644-10.801-36.8
		c3.488-5.49,9.78-1.003,14.801-1.2c4.484-0.175,7.844-2.848,12-1.6c1.343,3.857,1.855,8.543,3.199,12.4
		c-2.618,2.557-3.176,7.419-4.8,11.2c-1.3,3.028-2.767,5.138-4,7.2c4.52-1.481,8.011-3.99,11.2-6.8c-3.515,0.489-6.137,3.992-8.8,4
		c2.922-4.145,4.368-9.765,6.8-14.4c1.659,7.964,2.743,13.104,4,18.8c1.714,7.766,2.012,9.013,3.6,19.6
		c0.862,5.746,0.531,0.923,0.4-1.6c-0.578-11.123-2.641-22.199-6-34.4c-2.898-10.529-6.884-21.669-7.6-33.2
		c-0.724-11.638,1.211-22.286,0.399-32c-0.841-0.292-0.199,4.321-0.399,6c-1.708,3.359-1.875,8.258-3.2,12
		c-1.169-6.431-1.556-13.644-6-16.8c2.598,3.507,1.301,15.491,1.2,20.8c0.912-4.493,2.458-9.79,2-14.4
		c1.171,3.969,2.194,9.972,2.8,13.2c1.108-3.025,1.464-6.803,2.8-9.6c-0.215,13.133-1.054,25.887,2,36.4
		c-1.478,2.143-3.273,0.267-5.6,0.4c-2.476,0.142-5.065,2.081-7.601,2c-3.317-0.106-5.935-2.722-9.6-2c-2.623,0.517-3.351,2.465-6,4
		c-6.463,0.083-9.76,4.97-14.4,5.6c-28.649,29.307-49.209,65.289-70.8,102c-3.168,5.387-6.5,11.993-6.8,18
		c-0.455,9.095,2.666,17.6,5.6,25.6c7.333,19.988,16.901,34.56,25.6,53.2c1.715,3.675,4.667,7.755,5.2,10.8
		c1.188,6.792-1.829,13.002-1.2,18.8c0.952,8.776,8.975,12.536,16,16.8c5.497-3.703,12.733-5.666,18-9.6
		c0.5,1.125,1.64,1.323,2.8,0.8c0.532-3.239,2.692-6.515,2.4-9.2c-0.153-1.401-1.581-2.121-2.4-4c-0.736-1.688-0.752-4.066-1.6-5.2
		c-2.977-3.98-9.167-5.708-12-9.2c0.054-9.977-5.656-14.68-8.801-22c-2.783-6.481-4.594-12.274-6.399-19.6
		c1.532-2.34,5.305-7.229,6.8-4c1.083,2.337-4.688,3.377-4.8,6.8c7.452-4.421,13.962-13.233,19.2-21.2
		c9.365,11.033,21.985,18.813,37.6,23.6c1.095,3.441,4.021,7.175,4.4,10c-19.301-4.167-35.889-11.046-48.801-21.6
		c12.084,11.916,29.958,18.042,49.601,22.4c4.928,29.739,11.521,59.945,23.6,81.2c-6.698,1.036-12.716,2.75-13.2,10
		c-15.224-2.971-36.359,4.452-50.399-3.2c7.935-1.051,15.18-7.186,14.8-14c-2.144,9.712-11.534,13.904-21.6,13.6
		c-4.118-0.125-9.337-1.929-14.4-2.8c-4.949-0.851-10.694-1.271-14.4-2.8c-1.777-0.734-3.055-2.525-4.8-3.2
		c-5.711-2.208-12.354-1.067-18.8-2c-3.208,3.325-4.656,8.411-6.8,12.8c-3.572-19.671,6.296-31.858,12.399-44
		c2.741-5.452,4.634-11.193,7.2-16.4c2.708-5.493,6.088-10.005,8.8-15.2c-2.829,1.421-4.406,4.922-6,7.6
		c-5.366,9.021-8.01,19.293-13.6,28.4c-5.074,8.267-8.978,18.674-10.4,31.2c-0.369,3.253-1.99,8.658,2.4,10
		c0.935-5.466,3.238-9.562,6.4-12.8c11.183-2.31,19.189,3.49,28,6c0.082,24.959,7.438,44.301,15.6,64.4
		c4.847,11.938,12.602,24.937,15.6,39.6c1.055,5.154,2.927,11.875,2.4,16.4c-0.394,3.389-3.059,7.107-4.4,10.8
		c-1.385,3.814-2.603,7.68-4.399,11.2c-20.15-7.122-14.012,21.938-12,35.6c2.578,17.509,5.224,33.611,9.2,49.2
		c1.998,7.836,4.814,15.597,6,23.2c1.068,6.865-0.618,14.25-1.601,20.8c-0.777,5.188-2.896,10.618-3.2,15.2
		c-0.472,7.104,2.918,15.99,6.801,19.2c4.002,3.308,8.782,2.575,16,4c9.432,1.859,19.214,8.135,26,14
		c3.06,2.645,4.713,6.553,7.199,8.398c4.309,3.199,9.007,2.108,17.2,2.801c2.844,0.239,5.27,1.074,6.8,0.801
		c4.023-0.721,10.16-6.025,10.4-10.4c0.127-2.309-2.176-6.841-4.4-9.2c-8.927-9.469-26.278-15.068-33.6-25.6
		c-2.381-3.425-3.712-7.846-5.6-11.601c-1.928-3.833-4.925-7.813-6-11.601c-0.736-2.589-0.736-5.896-1.2-8.8
		c-0.453-2.837-1.751-5.885-2-8.4c-0.69-6.967,0.992-15.15,2-22c1.035-7.025,2.336-14.188,3.6-20.398
		c3.441-16.906,9.788-31.23,9.2-51.602c-0.486-1.646-2.891-1.375-3.2-3.199c17.484-30.197,4.273-81.903,6.8-122.8
		c12.054,26.88,36.749,41.118,38,78.8c-5.642,4.356-8.515,11.484-11.6,18.399c-1.079-0.787-3.495-0.237-5.2-0.399
		c-16.651,10.65-10.396,50.41-16.399,72c-0.921,3.313-2.885,6.133-3.2,9.199c-0.383,3.717,0.973,7.022-0.4,10
		c-2.121,4.602-9.209,6.792-12.399,10.801c-5.505,6.916-0.56,15.47,2,23.199c1.849,5.588,3.316,12.12,6,15.2
		c2.733,3.14,11.011,6.875,16.8,10c5.6,3.023,12.822,5.853,18,9.2c1.962,1.27,3.35,3.645,5.2,4.399
		c13.769,5.628,28.826-7.025,20.8-18.801c4.208,10.986-3.573,18.225-13.601,18.4c-6.003,0.105-7.97-2.606-11.199-4.8
		c-4.791-3.254-10.145-5.234-15.2-8c-6.758-3.697-16.71-8.069-19.601-11.2c-2.763-2.994-4.616-9.691-6.399-14.8
		c-1.852-5.304-5.396-12.034-4.4-17.2c1.45-7.526,13.868-10.263,15.6-18.4c0.4-1.881-0.309-4.757,0-7.199
		c0.426-3.362,2.657-6.351,3.601-10c1.345-5.208,1.41-11.739,2-18c1.716-18.187,1.335-38.619,10.8-50
		c6.328,17.271,17.617,29.583,38.4,32.399c3.928-1.299,7.604-4.894,10-6.399c2.408,4.056-1.307,7.346-3.2,10
		c-14.852,20.812-30.666,40.195-40.4,65.601c-0.054-1.279,0.396-3.062-1.2-2.8c-3.065,24.343,11.406,34.428,26.4,42
		c2.456,1.24,6.174,4.108,8,0.398c-2.313,1.012-4.842,0.473-7.2-0.398c-6.528-2.412-14.901-8.629-19.2-13.2
		c-4.396-4.675-7.614-14.3-6.8-21.601c0.729-6.532,6.034-14.564,9.601-21.199c4.021-7.484,7.132-14.368,10.8-20
		c5.917-9.087,13.583-16.771,20-26c2.214-3.186,5.657-7.414,5.6-10c-0.085-3.896-4.19-6.652-5.6-8.801
		c7.532-16.249,19.196-28.492,17.2-52c-0.079-0.928-0.359-1.879-0.4-2.801c-1.788-40.657-11.322-75.758-23.6-105.6
		c3.323-1.343,6.932-2.402,10-4c-6.591-5.011-7.803-15.398-13.601-21.2c3.631,5.59,5.959,13.543,9.601,18.8
		c0.638,0.922,2.326,1.754,2.399,2.8c-13.751,1.182-24.913,4.954-37.6,7.2c-17.312-20.155-24.496-52.571-34.8-78.4
		c9.986,0.012,37.777,1.547,39.199-6.4c0.752-4.2-4.306-8.449-1.6-14.4c3.658,4.059,9.009,8.918,15.6,12.8
		c5.662,3.334,14.343,8.065,16,12.8c1.86,5.313-0.623,20.576-2.8,23.6c-4.409,6.129-12.56-1.455-16-4.4
		c-2.355-3.175-3.082-9.896-6-11.2c-2.239-5.493-2.996-12.471-6.399-16.8c4.229,14.97,10.077,31.79,14.399,48
		c-1.639-10.628-5.354-21.311-7.2-30.4c4.566,12.229,12.607,26.146,21.601,36.4c1.46,1.665,9.113,9.952,10,7.2
		c0.597-1.852-1.826-1.456-1.2-1.2c-2.661-1.084-7.516-6.816-10-10.4c5.504,5.429,14.484,7.382,21.2,11.6
		c-6.022,2.245-13.247,3.286-16.4,8.4c4.536-2.812,12.527-5.596,18.8-8c-2.392-4.454-8.367-4.392-12.8-6.4
		c-5.643-2.557-10.205-7.309-14-10c23.932,2.134,11.364-34.292,4.8-42.8c-3.311-4.291-8.922-7.307-12.8-11.6
		c-5.257-5.82-11.043-11.042-12.399-19.6C571.752,361.042,584.915,345.672,597.901,333.592z M544.701,201.192
		c-0.847-7.154-1.806-14.196-2-22c3.19,6.542,5.555,13.912,7.2,22C547.931,202.112,546.97,201.613,544.701,201.192z
		 M553.901,201.192c-0.208-2.208,0.229-3.771,0.399-5.6c2.294,1.173,4.547,2.386,5.601,4.8
		C557.68,200.437,556.219,201.244,553.901,201.192z M557.501,217.592c-3.627-3.31-3.439-13.485,4.4-12
		C560.961,210.119,559.432,214.056,557.501,217.592z M582.701,451.592c-3.42-3.647-6.268-7.866-8.8-12.4
		c4.701,2.799,10.804,6.944,16.8,4c-0.298-0.902-2.244-0.157-3.2-0.4c4.443-4.625,4.969-15.297,4-24
		C596.902,425.876,603.665,455.713,582.701,451.592z M578.701,337.592c4.835,1.259,6.499-3.821,9.6-5.6
		c-1.896,4.517-6.09,13.516-14,10.8C573.285,341.688,577.405,339.027,578.701,337.592z M569.501,329.992
		c0.918,0.815,0.145,3.322,0.4,4.8c-2.172,0.717-5.521,2.129-7.2,0C564.735,332.959,567.63,331.987,569.501,329.992z
		 M482.701,463.992c-0.442-2.642,1.458-5.864,1.6-9.2C485.866,456.939,484.08,462.172,482.701,463.992z M464.301,423.592
		c2.816,5.058,5.901,8.522,5.601,16.8c3.535,0.419,12.419,6.401,13.199,10.4c0.774,3.967-0.673,10.074-2.399,12.4
		c-3.486,4.694-14.743,5.795-17.601,9.2c-5.512-3.886-12.578-7.29-14-13.6c-1.382-6.138,2.417-14.121,0.801-20.4
		c-1.68-6.517-6.312-13.458-9.601-20c-3.219-6.403-7.571-12.231-10.8-18.4c-3.161-6.038-5.984-13.186-8.8-20.4
		c-3.986-10.211-9.967-23.447-6-37.6c2.768-9.875,10.328-20.16,16-30c10.735-18.626,24.456-38.734,36.8-55.2
		c9.148-12.203,16.888-25.281,32.4-32c3.869-1.676,15.298-0.227,18,2.4c3.399,3.306,3.707,10.108,3.199,16
		c-1.582,18.391-14.217,26.867-25.199,35.6c-14.573,22.626-37.803,36.598-50.801,60.8c-1.481-0.518-0.554-3.446-1.6-4.4
		c-1.41,5.077,2.725,8.556,3.6,12c0.992,3.907,0.474,8.592,0.801,12.8C449.744,383.683,454.782,406.493,464.301,423.592z
		 M464.301,391.592c-3.727-3.619-6.793,0.588-9.6,2.4c-1.47-6.866-2.733-14.513-4-22.4c-1.729-10.769-1.693-22.516-5.601-30
		c5.761-10.587,12.999-18.847,20.801-27.6c7.599-8.526,16.529-15.743,23.6-24.8c-1.178,12.119-7.81,25.833-6.4,40.4
		c0.271,2.807,1.615,5.602,1.601,8.4c-0.011,1.959-0.923,3.854-1.2,6c-1.06,8.212-1.537,16.353-4,24
		C476.198,378.245,471.276,385.741,464.301,391.592z M477.101,376.392c5.429-13.033,9.836-31.46,7.2-48.8
		c18.283,8.675,17.687,44.032,8.8,62.8c3.41-4.323,5.064-10.402,6.4-16.8c5.757,7.709,9.855,17.078,14,26.4
		C498.049,395.444,486.338,387.154,477.101,376.392z M518.701,406.792c-5.535-10.599-10.51-21.757-16.8-31.6
		c5.645,0.851,13.035,5.233,21.6,3.2C519.54,385.497,518.354,395.378,518.701,406.792z M531.501,364.792
		c4.401-9.447,12.692-19.2,19.6-25.6c0.751-0.697,0.753-1.4,1.601,0c0.34-0.074,0.377,0.156,0.399,0.4
		c1.233-0.452-0.81-0.782-0.8-1.2c0.027-1.144,6.524-6.802,6.4-6.8c1.224-0.02,3.559,4.911,6.399,5.2c3.699,0.376,8.01-2.779,12,0
		c-1.264,2.203-3.495,3.437-4.8,5.6c-4.32-2.931-13.625,1.527-17.6-1.2c1.719,5.838,11.701-1.397,16,2
		c-12.862,16.338-23.828,34.572-27.601,60c-7.49,1.247-17.694,1.423-23.199-1.6C519.09,386.406,525.758,377.118,531.501,364.792z
		 M557.501,397.992c-3.468,2.532-8.344,3.656-13.2,4.8c-0.019-11.353,4.77-17.898,7.601-26.4c1.255,5.545,2.908,10.691,6.399,14
		C558.119,393.01,557.173,394.864,557.501,397.992z M535.501,496.392c3.204,0.034,7.778-3.246,9.6-0.8
		c-3.072,0.793-7.617,0.116-10,1.6C534.338,496.848,535.533,496.954,535.501,496.392z M473.501,640.392
		c-1.002,3.266-1.306,7.229-1.2,11.602c-3.587-2.698-6.883-7.759-7.2-12.4C467.695,638.564,471.567,639.452,473.501,640.392z
		 M507.901,758.792c1.445-1.754,0.763-5.638,1.199-8.4c2.888,8.643,2.726,23.273,1.601,32.4c1.53-4.336,2.438-9.296,2.399-15.2
		c3.802,7.267,7.224,14.91,11.2,22c4.937,4.067,10.509,8.287,16.4,12.4c5.714,3.989,12.663,7.333,16.8,12
		c1.461,1.646,3.415,4.938,3.2,7.6c-0.276,3.419-5.832,8.696-9.601,9.2c-1.334,0.179-4.201-0.938-7.6-1.2
		c-6.364-0.49-10.573,0.188-13.6-1.6c-2.945-1.739-4.947-6.108-8-8.801c-6.816-6.012-16.944-12.518-26-14.399
		c-5.675-1.18-12.156-0.548-16.4-4c-3.646-2.967-7.411-11.223-6.8-17.601c0.225-2.349,1.839-4.379,2.4-6.399
		c2.019-7.274,4.299-22.971,2.8-31.2c-1.401-7.689-4.337-15.179-6.4-23.2c-4.94-19.216-8.318-40.646-10.399-62.8
		c-0.764-8.12-2.22-14.04,2-18.399c0.34-0.073,0.377,0.155,0.399,0.399c2.428,3.539,4.671,9.312,8.8,12
		c10.286,6.699,42.084,7.87,50.801,2.4C520.421,692.38,506.609,719.766,507.901,758.792z M522.701,652.792
		c0.124,2.257-2.06,2.208-2.8,3.6c-1.053-1.471,0.819-3.433,0.8-5.199C521.302,651.791,522.385,651.907,522.701,652.792z
		 M517.901,657.191c-14.345,2.993-33.896,1.625-44.4-4c0.004-7.729,1.352-14.114,3.6-19.601
		c10.314,7.728,27.271,15.211,44.801,9.601C520.402,647.485,518.337,653.146,517.901,657.191z M522.701,641.992
		c-4.823-0.108-9.467,1.92-14.4,2c-12.26,0.197-23.148-6.693-30.399-12c2.24-6.293,3.981-13.085,8.399-17.2
		c-1.577-0.11-1.223,1.71-2.8,1.6c-0.534-23.542-12.148-39.624-18.8-57.6c-6.746-18.233-14.229-36.113-14.8-61.2v-1.2
		c14.697,0.717,31.302,7.588,45.199,8.8c8.813,0.768,17.813-3.848,28-1.6c4.11,14.752,2.237,33.625,3.2,54
		C527.557,584.177,533.397,620.287,522.701,641.992z M594.301,651.592c-1.546,2.588-3.882,4.384-6.399,6
		c0.203-2.469,2.89-5.907,4-8.8C592.713,649.713,593.489,650.67,594.301,651.592z M585.501,658.392
		c-20.999-2.2-31.357-15.042-37.6-32c0.783-2.118,3.479-2.236,6-1.6c-1.041,2.825-2.068,5.665-2.801,8.8
		c1.955-2.845,2.975-6.626,4.4-10c5.08,13.04,17.515,26.553,36.8,20C590.585,649.075,587.797,653.487,585.501,658.392z
		 M607.901,602.792c-0.804,18.273-8.143,27.523-15.601,40c-4.97,0.113-11.224,2.718-16,1.2c-9.167-2.914-20.277-14.161-20-21.602
		c0.177-4.687,6.799-12.457,10-15.199v7.6c4.714-34.891-14.771-53.247-28.399-73.6c-7.118-10.629-12.446-20.577-13.601-37.2
		c2.224-0.101,4.343,1.624,6.4,0.4c1.398-0.867,1.562-2.971,1.6-5.2c4.4-0.632,8.148-3.26,13.2-2
		c5.905,8.761,8.365,20.968,18.8,25.2c-1.813-5.81-6.774-11.752-4-19.6c10.633,5.032,16.316-9.703,23.601-14.8
		c0.323,0.076,0.398,0.401,0.8,0.4C596.07,519.099,609.756,560.583,607.901,602.792z M547.101,497.992
		c4.027-0.025,8.814,2.65,12.801,4c-2.48,5.668-0.144,13.025,2,17.6C554.614,516.345,552.153,504.807,547.101,497.992z
		 M585.101,485.592c1.774,0.232-0.961,1.018-1.199,1.2c-5.297,4.027-10.261,12.35-16.801,16c-1.819-0.447-3.594-0.939-5.6-1.2
		c0.82-1.597,1.778-1.764,3.2-2c-2.221-2.846-4.998-5.136-7.601-7.6C565.831,489.255,576.055,488.013,585.101,485.592z
		 M562.701,499.592c-0.706,0.361-1.239,0.895-1.601,1.6c-4.988-2.611-13.201-1.999-15.6-7.2c3.768-0.366,6.783-1.484,10.4-2
		C557.601,495.092,560.797,496.695,562.701,499.592z M554.301,490.792c-3.248,0.618-6.165,1.568-9.6,2
		c-12.574-20.894-18.921-48.012-23.2-77.2C531.979,440.846,539.708,470.985,554.301,490.792z M559.901,405.592
		c-7.838,6.839-25.188,6.264-39.2,5.6c-0.133-3.067-0.873-5.527-0.8-8.8c11.498,5.216,27.681,1.065,37.199-2.8
		C558.672,400.954,558.249,404.311,559.901,405.592z M553.101,377.192c1.707,1.626,5.509,1.158,8.801,1.2
		c-0.226,4.176-2.471,6.33-2.801,10.4C556.057,385.97,553.937,382.223,553.101,377.192z M589.101,412.392
		c-8.195-7.67-23.016-12.184-29.6-22.8c0.505-3.228,2.001-5.466,2.8-8.4C568.617,394.209,578.756,403.403,589.101,412.392z
		 M563.501,376.792c-3.651,1.118-9.128,1.371-10.8-1.6c0.498-0.968,0.99-1.943,1.2-3.2c2.96,0.894,6.976,2.458,10.8,1.2
		C564.853,374.943,563.558,375.249,563.501,376.792z M565.501,372.392c-4.473,0.613-8.554,0.53-10.8-2
		c4.268-10.398,10.161-19.172,17.6-26.4c10.681,2.182,14.257-5.938,17.2-12.8c-4.367,0.7-5.509,4.624-9.6,5.6
		c4.563-6.404,7.179-16.179,7.199-26c0.019-8.056-1.981-15.97-1.199-23.6c1.067-10.426,9.571-24.939,15.6-30.8
		c1.864-1.813,4.938-3.634,8-4.4c1.737,4.396,1.381,10.886,3.2,15.2c-2.203,2.706-2.374,8.753-5.2,9.6
		c-3.299,9.161,0.393,20.557,0,30c-0.916,21.989-18.326,32.209-28.4,46C574.365,359.275,569.952,365.648,565.501,372.392z"/>
	<path d="M736.701,437.192c-2.521-3.161-2.511-5.845-4.8-8.8c-2.679-3.457-8.323-7.197-12.802-8c7.854,3.879,13.814,9.653,17.2,18
		c2.014,1.987,5.599,2.403,5.602,6.4c-7.271,0.771-9.922-4.508-13.602-8.8c-5.263-6.14-8.643-11.651-17.2-12.8
		c3.637,1.564,5.849,4.553,10.4,5.2c3.575,5.759,10.057,10.742,9.6,19.2c-4.366,0.927-4.558-3.782-6-6
		c-0.852-1.311-2.896-3.01-4.398-4.8c-4.529-5.398-7.754-7.69-16.4-8.8c-0.177-0.756,0.544-2.411-0.8-2
		c0.238,3.039-1.144,4.457-2,6.4c1.201,3.057,6.35,7.233,2.8,11.2c-2.202-2.321-4.516-4.53-6.491-7.078
		c0.313,0.75,0.582,1.525,0.809,2.315c0.913,0.694,1.805,1.452,2.482,2.363c0.838,1.123,1.45,4.471,2.802,4.4
		c1.355-0.071,2.4-4.338,2.398-5.2c-0.007-4.171-5.737-7.604-1.6-11.2c5.204,1.536,8.712,0.918,12,3.6
		c0.963,0.785,2.026,3.308,3.6,5.2c1.514,1.821,3.771,3.399,4.4,4.4c1.935,3.078,1.974,7.664,7.2,5.6
		c2.143-2.566-1.082-4.482-0.802-7.6c1.317,2.72,11.02,8.855,12,3.6C743.537,441.659,738.275,439.167,736.701,437.192z"/>
	<path d="M725.501,414.792c0.196-0.05,0.404-0.106,0.607-0.159c-0.311-0.087-0.618-0.186-0.938-0.312
		c-0.158-0.063-0.3-0.148-0.451-0.221c-0.435,0.2-0.85,0.421-1.219,0.692c-6.667-0.933-12.508-2.692-18.8-4
		c-28.934-18.268-49.735-44.665-80.4-61.2c13.632,9.201,27.367,18.918,40.4,30c6.478,5.508,12.045,11.561,18.398,16.8
		c6.472,5.334,13.677,9.796,20.802,14.4c7.987,5.162,21.099,2.697,28.8,8.4c4.655,3.447,6.32,7.92,8.8,13.6
		C741.014,423.537,733.814,417.552,725.501,414.792z"/>
	<path d="M610.701,130.792c-3.488,8.512-9.371,14.629-13.2,22.8c-1.649-0.232-2.292-3.103-2-4c-1.571-1.363-3.909-1.958-6-2.8
		c2.714-0.575,5.8,1.928,8,3.2c3.585-7.481,3.735-18.398,5.6-27.6c-3.705,7.206-8.708,11.211-16,15.2
		c-0.959,1.174-1.808,2.459-2.8,3.6c0.842-3.294,5.006-6.725,5.601-11.6c-2.56-0.02-2.51,2.549-3.601,4
		c-3.847,5.118-14.719,14.109-22,16.4c-1.184,0.373-2.669,0.435-4,0.4c11.542-4.059,19.534-11.666,26.4-20.4
		c-9.995,0.539-16.972,4.095-24,7.6c6.513-4.953,14.135-8.798,25.2-9.2c1.075-1.191,1.549-2.984,2.399-4.4
		c1.128,1.416-1.254,2.731-1.2,4.4c2.562-0.534,2.783-5.184,2.801-8.4c0.009-1.644-0.577-3.042-0.4-4.4
		c2.823,3.247,1.637,8.709,0.4,12.8c0.828,0.905,2.975,0.492,4,1.2c4.516-3.618,6.479-9.787,9.6-14.8
		c-3.47,8.902-1.41,24.034-6,32.8c5.032-4.035,7.885-13.715,11.2-20.8c0.278-2.012-0.679-2.788-0.4-4.8
		c4.761,9.696-0.247,22.654-2.399,31.6C608.038,146.794,611.358,139.717,610.701,130.792z M588.301,136.392
		c2.453-2.081,5.1-3.968,7.2-6.4c-1.403-0.197-2.604-0.596-4.4-0.4C590.983,132.414,587.922,134.405,588.301,136.392z"/>
	<path d="M538.301,135.592c2.729-3.672,3.24-9.56,6.8-12.4c-7.963,12.309-10.832,31.827-9.199,52.4
		c-1.362-1.442-1.044-8.02-1.601-11.6c-2.099-2.533-6.805-5.878-7.6-10.4c-1.19-6.77,2.942-17.188,8-18.4
		C536.348,134.878,536.754,135.806,538.301,135.592z M534.301,161.992c0-1.733,0-3.466,0-5.2c-4.345-1.04-3.117-15.991,2.8-14.8
		c-0.195-1.262,0.722-1.413,0.4-2.8c-1.796-0.196-2.997,0.203-4.4,0.4c-0.657,1.476-0.791,3.476-2.399,4
		c0.334-1.405,2.106-3.119,0-3.6c2.403-1.197,5.22-1.979,7.6-3.2C525.261,134.086,525.045,159.061,534.301,161.992z
		 M534.301,155.192c-0.222-4.758,2.266-8.932,2-12.4C532.334,143.984,531.036,152.583,534.301,155.192z"/>
	<path d="M652.301,162.392c0-0.267,0-0.533,0-0.8c1.19,5.343,7.141,5.927,7.602,12c5.051-16.214-3.179-32.027-7.2-44.4
		c3.51,4.757,5.105,11.426,6.8,18c1.613-3.32,2.132-7.735,2.8-12c1.094,4.707-1.944,9.188-2,14.4c-0.049,4.734,1.866,10.188,2,15.2
		c0.144,5.326-0.438,10.007-2.8,14.4c0.151-2.301-1.115-5.524-1.6-8.4c-2.083-1.651-3.846-3.623-4.802-6.4
		c-3.06,10.008-5.346,26.473,0.802,34.8c-6.495-5.312-6-26.199-1.2-35.2c0.293-0.55-0.518-0.762-0.4-1.2
		C652.301,162.659,652.301,162.525,652.301,162.392z"/>
	<path d="M622.301,137.192c2.867,10.333,9.543,16.856,16,23.6C633.238,155.848,622.619,149.546,622.301,137.192z"/>
	<path d="M589.101,150.392c5.845,3.762,1.412,14.211-1.6,17.6c2.022,0.422,2.288-0.912,4-0.8c-3.802,3.648-14.859,3.017-18-0.8
		c0.831,0.769,2.736,0.464,3.6,1.2c-2.062-2.71-6.707-12.934-2-17.6c-0.92-0.894-3.042,0.405-4,0.8c0.641,2.464-0.688,3.609,0,6.4
		c-1.191-1.208-0.419-4.381-2.8-4.4c5.432-8.727,23.921-5.964,27.601,2.4C593.815,153.411,591.89,151.469,589.101,150.392z
		 M582.701,159.992c0.979-1.235-0.44,1.149,0.399,0.8c0.118-0.355,1.082-1.751,1.2-0.8c-0.707,1.004-0.775,2.204-0.399,2.8
		c0.395-1.072,0.564-2.369,1.199-3.2C583.925,159.202,582.042,159.1,582.701,159.992z M576.301,162.392
		c1.019-0.049,1.552-0.582,1.601-1.6c-0.77-1.15-3.177-0.965-3.601,0.4c1.537,6.492,12.468,9.631,15.2,2
		c-2.215,0.215-3.462-0.538-4.8-1.2c-0.974,0.841,0.354,1.778-0.4,2.4C580.557,166.929,578.65,162.416,576.301,162.392z
		 M581.101,163.592c-0.731-0.995-2.753-0.381-1.199-2.4c-1.129-0.062-1.002,1.131-1.601,1.6
		C579.166,162.892,580.789,164.261,581.101,163.592z M584.701,161.192c1.427,1.554,5.868,2.644,6-0.8
		C589.283,158.118,585.698,159.597,584.701,161.192z"/>
	<path d="M619.101,176.792c0.521-2.664,0.437-8.718,2-11.6c-0.403-1.126-1.698,0.11-2.399,0c6.786-8.713,23.001,4.076,13.2,10.4
		c2.082-1.369,2.716-5.956,0.8-8c-0.382,2.127-0.569,6.096-2.4,8.8c-1.563,2.31-6.96,4.032-4,4.8c-4.328,0.991-7.9-2.23-8.399-6.4
		C618.691,175.068,618.967,175.859,619.101,176.792z M620.301,173.192c1.146,0.079,2.184,0.05,2-1.2c-0.464-0.335-1.071-0.527-2-0.4
		C620.301,172.125,620.301,172.658,620.301,173.192z M620.701,173.592c-0.273,2.061,1.028,3.353-0.4,4.4
		c1.894,0.107,2.252,1.748,3.601,2.4c1.26-0.873,2.52-1.747,3.6-2.8c-1.161,0.067-1.922-2.309-2.8-1.2
		c0.614,0.096,0.059,0.659-0.4,0.8c-1.741,0.257-3.446-1.597-2.399-2.8c-0.352,0.824,1.037,1.796,1.199,0.8
		c-1.379-1.797,2.287-1.966,2.801-3.2c-0.934,0.598-1.724-0.135-2,0.4C624.763,173.151,622.213,173.881,620.701,173.592z
		 M625.901,174.392c-0.045,1.512,0.782,2.151,2,2.4c0.005-0.795,1.091-0.509,0.8-1.6
		C628.356,174.287,626.619,173.722,625.901,174.392z"/>
	<path d="M642.301,179.192c2.677,5.591,4.726,11.809,8.8,16c-3.996-1.604-7.041-7.625-8-13.6c0.33,16.729-5.374,27.426-14,35.2
		C636.399,208.998,643.115,195.109,642.301,179.192z"/>
	<path d="M628.301,201.992c-4.878,4.504-8.596,10.386-9.2,20.8c-1.617,27.903,9.689,48.079,22,60.8
		c-7.583-3.218-14.783-10.282-18.398-18.8c4.207,12.933,9.407,25.137,19.2,33.6c7.292,6.302,16.77,10.125,22.398,18
		c-3.258-2.076-6.317-4.348-10.398-5.6c3.321,6.405,11.732,8.425,16.398,14.4c4.223,5.405,6.848,12.772,10.8,18.8
		c4.04,6.16,8.514,11.392,12.802,16.8c-4.69-4.261-9.172-9.806-13.2-16c-4.406-6.775-7.446-16.555-12.8-21.2
		c-6.112-5.303-12.726-8.066-17.602-14.4c-0.666-0.534-2.545,0.146-2.398-1.2c6.495,0.305,9.554,4.046,14,6.4
		c-6.523-6.671-14.978-10.459-22-16.4c-11.205-9.477-15.295-26.053-20.8-41.2c5.002,9.264,9.666,18.867,18.399,24.4
		c-9.895-12.123-20.229-31.341-19.2-54C618.808,216.037,620.348,206.567,628.301,201.992z"/>
	<path d="M671.501,357.192c1.534-2.2,1.085-6.382,2.8-8.4c10.792,2.008,14.901,10.699,22.8,15.6
		c-8.263-3.876-13.009-13.384-22.398-14.8c-0.38,2.095-2.858,6.244-3.2,8.8c-0.361,2.704,1.974,7.055-0.4,8.8
		c1.146-19.682-8.86-31.669-17.198-43.2C661.633,331.594,668.633,343.393,671.501,357.192z"/>
	<path d="M604.701,239.592c0.138-1.138,0.898-3.735,1.2-4.8c-0.229,0.812,0.739-3.883,0.399-0.4
		C606.206,235.368,605.755,237.679,604.701,239.592z"/>
	<path d="M604.301,240.392c0.118-0.833,1.083,0.594,1.2-0.8c-0.049,1.559-1.767,4.895-3.6,6
		C600.321,243.221,605.252,242.105,604.301,240.392z"/>
	<path d="M544.701,285.192c-0.093-7.008,0.632-2.55,0.399,1.2c-1.238,20.005-13.539,38.404-22.399,52
		c-0.832,0.448-0.849,0.432-0.4-0.4C531.808,322.432,541.68,307.237,544.701,285.192z"/>
	<path d="M519.101,345.192c4.227-4.974,7.42-10.98,16.4-11.2c1.626-0.159,1.231,1.703,2.4,2c0.883-5.65,2.646-10.42,6-13.6
		c-0.021-2.652-2.211-5.246-1.601-7.2c1.952,0.837,3.349,9.928,2,14c0.641-1.933-0.822-0.662-0.399-4
		c-3.156,2.046-6.178,7.688-5.601,14.8c-1.357-1.308-1.51-3.823-2.8-5.2c-9.283-0.689-13.051,9.565-18.4,12.8
		c1.006-1.528,1.704-3.363,2.801-4.8C520.794,341.971,519.028,344.285,519.101,345.192z"/>
	<path d="M517.901,149.192c-0.373,1.774-3.084,3.344-3.601,5.6c-0.976,4.267-0.009,10.003,0.4,14
		c0.93,9.084,6.542,14.702,6.399,24.8c-2.183-11.551-7.729-19.737-8-33.2c-1.113,2.887-1.364,6.635-1.6,10.4
		c-0.767,1.03-0.365-2.024-0.4-4C510.958,158.813,512.125,151.227,517.901,149.192z"/>
</g>
</svg>
