<?xml version="1.0" encoding="utf-8"?>
<!-- Generator: Adobe Illustrator 14.0.0, SVG Export Plug-In . SVG Version: 6.00 Build 43363)  -->
<!DOCTYPE svg PUBLIC "-//W3C//DTD SVG 1.1//EN" "http://www.w3.org/Graphics/SVG/1.1/DTD/svg11.dtd">
<svg version="1.1" id="图层_1" xmlns="http://www.w3.org/2000/svg" xmlns:xlink="http://www.w3.org/1999/xlink" x="0px" y="0px"
	 width="1280px" height="1120px" viewBox="0 -250 1280 1100" enable-background="new 0 -250 1280 1100" xml:space="preserve">
<g>
	<path fill-rule="evenodd" clip-rule="evenodd" d="M514.701-148.008c7.779-3.821,14.672-8.527,21.2-13.6
		c-4.834,8.499-16.647,10.02-23.6,16.4c0.738-3.407,3.468-6.093,5.2-9.6c2.109-4.272,4.091-8.579,4.8-14.8
		c4.407-3.993,9.348-7.452,16.4-8.8c-1.373-1.027-4.96,0.16-6.4-0.8c-0.8,0-1.6,0-2.4,0c5.454-0.366,14.194-1.838,20-2
		c-9.504,3.163-19.55,5.783-26.4,11.6C521.261-161.715,518.556-154.286,514.701-148.008z"/>
	<path fill-rule="evenodd" clip-rule="evenodd" d="M635.901-165.608c15.772,7.429,10.018,36.382,15.2,54.4
		c-5.49-12.896-1.441-34.334-9.6-47.2C639.688-161.268,637.273-162.244,635.901-165.608z"/>
	<path fill-rule="evenodd" clip-rule="evenodd" d="M621.101-163.608c6.715,10.612,1.043,28.835,3.6,40.8
		c1.214-6.519-0.21-15.676,6.8-16.4c-5.259,2.741-5.349,10.65-6.4,17.6c-1.778-1.289-1.693-4.44-2-7.2
		c-3.138,13.663-9.19,24.41-20,30.4C619.988-108.215,628.726-137.295,621.101-163.608z"/>
	<path fill-rule="evenodd" clip-rule="evenodd" d="M543.501-102.808c1.023-0.018,0.488,0.297,0.4,0.8
		c-4.919,4.014-4.833,13.034-6.4,20.4c-1.284,0.351-0.829-1.037-1.6-1.2c-0.292-1.752,0.795,0.322,0.8-0.8
		C536.894-92.083,539.676-97.966,543.501-102.808z"/>
	<path fill-rule="evenodd" clip-rule="evenodd" d="M651.101-102.808c1.957-0.223,0.956,2.511,1.2,4
		c-0.867,0.067-0.181-1.419-0.399-2c-3.464,4.27-4.391,11.076-5.2,18C645.857-90.186,649.06-96.982,651.101-102.808z"/>
	<path fill-rule="evenodd" clip-rule="evenodd" d="M625.901-99.208c-2.828-0.294-4.728,0.338-6.8,0.8
		C620.05-99.553,624.659-100.99,625.901-99.208z"/>
	<path fill-rule="evenodd" clip-rule="evenodd" d="M605.901-76.008c0.356,0.177,0.715,0.352,0.8,0.8
		c-0.042,1.692-1.077,2.39-2.4,2.8C604.896-73.546,605.029-75.146,605.901-76.008z"/>
	<path fill-rule="evenodd" clip-rule="evenodd" d="M630.701-68.408c2.455,7.262,0.174,15.984-0.8,23.2
		C629.789-51.762,631.729-60.81,630.701-68.408z"/>
	<path fill-rule="evenodd" clip-rule="evenodd" d="M586.701-65.608c2.611,1.522,4.615,3.652,8.4,4
		C592.757-60.343,587.861-63.063,586.701-65.608z"/>
	<path fill-rule="evenodd" clip-rule="evenodd" d="M520.701-64.408c0.618-1.223,0.352,1.735,0.4,2.4
		c0.801-0.532,0.891-1.775,1.2-2.8c0.611,1.029-0.244,4.009-1.6,4.4C520.701-61.742,520.701-63.075,520.701-64.408z"/>
	<path fill-rule="evenodd" clip-rule="evenodd" d="M605.501-60.808c-0.49,1.51-2.817,1.183-4.8,1.2
		C601.673-60.636,603.642-60.667,605.501-60.808z"/>
	<path fill-rule="evenodd" clip-rule="evenodd" d="M578.701-27.608c1.375,0.492,0.584,3.149,1.2,4.4c0.442,0.8,2.148-0.487,3.6,0
		c1.997,9.336,1.747,20.919,2.8,31.2c-4.149,1.451-8.019,3.181-12.4,4.4c2.367-11.766,5.832-22.435,8.4-34
		c-2.778-0.159-4.742,2.341-7.6,0.8c0.515-1.085,1.988-1.212,3.6-1.2C578.475-23.834,577.896-26.413,578.701-27.608z
		 M575.101,11.592c3.236-1.563,6.682-2.918,10.4-4c-1.079-8.654-1.133-18.333-2.4-26.8C580.773-8.869,576.553,1.709,575.101,11.592z
		"/>
	<path fill-rule="evenodd" clip-rule="evenodd" d="M581.501-9.608c2.571,2.896,1.33,9.604,2,14.4c-2.305,0.44-4.503,2.856-6.4,2.4
		C578.731,1.755,579.65-4.393,581.501-9.608z M578.701,6.392c1.195-0.938,2.682-1.584,4-2.4c-1.098-2.769,0.324-8.058-0.8-10.8
		C581.15-2.356,578.423,2.244,578.701,6.392z"/>
	<path fill-rule="evenodd" clip-rule="evenodd" d="M465.501,161.992c-0.065-0.465,0.088-0.712,0.4-0.8
		c17.042,1.976,24.707-5.427,31.2-14C492.7,157.995,480.886,163.505,465.501,161.992z"/>
	<path fill-rule="evenodd" clip-rule="evenodd" d="M745.901,179.992c-1.017,1.299-4.914,1.015-6,0c0.464-1.782,3.283,1.203,4.8-0.4
		c0.279-3.091-2.733-4.206-4.4-6c-4.855-5.226-6.365-12.978-15.6-14c8.247-1.069,11.212,7.535,16,12.8
		C742.823,174.726,745.867,176.848,745.901,179.992z"/>
	<path fill-rule="evenodd" clip-rule="evenodd" d="M504.301,173.192c7.31,2.441,6.712,10.11,7.6,19.6
		c1.079,11.532,5.349,22.601,9.2,30.4c-1.898-1.185-2.96-3.92-4-6.4c-2.956-7.049-6.28-17.186-6.8-26.4
		C509.841,182.247,509.073,177.046,504.301,173.192z"/>
	<path fill-rule="evenodd" clip-rule="evenodd" d="M443.501,173.992c0.4,0,0.8,0,1.2,0c-2.075,10.325-3.668,21.132-10.8,26.4
		C438.612,193.103,441.681,184.172,443.501,173.992z"/>
	<path fill-rule="evenodd" clip-rule="evenodd" d="M589.901-197.208c-0.177,0.356-0.351,0.715-0.8,0.8
		c-13.237-4.553-31.433-0.861-40.4,6c-4.839,3.703-8.673,8.698-15.2,9.6c12.473-7.096,24.667-19.579,43.2-19.6
		c4.293-0.005,7.813,1.552,12,2.4C589.226-197.867,589.33-197.304,589.901-197.208z"/>
	<path fill-rule="evenodd" clip-rule="evenodd" d="M592.701-196.408c-3.249,0.003-4.495-3.998-5.6-6.4c-1.201-2.609-2.871-6-3.2-8.4
		c-1.91-13.92,16.337-18.373,28.4-13.2c3.594,1.542,5.478,4.76,8.8,6c-8.917,1.274-18.619-0.913-24.8,4
		C591.483-210.579,591.998-203.208,592.701-196.408z M618.301-219.608c-8.711-7.227-32.565-9.722-33.6,4.4
		c-0.483,6.591,4.078,10.074,6,15.2C587.821-217.047,603.772-218.651,618.301-219.608z"/>
	<path fill-rule="evenodd" clip-rule="evenodd" d="M595.501-195.208c11.164-5.186,29.642-4.944,40.4,0.4
		c2.154,8.646,7.653,13.947,16,16.4c-4.535,2.125-10.762-0.24-14.4-1.6c12.88,11.121,24.292,27.175,25.6,51.2
		c-3.855-20.925-10.592-39.123-25.2-50c-1.803-1.343-4.526-2.06-6-4.4c6.075,0.343,10.079,6.175,18.8,5.2
		c-8.32-2.613-12.948-8.918-16.4-16.4c-6.198-1.812-13.336-4.12-20.8-4C606.492-198.295,600.918-194.018,595.501-195.208z"/>
	<path fill-rule="evenodd" clip-rule="evenodd" d="M525.901-152.808c0.469,0.064,0.337,0.729,0.4,1.2
		c-10.4,16.074-20.535,39.791-15.6,66C503.799-110.365,514.859-138.222,525.901-152.808z"/>
	<path fill-rule="evenodd" clip-rule="evenodd" d="M580.701-172.008c-3.42,11.384-15.078,18.784-24.4,21.6
		C566.607-155.436,575.774-161.602,580.701-172.008z"/>
	<path fill-rule="evenodd" clip-rule="evenodd" d="M567.501-151.608c0.172,0.628,1.258,0.342,0.8,1.6
		c-3.405,6.995-6.016,14.784-12.8,18.4c12.44-3.826,16.547-15.986,24.4-24.4c-6.663,9.738-11.667,21.132-24.4,24.8
		c0.116-2.309,2.882-2.745,4.4-4.4c3.611-3.938,5.121-10.064,7.2-15.6c-5.007-0.034-8.44,4.663-13.6,2.8
		c-0.983-0.355,1.556-0.275,2-0.4c12.39-3.481,31.036-10.3,38-20.8C590.384-159.658,578.014-155.495,567.501-151.608z"/>
	<path d="M642.301-91.208c0.903,2.302,2.117,6.41,3.601,6.8c-3.398-5.002-4.256-12.544-5.2-20c1.447,1.045,2.999,3.807,4.8,3.2
		c-3.685-4.716-4.547-12.253-5.2-20c2.146,2.425,4.224,5.412,6.4,8.4c2.003,2.75,3.628,7.068,7.2,7.2
		c-4.183-3.245-6.905-7.996-10-12.4c-2.912-4.143-6.241-9.096-7.601-14.8c-1.264-5.302-0.438-10.136-3.2-13.6
		c1.507,4.07,1.483,8.368,2.4,12.8c0.833,4.023,3.216,7.565,4,11.2c1.442,6.686,0.119,13.158,3.6,18.8
		c-8.73-6.203-12.144-17.722-15.6-29.2c1.235,6.898,2.954,13.313,6,18.4c-2.153-2.516-5.51-5.953-9.2-5.6
		c7.096,3.438,10.583,10.484,14,17.6c-0.821-3.179-2.156-5.844-3.2-8.8c5.68,3.56,3.29,11.493,6.4,18.4
		c-5.1,3.514-7.478,9.241-9.635,15.319C634.198-83.048,638.056-88.135,642.301-91.208z"/>
	<path d="M630.562-73.771c0.439-1.244,0.868-2.488,1.305-3.718C631.353-76.267,630.914-75.023,630.562-73.771z"/>
	<path d="M597.901,73.592c2.5,10.706,0.31,23.114,4.8,30c3.932,6.029,11.241,11.635,17.6,16.8
		c15.998,12.994,36.453,21.465,55.601,30.4c9.421,4.396,18.63,8.197,18.8,20.4c-0.19-0.028-0.378-0.059-0.567-0.088
		c0.811,0.746,1.522,1.595,2.14,2.524c-0.138-4.265-1.761-7.044-1.973-11.236c-4.128-7.766-12.43-9.192-20.399-13.2
		c-3.787-1.904-7.418-4.169-11.2-6c-15.298-7.406-31.585-13.416-43.6-24.4c-5.812-5.313-13.074-11.598-16.4-18
		c-4.108-7.907-1.328-19.34-4-29.6c10.567-10.584,10.012-29.789,9.2-49.2c2.273-3.593,3.148-8.585,5.2-12.4
		c2.931,8.802,7.103,16.364,11.6,23.6c0.866,20.067-3.631,51.097,8,60.4c-9.884-12.117-6.439-37.561-7.2-58.8
		c7.366,10.9,18.694,19.972,28,27.6c-21.079-18.87-41.219-37.269-43.2-74c-0.466-8.636,0.089-16.587-0.8-23.2
		c0.855,5.924-2.696,9.567-2.8,13.2c1.126-0.884,1.673-4.445,2.8-4c0.195,5.271-0.435,11.368,0.4,16
		c-10.108,2.825-13.701,14.298-20,19.6c4.29-10.551,7.899-30.639,0-40c9.601,16.134-0.739,33.481-4,49.2
		c-3.925,18.924,5.766,44.603-7.6,56.8c-2.061-0.739-4.789-0.811-6.8-1.6c-0.804-1.195-0.226-3.773-0.4-5.6
		c4.074-4.467,8.01-9.486,7.6-17.2c-0.276-5.193-0.798-8.215,3.2-10c-2.354-0.21-3.268,3.119-4.4,2.8
		c-1.374-1.686,0.689-5.041-0.4-6.4c-2.175,5.23,0.407,10.321,0.4,15.2c-0.016,10.434-7.583,16.488-15.2,20.4
		c-1.021-1.112-1.87-2.396-2.8-3.6c3.772-6.492,8.342-12.512,9.2-21.2c0.922-9.336-1.656-19.193-2.4-28.8
		c-0.597-7.708,2.723-12.112,3.2-18.4c1.217-16.037-5.02-26.66-8.8-37.2c5.777,4.018,13.07,9.67,23.2,6.8
		c5.421,2.979,7.067,9.733,9.6,15.6c1.363-8.84-7.75-12.726-8.8-17.6c-1.012-4.692,2.01-8.658,2.8-13.6
		c-3.391,2.742-3.805,8.461-3.6,14.8c-10.238,2.845-25.744-5.174-25.6-11.2c0.047-1.98,2.387-3.477,2.8-5.6
		c6.583,3.816,13.45,7.35,22.8,8.4c-8.073-2.861-17.665-4.202-22.4-10.4c1.354-1.712,1.128-5.005,2.4-6.8
		c1.21,3.056,1.86,6.673,3.6,9.2c0.213-5.68-0.609-10.324-2.4-14c6.171,7.902,15.597,16.57,28.4,15.2c0.271,1.863,2.624,1.642,4,2.4
		c1.026,1.49,2.971,3.019,4.4,4.8c1.243,1.549,2.215,4.95,4,3.6c-3.605-3.861-6.867-8.067-11.2-11.2c4.785-0.948,8.702-2.764,13.2-4
		c-3.05,3.386-1.863,11.162-1.6,16.8c0.884-0.05,0.17-1.697,0.4-2.4c-0.36-6.226,0.91-10.823,2.4-15.2
		c6.932-2.693,12.418-5.466,16.4-10c3.148-3.584,3.515-7.555,4.8-12.8c0.079-0.322,0.17-0.643,0.261-0.963
		c-1.74,4.924-3.663,9.832-7.061,13.763c-3.876,4.486-9.136,7.13-15.2,9.6c-5.19,2.114-13.09,6.128-19.2,5.6
		c-4.831-0.417-10.249-3.984-14.4-7.2c-7.326-5.675-12.241-11.543-14.4-21.2c2.62,1.916,4.709,6.487,7.2,7.2
		c-3.806-4.054-7.766-9.06-10.4-14.8c-2.54-5.535-6.258-11.992-4.8-18.8c4.357,10.047,11.265,19.664,22,22
		c-8.868-6.929-15.816-19.359-14.4-35.6c0.938-10.763,5.312-20.744,10.4-26.4c-6.562,5.085-10.433,17.298-11.2,28
		c-1.035,14.442,5.658,26.643,12.8,32.8c-8.597-3.477-16.009-13.475-19.6-21.6c-1.078-2.439-0.893-5.403-3.2-6.8
		c2.287,3,1.351,6.197,1.6,10c0.584,8.909,5.426,16.462,8.8,22.8c0.763,9.505,6.666,16,6.8,24.8c-1.583-9.483-7.894-14.24-15.2-18
		c2.949,1.789,1.274,10.438,1.6,14.4c-3.203-5.772-2.16-11.472-4-17.6c-1.16-3.862-5.257-7.585-6.4-12.4
		c-0.871-3.669,0.601-6.453-1.2-10.4c-0.624,28.224,3.956,51.245,14.4,68.4c-4.026-10.507-8.85-20.217-10.8-32.8
		c1.527,1.117,3.92,0.753,6,0.4c0.84,2.493,1.148,5.519,3.2,6.8c-0.01-2.523,0.158-5.225-0.4-7.2c4.096,0.315,10.444-2.62,8.8,2.8
		c-2.219-1.137-5.289,0.488-6.8-0.8c-2.939,7.637,0.225,13.082,2.8,18.8c5.407,12.007,12.966,26.867,8.8,43.6
		c-1.858-10.542-8.848-15.953-16-21.2c-1.777-8.49-5.561-17.105-6.4-25.2c2.693,7.041,7.139,14.46,12.8,17.2
		c-7.661-5.731-13.202-18.726-16.4-29.6c-0.916-3.114-0.617-6.662-2.8-9.2c-0.25,6.006,3.304,11.959,4.8,18.4
		c3.315,14.273,6.168,27.674,10.8,39.6c2.387,6.146,6.521,11.463,6.8,17.6c-2.425-4.642-3.719-10.415-8-13.2
		c1.221,10.667,4.89,19.795,4,30.8c-1.297,16.023-9.605,30.844-13.2,42.8c8.49-17.91,19.234-44.668,10.8-69.6
		c2.828,2.905,4.422,7.045,6.8,10.4c1.494-5.642-2.611-9.429-4.4-13.6c-1.886-4.396-3.407-8.881-4.8-14
		c8.262,4.539,14.527,11.073,14.8,23.6c-1.216,2.48-1.496,6.096-1.2,9.6c0.569,6.752,1.705,13.491,2,20
		c0.545,12.003-2.813,20.58-9.2,28.4c-2.17-1.563-3.916-3.55-6-5.2c-0.033,3.944-4.269,4.759-4,9.2
		c0.067,1.108,0.95,1.99,1.708,2.81c-2.03-3.161,1.376-7.374,2.692-10.41c1.767,1.433,3.367,3.033,4.8,4.8
		c-1.418,2.982-3.708,5.092-6.4,6.8c-0.157-0.125-0.28-0.256-0.414-0.385c0.28,0.391,0.457,0.779,0.414,1.185
		c-0.052,0.488-3.56,3.019-4.8,4.4c-9.631,10.72-16.555,21.867-22.4,35.2c-10.036,1.511-17.622-2.193-24-5.6
		c0.051-3.149,0.618-5.782,0.8-8.8c6.782,3.557,17.317,11.024,26.8,5.6c-11.214,3.407-20.042-2.902-26.8-7.6
		c-0.142-17.058-5.889-28.512-16.8-34.8c1.439-13.761,3.993-26.407,6.8-38.8c6.071-7.992,14.456-14.263,21.2-21.6
		c1.958-2.13,4.495-4.184,5.6-6c6.355-10.443,9.309-39.644-10.8-36.8c3.488-5.49,9.78-1.003,14.8-1.2
		c4.485-0.175,7.844-2.848,12-1.6c1.343,3.857,1.856,8.543,3.2,12.4c-2.619,2.557-3.176,7.419-4.8,11.2
		c-1.3,3.028-2.767,5.138-4,7.2c4.519-1.481,8.01-3.99,11.2-6.8c-3.515,0.489-6.137,3.992-8.8,4c2.922-4.145,4.368-9.765,6.8-14.4
		c1.659,7.964,2.743,13.104,4,18.8c1.714,7.766,2.012,9.013,3.6,19.6c0.862,5.746,0.531,0.923,0.4-1.6
		c-0.578-11.123-2.641-22.199-6-34.4c-2.899-10.529-6.884-21.669-7.6-33.2c-0.723-11.638,1.211-22.286,0.4-32
		c-0.841-0.292-0.2,4.321-0.4,6c-1.708,3.359-1.875,8.258-3.2,12c-1.169-6.431-1.556-13.644-6-16.8
		c2.598,3.507,1.301,15.491,1.2,20.8c0.912-4.493,2.458-9.79,2-14.4c1.171,3.969,2.195,9.972,2.8,13.2
		c1.108-3.025,1.464-6.803,2.8-9.6c-0.215,13.133-1.054,25.887,2,36.4c-1.478,2.143-3.274,0.267-5.6,0.4
		c-2.475,0.142-5.065,2.081-7.6,2c-3.318-0.106-5.935-2.722-9.6-2c-2.623,0.517-3.351,2.465-6,4c-6.463,0.083-9.76,4.97-14.4,5.6
		c-28.65,29.307-49.209,65.289-70.8,102c-3.168,5.387-6.5,11.993-6.8,18c-0.455,9.095,2.666,17.6,5.6,25.6
		c7.333,19.988,16.901,34.56,25.6,53.2c1.715,3.675,4.667,7.755,5.2,10.8c1.188,6.792-1.829,13.002-1.2,18.8
		c0.952,8.776,8.975,12.536,16,16.8c5.497-3.703,12.734-5.666,18-9.6c0.5,1.125,1.64,1.323,2.8,0.8c0.532-3.239,2.692-6.515,2.4-9.2
		c-0.153-1.401-1.581-2.121-2.4-4c-0.736-1.688-0.752-4.066-1.6-5.2c-2.976-3.98-9.167-5.708-12-9.2c0.054-9.977-5.656-14.68-8.8-22
		c-2.784-6.481-4.594-12.274-6.4-19.6c1.532-2.34,5.305-7.229,6.8-4c1.083,2.337-4.688,3.377-4.8,6.8
		c7.452-4.421,13.962-13.233,19.2-21.2c9.366,11.033,21.986,18.813,37.6,23.6c1.095,3.441,4.021,7.175,4.4,10
		c-19.3-4.167-35.888-11.046-48.8-21.6c12.084,11.916,29.958,18.042,49.6,22.4c4.928,29.739,11.522,59.945,23.6,81.2
		c-6.698,1.036-12.716,2.75-13.2,10c-15.224-2.971-36.36,4.452-50.4-3.2c7.935-1.051,15.18-7.186,14.8-14
		c-2.143,9.712-11.534,13.904-21.6,13.6c-4.118-0.125-9.337-1.929-14.4-2.8c-4.949-0.851-10.694-1.271-14.4-2.8
		c-1.778-0.734-3.055-2.525-4.8-3.2c-5.711-2.208-12.354-1.067-18.8-2c-3.208,3.325-4.656,8.411-6.8,12.8
		c-3.572-19.671,6.296-31.858,12.4-44c2.741-5.452,4.633-11.193,7.2-16.4c2.708-5.493,6.088-10.005,8.8-15.2
		c-2.83,1.421-4.407,4.922-6,7.6c-5.367,9.021-8.01,19.293-13.6,28.4c-5.074,8.267-8.978,18.674-10.4,31.2
		c-0.369,3.253-1.99,8.658,2.4,10c0.935-5.466,3.238-9.562,6.4-12.8c11.183-2.31,19.189,3.49,28,6
		c0.082,24.959,7.439,44.301,15.6,64.4c4.847,11.937,12.602,24.936,15.6,39.6c1.054,5.154,2.926,11.875,2.4,16.4
		c-0.394,3.389-3.059,7.107-4.4,10.8c-1.385,3.814-2.603,7.679-4.4,11.2c-20.15-7.122-14.012,21.937-12,35.6
		c2.578,17.508,5.224,33.611,9.2,49.2c1.998,7.836,4.815,15.596,6,23.2c1.069,6.865-0.618,14.25-1.6,20.8
		c-0.778,5.188-2.896,10.618-3.2,15.2c-0.472,7.104,2.918,15.99,6.8,19.2c4.002,3.308,8.783,2.575,16,4
		c9.432,1.86,19.214,8.135,26,14c3.06,2.645,4.713,6.553,7.2,8.399c4.308,3.199,9.006,2.108,17.2,2.8
		c2.844,0.24,5.269,1.075,6.8,0.801c4.023-0.721,10.16-6.025,10.4-10.4c0.127-2.309-2.176-6.841-4.4-9.2
		c-8.927-9.469-26.279-15.069-33.6-25.6c-2.381-3.425-3.712-7.846-5.6-11.601c-1.927-3.833-4.925-7.813-6-11.6
		c-0.736-2.589-0.736-5.896-1.2-8.8c-0.453-2.837-1.751-5.885-2-8.4c-0.69-6.967,0.992-15.151,2-22
		c1.035-7.026,2.336-14.189,3.6-20.399c3.441-16.906,9.788-31.23,9.2-51.601c-0.486-1.646-2.891-1.375-3.2-3.2
		c17.484-30.197,4.273-81.903,6.8-122.8c12.053,26.88,36.749,41.118,38,78.8c-5.642,4.357-8.515,11.485-11.6,18.4
		c-1.079-0.787-3.495-0.238-5.2-0.4c-16.652,10.651-10.396,50.411-16.4,72c-0.921,3.313-2.884,6.133-3.2,9.2
		c-0.383,3.716,0.973,7.022-0.4,10c-2.121,4.601-9.209,6.792-12.4,10.8c-5.504,6.916-0.559,15.47,2,23.2
		c1.849,5.587,3.317,12.12,6,15.2c2.734,3.139,11.011,6.875,16.8,10c5.6,3.023,12.822,5.852,18,9.2
		c1.962,1.269,3.35,3.644,5.2,4.399c13.769,5.628,28.827-7.025,20.8-18.8c4.208,10.986-3.573,18.224-13.6,18.4
		c-6.003,0.105-7.97-2.606-11.2-4.8c-4.791-3.254-10.144-5.234-15.2-8c-6.758-3.697-16.71-8.069-19.6-11.2
		c-2.763-2.994-4.617-9.691-6.4-14.8c-1.851-5.304-5.396-12.034-4.4-17.2c1.45-7.526,13.868-10.263,15.6-18.4
		c0.4-1.881-0.309-4.757,0-7.2c0.425-3.362,2.657-6.35,3.6-10c1.345-5.208,1.41-11.739,2-18c1.716-18.186,1.335-38.619,10.8-50
		c6.328,17.272,17.617,29.583,38.4,32.4c3.928-1.299,7.604-4.894,10-6.4c2.408,4.056-1.306,7.346-3.2,10
		c-14.851,20.812-30.666,40.196-40.4,65.601c-0.054-1.279,0.395-3.062-1.2-2.8c-3.066,24.343,11.406,34.428,26.4,42
		c2.456,1.24,6.174,4.109,8,0.399c-2.313,1.011-4.842,0.472-7.2-0.399c-6.529-2.412-14.902-8.629-19.2-13.2
		c-4.396-4.675-7.615-14.3-6.8-21.601c0.729-6.532,6.034-14.564,9.6-21.199c4.022-7.484,7.132-14.368,10.8-20
		c5.917-9.087,13.583-16.77,20-26c2.214-3.185,5.657-7.414,5.6-10c-0.085-3.896-4.191-6.652-5.6-8.801
		c7.532-16.249,19.196-28.492,17.2-52c-0.079-0.927-0.359-1.879-0.4-2.8c-1.788-40.658-11.322-75.758-23.6-105.6
		c3.324-1.343,6.932-2.402,10-4c-6.59-5.011-7.802-15.398-13.6-21.2c3.631,5.59,5.959,13.543,9.6,18.8
		c0.638,0.922,2.327,1.754,2.4,2.8c-13.751,1.182-24.913,4.954-37.6,7.2c-17.311-20.155-24.496-52.571-34.8-78.4
		c9.987,0.012,37.778,1.547,39.2-6.4c0.751-4.2-4.306-8.449-1.6-14.4c3.658,4.059,9.009,8.918,15.6,12.8
		c5.662,3.334,14.342,8.065,16,12.8c1.86,5.313-0.624,20.576-2.8,23.6c-4.41,6.129-12.56-1.455-16-4.4
		c-2.356-3.175-3.082-9.896-6-11.2c-2.24-5.493-2.996-12.471-6.4-16.8c4.23,14.97,10.077,31.79,14.4,48
		c-1.639-10.628-5.355-21.311-7.2-30.4c4.566,12.229,12.607,26.146,21.6,36.4c1.46,1.665,9.113,9.952,10,7.2
		c0.597-1.852-1.826-1.456-1.2-1.2c-2.661-1.084-7.516-6.816-10-10.4c5.504,5.429,14.484,7.382,21.2,11.6
		c-6.022,2.245-13.247,3.286-16.4,8.4c4.536-2.812,12.527-5.596,18.8-8c-2.392-4.454-8.368-4.392-12.8-6.4
		c-5.643-2.557-10.205-7.309-14-10c23.931,2.134,11.364-34.292,4.8-42.8c-3.311-4.291-8.922-7.307-12.8-11.6
		c-5.257-5.82-11.043-11.042-12.4-19.6C571.752,101.042,584.915,85.672,597.901,73.592z M544.701-58.808
		c-0.846-7.154-1.805-14.196-2-22c3.191,6.542,5.555,13.912,7.2,22C547.931-57.888,546.97-58.387,544.701-58.808z M553.901-58.808
		c-0.208-2.208,0.229-3.771,0.4-5.6c2.294,1.173,4.547,2.386,5.6,4.8C557.68-59.563,556.219-58.756,553.901-58.808z M557.501-42.408
		c-3.627-3.31-3.439-13.485,4.4-12C560.961-49.881,559.432-45.944,557.501-42.408z M582.701,191.592
		c-3.42-3.647-6.267-7.866-8.8-12.4c4.702,2.799,10.804,6.944,16.8,4c-0.298-0.902-2.244-0.157-3.2-0.4
		c4.443-4.625,4.969-15.297,4-24C596.902,165.876,603.665,195.713,582.701,191.592z M578.701,77.592
		c4.835,1.259,6.499-3.821,9.6-5.6c-1.896,4.517-6.09,13.516-14,10.8C573.285,81.688,577.405,79.027,578.701,77.592z
		 M569.501,69.992c0.918,0.815,0.145,3.322,0.4,4.8c-2.171,0.717-5.52,2.129-7.2,0C564.735,72.959,567.63,71.987,569.501,69.992z
		 M482.701,203.992c-0.442-2.642,1.458-5.864,1.6-9.2C485.866,196.939,484.08,202.172,482.701,203.992z M464.301,163.592
		c2.816,5.058,5.901,8.522,5.6,16.8c3.536,0.419,12.419,6.401,13.2,10.4c0.774,3.967-0.673,10.074-2.4,12.4
		c-3.486,4.694-14.743,5.795-17.6,9.2c-5.512-3.886-12.579-7.29-14-13.6c-1.382-6.138,2.417-14.121,0.8-20.4
		c-1.679-6.517-6.311-13.458-9.6-20c-3.219-6.403-7.571-12.231-10.8-18.4c-3.161-6.038-5.984-13.186-8.8-20.4
		c-3.986-10.211-9.967-23.447-6-37.6c2.768-9.875,10.328-20.16,16-30c10.736-18.626,24.456-38.734,36.8-55.2
		c9.148-12.203,16.888-25.281,32.4-32c3.87-1.676,15.298-0.227,18,2.4c3.4,3.306,3.707,10.108,3.2,16
		c-1.582,18.391-14.217,26.867-25.2,35.6c-14.573,22.626-37.802,36.598-50.8,60.8c-1.482-0.518-0.554-3.446-1.6-4.4
		c-1.41,5.077,2.725,8.556,3.6,12c0.992,3.907,0.473,8.592,0.8,12.8C449.744,123.683,454.782,146.493,464.301,163.592z
		 M464.301,131.592c-3.727-3.619-6.793,0.588-9.6,2.4c-1.47-6.866-2.733-14.513-4-22.4c-1.729-10.769-1.693-22.516-5.6-30
		c5.76-10.587,12.999-18.847,20.8-27.6c7.599-8.526,16.53-15.743,23.6-24.8c-1.178,12.119-7.81,25.833-6.4,40.4
		c0.271,2.807,1.615,5.602,1.6,8.4c-0.011,1.959-0.923,3.854-1.2,6c-1.06,8.212-1.537,16.353-4,24
		C476.198,118.245,471.276,125.741,464.301,131.592z M477.101,116.392c5.428-13.033,9.835-31.46,7.2-48.8
		c18.283,8.675,17.686,44.032,8.8,62.8c3.41-4.323,5.064-10.402,6.4-16.8c5.757,7.709,9.855,17.078,14,26.4
		C498.049,135.444,486.338,127.154,477.101,116.392z M518.701,146.792c-5.535-10.599-10.51-21.757-16.8-31.6
		c5.645,0.851,13.036,5.233,21.6,3.2C519.54,125.497,518.354,135.378,518.701,146.792z M531.501,104.792
		c4.401-9.447,12.692-19.2,19.6-25.6c0.751-0.697,0.753-1.4,1.6,0c0.34-0.074,0.377,0.156,0.4,0.4c1.233-0.452-0.81-0.782-0.8-1.2
		c0.027-1.144,6.524-6.802,6.4-6.8c1.224-0.02,3.559,4.911,6.4,5.2c3.699,0.376,8.009-2.779,12,0c-1.264,2.203-3.496,3.437-4.8,5.6
		c-4.321-2.931-13.625,1.527-17.6-1.2c1.719,5.838,11.701-1.397,16,2c-12.862,16.338-23.828,34.572-27.6,60
		c-7.491,1.247-17.695,1.423-23.2-1.6C519.09,126.406,525.758,117.118,531.501,104.792z M557.501,137.992
		c-3.468,2.532-8.344,3.656-13.2,4.8c-0.019-11.353,4.769-17.898,7.6-26.4c1.255,5.545,2.909,10.691,6.4,14
		C558.119,133.01,557.173,134.864,557.501,137.992z M535.501,236.392c3.204,0.034,7.778-3.246,9.6-0.8
		c-3.073,0.793-7.618,0.116-10,1.6C534.338,236.848,535.533,236.954,535.501,236.392z M473.501,380.392
		c-1.002,3.265-1.306,7.228-1.2,11.601c-3.587-2.698-6.883-7.759-7.2-12.4C467.695,378.564,471.567,379.452,473.501,380.392z
		 M507.901,498.792c1.446-1.754,0.763-5.638,1.2-8.4c2.887,8.642,2.725,23.273,1.6,32.4c1.53-4.336,2.438-9.296,2.4-15.2
		c3.801,7.266,7.223,14.91,11.2,22c4.936,4.067,10.509,8.287,16.4,12.4c5.714,3.989,12.663,7.333,16.8,12
		c1.461,1.647,3.415,4.938,3.2,7.6c-0.276,3.419-5.832,8.696-9.6,9.2c-1.334,0.179-4.202-0.938-7.6-1.2
		c-6.364-0.49-10.573,0.188-13.6-1.6c-2.945-1.739-4.947-6.108-8-8.801c-6.816-6.011-16.944-12.517-26-14.399
		c-5.675-1.18-12.156-0.548-16.4-4c-3.647-2.967-7.411-11.223-6.8-17.601c0.225-2.348,1.839-4.378,2.4-6.399
		c2.019-7.274,4.299-22.971,2.8-31.2c-1.401-7.69-4.337-15.179-6.4-23.2c-4.941-19.216-8.318-40.646-10.4-62.8
		c-0.763-8.12-2.219-14.04,2-18.4c0.34-0.073,0.377,0.156,0.4,0.4c2.428,3.539,4.671,9.311,8.8,12
		c10.286,6.699,42.084,7.87,50.8,2.4C520.421,432.38,506.609,459.766,507.901,498.792z M522.701,392.792
		c0.124,2.257-2.059,2.208-2.8,3.6c-1.052-1.471,0.82-3.433,0.8-5.2C521.302,391.791,522.385,391.907,522.701,392.792z
		 M517.901,397.191c-14.344,2.994-33.896,1.625-44.4-4c0.004-7.729,1.352-14.114,3.6-19.6c10.314,7.727,27.27,15.211,44.8,9.6
		C520.402,387.485,518.337,393.146,517.901,397.191z M522.701,381.992c-4.823-0.108-9.467,1.92-14.4,2
		c-12.26,0.197-23.149-6.693-30.4-12c2.241-6.293,3.982-13.085,8.4-17.2c-1.577-0.11-1.223,1.71-2.8,1.6
		c-0.534-23.542-12.149-39.624-18.8-57.6c-6.746-18.233-14.228-36.113-14.8-61.2v-1.2c14.698,0.717,31.302,7.588,45.2,8.8
		c8.813,0.768,17.813-3.848,28-1.6c4.11,14.752,2.237,33.625,3.2,54C527.557,324.177,533.397,360.287,522.701,381.992z
		 M594.301,391.592c-1.546,2.588-3.882,4.384-6.4,6c0.203-2.469,2.89-5.907,4-8.8C592.713,389.713,593.489,390.67,594.301,391.592z
		 M585.501,398.392c-20.999-2.201-31.357-15.042-37.6-32c0.784-2.119,3.479-2.237,6-1.6c-1.041,2.825-2.068,5.665-2.8,8.8
		c1.955-2.845,2.974-6.626,4.4-10c5.08,13.04,17.515,26.553,36.8,20C590.585,389.075,587.797,393.487,585.501,398.392z
		 M607.901,342.792c-0.803,18.273-8.142,27.523-15.6,40c-4.97,0.113-11.224,2.718-16,1.2c-9.167-2.914-20.278-14.161-20-21.601
		c0.176-4.687,6.799-12.457,10-15.2v7.6c4.714-34.891-14.771-53.247-28.4-73.6c-7.118-10.629-12.446-20.577-13.6-37.2
		c2.223-0.101,4.343,1.624,6.4,0.4c1.399-0.867,1.562-2.971,1.6-5.2c4.4-0.632,8.148-3.26,13.2-2
		c5.905,8.761,8.365,20.968,18.8,25.2c-1.813-5.81-6.775-11.752-4-19.6c10.633,5.032,16.316-9.703,23.6-14.8
		c0.324,0.076,0.399,0.401,0.8,0.4C596.07,259.099,609.756,300.583,607.901,342.792z M547.101,237.992
		c4.027-0.025,8.814,2.65,12.8,4c-2.48,5.668-0.143,13.025,2,17.6C554.614,256.345,552.153,244.807,547.101,237.992z
		 M585.101,225.592c1.774,0.232-0.961,1.018-1.2,1.2c-5.296,4.027-10.26,12.35-16.8,16c-1.82-0.447-3.594-0.939-5.6-1.2
		c0.82-1.597,1.778-1.764,3.2-2c-2.221-2.846-4.998-5.136-7.6-7.6C565.831,229.255,576.055,228.013,585.101,225.592z
		 M562.701,239.592c-0.706,0.361-1.239,0.895-1.6,1.6c-4.989-2.611-13.202-1.999-15.6-7.2c3.768-0.366,6.783-1.484,10.4-2
		C557.601,235.092,560.797,236.695,562.701,239.592z M554.301,230.792c-3.248,0.618-6.165,1.568-9.6,2
		c-12.574-20.894-18.921-48.012-23.2-77.2C531.98,180.846,539.708,210.985,554.301,230.792z M559.901,145.592
		c-7.838,6.839-25.188,6.264-39.2,5.6c-0.133-3.067-0.873-5.527-0.8-8.8c11.498,5.216,27.681,1.065,37.2-2.8
		C558.672,140.954,558.249,144.311,559.901,145.592z M553.101,117.192c1.707,1.626,5.508,1.158,8.8,1.2
		c-0.225,4.176-2.47,6.33-2.8,10.4C556.057,125.97,553.937,122.223,553.101,117.192z M589.101,152.392
		c-8.196-7.67-23.016-12.184-29.6-22.8c0.505-3.228,2.001-5.466,2.8-8.4C568.617,134.209,578.756,143.403,589.101,152.392z
		 M563.501,116.792c-3.651,1.118-9.128,1.371-10.8-1.6c0.498-0.968,0.99-1.943,1.2-3.2c2.96,0.894,6.976,2.458,10.8,1.2
		C564.853,114.943,563.558,115.249,563.501,116.792z M565.501,112.392c-4.473,0.613-8.554,0.53-10.8-2
		c4.268-10.398,10.161-19.172,17.6-26.4c10.68,2.182,14.257-5.938,17.2-12.8c-4.367,0.7-5.509,4.624-9.6,5.6
		c4.563-6.404,7.179-16.179,7.2-26c0.018-8.056-1.982-15.97-1.2-23.6c1.068-10.426,9.572-24.939,15.6-30.8
		c1.864-1.813,4.937-3.634,8-4.4c1.737,4.396,1.381,10.886,3.2,15.2c-2.203,2.706-2.374,8.753-5.2,9.6
		c-3.299,9.161,0.393,20.557,0,30c-0.916,21.989-18.326,32.209-28.4,46C574.365,99.275,569.952,105.648,565.501,112.392z"/>
	<path d="M736.701,177.192c-2.52-3.161-2.511-5.845-4.8-8.8c-2.678-3.457-8.323-7.197-12.801-8c7.854,3.879,13.814,9.653,17.2,18
		c2.014,1.987,5.598,2.403,5.601,6.4c-7.271,0.771-9.921-4.508-13.601-8.8c-5.263-6.14-8.643-11.651-17.2-12.8
		c3.636,1.564,5.848,4.553,10.4,5.2c3.575,5.759,10.057,10.742,9.6,19.2c-4.367,0.927-4.558-3.782-6-6
		c-0.852-1.311-2.897-3.01-4.399-4.8c-4.529-5.398-7.754-7.69-16.4-8.8c-0.177-0.756,0.544-2.411-0.8-2
		c0.238,3.039-1.144,4.457-2,6.4c1.201,3.057,6.35,7.233,2.8,11.2c-2.202-2.321-4.516-4.53-6.491-7.078
		c0.313,0.75,0.582,1.525,0.808,2.315c0.913,0.694,1.805,1.452,2.483,2.363c0.838,1.123,1.45,4.471,2.801,4.4
		c1.356-0.071,2.401-4.338,2.399-5.2c-0.007-4.171-5.737-7.604-1.6-11.2c5.204,1.536,8.712,0.918,12,3.6
		c0.963,0.785,2.027,3.308,3.6,5.2c1.514,1.821,3.771,3.399,4.4,4.4c1.935,3.078,1.974,7.664,7.2,5.6
		c2.143-2.566-1.082-4.482-0.801-7.6c1.317,2.72,11.019,8.855,12,3.6C743.537,181.659,738.275,179.167,736.701,177.192z"/>
	<path fill-rule="evenodd" clip-rule="evenodd" d="M725.501,154.792c0.196-0.05,0.404-0.106,0.607-0.159
		c-0.31-0.087-0.618-0.186-0.938-0.312c-0.158-0.063-0.3-0.148-0.451-0.221c-0.435,0.2-0.85,0.421-1.219,0.692
		c-6.667-0.933-12.508-2.692-18.8-4c-28.933-18.268-49.735-44.665-80.4-61.2c13.632,9.201,27.367,18.918,40.4,30
		c6.478,5.508,12.045,11.561,18.399,16.8c6.471,5.334,13.676,9.796,20.801,14.4c7.988,5.162,21.099,2.697,28.8,8.4
		c4.655,3.447,6.321,7.92,8.8,13.6C741.014,163.537,733.814,157.552,725.501,154.792z"/>
	<path fill-rule="evenodd" clip-rule="evenodd" d="M610.701-129.208c-3.488,8.512-9.371,14.629-13.2,22.8
		c-1.649-0.232-2.292-3.103-2-4c-1.571-1.363-3.909-1.958-6-2.8c2.714-0.575,5.8,1.928,8,3.2c3.585-7.481,3.735-18.398,5.6-27.6
		c-3.705,7.206-8.708,11.211-16,15.2c-0.959,1.174-1.808,2.459-2.8,3.6c0.842-3.294,5.006-6.725,5.6-11.6
		c-2.559-0.02-2.509,2.549-3.6,4c-3.847,5.118-14.719,14.109-22,16.4c-1.184,0.373-2.669,0.435-4,0.4
		c11.542-4.059,19.534-11.666,26.4-20.4c-9.995,0.539-16.972,4.095-24,7.6c6.513-4.953,14.135-8.798,25.2-9.2
		c1.076-1.191,1.549-2.984,2.4-4.4c1.128,1.416-1.254,2.731-1.2,4.4c2.561-0.534,2.783-5.184,2.8-8.4
		c0.009-1.644-0.577-3.042-0.4-4.4c2.823,3.247,1.637,8.709,0.4,12.8c0.829,0.905,2.975,0.492,4,1.2
		c4.516-3.618,6.48-9.787,9.6-14.8c-3.47,8.902-1.41,24.034-6,32.8c5.032-4.035,7.885-13.715,11.2-20.8
		c0.278-2.012-0.679-2.788-0.4-4.8c4.761,9.696-0.247,22.654-2.4,31.6C608.038-113.206,611.358-120.283,610.701-129.208z
		 M588.301-123.608c2.453-2.081,5.099-3.968,7.2-6.4c-1.403-0.197-2.604-0.596-4.4-0.4
		C590.983-127.586,587.922-125.595,588.301-123.608z"/>
	<path fill-rule="evenodd" clip-rule="evenodd" d="M538.301-124.408c2.728-3.672,3.24-9.56,6.8-12.4
		c-7.963,12.309-10.832,31.827-9.2,52.4c-1.362-1.442-1.044-8.02-1.6-11.6c-2.099-2.533-6.805-5.878-7.6-10.4
		c-1.19-6.77,2.943-17.188,8-18.4C536.348-125.122,536.754-124.194,538.301-124.408z M534.301-98.008c0-1.733,0-3.466,0-5.2
		c-4.345-1.04-3.117-15.991,2.8-14.8c-0.196-1.262,0.721-1.413,0.4-2.8c-1.796-0.196-2.997,0.203-4.4,0.4
		c-0.658,1.476-0.791,3.476-2.4,4c0.334-1.405,2.107-3.119,0-3.6c2.403-1.197,5.22-1.979,7.6-3.2
		C525.261-125.914,525.045-100.939,534.301-98.008z M534.301-104.808c-0.222-4.758,2.265-8.932,2-12.4
		C532.334-116.016,531.036-107.417,534.301-104.808z"/>
	<path fill-rule="evenodd" clip-rule="evenodd" d="M652.301-97.608c0-0.267,0-0.533,0-0.8c1.19,5.343,7.14,5.927,7.601,12
		c5.051-16.214-3.178-32.027-7.2-44.4c3.51,4.757,5.106,11.426,6.8,18c1.613-3.32,2.132-7.735,2.8-12
		c1.093,4.707-1.945,9.188-2,14.4c-0.049,4.734,1.866,10.188,2,15.2c0.143,5.326-0.438,10.007-2.8,14.4
		c0.151-2.301-1.115-5.524-1.6-8.4c-2.083-1.651-3.845-3.623-4.801-6.4c-3.06,10.008-5.346,26.473,0.801,34.8
		c-6.495-5.312-6-26.199-1.2-35.2c0.293-0.55-0.517-0.762-0.4-1.2C652.301-97.341,652.301-97.475,652.301-97.608z"/>
	<path fill-rule="evenodd" clip-rule="evenodd" d="M622.301-122.808c2.867,10.333,9.543,16.856,16,23.6
		C633.238-104.152,622.619-110.454,622.301-122.808z"/>
	<path fill-rule="evenodd" clip-rule="evenodd" d="M589.101-109.608c5.844,3.762,1.412,14.211-1.6,17.6
		c2.022,0.422,2.288-0.912,4-0.8c-3.802,3.648-14.859,3.017-18-0.8c0.831,0.769,2.736,0.464,3.6,1.2
		c-2.062-2.71-6.707-12.934-2-17.6c-0.92-0.894-3.042,0.405-4,0.8c0.64,2.464-0.688,3.609,0,6.4c-1.192-1.208-0.419-4.381-2.8-4.4
		c5.431-8.727,23.921-5.964,27.6,2.4C593.815-106.589,591.89-108.531,589.101-109.608z M582.701-100.008
		c0.979-1.235-0.44,1.149,0.4,0.8c0.118-0.355,1.082-1.751,1.2-0.8c-0.707,1.004-0.776,2.204-0.4,2.8
		c0.395-1.072,0.565-2.369,1.2-3.2C583.925-100.798,582.042-100.9,582.701-100.008z M576.301-97.608
		c1.018-0.049,1.551-0.582,1.6-1.6c-0.769-1.15-3.176-0.965-3.6,0.4c1.537,6.492,12.468,9.631,15.2,2
		c-2.215,0.215-3.462-0.538-4.8-1.2c-0.974,0.841,0.354,1.778-0.4,2.4C580.557-93.071,578.65-97.584,576.301-97.608z
		 M581.101-96.408c-0.732-0.995-2.753-0.381-1.2-2.4c-1.129-0.062-1.002,1.131-1.6,1.6
		C579.166-97.108,580.789-95.739,581.101-96.408z M584.701-98.808c1.427,1.554,5.868,2.644,6-0.8
		C589.283-101.882,585.698-100.403,584.701-98.808z"/>
	<path fill-rule="evenodd" clip-rule="evenodd" d="M619.101-83.208c0.52-2.664,0.436-8.718,2-11.6c-0.404-1.126-1.699,0.11-2.4,0
		c6.786-8.713,23.001,4.076,13.2,10.4c2.082-1.369,2.716-5.956,0.8-8c-0.382,2.127-0.569,6.096-2.4,8.8
		c-1.564,2.31-6.96,4.032-4,4.8c-4.328,0.991-7.901-2.23-8.4-6.4C618.691-84.932,618.967-84.141,619.101-83.208z M620.301-86.808
		c1.146,0.079,2.183,0.05,2-1.2c-0.464-0.335-1.072-0.527-2-0.4C620.301-87.875,620.301-87.342,620.301-86.808z M620.701-86.408
		c-0.273,2.061,1.029,3.353-0.4,4.4c1.893,0.107,2.252,1.748,3.6,2.4c1.26-0.873,2.52-1.747,3.6-2.8
		c-1.161,0.067-1.922-2.309-2.8-1.2c0.614,0.096,0.059,0.659-0.4,0.8c-1.741,0.257-3.446-1.597-2.4-2.8
		c-0.351,0.824,1.038,1.796,1.2,0.8c-1.379-1.797,2.287-1.966,2.8-3.2c-0.933,0.598-1.723-0.135-2,0.4
		C624.763-86.849,622.213-86.119,620.701-86.408z M625.901-85.608c-0.045,1.512,0.783,2.151,2,2.4c0.005-0.795,1.091-0.509,0.8-1.6
		C628.356-85.713,626.619-86.278,625.901-85.608z"/>
	<path fill-rule="evenodd" clip-rule="evenodd" d="M642.301-80.808c2.676,5.591,4.725,11.809,8.8,16
		c-3.997-1.604-7.041-7.625-8-13.6c0.33,16.729-5.374,27.426-14,35.2C636.399-51.002,643.115-64.891,642.301-80.808z"/>
	<path fill-rule="evenodd" clip-rule="evenodd" d="M628.301-58.008c-4.878,4.504-8.596,10.386-9.2,20.8
		c-1.618,27.903,9.689,48.079,22,60.8c-7.583-3.218-14.784-10.282-18.399-18.8c4.207,12.933,9.407,25.137,19.2,33.6
		c7.292,6.302,16.77,10.125,22.399,18c-3.258-2.076-6.318-4.348-10.399-5.6c3.322,6.405,11.733,8.425,16.399,14.4
		c4.222,5.405,6.847,12.772,10.8,18.8c4.04,6.16,8.513,11.392,12.801,16.8c-4.69-4.261-9.172-9.806-13.2-16
		c-4.406-6.775-7.446-16.555-12.8-21.2c-6.112-5.303-12.725-8.066-17.601-14.4c-0.666-0.534-2.545,0.146-2.399-1.2
		c6.495,0.305,9.554,4.046,14,6.4c-6.523-6.671-14.977-10.459-22-16.4c-11.205-9.477-15.295-26.053-20.8-41.2
		c5.002,9.264,9.666,18.867,18.4,24.4c-9.895-12.123-20.229-31.341-19.2-54C618.808-43.963,620.348-53.433,628.301-58.008z"/>
	<path fill-rule="evenodd" clip-rule="evenodd" d="M671.501,97.192c1.534-2.2,1.085-6.382,2.8-8.4
		c10.792,2.008,14.901,10.699,22.8,15.6c-8.263-3.876-13.009-13.384-22.399-14.8c-0.38,2.095-2.858,6.244-3.2,8.8
		c-0.361,2.704,1.974,7.055-0.4,8.8c1.146-19.682-8.861-31.669-17.199-43.2C661.633,71.594,668.633,83.393,671.501,97.192z"/>
	<path fill-rule="evenodd" clip-rule="evenodd" d="M604.701-20.408c0.138-1.138,0.899-3.735,1.2-4.8
		c-0.229,0.812,0.74-3.883,0.4-0.4C606.206-24.632,605.755-22.321,604.701-20.408z"/>
	<path fill-rule="evenodd" clip-rule="evenodd" d="M604.301-19.608c0.118-0.833,1.083,0.594,1.2-0.8c-0.049,1.559-1.767,4.895-3.6,6
		C600.321-16.779,605.252-17.895,604.301-19.608z"/>
	<path fill-rule="evenodd" clip-rule="evenodd" d="M544.701,25.192c-0.093-7.008,0.632-2.55,0.4,1.2
		c-1.239,20.005-13.54,38.404-22.4,52c-0.832,0.448-0.848,0.432-0.4-0.4C531.808,62.432,541.68,47.237,544.701,25.192z"/>
	<path fill-rule="evenodd" clip-rule="evenodd" d="M519.101,85.192c4.226-4.974,7.419-10.98,16.4-11.2
		c1.626-0.159,1.231,1.703,2.4,2c0.883-5.65,2.646-10.42,6-13.6c-0.021-2.652-2.211-5.246-1.6-7.2c1.952,0.837,3.348,9.928,2,14
		c0.64-1.933-0.823-0.662-0.4-4c-3.156,2.046-6.177,7.688-5.6,14.8c-1.358-1.308-1.51-3.823-2.8-5.2
		c-9.283-0.689-13.051,9.565-18.4,12.8c1.005-1.528,1.704-3.363,2.8-4.8C520.794,81.971,519.028,84.285,519.101,85.192z"/>
	<path fill-rule="evenodd" clip-rule="evenodd" d="M517.901-110.808c-0.373,1.774-3.084,3.344-3.6,5.6
		c-0.976,4.267-0.009,10.003,0.4,14c0.93,9.084,6.542,14.702,6.4,24.8c-2.183-11.551-7.73-19.737-8-33.2
		c-1.114,2.887-1.365,6.635-1.6,10.4c-0.767,1.03-0.365-2.024-0.4-4C510.958-101.187,512.125-108.773,517.901-110.808z"/>
</g>
</svg>
