<?xml version="1.0" encoding="utf-8"?>
<!-- Generator: Adobe Illustrator 14.0.0, SVG Export Plug-In . SVG Version: 6.00 Build 43363)  -->
<!DOCTYPE svg PUBLIC "-//W3C//DTD SVG 1.1//EN" "http://www.w3.org/Graphics/SVG/1.1/DTD/svg11.dtd">
<svg version="1.1" id="图层_1" xmlns="http://www.w3.org/2000/svg" xmlns:xlink="http://www.w3.org/1999/xlink" x="0px" y="0px"
	 width="1280px" height="720px" viewBox="0 0 1280 720" enable-background="new 0 0 1280 720" xml:space="preserve">
<g>
	<g>
		<path fill-rule="evenodd" clip-rule="evenodd" d="M548.339,158.437c-0.129,1.215,0.439,3.127-0.864,3.168
			c-1.943-6.359-9.879-1.438-10.368,2.88c-0.185-4.263,6.32-10.275,10.368-5.184C548.165,159.415,547.315,157.989,548.339,158.437z"
			/>
		<path fill-rule="evenodd" clip-rule="evenodd" d="M544.307,167.365c0.729-0.303,1.277,0.971,0.576,1.152c-0.192,0-0.384,0-0.576,0
			C544.787,167.945,544.281,168.151,544.307,167.365z"/>
		<path fill-rule="evenodd" clip-rule="evenodd" d="M544.307,167.941c-0.152,0.231-0.3,0.467-0.288,0.864
			c-0.517,0.037-0.607-0.353-1.152-0.288c0.187-0.293,0.662-0.298,0.576-0.864C543.674,167.805,543.91,167.953,544.307,167.941z"/>
		<path fill-rule="evenodd" clip-rule="evenodd" d="M522.995,173.413c-0.692,0.485-1.672-1.197-2.592-1.44
			c0.493-0.839,1.048,0.653,2.016,0.288C521.901,173.083,522.752,172.361,522.995,173.413z"/>
		<path fill-rule="evenodd" clip-rule="evenodd" d="M520.115,173.125c0.513-0.494,1.954,0.528,2.016,1.44c-0.384,0-0.768,0-1.152,0
			c0.008-0.28,0.353-0.224,0.576-0.288C521.328,173.64,520.547,173.556,520.115,173.125z"/>
		<path fill-rule="evenodd" clip-rule="evenodd" d="M533.363,173.125c0.288,0,0.576,0,0.864,0c0.038,0.71,0.044,1.388-0.288,1.728
			C533.203,174.821,533.367,173.889,533.363,173.125z"/>
		<path fill-rule="evenodd" clip-rule="evenodd" d="M518.387,173.413c0.6,0.552,1.2,1.104,1.44,2.016
			c-0.694,0.118-0.626-0.526-1.44-0.288C519.463,174.553,518.203,174.617,518.387,173.413z"/>
		<path fill-rule="evenodd" clip-rule="evenodd" d="M537.971,181.765c1.52,1.042-1.264,1.987-2.304,2.304
			C536.378,183.244,537.515,182.846,537.971,181.765z"/>
		<path fill-rule="evenodd" clip-rule="evenodd" d="M618.035,181.765c1.373,1.028,2.426,2.374,2.88,4.32
			C619.427,185.173,618.856,183.343,618.035,181.765z"/>
		<path fill-rule="evenodd" clip-rule="evenodd" d="M525.875,184.357c1.519,0.593,3.548,0.676,5.76,0.576
			C530.405,185.678,526.331,186.083,525.875,184.357z"/>
		<path fill-rule="evenodd" clip-rule="evenodd" d="M708.179,203.653c0.869-0.444,0.758,1.49,0.288,1.44
			C707.429,205.369,707.956,203.85,708.179,203.653z"/>
		<path fill-rule="evenodd" clip-rule="evenodd" d="M708.179,213.157c1.047-0.086,0.385,1.536,0.864,2.016
			C708.061,215.195,708.189,214.106,708.179,213.157z"/>
		<path fill-rule="evenodd" clip-rule="evenodd" d="M530.771,216.325c-1.609-1.753-5.428-0.78-7.776-1.152
			C525.812,214.594,529.645,213.592,530.771,216.325z"/>
		<path fill-rule="evenodd" clip-rule="evenodd" d="M533.651,215.749c1.854,1.121,2.518,3.434,3.744,5.184
			c-0.602,1.318-1.562,2.278-2.88,2.88C534.068,221.283,533.914,218.462,533.651,215.749z M535.091,222.949
			c0.398-0.85,1.33-1.166,1.728-2.016c-0.867-0.958-1.258-2.391-2.304-3.168C534.586,219.614,534.648,221.472,535.091,222.949z"/>
		<path fill-rule="evenodd" clip-rule="evenodd" d="M684.563,222.373c4.59-0.557,6.913,3.646,11.521,4.032
			C691.566,226.888,689.121,222.808,684.563,222.373z"/>
		<path fill-rule="evenodd" clip-rule="evenodd" d="M738.131,231.301c4.384,2.603,9.748,3.414,13.536,6.336
			c2.013,1.553,2.558,4.642,5.472,4.896c0.85,4.239,2.216,7.961,4.32,10.944c-2.866-2.031-3.741-6.051-4.608-10.08
			c-0.401-0.462-1.421-0.307-1.728-0.864C751.668,236.58,743.787,235.052,738.131,231.301z"/>
		<path fill-rule="evenodd" clip-rule="evenodd" d="M522.995,241.957c3.132,0.612,5.937,1.552,8.064,3.168
			c-0.924,1.956-3.082,2.678-4.608,4.032C526.024,246.031,523.895,244.609,522.995,241.957z M527.314,247.717
			c0.459-1.269,2.125-1.331,2.592-2.592c-1.873-0.339-3.826-2.121-5.472-1.728C525.975,244.257,526.126,246.505,527.314,247.717z"/>
		<path fill-rule="evenodd" clip-rule="evenodd" d="M532.787,242.821c0.288,0,0.576,0,0.864,0c0.819,5.62,4.38,10.01,5.472,14.4
			c-3.325-1.667-6.105-3.878-8.928-6.048C531.573,248.903,532.673,246.355,532.787,242.821z M531.059,250.885
			c2.191,1.553,4.433,3.056,6.624,4.608c-1.657-3.047-3.015-6.393-4.32-9.792C532.9,247.735,532.432,249.763,531.059,250.885z"/>
		<path fill-rule="evenodd" clip-rule="evenodd" d="M528.179,249.733c0.297,2.199,1.008,3.984,2.016,5.472
			c-2.4,2.688-4.351,5.825-7.776,7.488c0.252-2.172-0.268-3.572-0.864-4.896C523.541,254.887,525.213,251.663,528.179,249.733z
			 M522.419,257.509c0.519,1.113,0.738,2.526,1.152,3.744c1.8-2.04,3.72-3.96,5.76-5.76c-0.931-1.181-1.228-2.997-2.016-4.32
			C525.825,253.427,524.149,255.495,522.419,257.509z"/>
		<path fill-rule="evenodd" clip-rule="evenodd" d="M539.411,259.813c-2.438-0.922-4.699-2.021-7.488-2.592
			c-2.601,2.104-4.037,5.371-6.336,7.776c0.706-2.944,3.873-5.918,5.472-8.928C534.174,256.986,537.689,257.502,539.411,259.813z"/>
		<path fill-rule="evenodd" clip-rule="evenodd" d="M715.955,257.221c0.465-0.081,0.495,0.272,0.863,0.288
			c0.272,5.209,2.779,9.688,3.456,13.536c-3.099-0.933-5.604-2.46-8.928-3.168C712.519,263.96,714.153,260.507,715.955,257.221z
			 M712.499,267.301c2.383,0.593,4.315,1.636,6.624,2.304c-1.438-3.17-2.205-7.011-3.168-10.656
			C714.796,261.726,713.342,264.208,712.499,267.301z"/>
		<path fill-rule="evenodd" clip-rule="evenodd" d="M538.259,266.437c-1.511,3.773-9.384,5.433-14.688,3.168
			C528.754,270.318,535.104,269.413,538.259,266.437z"/>
		<path fill-rule="evenodd" clip-rule="evenodd" d="M729.203,268.165c-1.3,2.901-2.588,5.998-3.744,9.216
			c-1.106,3.078-1.843,6.466-3.744,8.928c-0.682-2.008-1.531-4.034-2.304-6.336c-0.614-1.83-2.359-4.849-2.017-6.336
			c0.278-1.203,2.404-1.839,3.744-2.592C723.577,269.676,725.419,267.241,729.203,268.165z M718.259,273.349
			c1.165,3.827,2.154,7.83,4.032,10.944c1.167-5.745,3.6-10.224,5.472-15.264c0.303-0.016,0.227-0.369-0.288-0.288
			C723.842,269.716,721.601,272.083,718.259,273.349z"/>
		<path fill-rule="evenodd" clip-rule="evenodd" d="M702.995,282.565c-0.433-2.112,1.694-4.03,2.016-6.336
			c3.706-1.202,6.903-4.409,10.368-4.896c-0.354,1.853-0.486,3.93-0.576,6.048C712.002,280.244,707.688,281.595,702.995,282.565z
			 M713.65,272.485c-3.481,2.759-9.039,3.441-9.792,8.928c4.029-0.771,7.471-2.13,10.08-4.32
			C713.455,275.458,715.152,273.253,713.65,272.485z"/>
		<path fill-rule="evenodd" clip-rule="evenodd" d="M714.515,280.837c2.377,2.423,3.869,5.731,5.76,8.64
			c-2.241-2.174-4.286-4.545-5.472-7.776c-4.687,0.881-8.087,3.048-12.096,4.608C705.705,283.547,709.863,281.946,714.515,280.837z"
			/>
		<path fill-rule="evenodd" clip-rule="evenodd" d="M687.442,320.005c-0.334,0.047-0.512-0.063-0.575-0.288
			c-1.236-0.942-2.13-2.729-2.881-4.32c-0.821-1.743-1.935-3.187-2.592-4.608c-1.321-2.858,1.843-8.902,3.456-12.096
			c1.772-3.508,4.085-6.405,5.76-8.64c-2.827,5.717-8.202,11.381-8.64,20.448C684.726,312.739,684.967,317.489,687.442,320.005z"/>
		<path fill-rule="evenodd" clip-rule="evenodd" d="M546.323,304.165c0.264,0.596-0.187,2.123,0.576,2.88
			c-0.508-0.26-0.892-0.644-1.152-1.152C545.609,304.987,546.157,304.767,546.323,304.165z"/>
		<path fill-rule="evenodd" clip-rule="evenodd" d="M726.61,324.037c-0.386,4.397,0.848,8.435,2.881,11.232
			C726.996,332.811,725.396,328.642,726.61,324.037z"/>
		<path fill-rule="evenodd" clip-rule="evenodd" d="M662.675,326.917c0.335-0.047,0.513,0.063,0.576,0.288
			c-5.248,10.785-12.181,19.884-21.889,26.208c0.669,0.58,1.448,1.048,1.729,2.016c0.913,7.88-0.443,15.575-3.456,20.448
			c1.822-4.721,5.671-16.951,1.152-22.752C650.867,347.174,656.951,337.225,662.675,326.917z"/>
		<path fill-rule="evenodd" clip-rule="evenodd" d="M480.083,328.645c0.666,0.294,0.596,1.324,0.576,2.304
			C479.523,331.125,480.32,329.368,480.083,328.645z"/>
		<path fill-rule="evenodd" clip-rule="evenodd" d="M479.219,332.389c-0.152,2.826-3.757,4.689-7.488,4.896
			C474.409,335.835,477.991,335.289,479.219,332.389z"/>
		<path fill-rule="evenodd" clip-rule="evenodd" d="M723.73,348.517c-6.772,1.195-10.824,5.111-15.84,8.064
			C711.058,354.013,718.753,347.574,723.73,348.517z"/>
		<path fill-rule="evenodd" clip-rule="evenodd" d="M641.938,358.885c0.354,0.126,0.592,0.369,0.576,0.864
			c-2.968,4.424-6.616,8.168-10.656,11.52c0.317,4.771,1.967,8.21,3.744,11.521c-0.157,1.032-1.645-1.206-2.304,0.576
			c-1.007-0.66,0.9-0.801,0.864-1.44c-1.126-3.481-2.492-6.725-2.88-10.943C635.748,367.861,639.114,363.645,641.938,358.885z"/>
		<path fill-rule="evenodd" clip-rule="evenodd" d="M760.883,385.957c0.832,3.234-1.742,5.552-3.168,7.488
			c4.891,1.225,4.711-5.068,6.912-7.488c-0.457,1.56-0.922,3.11-1.152,4.896c2.557-0.338,1.911-2.537,2.017-5.184
			c0.134-3.371,2.842-7.58,1.439-10.944c1.425,4.318-0.711,11.488-1.728,16.128c-2.37,0.702-3.631,2.515-5.761,3.456
			c-0.827,0.06-1.463-0.072-1.728-0.575c-2.167,2.249-4.631,4.201-8.928,4.319c2.151-1.117,4.332-1.022,6.048-2.304
			C757.409,393.827,759.758,389.662,760.883,385.957z"/>
		<path fill-rule="evenodd" clip-rule="evenodd" d="M764.627,381.925c0.545,0.38,0.212,2.305-0.576,2.304
			C764.122,383.34,764.343,382.601,764.627,381.925z"/>
		<path fill-rule="evenodd" clip-rule="evenodd" d="M655.475,394.885c2.438-1.021,4.197,0.672,6.048,1.729
			C659.875,396.816,657.94,394.822,655.475,394.885z"/>
		<path fill-rule="evenodd" clip-rule="evenodd" d="M521.555,111.781c-0.216,0.984,1.17,0.366,0.864,1.44
			c-2.043-1.121-6.124-1.206-10.08-2.304c-3.354-0.931-5.217-2.468-9.504-2.016c-7.97,0.841-15.521,7.007-23.904,6.912
			c5.199,2.193,13.591,1.193,20.736,1.44c-2.734,0.913-6.823,0.473-10.368,0.576c-8.676,5.543-16.163,13.068-17.568,25.632
			c-0.711,6.361,0.067,11.307-3.456,15.264c-0.787-1.218,0.913-2.168,1.44-3.456c0.73-1.786,1.229-4.506,1.44-6.624
			c1.398-14.044,6.13-25.758,17.28-30.528c-3.86-0.844-8.143-1.265-12.096-2.016c9.208-0.157,17.115-6.816,25.92-7.776
			c6.554-0.714,10.664,2.922,16.992,3.456c-3.196-4.445-12.765-9.115-9.216-17.856c2.972-7.32,17.28-9.138,24.768-4.896
			c-14.768-2.487-22.384,14.203-13.536,22.464c2.436-1.124,3.563-3.231,6.048-3.744c5.822-1.202,12.144,1.152,16.128,3.168
			c8.123,4.108,12.11,13.021,21.888,15.264c-7.264,0.832-12.298-3.061-18.432-4.32c5.382,0.378,10.42,3.595,16.416,4.32
			c-8.574-2.277-11.757-11.046-19.872-14.4C537.746,109.426,526.004,105.796,521.555,111.781z M510.323,100.837
			c2.828,3.317,5.684,8.14,9.216,9.792c-1.609-2.328-3.94-5.466-3.168-9.216c0.399,0.177,0.043,1.108,0.576,1.152
			c0.272-9.904,7.087-13.265,16.128-14.4C522.037,86.074,508.769,87.635,510.323,100.837z"/>
		<path fill-rule="evenodd" clip-rule="evenodd" d="M550.067,154.693c-0.371,11.327,3.366,21.914-3.168,28.224
			c0.131,1.836-0.927,4.262-1.44,6.336c2.149-2.65,2.523-7.076,6.048-8.352c-0.455,0.698-1.03,1.274-1.728,1.728
			c-0.326,4.014-2.709,7.541-3.744,11.808c-1.353,5.578-1.707,12.943-2.016,19.584c-0.41,8.817,0.12,17.82,0.576,26.496
			c1.014,19.278,7.256,31.528,13.248,45.504c0.85-4.334,0.477-9.891,1.44-14.112c-6.38-6.964-10.601-16.087-11.808-28.224
			c1.336-0.083,2.175,2.813,3.744,3.456c-6.437-9.508-1.442-25.181-0.576-38.88c0.5-7.913-0.219-15.509,2.592-21.6
			c-1.943,2.857-2.564,7.036-3.456,10.944c-0.132,1.031,0.301,4.126-0.288,3.744c-0.75-15.726,8.792-21.16,9.216-35.712
			c-0.586,7.447-0.841,15.622,4.32,19.296c-1.215-5.245-2.438-13.513-0.288-18.72c-0.869-2.012-1.973-3.787-2.592-6.048
			c2.285,3.475,4.017,7.503,7.2,10.08c-1.773-6.099-4.801-10.943-4.608-19.008c0.861,3.363,2.763,5.685,3.744,8.928
			c0.87-6.962-1.677-15.9-4.608-21.6c-3.394-6.601-7.435-12.015-12.96-15.552c11.015,6.779,19.069,20.437,18.432,38.88
			c-2.202-0.774-2.189-3.763-3.168-5.76c0.996,5.28,1.948,13.518,5.76,16.128c-2.471-0.411-4.712-3.542-6.624-5.472
			c-1.917,5.945-1.622,17.089,2.016,21.024c-3.754-0.937-6.102-6.915-7.488-11.52c-8.051,13.453-6.585,36.422-9.216,55.296
			c1.358,2.002,2.201,4.519,2.016,8.064c4.645-11.78,4.515-29.068,9.216-41.76c-3.448,0.256-5.052,0.646-8.064,0.288
			c2.708-0.46,5.835-0.5,8.64-0.864c-0.158,2.368-2.124,5.343-2.304,8.64c4.119,1.929,7.312,4.784,8.928,9.216
			c1.377,0.066,2.849-2.098,4.896-2.304c3.391,1.892,0.782,7.127,1.728,10.08c1.696,5.293,6.624,2.932,8.64-0.864
			c-0.633,2.438-1.164,4.98-2.016,7.2c1.454,1.426,3.813,1.947,5.76,2.88c4.642-2.905,7.888-7.945,11.232-13.248
			c2.779-4.408,7.387-10.938,8.064-16.416c0.974-7.88-1.08-16.333,1.152-23.904c1.886-1.419,2.292-4.075,4.32-4.896
			c2.171-0.879,10.17,0.079,12.096,1.44c0.611,0.432,1.262,1.929,1.728,2.304c1.196,0.961,1.065,3.666,2.88,4.608
			c-0.117,1.021-1.259,0.569-0.576,1.728c0.603,3.864,1.857,7.639,1.44,11.52c-0.121,1.119-0.814,2.116-0.864,3.168
			c-0.115,2.412,0.493,5.417,0.864,7.488c1.079,6.014,3.59,12.682,6.336,18.144c3.585,7.132,8.61,12.392,7.2,22.752
			c0.45-11.195-5.468-17.674-9.216-25.632c-3.287-6.979-3.994-13.857-6.048-22.464c1.897-4.174,1.002-10.821-0.576-15.264
			c-0.418-0.441-2.419,0.483-3.168-0.288c-0.895,0.257-0.289,2.015-0.864,2.592c-0.634-0.653-0.336-2.818,0.288-3.168
			c-1.747-2.126-5.048-1.92-6.624,0.288c0.714,0.63,2.226,0.462,2.304,1.728c-0.237,1.209-1.377-1.18-2.88-0.576
			c0,0.768,0,1.536,0,2.304c1.794,1.277,3.808,2.336,6.624,2.592c-3.963,1.828-5.313-2.912-8.928-1.44
			c1.148,1.775,4.968,4.767,8.64,4.032c0.201-2.771,1.922-4.782,4.032-4.032c-0.409,2.333,0.74,4.629,0,6.336
			c-2.222,2.002-5.964,2.484-7.2,5.472c1.262,11.906,0.995,25.04,3.456,36.576c1.216,5.702,3.167,11.112,4.32,16.128
			c0.914,3.975-0.119,8.494,3.744,9.216c1.199,0.224,1.903-0.397,3.168-0.576c11.363-1.61,21.859-6.89,31.392-11.232
			c-0.1-4.954-1.209-10.342-3.743-12.96c-0.918-0.947-3.604-2.583-5.185-2.592c-3.896-0.023-8.109,5.233-13.248,4.032
			c4.264-0.632,7.304-2.488,10.944-3.744c-0.121-0.647-1.528-0.008-1.729-0.576c10.624-4.678,23.337-5.771,32.832-11.232
			c-5.806,3.313-11.896,6.344-19.008,8.352c1.756-0.932,4.048-1.329,5.76-2.304c-6.234,0.39-12.087,3.656-18.432,4.896
			c2.364,0.516,5.722,0.039,6.912,1.728c-0.115-0.749-0.859-0.869-0.864-1.728c6.14,4.909,8.57,18.578,4.608,27.648
			c0.719,0.038,1.761-2.073,2.88-2.592c5.964,0.3,4.902-6.426,6.912-10.08c0.443,1.219-0.892,3.134-0.864,4.896
			c3.541-4.907,9.305-10.087,12.672-16.128c-2.162,3.117-2.941,7.619-4.607,11.232c-2.177,8.455-0.058,16.707-1.152,25.632
			c-0.521,4.248-3.059,8.471-3.456,13.248c-0.476,5.716,1.34,10.261,1.44,15.84c-0.796-2.756-1.287-5.818-1.44-9.216
			c-1.54,5.276-0.609,13.023-4.032,16.416c1.22-0.226,2.764-2.609,3.744-4.032c-1.136,3.035-3.962,5.775-6.624,8.64
			c-3.258,3.507-5.413,7.619-9.792,9.504c3.352,1.736,7.517,2.659,10.08,5.184c1.984,4.544,4.723,8.333,5.472,14.112
			c4.064-2.471,6.502-9.045,12.385-10.656c-1.744,1.52-4.193,2.335-5.473,4.32c1.454,9.494,7.407,20.309,14.4,24.768
			c1.639,1.046,6.759,2.896,9.792,1.729c2.657-1.023,5.376-3.902,8.352-5.76c3.072-1.917,6.15-3.506,8.641-5.472
			c0.655-0.14,1.471-0.571,2.016,0c-0.4-2.479-0.353-5.408-0.864-7.776c-2.701,0.015-4.784,3.625-7.487,1.728
			c-5.483,2.39-12.788,2.956-20.16,3.456c9.893-2.021,19.562-2.083,26.496-6.624c3.843-2.517,4.603-7.445,8.928-9.216
			c-2.5,2.588-4.895,5.282-7.2,8.064c1.857,12.468,0.533,24.993,3.456,35.711c1.384,5.075,5.171,8.384,3.744,15.553
			c2.67,1.414,1.283,4.75,1.728,8.352c0.441,3.575,2.974,5.741,3.168,8.353c-0.677-0.283-0.478-1.442-1.439-1.44
			c-1.976,0.329-2.894,1.715-3.456,3.456c-5.13-3.205-7.842-6.691-15.264-8.353c-1.346-0.301-3.234-1.202-4.608-0.863
			c-2.051,0.505-7.037,8.455-8.064,10.656c-0.893,1.912-0.805,3.965-2.304,5.184c-2.005,0.364-4.264-0.2-6.912,0
			c1.914,1.446,5.831,0.89,8.353,1.728c2.396-5.859,5.359-11.152,9.792-14.976c0.748-0.758-0.466-0.227-0.288-1.152
			c3.888,0.617,6.381,1.756,9.216,3.168c3.916,1.951,5.396,5.187,10.656,5.761c1.402-1.67,3.296-2.849,5.76-3.456
			c-1.853,1.411-4.571,1.956-5.472,4.319c-3.258-0.39-5.237-2.059-7.488-3.456c3.404,16.566,4.77,36.828,6.624,54.721
			c0.393,3.785,1.405,6.855,2.592,9.792c1.795,4.44,5.268,8.09,5.76,14.111c1.262-0.362,2.771-0.362,4.032,0
			c5.074,15.162,3.048,38.226,6.048,56.448c0.606,3.681,2.104,6.368,0.864,9.792c1.184,2.464,1.229,6.067,2.88,8.064
			c0.913,9.553-8.863,8.416-16.416,9.504c7.128-1.789,16.095-0.407,15.552-8.928c-0.171-2.688-1.885-4.72-2.016-8.064
			c-0.851,0.877-0.954,2.502-1.152,4.032c-0.567-2.867,3.274-9.927-0.863-10.944c-3.338-0.82-8.883,9.292-9.504,11.521
			c-0.326,1.168-0.008,2.535-0.288,3.168c-0.903,2.029-4.411,4.41-6.336,6.336c-3.627,3.626-6.459,4.643-9.217,8.063
			c-1.43-6.648-11.837-8.558-15.552-2.88c1.393-3.417,8.141-5.719,12.096-2.304c4.926-7.198,15.84-13.915,15.841-25.92
			c0-6.215-1.865-13.346-3.744-19.008c-1.344,0-2.688,0-4.032,0c-0.165,4.69,3.284,9.094,3.456,14.399
			c0.075,2.325-1.146,5.132-2.016,7.488c-2.927,7.925-7.167,17.286-14.977,20.448c-3.244,1.313-5.8,1.888-8.063,4.896
			c-1.186,1.574-2.203,5.042-1.44,7.2c1.25,3.536,6.593,4.326,10.944,4.032c7.821-0.528,12.798-5.092,16.416-9.504
			c2.677-3.265,4.019-7.098,8.928-8.353c-0.953,0.861-4.857,2.915-5.184,4.032c-0.267,0.911,1.32-0.347-0.576,0.864
			c-1.338,0.854-1.496,2.368-2.592,3.744c-6.083,7.632-21.17,15.061-29.089,4.896c-0.17-5.208,3.146-9.318,6.624-11.232
			c1.386-0.762,2.999-0.797,4.32-1.439c3.779-1.838,5.959-4.845,8.352-8.64c1.102-1.747,3.202-3.541,3.744-5.185
			c1.244-3.768,4.142-9.318,3.744-14.112c-0.301-3.631-1.926-8.485-3.168-11.808c-0.912-2.441-2.404-4.8-3.456-7.776
			c-0.455-1.127,0.748-0.596,0.864-1.151c-0.925-2.339-1.379-5.149-2.304-7.488c-2.47-1.082-3.771-3.333-4.896-5.76
			c-0.167-1.031,0.853-0.876,1.729-0.864c-1.821-3.747-4.876-6.261-7.488-9.216c1.567,0.085,2.633,0.52,3.744-0.288
			c-0.619-2.357-2.021-3.932-2.017-6.912c1.548-0.775,2.626,1.142,4.32,1.152c-1.632-7.78-4.89-14.729-7.776-22.464
			c-1.915-5.135-4.195-10.226-6.048-15.553c-3.719-10.694-6.389-22.039-9.504-33.695c-8.283-3.621-11.625-12.184-16.128-19.584
			c-1.038-0.113-1.931-0.373-2.88-0.576c-4.706,10.091-5.841,21.827-9.504,33.408c-1.537,4.858-3.611,10.507-5.472,16.128
			c-2.196,6.634-6.089,13.586-4.032,19.872c-3.11-3.265,0.795-12.215,2.592-17.568c3.305-9.845,6.979-18.789,9.216-29.088
			c1.828-8.414,2.59-16.252,6.336-22.464c-2.031-0.204-4.963,1.178-6.336,2.592c-2.126-1.234-3.575-3.146-5.472-4.608
			c1.487,0.532,3.821,2.705,5.472,4.032c2.207-1.634,4.817-2.862,8.929-2.592c-0.148-0.965-1.25-1.877-1.44-3.744
			c-1.269-12.422-3.582-25.528-8.064-34.848c1.522,0.688,2.459,4.451,3.168,6.911c1.135-4.586-2.477-7.758-1.728-12.096
			c0.258-1.496,1.811-2.456,2.304-4.032c1.154-3.688-0.549-7.922,1.44-11.52c-1.5,4.084,0.246,7.845-0.864,11.52
			c-0.521,1.723-2.396,2.938-2.592,4.608c-0.302,2.57,1.856,4.808,2.304,7.776c0.464,3.075-0.516,5.781,0.576,8.928
			c1.717-6.465,0.025-13.622,2.016-19.008c1.567-4.241,6.467-5.237,8.064-9.216c-0.777-2.006-1.689-3.879-1.729-6.624
			c-1.607,1.409-5.43,4.499-5.76,7.2c-3.137-9.344-5.685-19.275-16.992-20.448c5.423-3.121,8.121-8.967,12.672-12.96
			c2.492-6.395,4.485-14.566,4.32-22.752c-0.119-5.894,2.737-10.328,3.456-15.552c1.476-10.716-1.522-21.503,2.88-29.952
			c-2.553,1.536-4.072,3.651-5.76,6.048c-1.593,2.263-2.911,5.647-4.896,7.488c-1.256,1.167-2.82,0.949-4.319,1.728
			c-1.656,0.86-2.311,3.167-4.32,3.744c-0.474-4.326-1.664-7.936-5.184-9.216c-5.109,2.085-13.796,6.195-20.736,7.488
			c-4.138,0.771-7.7,1.311-9.792-1.728c-4.265-17.791-8.405-37.797-8.352-58.464c-3.758,1.59-4.694,10.119-6.048,14.976
			c-2.405,8.631-5.906,16.109-9.792,23.04c-2.926,5.218-6.658,14.77-14.112,14.688c-3.788-0.042-7.811-4.086-10.656-6.048
			c-3.614-2.491-6.495-4.507-9.504-6.912c2.258,10.363-6.122,13.52-7.2,21.024c-0.452,3.143,0.443,5.861-0.864,9.792
			c1.036,2.149,5.317,1.875,5.76,3.744c-1.09,1.341-2.339,1.075-3.456,1.728c-3.927,2.296-3.532,8.69-2.304,13.824
			c0.369,1.137-0.839,0.697-0.864,1.44c0.861,3.459,2.245,6.396,2.88,10.08c9.155,5.216,14.975,14.149,23.04,20.448
			c0.953,0.744,2.27,0.933,3.168,1.728c2.242,1.982,4.105,5.087,6.336,7.488c2.885,3.105,5.816,6.083,10.08,7.776
			c0.139,1.003-1.405,0.323-1.44,1.152c-1.563,5.925-4.766,10.209-9.792,12.672c4.033-3.647,7.927-7.433,9.792-13.248
			c-8.993-7.039-16.203-15.861-24.768-23.328c8.869,10.648,12.946,26.94,16.128,44.64c1.012,5.63,2.79,11.527,2.016,17.28
			c-2.655-3.488-4.321-7.967-6.336-12.096c-1.559,6.697-2.627,13.885-4.32,20.448c-1.647-3.96-0.332-9.42-0.576-14.977
			c-1.043-23.739-5.449-45.885-17.856-58.176c-4.639,4.481-8.43,9.81-13.536,13.824c-10.533-1.125-16.15,2.667-25.056,3.168
			c-6.238,14.498-13.401,28.07-22.464,39.744c2.483,2.214,2.797,7.105,6.624,7.775c1.109,0.194,2.581-0.563,3.744-0.576
			c2.419-0.026,4.903,1.093,7.488,1.152c4.74,0.109,9.48-0.466,13.248,1.44c1.146-6.535,0.396-14.965,1.728-21.313
			c-1.946,4.966-3.724,10.101-6.624,14.112c3.633-7.695,7.237-17.915,9.216-28.224c-0.738,9.549-4.013,19.207-2.88,30.816
			c5.654-3.375,13.122,1.06,18.432-0.576c2.449-0.754,5.305-4.307,6.912-6.048c2.189-2.372,3.485-5.106,4.608-8.063
			c-3.36-5.568-6.633-11.223-7.488-19.296c2.309,7.771,4.712,15.447,9.792,20.448c3.33-2.43,7.536-3.984,11.808-5.472
			c0.754,0.867-1.871,0.805-2.304,1.44c-1.882,48.23-13.162,87.062-34.56,115.776c-0.512,0.256-0.732,0.804-1.728,0.576
			c-0.769,3.167-2.412,5.46-2.88,8.928c3.103,0.029,7.757-0.882,9.792-2.88c-1.346-2.494-4.316-3.364-6.912-4.608
			c4.155,1.117,8.565,2.207,7.488,10.08c-0.326,2.38-1.786,4.467-2.592,6.912c-4.959,15.04-5.248,39.383-4.32,59.328
			c0.292,6.265,0.248,9.43,3.744,12.96c0,1.248,0,2.496,0,3.744c3.358,2.75,7.267,4.628,10.944,7.776
			c3.246,2.778,6.547,6.911,10.08,8.64c6.123,2.996,19.997,1.524,16.992,12.096c-0.501,1.764-3.334,4.565-5.184,5.185
			c-4.06,1.357-14.42,2.115-17.856,0.864c-1.838-0.67-3.901-2.453-6.048-3.744c-5.466-3.289-13.532-6.865-17.28-11.232
			c3.997,3.912,11.6,6.974,17.28,10.368c2.741,1.638,4.924,4.193,8.64,4.608c4.411,0.491,13.043-0.22,16.416-2.305
			c3.011-1.861,5.415-8.522,1.44-11.231c-4.01-2.734-10.192-2.009-14.688-4.32c-2.944-1.514-5.63-4.604-8.352-6.912
			c-3.944-3.345-7.52-5.938-11.808-8.64c-0.476,0.31,0.099,1.994,0.576,2.304c-2.648,0.039-1.117-4.069-1.44-6.048
			c-0.435-2.661-3.18-4.288-3.744-6.624c-0.827-3.423-0.122-7.749-0.288-11.521c-0.487-11.087-0.054-21.919,0.576-33.119
			c0.621-11.038,3.358-19.125,5.76-27.937c0.348-1.274,0.263-3.474,0.288-5.472c-11.555,5.549-33.031,2.409-41.76-3.744
			c-2.007,38.294,12.305,60.271,20.448,88.416c-1.014-0.521-1.083-1.989-1.44-3.168c-1.134,4.585,0.633,8.289-0.576,12.384
			c-0.746,2.527-2.938,3.873-3.168,6.048c-0.216,2.049,0.228,4.524,1.152,6.048c2.888,4.759,12.806,2.763,18.144,4.608
			c-6.365,0.085-13.801-0.41-18.432-3.456c-4.571-7.687,2.789-11.254,2.016-19.296c-3.72,0.301-9.616,2.171-14.688,1.152
			c-2.438-2.808-5.122-5.718-7.776-8.641c-2.396-2.638-5.405-6.119-8.352-7.775c-4.697-2.642-10.386-2.857-14.112-7.2
			c1.204-3.583-0.199-10.198,2.304-13.824c2.235-3.237,6.037-4.369,8.352-7.2c7.009-8.571,9.567-19.539,14.688-31.104
			c-0.121-0.986,0.863-0.866,1.152-1.44c-0.4-5.743-0.397-11.891-0.864-17.568c1.462-1.802,4.645-1.883,8.064-1.728
			c0.297,0.598-2.913,0.149-4.032,0.288c-1.152,0.384-2.462,0.609-2.88,1.728c0.849,2.031,3.083,2.677,4.896,3.744
			c3.204-6.435,6.396-13.451,5.76-22.464c-0.416-5.901-2.153-12.312-3.456-18.432c-1.286-6.045-2.486-12.108-3.744-18.145
			c-2.538-12.177-5.19-25.138-6.048-37.728c-0.262-3.85,0.722-8.309-0.576-12.097c-2.901,3.436-5.436,7.236-8.352,10.656
			c15.316-22.418,33.237-44.031,36.576-78.048c-2.234,0.168-4.923,2.371-8.352,2.304c-0.668,1.222,0.164,2.208,0,3.744
			c1.631,0.364,5.252,0.309,6.912-0.864c-0.072,1.468-4.029,1.536-6.336,1.728c-0.302,3.521-3.454,6.671-2.016,10.08
			c-0.456,0.024-1.098-0.139-1.152,0.288c-2.466,11.441-7.308,22.095-12.384,31.968c-5.59,10.872-11.731,21.69-21.024,28.512
			c0.313,5.113-1.226,8.374-2.88,11.521c2.102-0.973,4.266-4.373,6.336-6.336c-1.708,2.421-4.271,6.479-7.488,8.352
			c1.555-3.84,3.954-7.65,3.168-12.96c4.173-3.219,7.565-7.219,10.656-11.52c-6.715,0.338-7.918-12.358-3.744-15.84
			c-1.182-4.809-5.673-8.789-5.184-14.112c0.376-4.102,4.703-8.46,7.776-12.384c3.663-4.678,8.501-8.517,7.488-15.552
			c2.759-3.489,5.355-9.136,6.624-15.84c1.443-7.63,2.313-14.764-0.576-20.16c-3.149,5.626-4.28,12.264-6.624,18.432
			c-2.298,6.046-4.773,11.884-7.488,17.28c-1.929-1.327,3.928-8.287-0.288-10.368c2.014-0.491,2.309,3.488,1.728,5.76
			c3.605-6.954,6.951-14.169,8.64-23.04c-3.479,5.449-5.781,12.075-10.08,16.704c2.913-6.29,8.525-12.266,10.656-19.296
			c2.826-9.324-0.119-17.707-4.32-24.768c-2.868-4.82-4.157-9.678-4.608-16.128c-0.653,0.595-1.022,1.473-1.44,2.304
			c0.54,1.956,1.481,3.511,2.016,5.472c-2.587,0.87-4.038,2.875-6.912,3.456c1.75-1.322,3.975-2.169,5.76-3.456
			c-0.505-2.051-1.081-4.058-2.304-5.76c-2.539-3.533-11.533-8.574-16.128-7.776c-0.861-1.615-4.935-0.808-6.336-0.288
			c-1.501,4.988,3.703,6.103,4.32,8.928c5.759,1.057,9.851,3.781,12.384,8.064c0.645,0.767,1.443-0.407,2.016,0.288
			c-5.873,3.324-2.822,11.819,0.864,15.84c-3.053-1.076-4.857-3.399-7.2-5.184c-3.077,6.234-6.131,12.493-8.352,19.584
			c3.388,13.542,0.973,31.386,5.184,44.064c1.005,3.025,3.757,6.55,3.168,10.368c-0.292,1.891-2.204,3.118-3.168,4.896
			c-1.424,2.627-3.015,7.304-2.592,10.08c0.394,2.588,3.467,3.314,3.168,6.336c-4.287,0.396-7.11-4.559-6.336-9.216
			c0.182,4.618,2.124,7.476,5.472,8.928c0.714-2.063-1.857-3.324-2.592-4.896c-1.568-6.901,4.283-11.946,5.184-15.552
			c0.711-2.848-0.447-7.606-2.88-9.504c0.498-1.783-0.52-3.777-0.864-5.76c-1.818-10.464-2.221-22.099-3.168-34.272
			c-0.398-5.114-2.679-9.463-4.896-12.672c1.588,0.527,3.077,3.641,3.744,6.048c2.894-6.227,5.271-12.969,8.64-18.72
			c-1.596-2.532-3.965-4.292-5.184-7.2c2.28,1.752,3.029,5.035,6.048,6.048c-0.39,1.792,2.27,2.871,3.456,4.032
			c-1.793-2.598-1.182-8.913-3.744-11.232c-3.778,1.117-8.675,1.117-13.536,1.152c-3.917,8.821-11.168,15.355-12.096,26.496
			c-1.442,17.315,7.411,30.836,10.368,44.64c1.514-0.022,2.337-0.735,3.456-1.152c-1.944,2.749-5.885,1.198-7.776,3.744
			c-0.783,1.055-0.511,2.73-1.152,3.744c-1.582,2.501-4.577,2.714-6.048,5.184c0.876,2.739-0.712,6.199,1.44,7.488
			c2.372-0.312,2.222-4.37,1.728-6.624c0.054-1.379,0.501,0.495,1.44,0c1.679-0.241,2.038-1.801,3.744-2.016
			c-1.375,4.596-5.673,9.562-5.472,15.264c0.044,1.251,0.982,2.258,1.152,3.456c0.296,2.098-0.842,4.383,0.576,6.048
			c3.184-1.451,1.122-5.826,1.44-8.928c0.485-4.735,2.831-7.862,5.184-10.656c-0.727,3.067-4.201,6.202-4.32,11.52
			c-0.041,1.839,0.243,4.574,0.576,6.625c0.328,2.017,0.918,5.392,3.168,5.184c-0.744-6.265-0.883-16.45,3.456-20.16
			c-0.775,2.613-3.696,7.111-3.456,10.944c0.156,2.498,1.808,6.599,4.896,6.048c-3.582-4.513-2.27-12.739,2.592-14.976
			c-3.451,3.433-5.847,10.407-2.016,14.976c-0.5,0.748-1.913,0.584-3.168,0.576c-0.832-1.28-1.622-2.603-2.016-4.32
			c-1.167,2.453,1.033,5.444,0.288,7.488c-3.222,0.99-3.381-2.735-4.032-5.184c-0.991-0.71-0.618,1.937-2.592,1.151
			c-1.947-0.972-0.89-3.607-1.152-5.472c-0.184-1.306-1.062-2.563-1.152-3.744c-0.357-4.71,2.595-9.666,3.744-13.248
			c-3.294-0.318-1.47,4.482-2.592,6.336c-1.17,0.617-2.473,0.103-3.456-0.288c0.792-2.537-1.161-4.684-0.864-6.912
			c0.326-2.447,3.624-2.846,5.472-5.184c0.81-1.025,1.445-3.927,2.016-4.608c0.971-1.159,3.456-1.497,4.032-2.592
			c-2.528-14.21-12.139-28.213-10.368-45.504c1.038-10.13,8.698-15.848,11.232-25.056c-3.373-0.467-6.801-0.878-9.792-1.728
			c5.796-2.652,14.504-2.392,15.552-9.792c-1.309-3.107-4.209-4.623-4.032-9.216c1.606-0.833,4.585-1.697,6.912-0.864
			c3.108-6.233,4.175-13.22,9.504-16.992c0.092-0.065,0.563-0.282,0.576-0.288c3.396-1.59,6.244-2.59,9.216-4.896
			c2.68-2.079,5.103-4.264,8.064-6.048c0.384-1.249,0.885-2.38,1.728-3.168c-0.577-1.727-0.892-3.716-2.016-4.896
			c-4.753-3.282-8.486-9.897-13.824-13.536c0.063,6.562,0.259,12.989,3.168,16.704c-4.266-4.278-7.52-12.064-7.776-21.312
			c-1.61,8.086-3.861,15.531-6.624,22.464c1.419-8.971-0.282-21.353-3.744-28.224c-3.684,4.284-6.272,9.664-7.2,16.704
			c-1.687-11.602,2.737-22.443,1.44-36.288c-1.099,0.25-2.348,2.833-3.744,3.744c3.384-3.913,6.565-10.522,8.352-16.992
			c-0.082,4.432-2.546,8.973-4.608,12.384c2.578,11.352-1.396,21.284-1.152,31.68c1.943-4.105,3.438-8.659,6.336-11.808
			c-0.391-1.338-1.147-2.309-2.016-3.168c5.582,4.554,7.814,16.302,7.488,26.784c2.436-7.26,4.947-14.445,5.184-23.904
			c-3.07-2.018-4.198-5.978-4.32-10.944c1.161-1.239,2.114-2.686,4.608-2.592c0.266-4.247,0.711-8.313,2.592-10.944
			c-3.077,13.691-3.986,36.205,2.016,47.232c-0.47-4.252-1.6-11.295,0.576-15.552c0.85,0.684-0.348,1.745-0.288,2.592
			c3.506,4.27,7.262,8.29,11.232,12.096c-2.505-4.52-6.738-8.791-6.048-15.552c-1.868-3.22-4.295-5.881-4.896-10.368
			c3.591,8.889,10.06,14.9,18.144,19.296c-4.459-5.046-10.455-12.585-10.656-21.888c-3-3.823-6.942-8.217-6.912-14.112
			c2.143,8.706,7.46,14.236,13.248,19.296c-4.213-7.192-9.264-18.097-6.336-28.8c-0.635,3.118-0.221,7.456,0,10.656
			c-0.085-7.189,1.509-12.699,4.608-16.704c-1.519,5.158-4.574,10.831-4.32,17.568c0.26,6.873,5.083,16.09,9.216,19.584
			c-3.805-1.667-6.688-4.255-9.216-7.2c1.612,9.62,6.213,16.251,11.52,22.176c0.814-0.238,0.746,0.406,1.44,0.288
			c-5.98-0.933-10.621-5.699-15.264-8.928c-0.045,8.206,4.664,11.657,7.776,16.704c-1.484-3.892-3.145-7.608-6.048-10.08
			c9.076,7.428,11.182,24.6,12.384,41.184c0.491,6.774,0.103,15.216-0.288,22.464c-0.484,8.98-3.365,17.673-1.728,23.616
			c4.633-10.241,7.135-23.373,7.776-37.152c1.136-24.419-6.321-45.041-19.584-55.584c3.801,1.576,6.975,6.273,9.504,10.08
			c6.876,1.495,16.927,4.625,24.48,2.016c2.466-0.851,5.983-3.808,7.776-5.472c4.244-3.938,8.956-10.772,8.928-17.28
			c-0.023-5.444-2.829-10.451-0.864-16.416c-3.77-3.334-9.038-5.17-11.52-9.792c-2.324,6.22-4.851,12.237-8.64,16.992
			c2.098-3.375,2.225-11.215,2.016-17.856c-2.374,7.399-3.693,16.627-8.928,21.024c1.689-7.717,2.345-18.229,1.152-27.072
			c-2.135,3.124-3.585,8.447-3.168,14.4c-2.116-0.383-3.413-4.074-3.744-7.2c-3.001,6.599-6.519,12.682-12.672,16.128
			c4.675-4.636,9.548-9.076,11.808-16.128c-0.253-1.341,0.95,0.194,0.864-0.576c-1.771-0.206-4.469,2.334-6.336,4.032
			c-2.035,1.85-4.053,3.853-5.184,6.048c1.941-4.683,6.621-9.123,11.52-11.808c-0.255-3.039,0.269-5.299,1.152-7.2
			c0.527,1.78-1.102,3.886-0.576,6.624c2.63,0.036,4.861-2.817,6.048-5.184c-0.813-3.796-1.724-7.493-3.168-10.656
			c1.093,0.357,1.346,2.057,1.728,3.168c2.991,8.707,4.844,24.317,0.864,34.848c5.277-6.916,7.616-19.264,9.504-30.528
			c0.874,2.832-0.959,5.478-0.864,8.352c0.061,1.813,1.084,3.587,1.152,5.472c0.12,3.339-0.776,6.299-1.152,9.792
			c2.764-3.093,4.435-9.772,6.048-14.976c0.417-1.089-0.791-0.552-0.576-1.44c2.103-0.681,1.027-4.542,1.729-6.624
			c0.803,1.77-0.414,3.998,0,6.336c4.589,0.882,7.188,3.756,10.368,6.048c-2.882-1.151-5.952-4.607-10.368-5.184
			c-1.312,1.946,0.049,4.055,1.152,5.184c4.34,4.446,12.556,7.485,17.856,10.944c-2.659-4.542-8.679-9.752-7.2-18.432
			c-5.753-4.327-12.131-8.029-15.264-14.976c5.454,6.546,11.563,12.436,19.296,16.704c-4.501-6.059-12.46-11.155-12.96-22.176
			c2.115,10.461,8.796,16.355,14.688,23.04c0.893-0.029,1.376,0.352,2.016,0.576c-2.633,0.231-5.261-2.033-7.488-3.168
			c0.275,9.421,5.085,15.843,9.792,19.872C556.714,158.222,553.476,156.371,550.067,154.693z M662.963,260.965
			c0.359-3.623,2.617-6.728,1.439-10.944c-2.631,0.92-5.086,2.018-7.199,3.456C660.97,254.126,661.249,258.263,662.963,260.965z
			 M553.811,327.205c2.894-1.981,6.648-7.015,9.504-10.368c2.202-2.586,4.418-4.333,0.576-5.76
			c-8.75,6.068-16.623,14.434-32.832,12.096c-0.368,2.608-1.43,4.521-2.016,6.912C536.984,330.998,543.485,325.796,553.811,327.205z
			 M506.579,316.549c-0.929,6.54-5.278,8.869-8.928,13.536c-2.568,3.284-6.063,6.902-6.336,10.656
			c-0.345,4.732,3.14,9.722,5.472,13.248c2.905-4.294,3.914-10.486,6.624-14.976c-1.755,4.178-2.903,10.288-5.76,14.976
			c-1.065,1.747-3.042,3.074-3.456,4.896c-1.214,5.342,0.583,10.517,5.184,11.521c5.235-5.504,8.892-12.523,12.384-19.584
			c3.536-7.15,7.098-14.714,8.928-23.328C515.42,324.411,509.625,321.855,506.579,316.549z M520.979,326.917
			c0.488-2.2,1.605-3.771,1.728-6.336c-5.264-0.792-8.806-3.959-12.096-6.624c-1.021-0.827-2.095-2.285-3.168-2.016
			C506.405,321.335,515.083,323.497,520.979,326.917z M517.522,143.749c0.152,3.4,0.909,6.195,2.592,8.064
			c-0.466-3.732,0.845-7.216,0.576-9.792C519.833,142.795,518.542,143.137,517.522,143.749z M488.723,172.549
			c-0.038-3.8,0.052-8.946,0-11.808C481.891,160.934,486.405,170.481,488.723,172.549z M623.795,176.869
			c-2.342-2.739-8.903-3.844-12.096-1.44c-2.36,1.776-1.702,4.634-3.168,6.912c0.492-4.116,1.532-7.684,5.472-8.352
			c-0.864,0-1.728,0-2.592,0c-7.904,4.483-4.182,17.786-5.472,28.224c-0.742,6.009-5.101,11.952-8.063,16.704
			c-3.363,5.395-6.463,9.948-11.232,13.824c2.47,1.564,5.06,4.539,5.184,7.488c-1.659-5.637-6.542-8.05-11.808-10.08
			c-1.755,4.965-5.261,8.179-10.368,9.792c1.222,2.729,4.542,5.004,7.776,7.2c2.771,1.882,6.94,5.459,10.08,5.76
			c2.481,0.238,6.025-1.792,7.488-3.168c1.997-1.877,3.602-5.612,5.472-8.928c1.654-2.932,3.613-6.133,5.184-9.216
			c3.63-7.125,5.299-15.292,7.2-21.888c0.371-1.287,1.489-7.182,2.304-8.064c3.133-3.392,6.17-6.51,9.792-8.064
			c-0.168-1.944,0.218-4.441-0.864-5.472c-2.048-0.127-0.848,2.992-1.729,4.032c-1.698,0.514-4.621,1.325-5.472,1.728
			c0.314-1.03,1.725-0.963,2.304-1.728c-3.127-0.713-5.29-2.39-6.912-4.608c0.267-0.885,1.803-0.5,2.304-1.152
			c-0.223-4.233,2.009-6.499,5.184-6.048c1.959,0.278,3.943,4.281,6.624,2.304c-1.059-3.907-8.349-6.513-12.96-3.168
			c-0.276,2.796-1.509,4.636-2.88,6.336c-0.205-0.755-1.644-0.276-1.728-1.152C608.748,175.476,617.597,173.037,623.795,176.869z
			 M616.883,175.429c-4.867,0.159-6.903,4.823-7.488,9.216c3.095,0.215,2.341-3.419,3.456-5.184
			c3.127-3.499,9.646-2.757,12.384,0.576C624.525,177.234,619.765,175.335,616.883,175.429z M548.915,184.357
			c-2.133,2.571-2.869,6.539-5.184,8.928c0.511-3.137,2.121-5.175,2.304-8.64c-1.457,0.983-2.618,2.393-4.32,4.032
			c-1.46,1.406-4.199,3.018-4.896,4.32c-1.225,2.288-0.369,5.56,0.576,7.488c1.078,2.199,2.646,4.158,3.744,6.912
			c1.109,2.781,1.804,5.471,2.592,8.064c0.121-6.215,0.501-12.171,1.44-17.568c-2.703-0.85-6.804-0.301-8.352-2.304
			c2.388,0.972,5.245,1.475,8.352,1.728C545.643,192.595,548.345,187.064,548.915,184.357z M512.339,195.877
			c0.376-0.68,0.122-1.99,0.576-2.592c-1.224,0.25-2.184-1.252-2.88-0.576C511.133,193.435,511.355,195.037,512.339,195.877z
			 M529.907,233.029c-3.302-10.061-10.46-18.604-12.96-29.088c-0.82-3.44-1.321-7.428-3.744-10.368
			c-0.033,1.407,0.155,3.035-0.288,4.032c4.072,7.736,6.441,17.175,7.2,28.224C524.232,227.184,527.512,230.91,529.907,233.029z
			 M517.522,202.789c0.358-3.623-0.958-5.57-1.152-8.64c-0.828,0.402-1.463-0.785-1.728,0
			C515.79,196.842,516.324,200.147,517.522,202.789z M516.659,194.725c0.867,1.725,1.168,4.016,1.728,6.048
			c6.49,1.846,13.784-0.137,17.28-3.168c-3.162,4.278-9.847,5.113-16.992,4.032c-0.059,0.901,0.194,2.114-0.288,2.592
			c4.005,4.355,17.92,1.679,18.72-2.88c0.438-2.496-2.31-4.461-1.439-7.488C531.346,196.491,521.578,194.25,516.659,194.725z
			 M537.395,202.213c-1.354,2.293-4.474,2.822-6.624,4.32c0.715,0.629,1.014,1.675,1.728,2.304c0.355-0.249,0.797-1.854,1.152-1.152
			c-0.134,1.307-1.172,1.708-1.152,3.168c2.342,3.994,5.48,7.192,7.488,11.52c-2.391,1.833-3.914,4.534-7.2,5.472
			c-0.155-6.219-1.604-12.552-0.864-18.72c-0.763-0.678-1.082-1.798-1.728-2.592c-3.985,1.3-9.053,0.237-12.096-1.152
			c2.605,9.315,8.125,15.865,11.232,24.192c0.517,1.385,0.527,3.164,1.152,4.608c0.768,1.773,2.5,3.836,3.744,5.76
			c4.564,7.059,9.808,13.753,9.504,25.056c3.382-4.048,1.775-13.764-0.576-18.432c-1.002-1.99-3.747-4.018-2.304-7.2
			c0.31,4.682,3.206,6.779,4.32,10.656c-2.47-12.026-0.036-28.956-3.744-39.744c-2.45,0.814-3.337,3.191-5.184,4.608
			c0.885-2.667,3.289-3.815,4.896-5.76C540.35,206.362,539.499,203.661,537.395,202.213z M506.291,208.261
			c-4.928,2.944-8.149,7.595-14.4,9.216c7.244,1.205,8.82,8.076,10.656,14.688c0.434-0.431,0.086-1.642,1.152-1.44
			c-1.61,4.026-3.487,7.929-3.168,12.96c0.68,10.715,7.29,17.601,10.08,26.208c1.881-14.167,3.637-30.149,2.304-45.792
			c-2.042-1.318-4.97-1.75-6.912-3.168c2.466-3.937,5.058-11.805,3.456-16.992c-0.951,3.752-4.068,5.34-5.472,8.64
			C504.085,210.472,505.548,209.727,506.291,208.261z M555.827,220.069c2.578,4.143,4.985,8.456,8.352,11.808
			c3.638-2.026,5.139-6.189,6.624-10.368c-4.229-5.083-5.894-12.73-12.96-14.976C557.051,210.926,556.431,215.489,555.827,220.069z
			 M507.155,221.221c1.817,0.679,3.715,1.277,5.76,1.728c-0.458-5.207-0.635-10.692-2.304-14.688
			C510.036,213.159,508.529,217.124,507.155,221.221z M533.651,227.269c1.873-1.679,3.645-3.459,5.76-4.896
			c-2.149-3.803-4.747-7.157-7.2-10.656C532.702,216.89,532.68,222.576,533.651,227.269z M567.923,215.749
			c0.698,1.797,1.857,3.135,3.168,4.32c0.451-1.757,0.729-3.687,0.576-6.048C570.354,213.48,568.599,214.72,567.923,215.749z
			 M564.467,232.741c1.3,0.909,1.292,3.124,2.592,4.032c3.103-3.158,6.387-7.601,5.472-13.824c1.736-1.585,0.555-6.084,0.288-8.352
			c-0.368-0.016-0.399-0.369-0.864-0.288C572.394,222.161,569.449,228.791,564.467,232.741z M490.739,218.053
			c-5.157,3.483-7.378,9.902-9.504,16.416c7.466,0.982,11.826,5.07,16.704,8.64C504.136,235.268,502.056,219.333,490.739,218.053z
			 M550.643,241.381c-0.664-2.312-0.187-5.765-1.728-7.2c-0.308,6.26,1.386,10.518,3.456,14.4c-1.788,0.099-2.881-3.377-3.744-2.304
			c0.521,8.111,3.861,15.42,7.2,20.448c1.008,1.517,2.297,3.875,3.456,3.456c0.913-3.576,0.04-8.115,1.44-11.52
			c1.545-3.757,4.719-5.988,6.048-9.504c4.46-11.796-7.086-19.452-10.944-27.648C553.836,227.87,553.417,235.803,550.643,241.381z
			 M581.171,224.101c-0.859,1.988-3.462,3.228-5.184,3.456c-0.397,4.884-3.565,8.53-4.896,11.52
			C576.839,236.853,580.176,229.161,581.171,224.101z M571.091,232.741c-1.838,2.73-5.568,4.61-3.168,7.2
			c4.405-2.603,6.592-7.424,7.776-13.248c-0.882-0.461-1.159-1.529-2.304-1.728C572.868,227.385,572.645,230.434,571.091,232.741z
			 M515.507,267.013c-0.86,2.896-3.156,6.325-3.168,8.352c-0.017,2.854,3.044,5.607,2.304,8.928
			c5.036,5.62,7.519,13.794,10.368,21.6c3.671-0.553,7.35-1.098,9.216-3.456c0.383-2.308-0.887-4.482-0.288-6.048
			c0.572,0.388-0.09,2.01,0.864,2.016c1.852-12.817,8.721-24.609,7.776-37.728c-0.693-9.62-6.766-17.979-11.52-24.192
			c-1.754-2.292-3.308-5.441-5.184-6.912c-1.756-1.377-4.198-1.398-5.76-3.168C520.264,242.087,519.063,255.033,515.507,267.013z
			 M478.067,244.837c-0.688,1.424-1.468,2.757-2.016,4.32c5.873,1.039,10.53,3.294,13.824,6.912c0.114-1.23,1.275-1.414,1.44-2.592
			C488.647,248.849,484.57,245.63,478.067,244.837z M475.763,249.733c-0.004,0.859-0.749,0.979-0.864,1.728
			c-3.192,0.282-7.847,1.547-10.944,2.88c6.646,1.713,15.741,1.494,22.176-0.576C483.372,251.724,479.813,250.482,475.763,249.733z
			 M547.475,262.693c-0.765-0.674-0.472-2.408-1.152-3.168c0.167,0.935-0.196,1.34-0.288,2.016
			C546.333,261.938,547.177,263.249,547.475,262.693z M543.155,266.437c-1.479,4.284-1.323,11.179-3.456,17.28
			c-1.943,5.558-4.434,11.352-4.896,16.128c-0.966,9.979-2.875,17.506,2.016,23.328c8.628-0.396,14.778-3.27,19.584-7.488
			c-0.113-6.452-0.198-13.985-2.88-19.584c-1.548-3.233-4.421-5.675-4.896-10.08c-0.51-4.731,0.196-10.158,1.728-15.264
			c0.411,3.256-0.943,5.782-1.152,8.928c-0.568,8.572,4.446,14.141,6.048,21.024c2.271-0.128,3.663-1.137,4.608-2.592
			c-1.705-13.175-7.061-22.699-11.52-33.12c-1.11-0.618-1.662-1.794-2.592-2.592C545.387,263.549,543.679,264.919,543.155,266.437z
			 M559.571,278.821c0.964-1.916,2.671-3.088,4.608-4.032c-1.536-0.769-2.814-1.793-4.32-2.592
			C559.44,273.895,559.458,277.551,559.571,278.821z M510.611,277.957c0.04-1.016,0.824-1.288,0.864-2.304
			c-0.337-0.431-0.358-1.178-0.864-1.44C510.997,275.667,509.747,276.98,510.611,277.957z M509.171,311.077
			c2.726,3.706,7.028,8.331,14.112,8.64c5.063-12.907-3.249-25.582-8.64-34.272C514.681,295.851,511.077,302.615,509.171,311.077z
			 M555.539,301.285c0.183,1.257,0.48,2.4,0.864,3.456c2.583,0.278,3.532-1.076,4.608-2.304c-0.289-1.247-0.43-2.643-1.152-3.456
			C559.132,300.463,557.17,300.708,555.539,301.285z M558.131,305.029c1.878,1.866,3.753,3.735,6.336,4.896
			c5.521,6.606,11.245,12.829,14.4,21.312c5.087,13.682,7.042,33.177,7.2,51.84c2.33-7.658,2.481-16.158,3.744-23.616
			c-0.851,8.627,3.83,11.722,6.048,17.28c-2.464-33.35-11.606-61.539-34.56-73.44C560.306,303.94,559.745,305.011,558.131,305.029z
			 M557.267,315.109c2.441-1.207,4.278-3.018,6.048-4.896c-2.044-1.795-3.967-3.713-6.912-4.608
			C556.896,308.567,557.313,311.607,557.267,315.109z M531.347,322.597c1.412-0.154,3.028,0.991,4.032,0.288
			c-1.236-1.644-1.306-4.454-2.592-6.048C532.573,319.023,531.84,320.69,531.347,322.597z M516.371,436.069
			c2.688,12.372,7.125,29.145,0.288,39.744c4.781,4.896,16.55,4.626,25.056,4.031c-8.948,1.983-19.598,0.384-25.632-3.168
			c-0.26,1.468-0.668,2.788-1.152,4.032c6.555,2.949,15.588,3.42,25.344,3.168c5.634-12.868,6.388-29.687,8.064-46.656
			c1.987-20.116,4.065-42.854,2.016-61.632c-4.16-0.057-9.4-1.169-11.52,1.44c-0.106,1.622,0.416,3.872-0.864,4.319
			c-3.843-1.358-9.364-1.132-14.688-1.728c-2.216-0.248-4.209-1.43-6.336-1.44c-1.695-0.008-3.292,0.968-4.896,0.576
			c-2.693-0.657-3.411-4.072-5.184-5.184C507.264,395.091,512.366,417.634,516.371,436.069z M549.779,426.277
			c-0.692,6.867-1.208,14.074-2.016,21.6c-0.428,3.987-1.832,11.162-1.728,16.128c0.078,3.712,0.569,3.78,2.016,4.032
			c2.674,0.465,7.391-9.329,9.216-12.96c3.026-6.019,5.283-10.626,7.488-15.552c10.518-23.503,12.859-50.291,15.264-80.928
			c-4.149,0.202-6.87,5.357-10.656,3.167c-1.218,4.389-4.644,7.072-7.488,10.08c-3.146,3.328-4.774,6.108-10.368,3.744
			C552.522,391.731,551.519,409.018,549.779,426.277z M512.915,570.565c5.224,1.111,10.652-1.38,14.4-1.729
			c0.183-2.679-0.499-4.493-0.288-7.2c-8.553,2.311-12.428-4.673-14.976-10.367c-2.425-5.419-3.438-11.652-3.744-16.416
			c0.19,0.77,0.121,1.799,0.576,2.304c-0.621-5.854,5.165-9.352,5.472-13.248c0.11-1.392-1.168-3.97-1.728-6.048
			c-1.903-7.063-3.724-15.498-4.032-23.328c-4.761,12.131-8.442,23.071-15.552,31.968c-2.325,2.909-6.14,5.047-7.776,8.064
			c-1.861,3.432-1.169,8.533-2.304,12.384c3.181,2.291,7.218,5.261,11.232,5.76c-1.337-0.875-3.87-2.077-4.032-3.168
			C499.3,554.995,506.07,562.818,512.915,570.565z M545.171,473.509c0.953-1.734,2.07-3.306,3.168-4.896
			c-1.179-0.069-1.518-0.979-2.592-1.152C545.859,469.594,544.858,472.135,545.171,473.509z M509.171,539.173
			c1.865,9.271,4.593,17.68,11.52,21.889c2.143-0.065,3.952-0.464,6.336-0.288c-4.126-11.811-8.211-23.661-12.384-35.425
			C511.818,528.957,510.15,533.721,509.171,539.173z M674.771,354.565c-1.109,6.289-0.154,14.777-2.016,19.584
			c0.945,3.523,1.843,6.92,2.592,10.655c0.758,3.775,0.318,8.023,1.44,11.809c0.596,2.013,3.279,5.819,4.896,8.64
			c4.13,7.206,7.968,15.193,19.584,12.96c2.761-5.976,5.506-11.967,10.368-15.84c9.16,0.439,14.044,5.156,19.584,9.216
			c0.565-1.834,1.797-3.003,3.744-3.456c-2.867-3.241-1.055-10.024-3.456-13.248c-0.181,0.876,0.368,2.48-0.288,2.88
			c0.797-8.38-1.063-14.104-4.032-18.72c0.021-1.825-0.121-1.275-0.576-0.288c-0.285-8.931-1.208-17.223-2.016-25.632
			c-4.209,0.769-6.815,3.166-10.08,5.184c-4.195,2.593-7.028,7.036-12.96,6.335c-8.984-1.061-15.464-13.06-19.008-19.583
			C681.429,349.507,675.509,350.384,674.771,354.565z M732.659,569.989c1.533-1.609,5.328-5.313,5.76-6.912
			c1.618-5.997,4.295-12.87,10.944-14.4c-2.456-19.433-0.596-43.181-6.625-59.04c-0.959,0-1.92,0-2.88,0
			c-0.221,1.086,0.352,1.377,0.288,2.305c0.71,0.689,1.264-1.219,2.305-1.152c-4.089,4.743-9.705,7.959-17.28,9.216
			c1.097,1.783,2.1,3.66,2.304,6.336c1.199-0.145,1.681-1.007,2.88-1.151c-0.228,2.915,1.314,4.062,2.017,6.048
			c-0.877-1.08-2.17,0.637-3.456,0.863c0.998,2.843,0.776,6.903,2.304,9.217c2.704-0.08,3.83-1.738,5.76-2.593
			c0.381,2.884,1.529,5,3.168,6.624c-2.208,1.057-4.408,2.12-7.199,2.593c1.484,6.818,3.778,13.464,3.743,19.872
			c-0.025,4.747-2.723,7.732-4.319,10.655c-0.951,1.741-1.49,3.839-2.305,4.896c-0.85,1.103-2.22,1.42-3.168,2.304
			c-2.457,2.292-3.943,5.222-6.336,7.2c1.149,1.442,2.573,2.611,3.456,4.32C726.527,574.25,729.869,572.917,732.659,569.989z
			 M716.531,346.501c0.768,0,1.535,0,2.304,0c1.192-1.495,4.081-1.295,4.896-3.168C721.092,344.15,718.823,345.337,716.531,346.501z
			 M708.467,411.877c4.013-1.46,10.861-1.617,15.264-1.728c-5.297,1.556-10.949-0.058-14.976,2.016
			c-3.539,1.822-3.185,6.389-6.048,8.928c-1.955-0.829-4.796-0.771-7.2-1.151c5.104,25.135,13.552,46.928,22.752,67.968
			c8.405,0.341,14.317-1.811,19.008-5.185c-3.591-6.349-6.793-14.08-7.2-23.327c-0.74-16.861-3.616-35.016-5.76-49.536
			c-2.506-2.582-6.907-3.27-10.368-4.896C711.568,406.532,708.99,409.423,708.467,411.877z M718.259,488.773
			c0.539,0.804,0.546,2.143,1.152,2.88c6.385,0.712,11.46-1.393,15.264-2.305c1.269,1.104,0.861,4.187,0.576,6.049
			c1.747-0.845,3.483-1.701,4.607-3.168c-0.747-3.189-0.894-6.979-2.592-9.217C733.765,487.767,725.872,488.13,718.259,488.773z
			 M734.675,490.213c-4.752,1.621-14.88,2.712-20.16,1.44c1.714,6.158,5.895,9.849,7.776,15.84c1.951,0.224,3.082-0.374,4.607-0.576
			c0.352-3.615-1.918-4.61-2.592-7.2c3.032-1.384,7.137-1.695,9.792-3.456C734.396,494.489,735.607,492.273,734.675,490.213z
			 M715.955,498.277c-0.219,0.837-2.374-0.262-2.592,0.576c3.346,1.742,4.854,6.855,7.775,8.063
			C719.832,503.616,718.016,500.824,715.955,498.277z M718.547,508.069c0.864,1.631,1.753,3.239,2.88,4.607
			c4.607,0.384,7.619-0.829,9.792-2.88c-1.068-0.563-0.657-2.607-1.728-3.168C726.36,507.683,721.633,508.695,718.547,508.069z
			 M723.154,513.253c0.865,3.167,1.844,6.221,3.456,8.64c1.319-0.12,3.251,0.371,3.744-0.575c-1.327-2.32-1.009-6.287-2.016-8.929
			C726.565,512.632,725.338,513.42,723.154,513.253z M725.171,522.469c-0.027,2.523,1.169,3.823,2.592,4.896
			c5.059,0.576,8.658-0.345,11.232-2.88c-1.398-1.099-2.14-2.853-2.88-4.608C733.331,522.111,729.474,522.801,725.171,522.469z"/>
		<path fill-rule="evenodd" clip-rule="evenodd" d="M740.435,144.613c2.446-1.997,9.383-7.961,7.776-14.688
			c-0.964-4.034-8.06-7.683-13.248-8.064c-6.147-0.452-7.807,1.034-11.809,1.44c-3.598,0.365,3.32-1.061,2.305-0.864
			c5.906-1.143,15.104-1.217,19.296,2.016c1.751,1.351,1.995,2.847,4.032,4.896c0.228,8.484-3.868,12.645-8.353,16.416
			c-5.208-7.463-10.665-14.679-23.04-14.976c11.491-0.835,17.624,6.184,22.176,13.248c1.704-13.044-4.671-19.437-16.128-20.16
			C735.353,123.391,741.759,130.904,740.435,144.613z"/>
		<path fill-rule="evenodd" clip-rule="evenodd" d="M701.267,131.653c5.134,3.699,12.305,7.855,20.16,9.792
			c-8.362-1.497-18.165,1.362-23.328,5.76c1.387-0.509,5.654-1.584,8.064-1.728c1.79-0.107,4.267,0.243,1.151,0.288
			c-1.283,0.541-3.475,0.174-4.607,0.864c-5.313,8.031-12.141,14.548-20.16,19.872c6.823-1.433,14.273-4.734,18.72-9.504
			c-0.845,4.083-6.602,4.326-9.504,7.488c-2.569,2.799-2.536,8.673-3.168,13.248c-0.672,4.868-1.624,9.497-2.304,13.824
			c2.999-5.618,5.916-11.792,8.352-18.72c0.063-0.181,0.567-2.693,0.288-0.576c-1.09,8.25-5.946,13.938-9.216,21.312
			c2.196-8.268,0.78-22.643,5.76-29.088c-3.099,0.933-6.034,2.03-9.216,2.88c0.915-2.116,3.431-3.079,5.184-4.608
			c5.121-4.467,10.389-10.023,14.4-15.84c-4.304,1.456-8.798,2.722-11.232,6.048c0.641-2.434,4.41-4.229,7.2-5.472
			c3.592-3.53,9.577-7.114,17.856-6.912c-6-2.448-11.077-5.82-15.84-9.504c6.968,1.48,14.312,2.584,23.04,2.304
			c1.532-0.175,5.613,0.221,2.016,0.288c-0.576,0-1.152,0-1.729,0c-7.67,0.914-15.58-0.329-21.6-2.016
			C701.459,131.653,701.363,131.653,701.267,131.653z"/>
		<path fill-rule="evenodd" clip-rule="evenodd" d="M755.411,228.421c-2.28-4.92-5.22-9.181-4.608-16.992
			c-1.207,2.441-2.445,4.851-2.592,8.352c-1.321-0.407-1.179-2.278-1.44-3.744c-1.124,0.028-0.564,1.739-1.151,2.304
			c2.873,7.02,9.385,10.825,14.688,16.128c3.342,3.342,6.56,6.99,9.504,10.944c8.592,11.539,15.917,26.163,12.097,46.944
			c-1.27-1.707-0.606-5.346-1.152-7.776c-0.263,5.593-0.69,11.022-2.016,15.552c1.95-17.521-2.945-35.768-11.521-46.944
			c-6.942-9.048-16.354-16.455-21.888-27.36c-0.473,0.785-0.467,2.22-0.288,2.88c-3.81-2.622-3.582-9.283-4.32-14.976
			c-3.781,4.146-6.601,13.702-2.016,19.296c-2.523-0.939-3.398-7.211-2.592-11.52c-2.238,1.316-3.828,5.771-6.912,7.2
			c1.078-2.761,2.6-5.08,3.744-7.776c-3.841,3.167-7.188,9.323-13.824,10.656c-1.258,9.067-5.576,15.595-10.368,21.6
			c-3.319,4.159-5.599,8.858-8.353,12.384c-1.053,1.349-3.834,2.705-4.319,4.608c-0.556,2.179-1.252,4.899-2.017,7.488
			c-1.145,3.879-2.741,6.102-2.304,10.656c0.665,6.918,3.261,14.21,6.624,18.72c-1.462,1.83-1.375,6.325-2.592,7.488
			c-3.713,0.799-5.61,3.414-7.776,5.76c-0.262,3.337-0.173,6.07-0.288,8.928c-0.327,8.173,4.152,13.326,4.608,21.6
			c2.515-1.421,4.754-3.118,8.64-3.168c-3.523,0.893-6.252,2.58-9.216,4.032c0.108-3.565-0.799-6.113-1.44-8.928
			c-2.137-1.511-3.952-3.343-6.048-4.896c0.967,9.21,6.331,14.021,12.385,18.144c-6.601-3.384-13.037-9.427-12.96-20.448
			c0.892,2.755,3.326,3.97,5.472,5.472c-1.886-3.552-2.087-9.604-1.729-16.704c0.068-1.335-0.255-2.75,0-3.744
			c0.917-3.564,5.014-4.946,7.488-6.336c1.413-1.947,2.757-4.817,2.304-7.776c-0.18-1.177-1.601-2.578-2.304-4.032
			c-1.681-3.478-4.432-11.245-4.032-16.416c0.349-4.507,3.444-7.047,3.744-12.672c-2.016,2.784-2.928,6.672-5.472,8.928
			c0.138-1.982-2.719-2.565-2.88-4.608c-0.298-3.761,5.357-6.092,8.928-7.2c3.857-8.265,1.438-23.966,2.88-35.136
			c0.683-5.291,4.747-7.569,6.624-11.232c-3.847-0.869-7.504,0.942-10.943,1.44c2.327-1.106,6.073-2.156,9.216-2.592
			c1.155-0.16,2.621,0.714,3.168-0.576c-3.298-3.615-7.912-5.913-10.08-10.656c-1.047,2.587,1.293,4.271,1.728,6.336
			c-3.841-2.111-6.009-5.895-7.2-10.656c-0.877,2.594-0.421,5.862,0,8.64c-2.793-2.007-3.58-6.02-4.031-10.368
			c-1.554,1.71-1.619,4.909-4.032,5.76c4.352-5.825,6.253-15.634,7.775-23.328c0.693,8.994-6.799,17.648-0.575,26.784
			c-0.11-3.369-1.113-10.581,2.016-12.384c-2.298,5.359,1.622,10.717,4.32,13.824c0.11-1.109-1.886-3.358-0.864-5.472
			c-5.228-6.146,1.111-16.728-1.439-25.344c3.371,6.633-1.366,14.709,0.287,21.024c2.148,8.201,9.564,12.627,15.553,17.28
			c9.858-0.509,18.42-2.316,24.768-6.336c0.681-2.391,1.722-4.423,2.304-6.912c-1.425,1.073-3.822,3.664-6.048,4.896
			c2.104-4.747,8.496-10.658,6.048-19.008c-1.146,0.581-0.922,2.534-2.016,3.168c0.825-1.582,2.274-6.977-1.152-7.776
			c0.838,5.366-1.857,9.389-6.048,10.656c1.099,0.703,3.341,0.085,4.32-0.288c-0.163,1.128-4.92,1.501-6.912,0.576
			c-1.561-0.725-1.849-2.628-2.88-3.168c0.344-0.602,0.986,0.911,1.728,0.864c-1.496-3.961-0.746-9.942,3.168-10.944
			c-1.062-0.666-3.355-0.101-4.896-0.288c1.354-0.884,4.416-1.168,6.336-0.576c-5.191-3.353-9.936-7.152-12.096-13.536
			c3.529,7.702,10.376,12.088,17.855,15.84c-1.148-7.107-11.448-5.063-11.52-13.248c0.891,3.717,3.742,5.474,6.912,6.912
			c-0.194-1.25-2.34-3.033-3.456-4.32c3.599,1.683,6.071,6.984,10.943,8.352c0.239-4.462-0.684-7.764-1.151-11.52
			c1.396,3.02,1.487,7.345,1.728,11.52c0.214,1.139,2.889,1.324,2.592,2.016c-1.068-0.18-1.686-0.81-2.592-1.152
			c0.649,4.203,0.263,9.599-0.288,13.536c1.046-1.869,1.88-4.146,2.592-6.624c0.676-2.352,0.593-5.341,2.305-6.912
			c-1.14,10.861-6.171,17.829-10.944,25.056c6.026-4.053,9.495-10.664,13.536-16.704c-0.967,2.241-1.775,3.979-3.168,6.048
			c-1.144,1.698-3.236,3.397-4.032,5.184c-0.609,1.368-0.582,3.349-1.152,4.896c-1.688,4.586-3.682,8.714-6.048,12.96
			c5.544-4.729,9.025-14.015,13.824-20.448c-1.089,1.983-1.918,4.226-3.168,6.048c1.022,4.642,0.51,10.818,2.88,14.112
			c1.1-7.349,1.805-15.091,5.473-19.872c-0.427,3.013-2.805,5.758-1.729,10.656c5.135-9.159,6.884-26.634,3.456-39.168
			c3.684,7.813,2.781,21.191,0.576,29.952c2.684-0.158,6.88-9.427,2.016-10.944c1.222-0.826,2.503,0.752,3.168,1.44
			c-0.759,4.425-1.355,9.012-5.472,10.08c-0.861,6.006,1.045,11.585,2.592,16.128c1.427-8.461,2.383-17.393,7.2-22.464
			c-3.714,4.063-2.832,12.72-3.168,20.16c4.857-13.716,14.821-26.666,10.368-46.08c0.793,1.51,1.173,3.435,1.151,5.76
			c0.649-0.214,0.113-1.615,0.288-2.304c0.68,6.424,3.484,10.723,6.624,14.688c-1.647-7.774-3.961-20.002-1.439-28.224
			c-5.417-3.703-8.143-10.098-9.216-18.144c-3.427-5.492-16.23-6.198-23.041-3.168c6.784-4.239,21.158-2.653,24.192,3.744
			c-0.128,8.672,3.929,13.159,8.353,17.28c-2.07,9.891-0.129,22.354,2.304,30.528c-3.148-4.051-6.876-7.524-7.488-14.112
			c1.266,18.933-9.12,27.74-11.231,42.336c-2.358-2.826-0.617-9.751-1.152-14.4c-1.409,3.646-3.216,10.812-3.168,14.688
			C754.56,226.25,755.393,227.464,755.411,228.421z M759.73,234.469c-4.804-4.804-11.067-8.595-14.399-14.4
			c-0.86,4.939,1.87,7.671,4.032,11.232c6.587,10.854,16.426,16.932,22.464,27.936c4.606,8.396,6.978,17.584,7.775,30.528
			c0.462,1.264,0.257-1.139,0.288-1.44c0.364-3.5,0.04-8.712,0.288-10.656c1.24,2.6,0.555,7.125,1.729,9.792
			C784.121,261.84,771.663,246.401,759.73,234.469z M709.331,224.389c-1.023-0.608-1.517-1.747-2.88-2.016
			c-2.106,4.261-7.143,7.693-7.776,14.112c-0.681,6.888-0.008,13.916-0.576,20.736c0.438-5.565,1.901-11.299,4.32-16.704
			c2.555-5.709,5.065-13.701,10.944-14.976c-0.262-0.079-0.968-1.073-0.288-1.152c1.25,0.862,0.914,3.31,1.439,4.896
			c8.527,2.861,14.605-4.242,17.28-9.504C725.575,222.585,717.855,223.89,709.331,224.389z M713.075,226.405
			c-5.734,1.083-6.141,7.492-8.641,11.808c0.915,1.201,2.818,2.937,2.304,4.608c-0.883-1.325-1.088-3.327-2.88-3.744
			c-4.272,7.439-5.882,19.077-6.624,29.088c5.702-7.642,11.452-15.236,16.416-23.616c-1.405,0.227-2.818,0.445-3.743,1.152
			c0.982-2.056,3.383-1.189,4.896-2.304c2.159-1.593,1.871-4.592,2.592-7.776c-3.09-0.649-4.474-0.394-5.472,2.016
			c0.768,0.289,0.949,1.163,1.44,1.728c-4.492,1.364-4.27,7.443-4.896,12.672c-1.033-0.407-1.635-1.246-2.592-1.728
			c-1.834,2.583-3.004,5.829-4.608,8.64c0.521-3.992,2.776-6.248,4.32-9.216c-0.983-0.457-1.918-0.962-2.304-2.016
			c1.284-2.375,4.8-3.148,5.76-6.048c0.589-1.78-0.383-4.053,0.864-6.048c0.758,0.298,0.97,1.142,1.728,1.44
			C713.469,235.229,714.086,229.168,713.075,226.405z M719.986,230.437c1.273,0.121,2.02-0.286,2.593-0.864
			C721.731,229.877,720.671,229.969,719.986,230.437z M713.363,234.181c1.042,0.493,2.354,0.718,4.031,0.576
			c0.461-1.651,0.218-4.006,2.017-4.32c-1.735,0.422-3.421,0.262-4.896-0.288C714.026,231.389,713.998,233.088,713.363,234.181z
			 M709.907,237.061c0.411,1.765-0.771,3.441,0,4.608c0.556-1.172,1.985-1.471,2.304-2.88
			C711.563,238.165,710.796,236.529,709.907,237.061z M704.146,247.429c0.801,1.696,2.394,2.599,4.032,3.456
			c-0.299-2.702,0.939-5.392,0.288-7.488C707.275,244.99,705.709,246.207,704.146,247.429z M686.579,277.669
			c0.876,1.235,1.635,2.589,3.168,3.168c2.114-2.685,3.319-6.28,5.184-9.216C690.574,272.064,688,274.291,686.579,277.669z
			 M737.267,195.301c0.088-2.2-0.045-4.178-0.288-6.048c-1.221-0.704-3.266-2.103-4.319-2.016
			C734.268,189.662,736.199,193.294,737.267,195.301z M726.61,194.725c-0.335-0.048-0.313-0.456-0.287-0.864
			c-0.385,0-0.769,0-1.152,0C724.894,194.741,726.586,195.097,726.61,194.725z M723.442,195.301
			c0.043,1.068,1.353,1.894,2.305,1.152C726.07,195.018,724.295,194.66,723.442,195.301z M726.898,197.029
			c0.004-0.38,0.505-0.263,0.576-0.576c-0.387-0.189-0.536-0.616-0.576-1.152c-0.339,0.045-0.817-0.049-0.863,0.288
			C727.153,195.827,726.394,196.598,726.898,197.029z M728.915,198.757c-1.859-1.331-4.271-0.704-5.473-2.304
			c-1.154,5.428,5.467,6.56,7.488,3.168c-0.893-0.164-0.757-1.355-1.728-1.44c-0.681,0.081,0.33,0.77,0.288,1.152
			c-1.064,1.059-4.012,1.374-4.032-0.864C727.139,197.266,727.754,200.479,728.915,198.757z M731.507,199.333
			c0.634-1.115-0.16-1.75-1.44-1.728C730.034,198.693,730.63,199.153,731.507,199.333z"/>
		<path fill-rule="evenodd" clip-rule="evenodd" d="M725.171,158.437c4.415,7.297,8.735,14.688,16.416,18.72
			c-4.101-5.116-6.963-13.965-10.368-20.736c2.816,1.109,3.376,6.997,5.184,10.944c1.991,4.345,4.434,8.579,8.353,11.232
			c0.053,0.245-0.112,0.272-0.288,0.288C735.982,175.241,728.699,167.988,725.171,158.437z"/>
		<path fill-rule="evenodd" clip-rule="evenodd" d="M522.995,158.725c-1.402-0.614-3.066-0.965-5.184-0.864
			c3.38,1.106,3.608,8.261,1.728,11.232c0.561,0.635,1.382-0.905,1.728-1.44c-0.019,3.151-5.979,4.939-9.792,3.456
			c0.529-0.695,1.698,0.395,2.88,0c-2.103-1.833-4.789-3.083-5.184-6.624c-1.744,1.65,1.08,3.196,1.44,4.608
			C501.975,163.951,515.422,152.084,522.995,158.725z M518.675,166.213c-1.154-0.521,0.079,0.088,0,0.864
			c-0.597,1.035-1.525,1.738-2.88,2.016c-0.04-0.536-0.189-0.962-0.576-1.152c-0.367,0.689-0.939,1.172-2.016,1.152
			c2.658,2.893,6.859-0.197,6.912-3.456c-1.028-0.084-1.753-0.46-2.304-0.288C518.226,165.51,518.514,165.798,518.675,166.213z
			 M520.115,165.349c0-0.768,0-1.536,0-2.304c-0.501,0.021-0.896-0.064-1.152-0.288c-0.448,1.024,0.978,0.174,0.864,0.864
			c-0.753-0.082-1.239,0.105-1.152,0.864C518.874,165.054,519.443,165.253,520.115,165.349z M514.931,164.197
			c-0.176,0.017-0.341,0.043-0.288,0.288c1.516,0.171,2.51,3.425,3.456,2.304c-1.389-0.509-2.621-2.134-2.88-2.88
			C515.202,164.084,515.176,164.25,514.931,164.197z M514.354,164.773c0.386,1.152,1.458,1.537,2.016,1.728
			C515.175,165.318,515.522,165.496,514.354,164.773z M512.339,166.501c0.042-0.34,0.513-0.653,0-0.864
			c0.172,0.513-0.844,1.196,0,1.44c0.405-0.907,2.093-0.85,2.304-1.152c-0.415,0.154-0.703-1.122-0.864-0.288
			C514.513,166.024,512.627,166.186,512.339,166.501z M511.763,168.229c0.017-0.176,0.043-0.341,0.288-0.288
			c0,0.288,0,0.576,0,0.864c1.844,0.316,3.402-0.894,2.592-2.304C513.138,166.78,511.573,167.818,511.763,168.229z"/>
		<path fill-rule="evenodd" clip-rule="evenodd" d="M690.61,187.237c3.312-3.409,10.391-5.545,12.673-10.944
			C702.598,182.329,695.204,184.15,690.61,187.237z"/>
		<path fill-rule="evenodd" clip-rule="evenodd" d="M707.891,186.949c1.089,2.463,2.512,4.592,3.744,6.912
			c-1.072-7.176-3.45-18.031-1.152-26.208c-0.802,8.165,4.632,13.867,8.064,19.584c-1.166-5.075-3.992-10.983-3.168-19.008
			c-0.036-2.171,0.5-0.289,0.288,0.864c0,1.056,0,2.112,0,3.168c0.527,7.633,3.023,13.297,5.472,19.008
			c-3.445-6.059-9.146-9.862-10.656-17.856c-0.338,8.403,0.102,18.522,3.744,23.904c-3.031-3.017-5.545-6.551-7.2-10.944
			c-3.642-2.768-11.894-1.361-9.792,4.896c-0.948-0.875-0.343-3.305-0.863-4.608c1.961-2.107,7.222-3.213,10.08-1.152
			c-0.427-1.685-1.104-3.121-1.44-4.896c-2.693,1.052-6.129,3.854-9.792,4.896c2.939-2.245,6.724-3.644,9.504-6.048
			c-1.009-3.443-1.486-8.173-0.864-12.384c0.571,3.749,0.07,8.57,1.152,11.808c1.719-0.297,1.748-2.284,3.168-2.88
			c-0.706,1.502-1.54,2.876-2.88,3.744c0.992,3.135,1.671,6.585,4.32,8.064C709.224,188.465,708.433,187.102,707.891,186.949z"/>
		<path fill-rule="evenodd" clip-rule="evenodd" d="M546.323,167.365c0.758,0.298,0.97,1.142,1.728,1.44
			C547.681,169.249,546.325,168.243,546.323,167.365z"/>
		<path fill-rule="evenodd" clip-rule="evenodd" d="M515.795,175.717c0.179,0.781,1.203,0.717,1.152,1.728
			c-0.729-0.131-0.574-1.362-1.728-1.728c0.34-0.775,1.501,0.001,2.016,0c0.805-0.37-0.907-0.595-0.576-1.44
			c0.667,0.582,1.539,0.957,1.728,2.016C517.459,176.165,516.827,175.741,515.795,175.717z"/>
		<path fill-rule="evenodd" clip-rule="evenodd" d="M702.131,197.029c0.885,0.866,2.357-0.125,3.168-0.288
			c-0.66,1.712-6.338,1.81-6.624-0.288c1.069,0.178,1.317,1.178,2.88,0.864c-5.625-2.779-2.852-17.461,4.896-10.08
			C707.246,191.679,705.603,195.92,702.131,197.029z M701.555,192.133c-0.221-0.835-0.455-1.656-1.152-2.016
			c-0.003,0.38-0.504,0.263-0.575,0.576C701.321,190.254,700.623,192.009,701.555,192.133z M701.267,192.421
			c-0.283-0.411-1.813-1.037-2.304-0.288C699.233,193.315,700.672,193.529,701.267,192.421z M705.299,192.997
			c-0.513,0.172-1.196-0.844-1.44,0C704.112,193.622,705.287,194.449,705.299,192.997z M699.539,193.573
			c0.152,3.31,4.339,4.125,5.184,0.864c-1.385-0.233-1.04,1.264-2.592,0.864c-1.166,0.014-0.991-1.313-1.44-2.016
			C700.638,193.711,699.995,193.549,699.539,193.573z"/>
		<path fill-rule="evenodd" clip-rule="evenodd" d="M701.843,200.485c-0.759,0.087-0.945-0.399-0.864-1.152
			c1.234,0.618,1.6,0.215,2.305,0C704.366,201.11,701.646,199.527,701.843,200.485z"/>
		<path fill-rule="evenodd" clip-rule="evenodd" d="M727.763,204.805c0.648,0.696,0.609,2.079,0.864,3.168
			C728.255,208.138,727.84,205.891,727.763,204.805z"/>
		<path fill-rule="evenodd" clip-rule="evenodd" d="M709.043,212.869c1.753-0.596,3.846,0.949,3.744,3.168
			c-0.387,0.514-1.667,0.891-2.305,0.288c0.466-0.428,1.387,0.19,2.017-0.576C712.295,213.841,710.474,213.55,709.043,212.869z"/>
		<path fill-rule="evenodd" clip-rule="evenodd" d="M761.459,253.765c1.488,7.92,3.307,15.509,8.64,19.584
			c0.405,4.533-0.356,7.899-3.168,9.216c1.972,3.425,3.012,7.308,4.32,11.232c1.645,4.933,4.158,9.392,3.744,16.128
			c-0.479,7.802-2.735,16.299-4.608,24.768c-1.82,8.231-4.513,16.566-5.472,23.904c-0.688,5.269,0.611,9.825,1.728,14.976
			c-1.596-2.148-0.974-6.514-2.88-8.353c1.863-14.228,5.817-28.97,8.64-43.776c0.946-4.961,2.405-10.841,2.017-15.264
			c-0.45-5.121-2.669-10.475-4.32-14.976c-1.715-4.675-3.534-9.12-6.048-12.96c1.216-0.153,1.954,2.649,2.592,4.032
			c1.035-0.597,1.342-1.922,2.017-2.88c-8.466-6.422-20.841,0.659-23.616,6.912c3.656,6.519,9.177,11.175,12.672,17.856
			c0.771-0.285,0.357-1.755,1.439-1.728c-7.271,15.332-6.102,39.496-6.336,61.056c-0.427-0.245-0.619-0.725-0.575-1.44
			c-1.062,2.395-1.851,5.063-3.744,6.624c-1.821,5.82-0.765,10.972-4.032,15.265c0.113,2.19,0.694,3.914,1.152,5.76
			c2.924-0.235,1.805-4.192,1.439-6.336c1.207,0.73,0.631-0.535,1.152-1.152c0.391,0.089,0.238,0.721,0.288,1.152
			c1.147-0.43-0.835-2.491,0.576-2.305c1.488,5.503,0.482,8.634-1.152,13.248c-2.025,1.144-4.149,2.188-5.185,4.32
			c6.328-0.398,9.652-6.279,12.097-11.52c0.198-1.158-0.276-1.645-0.288-2.593c0.729,0.327,0.836,1.276,0.864,2.305
			c0.337-0.047,0.243-0.525,0.288-0.864c0.558,1.074,0.182,3.082,0.575,4.32c-1.028,0.66-3.226,3.032-2.304,3.744
			c-3.997,1.579-7.208,5.45-11.808,5.472c0.688-2.863,2.649-4.455,5.184-5.472c0.839-3.335,2.926-6.302,1.44-10.368
			c-1.02,1.284-0.295,4.313-1.152,5.76c-0.789,0.459-1.74,0.756-2.88,0.864c0.207-1.816-1.104-3.894-0.864-6.049
			c0.186-1.662,2.069-3.848,2.592-6.048c0.831-3.491,0.359-7.544,1.44-10.08c0.854-2.002,4.02-4.52,4.32-7.199
			c-0.231-20.246-0.445-41.305,5.472-56.16c-3.046-2.81-4.253-7.459-7.488-10.08c-1.995,0.885-4.408,1.352-7.488,1.152
			c-2.574-3.569-4.031-8.256-5.184-13.248c-3.506,5.413-6.598,12.2-9.216,19.008c-0.834,2.169-2.221,4.633-2.592,6.624
			c-1.007,5.403,0.634,10.941,0.288,16.992c-1.968-8.138-1.838-19.619,0.863-26.784c0.024-0.456-0.139-1.098,0.288-1.152
			c0,0.384,0,0.768,0,1.152c-0.725,1.771-0.805,4.187-1.151,6.336c3.863-7.752,6.903-16.329,11.231-23.616
			c-3.599-5.426-4.499-13.549-8.352-18.72c3.876,3.133,4.799,11.712,8.063,16.416c0.187-4.521-0.876-9.28-0.863-12.672
			c2.591,8.737,1.269,21.387,6.048,27.936c0.439-3.496,0.945-6.926,2.304-9.504c0.862,0.189-0.275,0.616,0,1.152
			c2.178-3.295,6.381-7.059,10.656-9.216c-0.102,0.378-0.507,0.453-0.576,0.864c4.046-1.406,11.722-1.402,14.4,1.152
			c1.071-1.534,0.945-2.995,0-4.896C766.201,268.12,760.413,261.801,761.459,253.765z M743.603,295.237
			c2.569,0.265,4.382-0.227,5.761-1.152c-1.076-2.764-3.769-3.912-4.32-7.2c-0.288,0-0.576,0-0.864,0
			C743.157,289.068,742.575,292.611,743.603,295.237z M751.379,394.885c1.909-1.548,4.36-4.085,3.744-7.2
			C754.604,390.623,751.459,392.467,751.379,394.885z"/>
		<path fill-rule="evenodd" clip-rule="evenodd" d="M670.163,334.117c-0.968,11.041-3.553,24.126-8.353,32.832
			c-0.01,0.018-0.447,1.331-0.863,0.576C665.359,357.729,668.356,346.519,670.163,334.117z"/>
		<path fill-rule="evenodd" clip-rule="evenodd" d="M540.563,335.845c-0.479-0.736-0.773,1.124-1.728,0.864
			c0.548-0.604,0.784-1.52,2.016-1.44c1.003,3.121-2.135,4.319-3.168,6.336C537.653,339.843,540.636,338.609,540.563,335.845z"/>
		<path fill-rule="evenodd" clip-rule="evenodd" d="M650.867,373.573c0.812-5.524,3.502-11.665,5.184-17.28
			c0.695-0.776-1.005,4.207-0.864,5.76C653.763,365.909,652.043,369.469,650.867,373.573z"/>
		<path fill-rule="evenodd" clip-rule="evenodd" d="M707.314,357.733c-2.669,1.345-8.464-0.38-9.792-1.152
			c-0.687-0.399,2.309,0.577,2.305,0.576C701.871,357.554,704.187,357.762,707.314,357.733z"/>
		<path fill-rule="evenodd" clip-rule="evenodd" d="M640.211,381.061c4.513,3.552,9.251,10.909,14.688,13.536
			c-5.21-1.029-6.278-6.201-10.367-8.352c-4.2,7.92-4.99,18.533-6.625,29.376c-2.773,18.396-6.766,41.034-0.864,58.464
			c1.538-0.339,3.728,1.254,6.048,1.44c6.15,0.492,13.487-1.719,17.28-4.032c-0.802-3.326-2.802-5.455-3.456-8.928
			c2.183,4.345,4.985,8.07,6.048,13.535c1.213,0.239,1.28-2.156,2.016-1.439c-2.211,6.429-9.976,7.304-17.855,8.063
			c3.912-1.55,6.338-1.05,10.655-2.016c-0.093-1.73-0.688-2.96-1.439-4.032c-5.634,1.16-13.188,3.007-18.432,0
			c0.569,2.12,1.347,4.029,2.304,5.761c-0.384,0-0.768,0-1.152,0c1.289,8.023,3.469,15.155,6.048,21.888
			c-3.325-5.891-5.594-14.374-6.336-21.888c-0.943-0.978-2.523-1.317-3.456-2.305c2.001,9.038,5.496,16.584,8.928,24.192
			c2.375,0.333,5.431,0.955,7.487,0c-0.321-1.791-0.976-3.248-1.728-4.608c1.106-6.932-0.69-12.247-2.88-16.704
			c5.546,4.157,2.122,15.061,4.896,21.024c2.631-0.441,3.916-2.229,6.336-2.88c0.341,1.472-0.192,3.329,0,5.472
			c-1.232,1.359-2.729,2.454-4.896,2.88c0.113,2.479,0.934,4.25,0.863,6.912c1.041,0.66,2.355-1.872,3.456-1.151
			c0,2.111,0,4.224,0,6.336c-1.043,0.589-1.792,1.472-3.168,1.728c-0.813,6.808,2.706,12.934,1.44,20.16
			c-2.396,2.932-4.246,6.912-7.2,9.792c-4.716,4.598-11.936,5.274-19.008,7.488c3.645,0.771,6.543,2.288,8.352,4.896
			c7.536-0.951,11.983-2.298,16.416-5.76c6.32-4.936,8.249-13.354,19.297-12.96c-2.431-4.564-2.009-9.877-2.593-17.568
			c-0.552-7.281-1.911-14.804-2.016-21.888c-0.151-10.226-0.37-22.554-0.288-33.408c-1.162-1.91-5.518-0.626-6.912-2.304
			c3.1,0.068,5.85,0.486,7.488,2.016c0.732,15.613-0.042,30.72,0.864,46.656c0.18,3.166,1.158,6.273,1.439,9.504
			c0.231,2.657-0.328,5.391,0,8.064c1.054,8.59,9.666,15.473,5.473,25.632c-4.918,2.939-15.311,3.598-20.736,0.576
			c-5.794,5.648-15.082,10.37-27.072,8.352c-0.527-0.089-1.475-0.628-2.304-0.864c-2.589-5.372-0.146-10.841,4.608-12.384
			c3.255-1.057,6.496-1.105,9.792-2.592c4.259-1.921,7.134-4.034,9.792-8.064c1.116-8.556-0.312-16.871-2.88-23.903
			c3.026,6.011,4.996,13.758,3.456,22.752c1.204-0.836,3.037-3.068,3.456-5.185c1.151-5.808-2.107-13.297-1.728-18.144
			c-5.225,1.396-10.566-1.333-9.792-7.776c0.772-0.688,1.53,0.385,2.304,0.576c-0.41-5.83-4.673-9.343-5.472-13.824
			c0.075-1.355,1.297,0.181,1.728,0.288c-2.86-8.18-6.088-15.991-8.352-24.768c1.555-0.173,1.341-2.116,2.592-2.593
			c-1.377-8.197-3.905-14.842-3.456-25.056c1-22.74,4.774-47.714,10.656-65.088c-1.771-1.686-5.684-1.229-8.353-2.016
			c-4.299,0.053-1.845-0.446,0.864-0.288c2.018,0.117,4.898,0.801,5.76,1.151C642.372,383.884,640.848,382.158,640.211,381.061z
			 M641.075,475.813c-1.332-0.305-2.368-1.696-3.745-0.864c4.14,7.408,20.371-3.507,21.312,4.896
			c4.293-0.686,4.216-5.61,1.729-8.352C656.698,475.298,647.305,477.238,641.075,475.813z M636.467,479.845
			c-0.825-0.039,0.249-1.977-0.576-2.016C634.682,478.382,635.884,480.436,636.467,479.845z M641.362,503.461
			c0.566,1.931,1.37,3.622,2.305,5.185c4.505,1.646,12.069,1.129,14.111-2.305c-0.187-1.35,0.377-3.448-0.287-4.319
			C654.434,504.894,645.521,506.866,641.362,503.461z M647.699,517.861c0.356-3.717-1.181-5.54-2.017-8.064
			c-0.339,0.045-0.817-0.05-0.864,0.288C645.775,512.681,646.489,515.519,647.699,517.861z M646.259,510.373
			c1.361,1.998,2.258,4.463,2.592,7.488c1.879,0.15,3.278-0.178,4.608-0.576c0.145-2.833-0.084-5.293-0.576-7.488
			C651.173,510.487,647.918,509.633,646.259,510.373z M648.274,519.301c-1.339-0.258-3.288-2.771-3.743-2.016
			c-0.916,7.916,9.628,7.851,12.96,3.744c-0.224-1.697,0.195-4.036-0.864-4.896C654.801,518.147,650.946,518.132,648.274,519.301z
			 M674.482,548.101c-1.52,0.095-5.168-0.3-7.199,0.288c-2.245,0.65-4.688,3.594-6.336,5.473
			c-6.267,7.145-11.104,11.735-23.617,12.384c-2.029-2.291-3.532-5.107-8.64-4.32c-2.35,1.597-2.437,6.602-1.152,9.504
			c17.331,5.305,24.428-8.225,36-10.367c-2.057,1.111-4.935,1.401-6.624,2.88c5.802,1.939,15.583,2.067,20.448-0.864
			C678.177,557.4,677.353,551.037,674.482,548.101z"/>
	</g>
</g>
</svg>
