<?xml version="1.0" encoding="utf-8"?>
<!-- Generator: Adobe Illustrator 14.0.0, SVG Export Plug-In . SVG Version: 6.00 Build 43363)  -->
<!DOCTYPE svg PUBLIC "-//W3C//DTD SVG 1.1//EN" "http://www.w3.org/Graphics/SVG/1.1/DTD/svg11.dtd">
<svg version="1.1" id="图层_1" xmlns="http://www.w3.org/2000/svg" xmlns:xlink="http://www.w3.org/1999/xlink" x="0px" y="0px"
	 width="1280px" height="720px" viewBox="0 0 1280 720" enable-background="new 0 0 1280 720" xml:space="preserve">
<g>
	<g>
		<path fill-rule="evenodd" clip-rule="evenodd" d="M552.454,155.933c-0.144,1.35,0.488,3.475-0.96,3.52
			c-2.159-7.065-10.978-1.598-11.52,3.2c-0.206-4.737,7.021-11.417,11.52-5.76C552.261,157.019,551.316,155.435,552.454,155.933z"/>
		<path fill-rule="evenodd" clip-rule="evenodd" d="M547.974,165.853c0.809-0.337,1.418,1.079,0.64,1.28c-0.213,0-0.426,0-0.64,0
			C548.507,166.497,547.945,166.726,547.974,165.853z"/>
		<path fill-rule="evenodd" clip-rule="evenodd" d="M547.974,166.492c-0.169,0.257-0.334,0.52-0.32,0.96
			c-0.574,0.041-0.675-0.392-1.28-0.32c0.208-0.325,0.736-0.331,0.64-0.96C547.271,166.342,547.533,166.506,547.974,166.492z"/>
		<path fill-rule="evenodd" clip-rule="evenodd" d="M524.294,172.572c-0.769,0.539-1.858-1.33-2.88-1.6
			c0.547-0.933,1.165,0.725,2.24,0.32C523.079,172.205,524.024,171.403,524.294,172.572z"/>
		<path fill-rule="evenodd" clip-rule="evenodd" d="M521.094,172.252c0.57-0.548,2.171,0.587,2.24,1.6c-0.427,0-0.854,0-1.28,0
			c0.009-0.312,0.392-0.249,0.64-0.32C522.441,172.825,521.575,172.731,521.094,172.252z"/>
		<path fill-rule="evenodd" clip-rule="evenodd" d="M535.814,172.252c0.32,0,0.64,0,0.96,0c0.042,0.789,0.048,1.542-0.32,1.92
			C535.636,174.137,535.819,173.101,535.814,172.252z"/>
		<path fill-rule="evenodd" clip-rule="evenodd" d="M519.174,172.572c0.667,0.613,1.333,1.227,1.6,2.24
			c-0.771,0.131-0.696-0.584-1.6-0.32C520.37,173.839,518.97,173.91,519.174,172.572z"/>
		<path fill-rule="evenodd" clip-rule="evenodd" d="M540.934,181.853c1.688,1.157-1.404,2.207-2.56,2.56
			C539.164,183.496,540.428,183.053,540.934,181.853z"/>
		<path fill-rule="evenodd" clip-rule="evenodd" d="M629.894,181.853c1.524,1.142,2.696,2.637,3.2,4.8
			C631.441,185.639,630.807,183.606,629.894,181.853z"/>
		<path fill-rule="evenodd" clip-rule="evenodd" d="M527.494,184.732c1.687,0.659,3.942,0.751,6.4,0.64
			C532.527,186.2,528.001,186.65,527.494,184.732z"/>
		<path fill-rule="evenodd" clip-rule="evenodd" d="M730.054,206.172c0.966-0.494,0.842,1.656,0.32,1.6
			C729.221,208.079,729.807,206.391,730.054,206.172z"/>
		<path fill-rule="evenodd" clip-rule="evenodd" d="M740.614,215.452c0.527,3.333-1.896,6.401-4.16,8
			c-7.097,0.59-8.858-4.154-9.92-9.6c0.563-0.29,0.528-1.178,1.279-1.28C732.643,212.97,737.461,213.379,740.614,215.452z
			 M727.174,213.532c-0.157,1.437,0.162,2.398,0.32,3.52c1.174-1.172,1.823-2.87,3.2-3.84
			C729.408,212.881,728.053,212.722,727.174,213.532z M728.134,217.692c1.16,7.481,12.853,6.531,11.84-2.24
			C735.326,214.13,729.453,211.952,728.134,217.692z"/>
		<path fill-rule="evenodd" clip-rule="evenodd" d="M532.934,220.252c-1.789-1.949-6.032-0.867-8.64-1.28
			C527.424,218.33,531.683,217.215,532.934,220.252z"/>
		<path fill-rule="evenodd" clip-rule="evenodd" d="M536.134,219.612c2.061,1.246,2.798,3.815,4.16,5.76
			c-0.668,1.464-1.735,2.531-3.2,3.2C536.598,225.762,536.426,222.627,536.134,219.612z M537.734,227.612
			c0.442-0.944,1.478-1.295,1.92-2.24c-0.963-1.064-1.397-2.656-2.56-3.52C537.173,223.907,537.242,225.971,537.734,227.612z"/>
		<path fill-rule="evenodd" clip-rule="evenodd" d="M703.813,226.972c5.1-0.618,7.682,4.051,12.801,4.48
			C711.596,231.99,708.878,227.456,703.813,226.972z"/>
		<path fill-rule="evenodd" clip-rule="evenodd" d="M763.334,236.893c4.871,2.891,10.831,3.792,15.04,7.04
			c2.236,1.725,2.842,5.157,6.08,5.44c0.943,4.709,2.462,8.845,4.8,12.16c-3.184-2.256-4.156-6.724-5.12-11.2
			c-0.446-0.514-1.579-0.341-1.92-0.96C778.375,242.758,769.619,241.061,763.334,236.893z"/>
		<path fill-rule="evenodd" clip-rule="evenodd" d="M524.294,248.732c3.48,0.68,6.596,1.724,8.96,3.52
			c-1.027,2.172-3.424,2.976-5.12,4.48C527.66,253.26,525.294,251.679,524.294,248.732z M529.094,255.132
			c0.51-1.41,2.361-1.479,2.88-2.88c-2.081-0.377-4.25-2.357-6.08-1.92C527.605,251.288,527.773,253.786,529.094,255.132z"/>
		<path fill-rule="evenodd" clip-rule="evenodd" d="M535.174,249.692c0.32,0,0.64,0,0.96,0c0.911,6.244,4.868,11.122,6.08,16
			c-3.695-1.852-6.783-4.31-9.92-6.72C533.826,256.451,535.048,253.619,535.174,249.692z M533.254,258.652
			c2.435,1.725,4.925,3.395,7.36,5.12c-1.841-3.385-3.35-7.103-4.8-10.88C535.3,255.152,534.78,257.405,533.254,258.652z"/>
		<path fill-rule="evenodd" clip-rule="evenodd" d="M530.054,257.373c0.33,2.443,1.12,4.427,2.24,6.08
			c-2.667,2.987-4.834,6.473-8.64,8.32c0.281-2.414-0.297-3.97-0.96-5.44C524.9,263.099,526.759,259.517,530.054,257.373z
			 M523.654,266.012c0.577,1.236,0.82,2.807,1.28,4.16c2-2.267,4.133-4.4,6.4-6.4c-1.035-1.312-1.364-3.33-2.24-4.8
			C527.438,261.477,525.576,263.775,523.654,266.012z"/>
		<path fill-rule="evenodd" clip-rule="evenodd" d="M542.534,268.572c-2.709-1.024-5.222-2.245-8.32-2.88
			c-2.889,2.337-4.486,5.968-7.04,8.64c0.784-3.271,4.303-6.576,6.08-9.92C536.715,265.431,540.622,266.005,542.534,268.572z"/>
		<path fill-rule="evenodd" clip-rule="evenodd" d="M738.694,265.692c0.517-0.09,0.551,0.302,0.96,0.32
			c0.302,5.788,3.088,10.764,3.84,15.04c-3.443-1.037-6.227-2.733-9.92-3.52C734.876,273.181,736.692,269.344,738.694,265.692z
			 M734.854,276.893c2.648,0.658,4.796,1.817,7.36,2.56c-1.598-3.522-2.45-7.79-3.52-11.84
			C737.406,270.698,735.791,273.456,734.854,276.893z"/>
		<path fill-rule="evenodd" clip-rule="evenodd" d="M541.254,275.932c-1.679,4.192-10.426,6.037-16.32,3.52
			C530.694,280.245,537.749,279.239,541.254,275.932z"/>
		<path fill-rule="evenodd" clip-rule="evenodd" d="M753.414,277.853c-1.444,3.223-2.875,6.664-4.16,10.24
			c-1.229,3.42-2.047,7.185-4.16,9.92c-0.757-2.23-1.701-4.482-2.56-7.04c-0.683-2.032-2.622-5.388-2.24-7.04
			c0.309-1.336,2.671-2.043,4.16-2.88C747.163,279.531,749.21,276.826,753.414,277.853z M741.254,283.612
			c1.294,4.252,2.394,8.7,4.48,12.16c1.297-6.383,3.999-11.36,6.079-16.96c0.337-0.018,0.252-0.41-0.319-0.32
			C747.457,279.575,744.967,282.205,741.254,283.612z"/>
		<path fill-rule="evenodd" clip-rule="evenodd" d="M724.294,293.853c-0.48-2.347,1.883-4.478,2.24-7.04
			c4.117-1.335,7.671-4.898,11.52-5.44c-0.394,2.059-0.54,4.366-0.64,6.72C734.302,291.273,729.509,292.774,724.294,293.853z
			 M736.134,282.652c-3.868,3.065-10.043,3.823-10.88,9.92c4.477-0.857,8.301-2.366,11.2-4.8
			C735.916,285.956,737.803,283.506,736.134,282.652z"/>
		<path fill-rule="evenodd" clip-rule="evenodd" d="M737.094,291.932c2.641,2.693,4.299,6.368,6.4,9.6
			c-2.491-2.416-4.763-5.05-6.08-8.64c-5.208,0.979-8.986,3.387-13.44,5.12C727.305,294.943,731.926,293.165,737.094,291.932z"/>
		<path fill-rule="evenodd" clip-rule="evenodd" d="M707.014,335.452c-0.372,0.052-0.569-0.07-0.64-0.32
			c-1.374-1.046-2.366-3.032-3.2-4.8c-0.913-1.936-2.149-3.542-2.88-5.12c-1.469-3.176,2.048-9.891,3.84-13.44
			c1.969-3.898,4.538-7.116,6.4-9.6c-3.143,6.352-9.114,12.645-9.601,22.72C703.994,327.378,704.263,332.657,707.014,335.452z"/>
		<path fill-rule="evenodd" clip-rule="evenodd" d="M550.214,317.853c0.293,0.662-0.208,2.358,0.64,3.2
			c-0.564-0.289-0.991-0.716-1.28-1.28C549.42,318.766,550.03,318.521,550.214,317.853z"/>
		<path fill-rule="evenodd" clip-rule="evenodd" d="M750.534,339.932c-0.429,4.886,0.94,9.373,3.2,12.48
			C750.963,349.681,749.184,345.048,750.534,339.932z"/>
		<path fill-rule="evenodd" clip-rule="evenodd" d="M679.494,343.132c0.372-0.052,0.569,0.071,0.64,0.32
			c-5.83,11.983-13.533,22.093-24.32,29.12c0.743,0.645,1.609,1.165,1.921,2.24c1.015,8.757-0.493,17.306-3.841,22.72
			c2.025-5.245,6.302-18.835,1.28-25.28C666.375,365.64,673.134,354.586,679.494,343.132z"/>
		<path fill-rule="evenodd" clip-rule="evenodd" d="M476.614,345.052c0.74,0.327,0.662,1.471,0.64,2.56
			C475.992,347.808,476.877,345.855,476.614,345.052z"/>
		<path fill-rule="evenodd" clip-rule="evenodd" d="M475.654,349.212c-0.169,3.14-4.174,5.21-8.32,5.44
			C470.31,353.042,474.29,352.435,475.654,349.212z"/>
		<path fill-rule="evenodd" clip-rule="evenodd" d="M747.334,367.133c-7.525,1.327-12.028,5.679-17.6,8.96
			C733.252,373.239,741.803,366.084,747.334,367.133z"/>
		<path fill-rule="evenodd" clip-rule="evenodd" d="M656.454,378.652c0.394,0.14,0.657,0.409,0.64,0.96
			c-3.298,4.915-7.352,9.075-11.84,12.8c0.353,5.301,2.186,9.121,4.16,12.8c-0.175,1.147-1.828-1.339-2.561,0.641
			c-1.118-0.733,1.001-0.89,0.96-1.601c-1.251-3.868-2.769-7.471-3.199-12.159C649.575,388.627,653.315,383.94,656.454,378.652z"/>
		<path fill-rule="evenodd" clip-rule="evenodd" d="M812.614,413.212c1.29,0.562,0.863,5.058,0.64,7.681
			C812.3,419.073,813.568,415.031,812.614,413.212z"/>
		<path fill-rule="evenodd" clip-rule="evenodd" d="M671.494,418.652c2.709-1.134,4.663,0.746,6.72,1.92
			C676.383,420.799,674.233,418.583,671.494,418.652z"/>
		<path fill-rule="evenodd" clip-rule="evenodd" d="M811.974,421.212c0.675,1.962-1.795,3.534-1.6,6.08
			C809.201,425.943,811.613,423.111,811.974,421.212z"/>
		<path fill-rule="evenodd" clip-rule="evenodd" d="M522.694,104.092c-0.24,1.093,1.3,0.407,0.96,1.6
			c-4.143-0.349-13.282-4.148-17.92-4.8c-1.198-0.168-2.752-0.115-3.84,0c-8.855,0.934-17.245,7.785-26.56,7.68
			c5.777,2.437,15.101,1.326,23.04,1.6c-6.771,1.355-13.462-0.517-17.28,3.2c-5.309,5.169-12.688,16.336-13.76,25.92
			c-0.804,7.191,0.052,12.537-3.84,16.96c-0.874-1.353,1.014-2.409,1.6-3.84c1.252-3.059,1.309-6.569,1.6-10.88
			c0.913-13.518,8.636-22.557,15.68-30.08c0.896-0.17,1.664-0.47,2.56-0.64c-4.489-0.312-8.181-1.419-12.48-1.92
			c10.231-0.175,19.016-7.574,28.8-8.64c7.282-0.793,11.849,3.247,18.88,3.84c-3.551-4.938-14.183-10.128-10.24-19.84
			c3.302-8.133,19.2-10.153,27.52-5.44c-16.409-2.763-24.871,15.781-15.04,24.96c7.579-8.735,25.513-1.67,31.68,4.16
			c5.062,4.785,8.792,10.408,13.44,15.68c0.3,0.341,1.58,1.14,0.96,1.92c-6.678-6.917-12.863-19.133-25.28-23.04
			C536.078,100.26,527.092,98.758,522.694,104.092z M510.214,91.933c3.142,3.685,6.315,9.044,10.24,10.88
			c-1.789-2.586-4.378-6.073-3.52-10.24c0.443,0.196,0.048,1.232,0.64,1.28c0.302-11.004,7.874-14.739,17.92-16
			C523.229,75.529,508.487,77.264,510.214,91.933z"/>
		<path fill-rule="evenodd" clip-rule="evenodd" d="M567.174,124.252c-3.229,0.133-6.026-2.932-8.96-4.16
			c9.229,10.261,15.436,34.082,9.6,52.8c-1.157-3.537-1.98-7.407-2.88-11.2c-2.925,7.997,0.797,20.831,0.96,28.8
			c-3.225-4.242-4.729-10.205-6.4-16c-3.693,19.454-4.366,41.928-6.72,62.72c1.509,2.224,2.446,5.021,2.24,8.96
			c5.161-13.089,5.016-32.298,10.24-46.4c-3.831,0.284-5.613,0.718-8.96,0.32c3.009-0.511,6.484-0.556,9.6-0.96
			c-0.175,2.63-2.36,5.937-2.56,9.6c4.576,2.144,8.125,5.315,9.92,10.24c1.53,0.074,3.165-2.331,5.44-2.56
			c3.767,2.103,0.869,7.919,1.92,11.2c1.885,5.881,7.359,3.257,9.6-0.96c-0.704,2.709-1.293,5.534-2.24,8
			c1.615,1.585,4.236,2.164,6.4,3.2c5.158-3.229,8.765-8.828,12.48-14.72c3.088-4.897,8.208-12.153,8.96-18.24
			c1.082-8.756-1.2-18.148,1.28-26.56c2.095-1.578,2.547-4.528,4.8-5.44c2.413-0.977,11.301,0.088,13.44,1.6
			c0.679,0.48,1.402,2.144,1.92,2.56c1.329,1.068,1.184,4.073,3.2,5.12c-0.13,1.134-1.399,0.632-0.64,1.92
			c0.669,4.293,2.064,8.487,1.6,12.8c-0.134,1.243-0.904,2.351-0.96,3.52c-0.128,2.68,0.547,6.019,0.96,8.32
			c1.198,6.682,3.988,14.091,7.04,20.16c3.983,7.924,9.566,13.769,8,25.28c0.5-12.438-6.075-19.638-10.24-28.48
			c-3.652-7.754-4.438-15.397-6.72-24.96c2.108-4.638,1.113-12.024-0.64-16.96c-0.465-0.49-2.688,0.537-3.52-0.32
			c-0.994,0.286-0.321,2.239-0.96,2.88c-0.705-0.726-0.374-3.131,0.32-3.52c-1.941-2.363-5.609-2.134-7.36,0.32
			c0.793,0.7,2.473,0.514,2.56,1.92c-0.263,1.343-1.531-1.311-3.2-0.64c0,0.854,0,1.707,0,2.56c1.994,1.419,4.23,2.596,7.36,2.88
			c-4.403,2.03-5.903-3.235-9.92-1.6c1.276,1.972,5.52,5.296,9.6,4.48c0.224-3.079,2.136-5.313,4.48-4.48
			c-0.454,2.593,0.822,5.144,0,7.04c-2.469,2.225-6.627,2.76-8,6.08c1.402,13.229,1.106,27.823,3.84,40.64
			c1.352,6.337,3.519,12.342,4.8,17.92c1.009,4.395-0.13,9.438,4.16,10.24c1.332,0.249,2.115-0.441,3.521-0.64
			c12.626-1.789,24.287-7.655,34.88-12.48c-0.111-5.504-1.344-11.492-4.16-14.4c-1.02-1.053-4.005-2.87-5.76-2.88
			c-4.329-0.026-9.011,5.815-14.721,4.48c4.738-0.703,8.116-2.765,12.16-4.16c-0.134-0.719-1.697-0.009-1.92-0.64
			c11.805-5.198,25.93-6.413,36.48-12.48c-6.452,3.682-13.218,7.049-21.12,9.28c1.951-1.036,4.497-1.477,6.399-2.56
			c-6.927,0.433-13.43,4.063-20.479,5.44c2.627,0.573,6.357,0.042,7.68,1.92c-0.128-0.832-0.954-0.965-0.96-1.92
			c6.821,5.454,9.523,20.642,5.12,30.72c0.799,0.042,1.957-2.303,3.2-2.88c6.627,0.334,5.446-7.14,7.68-11.2
			c0.493,1.354-0.99,3.482-0.96,5.44c3.935-5.453,10.339-11.208,14.08-17.92c-2.823,3.386-2.595,7.59-4.16,11.52
			c-0.14,0.352-0.869,0.591-0.96,0.96c-2.063,8.399-0.04,18.376-1.279,28.48c-0.551,4.481-3.386,9.264-3.841,14.72
			c-0.544,6.531,1.585,11.873,1.601,17.6c-0.885-3.063-1.43-6.464-1.601-10.24c-1.711,5.862-0.676,14.47-4.479,18.24
			c1.354-0.25,3.07-2.899,4.16-4.48c-1.263,3.372-4.402,6.417-7.36,9.6c-3.62,3.896-6.015,8.466-10.88,10.56
			c3.724,1.929,8.352,2.955,11.2,5.76c2.204,5.049,5.247,9.259,6.08,15.68c4.516-2.746,7.224-10.05,13.76-11.84
			c-1.938,1.688-4.659,2.594-6.08,4.8c1.615,10.55,8.23,22.565,16,27.52c1.821,1.162,7.51,3.218,10.88,1.921
			c2.953-1.137,5.973-4.336,9.28-6.4c3.413-2.131,6.833-3.896,9.6-6.08c0.729-0.155,1.635-0.635,2.24,0
			c-0.445-2.755-0.392-6.009-0.96-8.64c-3.002,0.017-5.316,4.027-8.32,1.92c-6.092,2.654-14.209,3.284-22.399,3.84
			c10.991-2.245,21.734-2.314,29.439-7.36c4.271-2.796,5.114-8.272,9.92-10.24c-2.777,2.876-5.438,5.869-8,8.96
			c2.064,13.854,0.593,27.77,3.84,39.68c1.538,5.639,5.746,9.315,4.16,17.28c2.968,1.571,1.426,5.277,1.92,9.279
			c0.49,3.972,3.304,6.379,3.521,9.28c-0.752-0.314-0.531-1.603-1.601-1.6c-2.194,0.365-3.214,1.905-3.84,3.84
			c-4.809-1.432-6.67-6.437-11.84-8.32c-2.879-1.049-7.935-2.487-10.24-1.92c-2.278,0.562-7.818,9.395-8.96,11.84
			c-0.991,2.125-0.895,4.406-2.56,5.76c-2.228,0.405-4.737-0.222-7.68,0c2.126,1.607,6.479,0.988,9.279,1.921
			c2.663-6.511,5.955-12.393,10.88-16.641c0.832-0.842-0.517-0.252-0.319-1.28c4.319,0.686,7.09,1.951,10.239,3.521
			c4.352,2.168,5.995,5.763,11.841,6.4c1.558-1.855,3.662-3.165,6.399-3.841c-2.059,1.568-5.079,2.175-6.08,4.801
			c-3.62-0.434-5.818-2.288-8.319-3.841c3.782,18.407,5.299,40.92,7.359,60.801c0.437,4.206,1.563,7.617,2.88,10.88
			c1.994,4.935,5.854,8.988,6.4,15.68c1.401-0.403,3.079-0.403,4.48,0c5.637,16.84,3.387,42.476,6.72,62.72
			c0.672,4.08,2.337,7.079,0.96,10.88c1.315,2.738,1.365,6.741,3.2,8.96c1.015,10.615-9.849,9.353-18.24,10.561
			c5.006-1.81,10.571-0.645,14.399-2.88c5.385-3.145,1.506-10.34,0.641-16c-0.945,0.975-1.061,2.779-1.28,4.479
			c-0.631-3.186,3.638-11.029-0.96-12.16c-3.709-0.911-9.869,10.325-10.56,12.801c-0.362,1.298-0.008,2.817-0.32,3.52
			c-1.003,2.256-4.9,4.9-7.04,7.04c-4.029,4.029-7.177,5.158-10.24,8.96c-1.589-7.387-13.152-9.509-17.279-3.2
			c1.547-3.796,9.044-6.354,13.439-2.56c5.397-7.957,17.438-15.284,17.6-28.48c0.086-6.948-2.067-15.067-4.159-21.439
			c-1.493,0-2.987,0-4.48,0c-0.139,5.126,3.486,9.958,3.84,15.68c0.169,2.729-1.233,5.538-2.239,8.32
			c-0.959,2.649-1.435,5.525-2.561,8c-0.708,1.555-2.439,3.173-3.52,4.8c-2.658,4.003-5.877,8.344-10.561,10.24
			c-3.644,1.475-6.431,2.08-8.96,5.439c-5.094,6.768,0.582,11.951,7.36,12.48c18.691,1.458,19.894-15.311,31.359-19.84
			c-1.059,0.956-5.396,3.238-5.76,4.479c-0.296,1.013,1.467-0.385-0.64,0.96c-1.487,0.949-1.662,2.632-2.88,4.16
			c-6.775,8.501-23.467,16.719-32.32,5.44c-0.189-5.787,3.496-10.354,7.36-12.48c1.539-0.847,3.331-0.886,4.8-1.6
			c4.199-2.043,6.621-5.383,9.28-9.601c1.223-1.94,3.557-3.934,4.159-5.76c1.383-4.187,4.602-10.354,4.16-15.68
			c-0.334-4.035-2.14-9.429-3.52-13.12c-1.014-2.713-2.672-5.333-3.84-8.64c-0.506-1.253,0.83-0.663,0.96-1.28
			c-1.028-2.599-1.532-5.722-2.561-8.32c-2.744-1.202-4.189-3.704-5.439-6.399c-0.187-1.146,0.946-0.974,1.92-0.961
			c-2.023-4.163-5.418-6.955-8.32-10.239c1.742,0.095,2.926,0.577,4.16-0.32c-0.688-2.619-2.245-4.368-2.24-7.68
			c1.72-0.862,2.918,1.268,4.8,1.279c-1.813-8.645-5.434-16.365-8.64-24.96c-2.129-5.704-4.662-11.36-6.72-17.279
			c-4.133-11.883-7.099-24.488-10.561-37.44c-9.203-4.022-12.917-13.536-17.92-21.76c-1.154-0.126-2.146-0.414-3.2-0.64
			c-5.229,11.212-6.489,24.252-10.56,37.119c-1.708,5.399-4.013,11.675-6.08,17.92c-2.439,7.371-6.765,15.096-4.48,22.08
			c-3.456-3.625,0.887-13.582,2.881-19.52c3.622-10.789,7.761-20.91,10.239-32.32c2.013-9.265,3.028-18.207,7.04-25.279
			c-2.763,0.649-5.397,1.429-7.04,3.199c-2.361-1.371-3.972-3.494-6.08-5.12c1.653,0.592,4.246,3.006,6.08,4.48
			c2.452-1.815,5.354-3.181,9.92-2.88c-0.164-1.072-1.388-2.086-1.6-4.16c-1.409-13.802-3.98-28.364-8.96-38.72
			c1.69,0.766,2.731,4.946,3.52,7.68c1.261-5.096-2.752-8.621-1.92-13.439c0.287-1.662,2.013-2.729,2.561-4.48
			c1.282-4.099-0.61-8.803,1.6-12.8c-1.666,4.537,0.273,8.717-0.96,12.8c-0.578,1.915-2.662,3.265-2.88,5.12
			c-0.335,2.855,2.063,5.342,2.561,8.64c0.515,3.417-0.573,6.424,0.64,9.92c1.907-7.184,0.028-15.135,2.24-21.12
			c1.741-4.712,7.185-5.818,8.96-10.239c-0.864-2.229-1.877-4.311-1.92-7.36c-1.787,1.566-6.034,4.998-6.4,8
			c-3.485-10.382-6.316-21.417-18.88-22.72c6.025-3.468,9.023-9.964,14.08-14.4c2.769-7.105,4.983-16.185,4.8-25.28
			c-0.132-6.549,3.041-11.476,3.84-17.28c1.639-11.907-1.691-23.892,3.2-33.28c-2.837,1.707-4.525,4.057-6.4,6.72
			c-1.77,2.515-3.234,6.274-5.439,8.32c-1.396,1.295-3.134,1.054-4.8,1.92c-1.84,0.956-2.567,3.52-4.801,4.16
			c-0.526-4.807-1.849-8.817-5.76-10.24c-5.479,2.684-14.066,5.947-21.76,7.68c-5.229,1.178-9.358,2.701-12.16-1.28
			c-4.739-19.767-9.339-41.997-9.28-64.96c-4.176,1.767-5.216,11.243-6.72,16.64c-2.672,9.591-6.562,17.899-10.88,25.6
			c-3.251,5.798-7.398,16.411-15.68,16.32c-4.208-0.046-8.678-4.54-11.84-6.72c-4.015-2.768-7.216-5.008-10.56-7.68
			c2.509,11.515-6.802,15.022-8,23.36c-0.502,3.492,0.492,6.513-0.96,10.88c1.151,2.388,5.908,2.083,6.4,4.16
			c-1.211,1.491-2.599,1.194-3.84,1.92c-4.364,2.552-3.924,9.656-2.56,15.36c0.41,1.263-0.932,0.774-0.96,1.6
			c0.957,3.843,2.494,7.106,3.2,11.2c10.173,5.795,16.639,15.722,25.6,22.72c1.059,0.826,2.521,1.037,3.52,1.92
			c2.949,2.607,5.03,6.677,8,9.6c3.041,2.992,6.154,5.672,10.24,7.36c0.155,1.115-1.562,0.358-1.6,1.28
			c-1.736,6.584-5.296,11.344-10.88,14.08c4.481-4.052,8.808-8.259,10.88-14.72c-9.993-7.821-18.003-17.624-27.52-25.92
			c9.854,11.832,14.384,29.933,17.92,49.6c1.125,6.255,3.1,12.808,2.24,19.2c-2.95-3.877-4.801-8.853-7.04-13.44
			c-1.732,7.441-2.919,15.428-4.8,22.721c-1.831-4.4-0.368-10.467-0.64-16.641c-1.16-26.377-6.055-50.983-19.84-64.64
			c-5.154,4.979-9.366,10.9-15.04,15.36c-11.704-1.25-17.945,2.962-27.84,3.52c-6.931,16.108-14.89,31.189-24.96,44.16
			c2.759,2.461,3.108,7.896,7.36,8.64c1.165,0.204,2.607-0.603,3.84-0.64c2.75-0.084,5.65,1.211,8.64,1.28
			c5.275,0.122,10.581-0.51,14.72,1.6c1.272-7.261,0.439-16.628,1.92-23.68c-2.162,5.518-4.138,11.222-7.36,15.68
			c4.037-8.55,8.041-19.905,10.24-31.36c-0.82,10.61-4.458,21.341-3.2,34.24c5.052-3.654,16.274,1.276,21.12-0.96
			c5.375-2.48,9.644-9.698,12.16-15.36c-3.734-6.186-7.37-12.47-8.32-21.439c2.565,8.634,5.236,17.164,10.88,22.72
			c3.701-2.699,8.373-4.427,13.12-6.08c0.838,0.964-2.079,0.895-2.56,1.601c-2.091,53.589-14.624,96.735-38.4,128.64
			c-0.569,0.284-0.813,0.894-1.92,0.64c-0.854,3.52-2.68,6.067-3.2,9.92c3.447,0.032,8.619-0.979,10.88-3.199
			c-1.495-2.771-4.795-3.738-7.68-5.12c4.617,1.24,9.517,2.451,8.32,11.2c-0.361,2.643-1.984,4.962-2.88,7.68
			c-5.542,16.805-5.812,43.967-4.8,66.24c0.306,6.739,0.374,10.236,4.16,14.079c0,1.387,0,2.773,0,4.16
			c3.927,3.174,8.115,5.178,12.16,8.641c3.598,3.08,7.256,7.67,11.2,9.6c5.184,2.536,13.181,1.618,16.96,5.12
			c4.522,4.189,1.042,12.447-3.84,14.08c-4.535,1.517-16.115,2.316-19.84,0.96c-2.072-0.755-4.356-2.737-6.72-4.16
			c-6.107-3.675-15.104-7.669-19.2-12.479c4.44,4.346,12.888,7.748,19.2,11.52c3.045,1.819,5.471,4.66,9.6,5.12
			c4.901,0.546,14.493-0.243,18.24-2.561c3.151-1.948,5.277-6.821,2.88-10.88c-2.489-4.214-11.863-3.81-16.96-6.08
			c-3.336-1.485-6.349-5.205-9.6-8c-4.557-3.917-8.831-6.397-13.44-9.6c-0.529,0.345,0.109,2.216,0.64,2.56
			c-2.942,0.044-1.24-4.521-1.6-6.72c-0.483-2.957-3.533-4.765-4.16-7.359c-0.918-3.804-0.136-8.61-0.32-12.801
			c-0.772-17.562-0.194-38.007,2.88-53.439c1.358-6.817,4.152-12.012,4.48-20.48c-12.839,6.166-36.701,2.678-46.4-4.16
			c-2.23,42.55,13.672,66.969,22.72,98.24c-1.127-0.579-1.203-2.21-1.6-3.52c-1.26,5.094,0.704,9.21-0.64,13.76
			c-0.829,2.808-3.265,4.303-3.52,6.72c-0.24,2.276,0.252,5.027,1.28,6.721c3.208,5.287,14.229,3.069,20.16,5.119
			c-7.073,0.095-15.335-0.455-20.48-3.84c-5.079-8.541,3.099-12.504,2.24-21.439c-4.637-0.082-10.781,3.089-15.68,1.279
			c-2.829-1.045-6.831-6.611-9.28-9.279c-2.82-3.072-5.95-7.088-9.28-8.96c-3.15-1.772-6.218-1.933-8.64-3.2
			c-2.411-1.263-4.44-2.594-7.04-4.8c1.337-3.981-0.221-11.332,2.56-15.36c2.484-3.598,6.708-4.854,9.28-8
			c7.787-9.523,10.629-21.71,16.32-34.56c-0.135-1.096,0.958-0.962,1.28-1.601c-0.445-6.382-0.441-13.212-0.96-19.52
			c1.624-2.003,5.161-2.093,8.96-1.92c0.33,0.664-3.236,0.166-4.48,0.319c-1.279,0.428-2.736,0.678-3.2,1.92
			c0.943,2.258,3.426,2.974,5.44,4.16c3.56-7.149,7.106-14.945,6.4-24.96c-0.462-6.558-2.393-13.68-3.84-20.479
			c-1.429-6.716-2.763-13.454-4.16-20.16c-2.819-13.529-5.766-27.932-6.72-41.92c-0.292-4.277,0.802-9.231-0.64-13.44
			c-3.223,3.817-6.04,8.04-9.28,11.84c17.018-24.909,36.93-48.923,40.64-86.72c-2.483,0.187-5.47,2.635-9.28,2.56
			c-0.743,1.358,0.181,2.453,0,4.16c1.812,0.404,5.835,0.343,7.68-0.96c-0.08,1.631-4.476,1.707-7.04,1.92
			c-0.335,3.913-3.837,7.412-2.24,11.2c-0.507,0.027-1.221-0.154-1.28,0.32c-2.74,12.713-8.12,24.551-13.76,35.52
			c-6.211,12.081-13.034,24.101-23.36,31.681c0.348,5.681-1.362,9.305-3.2,12.8c2.335-1.08,4.74-4.858,7.04-7.04
			c-1.898,2.689-4.746,7.2-8.32,9.28c1.728-4.268,4.393-8.501,3.52-14.4c4.637-3.576,8.405-8.021,11.84-12.8
			c-7.461,0.376-8.798-13.73-4.16-17.601c-1.306-5.305-6.099-9.425-5.76-15.359c0.269-4.705,5.14-9.611,8.64-14.08
			c4.069-5.196,9.453-9.477,8.32-17.28c3.065-3.876,5.951-10.15,7.36-17.6c1.604-8.478,2.57-16.404-0.64-22.4
			c-3.499,6.252-4.755,13.627-7.36,20.48c-2.553,6.718-5.303,13.205-8.32,19.2c-2.144-1.475,4.364-9.208-0.32-11.52
			c2.238-0.545,2.565,3.875,1.92,6.4c4.007-7.727,7.724-15.743,9.6-25.6c-3.865,6.055-6.423,13.417-11.2,18.56
			c3.236-6.988,9.472-13.629,11.84-21.44c3.141-10.36-0.133-19.674-4.8-27.52c-3.187-5.356-4.619-10.753-5.12-17.92
			c-0.726,0.661-1.137,1.637-1.6,2.56c0.6,2.173,1.646,3.901,2.24,6.08c-2.875,0.966-4.487,3.193-7.68,3.84
			c1.944-1.47,4.416-2.411,6.4-3.84c-0.561-2.279-1.201-4.509-2.56-6.4c-2.821-3.926-12.814-9.527-17.92-8.64
			c-0.957-1.795-5.482-0.897-7.04-0.32c-1.668,5.542,4.114,6.781,4.8,9.92c6.399,1.174,10.945,4.201,13.76,8.96
			c0.717,0.852,1.604-0.453,2.24,0.32c-6.525,3.693-3.136,13.133,0.96,17.6c-3.392-1.195-5.397-3.776-8-5.76
			c-3.419,6.928-6.812,13.881-9.28,21.76c3.764,15.046,1.081,34.873,5.76,48.96c1.116,3.361,4.175,7.278,3.52,11.52
			c-0.324,2.101-2.449,3.464-3.52,5.44c-1.583,2.918-3.35,8.116-2.88,11.2c0.438,2.876,3.853,3.683,3.52,7.04
			c-4.763,0.441-7.899-5.065-7.04-10.239c0.203,5.13,2.36,8.306,6.08,9.92c0.793-2.292-2.063-3.693-2.88-5.44
			c-1.742-7.668,4.759-13.273,5.76-17.28c0.79-3.165-0.497-8.452-3.2-10.56c0.553-1.981-0.577-4.197-0.96-6.4
			c-2.021-11.627-2.468-24.554-3.52-38.08c-0.442-5.682-2.977-10.514-5.44-14.08c1.765,0.585,3.419,4.045,4.16,6.72
			c3.215-6.918,5.857-14.41,9.6-20.8c-1.773-2.813-4.405-4.768-5.76-8c2.533,1.947,3.365,5.595,6.72,6.72
			c-0.433,1.991,2.522,3.19,3.84,4.48c-1.993-2.886-1.313-9.904-4.16-12.48c-4.198,1.241-9.639,1.241-15.04,1.28
			c-4.352,9.801-12.409,17.061-13.44,29.44c-1.602,19.24,8.234,34.263,11.52,49.6c1.682-0.024,2.597-0.816,3.84-1.28
			c-2.16,3.054-6.539,1.331-8.64,4.16c-0.871,1.172-0.568,3.033-1.28,4.16c-1.757,2.779-5.085,3.016-6.72,5.76
			c0.973,3.043-0.791,6.887,1.6,8.32c2.636-0.347,2.469-4.855,1.92-7.359c0.06-1.533,0.557,0.549,1.6,0
			c1.866-0.268,2.265-2.002,4.16-2.24c-1.471,4.994-6.305,10.61-6.08,16.96c0.047,1.343,1.074,2.382,1.28,3.84
			c0.313,2.213-1.133,5.369,0.96,6.72c3.012-2.073,0.938-6.576,1.28-9.92c0.541-5.281,3.124-8.691,5.76-11.84
			c-0.808,3.408-4.668,6.891-4.8,12.8c-0.045,2.044,0.27,5.082,0.64,7.36c0.364,2.241,1.02,5.991,3.52,5.76
			c-0.827-6.961-0.981-18.278,3.84-22.399c-0.861,2.903-4.106,7.901-3.84,12.16c0.173,2.774,2.008,7.332,5.44,6.72
			c-3.979-5.015-2.522-14.154,2.88-16.641c-3.834,3.814-6.497,11.563-2.24,16.641c-0.556,0.83-2.125,0.648-3.52,0.64
			c-0.924-1.423-1.802-2.892-2.24-4.8c-1.295,2.726,1.148,6.049,0.32,8.32c-3.58,1.101-3.757-3.04-4.48-5.761
			c-1.102-0.788-0.687,2.152-2.88,1.28c-2.163-1.079-0.988-4.008-1.28-6.08c-0.204-1.45-1.181-2.848-1.28-4.16
			c-0.397-5.233,2.883-10.739,4.16-14.72c-3.661-0.354-1.633,4.98-2.88,7.04c-1.301,0.686-2.748,0.114-3.84-0.32
			c0.867-2.75-1.276-5.306-0.96-7.68c0.369-2.772,4.022-3.157,6.08-5.76c2.203-2.787,2.268-7.357,6.72-7.68
			c-2.663-16.009-13.5-31.549-11.52-50.88c1.154-11.268,9.652-17.58,12.48-27.84c-3.748-0.519-7.558-0.976-10.88-1.92
			c6.439-2.947,16.115-2.658,17.28-10.88c-1.454-3.452-4.677-5.136-4.48-10.24c1.785-0.926,5.095-1.885,7.68-0.96
			c3.453-6.926,4.639-14.689,10.56-18.88c1.677-1.187,4.838-1.84,7.04-2.88c4.958-2.342,7.945-7.142,12.8-9.6
			c0.426-1.387,0.983-2.644,1.92-3.52c-0.583-1.846-0.987-4.002-2.24-5.44c-0.6-0.688-1.523-0.683-2.24-1.28
			c-2.024-1.687-3.773-4.559-5.76-6.72c-1.998-2.173-4.448-4.004-5.76-6.72c3.934,3.64,7.182,7.965,11.2,11.52
			c-2.784-5.022-7.487-9.768-6.72-17.28c-2.076-3.578-4.772-6.534-5.44-11.52c3.99,9.876,11.178,16.555,20.16,21.44
			c-4.954-5.606-11.616-13.983-11.84-24.32c-3.333-4.247-7.713-9.13-7.68-15.68c2.38,9.673,8.289,15.818,14.72,21.44
			c-4.682-7.992-10.293-20.107-7.04-32c-0.706,3.465-0.245,8.285,0,11.84c-0.094-7.988,1.677-14.11,5.12-18.56
			c-2.532,6.457-6.982,18.341-2.88,26.88c6.038-4.522,10.983-10.137,13.76-17.92c-0.281-1.491,1.055,0.216,0.96-0.64
			c-1.968-0.228-4.965,2.593-7.04,4.48c-2.261,2.056-4.503,4.281-5.76,6.72c2.157-5.203,7.356-10.136,12.8-13.12
			c-0.283-3.376,0.299-5.888,1.28-8c0.586,1.979-1.225,4.318-0.64,7.36c2.922,0.04,5.401-3.13,6.72-5.76
			c-0.903-4.218-1.916-8.325-3.52-11.84c1.214,0.397,1.496,2.285,1.92,3.52c3.323,9.673,5.383,27.019,0.96,38.72
			c5.863-7.684,8.462-21.405,10.56-33.92c0.971,3.147-1.066,6.086-0.96,9.28c0.067,2.015,1.205,3.986,1.28,6.08
			c0.134,3.71-0.862,6.999-1.28,10.88c3.077-3.324,4.784-10.789,6.72-16.32c0.442-1.295-0.694-1.012-0.64-1.92
			c2.336-0.757,1.14-5.046,1.92-7.36c0.892,1.966-0.459,4.441,0,7.04c5.099,0.981,7.987,4.173,11.52,6.72
			c-3.203-1.279-6.613-5.119-11.52-5.76c-1.458,2.162,0.055,4.505,1.28,5.76c4.823,4.94,13.952,8.316,19.84,12.16
			c-2.954-5.047-9.643-10.836-8-20.48c-6.392-4.808-13.479-8.921-16.96-16.64c6.061,7.273,12.849,13.818,21.44,18.56
			c-5.001-6.732-13.845-12.395-14.4-24.64c2.351,11.623,9.774,18.173,16.32,25.6c0.992-0.032,1.529,0.391,2.24,0.64
			c-2.926,0.256-5.845-2.26-8.32-3.52c0.065,9.961,4.988,15.064,8.96,21.12c0.906,0.053,1.333,0.586,2.24,0.64
			c-4.245-0.13-8.36-3.159-12.16-4.8c-0.412,12.586,3.74,24.349-3.52,31.36c0.146,2.04-1.029,4.735-1.6,7.04
			c2.389-2.944,2.804-7.862,6.72-9.28c-0.505,0.775-1.145,1.415-1.92,1.92c-0.364,4.465-3.01,8.381-4.16,13.12
			c-3.226,13.301-2.432,35.382-1.6,51.2c1.126,21.421,8.063,35.032,14.72,50.56c0.944-4.816,0.53-10.99,1.6-15.68
			c-7.088-7.738-11.779-17.874-13.12-31.36c1.484-0.092,2.417,3.126,4.16,3.84c-7.205-10.661-1.536-28.07-0.64-43.52
			c0.44-7.578,0.208-14.748,1.6-21.44c-1.424,4.017-2.459,10.126-2.88,14.08c0.501-15.498,5.835-26.164,5.76-42.24
			c-0.061,10.759,1.461,19.285,5.44,26.56c0.277-6.546-2.621-15.516-1.92-23.04c0.259-2.78,1.895-5.309,0-7.68
			c2.573,3.614,4.15,8.224,4.48,14.08c2.342-4.586,2.141-11.604,1.6-18.56c-1.024-13.166-5.358-26.767-12.16-32.96
			c-2.458,0.209-4.627,0.707-6.72,1.28C556.472,116.755,562.452,122.209,567.174,124.252z M679.813,269.853
			c0.399-4.026,2.908-7.475,1.601-12.16c-2.924,1.022-5.651,2.242-8,3.84C677.6,262.253,677.909,266.851,679.813,269.853z
			 M558.534,343.452c3.215-2.202,7.387-7.793,10.56-11.52c2.447-2.874,4.909-4.814,0.64-6.4c-9.723,6.743-18.469,16.038-36.48,13.44
			c-0.409,2.898-1.589,5.024-2.24,7.68C539.838,347.666,547.061,341.887,558.534,343.452z M506.054,331.612
			c-1.033,7.266-5.864,9.854-9.92,15.04c-2.854,3.649-6.736,7.669-7.04,11.84c-0.383,5.259,3.489,10.803,6.08,14.72
			c3.228-4.771,4.349-11.65,7.36-16.64c-1.951,4.643-3.226,11.432-6.4,16.64c-1.183,1.941-3.38,3.415-3.84,5.44
			c-1.349,5.936,0.648,11.686,5.76,12.8c5.817-6.114,9.88-13.914,13.76-21.76c3.929-7.944,7.886-16.35,9.92-25.92
			C515.878,340.348,509.438,337.508,506.054,331.612z M522.054,343.132c0.542-2.445,1.784-4.19,1.92-7.04
			c-5.849-0.88-9.785-4.399-13.44-7.36c-1.134-0.918-2.328-2.539-3.52-2.24C505.861,336.93,515.503,339.333,522.054,343.132z
			 M498.374,180.572c-0.051,9.118,5.181,12.952,8.64,18.56c-1.278-4.483-4.497-8.729-6.4-11.52
			c13.404,14.238,14.727,44.737,13.12,71.36c-0.487,8.065-3.971,20.519-1.6,25.92c4.767-11.957,7.634-26.305,8.32-41.92
			c1.194-27.154-7.785-49.66-21.44-61.44c4.159,3.094,7.482,7.025,10.24,11.52c7.645,1.513,19.106,5.379,27.52,2.24
			c2.629-0.981,6.708-4.541,8.64-6.4c4.608-4.433,9.758-11.939,9.6-19.2c-0.132-6.063-3.093-11.567-0.96-18.24
			c-4.767-3.126-9.85-5.937-13.12-10.56c-2.076,7.098-5.373,14.68-9.6,18.56c3.259-3.782,2.786-13,2.24-19.52
			c-0.561,4.48-2.036,8.869-3.521,12.8c-1.476,3.91-2.599,8.466-6.08,10.56c1.713-8.465,2.987-20.87,0.96-30.08
			c-2.051,3.721-3.488,10.172-3.52,16.32c-2.44-1.72-3.168-5.152-4.16-8.32c-2.83,8.157-7.671,14.302-14.4,18.56
			c2.144,5.216,3.98,10.74,8.32,13.76c-1.814-1.079-4.204-1.986-6.08-3.52c-1.563-1.278-2.887-4.096-4.16-3.84
			c2.532,10.481,6.899,19.127,14.4,24.64C508.25,188.83,503.636,184.377,498.374,180.572z M518.214,139.612
			c0.169,3.778,1.01,6.884,2.88,8.96c-0.518-4.146,0.939-8.018,0.64-10.88C520.781,138.553,519.347,138.932,518.214,139.612z
			 M636.294,176.412c-2.603-3.043-9.892-4.271-13.44-1.6c-2.622,1.974-1.891,5.149-3.52,7.68c0.546-4.573,1.702-8.538,6.08-9.28
			c-0.96,0-1.92,0-2.88,0c-8.783,4.981-4.647,19.762-6.08,31.36c-0.825,6.677-5.668,13.28-8.96,18.56
			c-3.737,5.994-7.181,11.053-12.48,15.36c2.744,1.738,5.622,5.043,5.76,8.32c-1.844-6.263-7.269-8.944-13.12-11.2
			c-1.95,5.517-5.846,9.087-11.52,10.88c1.358,3.033,5.047,5.56,8.64,8c3.08,2.091,7.711,6.066,11.2,6.4
			c2.757,0.264,6.694-1.992,8.32-3.52c2.218-2.086,4.001-6.235,6.08-9.92c1.838-3.258,4.014-6.814,5.76-10.24
			c4.034-7.917,5.888-16.991,8-24.32c0.412-1.43,1.655-7.98,2.56-8.96c3.482-3.77,6.856-7.234,10.88-8.96
			c-0.186-2.16,0.242-4.935-0.96-6.08c-2.275-0.142-0.942,3.325-1.92,4.48c-1.886,0.571-5.135,1.472-6.08,1.92
			c0.35-1.144,1.917-1.07,2.56-1.92c-3.475-0.792-5.878-2.655-7.68-5.12c0.297-0.983,2.003-0.556,2.56-1.28
			c-0.247-4.703,2.232-7.22,5.76-6.72c2.177,0.309,4.382,4.756,7.36,2.56c-1.176-4.342-9.276-7.236-14.4-3.52
			c-0.307,3.106-1.676,5.15-3.2,7.04c-0.228-0.839-1.827-0.307-1.92-1.28C619.575,174.865,629.408,172.154,636.294,176.412z
			 M628.614,174.813c-5.408,0.176-7.669,5.359-8.32,10.24c3.439,0.239,2.601-3.799,3.84-5.76c3.475-3.887,10.718-3.063,13.76,0.64
			C637.105,176.818,631.816,174.708,628.614,174.813z M553.094,184.732c-2.37,2.857-3.188,7.265-5.76,9.92
			c0.568-3.485,2.356-5.75,2.56-9.6c-1.619,1.092-2.91,2.659-4.8,4.48c-1.622,1.563-4.666,3.354-5.44,4.8
			c-1.36,2.542-0.41,6.178,0.64,8.32c1.197,2.443,2.939,4.62,4.16,7.68c1.232,3.09,2.004,6.078,2.88,8.96
			c0.134-6.906,0.557-13.523,1.6-19.52c-3.003-0.944-7.56-0.334-9.28-2.56c2.653,1.08,5.828,1.639,9.28,1.92
			C549.458,193.886,552.46,187.741,553.094,184.732z M512.454,197.532c0.418-0.755,0.135-2.211,0.64-2.88
			c-1.36,0.278-2.427-1.392-3.2-0.64C511.114,194.819,511.361,196.599,512.454,197.532z M531.974,238.813
			c-3.669-11.179-11.623-20.67-14.4-32.32c-0.912-3.822-1.468-8.253-4.16-11.52c-0.037,1.563,0.172,3.373-0.32,4.48
			c4.525,8.596,7.157,19.083,8,31.36C525.669,232.318,529.313,236.458,531.974,238.813z M518.214,205.212
			c0.398-4.025-1.064-6.188-1.28-9.6c-0.92,0.447-1.625-0.872-1.92,0C516.288,198.604,516.882,202.277,518.214,205.212z
			 M517.254,196.252c0.963,1.917,1.298,4.462,1.92,6.72c7.211,2.052,15.315-0.152,19.2-3.52c-3.513,4.753-10.941,5.681-18.88,4.48
			c-0.065,1.001,0.216,2.349-0.32,2.88c4.45,4.839,19.911,1.865,20.8-3.2c0.486-2.772-2.567-4.957-1.6-8.32
			C533.573,198.215,522.72,195.724,517.254,196.252z M540.294,204.572c-1.505,2.548-4.971,3.136-7.36,4.8
			c0.794,0.699,1.126,1.86,1.92,2.56c0.394-0.276,0.886-2.061,1.28-1.28c-0.148,1.452-1.302,1.897-1.28,3.52
			c2.602,4.438,6.089,7.991,8.32,12.8c-2.656,2.038-4.349,5.038-8,6.08c-0.172-6.91-1.782-13.947-0.96-20.8
			c-0.847-0.753-1.202-1.999-1.92-2.88c-4.428,1.444-10.059,0.263-13.44-1.28c2.895,10.35,9.028,17.628,12.48,26.88
			c0.574,1.539,0.585,3.515,1.28,5.12c0.854,1.971,2.778,4.263,4.16,6.4c5.072,7.843,10.897,15.282,10.56,27.84
			c3.757-4.498,1.972-15.293-0.64-20.48c-1.113-2.211-4.163-4.465-2.56-8c0.345,5.202,3.562,7.531,4.8,11.84
			c-2.745-13.362-0.04-32.173-4.16-44.16c-2.723,0.904-3.708,3.545-5.76,5.12c0.983-2.963,3.654-4.239,5.44-6.4
			C543.577,209.183,542.632,206.181,540.294,204.572z M505.734,211.292c-5.476,3.271-9.055,8.438-16,10.24
			c8.048,1.338,9.801,8.973,11.84,16.32c0.482-0.479,0.096-1.825,1.28-1.6c-1.789,4.473-3.875,8.81-3.52,14.4
			c0.756,11.905,8.099,19.556,11.2,29.12c2.09-15.74,4.041-33.499,2.56-50.88c-2.269-1.465-5.522-1.945-7.68-3.52
			c2.74-4.374,5.62-13.117,3.84-18.88c-1.057,4.169-4.52,5.934-6.08,9.6C503.283,213.749,504.909,212.921,505.734,211.292z
			 M560.774,224.412c2.864,4.603,5.539,9.395,9.28,13.12c4.042-2.251,5.71-6.876,7.36-11.52c-4.698-5.648-6.549-14.145-14.4-16.64
			C562.135,214.253,561.445,219.323,560.774,224.412z M506.694,225.692c2.019,0.754,4.128,1.419,6.4,1.92
			c-0.508-5.785-0.706-11.88-2.56-16.32C509.896,216.734,508.221,221.14,506.694,225.692z M536.134,232.412
			c2.082-1.865,4.05-3.843,6.4-5.44c-2.389-4.225-5.275-7.952-8-11.84C535.079,220.88,535.055,227.198,536.134,232.412z
			 M574.214,219.612c0.776,1.997,2.063,3.483,3.52,4.8c0.501-1.952,0.811-4.096,0.64-6.72
			C576.915,217.091,574.965,218.469,574.214,219.612z M570.374,238.492c1.444,1.009,1.436,3.471,2.88,4.48
			c3.447-3.509,7.097-8.445,6.08-15.36c1.929-1.762,0.617-6.761,0.32-9.28c-0.409-0.018-0.443-0.41-0.96-0.32
			C579.182,226.737,575.91,234.104,570.374,238.492z M488.454,222.172c-5.73,3.871-8.198,11.002-10.56,18.24
			c8.296,1.091,13.14,5.634,18.56,9.6C503.339,241.3,501.029,223.595,488.454,222.172z M555.014,248.092
			c-0.737-2.569-0.208-6.406-1.92-8c-0.342,6.956,1.54,11.687,3.84,16c-1.987,0.11-3.202-3.752-4.16-2.56
			c0.58,9.013,4.29,17.133,8,22.72c1.12,1.686,2.552,4.307,3.84,3.84c1.015-3.973,0.044-9.017,1.6-12.8
			c1.717-4.175,5.243-6.653,6.72-10.56c4.955-13.107-7.874-21.614-12.16-30.72C558.562,233.08,558.096,241.895,555.014,248.092z
			 M588.934,228.893c-0.954,2.209-3.847,3.586-5.76,3.84c-0.441,5.426-3.961,9.478-5.44,12.8
			C584.121,243.061,587.829,234.515,588.934,228.893z M577.734,238.492c-2.042,3.033-6.187,5.123-3.52,8
			c4.895-2.892,7.325-8.249,8.64-14.72c-0.98-0.513-1.288-1.699-2.56-1.92C579.709,232.541,579.46,235.929,577.734,238.492z
			 M515.974,276.572c-0.956,3.218-3.507,7.027-3.52,9.28c-0.019,3.17,3.382,6.23,2.56,9.92c5.595,6.244,8.354,15.326,11.52,24
			c4.078-0.615,8.167-1.22,10.24-3.84c0.425-2.564-0.986-4.98-0.32-6.72c0.635,0.432-0.101,2.234,0.96,2.24
			c2.058-14.241,9.69-27.343,8.64-41.92c-0.77-10.689-7.517-19.976-12.8-26.88c-1.949-2.547-3.676-6.046-5.76-7.68
			c-1.952-1.53-4.666-1.553-6.4-3.52C521.26,248.877,519.926,263.262,515.974,276.572z M474.374,251.932
			c-0.765,1.583-1.63,3.063-2.24,4.8c6.526,1.154,11.7,3.66,15.36,7.68c0.126-1.366,1.416-1.57,1.6-2.88
			C486.13,256.39,481.6,252.813,474.374,251.932z M471.814,257.373c-0.005,0.955-0.832,1.088-0.96,1.92
			c-3.547,0.313-8.719,1.719-12.16,3.2c7.385,1.904,17.49,1.66,24.64-0.64C480.269,259.584,476.314,258.205,471.814,257.373z
			 M551.494,271.772c-0.851-0.75-0.524-2.676-1.28-3.52c0.186,1.039-0.218,1.489-0.32,2.24
			C550.225,270.933,551.163,272.39,551.494,271.772z M546.694,275.932c-1.644,4.76-1.47,12.421-3.84,19.2
			c-2.159,6.175-4.926,12.613-5.44,17.92c-1.073,11.087-3.195,19.451,2.24,25.92c9.587-0.439,16.42-3.633,21.76-8.32
			c-0.126-7.169-0.22-15.539-3.2-21.76c-1.721-3.593-4.913-6.306-5.44-11.2c-0.566-5.257,0.218-11.286,1.92-16.96
			c0.457,3.617-1.048,6.425-1.28,9.92c-0.631,9.525,4.94,15.713,6.72,23.36c2.524-0.143,4.07-1.263,5.12-2.88
			c-1.894-14.639-7.846-25.221-12.8-36.8c-1.233-0.687-1.847-1.993-2.88-2.88C549.174,272.724,547.276,274.247,546.694,275.932z
			 M564.934,289.692c1.071-2.129,2.968-3.432,5.12-4.48c-1.706-0.854-3.127-1.993-4.8-2.88
			C564.79,284.219,564.809,288.281,564.934,289.692z M510.534,288.732c0.044-1.129,0.916-1.431,0.96-2.56
			c-0.375-0.479-0.398-1.309-0.96-1.6C510.962,286.188,509.574,287.647,510.534,288.732z M508.934,325.532
			c3.029,4.118,7.809,9.257,15.68,9.6c5.626-14.341-3.61-28.424-9.6-38.08C515.056,308.615,511.052,316.13,508.934,325.532z
			 M560.454,314.652c0.203,1.396,0.533,2.667,0.96,3.84c2.87,0.31,3.924-1.195,5.12-2.56c-0.322-1.385-0.478-2.936-1.28-3.84
			C564.447,313.739,562.267,314.012,560.454,314.652z M563.334,318.813c2.087,2.073,4.17,4.15,7.04,5.44
			c6.134,7.34,12.495,14.253,16,23.68c5.653,15.202,7.824,36.864,8,57.6c2.589-8.509,2.756-17.954,4.16-26.24
			c-0.946,9.586,4.255,13.024,6.72,19.2c-2.738-37.055-12.896-68.376-38.4-81.6C565.75,317.603,565.128,318.793,563.334,318.813z
			 M562.374,330.012c2.712-1.341,4.753-3.353,6.72-5.44c-2.271-1.995-4.407-4.126-7.68-5.12
			C561.962,322.744,562.425,326.121,562.374,330.012z M533.574,338.333c1.568-0.171,3.364,1.101,4.479,0.32
			c-1.373-1.827-1.451-4.949-2.88-6.72C534.937,334.362,534.122,336.213,533.574,338.333z M516.934,464.412
			c2.986,13.747,7.917,32.383,0.32,44.16c5.313,5.439,18.389,5.14,27.84,4.48c-9.941,2.203-21.775,0.426-28.48-3.521
			c-0.29,1.631-0.742,3.098-1.28,4.48c7.283,3.276,17.32,3.799,28.16,3.52c6.26-14.298,7.097-32.985,8.96-51.84
			c2.208-22.352,4.517-47.616,2.24-68.48c-4.623-0.063-10.444-1.298-12.8,1.601c-0.117,1.803,0.462,4.303-0.96,4.8
			c-4.271-1.51-10.405-1.259-16.32-1.92c-2.462-0.275-4.677-1.589-7.04-1.6c-1.884-0.01-3.658,1.075-5.44,0.64
			c-2.993-0.73-3.789-4.524-5.76-5.76C506.815,418.881,512.484,443.929,516.934,464.412z M554.054,453.532
			c-0.769,7.631-1.342,15.639-2.24,24c-0.476,4.431-2.036,12.402-1.92,17.92c0.086,4.124,0.632,4.2,2.24,4.48
			c2.972,0.517,8.212-10.365,10.24-14.4c3.362-6.687,5.87-11.806,8.32-17.28c11.686-26.113,14.288-55.878,16.96-89.92
			c-4.61,0.225-7.633,5.953-11.84,3.521c-1.354,4.876-5.16,7.857-8.32,11.2c-3.496,3.697-5.305,6.786-11.52,4.159
			C557.102,415.148,555.987,434.355,554.054,453.532z M513.094,613.853c5.805,1.235,11.836-1.533,16-1.92
			c0.204-2.977-0.554-4.993-0.32-8c-9.503,2.566-13.809-5.193-16.64-11.521c-2.694-6.02-3.819-12.946-4.16-18.24
			c0.211,0.855,0.134,2,0.64,2.561c-0.689-6.506,5.739-10.391,6.08-14.72c0.122-1.547-1.298-4.411-1.92-6.721
			c-2.114-7.847-4.137-17.22-4.48-25.92c-5.29,13.479-9.38,25.635-17.28,35.521c-2.583,3.232-6.823,5.607-8.64,8.96
			c-2.068,3.813-1.299,9.481-2.56,13.76c3.535,2.546,8.021,5.845,12.48,6.4c-1.485-0.973-4.3-2.308-4.48-3.521
			C497.967,596.553,505.488,605.244,513.094,613.853z M548.934,506.013c1.059-1.928,2.3-3.674,3.52-5.44
			c-1.311-0.076-1.687-1.087-2.88-1.28C549.699,501.662,548.587,504.485,548.934,506.013z M508.934,578.973
			c2.072,10.301,5.103,19.644,12.8,24.319c2.381-0.072,4.392-0.515,7.04-0.319c-4.584-13.123-9.123-26.29-13.76-39.36
			C511.876,567.621,510.022,572.914,508.934,578.973z M692.934,373.853c-1.232,6.987-0.172,16.418-2.239,21.76
			c1.05,3.915,2.047,7.688,2.88,11.84c0.841,4.194,0.354,8.915,1.6,13.12c0.663,2.236,3.645,6.467,5.44,9.6
			c4.588,8.007,8.852,16.882,21.76,14.4c3.067-6.639,6.117-13.296,11.52-17.6c10.178,0.488,15.604,5.729,21.761,10.239
			c0.628-2.038,1.996-3.337,4.159-3.84c-3.186-3.601-1.172-11.138-3.84-14.72c-0.2,0.973,0.41,2.756-0.319,3.2
			c0.885-9.312-1.183-15.671-4.48-20.8c0.023-2.028-0.135-1.418-0.64-0.32c-0.317-9.923-1.344-19.137-2.24-28.48
			c-4.677,0.854-7.573,3.519-11.2,5.761c-4.662,2.882-7.81,7.817-14.399,7.04c-9.983-1.179-17.183-14.512-21.12-21.761
			C700.332,368.233,693.754,369.206,692.934,373.853z M757.254,613.212c1.704-1.788,5.921-5.902,6.4-7.68
			c1.797-6.663,4.771-14.3,12.159-16c-2.728-21.592-0.661-47.979-7.359-65.6c-1.066,0-2.134,0-3.2,0
			c-0.246,1.206,0.391,1.529,0.32,2.56c0.788,0.767,1.403-1.354,2.56-1.28c-4.543,5.271-10.783,8.844-19.2,10.24
			c1.22,1.981,2.333,4.067,2.561,7.04c1.332-0.16,1.867-1.119,3.2-1.28c-0.253,3.24,1.459,4.514,2.239,6.721
			c-0.974-1.2-2.41,0.708-3.84,0.96c1.109,3.157,0.863,7.67,2.561,10.239c3.005-0.088,4.256-1.931,6.399-2.88
			c0.423,3.204,1.699,5.555,3.521,7.36c-2.453,1.174-4.898,2.355-8,2.88c1.649,7.576,4.198,14.961,4.16,22.08
			c-0.029,5.275-3.026,8.592-4.801,11.84c-1.057,1.935-1.655,4.266-2.56,5.44c-0.944,1.226-2.468,1.578-3.521,2.56
			c-2.73,2.547-4.381,5.802-7.04,8c1.277,1.603,2.859,2.901,3.841,4.8C750.441,617.946,754.154,616.465,757.254,613.212z
			 M739.334,364.893c0.854,0,1.707,0,2.56,0c1.326-1.661,4.534-1.439,5.44-3.521C744.402,362.28,741.881,363.6,739.334,364.893z
			 M730.374,437.532c4.458-1.622,12.068-1.797,16.96-1.92c-5.886,1.729-12.166-0.063-16.64,2.24
			c-3.933,2.024-3.538,7.099-6.721,9.92c-2.172-0.921-5.328-0.858-8-1.28c5.673,27.928,15.059,52.143,25.28,75.521
			c9.339,0.379,15.908-2.012,21.12-5.761c-3.99-7.055-7.549-15.645-8-25.92c-0.823-18.733-4.019-38.905-6.4-55.04
			c-2.784-2.868-7.675-3.632-11.52-5.439C733.82,431.594,730.956,434.806,730.374,437.532z M741.254,522.973
			c0.6,0.894,0.606,2.38,1.28,3.199c7.094,0.791,12.733-1.546,16.96-2.56c1.409,1.228,0.956,4.651,0.64,6.72
			c1.941-0.938,3.87-1.89,5.12-3.52c-0.83-3.543-0.993-7.754-2.88-10.24C758.482,521.854,749.713,522.258,741.254,522.973z
			 M759.494,524.572c-5.28,1.802-16.533,3.014-22.4,1.6c1.904,6.843,6.55,10.944,8.641,17.601c2.168,0.248,3.424-0.415,5.119-0.641
			c0.391-4.017-2.131-5.122-2.88-8c3.369-1.538,7.931-1.883,10.88-3.84C759.184,529.323,760.53,526.862,759.494,524.572z
			 M738.694,533.532c-0.243,0.931-2.638-0.29-2.881,0.64c3.719,1.937,5.395,7.618,8.641,8.96
			C743.002,539.465,740.983,536.363,738.694,533.532z M741.574,544.412c0.96,1.813,1.947,3.6,3.199,5.12
			c5.12,0.427,8.466-0.921,10.881-3.2c-1.188-0.626-0.73-2.896-1.92-3.52C750.256,543.982,745.002,545.108,741.574,544.412z
			 M746.694,550.172c0.961,3.52,2.048,6.912,3.84,9.601c1.466-0.135,3.612,0.412,4.16-0.641c-1.476-2.578-1.122-6.984-2.24-9.92
			C750.483,549.481,749.119,550.357,746.694,550.172z M748.934,560.412c-0.03,2.804,1.299,4.248,2.88,5.44
			c5.621,0.64,9.62-0.383,12.48-3.2c-1.553-1.221-2.378-3.169-3.2-5.12C758.001,560.016,753.715,560.781,748.934,560.412z"/>
		<path fill-rule="evenodd" clip-rule="evenodd" d="M711.494,162.972c-3.322-0.104-7.696,3.16-11.2,2.88
			c8.194-6.739,16.021-13.846,22.4-22.4c-3.545,0.616-5.721,2.6-9.28,3.2c6.808-5.032,13.042-10.638,24.96-10.56
			c-3.442-2.104-8.62-2.473-14.08-2.56c6.743-5.956,21.116-1.296,30.08,0c1.332,0.193,2.722-0.224,3.84,0
			c3.563,0.713,5.124,3.649,6.4,6.08c2.639-13.746-5.084-21.489-17.601-22.08c13.233-0.54,20.352,7.809,18.88,23.04
			c3.479-2.796,10.319-9.291,8.641-16.32c-1.052-4.401-8.536-8.505-14.721-8.96c-5.088-0.375-9.728,1.301-14.399,1.6
			c5.838-1.829,18.909-3.635,25.28,1.28c2.09,1.613,2.655,3.758,4.479,5.44c0.498,9.245-4.343,13.15-8.32,17.92
			c11.887-4.253,19.991,1.716,27.2,9.28c7.423,7.789,8.288,17.607,8.96,29.12c0.342,5.845-0.479,11.374-3.84,15.36
			c1.174-3.873,0.694-7.69-0.32-11.52c1.844,19.922-10.473,30.021-12.479,46.08c-2.62-3.141-0.686-10.835-1.28-16
			c-2.239,3.292-2.225,10.021-2.88,14.4c-0.067,0.452-0.114,2.63-0.96,1.92c0.458,1.143,1.137,2.063,1.28,3.52
			c-2.534-5.466-5.8-10.201-5.12-18.88c-1.342,2.712-2.718,5.389-2.88,9.28c-1.468-0.452-1.31-2.531-1.601-4.16
			c-1.249,0.031-0.627,1.932-1.279,2.56c3.187,7.793,10.451,12.052,16.319,17.92c3.745,3.745,7.292,7.771,10.561,12.16
			c9.503,12.763,17.7,29.056,13.439,52.16c-1.41-1.896-0.673-5.94-1.279-8.64c-0.292,6.215-0.767,12.247-2.24,17.28
			c2.167-19.469-3.271-39.742-12.8-52.16c-7.715-10.054-18.171-18.283-24.32-30.4c-0.524,0.873-0.519,2.467-0.32,3.2
			c-4.232-2.914-3.979-10.314-4.8-16.64c-4.201,4.606-7.334,15.224-2.24,21.44c-2.804-1.044-3.776-8.013-2.88-12.8
			c-2.486,1.462-4.253,6.413-7.68,8c1.198-3.068,2.889-5.645,4.16-8.64c-4.268,3.52-7.987,10.359-15.36,11.84
			c-1.397,10.075-6.195,17.328-11.52,24c-3.688,4.621-6.221,9.842-9.28,13.76c-1.17,1.499-4.261,3.005-4.8,5.12
			c-0.618,2.422-1.392,5.444-2.24,8.32c-1.272,4.31-3.046,6.78-2.561,11.84c0.739,7.687,3.623,15.79,7.36,20.8
			c-1.624,2.033-1.528,7.028-2.88,8.32c-4.125,0.888-6.233,3.793-8.64,6.4c-0.291,3.708-0.193,6.744-0.32,9.92
			c-0.363,9.081,4.612,14.807,5.12,24c2.794-1.579,5.282-3.465,9.6-3.521c-3.915,0.992-6.946,2.867-10.24,4.48
			c0.121-3.961-0.887-6.793-1.6-9.92c-2.374-1.679-4.392-3.715-6.72-5.44c1.073,10.233,7.033,15.58,13.76,20.16
			c-7.333-3.761-14.485-10.475-14.4-22.72c0.992,3.062,3.696,4.411,6.08,6.08c-2.095-3.947-2.318-10.672-1.92-18.56
			c0.075-1.484-0.284-3.055,0-4.16c1.019-3.96,5.57-5.495,8.32-7.04c1.57-2.163,3.063-5.352,2.56-8.64
			c-0.2-1.308-1.778-2.864-2.56-4.48c-1.868-3.864-4.925-12.494-4.48-18.24c0.388-5.008,3.827-7.83,4.16-14.08
			c-2.239,3.094-3.253,7.413-6.08,9.92c0.153-2.202-3.02-2.85-3.199-5.12c-0.331-4.179,5.952-6.769,9.92-8
			c4.285-9.183,1.598-26.629,3.199-39.04c0.759-5.879,5.275-8.411,7.36-12.48c-4.274-0.965-8.338,1.047-12.16,1.6
			c2.586-1.229,6.749-2.396,10.24-2.88c1.284-0.178,2.912,0.793,3.52-0.64c-3.663-4.016-8.79-6.569-11.199-11.84
			c-1.163,2.875,1.437,4.746,1.92,7.04c-4.29-2.431-6.845-6.596-8-12.16c-1.719,3.578,0.501,7.49,1.6,10.24
			c-4.453-1.521-5.604-6.343-6.08-11.84c-1.726,1.901-1.798,5.455-4.479,6.4c4.528-6.796,7.582-16.714,8.319-26.24
			c2.397,5.838-2.569,11.853-3.199,17.28c-0.643,5.525,1.071,10.515,4.479,13.44c-2.423-3.26-2.933-11.951,0.64-14.4
			c-2.553,5.955,1.803,11.907,4.801,15.36c0.122-1.233-2.096-3.731-0.96-6.08c-5.809-6.83,1.234-18.586-1.601-28.16
			c3.746,7.37-1.518,16.344,0.32,23.36c2.387,9.112,10.627,14.03,17.28,19.2c10.954-0.566,20.467-2.573,27.52-7.04
			c0.757-2.657,1.913-4.914,2.561-7.68c-1.584,1.192-4.248,4.071-6.721,5.44c2.827-5.605,9.224-12.104,7.04-22.72
			c-0.989,1.678-1.48,3.853-3.2,4.8c0.229-0.998,2.191-2.936,1.601-5.44c-0.253-1.073-1.023-1.573-1.92-2.24
			c0.462,4.617-2.326,8.479-5.12,10.88c0.904,0.265,0.829-0.451,1.6-0.32c-3.149,2.859-7.844-0.48-9.6-2.88
			c0.289-1.071,0.716-0.28,1.28,0c-0.766-4.815,0.596-8.292,2.88-10.88c-1.685-0.191-2.75,0.237-4.16,0.32
			c1.676-1.488,5.559-1.503,8.32-0.96c-5.85-3.431-12.1-6.46-14.08-13.76c-0.035,5.796,2.929,11.364,4.8,16.32
			c-3.849-6.711-10.148-10.971-11.84-19.84c-0.336,8.834,0.004,20.359,4.159,26.56c-4.095-3.052-5.39-8.903-9.279-12.16
			c2.142,2.807,0.063,8.977-2.24,11.2c0.979,0.232,0.941-0.552,1.92-0.32c-1.885,1.57-6.223,1.678-8,0
			c0.271-0.754,1.403,0.266,1.92,0.32c-1.31-2.283-3.031-9.101,0-11.84c-3.127,0.141-3.952,2.948-3.2,6.08
			c-0.955-1.062-0.709-4.338-0.64-5.44c2.167-2.259,8.026-2.514,10.88-0.64c-1.025-2.602-1.409-5.844-2.88-8
			c-2.7,0.125-3.084,2.722-4.8,4.16c-3.885,3.255-9.733,3.732-12.8,8c-1.14,1.586-1.003,3.272-2.881,4.8
			C707.349,186.134,705.797,170.075,711.494,162.972z M802.694,178.012c-0.468-8.058-1.903-17.813-7.04-24.32
			c-3.519-4.456-12.195-12.546-18.24-13.12c-4.148-0.394-7.77,1.237-12.16,1.6c-1.067-2.692-2.553-6.494-6.08-7.68
			c-1.365-0.459-2.872-0.081-4.479-0.32c-8.746-1.298-21.329-5.04-28.801-1.28c7.721-1.188,13.119,2.648,18.88,4.48
			c-9.291-2.57-20.094,1.639-24.64,5.76c2.58-1.475,7.813-1.998,11.2-1.6c-2.008,0.872-4.879,0.882-7.36,1.28
			c-5.188,9.319-13.358,15.654-21.439,22.08c7.813-2.108,15.347-6.2,20.16-10.24c-1.704,1.935-2.954,3.188-4.801,4.48
			c-1.699,1.189-4.435,1.728-6.08,3.52c-2.487,2.709-3.011,9.072-3.52,13.76c-0.589,5.422-1.229,10.703-1.92,15.04
			c3.017-7.223,6.912-13.567,9.28-21.44c-0.862,7.458-4.976,13.371-6.721,18.88c3.278-4.296,11.369-5.484,13.12-10.24
			c-2.271,1.146-6.114,2.415-8,2.88c3.061-2.55,9.655-3.057,11.2-6.08c-0.563-2.741-0.577-7.584,0.32-9.92
			c-0.211,4.477,0.209,8.325,0.96,11.84c2.134-0.215,3.22,0.62,5.12,0.64c-0.502-5.286,0.209-11.595,2.239-15.36
			c-3.749,10.98,3.358,18.812,8,25.28c-2.835-6.231-5.277-14.402-3.52-23.36c-0.903,16.903,10.9,21.1,20.479,27.52
			c-3.306-6.188-7.08-11.906-15.68-12.8c6.176-0.169,12.925,2.887,16.64,6.08c0.42,0.36,1.523,3.108,2.24,1.92
			c0.277-3.906-1.422-7.536-0.96-10.56c1.287,4.048,1.09,11.282,2.561,14.08c-0.18-0.461-0.5-0.781-0.96-0.96
			c0.896,4.857-0.127,11.657,0,15.68c1.807-4.699,3.359-9.653,4.8-14.72c-0.95,12.169-6.664,19.577-11.84,27.52
			c6.696-4.504,10.55-11.85,15.04-18.56c-0.821,5.111-5.973,8.125-8,12.8c-1.378,3.176-2.09,6.909-3.521,10.24
			c-1.455,3.389-2.968,6.344-4.16,9.6c5.959-6.734,9.798-15.589,15.04-23.04c-1.21,2.203-2.131,4.695-3.52,6.72
			c1.258,5.143,0.328,12.471,3.52,15.68c0.59-8.478,1.917-17.922,6.08-21.76c-1.573,3.275-3.385,6.838-1.92,11.52
			c2.217-6.214,4.991-13.655,5.44-22.4c0.39-7.597-0.618-14.865-1.601-21.12c3.822,9.271,2.273,24.181,0.641,33.6
			c2.977-2.036,4.206-5.82,4.479-10.56c-0.256-1.036-2.375-1.875-2.24-2.24c6.614,1.911,0.765,12.224-2.88,13.76
			c-0.781,6.341,1.006,12.852,3.2,17.28c0.918-9.962,2.564-19.196,7.68-24.96c-3.947,4.372-3.576,14.77-3.199,22.4
			c5.086-15.151,15.587-30.293,11.52-51.2c1.102,5.192,2.926,9.661,3.52,15.36C802.487,187.679,803.01,183.463,802.694,178.012z
			 M734.214,194.972c-1.675-4.618-1.873-10.713-2.56-16.32c-1.617-0.196-3.037-0.59-4.801-0.64c0.531,4.484,2.616,9.116,4.48,11.2
			c-0.031-0.442-1.249-1.249-1.28-0.64C731.486,190.449,732.701,194.242,734.214,194.972z M762.374,195.612
			c1.393-9.18-6.18-11.1-10.561-13.44C756.689,185.297,758.514,191.473,762.374,195.612z M722.694,193.373
			c-0.245-0.929-0.507-1.841-1.28-2.24c-0.004,0.423-0.562,0.292-0.641,0.64C722.435,191.285,721.658,193.234,722.694,193.373z
			 M760.454,194.012c-0.594-0.384-1.134-2.469-2.24-1.28C759.391,192.534,759.808,194.741,760.454,194.012z M722.374,193.692
			c-0.315-0.457-2.015-1.152-2.561-0.32C720.114,194.686,721.713,194.924,722.374,193.692z M726.854,194.333
			c-0.569,0.191-1.328-0.938-1.6,0C725.536,195.027,726.842,195.946,726.854,194.333z M720.454,194.972
			c0.192,1.408,1.157,2.043,1.6,3.2c2.534,0.4,3.547-0.72,4.16-2.24c-1.539-0.259-1.156,1.404-2.88,0.96
			c-1.295,0.015-1.102-1.459-1.6-2.24C721.675,195.126,720.961,194.946,720.454,194.972z M750.534,196.252
			c-0.373-0.054-0.348-0.506-0.32-0.96c-0.427,0-0.854,0-1.28,0C748.626,196.271,750.506,196.666,750.534,196.252z M747.014,196.893
			c0.048,1.187,1.503,2.104,2.561,1.28C749.934,196.578,747.96,196.18,747.014,196.893z M750.854,198.813
			c0.004-0.423,0.562-0.292,0.641-0.64c-0.43-0.21-0.596-0.684-0.641-1.28c-0.376,0.05-0.908-0.055-0.96,0.32
			C751.137,197.477,750.293,198.333,750.854,198.813z M753.094,200.732c-2.065-1.479-4.744-0.782-6.08-2.56
			c-1.283,6.032,6.074,7.289,8.32,3.52c-0.992-0.181-0.842-1.505-1.92-1.6c-0.756,0.089,0.367,0.855,0.32,1.28
			c-1.183,1.176-4.457,1.527-4.48-0.96C751.12,199.076,751.804,202.646,753.094,200.732z M755.974,201.373
			c0.704-1.239-0.178-1.945-1.6-1.92C754.338,200.662,755,201.173,755.974,201.373z M787.334,240.412
			c-5.338-5.337-12.298-9.55-16-16c-0.956,5.488,2.078,8.523,4.479,12.48c7.319,12.06,18.252,18.813,24.96,31.04
			c5.119,9.329,7.753,19.538,8.641,33.92c0.514,1.404,0.285-1.266,0.32-1.6c0.403-3.889,0.043-9.68,0.319-11.84
			c1.378,2.889,0.616,7.917,1.92,10.88C814.434,270.825,800.592,253.67,787.334,240.412z M731.334,229.212
			c-1.137-0.676-1.686-1.941-3.2-2.24c-2.34,4.734-7.936,8.548-8.64,15.68c-0.756,7.653-0.01,15.461-0.641,23.04
			c0.487-6.184,2.113-12.555,4.801-18.56c2.838-6.343,5.628-15.223,12.159-16.64c-0.29-0.088-1.074-1.192-0.319-1.28
			c1.389,0.958,1.016,3.677,1.6,5.44c9.307,3.202,16.594-4.993,19.2-10.56C749.383,227.208,740.806,228.657,731.334,229.212z
			 M735.494,231.452c-6.371,1.203-6.823,8.324-9.601,13.12c1.017,1.335,3.132,3.263,2.561,5.12c-0.981-1.472-1.21-3.697-3.2-4.16
			c-4.748,8.266-6.536,21.197-7.36,32.32c6.336-8.491,12.725-16.929,18.24-26.24c-1.562,0.251-3.132,0.495-4.16,1.28
			c1.092-2.285,3.76-1.321,5.44-2.56c2.399-1.77,2.078-5.103,2.88-8.64c-3.434-0.721-4.971-0.438-6.08,2.24
			c0.853,0.32,1.055,1.292,1.6,1.92c-4.99,1.516-4.743,8.27-5.439,14.08c-1.147-0.452-1.815-1.384-2.88-1.92
			c-2.037,2.87-3.338,6.476-5.12,9.6c0.578-4.436,3.084-6.942,4.8-10.24c-1.093-0.508-2.131-1.069-2.56-2.24
			c1.427-2.639,5.333-3.498,6.399-6.72c0.654-1.978-0.425-4.503,0.96-6.72c0.843,0.331,1.078,1.269,1.92,1.6
			C735.932,241.256,736.617,234.523,735.494,231.452z M735.813,240.092c1.159,0.548,2.615,0.798,4.48,0.64
			c0.513-1.834,0.242-4.451,2.24-4.8c-1.928,0.468-3.801,0.291-5.44-0.32C736.551,236.99,736.521,238.878,735.813,240.092z
			 M731.974,243.292c0.458,1.96-0.856,3.823,0,5.12c0.618-1.302,2.206-1.634,2.561-3.2
			C733.814,244.519,732.962,242.701,731.974,243.292z M725.574,254.813c0.889,1.884,2.659,2.887,4.479,3.84
			c-0.332-3.002,1.044-5.992,0.32-8.32C729.051,252.102,727.31,253.455,725.574,254.813z M706.054,288.412
			c0.974,1.373,1.817,2.877,3.521,3.52c2.35-2.983,3.688-6.978,5.76-10.24C710.493,282.186,707.634,284.659,706.054,288.412z"/>
		<path fill-rule="evenodd" clip-rule="evenodd" d="M497.734,203.612c-4.788-4.705-5.56-13.426-5.44-23.04
			c0.45,10.396,2.355,19.005,7.04,24.96c-6.551-2.515-9.555-8.579-11.52-15.68c-0.48,6.326-8.007,7.621-5.44,15.04
			c0.384,0.367,0.125,0.811,0,0.32c-0.685-1.662-1.093-3.601-1.92-5.12c2.123-7.427-1.233-14.132-2.88-19.84
			c-2.746,4.902-0.806,13.291,1.28,17.28c-6.077-2.624-6.393-9.713-7.04-18.24c-0.603-7.94-5.896-16.382-3.52-27.2
			c-1.02,0.267-2.44,2.888-3.84,3.84c3.759-4.348,7.295-11.691,9.28-18.88c0.418,2.623-0.917,4.82-1.92,7.36
			c-0.844,2.139-2.833,4.609-3.2,6.72c-0.409,2.36-0.266,7.001,0,10.24c0.475,5.785,3.368,11.464,3.84,17.6
			c0.529,6.873,0.025,13.309,4.8,16.32c-3.341-5.166-0.284-11.606-0.64-17.28c-0.243-3.878-3.337-7.572-1.28-11.2
			c-0.556,12.892,8.736,19.115,6.08,32c2.349-2.791,6.084-6.264,6.08-11.52c-0.004-4.508-2.259-9.37-1.28-14.72
			c-3.412-2.242-4.665-6.642-4.8-12.16c1.29-1.377,2.349-2.984,5.12-2.88c0.295-4.718,0.791-9.236,2.88-12.16
			C486.006,163.683,483.245,195.685,497.734,203.612z M486.214,171.612c-0.042-4.223,0.058-9.94,0-13.12
			C478.624,158.707,483.639,169.315,486.214,171.612z"/>
		<path fill-rule="evenodd" clip-rule="evenodd" d="M748.934,155.933c5.088,7.925,9.944,16.083,18.24,20.8
			c-4.564-5.676-8.213-15.04-11.52-23.04c3.196,1.212,4.083,7.549,6.08,12.16c2.117,4.892,4.646,9.593,8.96,12.48
			c0.059,0.272-0.125,0.302-0.32,0.32C760.862,174.688,752.588,166.812,748.934,155.933z"/>
		<path fill-rule="evenodd" clip-rule="evenodd" d="M788.294,182.492c-3.71-7.49-5.273-17.126-7.04-26.56
			c2.059,7.647,3.765,15.648,5.76,23.36c0.569-5.511,0.191-11.969,1.28-16.96c-0.041-0.792,0.392-0.544,0.32,0
			C788.069,168.395,786.651,177.268,788.294,182.492z"/>
		<path fill-rule="evenodd" clip-rule="evenodd" d="M524.294,156.252c-1.558-0.682-3.407-1.073-5.76-0.96
			c3.755,1.229,4.009,9.178,1.92,12.48c0.623,0.705,1.536-1.006,1.92-1.6c-0.021,3.501-6.643,5.488-10.88,3.84
			c0.587-0.772,1.886,0.439,3.2,0c-2.336-2.037-5.321-3.425-5.76-7.36c-1.937,1.833,1.2,3.551,1.6,5.12
			C500.938,162.059,515.88,148.874,524.294,156.252z M519.494,164.572c-1.282-0.578,0.088,0.098,0,0.96
			c-0.664,1.15-1.695,1.932-3.2,2.24c-0.044-0.596-0.21-1.069-0.64-1.28c-0.407,0.766-1.043,1.303-2.24,1.28
			c2.953,3.214,7.621-0.219,7.68-3.84c-1.142-0.094-1.948-0.512-2.56-0.32C518.995,163.792,519.315,164.111,519.494,164.572z
			 M521.094,163.612c0-0.854,0-1.707,0-2.56c-0.557,0.024-0.995-0.071-1.28-0.32c-0.498,1.138,1.087,0.193,0.96,0.96
			c-0.837-0.09-1.376,0.117-1.28,0.96C519.715,163.284,520.348,163.505,521.094,163.612z M515.334,162.333
			c-0.195,0.018-0.379,0.048-0.32,0.32c1.684,0.19,2.789,3.805,3.84,2.56c-1.543-0.565-2.913-2.371-3.2-3.2
			C515.636,162.208,515.606,162.391,515.334,162.333z M514.694,162.972c0.428,1.281,1.619,1.708,2.24,1.92
			C515.605,163.579,515.992,163.775,514.694,162.972z M512.454,164.893c0.046-0.378,0.57-0.726,0-0.96
			c0.191,0.569-0.938,1.329,0,1.6c0.451-1.007,2.326-0.944,2.56-1.28c-0.461,0.171-0.781-1.247-0.96-0.32
			C514.87,164.362,512.774,164.542,512.454,164.893z M511.814,166.813c0.018-0.195,0.048-0.379,0.32-0.32c0,0.32,0,0.64,0,0.96
			c2.049,0.352,3.78-0.993,2.88-2.56C513.342,165.203,511.604,166.356,511.814,166.813z"/>
		<path fill-rule="evenodd" clip-rule="evenodd" d="M550.214,165.853c0.842,0.331,1.078,1.269,1.92,1.6
			C551.723,167.945,550.217,166.828,550.214,165.853z"/>
		<path fill-rule="evenodd" clip-rule="evenodd" d="M516.294,175.132c0.199,0.868,1.337,0.796,1.28,1.92
			c-0.81-0.145-0.638-1.513-1.92-1.92c0.378-0.862,1.668,0.001,2.24,0c0.895-0.412-1.008-0.662-0.64-1.6
			c0.74,0.646,1.71,1.063,1.92,2.24C518.143,175.63,517.44,175.159,516.294,175.132z"/>
		<path fill-rule="evenodd" clip-rule="evenodd" d="M785.414,177.373c1.777,6.316-1.382,13.082-2.88,18.24
			C783.267,190.584,786,184.786,785.414,177.373z"/>
		<path fill-rule="evenodd" clip-rule="evenodd" d="M723.014,202.652c-0.843,0.097-1.05-0.443-0.96-1.28
			c1.371,0.687,1.776,0.239,2.561,0C725.817,203.347,722.796,201.588,723.014,202.652z"/>
		<path fill-rule="evenodd" clip-rule="evenodd" d="M751.813,207.452c0.721,0.773,0.677,2.31,0.96,3.52
			C752.36,211.156,751.899,208.659,751.813,207.452z"/>
		<path fill-rule="evenodd" clip-rule="evenodd" d="M789.254,261.853c1.653,8.8,3.675,17.232,9.6,21.76
			c0.45,5.037-0.396,8.777-3.52,10.24c4.563,8.365,6.301,17.673,8.96,26.88c2.021,6.993,4.677,13.738,6.08,21.44
			c0.827,4.539,1.978,9.272,1.92,14.4c-2.53-16.243-5.77-31.777-12.48-43.84c1.051,1.189,2.152,2.328,2.561,4.16
			c-1.256-10.158-5.652-19.948-10.24-27.84c1.351-0.17,2.171,2.944,2.88,4.48c1.15-0.663,1.491-2.135,2.24-3.2
			c-9.406-7.135-23.155,0.732-26.24,7.68c4.02,7.394,10.473,12.355,14.08,20.16c0.479-0.694,0.546-1.801,0.641-2.88
			c0.867,5.557,0.22,12.693,1.6,17.28c0.273,0.909,0.296,0.143,0.64,0.64c-0.373,5.824,2.394,10.613,3.521,15.36
			c0.437,1.842,0.515,4.51,1.279,6.4c3.843,9.488,9.083,20.096,12.801,31.68c-0.758-0.117-0.682-2.703-1.28-1.92
			c-2.234-8.47-7.1-16.98-10.56-25.28c0.112-0.501,0.563,0.28,0.64-0.32c-4.617-9.129-8.047-22.782-8.96-35.52
			c-0.139-1.931,0.105-3.461-0.641-4.8c-2.172-3.899-5.229-8.722-8-11.52c-2.217,0.983-4.897,1.502-8.319,1.28
			c-2.86-3.966-4.479-9.174-5.76-14.72c-3.896,6.015-7.332,13.555-10.24,21.12c-0.927,2.41-2.468,5.148-2.88,7.36
			c-1.119,6.003,0.704,12.156,0.319,18.88c-2.186-9.042-2.042-21.799,0.96-29.76c0.027-0.506-0.153-1.22,0.32-1.28
			c0,0.427,0,0.854,0,1.28c-0.806,1.968-0.895,4.652-1.28,7.04c4.294-8.613,7.671-18.142,12.48-26.24
			c-3.998-6.029-4.999-15.055-9.28-20.8c4.307,3.481,5.333,13.014,8.96,18.24c0.207-5.023-0.974-10.311-0.96-14.08
			c2.88,9.708,1.41,23.764,6.72,31.04c0.489-3.884,1.052-7.696,2.561-10.56c0.958,0.21-0.306,0.684,0,1.28
			c2.42-3.661,7.09-7.843,11.84-10.24c-0.113,0.42-0.563,0.503-0.64,0.96c4.495-1.562,13.024-1.558,16,1.28
			c1.19-1.704,1.051-3.328,0-5.44C794.523,277.802,788.092,270.782,789.254,261.853z M769.414,307.932
			c2.854,0.294,4.868-0.252,6.399-1.28c-1.195-3.071-4.187-4.347-4.8-8c-0.319,0-0.64,0-0.96,0
			C768.918,301.079,768.271,305.015,769.414,307.932z"/>
		<path fill-rule="evenodd" clip-rule="evenodd" d="M687.813,351.132c-1.074,12.268-3.946,26.807-9.279,36.48
			c-0.012,0.021-0.498,1.479-0.96,0.64C682.477,377.368,685.808,364.912,687.813,351.132z"/>
		<path fill-rule="evenodd" clip-rule="evenodd" d="M543.814,353.052c-0.532-0.818-0.859,1.249-1.92,0.96
			c0.609-0.671,0.872-1.688,2.24-1.6c1.114,3.467-2.372,4.799-3.52,7.04C540.581,357.495,543.896,356.124,543.814,353.052z"/>
		<path fill-rule="evenodd" clip-rule="evenodd" d="M813.894,360.412c1.45,5.098,1.619,9.479,2.24,13.76
			c1.891,13.033,11.186,20.116,13.44,32.961c0.018,1.415-1.687,2.778-0.96,3.84c-1.084,0.648-2.997,6.274-4.801,5.12
			c1.513-1.205,4.208-6.29,3.2-11.2c0.953,0.985,0.605,3.435,0.96,4.16c1.724-13.917-13.087-23.03-12.8-36.801
			C813.742,372.339,813.892,362.859,813.894,360.412z"/>
		<path fill-rule="evenodd" clip-rule="evenodd" d="M666.374,394.973c0.902-6.139,3.892-12.961,5.76-19.2
			c0.773-0.863-1.117,4.674-0.96,6.399C669.592,386.457,667.681,390.412,666.374,394.973z"/>
		<path fill-rule="evenodd" clip-rule="evenodd" d="M729.094,377.372c-2.966,1.494-9.404-0.422-10.88-1.279
			c-0.764-0.444,2.564,0.641,2.56,0.64C723.045,377.174,725.618,377.405,729.094,377.372z"/>
		<path fill-rule="evenodd" clip-rule="evenodd" d="M802.694,393.372c0.995-2.097,1.087-5.1,0.96-8.319
			C804.834,387.381,804.041,392.23,802.694,393.372z"/>
		<path fill-rule="evenodd" clip-rule="evenodd" d="M803.014,394.013c1.346,4.028,2.97,11.856,2.24,17.92
			c1.454,1.429,2.873,4.589,3.2,6.08c-0.798,0.679-1.99-4.953-3.521-5.761C805.41,405.279,803.826,400.719,803.014,394.013z"/>
		<path fill-rule="evenodd" clip-rule="evenodd" d="M654.534,403.292c5.015,3.946,10.278,12.121,16.319,15.04
			c-5.789-1.144-6.976-6.891-11.52-9.279c-4.666,8.8-5.544,20.592-7.36,32.64c-3.081,20.439-7.518,45.594-0.96,64.96
			c1.709-0.376,4.142,1.394,6.721,1.6c6.834,0.548,14.985-1.909,19.199-4.479c-0.891-3.696-3.112-6.061-3.84-9.92
			c2.426,4.828,5.54,8.967,6.72,15.04c1.349,0.266,1.423-2.396,2.24-1.601c-2.456,7.144-11.084,8.115-19.84,8.96
			c4.347-1.722,7.043-1.167,11.84-2.239c-0.104-1.924-0.765-3.289-1.6-4.48c-6.26,1.288-14.654,3.341-20.48,0
			c0.632,2.354,1.497,4.477,2.561,6.4c-0.427,0-0.854,0-1.28,0c1.432,8.915,3.854,16.84,6.72,24.319
			c-3.694-6.545-6.216-15.97-7.04-24.319c-1.047-1.086-2.803-1.464-3.84-2.561c2.225,10.043,6.106,18.427,9.92,26.88
			c2.639,0.371,6.035,1.062,8.32,0c-0.357-1.989-1.084-3.608-1.92-5.12c1.229-7.701-0.767-13.607-3.2-18.56
			c6.162,4.619,2.358,16.733,5.44,23.36c2.923-0.49,4.351-2.477,7.04-3.2c0.378,1.635-0.215,3.699,0,6.08
			c-1.369,1.511-3.034,2.727-5.44,3.2c0.126,2.754,1.038,4.722,0.96,7.68c1.156,0.733,2.616-2.08,3.84-1.28c0,2.347,0,4.693,0,7.04
			c-1.159,0.654-1.991,1.636-3.52,1.92c-0.903,7.564,3.007,14.371,1.6,22.4c-2.662,3.257-4.718,7.68-8,10.88
			c-5.239,5.108-13.263,5.86-21.12,8.32c4.05,0.856,7.271,2.542,9.28,5.439c8.374-1.057,13.315-2.554,18.24-6.399
			c7.021-5.484,9.165-14.839,21.439-14.4c-2.699-5.071-2.231-10.974-2.88-19.521c-0.613-8.09-2.124-16.448-2.24-24.319
			c-0.167-11.362-0.41-25.06-0.319-37.12c-1.291-2.122-6.131-0.696-7.681-2.56c3.444,0.076,6.5,0.54,8.32,2.239
			c0.814,17.349-0.047,34.133,0.96,51.84c0.2,3.519,1.287,6.971,1.601,10.561c0.257,2.953-0.365,5.989,0,8.96
			c1.171,9.544,10.739,17.192,6.079,28.479c-5.463,3.267-17.01,3.999-23.04,0.641c-6.438,6.276-16.757,11.522-30.079,9.279
			c-0.586-0.098-1.64-0.697-2.561-0.96c-2.876-5.969-0.162-12.046,5.12-13.76c3.616-1.174,7.217-1.228,10.88-2.88
			c4.731-2.134,7.927-4.481,10.88-8.96c1.24-9.507-0.346-18.745-3.2-26.56c3.362,6.679,5.552,15.286,3.841,25.279
			c1.337-0.928,3.374-3.408,3.84-5.76c1.279-6.452-2.343-14.775-1.92-20.16c-5.806,1.551-11.74-1.48-10.88-8.64
			c0.858-0.766,1.7,0.427,2.56,0.64c-0.456-6.478-5.191-10.381-6.08-15.359c0.084-1.506,1.441,0.2,1.92,0.319
			c-3.179-9.088-6.765-17.768-9.28-27.52c1.729-0.192,1.49-2.351,2.881-2.88c-1.53-9.108-4.339-16.492-3.841-27.84
			c1.111-25.268,5.305-53.016,11.841-72.32c-1.968-1.873-6.315-1.365-9.28-2.24c-4.777,0.059-2.051-0.496,0.96-0.32
			c2.241,0.132,5.442,0.891,6.399,1.28C656.936,406.429,655.241,404.512,654.534,403.292z M655.494,508.572
			c-1.479-0.338-2.631-1.884-4.16-0.96c4.6,8.232,22.634-3.896,23.68,5.44c4.77-0.763,4.685-6.234,1.92-9.28
			C672.853,508,662.416,510.155,655.494,508.572z M650.374,513.053c-0.917-0.044,0.276-2.197-0.64-2.24
			C648.391,511.427,649.727,513.709,650.374,513.053z M655.813,539.292c0.629,2.145,1.522,4.025,2.561,5.761
			c5.005,1.829,13.41,1.255,15.68-2.561c-0.207-1.499,0.419-3.832-0.319-4.8C670.337,540.884,660.434,543.076,655.813,539.292z
			 M662.854,555.292c0.396-4.129-1.311-6.155-2.239-8.96c-0.377,0.05-0.908-0.055-0.96,0.32
			C660.717,549.536,661.51,552.689,662.854,555.292z M661.254,546.973c1.513,2.22,2.509,4.958,2.88,8.319
			c2.088,0.168,3.643-0.197,5.12-0.64c0.161-3.147-0.093-5.881-0.64-8.32C666.715,547.1,663.098,546.149,661.254,546.973z
			 M663.494,556.893c-1.488-0.287-3.654-3.079-4.16-2.24c-1.017,8.796,10.698,8.723,14.4,4.16c-0.249-1.886,0.217-4.484-0.961-5.44
			C670.745,555.61,666.462,555.594,663.494,556.893z M692.614,588.893c-1.688,0.104-5.742-0.334-8,0.319
			c-2.494,0.723-5.21,3.993-7.04,6.08c-6.963,7.938-12.338,13.04-26.24,13.761c-2.255-2.546-3.925-5.676-9.6-4.801
			c-2.611,1.773-2.708,7.335-1.28,10.561c19.257,5.894,27.143-9.14,40-11.521c-2.285,1.235-5.483,1.558-7.36,3.2
			c6.446,2.156,17.315,2.298,22.72-0.96C696.719,599.226,695.802,592.154,692.614,588.893z"/>
		<path fill-rule="evenodd" clip-rule="evenodd" d="M812.614,412.572c-0.75-1.277-1.905-2.148-2.24-3.84
			c-0.564,0.289-0.991,0.716-1.28,1.28c-0.257-1.013,0.727-2.341,0-3.841c1.639,1.775,2.225,4.604,4.16,6.08
			C813.141,412.754,812.69,411.973,812.614,412.572z"/>
		<path fill-rule="evenodd" clip-rule="evenodd" d="M818.694,407.452c2.564,5.072,1.616,11.175-2.24,14.4
			C816.527,418.847,819.402,412.426,818.694,407.452z M817.734,419.612c0.979-1.568,2.942-4.882,1.279-7.04
			C818.542,414.664,817.331,417.711,817.734,419.612z"/>
		<path fill-rule="evenodd" clip-rule="evenodd" d="M824.134,409.053c0.728,4.848-1.386,7.804-2.24,11.84
			c-1.584,0.582-3.228,1.596-4.479,1.6c-0.049-0.911,3.376-1.098,4.16-2.24C822.823,416.915,823.795,413.301,824.134,409.053z"/>
		<path fill-rule="evenodd" clip-rule="evenodd" d="M810.694,417.692c-0.507,0.026-1.221-0.154-1.28,0.32
			c0.78-1.028,1.331-4.709,0.32-7.04c1.131,1.501,0.824,2.541,1.92,3.84C810.646,414.858,811.453,416.37,810.694,417.692z"/>
		<path fill-rule="evenodd" clip-rule="evenodd" d="M813.254,425.053c1.049,0.327-1.001,2.742-2.24,2.88
			C811.78,426.991,813.033,426.538,813.254,425.053z"/>
	</g>
</g>
</svg>
