<?xml version="1.0" encoding="utf-8"?>
<!-- Generator: Adobe Illustrator 14.0.0, SVG Export Plug-In . SVG Version: 6.00 Build 43363)  -->
<!DOCTYPE svg PUBLIC "-//W3C//DTD SVG 1.1//EN" "http://www.w3.org/Graphics/SVG/1.1/DTD/svg11.dtd">
<svg version="1.1" id="图层_1" xmlns="http://www.w3.org/2000/svg" xmlns:xlink="http://www.w3.org/1999/xlink" x="0px" y="0px"
	 width="1280px" height="720px" viewBox="0 0 1280 720" enable-background="new 0 0 1280 720" xml:space="preserve">
<g>
	<path fill-rule="evenodd" clip-rule="evenodd" d="M284.227,96.324c3.592,0.563,7.216,1.975,11.04,3.84
		c2.307,1.126,8.577,3.638,9.12,6c0.658,2.865-1.455,5.106-3.12,6.96c-1.257,1.399-3.551,4.42-5.28,4.56
		c-2.165,0.175-6.383-2.699-8.4-3.84c-2.382-1.348-6.745-3.163-7.44-4.8C278.333,104.771,282.867,100.15,284.227,96.324z
		 M288.067,112.884c1.662,0.932,6.068,4.267,7.92,4.08c1.56-0.158,3.812-3.453,4.8-4.56c1.246-1.396,3.676-3.742,3.12-6.24
		c-0.523-2.35-6.738-4.21-9.12-5.28c-3.722-1.671-6.587-3.098-10.08-4.32c-2.011,3.349-3.48,7.239-4.08,12
		C282.604,110.049,285.183,111.267,288.067,112.884z"/>
	<path fill-rule="evenodd" clip-rule="evenodd" d="M287.827,100.884c0.32,0,0.64,0,0.96,0c0.428,1.145,0.371,3.675-0.72,4.08
		C286.692,104.752,287.812,101.976,287.827,100.884z"/>
	<path fill-rule="evenodd" clip-rule="evenodd" d="M299.587,106.164c0.237,0.563,0.421,1.179,0.48,1.92
		c-0.997,0.589-3.645,1.592-4.8,0.48C296.188,107.246,297.695,106.513,299.587,106.164z"/>
	<path fill-rule="evenodd" clip-rule="evenodd" d="M289.027,107.604c1.366,0.874,1.544,2.936,4.32,2.4
		C291.692,111.842,289.078,109.633,289.027,107.604z"/>
	<path fill-rule="evenodd" clip-rule="evenodd" d="M297.907,118.884c0.981,1.908-0.976,2.612-2.16,1.92
		C295.458,119.008,296.582,118.409,297.907,118.884z M296.227,119.844c-0.01,0.331,0.113,0.527,0.24,0.72
		c0.917,0.196,0.929-0.511,1.2-0.96C297.075,119.573,296.511,119.568,296.227,119.844z"/>
	<path fill-rule="evenodd" clip-rule="evenodd" d="M229.027,165.924c-1.083,0.615,0.365,0.471,1.2,0.48
		c-2.047,0.587-6.695-0.33-10.08,0C222.092,165.085,226.329,165.832,229.027,165.924z"/>
	<path fill-rule="evenodd" clip-rule="evenodd" d="M271.027,177.204c0.435-0.573,1.879-0.135,2.4,0
		C273.094,177.675,271.39,177.497,271.027,177.204z"/>
	<path fill-rule="evenodd" clip-rule="evenodd" d="M230.947,178.645c-3.158,2.202-8.993,1.727-12,4.08
		c0.077-0.563,0.743-0.537,0.96-0.96c-1.217-0.411-2.755,0.921-4.08,1.2c0.446-0.502,0.622-0.902,0.72-1.2
		c-0.319-0.48-1.065-0.535-1.68-0.72c4.862,0.5,8.91-2.698,12.48-1.2C228.795,179.692,228.882,178.179,230.947,178.645z"/>
	<path fill-rule="evenodd" clip-rule="evenodd" d="M247.507,184.404c0.647,2.25-0.374,4.904-1.92,5.76
		C246.354,188.371,247.466,186.924,247.507,184.404z"/>
	<path fill-rule="evenodd" clip-rule="evenodd" d="M246.547,190.404c0.757,0.042,1.432,0.168,1.44,0.96
		C247.229,191.322,246.556,191.196,246.547,190.404z"/>
	<path fill-rule="evenodd" clip-rule="evenodd" d="M257.347,203.364c-0.825,1.564-4.198-0.056-5.28,0.24
		C253.214,202.837,256.394,202.911,257.347,203.364z"/>
	<path fill-rule="evenodd" clip-rule="evenodd" d="M250.147,203.844c-0.005,0.325-2.207,0.506-3.36,0.48
		C247.181,202.571,248.487,204.216,250.147,203.844z"/>
	<path fill-rule="evenodd" clip-rule="evenodd" d="M298.387,274.404c0.943,4.908-0.431,12.481,1.68,16.8
		c-0.07,0.836-0.649-0.02-0.72,0.48c0.42,4.497,1.737,9.252,1.44,13.68c-1.403-8.757-2.237-18.083-4.56-25.92
		c0.734,1.426,1.078,3.242,1.68,4.8C298.392,281.289,298.412,277.87,298.387,274.404z"/>
	<path fill-rule="evenodd" clip-rule="evenodd" d="M276.547,281.364c0.042,2.843-0.79,6.889-1.2,10.08
		C275.012,288.309,275.852,284.271,276.547,281.364z"/>
	<path fill-rule="evenodd" clip-rule="evenodd" d="M263.827,291.924c0.769,0.554-0.511,1.07-0.24,1.92
		C262.937,293.409,263.72,292.396,263.827,291.924z"/>
	<path fill-rule="evenodd" clip-rule="evenodd" d="M172.627,292.404c1.548,0.772,2.502,2.138,3.12,3.84
		c-1.378,2.477-5.845,5.802-6.24,1.68C169.256,295.307,171.882,294.644,172.627,292.404z"/>
	<path fill-rule="evenodd" clip-rule="evenodd" d="M264.547,292.404c3.314,4.045,6.164,8.557,9.12,12.96
		c-4.14,6.26-10.651,10.148-17.28,13.92c5.857-4.303,12.082-8.238,16.8-13.68C270.455,301.056,267.129,297.102,264.547,292.404z"/>
	<path fill-rule="evenodd" clip-rule="evenodd" d="M281.827,293.125c0.615,2.377-0.701,4.897-0.72,7.44
		C280.345,298.04,281.9,295.759,281.827,293.125z"/>
	<path fill-rule="evenodd" clip-rule="evenodd" d="M177.667,298.645c1.242,0.758,1.76,2.239,3.36,2.64
		c-2.896,0.099-4.298,3.243-6.72,4.56c-0.17,0.89,0.41,1.03,0.24,1.92c-0.992-1.365-0.326-3.14-1.92-4.08
		C173.568,301.265,175.943,300.281,177.667,298.645z"/>
	<path fill-rule="evenodd" clip-rule="evenodd" d="M274.867,302.004c0.553,0.647,0.085,2.315,0.24,3.36
		c-0.51,0.417-0.006-2.223-0.48-2.64C274.908,302.686,274.83,302.287,274.867,302.004z"/>
	<path fill-rule="evenodd" clip-rule="evenodd" d="M200.707,304.404c0.404,1.847-1.618,3.34-1.92,5.28
		C198.387,307.841,200.341,306.281,200.707,304.404z"/>
	<path fill-rule="evenodd" clip-rule="evenodd" d="M329.827,318.564c0.031,3.357,0.226,7.702,0.24,10.8
		c-0.854,0.568-3.027,1.342-3.84,0.48c-0.476,0.164,0.15,1.43-0.72,1.2c-0.045-4.515,0.408-9.527-1.2-12.48
		C325.512,318.81,328.29,317.337,329.827,318.564z"/>
	<path fill-rule="evenodd" clip-rule="evenodd" d="M337.507,328.884c-0.939-0.478-1.76,0.216-3.12,0
		c-0.616-3.064-0.712-6.648-0.72-10.32c1.102-0.488,2.398-0.695,3.12,0.24C336.868,322.324,337.785,325.006,337.507,328.884z"/>
	<path fill-rule="evenodd" clip-rule="evenodd" d="M196.867,320.004c0.83,6.77,1.073,16.207,1.68,24
		C197.112,336.879,197.132,328.299,196.867,320.004z"/>
	<path fill-rule="evenodd" clip-rule="evenodd" d="M296.947,353.124c0.614-0.011,0.293,0.179,0.24,0.48
		c-5.482,4.758-12.298,8.182-22.56,8.16C284.004,360.821,291.855,358.353,296.947,353.124z"/>
	<path fill-rule="evenodd" clip-rule="evenodd" d="M261.667,370.164c0.558,1.522,0.082,4.078,0.24,6
		C261.225,374.835,261.277,371.802,261.667,370.164z"/>
	<path fill-rule="evenodd" clip-rule="evenodd" d="M197.587,384.805c-0.725,1.114-0.882,2.797-1.44,4.08
		C195.904,387.757,196.195,385.097,197.587,384.805z"/>
	<path fill-rule="evenodd" clip-rule="evenodd" d="M229.747,402.564c0.42,1.169-1.74,3.529,0.24,4.32
		c-0.83,0.189-1.013-0.268-1.44-0.48C228.483,404.66,229.291,403.788,229.747,402.564z"/>
	<path fill-rule="evenodd" clip-rule="evenodd" d="M252.547,402.564c0.472,1.38-1.512,4.388-1.92,6.479
		c-0.197,0.918,1.157,0.283,0.96,1.2c-0.457-0.103-0.603-0.517-1.2-0.479C250.385,406.642,251.715,404.853,252.547,402.564z"/>
	<path fill-rule="evenodd" clip-rule="evenodd" d="M235.507,424.164c-1.578,0.391-5.069,0.113-6-0.24
		C231.438,423.161,233.494,424.222,235.507,424.164z"/>
	<path fill-rule="evenodd" clip-rule="evenodd" d="M233.107,441.204c-1.22,15.264-3.308,33.008-3.12,49.681
		C228.745,474.07,231.22,456.628,233.107,441.204z"/>
	<path fill-rule="evenodd" clip-rule="evenodd" d="M268.867,443.845c1.623,0.613,4.533-0.174,7.44-0.24
		C274.63,444.466,270.497,445.129,268.867,443.845z"/>
	<path fill-rule="evenodd" clip-rule="evenodd" d="M246.547,465.925c-2.989,8.931-7.982,17.937-14.64,24
		c0.618-2.138,2.618-3.572,4.08-5.28C240.307,479.598,243.085,472.27,246.547,465.925z"/>
	<path fill-rule="evenodd" clip-rule="evenodd" d="M306.067,470.244c0.809,1.992,1.153,4.447,1.2,7.2
		C306.791,475.178,306.014,472.28,306.067,470.244z"/>
	<path fill-rule="evenodd" clip-rule="evenodd" d="M311.347,510.324c0.403,0.892-0.29,2.745-0.24,4.08
		C310.441,513.25,311.159,511.422,311.347,510.324z"/>
	<path d="M183.787,137.014c0.716-0.99,1.327-2.064,1.8-3.25C185.019,134.88,184.415,135.96,183.787,137.014z"/>
	<path d="M97.987,268.404c-0.868-1.537-2.104-2.9-4.32-3.12c-2.278-0.226-4.34,1.952-4.56,0.24
		c-2.168,6.262-5.513,11.348-8.164,17.126c0.448-0.739,1.091-1.357,1.935-1.745c1.736-4.042,3.844-9.674,5.989-12.742
		c2.282-3.265,6.299-2.334,8.88,0.24c-2.463,3.857-6.921,6.999-8.64,10.8c1.436-1.594,3.24-3.373,5.28-5.52
		c2.75-2.893,4.86-6.467,9.6-5.04C102.734,267.269,99.448,267.02,97.987,268.404z"/>
	<path d="M353.347,349.044c1.24,0.055,2.609-0.155,3.84,0c0.918,0.116,2.177,0.938,2.4,0.48c-5.042-8.479-13.31-13.73-19.68-20.88
		c5.232-0.768,10.532-1.468,15.36-2.64c0.663-6.521-1.846-13.763-5.28-17.76c-3.667,1.854-7.314,5.005-10.32,6.72
		c5.314-7.646,10.321-15.599,14.88-24c-5.557,0.642-12.291,3.359-18,3.84c1.056-8.393,3.104-17.342,3.12-26.4
		c0.035-19.544-9.577-36.152-31.68-31.68c3.543-3.897,7.485-8.674,11.04-11.76c-0.756,3.572-2.596,7.312-3.6,9.84
		c9.762-7.439,21.486-12.914,22.32-29.28c1.887,5.799,2.701,13.659,2.88,20.4c2.555-7.866,2.974-18.239,1.92-27.36
		c-0.255-2.213-1.232-5.02-0.96-6.48c0.266-1.422,1.537-1.913,1.92-2.64c3.769-7.158,2.321-17.185-0.24-24
		c-5.518-14.688-15.355-21.723-22.08-35.28c-1.509-3.042-2.806-6.155-4.56-9.84c-1.108-2.328-4.578-7.299-4.8-9.6
		c-0.19-1.968,1.135-5.098,0.48-7.2c-1.575-2.515-4.741-4.686-5.76-6.96c2.506-0.423,5.155-1.09,7.44-1.92
		c2.078-0.755,5.298-1.63,6-3.6c-4.706,0.592-8.817,3.81-14.4,4.32c-1.875-3.165-4.917-5.164-9.12-6
		c0.058-2.174,0.64-4.534,0.96-6.96c0.302-2.282,1.196-5.168-0.48-6.72c-0.697,4.503-0.797,9.603-1.92,13.68
		c-2.078-1.556-4.004-2.712-6.24-3.84c-2.551-1.287-4.976-1.648-7.68-2.64c-2.884-1.058-5.084-2.43-7.68-3.12
		c-2.979-0.791-6.125-1.285-9.6-1.44c-6.776-0.302-10.82,1.928-17.04,1.92c-3.663-8.806-12.285-13.425-21.36-16.8
		c-9.195-3.419-19.521-6.674-29.52-8.16c16.625,4.737,36.703,7.932,46.8,19.2c1.322,1.475,3.861,3.686,2.4,6.24
		c-3.288-1.583-7.271-2.237-10.56-3.84c-2.185-1.064-4.307-2.351-6.48-3.6c-11.501-6.61-22.996-14.238-36.48-18.48
		c-1.05-0.331-2.181-1.288-3.36-0.72c19.742,5.778,33.467,17.573,51.36,25.2c-9.734-1.036-15.321,4.47-21.36,7.92
		c-4.972,2.841-9.271,4.789-12.96,8.4c-10.848,10.618-19.709,23.514-32.88,31.92c18.372-9.229,26.42-28.78,44.16-38.64
		c-1.309,1.652-3.45,3.748-3.84,5.52c5.956-7.698,18.35-17.028,31.2-13.68c-0.535,0.831-2.959,1.034-2.4,2.16
		c1.453-1.508,4.964-2.234,7.2-2.16c-1.445,1.915-4.273,2.447-5.52,4.56c11.026-10.275,38.129-6.135,45.12,4.32
		c-2.483,0.477-5.157,0.763-6.96,1.92c-1.057,1.823-1.555,4.206-2.64,6c-4.521-1.48-8.863-4.416-14.4-4.08
		c5.538,0.861,10.251,2.548,14.16,5.04c-0.717,1.854-1.386,3.821-1.92,6c-0.484,1.977-1.6,4.887-1.2,6.72
		c0.584,2.681,6.646,5.526,10.08,7.44c5.978,3.333,11.249,6.123,17.52,4.8c4.382,7.858,8.165,17.596,13.68,23.52
		c-5.145-7.255-9.146-15.654-13.2-24c3.341-1.778,5.46-6.587,7.92-10.56c4.774,8.468,8.133,16.791,13.2,25.2
		c3.328,5.523,8.063,11.356,11.76,17.04c2.385,3.667,4.229,6.336,4.08,11.52c-2.163-2.669-4.128-5.299-6.48-7.92
		c-2.281-2.542-5.458-4.792-7.2-7.44c-2.976-4.525-4.06-9.813-7.44-14.4c7.83,16.798,17.658,34.599,21.84,55.44
		c1.784,8.892,2.348,21.371-0.24,30.48c-0.112-10.688-2.654-18.946-6.72-25.68c0.395,1.525,1.395,2.445,1.68,4.08
		c0.744,1.02-0.629,0.176,0,0.96c0.983,1.742,1.191,4.239,0.96,6.72c-1.081,11.609-12.377,19.654-19.68,24
		c4.947-7.989,5.726-25.126,1.92-35.04c0.465,4.576,2.444,8.772,1.68,13.44c-0.801,4.893-5.169,8.76-7.92,11.52
		c3.032-5.928,5.551-12.369,5.28-21.6v-2.4c-0.402-0.691-0.191,1.227-0.24,1.68c0.309,9.57-2.912,14.969-7.2,20.4
		c-7.965,10.088-19.081,17.918-31.2,22.56c7.901-9.141,14.014-19.779,19.2-31.44c5.16-11.601,9.798-24.65,10.8-40.08
		c-0.013-0.252-0.308-0.189-0.24,0.24c-0.453,5.064-1.119,9.785-2.16,14.16c-1.017,4.276-2.075,9.12-3.84,12.72
		c-1.231,2.511-4.133,5.291-6.24,7.68c-6.583,7.466-13.984,14.591-22.08,19.68c0.423-1.06,3.007-3.383,2.16-3.36
		c-0.234,0.246-0.474,0.485-0.72,0.72c6.909-9.571,16.297-17.942,19.92-30c-3.631,8.29-8.859,16.261-14.4,21.84
		c3.934-5.87,4.413-14.695,8.88-19.92c2.175-2.543,5.343-3.733,6.72-6.48c-4.84,4.52-10.717,9.283-15.36,13.2
		c2.554-1.208,5-3.799,6.96-4.8c-3.471,7.882-9.262,12.41-16.8,17.76c-5.565,3.949-11.766,8.103-18.48,8.88
		c-0.882,0.102-2.379,0.125-3.12,0c-2.651-0.446-6.335-2.658-9.6-4.08c-10.171-4.432-18.927-8.686-24.24-17.28
		c-2.842-4.597-4.363-11.297-6.48-17.04c-0.875-2.371-1.898-5.086-3.36-8.4c-0.966-2.189-3.946-6.138-3.84-8.16
		c0.097-1.854,2.441-4.262,3.6-6c1.223-1.833,2.495-4.582,4.08-5.52c2.273-1.345,6.329-1.645,9.36-2.16
		c3.404-0.579,6.84-0.76,9.89-1.406c-1.023-0.061-2.202-0.14-3.17-0.034c-5.295,0.582-12.036,2.196-15.84,2.88
		c1.783-2.857,3.637-5.644,5.52-8.4c1.75-0.41,3.029-1.291,4.32-2.16c1.032,1.167,2.164-0.365,3.36-0.48
		c0.311-0.729,0.452-1.628,0.72-2.4c2.891-1.429,4.764-3.875,6.48-6.479c0.661,0.288,1.003,0.521,1.68,0.24
		c0.827-0.773,1.216-1.984,2.16-2.64c-0.237-3.301,1.916-5.365,2.88-8.16c0.901,10.97,2.518,20.171,6.72,27.6
		c3.181,5.625,8.041,9.542,12.48,13.44c1.558,1.368,2.989,3.164,4.56,3.6c-3.519-5.602-4.792-14.727-5.521-22.32
		c1.798,0.006,1.845,2.255,2.4,3.36c2.035,4.047,4.97,7.553,7.2,10.32c1.543,1.097,3,2.28,4.32,3.6
		c-0.709,0.515-2.091,0.867-3.12,1.44c-0.839,0.467-2.342,1.408-1.92,1.68c0.991,0.652,1.816-0.318,2.88-0.72
		c2.617-0.988,5.685-1.616,7.2,0.72c1.082,1.668-0.163,4.401,2.16,4.56c2.097,0.143,1.651-2.181,2.88-2.88
		c0.939-0.14,1.393,0.207,1.92,0.48c0.551,1.234-0.964,2.707,0,3.84c1.161-0.279,0.875-2.004,1.44-2.88
		c1.153,0.367,2.029,1.011,3.12,1.44c-0.354-2.049-2.342-3.735-2.16-5.52c3.627,0.983,6.051,3.729,9.12,4.56
		c-0.152-0.808-0.689-1.231-0.48-2.4c0.964-0.292,1.756,0.635,1.92-0.24c0.231-0.601-2.044-1.494-0.72-1.44
		c-3.718-0.452-6.856-3.042-11.28-3.36c-1.384-4.296-3.408-9.232-3.84-13.68c3.869,1.146,5.714,5.029,8.16,7.68
		c2.607,2.825,5.4,5.212,8.4,7.68c-0.715,15.205-8.396,24.724-13.92,34.32c7.055-9.105,13.533-18.787,14.4-34.08
		c2.731,1.589,5.098,3.542,8.16,4.8c-3.175-3.705-6.574-9.266-9.6-13.92c1.947,4.693,5.04,8.24,7.44,12.48
		c-7.555-5.004-14.531-10.589-19.44-18.24c2.031,1.06,6.05,0.869,8.64,2.16c1.243,0.62,2.163,2.517,3.36,3.6
		c4.726,4.276,11.608,8.954,17.76,12.96c1.855,1.208,5.638,3.39,6,4.56c0.391,1.267-0.263,3.685-0.48,5.28
		c-0.741,5.429-1.899,10.165-2.16,14.88c1.646-6.354,2.083-13.917,3.84-20.16c-0.245-6.231,0.551-13.767,0.24-21.12
		c-0.249-5.897-0.364-11.754-1.44-16.8c-0.257-0.896,0.596-0.684,0.48-1.44c-1.693-2.947-1.53-7.75-3.12-10.8
		c3.305,13.665,4.552,31.815,2.88,48.24c-1.35-0.348-0.065-0.042-0.24,0.96c-8.402-6.318-18.441-12.279-25.2-19.44
		c0.615-0.26,1.144,0.729,1.44,0c-4.788-0.972-6.167-5.354-8.88-8.4c0.872,2.969,3.838,5.12,4.8,7.2
		c-2.812-0.948-5.922-1.598-8.88-2.4c-6.859-9.781-12.132-21.148-15.36-34.56c1.35,13.45,9.019,21.861,11.28,33.6
		c-3.75-0.329-6.888-1.271-10.8-1.44c-7.388-8.452-13.311-18.369-17.04-30.48c1.958,9.562,3.913,19.128,5.04,29.52
		c-0.242,0.569-2.954-0.089-2.4,0.48c3.526-1.129,2.954,3.378,3.36,5.76c0.954,5.592,2.852,11.549,4.32,15.12
		c-3.332-3.073-6.934-5.716-10.08-9.12c-7.309-7.909-10.91-21.411-11.52-35.28c-0.447-10.159,0.782-20.624,1.92-30.24
		c-1.315,6.484-2.539,14.702-2.88,22.8c-0.277,6.564-0.307,10.839-3.36,14.16c-0.776-1.543-1.934-2.706-2.64-4.32
		c1.607-5.143,2.308-14.261,0-19.2c1.292,5.767,1.134,13.146-0.24,18.72c-2.007-3.193-5.965-4.435-5.76-9.84
		c-0.5,0.62,0.085,2.325-0.48,2.88c-1.135-0.465-1.776-1.424-3.12-1.68c-1.554,1.086-2.521,2.76-3.36,4.56
		c0.401,2.97,4.649,3.641,5.04,6.48c0.337,2.446-1.91,5.128-2.64,7.68c-1.678-2.642-3.954-4.687-6.24-6.72
		c2.227-5.765,3.936-14.619,3.36-21.36v0.96c-1.168,9.471-1.809,19.471-7.2,24.72c-0.333,1.196,1.105,1.414,0.48,2.16
		c-6.709,12.211-14.555,33.338-9.36,50.4c-8.057-9.955-12.112-28.626-9.36-45.6c-2.097,4.956-0.548,9.807-1.44,15.36
		c-0.966,6.012-6.861,11.901-11.04,16.08c-4.722,4.722-8.758,9.907-12.72,14.4c-8.885,10.076-16.287,19.589-20.4,33.84
		c0.907-26.293,16.875-38.805,30.96-51.12c-0.577,2.544-2.771,4.747-3.12,6.72c9.591-13.659,11.485-33.445,18-49.44
		c6.572-16.135,19.599-25.864,31.68-35.52c-19.017,12.063-32.668,30.6-56.88,37.2c11.37-1.11,17.539-7.422,25.68-11.76
		c-9.397,14.97-26.365,20.907-41.52,30c-13.698,8.219-24.326,18.048-29.04,34.8c4.832-14.388,15.701-22.92,28.8-28.8
		c9.095-4.083,19.343-6.411,27.84-11.28c-10.351,13.695-26.113,22.294-40.08,32.88c-13.514,10.242-28.46,21.45-26.88,45.84
		c0.504-9.428,5.293-16.525,9.84-22.8c4.34-5.99,9.779-12.759,16.08-16.8c3.124-2.003,7.465-3.446,11.28-4.8
		c3.977-1.412,7.999-2.783,11.76-4.32c7.787-3.183,14.19-6.915,20.4-11.28c-1.916,8.787-8.258,12.94-14.16,18
		c-12.359,10.594-20.57,22.482-21.36,44.88c-11.863,7.945-27.054,12.236-39.6,19.2c-17.441,9.681-35.718,22.852-48.72,38.88
		c-1.382,1.704-3.453,4.897-4.56,5.28c-0.009,0.003-0.02,0.005-0.029,0.008c-0.177,1.333-0.821,2.59-1.935,3.384
		c0.095-0.01,0.189-0.021,0.284-0.032c-3.855,7.171-7.607,14.248-8.16,24.24c-1.221,22.054,10.808,37.066,19.92,49.439
		c-6.82-9.191-9.075-24.595-6.24-40.08c1.793-9.796,5.048-19.504,8.88-28.08c1.007-2.254,2.876-7.351,4.32-8.16
		c0.012-0.007,0.025-0.011,0.037-0.018c-0.273-1.986,0.492-4.139,2.299-5.169c7.609-13.724,17.291-24.836,29.824-33.694
		c13.209-9.335,28.736-15.911,43.44-24c0.131,0.349-0.28,1.241,0.24,1.2c0.037-0.763,0.544-1.056,0.48-1.92
		c12.728-6.633,27.124-12.876,37.2-21.36c-1.973,4.412-3.84,7.93-3.84,13.44c0,15.644,16.793,19.475,22.32,28.8
		c-12.055,3.065-13.729,16.511-18.48,26.88c-2.569-1.431-4.671-3.329-7.44-4.56c-0.603,8.283-1.646,17.846-0.48,26.4
		c-1.543-1.04-2.556-3.265-4.32-3.36c-0.65-1.75-1.368-3.432-1.92-5.28c-3.447,1.354-5.425,4.175-7.2,7.2
		c1.298,3.583,4.185,5.575,6,8.64c-7.833,0.98-14.424,4.439-20.4,6.48c-0.042,1.045,1.529,0.978,2.16,1.2
		c3.056,1.076,5.754,2.109,8.64,3.12c3.963,1.388,8.513,2.025,11.28,4.56c-3.395,9.1-6.181,18.672-8.88,28.32
		c-2.708,9.68-6.186,19.019-9.12,28.32c0.675,0.746,0.778,3.591,0,4.319c-11.065-9.361-24.243-20.473-33.84-32.4
		c-5.527-6.868-10.3-13.174-10.32-24.48c-0.018-10.105-0.535-23.88,4.56-30c-0.06-2.278,1.888-4.974,1.92-8.16
		c0.027-2.607-0.502-5.275-1.68-7.2c4.149,9.817-3.567,16.146-4.56,23.04c-0.203,1.407-0.07,3.182-0.24,4.8
		c-0.803,7.657-0.516,16.536-0.24,24.48c-0.551-1.689-0.963-3.517-1.92-4.8c10.014,35.748,44.902,46.618,61.44,75.84
		c-2.931-8.749-8.962-14.397-14.4-20.64c1.472-11.129,5.525-20.781,8.4-30.96c2.878-10.19,5.681-20.347,9.36-30.24
		c4.008,3.112,7.507,6.732,11.28,10.08c0.932,4.29,2.364,8.038,4.08,11.76c1.716,3.724,4.326,6.649,6,10.08
		c2.206,4.522,3.417,10.203,4.56,15.6c1.182,5.579,2.022,11.872,0.96,18.48c-1.169,0.161-1.592-0.423-2.4,0
		c-1.131,2.309-2.067,4.813-2.4,7.92c1.512-2.008,1.834-5.206,2.88-7.68c0.773-0.053,1.016,0.424,1.92,0.24
		c0.172,1.372-0.256,2.144-0.24,3.359c2.333,1.268,4.695,2.505,7.68,3.12c-0.07-1.59,1.03-2.01,0.96-3.6
		c4.112,2.023-0.124,6.985-1.44,9.359c-0.434-0.846-2.51-0.05-2.16-1.68c0.518-0.656,1.661,0.083,2.16,0.24
		c-0.491-1.566,1.929-3.267,1.2-5.04c-0.597,1.163-0.844,2.676-1.68,3.6c-0.661-3.339-6.351-1.649-8.88-3.12
		c0.021,1.455-1.066,2.709-2.16,1.681c-0.209,0.929,1.048,0.392,0.72,1.439c-4.944,10.715-10.761,20.195-18.48,28.561
		c-15.164,16.431-31.124,31.789-47.28,46.8c-8.179,7.599-15.287,15.967-22.8,24.24c-29.774,32.783-59.055,66.503-70.56,117.12
		c11.825-3.455,21.955-8.605,32.16-13.681c-0.283-21.706,6.332-39.587,13.44-55.2c6.711-14.742,14.553-27.646,24-39.12
		c4.703-5.712,10.383-10.323,16.32-15.119c5.859-4.733,11.558-9.724,17.52-13.92c12.437-8.755,21.939-20.761,33.84-29.28
		c0.949-0.585-0.177,0.268,0.48,0.479c1.973-2.595,4.344-5.158,7.2-7.92c1.41-1.363,5.739-7.24,7.44-7.68
		c2.044-0.528,6.433,0.347,9.36,0.479c2.425,0.11,5.063-0.211,6.96,0c3.174,0.354,5.673,2.958,8.16,2.881
		c-6.729-3.271-14.13-5.87-20.4-9.601c2.053-3.147,3.785-6.615,5.52-10.08c3.206,2.555,7.802,3.718,10.56,6.72
		c1.531-0.493,2.619,1.108,3.84,1.681c8.614,3.786,16.641,9.439,27.36,10.319c-3.346-0.734-6.484-1.676-9.36-2.88
		c6.547,1.053,14.253,0.947,21.12,1.681c-0.266,3.689-0.127,6.39,0.48,9.6c-0.715-0.317-3.278-1.103-3.12-0.72
		c2.02,0.7,4.352,1.088,4.08,4.08c-12.505-1.735-24.474-4.006-34.56-8.16c0.203-0.518,1.53,0.09,1.68-0.48
		c-11.389,1.972-25.298,0.339-37.2,1.44c9.539-0.291,18.738,0.392,27.36,0c2.312-0.105,4.875-0.779,7.2-0.48
		c2.953,0.381,5.725,2.162,8.64,3.12c4.194,1.379,8.954,1.972,13.44,2.88c4.641,0.94,9.299,1.926,13.92,2.641
		c6.815,20.06,16.841,38.024,29.52,52.56c1.808,2.073,4.552,4.175,5.52,6.24c1.369,2.92,2.188,8.288,2.88,12.72
		c2.105,13.484,2.283,28.441,0,41.521c-6.566-5.514-14.815-9.345-21.84-14.4c-7.698-1.379-15.38,1.383-22.32,0.72
		c-1.505-0.144-2.906-1.23-4.32-1.439c-4.262-0.63-7.647,0.225-11.04-0.72c-1.838-3.362-2.889-7.511-4.8-10.801
		c9.634-1.358,20.581-3.395,30.24-5.52c-12.568,0.151-21.117,4.323-33.36,4.8c-0.738-0.769-1.933-1.612-2.4-2.88
		c-0.121-0.329,0.17-0.897,0-1.2c-0.422-0.751-1.306-0.991-1.44-1.92c-0.307-2.123,2.442-5.819,3.36-8.399
		c2.128-5.984,1.882-11.793,2.4-17.521c0.596-0.313,0.996,0.704,1.2,0c-0.838,0.215-0.41-0.783-0.24-0.96
		c1.678-1.762,3.836-3.044,5.28-5.04c-1.821,0.524-2.627,3.258-4.56,2.88c-0.306,0.975-0.565,1.994-1.68,2.16
		c-0.993-0.527-1.915-1.125-2.64-1.92c-1.027-5.67-5.288-11.556-6-18.24c-0.254-2.387,0.135-4.808,0.24-7.2
		c0.456-10.372,0.001-21.396,1.2-31.439c-2.519,8.921-1.174,21.706-2.4,31.92c-2.741-4.219-4.328-9.593-6.72-14.16
		c1.912,5.608,3.909,11.131,6.96,15.6c-1.182,9.749,4.433,16.042,6,23.04c-4.851-2.867-10.148-5.299-15.36-7.92
		c-5.208-2.618-10.167-5.821-15.36-7.68c10.826,6.534,23.08,11.64,33.6,18.48c-0.434,9.325-1.26,18.259-5.52,23.76
		c-1.478-1.242-1.711-3.729-2.88-5.28c0.459,3.061,1.38,5.66,2.4,8.16c-7.898-3.381-16.456-6.104-24.96-8.88
		c7.706-1.708,15.033-7.185,24-5.28c-1.439-3.094-5.849-1.39-9.12-0.479c-11.349,3.155-21.313,7.101-31.44,11.279
		c-3.705,1.529-8.58,4.722-12.48,4.561c-2.506-0.104-6.67-2.705-7.44-4.801c-1.086-2.955-0.041-6.805,0.48-9.6
		c0.596-3.196,1.284-6.051,1.92-8.88c0.495,0.129,0.058,1.136,0.72,0.479c0.837-3.564,4.71-4.05,7.92-5.52
		c6.825-3.126,11.578-8.442,16.32-13.2c-5.237,4.979-11.108,9.725-18,12.96c-2.246,1.055-4.17,2.729-6.48,3.36
		c-1.178-8.024-7.447-15.256-4.8-24c-0.633-0.286-0.619,1.153-0.72,0v-4.8c4.699-11.302,21.657-11.623,24.24-24.24
		c-2.319,6.802-7.986,10.254-14.16,13.2c-0.87-4.131,1.658-5.862,3.36-8.641c1.225-1.999,2.667-3.69,2.88-5.76
		c-2.077,4.917-7.849,8.314-6.72,14.88c-5.033,3.051-9.689,6.251-10.56,12.48c-0.992,7.093,1.279,12.905,2.88,17.76
		c1.023,3.103,2.808,6.554,2.88,9.36c0.072,2.804-1.47,5.903-2.16,8.88c-1.107,4.775-2.126,10.249,0,13.68
		c0.041-0.358-0.085-0.886,0.24-0.96c1.711,1.648,3.504,3.216,5.76,4.32c0.87-0.896,2.305,0.116,3.6-0.48
		c3.691,6.389,0.767,19.393,10.08,20.16c0.145,26.115,1.702,50.97,6.96,71.76c0.162,0.639,0.057,2.527,1.44,2.4
		c-3.436-20.964-8.447-43.713-7.2-69.36c-0.913-1.166-0.307-3.854-0.48-5.76c8.75-2.684,18.334-5.542,27.6-7.92
		c2.651-0.681,7.198-2.692,9.84-2.16c1.25,0.252,2.489,1.9,3.84,3.12c4.278,3.864,8.172,5.972,13.44,8.16
		c-0.244,2.479-2.025,4.01-0.96,6.479c-5.733,19.385-10.465,41.149-13.2,63.36c-0.177,1.438-0.937,3.752,0.24,4.08
		c2.015-11.655,3.55-23.333,5.76-34.561c2.232-11.343,4.94-22.25,7.68-32.88c0.864-0.063,1.157,0.443,1.92,0.48
		c-2.366-2.125-0.417-8.538,1.68-10.561c2.802,0.419,5.471-0.062,8.16,0.48c1.063,0.214,2.02,1.075,3.12,1.2
		c3.625,0.411,8.579-0.538,12.72-0.721c1.978-0.087,3.845,0.086,5.52,0c4.425-0.226,5.801,1.291,9.12,3.36
		c6.289,3.921,11.882,7.418,16.56,11.76c-0.321,3.439-0.729,6.791-1.68,9.601c-15.494-3.604-32.352-4.352-45.12-10.8
		c-3.255-1.645-6.273-3.469-9.6-4.32c1.976,1.864,4.716,2.964,7.92,3.6c4.426,3.321,10.72,5.018,17.04,6.721
		c6.39,1.721,13.338,3.554,20.16,3.84c3.659,0.153,6.485,0.518,9.36,1.92c-0.966,6.258-3.095,12.398-4.8,18
		c-0.622,2.044-1.493,3.969-1.44,5.279c7.445-0.797,13.218-4.538,18.96-6.239c1.347-2.138,3.946-2.635,5.76-4.08
		c0.864-0.688,1.448-1.68,2.4-2.4c6.651-5.033,11.715-11.126,15.12-19.2c1.973,2.056,1.978,8.181,4.8,9.12
		c2.745,0.914,6.133-1.711,8.88-2.399c5.337,8.101,6.84-8.743,14.64-5.761c2.165-1.871,1.934-5.389,2.64-8.64
		c0.653-3.005,2.23-6.141,2.4-8.88c0.123-1.988-0.513-3.929,0-5.521c-1.688-3.672-2.32-8.399-3.6-12.479
		c-1.699-1.261-3.355-2.564-6-2.88c-0.984-2.042-1.029-4.317-0.48-6.96c-0.927-1.553-2.281-2.68-2.88-4.561
		c0.749-1.14,1.143-1.906,1.92-1.92c1.918-5.18,4.896-12.688,4.32-18.96c-0.221-2.405-3.302-4.881-4.8-6.72
		c-1.669-2.049-3.244-3.896-4.56-5.76c0.494-3.652,1.025-6.564,0-9.84c-0.616-1.969-2.558-2.767-3.12-4.561
		c-0.912-2.908-0.639-8.635-0.96-14.16c-0.28-4.819-0.755-9.885-0.96-14.399c-0.213-4.694-1.333-11.538-0.48-15.841
		c1.032-5.207,1.127-18.529-1.2-21.84c-0.788-1.12-2.752-1.28-3.6-2.64c-1.906-14.452-1.564-31.862-0.96-47.521
		C337.539,346.979,345.495,348.699,353.347,349.044z M284.227,84.804c3.997,0.004,7.129,2.95,9.84,5.04
		C288.166,90.785,287.34,86.651,284.227,84.804z M291.667,90.324c-0.489,0.391-1.256,0.504-1.68,0.96
		c5.208,3.272,10.725,6.235,16.08,9.36c0.714-0.327,0.422-1.659,0.48-2.64c1.992,1.608,3.584,3.616,5.04,5.76
		c-0.729,0.471-0.825,1.575-2.16,1.44c-7.162-5.161-15.303-11.413-26.16-13.68C285.014,90.071,288.5,90.358,291.667,90.324z
		 M291.667,121.044c-4.566-1.809-7.077-3.095-11.28-6c-1.38-0.954-3.986-2.623-4.32-4.08c-0.628-2.735,1.297-7.627,2.16-10.08
		c1.055-2.997,1.915-5.666,3.36-8.64c0.597,0.037,0.743-0.377,1.2-0.48c7.738,2.337,14.242,5.487,20.88,9.84
		c1.595,1.046,5.167,3.149,5.52,4.56c0.458,1.828-1.114,4.1-1.92,5.28c-0.997,1.46-1.898,2.512-2.88,4.08
		c-1.388,2.217-3.82,7.297-6.24,7.68C296.677,123.437,293.375,121.721,291.667,121.044z M299.347,123.444
		c2.728-3.159,5.116-6.945,7.68-10.8c1.358-2.042,2.795-3.322,2.64-6.72c0.897,0.017,1.375-0.386,1.68-0.96
		c0.213,0.106,0.429,0.21,0.48,0.48C310.744,112.915,306.924,122.43,299.347,123.444z M340.387,167.364
		c0.177,4.737-0.245,8.875-1.92,11.76c-3.346-8.974-6.473-18.167-10.8-26.16C332.501,156.211,336.543,162.328,340.387,167.364z
		 M338.467,180.084c2.917-4.238,3.235-12.694,1.68-18.72c5.089,6.6,6.632,22.063,1.44,29.76
		C340.288,187.704,339.818,183.453,338.467,180.084z M285.907,172.645c-2.134-0.667-2.812-2.789-3.12-5.28
		C284.581,168.37,284.908,170.843,285.907,172.645z M275.587,168.084c-1.01-0.35-1.945-0.775-2.4-1.68
		c0.563-0.077,0.901-0.379,1.68-0.24C274.458,167.454,275.787,167.004,275.587,168.084z M278.227,166.884
		c0.562-0.624,1.991-0.084,2.4,0.24C280.269,167.544,279.214,166.63,278.227,166.884z M281.347,168.084
		c0.614,0.585,1.254,1.146,1.2,2.4C281.021,170.276,281.788,169.237,281.347,168.084z M281.107,150.804
		c-0.601,0.584-1.925-0.143-2.4-0.48c0.183-1.303-0.296-1.944-0.24-3.12C279.551,148.2,279.981,149.85,281.107,150.804z
		 M267.667,149.364c3.75,0.41,7.204,1.116,10.8,1.68c1.1,5.008,2.567,9.425,3.84,13.68c-2.454-0.151-5.663-1.411-7.92-0.24
		c-0.397-0.962-1.29-1.43-1.44-2.64h5.52c-2.93-0.85-5.546-0.178-8.037-0.004c0.67-0.008,1.364,0.009,2.037,0.004
		c0.511,0.85,0.795,1.925,1.44,2.64c-0.62,0.42-1.891,0.189-2.16,0.96c-1.851-0.63-2.912-2.048-4.32-3.12
		c0.566-0.282,1.297-0.4,2.095-0.45c-0.787,0.007-1.563-0.058-2.334-0.27c-2.148-0.589-4.151-4.298-5.28-6
		c-1.634-2.465-3.215-4.815-3.6-7.2c3.903,0.657,9.293-0.173,10.56,3.12C269.289,150.931,267.718,150.283,267.667,149.364z
		 M253.027,128.244c3.559,7.401,8.606,14.594,12.96,20.4c-2.599-0.201-5.075-0.525-7.92-0.48
		C255.127,142.784,254.094,135.497,253.027,128.244z M255.907,144.804c0.55,0.97,1.007,2.033,1.2,3.36
		C255.438,148.313,256.016,146.215,255.907,144.804z M205.987,106.645c0.285,0.908-0.754,1.172-1.2,1.68
		c-8.456,9.629-14.933,22.796-18.48,37.68C183.649,125.581,194.954,114.976,205.987,106.645z M128.947,187.044
		c1.726-1.075,3.419-2.182,5.04-3.36c-7.447,8.313-15.966,17.634-20.64,29.52c2.91-21.751,18.982-32.021,33.36-42.48
		c13.758-10.008,28.258-18.908,37.08-33.71c-5.996,8.289-19.823,10.246-29.88,14.511c-9.732,4.127-16.544,9.111-22.56,15.84
		c11.766-20.634,41.655-25.225,57.12-42.96c-1.647,4.592-3.089,9.916-3.12,16.32c-0.011,2.275,0.631,4.667,0.48,6.96
		c-0.283,4.283-2.752,7.978-3.12,11.52C168.91,172.607,143.306,174.203,128.947,187.044z M116.467,239.604
		c-19.491,10.756-35.865,25.183-45.84,45.6c-0.038,0.002-0.073,0.006-0.11,0.008c-0.021,1.436-0.574,2.858-1.657,3.803
		c-0.189,0.531-0.458,1.029-0.813,1.464c-8.299,17.652-18.939,46.379-7.739,67.444c-1.462-0.425-1.825-2.159-2.64-3.359
		c-5.336-7.858-11.843-19.448-12.96-31.44c-1.317-14.146,3.409-24.295,8.64-33.12c0.024-0.004,0.049-0.007,0.074-0.01
		c0.278-0.554,0.658-1.052,1.139-1.458c0.147-1.437,0.826-2.805,2.054-3.625c0.52-0.779,1.396-1.576,2.013-2.347
		c15.382-19.222,37.5-33.801,60.96-45.12C120.073,237.687,117.468,239.052,116.467,239.604z M232.627,543.685
		c-6.928-2.512-12.803-6.077-17.04-11.28c-13.271,2.821-27.449,6.782-39.84,11.28c-1.328-1.498-3.772-1.851-4.8-3.84
		c-0.719-1.393-0.58-4.089-0.96-6.48c-0.56-3.527-1.135-6.644-2.64-9.12c5.642-2.485,12.055-4.907,18.48-7.439
		c2.086-0.823,4.406-2.273,6.24-2.4c3.73-0.259,9.275,2.547,13.44,4.08c6.763,2.489,14.2,3.812,16.32,10.08
		c0.995,0.365,2.113,0.607,3.6,0.479c1.979,3.142,3.004,7.237,4.56,10.801c0.988,0.452,2.21,0.67,3.36,0.96
		C233.313,541.97,232.969,542.826,232.627,543.685z M356.467,540.805c0.316,0.963-1.384,1.971-1.92,2.88
		C354.259,543.646,355.841,541.51,356.467,540.805z M320.227,236.964c9.919,2.326,15.528,10.895,17.76,22.32
		c2.217,11.348-0.797,24.872-2.16,36c-9.525,2.203-19.2,4.619-28.08,7.68c-2.815,0.97-5.89,1.782-7.92,3.84
		c-1.177-2.917-2.479-6.108-3.6-9.6c-0.976-3.039-2.688-6.844-2.88-10.08c-0.119-2.001,0.783-3.991,0.96-6
		c1.384-15.723,4.448-33.955,12.48-43.2C311.158,237.627,315.356,235.822,320.227,236.964z M320.467,212.484
		c1.211,1.571-0.194,4.576,0,6.72c-0.941-0.578-1.36-1.68-2.16-2.4C319.066,215.404,320.039,214.216,320.467,212.484z
		 M315.427,213.684c-0.353,4.448-3.234,8.445-5.04,12.24c1.875-2.446,5.536-5.184,7.44-8.4c1.771,1.638,3.067,2.617,1.68,5.52
		c-1.236,2.586-4.914,5.429-7.2,7.92c-16.638,18.125-34.972,38.23-49.92,57.84c0.368-9.677,3.761-17.607,6.72-25.2
		c2.611-6.7,5.431-13.101,8.16-19.44C294.536,238.554,307.194,228.332,315.427,213.684z M296.707,207.444
		c1.615-1.892,2.727-4.326,5.04-5.52c-6.01,15.99-13.583,30.417-24,42c1.366-5.435,4.825-10.855,7.44-15.84
		c-1.536,0.784-1.594,3.045-3.12,3.84c-1.104-2.416-0.759-6.281-1.92-8.64C285.939,218.283,291.663,213.352,296.707,207.444z
		 M262.387,282.084c-0.914-7.772-1.498-18.006-0.479-26.16c-2.275,0.045-3.546,1.094-5.76,1.2c0.846-2.035,1.979-3.781,2.88-5.76
		c7.969-1.792,12.921-6.599,18.72-10.56C272.677,253.654,266.289,267.266,262.387,282.084z M259.507,250.884
		c4.061-7.62,7.637-15.723,13.68-21.36c-2.744,6.456-6.521,13.959-10.32,20.16C261.726,250.063,260.727,250.584,259.507,250.884z
		 M276.067,225.924c-0.253,1.27-2.496,2.622-3.84,3.6C273.052,227.869,274.785,227.122,276.067,225.924z M254.947,257.844
		c-5.484,0.756-10.89,1.589-15.6,3.12c-0.191-0.999,0.867-1.747,1.44-2.4c10.573-12.039,23.376-23.657,34.56-35.28
		C268.717,234.014,260.994,245.731,254.947,257.844z M254.227,260.004c-4.477,1.123-9.072,2.127-13.68,3.12
		c0.765,3.395,1.792,6.527,3.12,9.36c0.968-0.072,0.424-1.656,1.44-1.68c0.411,1.276-1.08,2.553-1.2,4.08
		c-2.309-3.932-4.221-8.259-5.521-13.2c5.235-1.325,10.895-2.225,16.08-3.6C255.722,258.358,253.82,259.04,254.227,260.004z
		 M215.827,353.845c-1.817-3.276-4.588-8.633-1.68-12.48c-3.741,5.379-6.525,13.795-8.4,21.84
		c-7.205-35.648,6.122-66.294,20.88-86.64c1.853,2.227,3.182,4.979,4.56,7.68c-2.658,9.636-5.743,18.578-8.88,27.84
		c-2.177,6.426-3.545,14.706-4.56,23.28c1.69-9.394,3.22-17.969,6-26.16c2.738-8.069,5.304-16.066,7.92-24.24
		c0.348,5.225-2.081,10.504-3.84,15.6c-3.409,9.872-6.689,20.312-8.16,32.64c-0.854,7.157-1.583,15.594-2.88,22.561
		c-0.447-4.863,0.587-12.36,0.96-18C216.074,342.092,217.095,349.112,215.827,353.845z M227.347,275.844
		c0.889-1.931,2.513-3.75,3.84-5.52c1.306-1.742,2.454-3.787,4.08-4.56c-0.498,6.703-1.099,13.301-2.4,19.2
		c-0.477,0.003-0.306,0.655-0.96,0.48C230.948,281.684,228.813,279.098,227.347,275.844z M235.747,264.564
		c0.834-0.605,1.006-1.874,2.16-2.16c1.778,4.781,3.255,9.865,5.76,13.92c1.549-1.09,1.593-3.687,2.64-5.28
		c-0.077-0.563-0.743-0.537-0.96-0.96c-1.212-0.333-0.92,0.84-1.44,1.2c-1.264-2.256-2.107-4.933-2.64-7.92
		c4.259-0.621,8.134-1.625,12-2.64c0.204-0.044,0.226,0.094,0.24,0.24c-9.315,19.804-16.882,41.357-20.88,66.48
		c-3.218-1.698-6.29-4.7-10.8-4.32C225.432,302.569,235.842,288.82,235.747,264.564z M250.867,246.084
		c0.728,0.704-1.942,2.016-2.4,3.12c-3.131-0.664-6.156-0.248-8.64-1.2c-1.869-0.716-2.73-2.74-4.56-3.12
		c0.292-1.284-0.591-2.294,0-3.12C237.961,245.61,244.594,247.324,250.867,246.084z M238.627,233.844
		c0.553-0.537,1.472,0.596,2.16,0.72C240.122,235.214,239.202,234.081,238.627,233.844z M235.987,248.724
		c3.074,1.167,6.103,2.377,10.32,2.4c-1.365,2.119-3.545,3.792-5.28,5.76c-1.682,1.908-3.005,4.359-5.04,5.28
		c-0.526-6.033-0.602-12.518-1.44-18.24C235.378,245.173,235.277,247.354,235.987,248.724z M277.267,212.004
		c2.99-2.85,6.284-5.396,8.64-8.88c-1.777,5.583-4.404,13.676-8.64,16.8V212.004z M253.507,224.964c3.791,0.04,8.104-3.007,12-5.04
		c4.511-2.354,7.904-4.811,10.56-7.2c0.806,2.406,1.232,6.004,0.48,8.16c-0.821,2.354-4.407,4.647-6.48,6.72
		c-2.443,2.443-4.479,4.831-6.48,6.48c-6.077,2.684-15.404,4.285-22.08,1.2c1.11-4.76,0.008-9.833-0.24-14.64
		C246.084,221.313,248.801,224.915,253.507,224.964z M210.547,188.244c-0.804-0.741-0.999-0.889-1.92-1.2
		c0.084-1.628-0.474-3.434-2.16-3.12c-1.26-1.583-2.994-5.283-1.2-7.68C208.045,179.227,208.968,184.063,210.547,188.244z
		 M211.267,190.164c-0.818,0.019-0.711-0.889-0.72-1.68C210.798,189.033,211.297,189.334,211.267,190.164z M209.587,194.004
		c-1.03,0.07-1.586-0.334-2.16-0.72c0.382-1.858,1.414-3.067,1.92-4.8C210.927,189.231,209.666,192.598,209.587,194.004z
		 M204.787,191.364c-0.916-0.444-1.242-1.478-1.92-2.16c1.481-1.558,2.39-3.689,4.8-4.32
		C207.911,187.312,205.666,189.267,204.787,191.364z M217.027,147.204c0.68-1.08,1.32-2.2,1.92-3.36
		c0.423,0.217,0.743,0.537,0.96,0.96C219.415,146.072,218.336,146.753,217.027,147.204z M224.467,142.645
		c-0.97-1.334,0.868-2.705,1.68-3.84c1.035-1.446,2.058-2.761,2.64-4.56c1.134,0.307,1.647,1.233,2.4,1.92
		C229.39,138.608,226.601,141.337,224.467,142.645z M222.787,118.645c5.369,3.511,8.842,8.917,12,14.64
		c-0.331,1.51-1.416,2.265-2.16,3.36c-2.269-1.379-3.999-3.842-6.72-6.72C222.784,126.621,216.13,122.343,222.787,118.645z
		 M224.467,129.684c1.765,1.036,2.62,2.98,4.32,4.08c-1.623,2.538-2.903,5.417-5.28,7.2c-0.513-1.167-1.187-2.173-1.68-3.36
		C223.094,135.351,223.805,132.542,224.467,129.684z M211.747,135.204c0.406-1.914,1.637-3.003,2.88-4.08
		c5.247,2.194,6.933,7.947,9.84,12.48c-0.466,1.134-1.515,1.685-2.64,2.16C218.253,142.458,214.962,138.869,211.747,135.204z
		 M212.227,136.884c2.323,1.837,4.167,4.152,6.24,6.24c-2.725,5.115-5.84,9.84-9.12,14.4c-1.83,0.331-3.313,1.007-4.32,2.16
		c1.253-0.747,2.787-1.213,4.08-1.92c-1.539,3.182-4.003,7.517-6.72,10.32C203.066,156.04,207.836,146.017,212.227,136.884z
		 M202.387,169.524c2.809,2.151,0.137,5.816-0.72,8.4C201.294,175.47,200.997,171.016,202.387,169.524z M204.067,172.884
		c1.854,2.655-1.618,5.569-2.16,8.16C200.516,178.04,203.852,175.857,204.067,172.884z M204.067,177.444
		c0.137,2.289,0.713,5.5,2.4,6.96c-0.879,1.44-2.097,2.542-3.36,3.6C201.636,184.102,201.953,180.38,204.067,177.444z
		 M191.587,157.764c2.379,7.788-1.441,14.359-3.12,20.88c1.832-3.368,2.779-7.621,4.32-11.28c0.799,1.964,2.033,4.232,1.92,6.24
		c-0.138,2.44-3.456,7.583-4.8,9.84c-1.967,3.302-4.439,6.119-5.76,8.64c-1.301-2.083-1.175-7.825-0.96-11.28
		c0.268-4.32,0.706-9.351,2.4-12.48C187.624,164.563,191.042,162.073,191.587,157.764z M184.147,170.004
		c-0.641,4.406-2.435,11.991-1.92,17.76c0.139,1.562,1.127,3.407,0.96,4.8c-0.278,2.322-5.888,7.438-7.44,9.12
		c-8.017,8.687-18.068,15.565-28.32,21.36C153.71,199.407,170.088,185.865,184.147,170.004z M171.427,210.804
		c-2.286,1.368-4.854,2.942-7.44,4.32c-2.462,1.312-6.765,3.46-7.92,3.6c16.668-11.012,30.151-25.209,38.88-44.16
		c1.443,2.316,2.123,5.397,3.6,7.68c-1.728,3.492-4.254,6.287-6.72,9.36c-2.313,2.883-4.002,6.52-6.48,9.36
		C182.026,204.771,176.579,207.722,171.427,210.804z M181.507,212.724c2.046-12.77,11.578-20.278,17.28-29.52
		c1.459,1.341,2.211,3.389,3.84,4.56c-0.091,1.571,0.48,3.59,2.16,4.08c1.77-0.87,1.89-3.39,3.12-4.8
		c0.59,1.064-0.486,2.265-0.96,3.12c-5.396,9.736-10.558,25.145-7.2,41.04c-4.906-5.494-6.584-14.216-7.44-23.76
		c-0.128,15.008,5.774,26.066,14.4,33.12C194.074,237.77,179.024,228.219,181.507,212.724z M204.787,195.204
		c-0.388,6.181-1.314,14.512,0.72,20.4c-1.581,2.019-3.832,3.368-6,4.8C199.546,210.284,202.004,202.582,204.787,195.204z
		 M197.107,238.164c2.741,0.862,7.331,2.68,10.8,2.88c-1.351-2.356-6.493-4.748-7.68-8.16c-1.146-3.293-0.332-7.103-0.72-11.76
		c2.073-1.528,4.351-2.85,6.24-4.56c2.691,5.869,6.666,10.454,12.24,13.44c-0.381-1.621-1.282-4.796-1.92-6.96
		c0.801-0.394,1.479,0.854,2.16,1.44c2.125,1.829,5.53,3.354,9.36,3.6c-6.577-1.983-13.208-3.912-12.24-13.44
		c-1.339,4.947,0.846,10.507,2.16,14.4c-12.206-4.398-16.915-28.067-8.88-41.04c0.272,1.636-1.549,3.248-1.92,5.04
		c0.232,1.368,1.637,1.563,3.36,1.44c0.312-1.049,0.481-2.239,0.48-3.6c1.737,0.831,2.18,3.157,2.88,5.04
		c0.64,1.719,1.92,3.708,2.16,5.52c0.357,2.698-0.747,5.753-0.24,9.12c0.514-2.286,0.31-5.29,0.72-7.68
		c3.117,3.21,5.212,6.199,8.64,8.88c4.683,3.663,10.364,5.133,14.16,9.36c-0.31-0.971-1.111-1.45-1.68-2.16
		c2.42-0.418,3.646,2.433,3.84,5.04c-8.205-4.274-18.985-5.975-21.6-15.84c-0.169,4.203,2.122,8.147,3.84,11.52
		c1.782,3.498,3.833,6.729,6,9.12c-2.833-4.768-6.742-10.539-8.88-16.8c3.96,7.16,13.584,8.656,20.64,12.72
		c0.313,1.528,0.248,3.432,0.24,5.28c-2.473,1.047-4.974,2.066-7.2,3.36c-0.171,2.251,0.253,3.907,0.24,6
		c-1.048-4.231-1.418-9.142-2.88-12.96c1.492,8.485,3.351,22.352,3.84,32.88c0.378,8.127-6.046,9.862-8.4,15.6
		C217.948,261.644,208.886,248.546,197.107,238.164z M186.067,269.844c2.086-6.792,5.174-15.912,9.36-20.16
		c1.318-1.337,5.598-4.231,7.68-4.08c1.626,0.118,3.806,2.983,4.08,4.08c0.863,3.46-0.659,8.583-1.44,12
		c-2.566,11.221-7.81,18.629-12,28.08c-2.276-1.158-3.806-3.042-5.52-5.28c-1.335-1.743-3.787-4.405-4.08-6.48
		C183.864,275.996,185.317,272.285,186.067,269.844z M177.187,267.684c2.496,1.504,4.663,3.337,7.2,4.8
		c-0.393,1.367-0.796,2.724-0.72,4.56c-1.692-1.668-2.496-4.225-4.08-6c3.318,6.682,7.573,14.507,13.44,19.44
		c-2.292,5.148-5.069,9.811-7.44,14.88c-1.423-0.017-1.431-1.449-2.64-1.68c-0.037-0.597,0.377-0.743,0.48-1.2
		c-1.915-2.965-4.1-5.661-6.48-8.16C176.535,286.392,176.867,275.914,177.187,267.684z M167.827,297.444
		c1.29-2.47,3.401-4.119,4.8-6.48h0.72c1.699,1.819,3.392,3.916,5.04,6c1.569,1.984,3.678,3.771,4.32,6
		c-0.976,0.678-1.499-0.802-2.4-0.96c-2.609,0.832-2.952,3.928-5.52,4.8c0.127,0.193,0.25,0.39,0.24,0.72
		c0.073,0.65,1.02,0.185,1.44,0.96c-0.643,0.237-1.089,0.67-1.92,0.72C172.235,305.356,170.01,301.421,167.827,297.444z
		 M171.187,315.684c2.352,0.05,5.109,1.771,8.16,1.92c-9.751-3.29-19.508-6.572-29.28-9.84c2.273-1.739,5.25-2.383,8.16-3.36
		c3.588-1.205,6.798-2.519,11.28-3.12c1.368,2.952,2.901,5.739,4.56,8.4c0.813,0.451,1.793-0.678,2.88-0.72
		c1.316,1.804,2.993,3.247,4.56,4.8c-0.582,2.848-0.137,8.107,0.48,11.28C178.291,322.02,174.881,318.71,171.187,315.684z
		 M204.787,388.645c-0.994-0.137-0.886-0.254-0.72-1.2c-1.638,1.709-3.708-1.063-5.76-1.2c1.415-8.116,0.807-15.977-0.96-24.24
		c-1.034-4.834-2.343-9.879-4.08-13.439c-1.049-2.15-2.683-3.989-3.84-6.24c-3.143-6.113-6.951-13.965-7.68-22.32
		c-0.712-8.17,3.926-13.806,6.96-19.68c2.607-5.049,5.175-10.015,7.44-14.4c5.219-10.105,11.572-20.292,11.52-35.28
		c0.604-0.433,1.43,0.825,1.92,1.44c1.952,2.448,1.77,6.44,1.44,11.04c-0.707,9.874-4.648,21.74-6.48,29.76
		c-0.162,0.708-0.059,0.871-0.24,1.68c3.508-10.972,7.204-23.836,7.44-38.88c0.793-0.172,1.423,1.034,1.92,1.68
		c4.162,5.417,8.585,12.169,12.48,18c-10.157,15.843-21.698,35.167-23.04,59.76c-0.568,10.407,1.19,21.29,2.64,31.44
		c1.089-7.551,3.674-13.606,6-19.92c1.423,2.816,2.607,5.873,3.84,8.88c-2.84,9.72-7.435,17.686-10.08,27.6
		c3.328-9.071,7.204-17.596,10.32-26.88c0.788,2.852-0.979,5.798-1.92,8.4C211.031,372.593,208.015,380.971,204.787,388.645z
		 M202.627,427.284c-4.651,0.49-10.738,0.338-15.12-0.24c1.14-1.74,2.506-3.254,3.6-5.04
		C194.806,423.905,198.516,425.796,202.627,427.284z M170.707,443.364c-7.443,6.321-14.643,13.039-22.08,19.44
		c-7.45,6.412-15.258,12.484-22.8,18.479c-7.859,6.247-15.521,12.178-21.84,19.68c-15.058,17.877-28.063,41.405-34.32,68.881
		c-1.777,7.802-3.566,15.008-2.88,24.239c-9.47,5.49-19.842,10.078-30.96,13.92c12.136-52.776,44.555-87.063,75.12-121.68
		c3.42-3.873,7.358-7.191,11.04-10.8c20.1-19.7,41.918-38.212,59.52-60.72c1.465-1.874,2.827-4.034,4.8-5.521
		c3.376-6.304,6.112-13.247,9.84-19.2c1.857,0.496,6.048,0.43,7.68,1.92c0.243,1.854-1.443-0.893-1.2,0.96
		C198.43,414.463,185.709,430.624,170.707,443.364z M197.347,410.964c2.049-5.07,3.964-10.275,5.28-16.079
		c0.565-0.006,0.707,0.413,1.44,0.239c1.408,6.753,1.969,14.352,3.36,21.12C204.238,415.264,200.808,412.471,197.347,410.964z
		 M250.627,427.524c-7.155,0.115-13.909-0.171-20.16-0.96c-0.174-0.546-0.214-1.227-0.48-1.68c-0.688,0.032,0.208,1.647-0.48,1.68
		c-5.989-0.811-9.607-3.993-14.4-6c9.464,0.512,20.918,2.205,31.68,1.439c-0.917,1.323-1.419,3.061-1.92,4.801
		c1.163-0.2,1.199-3.599,2.4-4.561c0.72-0.319,1.836-0.244,2.88-0.24c-11.462-1.771-27.222,0.301-37.2-2.64
		c-1.938-0.571-4.139-1.604-5.04-3.36c11.487,1.703,25.405,2.471,38.16,1.44c-0.028,1.012-0.866,1.214-1.2,1.92
		c2.169-0.818,3.643-5.601,6.24-6c1.358,1.532-0.006,3.911-0.24,6C250.613,421.633,250.688,424.263,250.627,427.524z
		 M283.267,590.484c-0.167-1.641,0.757-3.968,1.44-6.24c4.412-14.69,8.709-31.661,8.16-51.359
		c-0.587-21.041-5.374-41.083-13.44-54.48c2.337,6.623,5.741,12.179,7.2,19.68c-0.795,0.444-1.786-1.26-2.64-2.159
		c-2.529-2.665-5.088-5.959-7.44-9.12c-9.265-12.459-17.592-27.271-23.28-43.44c0.039-0.279-0.053-0.427-0.24-0.479
		c3.805-0.115,9.803,0.633,13.44,0.72c5.87,29.214,26.014,46.777,40.32,69.12c2.16,3.373,4.402,7.227,6.72,11.52
		c1.855,3.437,5.614,8.285,6.24,11.76c0.331,1.834-0.24,3.793-0.24,5.761c0,3.21,0.817,6.141,1.68,8.88
		c0.849,2.692,1.467,5.267,2.64,6.96C316.813,575.07,302.047,584.784,283.267,590.484z M289.507,374.725
		c0.091,8.147-1.837,18.716-0.24,28.08c0.559-2.801,0.081-6.64,0.24-9.841c2.138,4.822,4.64,9.281,7.2,13.681
		c-4.481,3.313-10.387,7.765-16.56,9.84c-4.318,1.451-10.756-0.118-16.56,0.96c1.327-4.152,3.031-9.04,4.8-13.44
		c-0.203-0.916-1.354-0.886-2.16-1.199c3.186-5.923,7.874-11.932,11.76-17.761c1.384-2.075,3.876-5.82,3.84-6.479
		c5.132-8.628,10.959-17.841,17.52-24.24c-2.97,5.271-5.193,11.287-8.88,15.84c0.017,3.39-2.866,5.925-3.12,9.84
		C287.994,378.171,289.02,376.717,289.507,374.725z M267.907,404.004c-1.661,4.101-3.469,8.052-4.56,12.721
		c-4.436-1.816,1.026-6.022,1.44-10.08c0.115-1.127,0.067-2.392,0.96-3.36C266.628,403.363,267.392,403.559,267.907,404.004z
		 M262.147,416.964c0.4,0,0.8,0.001,1.2,0C263.714,417.702,261.78,417.702,262.147,416.964z M284.467,416.725
		c-0.239-1.168-1.833-0.051-2.64-0.24c5.624-2.776,10.792-6.008,16.08-9.12c0.77,2.634-0.713,3.362,0.48,5.76
		c-5.6,6.241-15.122,8.559-24,11.521c-0.976,0.096-0.738-1.021-1.44-1.2c-2.826,0.613-5.311,1.569-7.92,2.4
		c2.399,0.236,4.895-1.504,7.68-1.681c0.449,0.808,0.364,1.776,1.44,2.4c1.766,3.968,4.041,9.48,3.6,15.12
		c-0.053,0.679-0.979,0.856,0,1.439c0.172,0.652-1.132-0.172-0.96,0.48c1.672,1.185,1.199-1.835,3.36-0.96
		c-1.789-0.4,4.204-1.489,6.24-1.92c4.319-0.915,7.21-1.418,10.56-2.4c3.261,10.34,5.957,21.243,8.64,32.16
		c-1.265-11.295-5.229-21.972-8.16-32.4c1.444-0.476,2.925-0.915,4.32-1.439c2.549,8.593,4.51,18.538,7.2,28.08
		c0.665,2.356,2.902,6.973,2.4,9.359c-0.374,1.78-5.558,5.666-6.96,6.96c-2.717,2.508-4.834,4.317-7.2,6.48
		c5.411-3.469,9.515-8.245,14.4-12.24c0.778,0.742,0.452,2.588,1.2,3.36c-0.521,1.062-1.3-1.508-2.16-1.681
		c6.161,6.428,3.625,23.726,0.48,32.4c2.53-5.311,3.77-11.91,3.84-19.68c4.226,10.354,0.686,22.809,0.72,35.52
		c-3.595-4.898-6.051-10.178-9.36-15.12c-4.229-6.315-9.506-11.407-13.92-17.76c0.757-1.402,2.59-1.729,3.36-3.12
		c-1.206,0.795-2.442,1.559-3.6,2.4c-10.222-14.099-20.813-27.827-25.2-47.76c0.988-0.612,2.731-0.469,4.32-0.48
		c-0.377-1.189-0.4-2.938-0.72-4.32c-1.017-4.386-3.492-8.668-4.08-12.479c-0.856,0.344-1.987,0.413-2.88,0.72
		c-0.402-3.197-1.195-6.004-1.44-9.36C270.187,418.124,277.376,417.474,284.467,416.725z M301.267,411.685
		c0.989,0.291,1.252,1.308,1.68,2.16c-1.24,0.324-1.59,1.835-3.12,1.199c-0.037-0.763-0.544-1.056-0.48-1.92
		c-0.971-0.148-0.563-1.678-1.2-2.16c0.486-0.713,1.204-1.195,2.16-1.439c0.213,0.507,0.73,0.709,0.72,1.439
		c-1.155,0.125-1.123,1.438-1.68,2.16C300.386,413.043,300.186,411.724,301.267,411.685z M278.227,436.885
		c-0.511-4.609-2.264-7.977-3.84-11.521c9.362-2.398,17.55-5.971,24.24-11.04c0.064,1.136,1.049,1.352,1.44,2.16
		c0.308,6.893,1.652,12.748,2.64,18.96c-7.458,2.701-15.276,5.044-24.24,6.24c-0.002-1.655-0.313-2.056-0.24-4.08
		c3.891-0.909,7.89-1.71,11.76-2.641C286.423,435.001,282.279,436.535,278.227,436.885z M302.947,436.404
		c0.205,1.556,0.668,2.853,0.72,4.56c-0.767-1.233-0.898-3.102-1.44-4.56H302.947z M317.827,504.324
		c1.667,8.413,1.691,18.469,1.68,28.561C313.638,526.95,317.271,513.524,317.827,504.324z M266.467,440.004
		c1.174-0.106,2.066-0.494,3.36-0.479c-0.015,1.375,0.684,2.036,0.72,3.36h-3.6C266.658,442.054,266.424,441.167,266.467,440.004z
		 M265.747,427.524c1.779,3.261,2.856,7.224,3.84,11.28c-1.255,0.104-2.104,0.615-3.36,0.72c-0.946-3.773-1.625-7.814-2.4-11.76
		C264.6,427.817,264.842,427.34,265.747,427.524z M323.347,546.564c0.337,1.976,2.005,3.654,1.92,5.28
		C324.271,550.44,323.186,549.125,323.347,546.564z M327.667,564.805c0.703,0.896,1.31,1.89,1.92,2.88
		C328.358,567.313,327.994,566.078,327.667,564.805z M328.387,565.284c-0.604-1.188-0.859-2.995-1.68-4.56
		c-0.874-1.664-2.173-3.181-1.44-4.08c0.592,0.031,1.156,0.036,1.44-0.24c2.711,3.929,8.257,5.023,10.8,9.12
		C334.231,566.025,330.157,568.772,328.387,565.284z M353.587,557.364c0.728,0.666-0.508,1.398-0.72,1.92
		C352.217,558.696,353.686,558.197,353.587,557.364z M352.627,544.885c0.252,0.189-0.198,1.708-1.2,1.439
		C351.332,545.349,352.448,545.586,352.627,544.885z M350.947,530.004c-0.574-1.905-1.062-3.897-1.44-6
		C350.672,525.318,350.795,527.676,350.947,530.004z M350.947,546.805c-0.689,0.75-1.772,1.107-3.12,1.199
		C348.512,547.249,349.9,547.198,350.947,546.805z M347.827,559.765c-2.575,2.385-3.961,5.958-6.96,7.92
		c-2.91-2.61-5.463-5.577-8.88-7.681c3.716,0.09,5.773,6.618,9.36,6.24C344.57,565.905,344.251,560.361,347.827,559.765z
		 M341.827,547.044c0.586-0.533,3.419,0.702,5.52,0.24C346.351,548.803,343.057,547.563,341.827,547.044z M347.347,514.645
		c0.077,1.117-0.479,1.602-0.48,2.64c-1.357-2.483-2.879-4.801-3.6-7.92C344.656,511.096,345.902,512.969,347.347,514.645z
		 M341.347,477.685c1.329,4.529,6.833,7.06,8.4,11.04c0.058,8.777-2.222,15.219-5.28,20.88c-4.37-4.605-3.483-13.611-3.84-22.08
		c-0.329-7.805-1.314-15.732-1.68-22.561C342.532,467.488,340.131,473.541,341.347,477.685z M346.387,559.284
		c-1.513,2.327-3.017,4.663-5.04,6.48c-3.352-1.769-5.486-4.754-8.88-6.48c1.376-1.676,2.919-3.91,5.04-4.08
		C340.692,554.949,343.658,558.589,346.387,559.284z M338.707,554.725c-4.15-1.45-5.523-5.677-6.48-10.32
		C334.07,548.162,335.164,552.668,338.707,554.725z M335.347,398.004c0.714,3.5,0.667,7.875,0.48,12
		c-0.135,2.965,0.488,6.263-0.96,8.4c-2.149-0.293-1.484-3.177-1.68-5.04c-0.217-2.069-0.82-4.024-0.72-5.76
		c-9.971-4.602-22.165,0.676-28.56,5.52c-1.201-1.199-2.181-2.618-2.88-4.319c8.071-4.106,19.393-12.728,30.24-6.721
		C331.386,399.936,331.663,396.061,335.347,398.004z M330.787,393.204c-4.533-0.97-9.73-4.065-14.16-3.12
		c-2.147,0.459-4.305,2.634-6.24,3.84c-2.275,1.419-4.417,2.471-6.24,3.841c0.75-16.831-1.419-30.741-1.68-46.561
		c-0.611,10.817,1.025,24.994,0.96,36.96c-0.016,3.008,1.013,6.978,0,9.84c-0.909,2.569-5.415,4.473-5.52,8.4
		c-1.624-2.323-3.109-4.819-4.56-7.44c-1.352-2.441-3.372-5.454-3.84-8.159c-0.571-3.296,0.315-7.02,0.72-10.32
		c0.416-3.389,0.498-6.996,1.44-9.6c1.511-4.176,4.285-8.323,6.48-12.48c2.418-4.579,4.281-9.223,6.48-13.2
		c0.046-0.272,0.241-0.133,0.24,0c-0.662,1.578-0.09,4.391-2.16,4.561c2.911-0.064,5.628-1.789,8.64-2.88
		c2.773-1.006,5.974-3.18,8.64-3.36c3.26-0.221,6.148,1.927,9.84,2.16C329.53,361.149,329.091,378.082,330.787,393.204z
		 M327.667,344.484c-5.826-0.942-11.767-2.702-18-3.84c2.541,1.219,5.825,1.695,8.88,2.4c-4.518,2.122-9.283,3.997-13.92,6
		c0.145-2.015,0.389-3.93,0.72-5.76c-2.093,2.867-3.215,6.705-5.28,9.601c-7.343,7.378-14.462,17.358-19.92,27.119
		c-5.042,9.019-11.722,17.089-16.32,26.16c-3.792-0.527-6.475-2.165-10.08-2.88c2.976,1.584,6.312,2.808,10.32,3.36
		c-0.433,2.287-1.473,3.967-2.16,6c-3.495-0.985-5.972-2.988-9.84-3.601c0.058,0.423,0.413,0.548,0.96,0.48
		c-0.1,0.54-1.316-0.036-1.2,0.72c3.253-0.568,5.845,2.06,9.6,2.4c-0.318,11.76,3.627,20.531,4.56,30.24
		c-4.633-0.087-8.927-0.513-13.2-0.961c-2.964-8.807-1.719-21.949,0.24-30.96c-0.855,0.265-0.503,1.737-0.96,2.4
		c-1.299-0.7-2.522-1.478-4.08-1.92c1.467-3.572,2.138-7.941,3.6-11.521c0.758,0.283,1.744,0.337,1.92,1.2
		c-2.462-13.058-4.064-26.976-6-40.56c0.785,13.055,3.113,26.647,5.28,39.12c-0.651-0.069-1.131-0.309-1.44-0.721
		c-1.462,3.739-2.473,7.929-3.6,12c0.209,1.071,1.18,1.381,2.16,1.681c-1.01,1.711-2.164,3.276-3.6,4.56
		c-13.258,0.468-26.367-0.244-38.4-1.68c-0.707-4.914-1.355-9.078-2.16-14.16c-0.225-1.42-0.834-3.501-0.72-4.56
		c0.313-2.902,7.313-9.436,1.92-11.521c3.223-9.018,6.861-17.619,9.6-27.12c5.718,9.322,11.83,18.251,19.44,25.681
		c-5.141-5.691-10.036-12.306-14.64-19.681c-1.324-2.121-3.829-5.155-4.08-7.2c-0.103-0.833,0.325-1.271,0.48-2.159
		c1.13-6.491,1.094-14.898,2.64-22.081c5.677-0.477,7.969,2.431,10.8,4.8c-0.613,17.221,0.89,34.058,5.76,46.56
		c-3.31-11.728-6.079-27.094-4.8-43.439c3,1.799,7.005,2.594,11.04,3.36c-1.542-1.195-4.268-1.236-6.48-1.92
		c-1.877-0.581-4.724-1.124-4.32-3.84c1.447,1.193,2.112,3.168,4.8,3.12c1.272-2.648,1.59-6.25,2.64-9.12
		c-0.429-0.931-1.721-0.999-2.4-1.68c-0.539,2.379-1.469,7.405-2.88,8.88c-1.533-0.711,0.431-1.44,0.72-2.4
		c0.638-3.676,2.38-8.533-1.68-8.88c3.381-25.179,11.005-46.115,19.92-65.76c-2.585,11.495-7.366,22.874-10.8,34.32
		c5.175-12.105,8.792-25.767,12.96-38.88c2.062-0.178,3.458-1.022,5.52-1.2c-1.148,15.235,1.031,30.483,1.2,44.4
		c-7.068-0.593-14.196,0.197-21.36,0.24c0.339-1.261,1.086-2.114,1.2-3.6c-0.697,1.063-1.142,2.379-1.68,3.6
		c4.002,0.992,10.462,0.419,14.88,0.24c-3.41,9.311-5.187,22.332-6.96,34.08c-1.35-0.3-1.417-0.94-1.44-2.16
		c-3.693-2.227-8.146-3.693-12-5.76c2.787,2.334,7.99,4.331,12,6.24c-0.454,1.099-1.661-0.144-2.4-0.24
		c-1.197,0.944-1.16,3.085-1.68,4.8c-0.435,1.434-2.038,3.267-0.48,4.32c1.899-1.621,1.989-5.051,3.12-7.44
		c0.133,2.375-1.361,5.197-2.16,7.44c1.403,0.597,2.905,1.095,4.08,1.92c0.188,4.362-1.219,10.447-0.72,15.121
		c0.536-4.047,0.805-10.38,1.68-14.88c0.67,0.21,1.186,0.575,1.92,0.72c-0.266,5.094-0.56,10.159-0.479,15.6
		c0.157,0.075,0.363-0.586,0.24-0.72c1.212,1.317,0.967,7.841,1.2,10.08c1.015,9.754,2.447,21.484,3.6,30
		c-0.57-10.744-2.061-21.321-3.36-32.4c-0.848-7.23-1.835-14.348-0.72-22.56c2.962,0.002,5.037-0.883,7.92-0.96
		c0.685-0.395-0.896-0.521-0.96-0.96c0.731-2.549,1.38-5.18,1.2-8.64c3.711,1.15,0.134,6.334,0.48,9.36
		c0.924-2.353,2.065-6.789,1.44-9.12c-2.894-2-5.858,0.16-9.12,0.48c0.845-8.915,2.766-16.754,3.84-25.44
		c-2.08,8.08-2.969,17.351-4.8,25.68c-0.502,0.102-0.636-0.165-0.96-0.24c-0.25-5.677,0.814-12.905,1.92-19.2
		c0.508-2.892,1.163-6.204,2.16-8.88c0.866-2.324,1.399-6.408,4.56-6.24c-0.644,2.796-2.202,4.678-2.64,7.68
		c1.787-2.053,1.682-5.997,3.84-7.68c-1.736,4.984-3.369,10.071-3.84,16.32c1.578-5.382,2.179-11.741,4.56-16.32
		c0.792-0.616,1.919,0.035,2.88,0c1.077-4.166-1.511-7.99-0.72-11.52c0.271-1.209,2.535-3.721,3.6-5.04
		c3.736-4.625,8.089-9.57,11.52-13.92c0.328,0.579-0.385,2.167-0.24,3.36c0.591-4.991,3.921-7.533,6.96-11.04
		c6.021-6.949,12.063-14.305,18-20.88c-4.552,9.888-7.768,21.814-8.64,36c-0.146,2.382-0.05,4.446-0.72,6.72
		c-1.486-2.354-1.583-6.098-2.64-8.88c1.674,10.646,4.839,21.881,9.12,30.72c-0.918,0.916-0.138,3.17,0.24,4.8
		c0.615-0.866-0.283-2.269-0.24-3.36c2.716-4.014,10.977-5.73,17.04-7.44c6.411-1.808,12.613-3.124,17.76-4.8
		c0.591-0.031,1.156-0.036,1.44,0.24c5.519-1.841,11.464-3.256,17.52-4.56c-5.291,8.149-9.76,17.12-15.6,24.72
		c-5.194-0.718-12.009-0.813-16.32,0.72c-0.27,0.446,0.171,1.784,0,2.88c-5.591,1.208-10.267,3.333-15.12,5.28
		c-2.113-4.127-4.138-8.342-5.76-12.96c0.753,4.527,3.117,9.523,5.52,13.2c-0.543,4.798,1.312,10.146-0.48,14.4
		c0.747-0.708,3.207,0.834,4.56,0.24c-0.952-0.729-2.616-0.744-4.08-0.96c0.336-1.023,0.688-2.032,0.96-3.12
		c4.991-1.729,9.594-3.846,14.88-5.28c0.678,0.185,1.344,1.176,0.96,1.68c4.547-1.532,11.006-1.153,15.84-2.4
		c0.537-0.104,0.097-1.183,0.24-1.68c5.992,7.048,13.349,12.731,19.44,19.68c-9.245,0.136-17.896-0.976-26.16-2.88
		C330.261,344.991,329.94,344.852,327.667,344.484z M235.027,340.164c0.447-0.431,2.627-0.559,2.16,0.72
		C236.09,341.021,235.854,340.296,235.027,340.164z M322.147,319.524v-1.92c4.412-1.015,9.929-1.142,15.12-0.72
		c1.219,3.501,0.909,8.531,0.96,13.2c-4.886,0.33-11.36,1.579-15.12,1.44c-0.034-1.314,1.732-0.828,1.92-1.92
		C324.327,326.118,325.477,319.589,322.147,319.524z"/>
	<path d="M83.827,337.284c-1.674-4.493-1.889-9.913-2.4-15.6c-0.942-10.471-0.341-22.019-0.454-33.359
		c-0.197-0.316-0.355-0.655-0.478-1.008c-0.042,0.458-0.136,0.909-0.286,1.339c-0.143,15.813-0.86,32.953,1.938,45.748
		c1.351,6.177,5.14,10.28,7.68,14.88C88.586,344.936,85.512,341.807,83.827,337.284z"/>
	<path d="M120.547,254.004c-2.394,3.444-3.707,6.204-7.2,8.88c-2.452,1.878-7.745,3.963-9.12,6.96
		c-0.619,1.349-0.243,2.978-0.72,4.32c-0.579,1.629-2.298,3.723-3.84,4.08c-0.236,1.435-0.993,2.467-2.097,3.221h0.446
		c0.07,0,0.136,0.008,0.205,0.01c0.58-0.579,1.233-1.084,1.686-1.791c0.83,0.291,1.031,1.21,1.2,2.16
		c-0.405-0.048-0.742-0.029-1.047,0.022c0.445,0.192,0.836,0.447,1.174,0.75c0.025-0.003,0.05-0.007,0.075-0.011
		c0.082-0.385,0.201-0.76,0.363-1.114c-0.311-0.33,0.561-0.779,0.395-1.327c-0.208-0.708-0.359,0.557-0.96,0.24
		c-0.125-0.355-0.355-0.605-0.48-0.96c0.468-1.372,1.874-1.806,2.16-3.36c0.438,1.41-0.125,3.158-0.625,4.569
		c0.328-0.451,0.738-0.844,1.231-1.15c0.432-3.097,0.533-6.514,1.553-8.938c1.306-3.104,6.246-5.066,8.88-7.2
		c3.456-2.8,4.952-5.361,6.96-8.88c2.646,9.305-4.515,14.557-7.92,20.16c-0.356-0.105,0.094-0.308,0-0.72
		c-1.067,1.252-2.342,4.1-3.581,6.07c0.227,0.209,0.429,0.44,0.607,0.688c0.586-2.098,1.695-3.673,2.494-5.558
		c1.959-1.36,4.006-3.86,5.76-6.48C120.72,264.801,124.043,258.831,120.547,254.004z"/>
	<path fill-rule="evenodd" clip-rule="evenodd" d="M317.827,171.204c-4.481-11.199-6.97-24.39-12.24-34.8
		c-0.067-0.429,0.227-0.493,0.24-0.24C311.168,146.503,314.235,159.117,317.827,171.204z"/>
	<path fill-rule="evenodd" clip-rule="evenodd" d="M310.627,145.284c1.677,0.564,4.016,2.543,6.48,3.12
		c0.297-0.776-0.776-0.184-0.48-0.96c0.798,0.402,1.299,1.101,2.16,1.44C315.52,149.19,312.732,146.94,310.627,145.284z"/>
	<path fill-rule="evenodd" clip-rule="evenodd" d="M230.227,170.964c0.622,0.738,1.692,1.028,2.4,1.68
		c-2.104,0.66-3.594-1.364-5.76-1.44c0.162,1.145,2.386,3.499,1.68,5.52c-1.301-0.378-0.796-2.564-1.92-3.12
		c0.043,1.109-0.859,0.976-1.68,1.44c1.039,0.59,0.163,2.257-0.96,2.16c-0.715-0.485-0.615-1.785-0.96-2.64
		c-0.721,0.464-2.057,0.812-2.4-0.24c1.192-0.075,0.756-1.408,0.96-1.92c0.767,0.273,0.568,1.512,1.44,1.68
		c1.002-0.358,1.667-1.053,2.4-1.68c-1.14-1.31-3.344-0.97-4.56,0c-0.312-0.493-1.743-0.586-0.96-1.44
		c-3.732,0.428-6.147,2.173-9.36,3.12c-0.128-0.833-0.642-1.278-0.72-2.16c5.403-4.198,15.209-4.693,21.6-0.96
		C231.224,171.668,230.654,170.821,230.227,170.964z"/>
	<path fill-rule="evenodd" clip-rule="evenodd" d="M287.347,176.484c-0.549,0.582-0.851,0.29-1.68,0.24
		c-0.011,0.411,0.179,0.622,0.48,0.72c-0.392,0.471-2.237-0.7-1.44,0.96c-0.555-0.325-0.795-0.965-1.92-0.72
		c-0.507,0.074,0.252,0.833,0.72,0.72c-3.017-0.984-8.78-1.299-12.48-2.4c0.479-0.561,1.383-0.697,2.16-0.96
		c-1.053-1.631-0.919-6.077,0.24-6.72c-0.156,1.648-1.015,5.281,0.48,6.96c4.523,0.206,9.659,2.384,13.68,0.24
		C288.344,175.635,285.934,176.438,287.347,176.484z"/>
	<path fill-rule="evenodd" clip-rule="evenodd" d="M218.467,173.844c0.638,0.002,1.371-0.091,1.68,0.24
		c-0.669,1.989,0.191,4.202,0.96,5.52C218.879,179.76,218.33,176.249,218.467,173.844z"/>
	<path fill-rule="evenodd" clip-rule="evenodd" d="M195.187,195.444c1.276-3.284,2.661-6.459,4.32-9.36
		C198.791,188.02,196.975,192.983,195.187,195.444z"/>
	<path fill-rule="evenodd" clip-rule="evenodd" d="M259.027,284.004c1.161,4.265,2.027,8.652,1.92,13.44
		c-4.661,0.725-12.189,0.785-16.32,0.48c0.394-4.567,3.213-8.786,4.8-12.96C252.366,284.383,256.185,284.682,259.027,284.004z
		 M244.867,297.444c5.123-0.237,10.477-0.243,15.6-0.48c-0.052-4.668-0.88-8.56-1.68-12.48c-2.737,0.623-5.921,0.799-9.36,0.72
		C248.168,289.545,246.264,293.241,244.867,297.444z"/>
	<path fill-rule="evenodd" clip-rule="evenodd" d="M272.227,300.084c2.026,1.194,5.368,1.737,7.68,1.92
		c-2.604,1.112-5.991-1.011-8.64-1.44c3.116-3.524,7.387-5.893,11.04-8.88c0.488,0.327-1.198,1.587-1.92,2.16
		C277.892,295.822,274.5,297.891,272.227,300.084z"/>
	<path fill-rule="evenodd" clip-rule="evenodd" d="M277.747,307.764c0.961,0.559,1.566,1.474,2.64,1.92
		c-0.17-1.936-0.762-5.922,0.24-7.44c0.408,3.091-0.488,5.481,0.24,7.68c0.466,1.407,4.315,4.411,5.52,5.52
		c2.094,1.928,4.123,3.527,5.76,5.04c-1.733-4.587-2.972-9.668-4.56-14.4c-1.152-0.705-2.467-1.805-3.84-2.64
		c-1.167-0.71-3.503-1.002-3.12-2.64c2.055,1.796,5.112,3.562,7.2,4.56c1.767,5.193,3.285,10.635,5.04,15.84
		c-5.599-3.477-10.258-7.641-15.12-11.28c-6.193,3.167-11.763,6.958-17.52,10.56C265.713,315.89,271.755,311.852,277.747,307.764z"
		/>
	<path fill-rule="evenodd" clip-rule="evenodd" d="M275.827,313.524c-0.624,3.376-1.45,6.55-2.16,9.84
		C273.69,320.347,274.732,316.271,275.827,313.524z"/>
	<path fill-rule="evenodd" clip-rule="evenodd" d="M272.227,328.645c0-0.16,0-0.32,0-0.48c-1.783,9.134-5.069,21.073-8.16,30.48
		c-0.144,0.498,1.055,0.818,0.48,0.96c-0.964,0.581-0.633-0.553-1.2-0.96c-2.208-0.912-3.986-2.254-5.76-3.601
		c1.932,0.391,3.908,2.812,6.24,3.601C266.859,348.877,269.091,338.309,272.227,328.645z"/>
	<path fill-rule="evenodd" clip-rule="evenodd" d="M204.547,386.484c-0.655-0.099-0.655-2.491,0-1.2
		c0.232-14.014-2.437-26.93-5.04-38.88c3.125,10.858,6.201,24.112,5.04,37.68C206.517,382.574,204.448,385.073,204.547,386.484z"/>
	<path fill-rule="evenodd" clip-rule="evenodd" d="M90.787,351.204c5.687,7.059,11.896,15.902,18,24.48
		c2.842,3.993,5.937,8.281,8.88,12.479c2.975,4.243,5.81,8.836,9.12,12.24c1.316,1.354,2.804,2.4,4.08,3.84
		c6.027,6.799,12.228,13.313,19.68,19.44c2.612,2.147,6.706,5.5,10.8,4.8c3.593-0.615,4.27-4.721,6.24-7.44
		c0.299,2.424-3.065,7.681-6.24,8.16c-1.962,0.297-4.48-0.472-6-1.2c-4.365-2.091-8.113-6.192-11.52-9.6
		c-3.459-3.459-6.75-7.396-10.32-10.56c-8.4-7.447-15.215-17.515-22.32-27.36C103.907,370.395,96.596,360.204,90.787,351.204z"/>
	<path fill-rule="evenodd" clip-rule="evenodd" d="M193.027,351.924c-1.26,17.978-8.154,34.613-14.4,49.2
		c-2.461,5.748-5.017,12.331-7.92,16.32c-0.424,0.582-0.711,1.88-1.2,1.44c5.581-9.846,10.508-22.383,14.88-34.08
		C188.172,374.676,191.828,363.917,193.027,351.924z"/>
	<path fill-rule="evenodd" clip-rule="evenodd" d="M233.827,386.725c0.263,6.902-2.349,13.011-3.6,19.199
		C230.583,399.641,233.562,393.899,233.827,386.725z"/>
	<path fill-rule="evenodd" clip-rule="evenodd" d="M261.187,387.444c-0.026,5.095-2.218,10.102-2.64,15.6
		C258.094,398.425,260.41,392.433,261.187,387.444z"/>
	<path fill-rule="evenodd" clip-rule="evenodd" d="M171.667,416.964C171.495,418.648,169.518,419.865,171.667,416.964
		L171.667,416.964z"/>
	<path fill-rule="evenodd" clip-rule="evenodd" d="M252.307,506.484c6.097-2.703,12.656-4.944,19.68-6.72
		C265.445,502.022,258.923,504.3,252.307,506.484z"/>
	<path fill-rule="evenodd" clip-rule="evenodd" d="M300.547,585.685c-3.377,10.942-8.057,22.662-12.96,32.88
		c-0.584-1.362,0.709-2.695,1.2-3.84C292.72,605.54,296.711,595.121,300.547,585.685z"/>
</g>
</svg>
