<?xml version="1.0" encoding="utf-8"?>
<!-- Generator: Adobe Illustrator 14.0.0, SVG Export Plug-In . SVG Version: 6.00 Build 43363)  -->
<!DOCTYPE svg PUBLIC "-//W3C//DTD SVG 1.1//EN" "http://www.w3.org/Graphics/SVG/1.1/DTD/svg11.dtd">
<svg version="1.1" id="图层_1" xmlns="http://www.w3.org/2000/svg" xmlns:xlink="http://www.w3.org/1999/xlink" x="0px" y="0px"
	 width="848px" height="480px" viewBox="0 0 848 480" enable-background="new 0 0 848 480" xml:space="preserve">
<g>
	<path fill-rule="evenodd" clip-rule="evenodd" fill="none" stroke="#000000" stroke-width="0.9083" stroke-linecap="round" d="
		M381,94.5c1.786,0.831,4.027-0.186,5.625,1.125"/>
	<path fill-rule="evenodd" clip-rule="evenodd" fill="none" stroke="#000000" stroke-width="0.75" stroke-linecap="round" d="
		M426,108.75c-0.138-0.638,0.293-0.708,0.75-0.75c1,0,2,0,3,0C429.876,109.626,427.09,108.34,426,108.75z"/>
	<path fill-rule="evenodd" clip-rule="evenodd" fill="none" stroke="#000000" stroke-width="1.5051" stroke-linecap="round" d="
		M403.875,160.125c3.245-3.644,9.781-4.917,13.125-0.375"/>
	<path fill-rule="evenodd" clip-rule="evenodd" fill="none" stroke="#000000" stroke-width="1.2944" stroke-linecap="round" d="
		M415.5,171.75c0.01-0.517-0.004-1.184-0.04-1.733c-2.383-5.822-11.688-3.729-12.335,2.108"/>
	<path fill-rule="evenodd" clip-rule="evenodd" fill="none" stroke="#000000" stroke-width="1.3693" stroke-linecap="round" d="
		M406.5,174.563c-0.715-1.807,1.441-5.626,3.188-3.563"/>
	<path fill-rule="evenodd" clip-rule="evenodd" fill="none" stroke="#000000" stroke-width="1.3612" stroke-linecap="round" d="
		M406.5,174.563c0.49,0.238,1.546,0.658,2.409,0.323c0.975-1.098,0.31-2.618,0.778-3.885"/>
	<path fill-rule="evenodd" clip-rule="evenodd" fill="none" stroke="#000000" stroke-width="1.1981" stroke-linecap="round" d="
		M406.5,174.563c-1.492,1.277-0.634,3.939-0.158,5.598c0.472,0.525,0.984,1.014,1.451,1.547c0.882,0.174,1.894,0.188,2.602-0.065
		c2.164-2.945,2.416-7.391,0.578-10.5c-0.306-0.074-0.791-0.109-1.285-0.143"/>
	<path fill-rule="evenodd" clip-rule="evenodd" fill="none" stroke="#000000" stroke-width="0.75" stroke-linecap="round" d="
		M393.75,187.5c0.5,0,1,0,1.5,0c0,0.5,0,1,0,1.5c-0.5,0-1,0-1.5,0C393.75,188.5,393.75,188,393.75,187.5z"/>
	<path fill-rule="evenodd" clip-rule="evenodd" fill="none" stroke="#000000" stroke-width="1.1385" stroke-linecap="round" d="
		M416.625,310.875c2.648-1.048,5.789-2.142,8.625-1.125"/>
	<path fill-rule="evenodd" clip-rule="evenodd" fill="none" stroke="#000000" stroke-width="0.9402" stroke-linecap="round" d="
		M376.875,337.875c0.268-0.481,0.585-0.915,0.75-1.5"/>
	<path fill-rule="evenodd" clip-rule="evenodd" fill="none" stroke="#000000" stroke-width="1.136" stroke-linecap="round" d="
		M394.5,92.625c-0.083-4.98-4.104-8.437-5.25-13.125"/>
	<path fill-rule="evenodd" clip-rule="evenodd" fill="none" stroke="#000000" stroke-width="1.7589" stroke-linecap="round" d="
		M389.25,79.5c-1.172-0.333-1.339-1.898-2.625-1.875"/>
	<path fill-rule="evenodd" clip-rule="evenodd" fill="none" stroke="#000000" stroke-width="0.9794" stroke-linecap="round" d="
		M389.25,79.5c3.679,0.722,7.614,4.974,10.923,8.577c3.143,3.422,6.488,7.73,8.047,12.203c0.632,1.814,0.096,3.28,1.405,4.845"/>
	<path fill-rule="evenodd" clip-rule="evenodd" fill="none" stroke="#000000" stroke-width="1.048" stroke-linecap="round" d="
		M409.625,105.125c1.934-1.305,1.792-4.466,3.625-6.125"/>
	<path fill-rule="evenodd" clip-rule="evenodd" fill="none" stroke="#000000" stroke-width="1.2792" stroke-linecap="round" d="
		M413.25,99c-1.246-1.519,1.002-2.587,0.75-4.125"/>
	<path fill-rule="evenodd" clip-rule="evenodd" fill="none" stroke="#000000" stroke-width="0.9837" stroke-linecap="round" d="
		M413.25,99c0.127-0.002,0.253-0.005,0.38-0.007c2.188,2.094-1.593,5.668-0.332,8c4.002-2.544,9.035-5.874,13.938-4.198
		c-1.989,2.251-5.504,3.244-6.486,6.33"/>
	<path fill-rule="evenodd" clip-rule="evenodd" fill="none" stroke="#000000" stroke-width="1.4361" stroke-linecap="round" d="
		M409.625,105.125c-0.066,0.288-0.267,0.655-0.5,1"/>
	<path fill-rule="evenodd" clip-rule="evenodd" fill="none" stroke="#000000" stroke-width="1.1339" stroke-linecap="round" d="
		M394.5,92.625c0.944,1.57,0.676,4.052,1.875,5.25"/>
	<path fill-rule="evenodd" clip-rule="evenodd" fill="none" stroke="#000000" stroke-width="0.9798" stroke-linecap="round" d="
		M384,87.375c2.462,3.638,4.955,7.543,7.875,10.5"/>
	<path fill-rule="evenodd" clip-rule="evenodd" fill="none" stroke="#000000" stroke-width="1.4361" stroke-linecap="round" d="
		M382.125,85.875c0.959,0.926,1.567,1.106,1.875,1.5"/>
	<path fill-rule="evenodd" clip-rule="evenodd" fill="none" stroke="#000000" stroke-width="0.8714" stroke-linecap="round" d="
		M384,87.375c4.088,0.273,6.415,4.584,10.5,5.25"/>
	<path fill-rule="evenodd" clip-rule="evenodd" fill="none" stroke="#000000" stroke-width="1.255" stroke-linecap="round" d="
		M360.125,113.875c0.328,0.118,0.956,0.391,1.75,0.5"/>
	<path fill-rule="evenodd" clip-rule="evenodd" fill="none" stroke="#000000" stroke-width="1.0936" stroke-linecap="round" d="
		M342.375,159c-12.46-11.853-19.307-29.249-17.531-46.418c2.843,1.582,5.643,4.359,8.704,6.121c2.299,1.324,5.011,2.786,7.6,2.925
		c0.066-0.334,0.023-0.596-0.025-0.854c-2.671-2.365-4.641-5.232-6.846-8.073c-0.115-0.524-0.015-0.973,0.096-1.417
		c0.55-0.238,1.18,0.026,2.036,0.069c7.134,2.876,15.863,3.735,23.717,2.522"/>
	<path fill-rule="evenodd" clip-rule="evenodd" fill="none" stroke="#000000" stroke-width="1.0507" stroke-linecap="round" d="
		M360.125,113.875c-4.666-4.953-12.559-7.498-15.731-13.839c10.413-0.243,19.318-5.049,29.481-5.911"/>
	<path fill-rule="evenodd" clip-rule="evenodd" fill="none" stroke="#000000" stroke-width="1.3378" stroke-linecap="round" d="
		M432.625,119.125c1.512,0.921,3.38,0.636,5,1.25"/>
	<path fill-rule="evenodd" clip-rule="evenodd" fill="none" stroke="#000000" stroke-width="2.2749" stroke-linecap="round" d="
		M437.625,120.375c0.25,0,0.5,0,0.75,0"/>
	<path fill-rule="evenodd" clip-rule="evenodd" fill="none" stroke="#000000" stroke-width="1.0062" stroke-linecap="round" d="
		M437.625,120.375c-0.161,2.152-3.411,0.653-3.312,2.571c0.71,0.285,1.455,0.536,1.967,1.024c1.783,0.097,3.477,0.178,5.095,0.905"
		/>
	<path fill-rule="evenodd" clip-rule="evenodd" fill="none" stroke="#000000" stroke-width="1.299" stroke-linecap="round" d="
		M430.875,119.625c0.857-0.196,1.303-0.351,1.75-0.5"/>
	<path fill-rule="evenodd" clip-rule="evenodd" fill="none" stroke="#000000" stroke-width="0.9287" stroke-linecap="round" d="
		M432.625,119.125c0.042-0.185,0.132-0.412,0.224-0.641c4.099-2.044,8.892-2.644,13.139-3.779c-3.302-3.616-8.302-4.664-12.862-5.58
		"/>
	<path fill-rule="evenodd" clip-rule="evenodd" fill="none" stroke="#000000" stroke-width="1.6202" stroke-linecap="round" d="
		M438.875,171.875c0.395-0.243,0.479-0.557,0.625-0.875"/>
	<path fill-rule="evenodd" clip-rule="evenodd" fill="none" stroke="#000000" stroke-width="1.8589" stroke-linecap="round" d="
		M403.875,199.125c0.136,1.402,1.259,2.27,1.688,3.563"/>
	<path fill-rule="evenodd" clip-rule="evenodd" fill="none" stroke="#000000" stroke-width="1.5" stroke-linecap="round" d="
		M405.563,202.688c1.636,0.77,2.26,2.543,3.188,3.938"/>
	<path fill-rule="evenodd" clip-rule="evenodd" fill="none" stroke="#000000" stroke-width="1.0122" stroke-linecap="round" d="
		M408.75,206.625c4.023-0.088,6.639,3.966,10.875,3.75"/>
	<path fill-rule="evenodd" clip-rule="evenodd" fill="none" stroke="#000000" stroke-width="1.2823" stroke-linecap="round" d="
		M408.75,206.625c-0.487,1.444-1.699,2.481-1.688,4.125"/>
	<path fill-rule="evenodd" clip-rule="evenodd" fill="none" stroke="#000000" stroke-width="1.2925" stroke-linecap="round" d="
		M407.063,210.75c-0.112,2.879,0.067,6.256-1.345,8.857c-0.292,0.086-0.652,0.112-1.016,0.136c-0.73-0.322-1.743-1.347-2.702-2.244"
		/>
	<path fill-rule="evenodd" clip-rule="evenodd" fill="none" stroke="#000000" stroke-width="1.2178" stroke-linecap="round" d="
		M402,217.5c-1.451,0.964-2.614,2.516-3.375,4.125"/>
	<path fill-rule="evenodd" clip-rule="evenodd" fill="none" stroke="#000000" stroke-width="1.3988" stroke-linecap="round" d="
		M398.625,221.625c1.853,2.43,1.27,5.95,0.375,8.625"/>
	<path fill-rule="evenodd" clip-rule="evenodd" fill="none" stroke="#000000" stroke-width="1.9365" stroke-linecap="round" d="
		M396.375,233.625c-0.975,0.991-1.221,2.299-1.688,3.563"/>
	<path fill-rule="evenodd" clip-rule="evenodd" fill="none" stroke="#000000" stroke-width="1.7048" stroke-linecap="round" d="
		M394.688,237.188c0.473,0.67,0.505,2.047,0.75,2.813"/>
	<path fill-rule="evenodd" clip-rule="evenodd" fill="none" stroke="#000000" stroke-width="1.0155" stroke-linecap="round" d="
		M395.438,240c1.27,0.458,2.862,0.693,3.77-0.553c0.139-0.66-0.052-1.18-0.251-1.664c-0.11-0.136-0.221-0.272-0.331-0.408"/>
	<path fill-rule="evenodd" clip-rule="evenodd" fill="none" stroke="#000000" stroke-width="1.1866" stroke-linecap="round" d="
		M396.375,248.625c0.883,1.554,1.749,1.09,3.335,1.196c6.143,0.411,13.642-2.804,18.04-3.821"/>
	<path fill-rule="evenodd" clip-rule="evenodd" fill="none" stroke="#000000" stroke-width="1.1958" stroke-linecap="round" d="
		M417.75,246c0.162-0.088,0.324-0.176,0.486-0.264c0.583-0.48,0.843-1.104,0.979-1.601c-2.57-6.639-5.367-14.012-4.429-21.116
		c2.488,0.089,4.787,0.716,7.089,1.605"/>
	<path fill-rule="evenodd" clip-rule="evenodd" fill="none" stroke="#000000" stroke-width="1.3832" stroke-linecap="round" d="
		M417.75,246c0.256,0.494,0.599,0.9,0.963,1.287c5.267,17.992,10.54,36.655,8.159,55.67c0.434,0.472,4.096,2.308,3.618,4.813
		c-0.074,0.388-0.467,0.715-0.589,1.141c-0.566,1.973,0.6,3.506,0.599,4.589"/>
	<path fill-rule="evenodd" clip-rule="evenodd" fill="none" stroke="#000000" stroke-width="1.4454" stroke-linecap="round" d="
		M430.5,313.5c0.877,1.054,0.77,1.902,0,3"/>
	<path fill-rule="evenodd" clip-rule="evenodd" fill="none" stroke="#000000" stroke-width="1.0724" stroke-linecap="round" d="
		M430.5,316.5c1.917,2.582,4.265,4.728,6.548,6.952c2.809,0.542,5.861,2.295,6.18,5.409c-0.324,0.606-0.728,1.026-1.103,1.514"/>
	<path fill-rule="evenodd" clip-rule="evenodd" fill="none" stroke="#000000" stroke-width="2.25" stroke-linecap="round" d="
		M442.125,330.375c-0.487,0.436-0.94,0.704-1.393,0.964"/>
	<path fill-rule="evenodd" clip-rule="evenodd" fill="none" stroke="#000000" stroke-width="1.6202" stroke-linecap="round" d="
		M440.732,331.339c-0.094,0.748-0.351,1.769-0.564,2.374c-0.837,0.378-1.859,0.743-2.793,0.662"/>
	<path fill-rule="evenodd" clip-rule="evenodd" fill="none" stroke="#000000" stroke-width="1.0185" stroke-linecap="round" d="
		M400.5,319.5c0.233,0.964,0.697,1.983,0.719,2.61c0.226,6.272-8.311,11.04-14.754,13.354c-0.81,0.291-1.492,0.591-2.195,0.806
		c-0.638,0.194-1.461-0.061-2.036,0.218c-1.186,0.575-1.471,2.761-3.859,2.887"/>
	<path fill-rule="evenodd" clip-rule="evenodd" fill="none" stroke="#000000" stroke-width="1.1061" stroke-linecap="round" d="
		M375,315.938c0.001,0.256,0.003,0.511,0.004,0.767c-2.858,3.687-5.993,7.548-9.754,10.296"/>
	<path fill-rule="evenodd" clip-rule="evenodd" fill="none" stroke="#000000" stroke-width="0.9324" stroke-linecap="round" d="
		M365.25,327c1.072,1.363-0.607,2.52-1.625,3.125"/>
	<path fill-rule="evenodd" clip-rule="evenodd" fill="none" stroke="#000000" stroke-width="1.1688" stroke-linecap="round" d="
		M363.625,330.125c0.305,0.987-0.613,1.723-1.375,2.125"/>
	<path fill-rule="evenodd" clip-rule="evenodd" fill="none" stroke="#000000" stroke-width="1.4302" stroke-linecap="round" d="
		M362.25,332.25c-0.08,0.868,0.188,1.613,0.454,2.55c0.291,0.31,0.945,0.346,1.609,0.45"/>
	<path fill-rule="evenodd" clip-rule="evenodd" fill="none" stroke="#000000" stroke-width="1.029" stroke-linecap="round" d="
		M364.313,335.25c0.127-1.979,1.966-3.012,2.063-4.875"/>
	<path fill-rule="evenodd" clip-rule="evenodd" fill="none" stroke="#000000" stroke-width="1.0933" stroke-linecap="round" d="
		M364.313,335.25c0.395,1.295,1.861,2.048,3.188,1.875"/>
	<path fill-rule="evenodd" clip-rule="evenodd" fill="none" stroke="#000000" stroke-width="1.1213" stroke-linecap="round" d="
		M367.5,337.125c0.119-1.953,1.034-3.597,1.875-5.25"/>
	<path fill-rule="evenodd" clip-rule="evenodd" fill="none" stroke="#000000" stroke-width="1.0247" stroke-linecap="round" d="
		M367.5,337.125c0.039,0.124,0.077,0.248,0.116,0.372c0.752,0.366,1.456,0.97,2.542,1.088c0.476-0.397,1.378-0.623,2.593-0.71"/>
	<path fill-rule="evenodd" clip-rule="evenodd" fill="none" stroke="#000000" stroke-width="1.2823" stroke-linecap="round" d="
		M372.75,337.875c0.026-1.659,0.92-3.208,1.875-4.5"/>
	<path fill-rule="evenodd" clip-rule="evenodd" fill="none" stroke="#000000" stroke-width="1.299" stroke-linecap="round" d="
		M372.75,337.875c0.045,0.25,0.207,0.5,0.375,0.75"/>
	<path fill-rule="evenodd" clip-rule="evenodd" fill="none" stroke="#000000" stroke-width="0.916" stroke-linecap="round" d="
		M337.875,157.875c-2.408-1.693-4.746-3.645-7.573-4.331c-0.076,0.321,0.033,1.231,0.292,1.868
		c3.313,4.925,6.567,9.96,11.209,13.535c4.034,3.106,8.668,4.465,12.64,7.244c-0.004,0.367-0.143,0.679-0.288,0.988
		c-1.873,0.646-4.288-0.43-5.892,0.617c3.926,2.009,8.069,4.245,12.486,4.83"/>
	<path fill-rule="evenodd" clip-rule="evenodd" fill="none" stroke="#000000" stroke-width="1.2827" stroke-linecap="round" d="
		M360.75,182.625c-0.29-3.251-2.269-7.28-0.408-10.113c0.378,0.04,0.907,0.324,1.326,0.568c0.609,1.423,1.483,2.677,1.707,4.294"/>
	<path fill-rule="evenodd" clip-rule="evenodd" fill="none" stroke="#000000" stroke-width="1.2845" stroke-linecap="round" d="
		M363.375,177.375c2.193,0.478,2.078,4.342,4.75,4"/>
	<path fill-rule="evenodd" clip-rule="evenodd" fill="none" stroke="#000000" stroke-width="1.0712" stroke-linecap="round" d="
		M368.125,181.375c-0.529-2.963-3.193-6.295-1.75-9.25"/>
	<path fill-rule="evenodd" clip-rule="evenodd" fill="none" stroke="#000000" stroke-width="2.25" stroke-linecap="round" d="
		M366.375,172.125c-0.771-1.375-0.762-2.97-0.75-4.5"/>
	<path fill-rule="evenodd" clip-rule="evenodd" fill="none" stroke="#000000" stroke-width="1.5462" stroke-linecap="round" d="
		M365.625,167.625c-0.388-0.429-0.624-0.937-0.75-1.5"/>
	<path fill-rule="evenodd" clip-rule="evenodd" fill="none" stroke="#000000" stroke-width="0.9561" stroke-linecap="round" d="
		M365.625,167.625c1.072-2.46,0.87-5.536,0.985-8.015c0.104-2.236,2.105-6.988,3.348-9.392c1.044-2.02,1.545-2.741,2.989-4.522
		c0.247-0.304,0.143-0.824,0.389-1.101c2.626-2.951,6.261-5.83,10.665-6.221"/>
	<path fill-rule="evenodd" clip-rule="evenodd" fill="none" stroke="#000000" stroke-width="1.0954" stroke-linecap="round" d="
		M384,138.375c0.947-1.391,0.629-3.571,1.875-4.5"/>
	<path fill-rule="evenodd" clip-rule="evenodd" fill="none" stroke="#000000" stroke-width="1.1314" stroke-linecap="round" d="
		M384,138.375c-1.254,7.209-1.33,14.542-0.49,21.641c0.018,0.149-0.257,0.333-0.26,0.484"/>
	<path fill-rule="evenodd" clip-rule="evenodd" fill="none" stroke="#000000" stroke-width="1.0607" stroke-linecap="round" d="
		M383.25,160.5c0.25,0.25,0.5,0.5,0.75,0.75"/>
	<path fill-rule="evenodd" clip-rule="evenodd" fill="none" stroke="#000000" stroke-width="1.4361" stroke-linecap="round" d="
		M384,161.25c0.998-0.31,1.378-0.838,1.875-1.875"/>
	<path fill-rule="evenodd" clip-rule="evenodd" fill="none" stroke="#000000" stroke-width="1.5219" stroke-linecap="round" d="
		M385.875,159.375c0.663-2.239,0.288-4.516,0-6.75"/>
	<path fill-rule="evenodd" clip-rule="evenodd" fill="none" stroke="#000000" stroke-width="1.2748" stroke-linecap="round" d="
		M385.875,159.375c0.464,0.182,0.781,0.316,1.09,0.448c0.556,0.745,0.181,2.119,1.41,2.302"/>
	<path fill-rule="evenodd" clip-rule="evenodd" fill="none" stroke="#000000" stroke-width="1.0155" stroke-linecap="round" d="
		M388.375,162.125c1.125-1.463-0.257-3.673,1.25-5"/>
	<path fill-rule="evenodd" clip-rule="evenodd" fill="none" stroke="#000000" stroke-width="1.6036" stroke-linecap="round" d="
		M389.625,157.125c-0.338-1-0.324-2-0.375-3"/>
	<path fill-rule="evenodd" clip-rule="evenodd" fill="none" stroke="#000000" stroke-width="1.6086" stroke-linecap="round" d="
		M397.875,152.625c-0.263-0.75-0.286-1.5-0.375-2.25"/>
	<path fill-rule="evenodd" clip-rule="evenodd" fill="none" stroke="#000000" stroke-width="1.5" stroke-linecap="round" d="
		M421.125,176.625c1.337-0.297,1.797-1.673,3-2.25"/>
	<path fill-rule="evenodd" clip-rule="evenodd" fill="none" stroke="#000000" stroke-width="0.9893" stroke-linecap="round" d="
		M426,180.375c5.092-0.932,9.608-4.568,12.875-8.5"/>
	<path fill-rule="evenodd" clip-rule="evenodd" fill="none" stroke="#000000" stroke-width="0.9186" stroke-linecap="round" d="
		M438.875,171.875c-0.575-0.35-1.31-0.382-2-0.5"/>
	<path fill-rule="evenodd" clip-rule="evenodd" fill="none" stroke="#000000" stroke-width="0.9186" stroke-linecap="round" d="
		M436.875,171.375c-0.202,0.525-1.099,0.572-1.875,0.75"/>
	<path fill-rule="evenodd" clip-rule="evenodd" fill="none" stroke="#000000" stroke-width="1.6202" stroke-linecap="round" d="
		M435,172.125c-0.155,0.22-0.462,0.288-0.75,0.375"/>
	<path fill-rule="evenodd" clip-rule="evenodd" fill="none" stroke="#000000" stroke-width="0.9555" stroke-linecap="round" d="
		M436.875,170.625c0.452-1.264,1.71-1.638,2.791-2.455c4.137-3.127,6.477-7.483,9.152-11.848c0.164-0.335,0.41-0.602,0.66-0.865
		c0.117-0.461,0.016-0.798-0.097-1.13c-3.092,0.023-5.056,4.239-8.382,3.735"/>
	<path fill-rule="evenodd" clip-rule="evenodd" fill="none" stroke="#000000" stroke-width="1.4524" stroke-linecap="round" d="
		M441,158.063c-0.354,0.088-0.921,0.485-1.5,0.938"/>
	<path fill-rule="evenodd" clip-rule="evenodd" fill="none" stroke="#000000" stroke-width="0.9666" stroke-linecap="round" d="
		M441,158.063c2.153-3.982,5.518-6.542,7.697-10.115c2.756-4.518,3.8-9.789,5.66-15.34c0.724-2.162,1.61-3.772,2.609-6.391
		c0.104-0.675,0.294-1.201,0.457-1.687c-0.509-0.394-1.651-0.386-2.313-0.167c-1.779,1.054-4.206,0.26-6.235,0.512"/>
	<path fill-rule="evenodd" clip-rule="evenodd" fill="none" stroke="#000000" stroke-width="1.2344" stroke-linecap="round" d="
		M426,180.375c0.751-3.921,2.563-7.761,1.766-11.891c-0.397-0.628-1.172-0.873-1.861-0.92c-1.92,1.608-0.854,4.667-1.779,6.811"/>
	<path fill-rule="evenodd" clip-rule="evenodd" fill="none" stroke="#000000" stroke-width="1.591" stroke-linecap="round" d="
		M424.125,174.375c0.263,0.772,0.286,1.329,0.375,1.875"/>
	<path fill-rule="evenodd" clip-rule="evenodd" fill="none" stroke="#000000" stroke-width="1.0799" stroke-linecap="round" d="
		M418.688,186.75c3.616-0.121,5.216-4.138,7.313-6.375"/>
	<path fill-rule="evenodd" clip-rule="evenodd" fill="none" stroke="#000000" stroke-width="1.246" stroke-linecap="round" d="
		M400.575,284.325c2.262-0.44,2.076-2.41,2.899-4.192c1.48-3.201,2.235-7.017,3.512-11.148c0.323-1.045,1.063-2.215,1.284-3.214
		c0.604-2.743,0.682-5.958,0.854-8.896"/>
	<path fill-rule="evenodd" clip-rule="evenodd" fill="none" stroke="#000000" stroke-width="1.299" stroke-linecap="round" d="
		M403.625,310.375c0.511,0.152,1.456,1.08,2.5,1.25"/>
	<path fill-rule="evenodd" clip-rule="evenodd" fill="none" stroke="#000000" stroke-width="1.4361" stroke-linecap="round" d="
		M402.625,318.625c0.602,0.726,0.753,1.132,1.063,1.625"/>
	<path fill-rule="evenodd" clip-rule="evenodd" fill="none" stroke="#000000" stroke-width="1.1831" stroke-linecap="round" d="
		M371.125,263.375c-0.024,5.418-0.07,11.028-0.625,16.375"/>
	<path fill-rule="evenodd" clip-rule="evenodd" fill="none" stroke="#000000" stroke-width="1.1652" stroke-linecap="round" d="
		M371.25,283.125c0.35,7.658,2.345,15.28,5.25,22.125"/>
	<path fill-rule="evenodd" clip-rule="evenodd" fill="none" stroke="#000000" stroke-width="1.2437" stroke-linecap="round" d="
		M376.5,305.25c1.949-0.017,3.965,0.202,5.625,1.125"/>
	<path fill-rule="evenodd" clip-rule="evenodd" fill="none" stroke="#000000" stroke-width="1.2845" stroke-linecap="round" d="
		M376.5,305.25c-0.765,1.14-2.408,2.223-2.12,3.741c3.59,1.574-1.618,5.145,0.62,6.946"/>
	<path fill-rule="evenodd" clip-rule="evenodd" fill="none" stroke="#000000" stroke-width="1.0575" stroke-linecap="round" d="
		M375,315.938c1.147-0.145,2.276-0.328,3.407-0.53c2.558,1.004,5.748,1.959,9,3.686c2.661,1.413,8.454,2.473,13.093,0.407"/>
	<path fill-rule="evenodd" clip-rule="evenodd" fill="none" stroke="#000000" stroke-width="1.255" stroke-linecap="round" d="
		M400.5,319.5c0.92-0.449,1.629-0.686,2.125-0.875"/>
	<path fill-rule="evenodd" clip-rule="evenodd" fill="none" stroke="#000000" stroke-width="1.6407" stroke-linecap="round" d="
		M402.625,318.625c0.077-1.862,0.541-3.986-0.438-5.688"/>
	<path fill-rule="evenodd" clip-rule="evenodd" fill="none" stroke="#000000" stroke-width="1.6284" stroke-linecap="round" d="
		M402.188,312.938c-1.145,0.338-1.83,0.666-2.063,1.688"/>
	<path fill-rule="evenodd" clip-rule="evenodd" fill="none" stroke="#000000" stroke-width="1.8062" stroke-linecap="round" d="
		M402.188,312.938c0.246-0.806,0.64-1.576,1.438-2.563"/>
	<path fill-rule="evenodd" clip-rule="evenodd" fill="none" stroke="#000000" stroke-width="1.428" stroke-linecap="round" d="
		M403.625,310.375c-1.228-1.94-1.942-4.286-3.125-6.063"/>
	<path fill-rule="evenodd" clip-rule="evenodd" fill="none" stroke="#000000" stroke-width="1.1977" stroke-linecap="round" d="
		M400.5,304.313c-2.27,1.408-3.786,3.968-5.25,6.188"/>
	<path fill-rule="evenodd" clip-rule="evenodd" fill="none" stroke="#000000" stroke-width="1.6397" stroke-linecap="round" d="
		M400.5,304.313c-0.253-5.283,0.648-10.753-0.74-15.854c0.486-1.338,0.752-2.713,0.815-4.134"/>
	<path fill-rule="evenodd" clip-rule="evenodd" fill="none" stroke="#000000" stroke-width="0.9822" stroke-linecap="round" d="
		M400.575,284.325c-8.096-7.411-10.772-18.053-15.45-27.45"/>
	<path fill-rule="evenodd" clip-rule="evenodd" fill="none" stroke="#000000" stroke-width="0.9441" stroke-linecap="round" d="
		M382.5,207.75c-2.403,1.301-4.71,2.914-6.125,5.375"/>
	<path fill-rule="evenodd" clip-rule="evenodd" fill="none" stroke="#000000" stroke-width="1.6407" stroke-linecap="round" d="
		M376.375,213.125c-0.043,2.161-2.094,3.963-1.938,6.25"/>
	<path fill-rule="evenodd" clip-rule="evenodd" fill="none" stroke="#000000" stroke-width="2.2079" stroke-linecap="round" d="
		M374.438,219.375c1.103-0.09,2.146-0.414,3.188-0.75"/>
	<path fill-rule="evenodd" clip-rule="evenodd" fill="none" stroke="#000000" stroke-width="1.118" stroke-linecap="round" d="
		M377.625,218.625c0.246-1.104,1.267-1.898,2.25-2.25"/>
	<path fill-rule="evenodd" clip-rule="evenodd" fill="none" stroke="#000000" stroke-width="0.9522" stroke-linecap="round" d="
		M383.625,216.375c-1.903,0.822-3.849,2.02-6,2.25"/>
	<path fill-rule="evenodd" clip-rule="evenodd" fill="none" stroke="#000000" stroke-width="2.3385" stroke-linecap="round" d="
		M374.438,219.375c-2.159,2.548-2.533,5.9-4.013,8.7"/>
	<path fill-rule="evenodd" clip-rule="evenodd" fill="none" stroke="#000000" stroke-width="3.0465" stroke-linecap="round" d="
		M370.425,228.075c0.041,0.209,0.059,0.441,0.075,0.675"/>
	<path fill-rule="evenodd" clip-rule="evenodd" fill="none" stroke="#000000" stroke-width="1.3258" stroke-linecap="round" d="
		M370.5,228.75c0.834,3.271,1.611,6.541,3.125,9.625"/>
	<path fill-rule="evenodd" clip-rule="evenodd" fill="none" stroke="#000000" stroke-width="1.5" stroke-linecap="round" d="
		M373.625,238.375c0.646,0.122,1.295,1.031,1.563,1.625"/>
	<path fill-rule="evenodd" clip-rule="evenodd" fill="none" stroke="#000000" stroke-width="1.7103" stroke-linecap="round" d="
		M375.188,240c1.258,0.024,2.066-0.315,2.625-0.563"/>
	<path fill-rule="evenodd" clip-rule="evenodd" fill="none" stroke="#000000" stroke-width="1.2207" stroke-linecap="round" d="
		M377.813,239.438c-0.686-1.734-2.708-2.962-3.364-4.798c-1.66-4.641,0.796-12.182,8.052-13.015"/>
	<path fill-rule="evenodd" clip-rule="evenodd" fill="none" stroke="#000000" stroke-width="1.2457" stroke-linecap="round" d="
		M382.5,221.625c0.037-0.125,0.074-0.251,0.11-0.377c4.562-1.966,8.104,1.6,11.003,4.521c1.438,3.485,0.435,8.154-3.238,10.106"/>
	<path fill-rule="evenodd" clip-rule="evenodd" fill="none" stroke="#000000" stroke-width="1.9434" stroke-linecap="round" d="
		M390.375,235.875c-0.65,1.153-1.484,1.717-2.063,2.625"/>
	<path fill-rule="evenodd" clip-rule="evenodd" fill="none" stroke="#000000" stroke-width="2.58" stroke-linecap="round" d="
		M377.813,239.438c1.514,0.52,1.74,0.557,2.813,0.938"/>
	<path fill-rule="evenodd" clip-rule="evenodd" fill="none" stroke="#000000" stroke-width="1.4142" stroke-linecap="round" d="
		M380.625,240.375c1.04-0.909,2.393-1.257,3.75-1.125"/>
	<path fill-rule="evenodd" clip-rule="evenodd" fill="none" stroke="#000000" stroke-width="1.591" stroke-linecap="round" d="
		M384.375,239.25c0.522,0,1.104,0,1.688,0"/>
	<path fill-rule="evenodd" clip-rule="evenodd" fill="none" stroke="#000000" stroke-width="1.0441" stroke-linecap="round" d="
		M389.25,202.5c-0.69-0.8-1.71-1.02-2.403-0.882c-1.96,1.625-3.174,3.922-4.347,6.132"/>
	<path fill-rule="evenodd" clip-rule="evenodd" fill="none" stroke="#000000" stroke-width="1.1647" stroke-linecap="round" d="
		M382.5,207.75c0.88,2.119,0.926,4.452,1.625,6.625"/>
	<path fill-rule="evenodd" clip-rule="evenodd" fill="none" stroke="#000000" stroke-width="1.591" stroke-linecap="round" d="
		M384.125,214.375c2.688,0.275,5.42,0.054,8.125,0.125"/>
	<path fill-rule="evenodd" clip-rule="evenodd" fill="none" stroke="#000000" stroke-width="0.9402" stroke-linecap="round" d="
		M392.25,214.5c0.162-0.338,0.366-0.634,0.571-0.929c0.641-0.109,1.175-0.325,1.679-0.571"/>
	<path fill-rule="evenodd" clip-rule="evenodd" fill="none" stroke="#000000" stroke-width="1.0947" stroke-linecap="round" d="
		M372,190.5c-1.245-3.054-2.285-6.153-3.875-9.125"/>
	<path fill-rule="evenodd" clip-rule="evenodd" fill="none" stroke="#000000" stroke-width="1.7103" stroke-linecap="round" d="
		M363.375,177.375c-0.263,0.772-0.286,1.329-0.375,1.875"/>
	<path fill-rule="evenodd" clip-rule="evenodd" fill="none" stroke="#000000" stroke-width="1.0787" stroke-linecap="round" d="
		M360.75,182.625c1.969,4.152,6.376,8.575,11.25,7.875"/>
	<path fill-rule="evenodd" clip-rule="evenodd" fill="none" stroke="#000000" stroke-width="1.0863" stroke-linecap="round" d="
		M372,190.5c2.224,3.712,4.993,6.187,8.787,7.713c2.948,1.187,6.546,0.707,9.338,2.162"/>
	<path fill-rule="evenodd" clip-rule="evenodd" fill="none" stroke="#000000" stroke-width="1.5" stroke-linecap="round" d="
		M390.125,200.375c3.855-0.229,7.757,0.107,11.5-0.875"/>
	<path fill-rule="evenodd" clip-rule="evenodd" fill="none" stroke="#000000" stroke-width="1.7321" stroke-linecap="round" d="
		M401.625,199.5c0.75,0.022,1.5-0.171,2.25-0.375"/>
	<path fill-rule="evenodd" clip-rule="evenodd" fill="none" stroke="#000000" stroke-width="1.2027" stroke-linecap="round" d="
		M403.875,199.125c5.895-2.909,12.062-5.924,14.813-12.375"/>
	<path fill-rule="evenodd" clip-rule="evenodd" fill="none" stroke="#000000" stroke-width="1.3798" stroke-linecap="round" d="
		M418.688,186.75c-0.043-3.481,1.482-6.815,2.438-10.125"/>
	<path fill-rule="evenodd" clip-rule="evenodd" fill="none" stroke="#000000" stroke-width="1.1386" stroke-linecap="round" d="
		M421.125,176.625c-0.512-8.046,0.884-16.341-2.472-23.781c-0.809-1.792-2.251-3.179-3.351-4.896
		c-0.682-1.066-1.018-2.408-1.88-3.37c-0.219-0.244-0.849-0.179-1.083-0.417c-1.226-1.239-2.566-3.047-4.132-4.108
		c-2.72-1.843-6.389-2.784-9.779-3.369c0.245,4.871,1.165,10.053,0.718,14.958c-0.385,0.213-0.827,0.594-1.271,0.983"/>
	<path fill-rule="evenodd" clip-rule="evenodd" fill="none" stroke="#000000" stroke-width="2.3717" stroke-linecap="round" d="
		M397.875,152.625c-0.053,0.25-0.029,0.5,0,0.75"/>
	<path fill-rule="evenodd" clip-rule="evenodd" fill="none" stroke="#000000" stroke-width="1.6463" stroke-linecap="round" d="
		M397.875,153.375c2.311,2.252,1.444,5.578,2.25,8.25"/>
	<path fill-rule="evenodd" clip-rule="evenodd" fill="none" stroke="#000000" stroke-width="1.2122" stroke-linecap="round" d="
		M397.875,153.375c-1.531,6.063-0.461,12.822-1.313,19.125"/>
	<path fill-rule="evenodd" clip-rule="evenodd" fill="none" stroke="#000000" stroke-width="1.591" stroke-linecap="round" d="
		M396.563,172.5c0.131,0.509,0.143,1.042,0.188,1.5"/>
	<path fill-rule="evenodd" clip-rule="evenodd" fill="none" stroke="#000000" stroke-width="1.1148" stroke-linecap="round" d="
		M396.563,172.5c-0.527-0.091-1.026-0.332-1.492-0.575c-1.771-4.895-3.806-9.763-5.445-14.8"/>
	<path fill-rule="evenodd" clip-rule="evenodd" fill="none" stroke="#000000" stroke-width="1.5266" stroke-linecap="round" d="
		M388.375,162.125c0.073,0.795,0.013,1.818,0.875,2.875"/>
	<path fill-rule="evenodd" clip-rule="evenodd" fill="none" stroke="#000000" stroke-width="1.6202" stroke-linecap="round" d="
		M384,161.25c0.55,1.929,1.664,3.864,1.5,6"/>
	<path fill-rule="evenodd" clip-rule="evenodd" fill="none" stroke="#000000" stroke-width="1.4806" stroke-linecap="round" d="
		M383.25,160.5c-1.268-0.532-2.775-1.146-3.866-2.051c-3.804-1.187-7.78,1.221-9.259,4.676"/>
	<path fill-rule="evenodd" clip-rule="evenodd" fill="none" stroke="#000000" stroke-width="1.3521" stroke-linecap="round" d="
		M366.375,172.125c0.482,0.794,0.915,1.158,1.5,1.5"/>
	<path fill-rule="evenodd" clip-rule="evenodd" fill="none" stroke="#000000" stroke-width="0.75" stroke-linecap="round" d="
		M436.875,171.375c0-0.25,0-0.5,0-0.75"/>
	<path fill-rule="evenodd" clip-rule="evenodd" fill="none" stroke="#000000" stroke-width="1.0221" stroke-linecap="round" d="
		M436.875,170.625c-0.541-0.042-0.911,0.091-1.272,0.232c-0.29,0.478-0.47,0.855-0.603,1.268"/>
	<path fill-rule="evenodd" clip-rule="evenodd" fill="none" stroke="#000000" stroke-width="1.7589" stroke-linecap="round" d="
		M390.125,200.375c-0.059,0.609-0.455,1.505-0.875,2.125"/>
	<path fill-rule="evenodd" clip-rule="evenodd" fill="none" stroke="#000000" stroke-width="1.1659" stroke-linecap="round" d="
		M389.25,202.5c-0.343,3.413,2.875,6.164,5.614,7.465c2.756-1.674,5.734-4.079,7.141-7.039c-0.25-0.543-0.376-1.808-0.38-3.427"/>
	<path fill-rule="evenodd" clip-rule="evenodd" fill="none" stroke="#000000" stroke-width="1.125" stroke-linecap="round" d="
		M397.625,213.875c-0.271,1.317-1.232,2.29-2.375,2.875"/>
	<path fill-rule="evenodd" clip-rule="evenodd" fill="none" stroke="#000000" stroke-width="1.25" stroke-linecap="round" d="
		M394.375,219.125c0.469,1.394,1.254,2.815,2.75,3.25"/>
	<path fill-rule="evenodd" clip-rule="evenodd" fill="none" stroke="#000000" stroke-width="2.1994" stroke-linecap="round" d="
		M397.125,222.375c0.5-0.25,1-0.5,1.5-0.75"/>
	<path fill-rule="evenodd" clip-rule="evenodd" fill="none" stroke="#000000" stroke-width="1.1796" stroke-linecap="round" d="
		M405.563,202.688c-1.27,4.426-4.786,8.083-7.938,11.188"/>
	<path fill-rule="evenodd" clip-rule="evenodd" fill="none" stroke="#000000" stroke-width="1.0704" stroke-linecap="round" d="
		M407.063,210.75c-2.308,1.172-3.929,4.37-5.063,6.75"/>
	<path fill-rule="evenodd" clip-rule="evenodd" fill="none" stroke="#000000" stroke-width="1.3761" stroke-linecap="round" d="
		M370.5,216.75c-0.056,3.618-3.314,8.5-0.075,11.325"/>
	<path fill-rule="evenodd" clip-rule="evenodd" fill="none" stroke="#000000" stroke-width="0.995" stroke-linecap="round" d="
		M376.375,213.125c-2.771-1.427-4.853,1.412-5.875,3.625"/>
	<path fill-rule="evenodd" clip-rule="evenodd" fill="none" stroke="#000000" stroke-width="1.4361" stroke-linecap="round" d="
		M394.375,215.375c0.044,0.266,0.438,0.826,0.875,1.375"/>
	<path fill-rule="evenodd" clip-rule="evenodd" fill="none" stroke="#000000" stroke-width="1.2151" stroke-linecap="round" d="
		M397.625,213.875c-1.189-1.209-2.014-1.479-3.125-0.875"/>
	<path fill-rule="evenodd" clip-rule="evenodd" fill="none" stroke="#000000" stroke-width="1.255" stroke-linecap="round" d="
		M392.25,214.5c0.92,0.449,1.629,0.686,2.125,0.875"/>
	<path fill-rule="evenodd" clip-rule="evenodd" fill="none" stroke="#000000" stroke-width="0.9487" stroke-linecap="round" d="
		M394.375,215.375c0.51-0.834,0.368-1.721,0.125-2.375"/>
	<path fill-rule="evenodd" clip-rule="evenodd" fill="none" stroke="#000000" stroke-width="0.9508" stroke-linecap="round" d="
		M383.625,216.375c4.013-0.551,7.38,0.947,10.75,2.75"/>
	<path fill-rule="evenodd" clip-rule="evenodd" fill="none" stroke="#000000" stroke-width="0.9487" stroke-linecap="round" d="
		M394.375,219.125c0.391-0.834,0.495-1.721,0.875-2.375"/>
	<path fill-rule="evenodd" clip-rule="evenodd" fill="none" stroke="#000000" stroke-width="0.9186" stroke-linecap="round" d="
		M384.125,214.375c-0.351,0.575-0.382,1.309-0.5,2"/>
	<path fill-rule="evenodd" clip-rule="evenodd" fill="none" stroke="#000000" stroke-width="1.591" stroke-linecap="round" d="
		M369.188,238.5c0.603,0,1.146,0,1.688,0"/>
	<path fill-rule="evenodd" clip-rule="evenodd" fill="none" stroke="#000000" stroke-width="1.1759" stroke-linecap="round" d="
		M370.875,238.5c0.417-3.302-4.008-6.944-0.375-9.75"/>
	<path fill-rule="evenodd" clip-rule="evenodd" fill="none" stroke="#000000" stroke-width="1.1741" stroke-linecap="round" d="
		M370.5,216.75c-0.166-0.091-0.332-0.182-0.498-0.273c-2.085,0.167-3.514,2.259-4.22,3.805c-1.128,2.467-1.159,8.757,0.078,12.359
		c0.713,2.077,3.021,4.442,3.328,5.859"/>
	<path fill-rule="evenodd" clip-rule="evenodd" fill="none" stroke="#000000" stroke-width="0.9809" stroke-linecap="round" d="
		M382.5,221.625c2.199,4.936,4.681,9.784,7.875,14.25"/>
	<path fill-rule="evenodd" clip-rule="evenodd" fill="none" stroke="#000000" stroke-width="1.4361" stroke-linecap="round" d="
		M397.125,222.375c-0.475,2.291,0.864,4.697,0.375,7.125"/>
	<path fill-rule="evenodd" clip-rule="evenodd" fill="none" stroke="#000000" stroke-width="0.9682" stroke-linecap="round" d="
		M397.5,229.5c0.509,0.241,1.042,0.458,1.5,0.75"/>
	<path fill-rule="evenodd" clip-rule="evenodd" fill="none" stroke="#000000" stroke-width="1.0607" stroke-linecap="round" d="
		M370.875,238.5c0.579,0.326,1.835,0.429,2.75-0.125"/>
	<path fill-rule="evenodd" clip-rule="evenodd" fill="none" stroke="#000000" stroke-width="1.2247" stroke-linecap="round" d="
		M396.375,233.625c1.668-0.345,2.096-2.039,2.625-3.375"/>
	<path fill-rule="evenodd" clip-rule="evenodd" fill="none" stroke="#000000" stroke-width="1.2151" stroke-linecap="round" d="
		M397.5,229.5c-1.077,1.087-1.159,2.68-1.125,4.125"/>
	<path fill-rule="evenodd" clip-rule="evenodd" fill="none" stroke="#000000" stroke-width="0.9487" stroke-linecap="round" d="
		M388.625,239.875c-0.834,0.51-1.721,0.368-2.375,0.125"/>
	<path fill-rule="evenodd" clip-rule="evenodd" fill="none" stroke="#000000" stroke-width="1.1261" stroke-linecap="round" d="
		M375,246.75c6.362,1.564,12.879,3.642,19.64,3.15c0.388-0.326,1.11-0.741,1.735-1.275"/>
	<path fill-rule="evenodd" clip-rule="evenodd" fill="none" stroke="#000000" stroke-width="1.4639" stroke-linecap="round" d="
		M396.375,248.625c-0.434-2.843-1.622-5.701-0.938-8.625"/>
	<path fill-rule="evenodd" clip-rule="evenodd" fill="none" stroke="#000000" stroke-width="1.462" stroke-linecap="round" d="
		M394.688,237.188c-2.151,0.575-3.774,2.702-6.063,2.688"/>
	<path fill-rule="evenodd" clip-rule="evenodd" fill="none" stroke="#000000" stroke-width="1.1928" stroke-linecap="round" d="
		M364.625,261.875c2.298-0.118,4.187,1.33,6.5,1.5"/>
	<path fill-rule="evenodd" clip-rule="evenodd" fill="none" stroke="#000000" stroke-width="1.3387" stroke-linecap="round" d="
		M371.125,263.375c1.931-5.3,1.402-11.376,3.875-16.625"/>
	<path fill-rule="evenodd" clip-rule="evenodd" fill="none" stroke="#000000" stroke-width="1.2471" stroke-linecap="round" d="
		M375,246.75c-0.809-0.779-1.141-1.317-1.421-1.831c0.119-1.777,1.027-3.266,1.609-4.919"/>
	<path fill-rule="evenodd" clip-rule="evenodd" fill="none" stroke="#000000" stroke-width="1.1482" stroke-linecap="round" d="
		M369.188,238.5c-1.012,3.251-2.004,6.703-3.045,9.893c-1.337,4.098-3.212,7.783-3.29,11.996c0.453,0.246,1.087,0.876,1.772,1.486"
		/>
	<path fill-rule="evenodd" clip-rule="evenodd" fill="none" stroke="#000000" stroke-width="1.6202" stroke-linecap="round" d="
		M388.625,239.875c-0.077-0.421-0.181-0.947-0.313-1.375"/>
	<path fill-rule="evenodd" clip-rule="evenodd" fill="none" stroke="#000000" stroke-width="1.6086" stroke-linecap="round" d="
		M388.313,238.5c-1.23-0.097-1.709,0.201-2.25,0.75"/>
	<path fill-rule="evenodd" clip-rule="evenodd" fill="none" stroke="#000000" stroke-width="0.9354" stroke-linecap="round" d="
		M380.625,240.375c1.25,0.814,2.5,0.67,3.75,0.75"/>
	<path fill-rule="evenodd" clip-rule="evenodd" fill="none" stroke="#000000" stroke-width="0.866" stroke-linecap="round" d="
		M384.375,241.125c0-0.545,0-1.207,0-1.875"/>
	<path fill-rule="evenodd" clip-rule="evenodd" fill="none" stroke="#000000" stroke-width="0.9186" stroke-linecap="round" d="
		M384.375,241.125c0.542,0.042,0.909-0.091,1.268-0.232c0.165-0.335,0.384-0.616,0.607-0.893"/>
	<path fill-rule="evenodd" clip-rule="evenodd" fill="none" stroke="#000000" stroke-width="1.591" stroke-linecap="round" d="
		M386.25,240c-0.022-0.25-0.104-0.5-0.188-0.75"/>
	<path fill-rule="evenodd" clip-rule="evenodd" fill="none" stroke="#000000" stroke-width="1.5" stroke-linecap="round" d="
		M366.75,282c0.095-0.688,0.717-1.634,0.875-2.125"/>
	<path fill-rule="evenodd" clip-rule="evenodd" fill="none" stroke="#000000" stroke-width="1.3367" stroke-linecap="round" d="
		M367.625,279.875c-1.659-4.095-0.714-8.872-1.25-13.25"/>
	<path fill-rule="evenodd" clip-rule="evenodd" fill="none" stroke="#000000" stroke-width="1.591" stroke-linecap="round" d="
		M367.625,279.875c0.738-0.136,2.103-0.111,2.875-0.125"/>
	<path fill-rule="evenodd" clip-rule="evenodd" fill="none" stroke="#000000" stroke-width="1.4423" stroke-linecap="round" d="
		M364.625,261.875c-1.503,6.443-0.789,13.49-1.514,20.09c1.025,0.604,2.581,0.604,3.639,0.035"/>
	<path fill-rule="evenodd" clip-rule="evenodd" fill="none" stroke="#000000" stroke-width="1.0062" stroke-linecap="round" d="
		M366.75,282c0.988,1.557,2.982,1.004,4.5,1.125"/>
	<path fill-rule="evenodd" clip-rule="evenodd" fill="none" stroke="#000000" stroke-width="1.4142" stroke-linecap="round" d="
		M371.25,283.125c0.105-1.165-0.108-2.39-0.75-3.375"/>
	<path fill-rule="evenodd" clip-rule="evenodd" fill="none" stroke="#000000" stroke-width="1.0607" stroke-linecap="round" d="
		M365.25,327c-1.124,0.544-2.129,1.515-2.25,2.813"/>
	<path fill-rule="evenodd" clip-rule="evenodd" fill="none" stroke="#000000" stroke-width="1.6771" stroke-linecap="round" d="
		M363.625,330.125c-0.208-0.104-0.417-0.208-0.625-0.313"/>
	<path fill-rule="evenodd" clip-rule="evenodd" fill="none" stroke="#000000" stroke-width="1.1688" stroke-linecap="round" d="
		M363,329.813c-0.255,0.077-0.504,0.178-0.753,0.279c-0.392,0.643-0.257,1.532,0.003,2.158"/>
	<path fill-rule="evenodd" clip-rule="evenodd" fill="none" stroke="#000000" stroke-width="0.982" stroke-linecap="round" d="
		M431.625,333.75c-0.074-1.584-0.685-2.15-1.125-3"/>
	<path fill-rule="evenodd" clip-rule="evenodd" fill="none" stroke="#000000" stroke-width="1.1202" stroke-linecap="round" d="
		M432,334.5c1.7,0.792,3.733,0.907,5.375-0.125"/>
	<path fill-rule="evenodd" clip-rule="evenodd" fill="none" stroke="#000000" stroke-width="1.3693" stroke-linecap="round" d="
		M437.375,334.375c-0.363-2.399-1.142-5.014-3.5-6.25"/>
	<path fill-rule="evenodd" clip-rule="evenodd" fill="none" stroke="#000000" stroke-width="1.0363" stroke-linecap="round" d="
		M440.732,331.339c-0.858-1.701-2.118-3.197-3.107-4.714"/>
	<path fill-rule="evenodd" clip-rule="evenodd" fill="none" stroke="#000000" stroke-width="0.8385" stroke-linecap="round" d="
		M442.125,330.375c-0.476-1.438-1.563-2.491-2.25-3.75"/>
	<path fill-rule="evenodd" clip-rule="evenodd" fill="none" stroke="#000000" stroke-width="1.1651" stroke-linecap="round" d="
		M428.625,314.625c-8.946-0.876-15.534,8.815-24.938,5.625"/>
	<path fill-rule="evenodd" clip-rule="evenodd" fill="none" stroke="#000000" stroke-width="1.0871" stroke-linecap="round" d="
		M403.688,320.25c-2.43,8.805,7.939,10.258,13.094,13.719c4.222-0.357,7.176,2.821,11.079,3.501c0.457-0.162,1.37-0.257,2.271-0.576
		c0.878-0.927,1.35-1.607,1.868-2.394"/>
	<path fill-rule="evenodd" clip-rule="evenodd" fill="none" stroke="#000000" stroke-width="1.6202" stroke-linecap="round" d="
		M432,334.5c-0.03-0.345-0.212-0.538-0.375-0.75"/>
	<path fill-rule="evenodd" clip-rule="evenodd" fill="none" stroke="#000000" stroke-width="1.1456" stroke-linecap="round" d="
		M431.625,333.75c-0.354,0.134-0.921,0.293-1.5,0.375"/>
	<path fill-rule="evenodd" clip-rule="evenodd" fill="none" stroke="#000000" stroke-width="1.0607" stroke-linecap="round" d="
		M428.625,314.625c0.628,1.048,1.277,1.369,1.875,1.875"/>
	<path fill-rule="evenodd" clip-rule="evenodd" fill="none" stroke="#000000" stroke-width="1.1859" stroke-linecap="round" d="
		M430.5,313.5c-0.487,0.219-1.214,0.629-1.875,1.125"/>
	<path fill-rule="evenodd" clip-rule="evenodd" fill="none" stroke="#000000" stroke-width="1.0697" stroke-linecap="round" d="
		M384.375,171.375c-2.776-5.342-11.564-3.99-11.625,2.25"/>
	<path fill-rule="evenodd" clip-rule="evenodd" fill="none" stroke="#000000" stroke-width="1.1272" stroke-linecap="round" d="
		M380.625,172.875c0.546,0.373,0.913,0.64,1.271,0.902c0.808,2.604,0.56,5.281,0.005,7.875c-0.556,0.72-1.394,1.182-2.015,1.314
		c-3.072-0.684-4.745-5.659-3.011-7.84"/>
	<path fill-rule="evenodd" clip-rule="evenodd" fill="none" stroke="#000000" stroke-width="0.9992" stroke-linecap="round" d="
		M380.625,172.875c-0.182-0.464-0.316-0.781-0.448-1.09c-1.99-1.375-3.792,1.502-3.302,3.34"/>
	<path fill-rule="evenodd" clip-rule="evenodd" fill="none" stroke="#000000" stroke-width="1.1292" stroke-linecap="round" d="
		M380.625,172.875c-0.479,0.895-0.583,1.889-0.97,2.781c-0.397,0.125-0.846,0.162-1.296,0.195c-0.466-0.255-0.903-0.565-1.483-0.726
		"/>
	<path fill-rule="evenodd" clip-rule="evenodd" fill="none" stroke="#000000" stroke-width="0.9212" stroke-linecap="round" d="
		M388.125,191.625c5.209,2.009,10.339-0.729,14.625-3.375"/>
	<path fill-rule="evenodd" clip-rule="evenodd" fill="none" stroke="#000000" stroke-width="0.9961" stroke-linecap="round" d="
		M452.625,228.375c0.552,2.455-1.107,4.35-1.715,6.535c-0.257,0.244-0.482,0.518-0.707,0.793c-0.88,0.179-1.886,0.186-2.594-0.064
		c-6.357-3.986-12.565-8.754-20.109-9.889"/>
	<path fill-rule="evenodd" clip-rule="evenodd" fill="none" stroke="#000000" stroke-width="1.5503" stroke-linecap="round" d="
		M448.688,226.5c-0.159,1.319-0.541,2.925,0.188,4.125"/>
	<path fill-rule="evenodd" clip-rule="evenodd" fill="none" stroke="#000000" stroke-width="1.0247" stroke-linecap="round" d="
		M425.25,211.5c1.264,0.925,3.207-0.339,4.276,0.973c3.918-0.138,7.761,1.417,11.624,0.677c1.164-1.244,2.283-2.094,3.74-1.774
		c0.089,0.02,0.316,0.384,0.397,0.363c1.332-0.356,3.106-1.124,4.686-1.551c0.349,0.071,0.655,0.233,0.96,0.399
		c0.326,0.59,0.56,1.203,0.941,2.038"/>
	<path fill-rule="evenodd" clip-rule="evenodd" fill="none" stroke="#000000" stroke-width="1.0809" stroke-linecap="round" d="
		M451.875,212.625c5.255-4.303,6.59-11.697,10.836-16.686c0.9-0.271,1.706-0.049,2.472,0.387c0.451,2.805,0.145,5.653-0.183,8.424"
		/>
	<path fill-rule="evenodd" clip-rule="evenodd" fill="none" stroke="#000000" stroke-width="2.1213" stroke-linecap="round" d="
		M465,204.75c0.125,0.125,0.25,0.25,0.375,0.375"/>
	<path fill-rule="evenodd" clip-rule="evenodd" fill="none" stroke="#000000" stroke-width="1.033" stroke-linecap="round" d="
		M465.375,205.125c1.802-1.179,3.158-2.834,4.668-4.332c0.688-0.16,1.32-0.082,1.854,0.071c1.619,4.034-1.201,8.28-3.853,11.129
		c-0.112,0.12,0.049,0.494-0.044,0.632"/>
	<path fill-rule="evenodd" clip-rule="evenodd" fill="none" stroke="#000000" stroke-width="1.4796" stroke-linecap="round" d="
		M451.875,212.625c-2.438,1.356-2.162,5.635-3.224,9.285c-0.457,1.572-0.1,3.293,0.036,4.59"/>
	<path fill-rule="evenodd" clip-rule="evenodd" fill="none" stroke="#000000" stroke-width="1.0607" stroke-linecap="round" d="
		M448.688,226.5c1.307,0.568,3.196,0.691,3.938,1.875"/>
	<path fill-rule="evenodd" clip-rule="evenodd" fill="none" stroke="#000000" stroke-width="0.9647" stroke-linecap="round" d="
		M452.625,228.375c3.636,0.324,7.338-0.051,10.1-2.416c2.699,0.792,5.426,1.64,8.052,2.264c3.328,1.831,6.361-3.696,2.07-4.306
		c-1.141-0.706-2.29-1.215-3.512-1.752c-0.481-0.973-2.331-1.14-1.962-2.421c0.24-0.192,0.641-0.267,1.048-0.335
		c2.73-1.281,5.297-3.196,7.334-5.404c0.109-1.102,0.232-2.515-0.108-3.402c-2.783-0.757-4.938,2.193-7.646,2.022"/>
	<path fill-rule="evenodd" clip-rule="evenodd" fill="none" stroke="#000000" stroke-width="1.5" stroke-linecap="round" d="
		M468,212.625c-0.203,0.238-0.675,0.389-1.125,0.75"/>
	<path fill-rule="evenodd" clip-rule="evenodd" fill="none" stroke="#000000" stroke-width="1.2416" stroke-linecap="round" d="
		M465.375,205.125c1.569,4.8-2.126,8.919-4.783,12.354c-0.06,2.08-0.856,3.998-1.967,5.646"/>
	<path fill-rule="evenodd" clip-rule="evenodd" fill="none" stroke="#000000" stroke-width="1.0622" stroke-linecap="round" d="
		M465,204.75c-1.046-0.027-1.605,0.021-2.194,0.122c-1.657,2.526-3.377,5.141-5.681,7.003"/>
</g>
</svg>
