<?xml version="1.0" encoding="utf-8"?>
<!-- Generator: Adobe Illustrator 14.0.0, SVG Export Plug-In . SVG Version: 6.00 Build 43363)  -->
<!DOCTYPE svg PUBLIC "-//W3C//DTD SVG 1.1//EN" "http://www.w3.org/Graphics/SVG/1.1/DTD/svg11.dtd">
<svg version="1.1" id="图层_1" xmlns="http://www.w3.org/2000/svg" xmlns:xlink="http://www.w3.org/1999/xlink" x="0px" y="0px"
	 width="848px" height="480px" viewBox="0 0 848 480" enable-background="new 0 0 848 480" xml:space="preserve">
<g>
	<g>
		<path fill-rule="evenodd" clip-rule="evenodd" d="M473.467,21.75c12.366,0,24.733,0,37.1,0c0.074,0.327,0.388,0.403,0.387,0.808
			c0,0.27,0,0.539,0,0.809c0.552,0.034,0.76,0.189,1.159,0.404c0.078,0.042,0.326-0.063,0.387,0c0.054,0.057-0.062,0.361,0,0.404
			c0.089,0.063,0.296-0.061,0.387,0c0.214,0.146-0.061,0.38,0.386,0.404c0.071,0.004,0.333-0.042,0.387,0
			c0.064,0.05-0.058,0.344,0,0.404c0.055,0.057,0.346-0.065,0.387,0c0.039,0.062-0.056,0.365,0,0.404c0.14,0.099,0.67-0.131,0.772,0
			c0.047,0.059-0.058,0.364,0,0.404c0.078,0.053,0.323-0.067,0.387,0c0.054,0.057-0.062,0.361,0,0.404
			c0.157,0.109,0.643-0.136,0.773,0c0.054,0.057-0.063,0.361,0,0.404c0.077,0.054,0.321-0.067,0.386,0s-0.064,0.337,0,0.404
			c0.055,0.056,0.346-0.065,0.387,0c0.044,0.069-0.061,0.354,0,0.404c0.073,0.062,0.32-0.069,0.387,0
			c0.064,0.067-0.064,0.337,0,0.404s0.322-0.067,0.387,0c0.063,0.065-0.065,0.342,0,0.404c0.068,0.065,0.32-0.068,0.386,0
			c0.055,0.057-0.062,0.361,0,0.404c0.157,0.11,0.643-0.136,0.773,0c0.054,0.057-0.063,0.361,0,0.404
			c0.077,0.054,0.321-0.067,0.386,0s-0.064,0.337,0,0.404c0.055,0.057,0.346-0.064,0.387,0c0.043,0.067-0.059,0.357,0,0.404
			c0.137,0.108,0.668-0.134,0.773,0c0.046,0.059-0.059,0.365,0,0.404c0.077,0.053,0.322-0.067,0.386,0
			c0.055,0.057-0.062,0.361,0,0.404c0.088,0.061,0.302-0.065,0.387,0c0.218,0.167-0.063,0.379,0.387,0.404
			c0.07,0.004,0.332-0.042,0.387,0c0.063,0.05-0.059,0.344,0,0.404c0.054,0.056,0.345-0.065,0.386,0c0.104,0.164-0.13,0.672,0,0.808
			c0.129,0.135,0.645-0.135,0.773,0c0.057,0.06-0.064,0.355,0,0.404c0.075,0.058,0.321-0.068,0.387,0
			c0.054,0.057-0.063,0.361,0,0.404c0.076,0.053,0.322-0.067,0.386,0c0.121,0.127-0.13,0.696,0,0.808
			c0.073,0.063,0.321-0.069,0.387,0c0.21,0.22-0.06,0.379,0.387,0.404c0.055,0.003,0.352-0.038,0.386,0
			c0.12,0.129-0.13,0.696,0,0.808c0.073,0.063,0.321-0.069,0.387,0c0.21,0.22-0.06,0.38,0.387,0.404
			c0.053,0.003,0.354-0.037,0.387,0c0.063,0.072-0.065,0.336,0,0.404c0.054,0.056,0.345-0.065,0.386,0
			c0.104,0.164-0.13,0.672,0,0.808c0.055,0.057,0.346-0.064,0.387,0c0.05,0.078-0.063,0.342,0,0.404
			c0.067,0.066,0.321-0.068,0.387,0c0.054,0.057-0.062,0.361,0,0.404c0.156,0.109,0.643-0.136,0.772,0
			c0.055,0.057-0.062,0.361,0,0.404c0.086,0.06,0.308-0.066,0.387,0c0.064,0.055-0.06,0.342,0,0.404
			c0.054,0.057,0.346-0.064,0.387,0c0.051,0.081-0.064,0.337,0,0.404s0.322-0.067,0.387,0c0.054,0.057-0.063,0.361,0,0.404
			c0.078,0.055,0.319-0.068,0.386,0c0.065,0.065-0.063,0.337,0,0.404c0.055,0.057,0.346-0.064,0.387,0
			c0.052,0.081-0.064,0.337,0,0.404s0.322-0.067,0.387,0c0.054,0.057-0.063,0.361,0,0.404c0.071,0.05,0.331-0.065,0.386,0
			c0.063,0.073-0.065,0.335,0,0.404c0.055,0.057,0.346-0.064,0.387,0c0.06,0.094-0.059,0.31,0,0.404
			c0.139,0.224,0.363-0.063,0.387,0.404c0.007,0.134-0.006,0.27,0,0.404c0.159,0.103,0.644-0.135,0.772,0
			c0.124,0.129-0.131,0.688,0,0.808c0.07,0.064,0.321-0.068,0.387,0c0.041,0.042-0.049,0.382,0,0.404
			c0.155,0.069,0.661-0.122,0.773,0c0.063,0.069-0.065,0.336,0,0.404c0.04,0.042,0.365-0.051,0.386,0
			c0.085,0.207-0.117,0.624,0,0.808c0.041,0.065,0.333-0.057,0.387,0c0.064,0.067-0.064,0.337,0,0.404s0.322-0.067,0.387,0
			c0.063,0.066-0.065,0.34,0,0.404c0.066,0.066,0.321-0.068,0.387,0c0.04,0.042-0.049,0.382,0,0.404
			c0.197,0.089,0.596-0.123,0.772,0c0.062,0.043-0.054,0.348,0,0.404c0.064,0.067,0.322-0.067,0.387,0s-0.064,0.337,0,0.404
			c0.065,0.068,0.315-0.064,0.386,0c0.065,0.06-0.062,0.339,0,0.404c0.064,0.067,0.322-0.067,0.387,0
			c0.064,0.067-0.064,0.337,0,0.404s0.322-0.067,0.387,0s-0.064,0.337,0,0.404s0.322-0.067,0.387,0s-0.064,0.337,0,0.404
			c0.062,0.064,0.329-0.068,0.386,0c0.062,0.073-0.065,0.335,0,0.404c0.064,0.067,0.322-0.067,0.387,0s-0.064,0.337,0,0.404
			c0.054,0.057,0.346-0.064,0.387,0c0.117,0.185-0.085,0.602,0,0.809c0.021,0.051,0.346-0.042,0.387,0
			c0.128,0.135-0.129,0.673,0,0.808c0.063,0.067,0.321-0.067,0.386,0s-0.064,0.337,0,0.404c0.063,0.065,0.327-0.068,0.387,0
			c0.063,0.072-0.065,0.335,0,0.404c0.129,0.134,0.518-0.003,0.387,0.404c-0.075,0.482,0.579,0.202,0.772,0.404
			c0.049,0.05-0.057,0.371,0,0.404c0.142,0.082,0.676-0.125,0.773,0c0.044,0.056-0.057,0.368,0,0.404
			c0.563,0.357,0.998,0.503,1.546,0.809c-0.188,0.425,0.304,0.274,0.386,0.404c0.043,0.067-0.059,0.358,0,0.404
			c0.138,0.108,0.668-0.134,0.773,0c0.047,0.061-0.06,0.363,0,0.404c0.077,0.054,0.321-0.067,0.387,0
			c0.054,0.057-0.063,0.361,0,0.404c0.156,0.109,0.643-0.136,0.772,0c0.129,0.135-0.002,0.542,0.387,0.404
			c0.139-0.102,0.669,0.132,0.772,0c0.03-0.039-0.039-0.39,0-0.404c0.227-0.082,0.552,0.095,0.773,0
			c0.167-0.072-0.021-0.382,0.386-0.404c0.125-0.007,0.693,0.084,0.773,0c0.04-0.042-0.048-0.383,0-0.404
			c0.329-0.143,0.832,0.147,1.159,0c0.049-0.021-0.04-0.361,0-0.404c0.058-0.06,0.31,0.036,0.387,0
			c0.18-0.084-0.031-0.381,0.387-0.404c0.124-0.007,0.692,0.084,0.772,0c0.032-0.034-0.038-0.393,0-0.404
			c0.748-0.231,1.817,0.23,2.705,0c0.089-0.023,0.041-0.385,0.387-0.404c0.095-0.005,0.302,0.042,0.387,0
			c0.187-0.092-0.037-0.38,0.386-0.404c1.422-0.079,3.961,0,6.184,0c1.882,0,4.08-0.216,5.797,0c0.183,0.023,1.039-0.126,1.159,0
			c0.052,0.054-0.06,0.366,0,0.404c0.078,0.05,0.323-0.066,0.387,0c0.241,0.253-0.032,0.266,0.387,0.404
			c0.349,0.116,0.801-0.082,1.159,0c0.3,0.068,0.426,0.302,0.772,0.404c0.212,0.062,1.013-0.154,1.16,0
			c0.029,0.031-0.033,0.396,0,0.404c0.362,0.089,0.802-0.107,1.159,0c0.111,0.033,0.022,0.384,0.387,0.404
			c0.146,0.008,1.078-0.103,1.159,0c0.031,0.041-0.041,0.389,0,0.404c0.223,0.087,0.998-0.168,1.159,0
			c0.052,0.054-0.06,0.366,0,0.404c0.078,0.05,0.323-0.066,0.387,0c0.054,0.057-0.063,0.361,0,0.404
			c0.204,0.142,1.009-0.191,1.159,0c0.037,0.047-0.048,0.38,0,0.404c0.141,0.07,0.681-0.118,0.772,0c0.039,0.05-0.051,0.377,0,0.404
			c0.078,0.042,0.327-0.063,0.387,0c0.041,0.042-0.049,0.382,0,0.404c0.218,0.097,0.557-0.099,0.773,0
			c0.176,0.08-0.029,0.381,0.386,0.404c0.094,0.005,0.304-0.042,0.387,0c0.189,0.096-0.039,0.38,0.387,0.404
			c0.095,0.005,0.302-0.042,0.387,0c0.187,0.093-0.038,0.381,0.386,0.404c0.073,0.004,0.329-0.043,0.387,0
			c0.063,0.047-0.056,0.346,0,0.404c0.054,0.057,0.345-0.065,0.387,0c0.051,0.081-0.064,0.337,0,0.404
			c0.064,0.068,0.321-0.067,0.386,0c0.055,0.057-0.062,0.361,0,0.404c0.334,0.233,0.745-0.147,0.773,0.404
			c0.004,0.074-0.041,0.348,0,0.404c0.048,0.067,0.328-0.061,0.387,0c0.054,0.057-0.063,0.361,0,0.404
			c0.08,0.056,0.317-0.067,0.386,0c0.065,0.064-0.063,0.338,0,0.404c0.055,0.057,0.346-0.064,0.387,0
			c0.043,0.067-0.059,0.358,0,0.404c0.138,0.107,0.668-0.134,0.773,0c0.056,0.071-0.065,0.344,0,0.404
			c0.229,0.209,0.363-0.056,0.386,0.404c0.003,0.046-0.029,0.382,0,0.404c0.159,0.118,0.634-0.137,0.773,0
			c0.064,0.064-0.063,0.338,0,0.404c0.054,0.057,0.345-0.065,0.387,0c0.051,0.081-0.064,0.337,0,0.404
			c0.063,0.067,0.321-0.068,0.386,0c0.055,0.056-0.062,0.361,0,0.404c0.075,0.053,0.325-0.067,0.387,0
			c0.063,0.07-0.065,0.336,0,0.404c0.054,0.057,0.345-0.064,0.387,0c0.056,0.088-0.064,0.324,0,0.404
			c0.055,0.068,0.325-0.064,0.386,0c0.064,0.067-0.064,0.337,0,0.404c0.064,0.068,0.322-0.067,0.387,0
			c0.055,0.057-0.062,0.361,0,0.404c0.077,0.054,0.322-0.067,0.387,0s-0.064,0.337,0,0.404c0.054,0.057,0.345-0.065,0.387,0
			c0.05,0.079-0.064,0.34,0,0.404c0.066,0.066,0.321-0.068,0.386,0c0.055,0.057-0.062,0.361,0,0.404
			c0.084,0.059,0.311-0.067,0.387,0c0.065,0.058-0.061,0.341,0,0.404c0.063,0.065,0.328-0.068,0.387,0
			c0.062,0.073-0.065,0.335,0,0.404c0.054,0.057,0.345-0.065,0.387,0c0.104,0.164-0.131,0.672,0,0.808
			c0.054,0.057,0.345-0.064,0.386,0c0.058,0.089-0.063,0.321,0,0.404c0.053,0.068,0.327-0.063,0.387,0
			c0.054,0.057-0.062,0.361,0,0.404c0.077,0.054,0.322-0.067,0.387,0s-0.064,0.337,0,0.404c0.054,0.056,0.345-0.065,0.387,0
			c0.058,0.091-0.063,0.317,0,0.404c0.163,0.229,0.362-0.067,0.386,0.404c0.005,0.099-0.04,0.316,0,0.404
			c0.089,0.195,0.364-0.039,0.387,0.404c0.004,0.079-0.041,0.342,0,0.404c0.043,0.065,0.331-0.058,0.387,0
			c0.054,0.057-0.063,0.361,0,0.404c0.077,0.054,0.321-0.067,0.386,0s-0.064,0.337,0,0.404c0.055,0.057,0.346-0.065,0.387,0
			c0.059,0.091-0.063,0.316,0,0.404c0.162,0.229,0.363-0.067,0.387,0.404c0.004,0.074-0.041,0.348,0,0.404
			c0.048,0.067,0.328-0.061,0.387,0c0.054,0.057-0.063,0.361,0,0.404c0.06,0.042,0.348-0.059,0.386,0c0.096,0.146-0.126,0.7,0,0.808
			c0.057,0.048,0.349-0.061,0.387,0c0.05,0.081-0.063,0.337,0,0.404c0.054,0.057,0.346-0.065,0.387,0
			c0.058,0.091-0.063,0.316,0,0.404c0.048,0.067,0.329-0.061,0.387,0c0.054,0.056-0.063,0.361,0,0.404
			c0.077,0.054,0.321-0.067,0.386,0s-0.064,0.337,0,0.404c0.055,0.057,0.346-0.064,0.387,0c0.06,0.093-0.059,0.31,0,0.404
			c0.271,0.433,0.485,1.159,0.773,1.617c0.141,0.225,0.362-0.064,0.386,0.404c0.005,0.1-0.04,0.316,0,0.404
			c0.089,0.195,0.364-0.039,0.387,0.404c0.004,0.085-0.041,0.333,0,0.404c0.036,0.062,0.335-0.054,0.387,0
			c0.054,0.057-0.063,0.361,0,0.404c0.063,0.045,0.342-0.061,0.386,0c0.104,0.144-0.128,0.699,0,0.809
			c0.052,0.044,0.355-0.057,0.387,0c0.045,0.082-0.062,0.339,0,0.404c0.055,0.056,0.346-0.065,0.387,0
			c0.136,0.213-0.184,1.056,0,1.212c0.047,0.041,0.361-0.053,0.387,0c0.07,0.147-0.115,0.709,0,0.808
			c0.056,0.048,0.349-0.061,0.386,0c0.051,0.081-0.063,0.337,0,0.404c0.055,0.057,0.346-0.065,0.387,0
			c0.06,0.093-0.049,0.303,0,0.404c0.147,0.307,0.25,0.452,0.387,0.808c0.055,0.144-0.106,0.717,0,0.809
			c0.045,0.038,0.364-0.05,0.387,0c0.138,0.309,0.25,0.453,0.386,0.808c0.056,0.144-0.106,0.717,0,0.809
			c0.047,0.04,0.362-0.052,0.387,0c0.069,0.147-0.114,0.71,0,0.808c0.045,0.039,0.363-0.05,0.387,0c0.066,0.147-0.113,0.712,0,0.808
			c0.052,0.045,0.354-0.057,0.387,0c0.082,0.148-0.121,0.706,0,0.809c0.071,0.061,0.323-0.069,0.386,0
			c0.13,0.142-0.003,0.536,0.387,0.404c0,0.269,0,0.539,0,0.808c0.838-0.068,0.175,1.434,0.387,2.021
			c-0.071,0.344,0.15,0.381,0.386,0.404c0.015,0.597,0.205,0.768,0.387,1.212c0.033,0.08-0.057,0.345,0,0.404
			c0.041,0.042,0.366-0.051,0.387,0c0.176,0.43-0.207,1.508,0,2.425c0.072,0.32,0.291,0.436,0.387,0.808
			c0.019,0.073-0.049,0.354,0,0.404c0.04,0.042,0.365-0.051,0.386,0c0.233,0.569-0.175,1.426,0,2.021
			c0.013,0.041,0.354-0.035,0.387,0c0.188,0.197-0.141,0.967,0,1.212c0.035,0.062,0.336-0.053,0.387,0
			c0.129,0.135-0.003,0.542,0.387,0.404c-0.098,0.146,0.126,0.7,0,0.808c-0.072,0.061-0.324-0.069-0.387,0
			c-0.063,0.07,0.064,0.336,0,0.404c-0.035,0.037-0.373-0.043-0.387,0c-0.156,0.484,0.12,1.12,0,1.617c0,0.27,0,0.539,0,0.808
			c0.461-0.078,0.193,0.606,0.387,0.809c0.04,0.042,0.365-0.051,0.387,0c0.098,0.239-0.17,1.035,0,1.212
			c0.038,0.04,0.368-0.048,0.386,0c0.088,0.235-0.163,1.042,0,1.212c0.043,0.044,0.363-0.053,0.387,0
			c0.064,0.146-0.111,0.713,0,0.809c0.04,0.034,0.369-0.045,0.387,0c0.09,0.236-0.165,1.04,0,1.212c0.042,0.044,0.362-0.053,0.387,0
			c0.064,0.146-0.112,0.713,0,0.808c0.039,0.034,0.37-0.043,0.386,0c0.028,0.078-0.054,0.348,0,0.404
			c0.041,0.042,0.366-0.051,0.387,0c0.233,0.569-0.177,1.426,0,2.021c0.41-0.16,0.258,0.269,0.387,0.404
			c0.064,0.067,0.321-0.067,0.386,0c0.129,0.135-0.129,0.674,0,0.809c0.055,0.057,0.346-0.065,0.387,0
			c0.175,0.274-0.126,0.906,0,1.212c0.021,0.051,0.346-0.042,0.387,0c0.062,0.064-0.044,0.322,0,0.404
			c0.113,0.213,0.363-0.054,0.387,0.404c0.006,0.13-0.081,0.724,0,0.808c0.04,0.042,0.365-0.051,0.386,0
			c0.094,0.228-0.094,0.582,0,0.808c0.077,0.185,0.365-0.03,0.387,0.404c0.007,0.13-0.08,0.724,0,0.809
			c0.041,0.042,0.366-0.051,0.387,0c0.093,0.227-0.095,0.582,0,0.808c0.076,0.184,0.364-0.03,0.387,0.404
			c0.006,0.13-0.081,0.724,0,0.808c0.063,0.067,0.321-0.067,0.386,0s-0.064,0.337,0,0.404c0.039,0.041,0.368-0.048,0.387,0
			c0.13,0.34-0.153,0.885,0,1.212c0.025,0.055,0.342-0.046,0.387,0c0.129,0.135-0.129,0.674,0,0.809c0.048,0.05,0.354-0.06,0.387,0
			c0.078,0.148-0.119,0.707,0,0.808c0.042,0.036,0.367-0.047,0.386,0c0.184,0.448-0.207,1.183,0,1.617
			c0.027,0.056,0.342-0.047,0.387,0c0.054,0.057-0.062,0.361,0,0.404c0.042,0.029,0.37-0.042,0.387,0
			c0.094,0.238-0.168,1.037,0,1.212c0.042,0.044,0.362-0.053,0.386,0c0.064,0.146-0.111,0.713,0,0.809
			c0.035,0.03,0.376-0.038,0.387,0c0.095,0.319-0.213,1.393,0,1.616c0.025,0.027,0.383-0.028,0.387,0
			c0.098,0.645-0.15,1.389,0,2.021c0.067,0.284,0.265,0.491,0.387,0.809c0.055,0.144-0.106,0.717,0,0.808
			c0.04,0.035,0.369-0.045,0.386,0c0.124,0.324,0.305,0.415,0.387,0.809c0.075,0.362-0.125,0.867,0,1.212
			c0.06,0.163,0.365-0.013,0.387,0.404c0.005,0.107-0.038,0.306,0,0.404c0.12,0.314,0.259,0.448,0.387,0.809
			c0.056,0.158,0.365-0.009,0.386,0.404c0.018,0.346-0.104,0.886,0,1.213c0.08,0.253,0.245,0.542,0.387,0.808
			c0.043,0.082-0.062,0.34,0,0.404c0.054,0.057,0.346-0.065,0.387,0c0.136,0.213-0.184,1.056,0,1.212
			c0.032,0.028,0.377-0.035,0.387,0c0.097,0.374-0.109,0.842,0,1.212c0.087,0.297,0.259,0.476,0.386,0.809
			c0.056,0.144-0.106,0.717,0,0.808c0.034,0.029,0.376-0.037,0.387,0c0.09,0.317-0.211,1.396,0,1.617
			c0.032,0.034,0.375-0.04,0.387,0c0.104,0.371-0.079,0.834,0,1.212c0.062,0.296,0.276,0.47,0.386,0.809
			c0.099,0.303,0.257,0.469,0.387,0.808c0.055,0.144-0.106,0.717,0,0.809c0.035,0.029,0.376-0.038,0.387,0
			c0.103,0.352-0.248,1.809,0,2.021c0.035,0.03,0.375-0.038,0.387,0c0.042,0.139-0.099,0.724,0,0.809
			c0.037,0.032,0.373-0.041,0.386,0c0.2,0.603-0.161,1.404,0,2.021c0.028,0.109,0.368,0.03,0.387,0.404
			c0.008,0.152-0.099,1.128,0,1.212c0.037,0.032,0.373-0.041,0.387,0c0.093,0.282-0.203,1.443,0,1.617
			c0.032,0.028,0.377-0.035,0.387,0c0.098,0.377-0.092,0.834,0,1.213c0.081,0.335,0.314,0.409,0.386,0.808
			c0.116,0.648-0.134,1.377,0,2.021c0.067,0.324,0.3,0.428,0.387,0.808c0.087,0.38-0.099,0.836,0,1.212
			c0.028,0.109,0.367,0.03,0.387,0.404c0.025,0.511-0.104,1.119,0,1.617c0.064,0.31,0.285,0.451,0.387,0.808
			c0.038,0.137-0.097,0.726,0,0.809c0.037,0.032,0.372-0.041,0.386,0c0.079,0.239-0.055,0.561,0,0.808
			c0.073,0.331,0.306,0.419,0.387,0.809c0.13,0.626-0.251,1.463,0,2.425c0.028,0.108,0.367,0.03,0.387,0.404
			c0.006,0.126-0.026,0.282,0,0.404c0.07,0.33,0.306,0.42,0.386,0.808c0.08,0.386-0.081,0.827,0,1.212
			c0.017,0.075,0.369,0.056,0.387,0.404c0.029,0.58-0.238,1.512,0,2.425c0.028,0.108,0.368,0.03,0.387,0.404
			c0.024,0.493-0.124,1.143,0,1.617c0.028,0.108,0.367,0.03,0.387,0.404c0.01,0.203-0.29,2.177,0,2.425
			c0.025,0.022,0.383-0.024,0.386,0c0.132,0.959-0.312,2.039,0,3.233c0.028,0.108,0.368,0.03,0.387,0.404
			c0.011,0.207-0.088,1.62,0,2.425c0.003,0.025,0.363-0.024,0.387,0c0.413,0.433-0.418,3.83,0,4.85c0.021,0.051,0.346-0.042,0.387,0
			c0.242,0.253-0.318,2.092,0,2.425c0.04,0.042,0.365-0.051,0.386,0c0.099,0.239-0.169,1.035,0,1.212
			c0.223,0.232,0.331-0.063,0.387,0.404c0.187,1.575-0.09,3.171,0,4.85c0.039,0.722,0.315,1.559,0.387,2.425
			c0.073,0.9-0.096,1.931,0,2.829c0.002,0.024,0.363-0.024,0.387,0c0.314,0.33-0.252,2.672,0,3.637
			c0.027,0.108,0.367,0.03,0.386,0.404c0.084,1.673-0.098,4.946,0,7.275c0.017,0.378-0.076,0.844,0,1.213
			c0.07,0.339,0.337,0.4,0.387,0.808c0.152,1.241-0.231,2.793,0,4.446c0.045,0.323,0.318,0.424,0.387,0.809
			c0.045,0.254-0.012,0.549,0,0.808c0.257,5.918-0.41,11.881,0,17.783c0.036,0.519-0.098,1.107,0,1.617
			c0.006,0.031,0.358-0.029,0.386,0c0.109,0.113-0.007,1.036,0,1.212c0.146,3.354-0.142,6.735,0,10.104
			c0.021,0.514-0.096,1.113,0,1.616c0.007,0.032,0.359-0.028,0.387,0c0.114,0.12-0.015,1.029,0,1.213
			c0.293,3.738-0.115,7.48,0,11.316c0.015,0.49-0.118,1.145,0,1.617c0.026,0.103,0.368,0.034,0.387,0.404
			c0.029,0.577,0.14,1.464,0,2.021c-0.026,0.103-0.368,0.034-0.387,0.404c-0.007,0.133-0.002,0.271,0,0.404
			c0,0.017,0.367-0.021,0.387,0c0.204,0.213-0.01,1.699,0,2.425c0.027,2.153-0.436,4.592,0,6.871c0.006,0.031,0.359-0.029,0.387,0
			c0.108,0.113-0.008,1.036,0,1.212c0.101,2.335-0.172,4.905,0,7.275c0.026,0.369-0.093,0.856,0,1.212
			c0.028,0.108,0.367,0.03,0.386,0.404c0.026,0.511-0.104,1.119,0,1.617c0.071,0.339,0.341,0.399,0.387,0.808
			c0.154,1.362-0.359,2.85,0,4.446c0.076,0.339,0.339,0.399,0.387,0.809c0.106,0.911-0.191,1.904,0,2.829
			c0.015,0.071,0.369,0.059,0.387,0.404c0.006,0.13-0.081,0.724,0,0.808c0.226,0.237,0.318-0.061,0.386,0.404
			c0.055,0.374-0.445,3.172,0,3.638c0.024,0.025,0.383-0.026,0.387,0c0.089,0.659-0.1,1.363,0,2.021
			c0.004,0.029,0.371,0.093,0.387,0.404c0.02,0.403-0.017,0.81,0,1.213l-1.836-0.202l-1.256,1.414
			c-0.407,0.197-0.263-0.317-0.387-0.403c-0.084-0.059-0.31,0.066-0.387,0c-0.064-0.058,0.062-0.341,0-0.404
			c-0.056-0.059-0.342,0.065-0.386,0c-0.119-0.179,0.083-0.605,0-0.809c-0.021-0.051-0.346,0.042-0.387,0
			c-0.065-0.068,0.054-0.324,0-0.404c-0.152-0.228-0.363,0.066-0.387-0.404c-0.005-0.091,0.041-0.325,0-0.404
			c-0.03-0.059-0.339,0.05-0.386,0c-0.064-0.067,0.051-0.323,0-0.404c-0.042-0.064-0.333,0.057-0.387,0
			c-0.129-0.134,0.129-0.673,0-0.808c-0.055-0.057-0.346,0.064-0.387,0c-0.17-0.267-0.21-0.519-0.387-0.809
			c-0.049-0.081,0.064-0.338,0-0.404c-0.05-0.053-0.352,0.062-0.386,0c-0.047-0.082,0.063-0.339,0-0.404
			c-0.041-0.042-0.366,0.051-0.387,0c-0.087-0.211,0.115-0.615,0-0.808c-0.038-0.063-0.334,0.054-0.387,0
			c-0.054-0.057,0.062-0.361,0-0.404c-0.044-0.031-0.367,0.044-0.387,0c-0.092-0.215,0.113-0.607,0-0.809
			c-0.034-0.062-0.336,0.053-0.386,0c-0.129-0.135,0.129-0.674,0-0.809c-0.052-0.053-0.351,0.063-0.387,0
			c-0.086-0.147,0.122-0.704,0-0.809c-0.071-0.061-0.323,0.069-0.387,0s0.065-0.336,0-0.403c-0.051-0.054-0.35,0.062-0.387,0
			c-0.114-0.196,0.088-0.596,0-0.809c-0.021-0.051-0.346,0.042-0.386,0c-0.063-0.066,0.049-0.323,0-0.404
			c-0.134-0.223-0.363,0.062-0.387-0.404c-0.005-0.091,0.041-0.325,0-0.404c-0.031-0.059-0.339,0.05-0.387,0
			c-0.129-0.135,0.129-0.674,0-0.808c-0.064-0.067-0.322,0.067-0.386,0c-0.064-0.067,0.063-0.337,0-0.404
			c-0.053-0.056-0.349,0.063-0.387,0c-0.09-0.147,0.123-0.703,0-0.809c-0.071-0.062-0.323,0.068-0.387,0
			c-0.063-0.069,0.064-0.336,0-0.404c-0.052-0.054-0.35,0.063-0.387,0c-0.114-0.196,0.088-0.595,0-0.809
			c-0.021-0.051-0.346,0.043-0.386,0c-0.064-0.067,0.051-0.323,0-0.404c-0.042-0.064-0.333,0.057-0.387,0
			c-0.129-0.134,0.129-0.673,0-0.808c-0.057-0.06-0.342,0.066-0.387,0c-0.11-0.161,0.132-0.671,0-0.809
			c-0.129-0.135-0.614,0.104-0.772,0c-0.329-0.074-0.365,0.157-0.387,0.404c0.301,0.805-0.396,1.863,0,2.829
			c0.021,0.051,0.346-0.043,0.387,0c0.169,0.177-0.099,0.973,0,1.213c0.021,0.051,0.346-0.043,0.386,0
			c0.243,0.253-0.317,2.092,0,2.425c0.041,0.042,0.366-0.051,0.387,0c0.099,0.239-0.169,1.035,0,1.212
			c0.041,0.043,0.366-0.051,0.387,0c0.173,0.423-0.177,1.504,0,2.426c0.006,0.031,0.358-0.029,0.387,0
			c0.257,0.269-0.258,1.347,0,1.616c0.04,0.043,0.365-0.051,0.386,0c0.173,0.421-0.296,1.711,0,2.021c0.028,0.03,0.38-0.032,0.387,0
			c0.078,0.384-0.247,1.763,0,2.021c0.041,0.042,0.365-0.051,0.387,0c0.187,0.455-0.187,1.161,0,1.616
			c0.021,0.051,0.346-0.042,0.387,0c0.242,0.254-0.318,2.093,0,2.425c0.04,0.043,0.365-0.051,0.386,0
			c0.094,0.229-0.087,0.577,0,0.809c0.019,0.048,0.348-0.04,0.387,0c0.193,0.202-0.154,0.97,0,1.213l-1.739-0.067l-1.739,0.067
			c-0.423,0.016-0.24-0.529-0.386-0.809c-0.031-0.059-0.339,0.05-0.387,0c-0.129-0.135,0.129-0.674,0-0.809
			c-0.231-0.241-0.305,0.059-0.387-0.404c-0.039-0.22,0.096-0.611,0-0.808c-0.027-0.057-0.341,0.047-0.387,0
			c-0.054-0.057,0.063-0.361,0-0.404c-0.044-0.031-0.367,0.044-0.386,0c-0.093-0.215,0.113-0.607,0-0.809
			c-0.035-0.062-0.337,0.053-0.387,0c-0.129-0.135,0.129-0.674,0-0.809c-0.046-0.048-0.358,0.058-0.387,0
			c-0.073-0.147,0.116-0.709,0-0.808c-0.037-0.032-0.373,0.04-0.386,0c-0.077-0.23,0.101-0.591,0-0.809
			c-0.093-0.199-0.364,0.041-0.387-0.404c-0.005-0.092,0.041-0.325,0-0.404c-0.031-0.059-0.339,0.05-0.387,0
			c-0.06-0.063,0.039-0.323,0-0.404c-0.097-0.202-0.364,0.045-0.387-0.404c-0.006-0.13,0.081-0.724,0-0.808
			c-0.042-0.044-0.363,0.052-0.386,0c-0.098-0.225,0.093-0.582,0-0.809c-0.021-0.051-0.347,0.042-0.387,0
			c-0.129-0.135,0.129-0.674,0-0.809c-0.231-0.241-0.305,0.059-0.387-0.404c-0.042-0.234,0.089-0.591,0-0.808
			c-0.074-0.182-0.364,0.027-0.387-0.404c-0.004-0.092,0.041-0.326,0-0.404c-0.03-0.06-0.339,0.05-0.386,0
			c-0.059-0.062,0.036-0.323,0-0.404c-0.372-0.815-0.788-1.61-1.16-2.425c-0.089-0.196-0.363,0.039-0.386-0.404
			c-0.007-0.131,0.08-0.725,0-0.809c-0.042-0.044-0.364,0.053-0.387,0c-0.097-0.225,0.093-0.581,0-0.809
			c-0.021-0.051-0.346,0.043-0.387,0c-0.181-0.188,0.195-1.045,0-1.212c-0.037-0.032-0.373,0.04-0.386,0
			c-0.076-0.228,0.104-0.596,0-0.809c-0.028-0.057-0.341,0.048-0.387,0c-0.129-0.135,0.129-0.674,0-0.809
			c-0.035-0.036-0.373,0.043-0.387,0c-0.215-0.673,0.13-1.79,0-2.425c-0.015-0.069-0.369-0.061-0.387-0.404
			c-0.005-0.107,0.038-0.305,0-0.404c-0.122-0.319-0.268-0.437-0.386-0.808c-0.097-0.303-0.258-0.471-0.387-0.809
			c-0.056-0.144,0.106-0.718,0-0.809c-0.041-0.035-0.368,0.046-0.387,0c-0.134-0.34,0.15-0.881,0-1.212
			c-0.024-0.055-0.343,0.045-0.387,0c-0.054-0.057,0.063-0.361,0-0.404c-0.036-0.025-0.375,0.035-0.386,0
			c-0.13-0.409,0.274-1.733,0-2.021c-0.041-0.042-0.366,0.051-0.387,0c-0.187-0.455,0.187-1.161,0-1.616
			c-0.021-0.051-0.346,0.042-0.387,0c-0.169-0.178,0.099-0.974,0-1.213c-0.021-0.051-0.346,0.043-0.387,0
			c-0.269-0.281,0.118-1.616,0-2.021c-0.012-0.041-0.353,0.035-0.386,0c-0.129-0.135,0.129-0.674,0-0.809
			c-0.036-0.037-0.372,0.044-0.387,0c-0.075-0.229,0.156-1.049,0-1.212c-0.033-0.035-0.375,0.04-0.387,0
			c-0.149-0.516,0.204-1.189-0.386-1.213c0-0.27,0-0.539,0-0.809c-0.258,0-0.516,0-0.773,0c-0.329-0.074-0.364,0.158-0.387,0.404
			c0,0.27,0,0.539,0,0.809c-0.071,0.344,0.151,0.381,0.387,0.404c0.088,0.517-0.115,1.105,0,1.616
			c0.075,0.333,0.312,0.414,0.387,0.809c0.074,0.388-0.08,0.826,0,1.213c0.068,0.331,0.312,0.415,0.387,0.808
			c0.154,0.813-0.173,1.696,0,2.426c0.021,0.092,0.368,0.042,0.386,0.403c0.005,0.1-0.04,0.316,0,0.404
			c0.089,0.195,0.364-0.039,0.387,0.404c0.045,0.9-0.147,3.314,0,4.851c0.021,0.224-0.084,0.604,0,0.808
			c0.021,0.051,0.346-0.042,0.387,0c0.191,0.201-0.058,1.318,0,1.617c0.012,0.062,0.369,0.066,0.386,0.404
			c0.026,0.508-0.105,1.121,0,1.616c0.017,0.077,0.369,0.055,0.387,0.404c0.017,0.334-0.205,1.806,0,2.021
			c0.055,0.057,0.346-0.064,0.387,0c0.104,0.164-0.131,0.672,0,0.809c0.232,0.243,0.299-0.057,0.387,0.404
			c0.063,0.329-0.223,1.831,0,2.021c0.025,0.022,0.383-0.023,0.386,0c0.115,0.919-0.158,1.584,0,2.425
			c0.062,0.326,0.308,0.426,0.387,0.809c0.078,0.377-0.108,0.846,0,1.213c0.038,0.129,0.367,0.014,0.387,0.404
			c0.007,0.13-0.081,0.724,0,0.808c0.129,0.135,0.518-0.002,0.387,0.404c0,0.404,0,0.809,0,1.213c-0.258,0-0.516,0-0.773,0
			c-0.005,0.803-1.055,0.514-0.772,1.616c0,0.27,0,0.539,0,0.809l-1.353-0.202l-0.967,1.011c-0.412,0.007-0.255-0.518-0.386-0.809
			c-0.089-0.195-0.364,0.039-0.387-0.404c-0.007-0.13,0.08-0.724,0-0.809c-0.055-0.057-0.346,0.065-0.387,0
			c-0.056-0.087,0.064-0.324,0-0.403c-0.102-0.126-0.539-0.005-0.387-0.404c0.218-0.41-0.342-0.296-0.386-0.404
			c-0.187-0.455,0.187-1.161,0-1.617c-0.021-0.051-0.347,0.043-0.387,0c-0.129-0.135,0.129-0.673,0-0.808
			c-0.041-0.043-0.366,0.051-0.387,0c-0.085-0.207,0.118-0.624,0-0.809c-0.041-0.064-0.332,0.057-0.387,0
			c-0.064-0.067,0.064-0.337,0-0.404s-0.321,0.067-0.386,0c-0.17-0.177,0.098-0.973,0-1.213c-0.021-0.051-0.346,0.043-0.387,0
			c-0.181-0.188,0.195-1.045,0-1.212c-0.037-0.031-0.373,0.04-0.387,0c-0.148-0.458,0.205-1.188,0-1.617
			c-0.026-0.056-0.342,0.048-0.387,0c-0.054-0.057,0.063-0.36,0-0.404c-0.05-0.035-0.359,0.052-0.386,0
			c-0.109-0.208,0.09-0.588,0-0.808c-0.021-0.051-0.346,0.042-0.387,0c-0.129-0.135,0.129-0.674,0-0.809
			c-0.054-0.057-0.346,0.064-0.387,0c-0.054-0.085,0.065-0.329,0-0.404c-0.059-0.068-0.323,0.065-0.386,0
			c-0.055-0.057,0.062-0.361,0-0.404c-0.09-0.063-0.297,0.062-0.387,0c-0.215-0.145,0.06-0.379-0.387-0.404
			c-0.129-0.007-0.258,0.006-0.387,0c0.071,0.337-0.15,0.392-0.386,0.404c-0.129,0.008-0.259-0.006-0.387,0
			c0.391,1.518-0.515,3.069,0,4.851c0.021,0.074-0.05,0.352,0,0.404c0.041,0.043,0.364-0.052,0.387,0
			c0.17,0.405,0.331,0.604,0.386,1.212c0.201,2.219-0.164,4.472,0,6.871c0.013,0.181-0.112,1.095,0,1.212
			c0.029,0.031,0.379-0.034,0.387,0c0.151,0.675-0.27,1.758,0,2.83c0.025,0.103,0.368,0.034,0.387,0.403
			c-0.009-0.172-0.313,3.774,0,4.042c0.022,0.02,0.385-0.019,0.387,0c0.018,0.321-0.409,0.404-0.387,0.809
			c0.001,0.02,0.365-0.022,0.387,0c0.362,0.38-0.07,4.069,0,5.254c0.05,0.855,0.315,1.511,0.386,2.425
			c0.062,0.804-0.069,1.77,0,2.425c0.028,0.266,0.29,0.499,0.387,0.809c0.073,0.237-0.094,0.58,0,0.809
			c0.021,0.051,0.346-0.043,0.387,0c0.129,0.135-0.129,0.674,0,0.809c0.064,0.067,0.321-0.067,0.386,0s-0.064,0.337,0,0.404
			c0.057,0.058,0.343-0.066,0.387,0c0.054,0.079-0.064,0.336,0,0.403c0.041,0.043,0.366-0.051,0.387,0
			c0.08,0.197-0.12,0.641,0,0.809c0.048,0.067,0.328-0.061,0.387,0c0.054,0.057-0.063,0.361,0,0.404
			c0.062,0.044,0.345-0.061,0.386,0c0.056,0.079-0.065,0.336,0,0.404c0.064,0.067,0.322-0.067,0.387,0s-0.064,0.337,0,0.404
			c0.063,0.065,0.327-0.068,0.387,0c0.063,0.071-0.065,0.336,0,0.404c0.054,0.057,0.345-0.065,0.387,0
			c0.104,0.164-0.131,0.672,0,0.808c0.04,0.043,0.365-0.051,0.386,0c0.094,0.228-0.094,0.582,0,0.809
			c0.077,0.185,0.365-0.029,0.387,0.404c0.027,0.535-0.205,1.184-0.387,2.021c-0.328-0.074-0.364,0.158-0.386,0.404
			c-1.055-0.294-0.778,0.804-1.546,0.809c-0.329-0.074-0.365,0.157-0.387,0.404c0.071,0.344-0.15,0.381-0.387,0.404
			c0,0.942,0,1.886,0,2.829c0.218,0.409-0.342,0.295-0.387,0.404c-0.093,0.228,0.089,0.577,0,0.808
			c-0.159,0.419-0.521,0.868-0.386,1.617l-1.685-0.202l-1.021,1.414c-0.407,0.197-0.263-0.317-0.387-0.404
			c-0.044-0.03-0.367,0.045-0.387,0c-0.104-0.241,0.173-1.031,0-1.212c-0.041-0.043-0.365,0.051-0.387,0
			c-0.092-0.226,0.101-0.587,0-0.809c-0.088-0.195-0.364,0.039-0.386-0.404c-0.005-0.091,0.041-0.325,0-0.404
			c-0.031-0.059-0.339,0.051-0.387,0c-0.129-0.135,0.129-0.673,0-0.808c-0.041-0.043-0.366,0.051-0.387,0
			c-0.093-0.228,0.094-0.581,0-0.809c-0.074-0.182-0.364,0.028-0.387-0.404c-0.017-0.333,0.109-0.902,0-1.213
			c-0.016-0.046-0.349,0.039-0.386,0c-0.129-0.134,0.129-0.673,0-0.808c-0.04-0.041-0.367,0.049-0.387,0
			c-0.057-0.145,0.107-0.717,0-0.809c-0.037-0.032-0.373,0.041-0.387,0c-0.079-0.24,0.081-0.568,0-0.809
			c-0.015-0.045-0.351,0.038-0.386,0c-0.258-0.27,0.257-1.347,0-1.616c-0.055-0.057-0.346,0.064-0.387,0
			c-0.104-0.164,0.13-0.672,0-0.809c-0.032-0.033-0.377,0.038-0.387,0c-0.131-0.491,0.162-1.137,0-1.616
			c-0.052-0.152-0.366,0.004-0.387-0.404c-0.006-0.131,0.081-0.725,0-0.809c-0.042-0.044-0.363,0.053-0.386,0
			c-0.098-0.225,0.093-0.582,0-0.809c-0.021-0.051-0.347,0.043-0.387,0c-0.235-0.245,0.137-1.283,0-1.616
			c-0.021-0.051-0.346,0.042-0.387,0c-0.056-0.059,0.031-0.325,0-0.404c-0.02-0.05-0.347,0.041-0.387,0
			c-0.162-0.17,0.086-0.978,0-1.213c-0.017-0.047-0.349,0.04-0.386,0c-0.129-0.135,0.129-0.673,0-0.808
			c-0.033-0.035-0.375,0.04-0.387,0c-0.144-0.493,0.109-1.113,0-1.617c-0.344-0.179-0.691-0.354-0.773-0.809
			c-0.313,0.077-0.385,0.406-0.772,0.404c0,0.404,0,0.809,0,1.213c-1.093-0.334-1.001,0.569-1.933,0.404
			c0.123,0.948,0.61,1.517,0.387,2.829c0,0.27,0,0.539,0,0.809c-0.424-0.017-0.24,0.528-0.387,0.808
			c-0.046,0.088-0.581,0.034-0.386,0.404c-0.188,0.426,0.304,0.274,0.386,0.404c0.029,0.046-0.042,0.384,0,0.404
			c0.142,0.066,0.68-0.117,0.773,0c0.11,0.139-0.131,0.697,0,0.809c0.037,0.031,0.373-0.041,0.387,0c0.079,0.24-0.062,0.561,0,0.808
			c0.313,0.077,0.385,0.405,0.772,0.404c0.088,0.518-0.115,1.106,0,1.617c0.072,0.32,0.291,0.436,0.387,0.808
			c0.061,0.238-0.093,0.584,0,0.809c0.021,0.051,0.346-0.042,0.386,0c0.181,0.189-0.195,1.046,0,1.213
			c0.028,0.023,0.382-0.027,0.387,0c0.112,0.653-0.458,3.158,0,3.638c0.041,0.042,0.366-0.052,0.387,0
			c0.094,0.228-0.089,0.577,0,0.808c0.113,0.296,0.243,0.482,0.387,0.809c0.121,0.277,0.229,0.513,0.386,0.809
			c0.044,0.081-0.062,0.34,0,0.404c0.24,0.251,0.265-0.042,0.387,0.403c0.062,0.223-0.147,1.059,0,1.213
			c0.023,0.025,0.384-0.025,0.387,0c0.046,0.387-0.419,2.796,0,3.233c0.025,0.026,0.382-0.028,0.387,0
			c0.057,0.368-0.233,1.777,0,2.021c0.04,0.043,0.365-0.051,0.386,0c0.092,0.223-0.053,0.571,0,0.809
			c0.075,0.335,0.315,0.411,0.387,0.809c0.067,0.376-0.239,1.77,0,2.021c0.034,0.036,0.373-0.042,0.387,0
			c0.073,0.237-0.094,0.58,0,0.809c0.021,0.051,0.346-0.043,0.387,0c0.128,0.135-0.129,0.674,0,0.809
			c0.04,0.042,0.365-0.051,0.386,0c0.197,0.479-0.397,2.008,0,2.425c0.038,0.04,0.369-0.048,0.387,0
			c0.086,0.232-0.094,0.579,0,0.809c0.021,0.051,0.346-0.043,0.387,0c0.344,0.359-0.273,2.161,0,2.829
			c0.021,0.051,0.346-0.043,0.386,0c0.258,0.27-0.257,1.347,0,1.616c0.027,0.028,0.381-0.031,0.387,0c0.127,0.664-0.338,1.6,0,2.425
			c0.021,0.051,0.346-0.042,0.387,0c0.057,0.06-0.033,0.324,0,0.404c0.165,0.402,0.35,0.603,0.387,1.213
			c0.013,0.209,0.309,3.373,0,3.638c-0.057,0.048-0.349-0.062-0.387,0c-0.051,0.081,0.063,0.337,0,0.403
			c-0.129,0.135-0.518-0.002-0.387,0.404c-0.153,0.43,0.258,0.27,0.387,0.404c0.064,0.067-0.064,0.337,0,0.404
			c0.054,0.057,0.345-0.064,0.387,0c0.117,0.185-0.085,0.602,0,0.809c0.025,0.062,0.597,0.053,0.386,0.404
			c0.329-0.075,0.365,0.157,0.387,0.403c0.097,0.146-0.126,0.701,0,0.809c0.033,0.028,0.378-0.034,0.387,0
			c0.081,0.313-0.206,1.401,0,1.617c0.054,0.057,0.345-0.065,0.387,0c0.06,0.094-0.059,0.31,0,0.404
			c0.138,0.224,0.362-0.063,0.386,0.403c0.008,0.152-0.099,1.129,0,1.213c0.033,0.028,0.378-0.035,0.387,0
			c0.099,0.377-0.087,0.832,0,1.213c0.075,0.33,0.306,0.418,0.387,0.808c0.08,0.386-0.085,0.829,0,1.213
			c0.018,0.082,0.368,0.051,0.387,0.404c0.007,0.152-0.1,1.128,0,1.212c0.027,0.024,0.382-0.026,0.386,0
			c0.145,0.865-0.163,1.528,0,2.426c0.01,0.053,0.37,0.073,0.387,0.403c0.026,0.52-0.09,1.106,0,1.617
			c0.009,0.049,0.37,0.076,0.387,0.404c0.021,0.433,0.37,2.732,0,3.638c-0.071,0.173-0.338-0.003-0.387,0.403
			c-0.008,0.063-0.46,0.021-0.387,0.404c0.006,0.032,0.359-0.028,0.387,0c0.414,0.434-0.314,2.398,0,3.233
			c0.794,0.113,0.771,1.08,1.159,1.617c0.623,0.087,0.19,1.062,0.387,1.616c0.017,0.046,0.35-0.038,0.387,0
			c0.129,0.135-0.129,0.674,0,0.809c0.032,0.034,0.375-0.04,0.386,0c0.089,0.316-0.21,1.396,0,1.616
			c0.026,0.028,0.382-0.029,0.387,0c0.089,0.521-0.101,1.099,0,1.617c0.064,0.332,0.316,0.414,0.387,0.809
			c0.083,0.469-0.178,1.182,0,1.616c0.021,0.051,0.346-0.042,0.387,0c0.071,0.075-0.388,2.425,0,2.829
			c0.04,0.043,0.365-0.051,0.386,0c0.173,0.421-0.296,1.711,0,2.021c0.027,0.029,0.381-0.031,0.387,0
			c0.099,0.519-0.076,1.094,0,1.617c0.344,0.179,0.691,0.354,0.773,0.809c0.257,0,0.515,0,0.772,0
			c-0.007-0.432,0.494-0.267,0.772-0.404c0.188-0.093-0.037-0.381,0.387-0.404c0.093-0.005,0.305,0.042,0.387,0
			c0.191-0.099-0.041-0.381,0.387-0.404c0.095-0.005,0.302,0.042,0.386,0c0.188-0.093-0.037-0.381,0.387-0.404
			c0.092-0.005,0.306,0.043,0.387,0c0.194-0.103-0.044-0.38,0.387-0.404c0.095-0.005,0.302,0.042,0.386,0
			c0.188-0.092-0.037-0.381,0.387-0.404c0.09-0.005,0.308,0.043,0.387,0c0.197-0.106-0.046-0.38,0.387-0.403
			c0.087-0.005,0.311,0.043,0.386,0c0.057-0.032-0.048-0.354,0-0.404c0.06-0.063,0.309,0.04,0.387,0
			c1.486-0.77,2.969-1.512,4.638-2.425c0.252-0.139,0.511-0.23,0.772-0.404c0.078-0.052,0.323,0.066,0.387,0
			c0.043-0.046-0.052-0.379,0-0.404c0.308-0.151,0.829,0.094,1.159,0c0.104-0.029,0.029-0.385,0.387-0.404
			c0.101-0.006,0.295,0.04,0.387,0c0.171-0.076-0.025-0.382,0.386-0.404c0.095-0.005,0.302,0.042,0.387,0
			c0.187-0.093-0.037-0.381,0.387-0.404c0.094-0.005,0.304,0.042,0.387,0c0.189-0.097-0.04-0.381,0.386-0.404
			c0.095-0.005,0.302,0.042,0.387,0c0.187-0.092-0.037-0.381,0.387-0.404c0.09-0.005,0.308,0.043,0.387,0
			c0.196-0.106-0.046-0.38,0.386-0.403c0.088-0.005,0.312,0.043,0.387,0c0.057-0.032-0.048-0.354,0-0.404
			c0.06-0.063,0.309,0.041,0.387,0c0.511-0.271,1.038-0.531,1.546-0.809c0.251-0.138,0.511-0.229,0.772-0.404
			c0.078-0.052,0.322,0.067,0.387,0c0.048-0.05-0.057-0.371,0-0.404c0.142-0.081,0.676,0.124,0.772,0
			c0.047-0.059-0.059-0.364,0-0.404c0.264-0.178,0.479-0.226,0.773-0.403c0.255-0.156,0.503-0.225,0.772-0.404
			c0.078-0.052,0.323,0.066,0.387,0c0.043-0.045-0.051-0.38,0-0.404c0.231-0.111,0.985,0.182,1.159,0
			c0.043-0.045-0.051-0.38,0-0.404c0.14-0.067,0.682,0.117,0.773,0c0.027-0.035-0.035-0.394,0-0.404
			c0.333-0.101,1.732,0.255,1.932,0c0.021-0.026-0.021-0.401,0-0.404c0.289-0.038,0.4,0.428,0.773,0.404
			c0.019-0.001-0.021-0.382,0-0.404c0.01-0.011,3.541-0.202,4.251,0c0.104,0.029,0.028,0.385,0.387,0.404
			c0.514,0.028,2.262-0.021,3.478,0v2.021l1.546,1.213c0.188,0.426-0.304,0.274-0.387,0.404c-0.056,0.088,0.064,0.324,0,0.404
			c-0.055,0.068-0.325-0.064-0.386,0c-0.065,0.067,0.063,0.334,0,0.404c-0.062,0.067-0.323-0.066-0.387,0
			c-0.064,0.067,0.064,0.337,0,0.403c-0.064,0.067-0.322-0.067-0.387,0c-0.065,0.068,0.063,0.333,0,0.404
			c-0.06,0.068-0.323-0.065-0.387,0c-0.064,0.067,0.064,0.337,0,0.404s-0.321-0.067-0.386,0c-0.066,0.069,0.06,0.328,0,0.404
			c-0.054,0.068-0.326-0.063-0.387,0c-0.129,0.135,0.129,0.674,0,0.809s-0.645-0.135-0.772,0c-0.055,0.057,0.062,0.361,0,0.404
			c-0.084,0.059-0.311-0.067-0.387,0c-0.065,0.058,0.061,0.34,0,0.404c-0.065,0.067-0.319-0.066-0.387,0
			c-0.065,0.063,0.063,0.338,0,0.403c-0.064,0.067-0.322-0.067-0.387,0s0.064,0.337,0,0.404c-0.063,0.066-0.325-0.068-0.386,0
			c-0.063,0.071,0.064,0.336,0,0.404c-0.064,0.067-0.322-0.067-0.387,0s0.064,0.337,0,0.404c-0.059,0.062-0.337-0.067-0.387,0
			c-0.057,0.078,0.065,0.336,0,0.404c-0.041,0.042-0.365-0.051-0.387,0c-0.037,0.092-0.059,1.151,0,1.212
			c0.064,0.067,0.31-0.054,0.387,0l0.011,1.841l1.148,1.393c0.075,0.482-0.579,0.202-0.772,0.404c-0.048,0.05,0.056,0.373,0,0.404
			c-0.201,0.113-0.563-0.095-0.773,0c-0.048,0.021,0.041,0.362,0,0.404c-0.129,0.135-0.644-0.135-0.772,0
			c-0.064,0.067,0.064,0.337,0,0.404s-0.322-0.067-0.387,0c-0.056,0.058,0.063,0.358,0,0.404c-0.139,0.102-0.669-0.133-0.772,0
			c-0.042,0.053,0.054,0.372,0,0.404c-0.197,0.115-0.564-0.094-0.773,0c-0.048,0.021,0.041,0.361,0,0.403
			c-0.06,0.063-0.309-0.041-0.386,0c-0.268,0.145-0.485,0.234-0.773,0.404c-0.078,0.047-0.324-0.064-0.387,0
			c-0.064,0.067,0.064,0.337,0,0.404s-0.322-0.067-0.386,0c-0.056,0.059,0.063,0.358,0,0.404c-0.14,0.102-0.67-0.132-0.773,0
			c-0.034,0.044,0.044,0.385,0,0.404c-0.317,0.138-0.821-0.077-1.159,0c-0.3,0.068-0.426,0.302-0.773,0.404
			c-0.318,0.094-0.396,0.318-0.772,0.404c-0.364,0.083-0.801-0.104-1.159,0c-0.106,0.03-0.027,0.384-0.387,0.404
			c-0.146,0.008-1.079-0.104-1.159,0c-0.026,0.033,0.032,0.395,0,0.403c-0.362,0.101-0.794-0.083-1.159,0
			c-0.31,0.07-0.412,0.313-0.773,0.404c-0.363,0.093-0.799-0.103-1.159,0c-0.104,0.03-0.029,0.385-0.387,0.404
			c-0.471,0.026-1.093-0.129-1.546,0c-0.104,0.029-0.028,0.385-0.386,0.404c-0.12,0.007-0.271-0.029-0.387,0
			c-0.316,0.079-0.4,0.319-0.773,0.404c-0.369,0.084-0.79-0.083-1.159,0c-0.066,0.015-0.058,0.386-0.387,0.404
			c-0.514,0.028-1.031-0.021-1.545,0c0.07,0.336-0.15,0.391-0.387,0.404c-0.129,0.007-0.258-0.006-0.387,0
			c-0.164,0.658-0.33,1.357-0.387,2.021c-0.376,4.376,0.282,10.654,0,15.763c-0.183,1.27,0.482,1.651,1.16,2.021
			c0,1.078,0,2.155,0,3.233c-49.981,0-99.966,0-149.946,0l0.193-1.818l-1.739-0.202c-0.197-0.333,0.258-1.348,0-1.617
			c-0.041-0.042-0.365,0.051-0.387,0c-0.098-0.239,0.17-1.035,0-1.212c-0.04-0.043-0.365,0.051-0.386,0
			c-0.02-0.046,0.367-2.445,0-2.829c-0.041-0.043-0.366,0.051-0.387,0c-0.173-0.422,0.296-1.712,0-2.021
			c-0.027-0.028-0.381,0.032-0.387,0c-0.099-0.519,0.092-1.096,0-1.616c-0.005-0.03-0.359,0.027-0.387,0
			c-0.19-0.199,0.445-2.364,0-2.829c-0.04-0.043-0.365,0.051-0.386,0c-0.099-0.239,0.169-1.035,0-1.213
			c-0.041-0.042-0.366,0.051-0.387,0c-0.187-0.455,0.187-1.161,0-1.616c-0.021-0.051-0.346,0.042-0.387,0
			c-0.217-0.228,0.435-2.375,0-2.829c-0.038-0.041-0.368,0.048-0.387,0c-0.087-0.232,0.094-0.58,0-0.809
			c-0.021-0.051-0.346,0.042-0.386,0c-0.17-0.178,0.098-0.974,0-1.213c-0.021-0.051-0.346,0.043-0.387,0
			c-0.258-0.27,0.197-1.284,0-1.616c0.033-0.574,0.063-1.145-0.387-1.213c-0.258,0-0.515,0-0.772,0
			c-0.073,0.327-0.388,0.403-0.387,0.809c-0.407,0.42,0.536,2.37,0,2.829c-0.037,0.031-0.373-0.041-0.387,0
			c-0.264,0.799,0.143,3.165,0,4.445c-0.013,0.121,0.079,0.741,0,0.809c-0.037,0.032-0.373-0.04-0.386,0
			c-0.156,0.472,0.187,1.16,0,1.617c-0.068,0.165-0.326,0.014-0.387,0.404c-0.042,0.268,0.398,2.412,0,2.829
			c-0.026,0.027-0.382-0.03-0.387,0c-0.072,0.411,0.327,2.082,0,2.425c-0.041,0.042-0.365-0.051-0.387,0
			c-0.089,0.218,0.043,0.573,0,0.809c-0.005,0.03-0.359-0.028-0.386,0c-0.345,0.36,0.239,1.93,0,2.829
			c-0.462-0.078-0.193,0.605-0.387,0.808c-0.028,0.03-0.38-0.033-0.387,0c-0.147,0.706,0.623,0.992,0.387,2.021h-1.933v2.021
			c-38.517,0-77.034,0-115.551,0l0.193-1.886l-1.739-0.539c0.273-0.669-0.356-1.557,0-2.425c0.021-0.051,0.346,0.042,0.387,0
			c0.257-0.27-0.258-1.348,0-1.617c0.027-0.028,0.38,0.032,0.386,0c0.073-0.38-0.243-1.767,0-2.021c0.041-0.043,0.366,0.051,0.386,0
			c0.094-0.229-0.087-0.577,0-0.809c0.019-0.048,0.348,0.04,0.387,0c0.296-0.31-0.173-1.6,0-2.021c0.021-0.051,0.346,0.042,0.386,0
			c0.208-0.218-0.084-1.303,0-1.617c0.01-0.038,0.355,0.033,0.387,0c0.129-0.135-0.129-0.673,0-0.808
			c0.033-0.035,0.375,0.04,0.386,0c0.118-0.404-0.269-1.74,0-2.021c0.041-0.042,0.366,0.051,0.387,0
			c0.093-0.229-0.088-0.577,0-0.809c0.123-0.32,0.271-0.435,0.386-0.808c0.023-0.076-0.051-0.351,0-0.404
			c0.041-0.043,0.366,0.051,0.387,0c0.098-0.239-0.169-1.035,0-1.213c0.041-0.042,0.366,0.051,0.386,0
			c0.098-0.239-0.169-1.035,0-1.212c0.041-0.043,0.366,0.051,0.387,0c0.119-0.291-0.218-1.431,0-1.617
			c0.028-0.024,0.381,0.028,0.386,0c0.233-1.293-0.115-2.591,0-4.041c0.002-0.022,0.365,0.022,0.387,0c0.41-0.43-0.18-4.065,0-5.255
			c0.004-0.028,0.371-0.092,0.386-0.404c0.007-0.133-0.302-2.513,0-2.829c0.026-0.027,0.381,0.03,0.387,0
			c0.348-2.037-0.276-5.425,0-8.083c0.012-0.12-0.079-0.741,0-0.809c0.033-0.027,0.377,0.035,0.386,0
			c0.098-0.376-0.093-0.834,0-1.212c0.024-0.1,0.368-0.037,0.386-0.404c0.015-0.292-0.187-1.861,0-2.021
			c0.027-0.022,0.383,0.026,0.387,0c0.014-0.09,0.056-0.761,0-0.808c-0.023-0.02-0.385,0.019-0.387,0
			c-0.039-0.64-0.067-1.385,0-2.021c0.034-0.314,0.32-0.433,0.387-0.808c0.067-0.376-0.24-1.771,0-2.021
			c0.028-0.029,0.38,0.033,0.386,0c0.105-0.516-0.099-1.099,0-1.616c0.006-0.032,0.359,0.028,0.387,0
			c0.31-0.324-0.169-1.946,0-2.829c0.006-0.032,0.359,0.028,0.386,0c0.296-0.31-0.172-1.6,0-2.021c0.021-0.051,0.346,0.043,0.387,0
			c0.257-0.269-0.258-1.347,0-1.616c0.03-0.031,0.378,0.036,0.386,0c0.151-0.635-0.118-1.377,0-2.021
			c0.006-0.031,0.359,0.028,0.387,0c0.149-0.156-0.063-0.99,0-1.213c0.011-0.04,0.354,0.034,0.386,0
			c0.129-0.135-0.129-0.674,0-0.809c0.033-0.034,0.375,0.041,0.387,0c0.117-0.404-0.27-1.739,0-2.021
			c0.041-0.043,0.365,0.051,0.386,0c0.098-0.239-0.169-1.035,0-1.213c0.041-0.042,0.366,0.051,0.387,0
			c0.093-0.228-0.073-0.57,0-0.808c0.013-0.042,0.352,0.035,0.386,0c0.296-0.31-0.173-1.6,0-2.021c0.021-0.051,0.346,0.043,0.387,0
			c0.051-0.054-0.024-0.328,0-0.404c0.105-0.332,0.315-0.408,0.386-0.808c0.045-0.254-0.069-0.563,0-0.809
			c0.011-0.04,0.354,0.034,0.386,0c0.154-0.161-0.07-0.985,0-1.213c0.013-0.042,0.353,0.036,0.387,0c0.15-0.157-0.065-0.987,0-1.212
			c0.012-0.041,0.354,0.034,0.386,0c0.163-0.171-0.086-0.978,0-1.213c0.018-0.047,0.349,0.04,0.387,0
			c0.129-0.135-0.129-0.674,0-0.809c0.047-0.049,0.356,0.059,0.386,0c0.108-0.21-0.09-0.587,0-0.808
			c0.021-0.051,0.346,0.042,0.387,0c0.169-0.178-0.098-0.974,0-1.213c0.021-0.051,0.346,0.043,0.386,0
			c0.129-0.135-0.129-0.674,0-0.809c0.041-0.042,0.366,0.051,0.387,0c0.093-0.227-0.095-0.582,0-0.808
			c0.021-0.052,0.345,0.043,0.386,0c0.169-0.178-0.098-0.974,0-1.213c0.021-0.051,0.346,0.043,0.387,0
			c0.128-0.135-0.129-0.674,0-0.809c0.042-0.044,0.363,0.054,0.386,0c0.098-0.224-0.093-0.582,0-0.808
			c0.021-0.051,0.346,0.042,0.387,0c0.128-0.135-0.129-0.674,0-0.809c0.041-0.043,0.365,0.051,0.386,0
			c0.098-0.239-0.169-1.035,0-1.213c0.041-0.042,0.366,0.051,0.387,0c0.09-0.221-0.108-0.598,0-0.808
			c0.03-0.059,0.339,0.049,0.386,0c0.129-0.135-0.129-0.674,0-0.809c0.042-0.045,0.363,0.053,0.386,0
			c0.099-0.223-0.092-0.582,0-0.809c0.021-0.051,0.346,0.043,0.387,0c0.169-0.177-0.098-0.973,0-1.213
			c0.025-0.062,0.597-0.053,0.386-0.403c-0.153-0.43,0.258-0.27,0.387-0.404c0.064-0.067-0.064-0.337,0-0.404
			c0.039-0.041,0.368,0.049,0.386,0c0.13-0.341-0.152-0.884,0-1.213c0.025-0.055,0.343,0.046,0.387,0
			c0.054-0.057-0.062-0.36,0-0.404c0.045-0.031,0.366,0.046,0.386,0c0.149-0.33-0.12-0.867,0-1.212
			c-0.552-0.034-0.76-0.189-1.159-0.404c-0.078-0.042-0.327,0.063-0.387,0c-0.24-0.251,0.04-0.275-0.386-0.404
			c-0.356-0.107-0.796,0.083-1.159,0c-0.299-0.068-0.427-0.302-0.773-0.404c-0.28-0.083-0.46-0.273-0.773-0.404
			c-0.138-0.058-0.686,0.111-0.773,0c-0.024-0.03,0.028-0.397,0-0.404c-0.771-0.171-1.401,0.121-2.319,0
			c0.006-0.431-0.495-0.266-0.773-0.403c-0.187-0.093,0.037-0.381-0.386-0.404c-0.104-0.006-0.291,0.039-0.387,0
			c-0.16-0.065,0.016-0.382-0.386-0.404c-0.146-0.008-1.079,0.104-1.16,0c-0.03-0.038,0.038-0.391,0-0.404
			c-0.344-0.12-0.803,0.081-1.159,0c-0.283-0.064-0.45-0.29-0.773-0.404c-0.29-0.103-0.449-0.269-0.773-0.404
			c-0.138-0.058-0.686,0.111-0.773,0c-0.032-0.04,0.041-0.388,0-0.404c-0.338-0.132-0.81,0.1-1.159,0
			c-0.104-0.029-0.029-0.384-0.387-0.403c-0.105-0.006-0.289,0.038-0.386,0c-0.156-0.063,0.012-0.383-0.387-0.404
			c-0.103-0.006-0.292,0.039-0.386,0c-0.295-0.124-0.439-0.265-0.773-0.404c-0.164-0.068,0.018-0.382-0.387-0.404
			c-0.146-0.008-1.079,0.104-1.159,0c-0.031-0.04,0.04-0.39,0-0.404c-0.136-0.051-0.689,0.107-0.773,0
			c-0.03-0.039,0.039-0.39,0-0.404c-0.207-0.074-0.587,0.116-0.773,0c-0.059-0.036,0.05-0.352,0-0.404
			c-0.054-0.057-0.345,0.065-0.386,0c-0.052-0.08,0.064-0.337,0-0.404c-0.064-0.067-0.322,0.067-0.387,0
			c-0.054-0.056,0.062-0.36,0-0.403c-0.157-0.109-0.643,0.136-0.773,0c-0.054-0.057,0.062-0.361,0-0.404
			c-0.077-0.054-0.322,0.067-0.386,0s0.064-0.337,0-0.404c-0.054-0.057-0.345,0.064-0.387,0c-0.049-0.077,0.063-0.344,0-0.404
			c-0.068-0.065-0.321,0.068-0.386,0c-0.054-0.057,0.062-0.361,0-0.404c-0.078-0.054-0.322,0.067-0.387,0s0.064-0.337,0-0.404
			c-0.054-0.057-0.345,0.064-0.386,0c-0.052-0.08,0.064-0.337,0-0.404s-0.322,0.067-0.387,0c-0.054-0.057,0.062-0.36,0-0.403
			c-0.077-0.055-0.322,0.067-0.386,0s0.064-0.337,0-0.404c-0.054-0.057-0.345,0.064-0.387,0c-0.053-0.084,0.065-0.332,0-0.404
			c-0.061-0.068-0.323,0.066-0.386,0c-0.054-0.057,0.062-0.361,0-0.404c-0.077-0.054-0.322,0.067-0.386,0
			c-0.064-0.067,0.064-0.337,0-0.404c-0.054-0.057-0.346,0.064-0.387,0c-0.056-0.088,0.064-0.324,0-0.404
			c-0.183-0.228-0.363,0.067-0.386-0.404c-0.004-0.073,0.04-0.348,0-0.404c-0.048-0.066-0.329,0.061-0.387,0
			c-0.054-0.056,0.062-0.36,0-0.403c-0.069-0.049-0.335,0.063-0.386,0c-0.06-0.076,0.065-0.336,0-0.404
			c-0.054-0.057-0.345,0.064-0.387,0c-0.051-0.081,0.064-0.337,0-0.404s-0.322,0.067-0.386,0c-0.054-0.057,0.062-0.361,0-0.404
			c-0.066-0.046-0.34,0.063-0.387,0c-0.106-0.142,0.129-0.698,0-0.809c-0.071-0.061-0.323,0.069-0.386,0
			c-0.064-0.069,0.065-0.336,0-0.404c-0.061-0.063-0.332,0.068-0.387,0c-0.06-0.075,0.066-0.335,0-0.403
			c-0.054-0.057-0.345,0.064-0.386,0c-0.052-0.081,0.064-0.337,0-0.404s-0.322,0.067-0.387,0c-0.054-0.057,0.062-0.361,0-0.404
			c-0.065-0.046-0.341,0.062-0.386,0c-0.104-0.143,0.129-0.698,0-0.809c-0.057-0.048-0.349,0.062-0.387,0
			c-0.05-0.081,0.064-0.337,0-0.404c-0.054-0.057-0.345,0.064-0.386,0c-0.057-0.089,0.064-0.321,0-0.404
			c-0.053-0.067-0.327,0.063-0.386,0c-0.054-0.057,0.062-0.36,0-0.404c-0.064-0.044-0.343,0.062-0.387,0
			c-0.103-0.143,0.128-0.698,0-0.808c-0.067-0.058-0.332,0.067-0.386,0c-0.061-0.075,0.065-0.336,0-0.404
			c-0.054-0.057-0.345,0.064-0.387,0c-0.051-0.081,0.064-0.337,0-0.404s-0.322,0.067-0.386,0c-0.054-0.057,0.062-0.361,0-0.404
			c-0.067-0.047-0.338,0.063-0.387,0c-0.059-0.076,0.066-0.335,0-0.404c-0.054-0.057-0.345,0.064-0.386,0
			c-0.105-0.164,0.13-0.672,0-0.808c-0.054-0.057-0.345,0.064-0.387,0c-0.059-0.094,0.06-0.312,0-0.404
			c-0.145-0.226-0.363,0.064-0.386-0.404c-0.004-0.074,0.041-0.348,0-0.404c-0.048-0.067-0.329,0.061-0.387,0
			c-0.054-0.057,0.062-0.361,0-0.404c-0.061-0.042-0.347,0.06-0.386,0c-0.054-0.08,0.065-0.336,0-0.404
			c-0.054-0.057-0.345,0.064-0.387,0c-0.06-0.094,0.059-0.31,0-0.404c-0.139-0.224-0.363,0.063-0.386-0.404
			c-0.017-0.33-0.366-0.403-0.387-0.808c-0.004-0.092,0.042-0.326,0-0.404c-0.031-0.059-0.338,0.05-0.386,0
			c-0.129-0.135,0.129-0.674,0-0.809c-0.041-0.042-0.366,0.051-0.386,0c-0.094-0.229,0.088-0.577,0-0.809
			c-0.123-0.321-0.273-0.433-0.387-0.808c-0.042-0.139,0.099-0.725,0-0.809c-0.033-0.028-0.377,0.034-0.386,0
			c-0.082-0.313,0.206-1.401,0-1.617c-0.041-0.042-0.366,0.051-0.387,0c-0.094-0.228,0.088-0.577,0-0.808
			c-0.124-0.323-0.28-0.428-0.386-0.809c-0.104-0.373,0.098-0.838,0-1.213c-0.028-0.108-0.368-0.03-0.387-0.403
			c-0.032-0.634,0.139-1.406,0-2.021c-0.073-0.323-0.295-0.43-0.386-0.809c-0.032-0.133,0.092-0.729,0-0.808
			c-0.033-0.028-0.377,0.034-0.387,0c-0.226-0.867,0.169-2.624,0-4.042c-0.003-0.025-0.363,0.025-0.386,0
			c-0.243-0.254,0.073-1.642,0-2.021c-0.063-0.332-0.316-0.415-0.387-0.809c-0.043-0.245,0.08-0.574,0-0.809
			c-0.052-0.153-0.366,0.006-0.386-0.404c-0.007-0.13,0.081-0.724,0-0.808c-0.033-0.035-0.375,0.04-0.387,0
			c-0.093-0.319,0.213-1.395,0-1.617c-0.033-0.034-0.375,0.04-0.386,0c-0.063-0.223,0.149-1.056,0-1.212
			c-0.032-0.034-0.376,0.039-0.387,0c-0.169-0.621,0.184-1.406,0-2.021c-0.012-0.041-0.353,0.035-0.386,0
			c-0.129-0.135,0.129-0.674,0-0.808c-0.031-0.032-0.377,0.037-0.386,0c-0.079-0.312,0.204-1.403,0-1.617
			c-0.026-0.027-0.382,0.03-0.387,0c-0.078-0.454-0.3-2.097,0-2.829c0.021-0.051,0.346,0.043,0.387,0
			c0.052-0.055-0.025-0.327,0-0.404c0.108-0.331,0.315-0.408,0.386-0.809c0.044-0.248-0.077-0.57,0-0.808
			c0.047-0.146,0.366-0.002,0.386-0.404c0.017-0.333-0.109-0.903,0-1.213c0.017-0.046,0.35,0.039,0.387,0
			c0.129-0.135-0.129-0.674,0-0.809c0.033-0.034,0.375,0.041,0.386,0c0.178-0.612-0.115-1.389,0-2.021
			c0.006-0.031,0.36,0.028,0.387,0c0.144-0.15-0.055-0.994,0-1.212c0.026-0.104,0.368-0.035,0.386-0.404
			c0.007-0.131-0.08-0.725,0-0.809c0.029-0.03,0.379,0.033,0.387,0c0.109-0.511-0.125-1.11,0-1.617
			c0.083-0.335,0.315-0.408,0.386-0.808c0.046-0.257-0.063-0.558,0-0.809c0.085-0.336,0.315-0.408,0.387-0.809
			c0.045-0.256-0.063-0.556,0-0.808c0.025-0.101,0.368-0.037,0.386-0.404c0.013-0.262-0.161-1.449,0-1.617
			c0.041-0.042,0.366,0.051,0.387,0c0.098-0.239-0.169-1.035,0-1.212c0.054-0.057,0.345,0.064,0.386,0
			c0.104-0.164-0.13-0.673,0-0.809c0.04-0.042,0.366,0.05,0.387,0c0.095-0.238-0.168-1.037,0-1.213c0.045-0.048,0.358,0.057,0.386,0
			c0.128-0.262,0.221-0.537,0.387-0.808c0.049-0.082-0.064-0.338,0-0.404c0.046-0.049,0.357,0.058,0.386,0
			c0.107-0.212-0.091-0.587,0-0.809c0.021-0.051,0.346,0.042,0.386,0c0.066-0.068-0.062-0.331,0-0.404
			c0.057-0.068,0.325,0.064,0.387,0c0.054-0.057-0.062-0.361,0-0.404c0.077-0.054,0.322,0.067,0.386,0s-0.064-0.337,0-0.404
			c0.054-0.057,0.345,0.065,0.387,0c0.045-0.071-0.061-0.352,0-0.404c0.072-0.063,0.321,0.069,0.386,0
			c0.054-0.056-0.062-0.36,0-0.403c0.157-0.109,0.643,0.136,0.773,0c0.05-0.052-0.058-0.369,0-0.404c0.269-0.163,0.856,0.086,1.16,0
			c0.104-0.03,0.029-0.385,0.386-0.404c0.09-0.005,0.308,0.043,0.387,0c0.054-0.029-0.046-0.356,0-0.404
			c0.054-0.057,0.345,0.064,0.386,0c0.029-0.046-0.042-0.384,0-0.404c0.192-0.09,0.604,0.126,0.773,0
			c0.063-0.047-0.056-0.345,0-0.404c0.054-0.057,0.345,0.064,0.386,0c0.052-0.08-0.064-0.337,0-0.404s0.322,0.067,0.387,0
			c0.054-0.057-0.062-0.36,0-0.403c0.08-0.056,0.318,0.067,0.386,0c0.213-0.211-0.062-0.38,0.387-0.404
			c0.044-0.003,0.365,0.031,0.386,0c0.122-0.18-0.093-0.608,0-0.809c0.14-0.102,0.67,0.132,0.773,0c0.046-0.059-0.058-0.365,0-0.404
			c0.078-0.053,0.323,0.067,0.387,0c0.054-0.057-0.062-0.361,0-0.404c0.262-0.183,0.866,0.132,1.159,0
			c0.048-0.021-0.041-0.361,0-0.404c0.129-0.135,0.644,0.135,0.773,0c0.041-0.042-0.048-0.382,0-0.404
			c0.219-0.098,0.55,0.089,0.773,0c0.045-0.018-0.038-0.364,0-0.403c0.15-0.157,0.945,0.067,1.159,0
			c0.292-0.093,0.442-0.277,0.773-0.404c0.224-0.086,0.554,0.098,0.773,0c0.049-0.022-0.041-0.362,0-0.404
			c0.058-0.061,0.31,0.037,0.387,0c0.051-0.024-0.043-0.359,0-0.404c0.257-0.27,1.288,0.27,1.546,0c0.041-0.043-0.049-0.383,0-0.404
			c0.218-0.098,0.552,0.093,0.773,0c0.301-0.126,0.426-0.272,0.772-0.404c0.074-0.027,0.333,0.056,0.387,0
			c0.041-0.042-0.049-0.382,0-0.404c0.229-0.103,0.99,0.178,1.159,0c0.041-0.042-0.048-0.382,0-0.403
			c0.219-0.099,0.548,0.082,0.773,0c0.042-0.016-0.036-0.367,0-0.404c0.15-0.157,0.945,0.067,1.16,0
			c0.299-0.095,0.431-0.283,0.773-0.404c0.219-0.078,1.003,0.163,1.159,0c0.039-0.041-0.046-0.386,0-0.404
			c0.221-0.092,0.554,0.098,0.773,0c0.048-0.021-0.041-0.361,0-0.404c0.169-0.177,0.931,0.103,1.159,0
			c0.049-0.021-0.041-0.361,0-0.404c0.129-0.135,0.644,0.135,0.773,0s-0.002-0.541,0.387-0.404
			c-0.033-0.573-0.064-1.145,0.386-1.212h1.933l1.545-1.213c0.355-0.081,0.33,0.167,0.387,0.404c0.061,0.254-0.046,0.551,0,0.809
			c0.583-0.002,0.72-0.231,1.159-0.404c0.373-0.147,0.749,0.081,0.773-0.404c0.4-0.255,1.61,0.337,1.933,0
			c0.041-0.043-0.049-0.383,0-0.404c0.52-0.233,2.36,0.101,3.478,0c0.021-0.002-0.022-0.381,0-0.404
			c0.389-0.407,3.866,0.119,5.024,0c0.113-0.012,0.709,0.081,0.773,0c0.03-0.038-0.039-0.39,0-0.404c0.22-0.079,1.002,0.165,1.159,0
			c0.041-0.042-0.048-0.382,0-0.403c0.201-0.091,0.554,0.03,0.773,0c-0.092,0.013,0.133,0.457,0.387,0.403
			c0.052-0.011,0.072-0.382,0.386-0.403c-0.051,0.003,0.101,0.464,0.386,0.403c0.057-0.012,0.066-0.386,0.387-0.403
			c1.928-0.11,4.333-0.268,6.183,0c0.307,0.044,0.408,0.332,0.773,0.403c0.242,0.048,0.538-0.072,0.773,0
			c0.038,0.012-0.032,0.37,0,0.404c0.147,0.153,0.948-0.062,1.16,0c0.108,0.032,0.025,0.385,0.386,0.404
			c0.25,0.014,1.385-0.168,1.546,0c0.041,0.043-0.048,0.383,0,0.404c0.217,0.097,0.559-0.102,0.773,0c0.05,0.023-0.042,0.36,0,0.404
			c0.129,0.135,0.644-0.135,0.773,0c0.052,0.054-0.06,0.365,0,0.404c0.078,0.051,0.323-0.066,0.386,0
			c0.041,0.042-0.048,0.382,0,0.404c0.194,0.087,0.603-0.125,0.773,0c0.063,0.046-0.056,0.346,0,0.403
			c0.064,0.067,0.322-0.067,0.387,0s-0.064,0.337,0,0.404c0.064,0.067,0.309-0.054,0.386,0c0.215,0.149-0.061,0.38,0.387,0.404
			c0.063,0.004,0.341-0.04,0.386,0c0.065,0.06-0.062,0.34,0,0.404c0.054,0.057,0.345-0.064,0.387,0c0.051,0.081-0.064,0.337,0,0.404
			c0.064,0.067,0.322-0.067,0.386,0c0.054,0.057-0.062,0.361,0,0.404c0.067,0.047,0.338-0.063,0.387,0
			c0.059,0.076-0.066,0.335,0,0.404c0.054,0.057,0.345-0.065,0.386,0c0.104,0.164-0.13,0.672,0,0.808
			c0.054,0.057,0.345-0.064,0.386,0c0.056,0.088-0.064,0.326,0,0.404c0.108,0.132,0.669-0.133,0.773,0
			c0.12,0.153-0.132,0.671,0,0.809c0.054,0.057,0.345-0.064,0.387,0c0.058,0.091-0.063,0.318,0,0.404
			c0.049,0.067,0.328-0.062,0.386,0c0.054,0.057-0.062,0.361,0,0.404c0.044,0.03,0.368-0.045,0.387,0
			c0.087,0.201-0.121,0.63,0,0.808c0.044,0.066,0.331-0.058,0.386,0c0.054,0.057-0.062,0.361,0,0.404
			c0.077,0.054,0.322-0.067,0.387,0s-0.064,0.337,0,0.404c0.054,0.057,0.345-0.064,0.386,0c0.104,0.164-0.13,0.672,0,0.809
			c0.231,0.241,0.304-0.059,0.387,0.404c0.038,0.215-0.098,0.619,0,0.809c0.03,0.059,0.339-0.05,0.386,0
			c0.054,0.056-0.062,0.36,0,0.403c0.064,0.045,0.342-0.061,0.387,0c0.103,0.144-0.128,0.699,0,0.809
			c0.048,0.041,0.36-0.053,0.386,0c0.073,0.147-0.116,0.709,0,0.809c0.037,0.031,0.373-0.041,0.387,0
			c0.079,0.237-0.09,0.575,0,0.809c0.119,0.309,0.252,0.459,0.386,0.808c0.055,0.145-0.106,0.718,0,0.809
			c0.037,0.032,0.373-0.041,0.386,0c0.12,0.36-0.096,0.844,0,1.213c0.028,0.108,0.368,0.029,0.387,0.404
			c0.006,0.12-0.031,0.288,0,0.403c0.089,0.333,0.305,0.415,0.386,0.809c0.081,0.386-0.08,0.826,0,1.213
			c0.069,0.333,0.316,0.412,0.387,0.808c0.046,0.258-0.061,0.556,0,0.809c0.023,0.096,0.368,0.04,0.386,0.404
			c0.007,0.131-0.08,0.725,0,0.809c0.228,0.238,0.315-0.061,0.387,0.404c0.062,0.402-0.32,2.09,0,2.425
			c0.054,0.057,0.345-0.064,0.386,0c0.104,0.164-0.13,0.672,0,0.809c0.054,0.057,0.345-0.065,0.387,0
			c0.136,0.213-0.183,1.056,0,1.212c0.037,0.032,0.373-0.04,0.386,0c0.076,0.229-0.027,0.566,0,0.809
			c0.134,1.2-0.403,2.339-0.386,3.638c0.003,0.28,0.325,0.463,0.386,0.808c0.499,2.796-0.373,7.438,0,10.913c0,0.27,0,0.539,0,0.809
			c-0.329-0.075-0.364,0.157-0.386,0.403c0.071,0.337-0.15,0.392-0.387,0.404c-0.128,0.008-0.258-0.005-0.386,0
			c0.234,1.161-0.311,2.339,0,3.638c0.017,0.072-0.047,0.354,0,0.404c0.052,0.055,0.349-0.063,0.386,0
			c0.048,0.081-0.063,0.338,0,0.404c0.064,0.067,0.322-0.067,0.387,0s-0.064,0.337,0,0.404c0.062,0.064,0.33-0.068,0.386,0
			c0.061,0.074-0.065,0.335,0,0.404c0.064,0.067,0.322-0.067,0.387,0s-0.064,0.336,0,0.403s0.322-0.067,0.386,0
			s-0.064,0.337,0,0.404s0.322-0.067,0.387,0c0.064,0.067-0.064,0.337,0,0.404c0.061,0.063,0.332-0.068,0.386,0
			c0.06,0.076-0.066,0.336,0,0.404c0.041,0.043,0.366-0.051,0.387,0c0.084,0.207-0.118,0.624,0,0.809
			c0.041,0.064,0.332-0.057,0.386,0c0.064,0.067-0.064,0.337,0,0.404s0.322-0.067,0.386,0c0.066,0.068-0.056,0.325,0,0.404
			c0.048,0.066,0.329-0.061,0.387,0c0.129,0.134-0.129,0.673,0,0.808c0.06,0.063,0.333-0.067,0.386,0
			c0.06,0.076-0.065,0.336,0,0.404c0.064,0.067,0.322-0.067,0.387,0s-0.064,0.337,0,0.404c0.057,0.06,0.34-0.066,0.386,0
			c0.12,0.174-0.082,0.608,0,0.809c0.021,0.051,0.346-0.043,0.387,0c0.063,0.066-0.049,0.322,0,0.404
			c0.037,0.063,0.334-0.055,0.386,0c0.129,0.135-0.129,0.673,0,0.808c0.055,0.059,0.343-0.065,0.387,0
			c0.053,0.081-0.065,0.337,0,0.404c0.064,0.067,0.322-0.067,0.386,0s-0.064,0.337,0,0.404c0.054,0.057,0.345-0.064,0.387,0
			c0.118,0.185-0.085,0.602,0,0.809c0.021,0.051,0.346-0.043,0.386,0c0.129,0.135-0.129,0.674,0,0.809
			c0.064,0.067,0.322-0.067,0.387,0c0.064,0.067-0.064,0.336,0,0.403c0.047,0.05,0.356-0.058,0.386,0
			c0.126,0.245-0.183,1.021,0,1.213c0.056,0.059,0.342-0.065,0.387,0c0.054,0.08-0.065,0.336,0,0.404
			c0.064,0.067,0.322-0.067,0.386,0s-0.064,0.337,0,0.404c0.063,0.065,0.327-0.068,0.386,0c0.063,0.071-0.065,0.336,0,0.404
			c0.054,0.057,0.346-0.065,0.387,0c0.049,0.077-0.063,0.343,0,0.403c0.142,0.138,0.508-0.004,0.386,0.404
			c0.232,0.162,0.966-0.202,1.16,0c0.033,0.035-0.039,0.393,0,0.404c0.214,0.068,1.009-0.157,1.159,0
			c0.036,0.038-0.043,0.389,0,0.404c0.222,0.083,1-0.166,1.16,0c0.042,0.045-0.051,0.38,0,0.404c0.14,0.067,0.681-0.117,0.773,0
			c0.04,0.051-0.052,0.376,0,0.404c0.078,0.043,0.326-0.063,0.386,0c0.041,0.042-0.048,0.382,0,0.404
			c0.188,0.084,0.612-0.126,0.773,0c0.064,0.05-0.058,0.344,0,0.404c0.054,0.056,0.345-0.065,0.386,0
			c0.038,0.059-0.053,0.368,0,0.403c0.183,0.122,0.572-0.09,0.773,0c0.049,0.022-0.041,0.362,0,0.404
			c0.062,0.064,0.309-0.045,0.387,0c0.204,0.119-0.051,0.38,0.386,0.404c0.065,0.004,0.339-0.041,0.387,0
			c0.065,0.057-0.061,0.341,0,0.404c0.054,0.057,0.345-0.064,0.386,0c0.052,0.081-0.064,0.337,0,0.404s0.322-0.067,0.387,0
			c0.054,0.057-0.062,0.361,0,0.404c0.077,0.054,0.322-0.067,0.386,0s-0.064,0.337,0,0.404c0.054,0.057,0.345-0.065,0.387,0
			c0.051,0.08-0.064,0.336,0,0.403c0.064,0.067,0.322-0.067,0.386,0c0.054,0.057-0.062,0.361,0,0.404
			c0.067,0.048,0.337-0.063,0.387,0c0.108,0.141-0.13,0.697,0,0.809c0.056,0.048,0.349-0.061,0.386,0
			c0.16,0.258,0.208,0.539,0.386,0.809c0.15,0.227,0.363-0.065,0.387,0.404c0.004,0.091-0.041,0.325,0,0.404
			c0.031,0.059,0.339-0.051,0.386,0c0.066,0.068-0.056,0.325,0,0.403c0.048,0.067,0.329-0.061,0.387,0
			c0.054,0.057-0.062,0.361,0,0.404c0.064,0.045,0.342-0.062,0.386,0c0.103,0.144-0.128,0.699,0,0.809
			c0.065,0.056,0.336-0.066,0.387,0c0.059,0.077-0.066,0.335,0,0.404c0.054,0.057,0.345-0.064,0.386,0
			c0.056,0.088-0.064,0.324,0,0.404c0.055,0.068,0.326-0.064,0.387,0c0.128,0.135-0.129,0.674,0,0.808
			c0.054,0.057,0.345-0.064,0.386,0c0.06,0.094-0.059,0.311,0,0.404c0.139,0.225,0.363-0.063,0.387,0.404
			c0.003,0.07-0.04,0.353,0,0.404c0.052,0.068,0.327-0.063,0.386,0c0.054,0.057-0.062,0.361,0,0.404c0.084,0.059,0.31-0.067,0.387,0
			c0.12,0.105,0.004,0.563,0.386,0.404c0.064,0.39-0.08,0.826,0,1.212c0.055,0.264,0.266,0.517,0.387,0.809
			c0.033,0.08-0.057,0.345,0,0.404c0.054,0.057,0.345-0.064,0.386,0c0.061,0.094-0.058,0.31,0,0.404
			c0.139,0.224,0.363-0.063,0.387,0.404c0.017,0.33,0.366,0.404,0.387,0.808c0.004,0.074-0.04,0.349,0,0.404
			c0.048,0.067,0.329-0.061,0.387,0c0.054,0.057-0.063,0.361,0,0.404c0.061,0.043,0.346-0.06,0.386,0c0.099,0.146-0.126,0.7,0,0.809
			c0.072,0.062,0.324-0.069,0.387,0c0.063,0.069-0.064,0.336,0,0.404c0.05,0.052,0.353-0.062,0.387,0
			c0.082,0.147-0.121,0.705,0,0.809c0.045,0.038,0.363-0.051,0.387,0c0.066,0.146-0.113,0.712,0,0.808
			c0.048,0.041,0.359-0.053,0.386,0c0.151,0.306,0.25,0.452,0.387,0.809c0.055,0.144-0.106,0.717,0,0.809
			c0.051,0.043,0.356-0.057,0.387,0c0.079,0.147-0.119,0.706,0,0.808c0.057,0.049,0.349-0.061,0.387,0
			c0.16,0.26,0.208,0.536,0.386,0.809c0.053,0.081-0.064,0.337,0,0.404c0.055,0.057,0.346-0.064,0.387,0
			c0.056,0.088-0.064,0.324,0,0.404c0.055,0.068,0.325-0.063,0.387,0c0.063,0.065-0.046,0.322,0,0.404
			c0.12,0.217,0.363-0.057,0.386,0.404c0.006,0.099-0.04,0.315,0,0.404c0.089,0.195,0.364-0.039,0.387,0.403
			c0.005,0.098-0.04,0.318,0,0.404c0.095,0.2,0.364-0.043,0.387,0.404c0.005,0.1-0.04,0.315,0,0.404
			c0.089,0.195,0.364-0.039,0.387,0.404c0.006,0.13-0.081,0.724,0,0.809c0.054,0.057,0.345-0.065,0.386,0
			c0.061,0.093-0.058,0.31,0,0.403c0.139,0.225,0.363-0.063,0.387,0.404c0.017,0.331,0.366,0.404,0.387,0.809
			c0.005,0.092-0.041,0.325,0,0.404c0.03,0.059,0.339-0.05,0.387,0c0.062,0.064-0.045,0.322,0,0.404c0.032,0.06,0.337-0.052,0.386,0
			c0.055,0.057-0.062,0.361,0,0.404c0.064,0.044,0.343-0.062,0.387,0c0.103,0.144-0.128,0.698,0,0.808
			c0.047,0.04,0.362-0.051,0.387,0c0.069,0.147-0.114,0.711,0,0.809c0.032,0.028,0.377-0.034,0.387,0
			c0.085,0.328-0.152,0.916,0,1.213c0.029,0.058,0.339-0.05,0.386,0c0.055,0.057-0.062,0.36,0,0.404
			c0.064,0.044,0.343-0.062,0.387,0c0.103,0.143-0.128,0.698,0,0.808c0.057,0.049,0.349-0.061,0.387,0
			c0.091,0.147-0.124,0.702,0,0.809c0.071,0.062,0.323-0.068,0.386,0c0.131,0.143-0.003,0.536,0.387,0.404
			c-0.153-0.43,0.258-0.27,0.387-0.404c0.064-0.067-0.064-0.337,0-0.404s0.322,0.067,0.387,0s-0.064-0.337,0-0.404
			s0.321,0.067,0.386,0s-0.064-0.337,0-0.404c0.059-0.061,0.338,0.067,0.387,0c0.121-0.164-0.08-0.613,0-0.808
			c0.021-0.051,0.346,0.042,0.387,0c0.063-0.066-0.049-0.323,0-0.404c0.037-0.063,0.335,0.054,0.387,0
			c0.129-0.135-0.129-0.674,0-0.809c0.048-0.05,0.354,0.06,0.386,0c0.11-0.207-0.09-0.589,0-0.809c0.021-0.051,0.346,0.043,0.387,0
			c0.129-0.135-0.129-0.673,0-0.808c0.041-0.043,0.366,0.051,0.387,0c0.098-0.239-0.17-1.035,0-1.213
			c0.04-0.042,0.365,0.051,0.387,0c0.093-0.228-0.095-0.582,0-0.809c0.076-0.184,0.364,0.03,0.386-0.404
			c0.011-0.211-0.076-1.614,0-2.425c0.031-0.325,0.434-0.405,0.387-0.808c-0.008-0.064,0.04-0.362,0-0.404
			c-0.019-0.02-0.387,0.014-0.387,0c0.023-1.195-0.269-2.465,0.387-3.638c-0.424,0.016-0.24-0.529-0.387-0.809
			c-0.046-0.087-0.581-0.033-0.386-0.404c-0.329,0.074-0.365-0.157-0.387-0.404c0-3.771,0-7.544,0-11.316
			c-0.153-0.43,0.258-0.27,0.387-0.404c0.063-0.067-0.064-0.337,0-0.404c0.063-0.065,0.327,0.068,0.386,0
			c0.063-0.071-0.065-0.335,0-0.403c0.055-0.057,0.346,0.064,0.387,0c0.104-0.165-0.13-0.673,0-0.809
			c0.064-0.067,0.322,0.067,0.387,0s-0.064-0.337,0-0.404c0.063-0.065,0.327,0.068,0.386,0c0.063-0.072-0.065-0.336,0-0.404
			c0.055-0.057,0.346,0.064,0.387,0c0.044-0.069-0.06-0.355,0-0.404c0.154-0.126,0.589,0.083,0.773,0
			c0.048-0.021-0.041-0.361,0-0.404c0.06-0.063,0.309,0.042,0.386,0c0.271-0.146,0.479-0.235,0.773-0.404
			c0.252-0.144,0.511-0.227,0.772-0.403c0.215-0.146-0.06-0.38,0.387-0.404c0.413-0.023,1.171,0.168,1.546,0
			c0.167-0.075-0.005-0.355,0.387-0.404c0.24-0.03,0.939-0.099,1.159,0c0.173,0.077-0.025,0.379,0.387,0.404
			c0.262,0.016,0.921,0.106,1.159,0c0.159-0.071-0.043-0.478,0.387-0.404c0.027,0.005-0.026,0.377,0,0.404
			c0.155,0.162,0.94-0.076,1.159,0c0.136,0.047,0.003,0.383,0.387,0.404c0.124,0.007,0.692-0.085,0.772,0
			c0.041,0.042-0.049,0.382,0,0.403c0.544,0.244,1.364-0.185,1.933,0c-0.153,0.43,0.257,0.27,0.386,0.404
			c0.064,0.067-0.064,0.337,0,0.404c0.129,0.135,0.645-0.135,0.773,0c0.04,0.043-0.049,0.383,0,0.404
			c0.229,0.103,0.99-0.177,1.159,0c0.041,0.043-0.049,0.383,0,0.404c0.229,0.103,0.99-0.178,1.159,0
			c0.064,0.067-0.064,0.337,0,0.404s0.322-0.067,0.387,0c0.045,0.047-0.054,0.376,0,0.404c0.207,0.108,0.56-0.096,0.772,0
			c0.049,0.021-0.04,0.361,0,0.404c0.17,0.177,0.931-0.104,1.16,0c0.048,0.021-0.041,0.361,0,0.403c0.062,0.064,0.308-0.045,0.386,0
			c0.058,0.033-0.048,0.354,0,0.404c0.064,0.067,0.322-0.067,0.387,0s-0.064,0.337,0,0.404c0.129,0.135,0.645-0.135,0.773,0
			c0.04,0.043-0.049,0.383,0,0.404c0.217,0.098,0.546-0.075,0.772,0c-0.188,0.426,0.304,0.274,0.387,0.404
			c0.188,0.295-0.115,0.859,0.387,0.809c0.328-0.075,0.364,0.157,0.386,0.403c0.387,0,0.773,0,1.159,0
			c0.411,0.16,0.258-0.269,0.387-0.403c0.064-0.067,0.322,0.067,0.387,0c0.063-0.066-0.065-0.343,0-0.404
			c0.068-0.065,0.321,0.068,0.387,0c0.054-0.057-0.063-0.361,0-0.404c0.067-0.048,0.337,0.063,0.386,0
			c0.06-0.076-0.065-0.336,0-0.404c0.055-0.057,0.346,0.064,0.387,0c0.061-0.094-0.053-0.305,0-0.404
			c0.153-0.288,0.227-0.487,0.387-0.809c0.041-0.081-0.061-0.341,0-0.403c0.04-0.043,0.365,0.051,0.387,0
			c0.093-0.228-0.095-0.582,0-0.809c0.076-0.185,0.364,0.029,0.386-0.404c0.008-0.152-0.099-1.128,0-1.213
			c0.033-0.027,0.378,0.035,0.387,0c0.097-0.372-0.113-0.846,0-1.212c0.013-0.042,0.353,0.035,0.387,0
			c0.155-0.162-0.073-0.984,0-1.213c0.045-0.142,0.366-0.004,0.387-0.404c0.007-0.152-0.099-1.128,0-1.212
			c0.032-0.028,0.377,0.034,0.386,0c0.098-0.372-0.114-0.847,0-1.213c0.044-0.139,0.367-0.007,0.387-0.404
			c0.006-0.107-0.038-0.305,0-0.404c0.119-0.313,0.257-0.451,0.387-0.808c0.052-0.144-0.104-0.72,0-0.809
			c0.045-0.039,0.363,0.05,0.386,0c0.067-0.146-0.112-0.712,0-0.809c0.036-0.031,0.374,0.039,0.387,0
			c0.154-0.486-0.125-1.12,0-1.616c0.026-0.103,0.368-0.035,0.387-0.404c0.006-0.118-0.033-0.292,0-0.404
			c0.088-0.298,0.259-0.476,0.387-0.809c0.055-0.144-0.106-0.717,0-0.809c0.035-0.03,0.374,0.039,0.386,0
			c0.113-0.366-0.097-0.84,0-1.212c0.028-0.108,0.368-0.03,0.387-0.404c0.006-0.116-0.033-0.294,0-0.404
			c0.092-0.3,0.259-0.473,0.387-0.809c0.055-0.144-0.106-0.717,0-0.808c0.036-0.031,0.373,0.04,0.387,0
			c0.073-0.229-0.156-1.05,0-1.213c0.029-0.03,0.378,0.035,0.386,0c0.082-0.364-0.125-0.863,0-1.213
			c0.059-0.161,0.366,0.012,0.387-0.403c0.005-0.1-0.04-0.316,0-0.404c0.089-0.195,0.364,0.039,0.387-0.404
			c0.008-0.152-0.099-1.128,0-1.213c0.057-0.048,0.349,0.062,0.387,0c0.05-0.081-0.064-0.337,0-0.404
			c0.054-0.057,0.345,0.065,0.386,0c0.137-0.213-0.183-1.056,0-1.212c0.033-0.028,0.378,0.034,0.387,0
			c-0.033,0.125,0.239-2.579,0-2.829c-0.025-0.026-0.382,0.027-0.387,0c-0.061-0.401,0.319-2.092,0-2.425
			c-0.054-0.057-0.345,0.064-0.386,0c-0.105-0.164,0.13-0.673,0-0.809c-0.032-0.033-0.377,0.038-0.387,0
			c-0.075-0.283,0.344-2.131,0-2.425c-0.037-0.032-0.373,0.04-0.387,0c-0.08-0.242,0.072-0.564,0-0.809
			c-0.099-0.334-0.315-0.408-0.387-0.809c-0.104-0.589,0.224-1.476,0-2.021c-0.068-0.169-0.329-0.009-0.386-0.404
			c-0.076-0.527,0.076-1.09,0-1.617c-0.103-0.704-0.3-0.875-0.387-1.616c-0.078-0.662,0.091-1.36,0-2.021
			c-0.003-0.018-0.371-0.101-0.387-0.404c-0.018-0.358,0.288-2.124,0-2.425c-0.024-0.025-0.383,0.025-0.387,0
			c-0.139-1.109,0.174-2.42,0-3.638c-0.046-0.324-0.317-0.424-0.386-0.809c-0.046-0.253,0.069-0.562,0-0.809
			c-0.012-0.039-0.354,0.034-0.387,0c-0.193-0.202,0.154-0.97,0-1.212c-0.329,0.074-0.364-0.158-0.387-0.404
			c0.071-0.344-0.15-0.382-0.387-0.404c-0.406,0.197-0.262-0.317-0.386-0.404c-0.268-0.187-0.868,0.149-1.159,0
			c0.07-0.344-0.151-0.381-0.387-0.404c-0.329,0.074-0.364-0.157-0.387-0.404c0.37-0.317-0.481-2.013,0-2.425
			c0.037-0.031,0.373,0.041,0.387,0c0.101-0.304,0.256-0.467,0.387-0.809c0.055-0.144-0.106-0.717,0-0.808
			c0.032-0.028,0.377,0.034,0.386,0c0.327-1.258,0.51-2.414,0.387-4.446c0.071-0.344-0.15-0.381-0.387-0.404
			c-0.338-0.117-0.833,0.146-1.159,0c-0.059-0.026-0.051-0.624-0.387-0.404c-0.788-0.118-0.758-1.093-1.546-1.212l-0.064-1.146
			l-1.095-0.067c0.097-0.146-0.126-0.7,0-0.808c0.037-0.032,0.373,0.04,0.387,0c0.076-0.23-0.157-1.049,0-1.213
			c0.041-0.043,0.365,0.051,0.387,0c0.187-0.455-0.187-1.161,0-1.617c0.021-0.051,0.346,0.043,0.386,0
			c0.129-0.134-0.129-0.673,0-0.808c0.041-0.043,0.366,0.051,0.387,0c0.087-0.211-0.03-0.579,0-0.809
			c0.346-2.591-0.312-5.841,0-8.892c0.007-0.063-0.039-0.363,0-0.404c0.041-0.042,0.366,0.051,0.387,0
			c0.3-0.731-0.038-2.32-0.387-2.829c0.188-0.426-0.304-0.274-0.387-0.404c-0.056-0.088,0.064-0.324,0-0.404
			c-0.055-0.068-0.325,0.064-0.386,0c-0.063-0.066,0.048-0.322,0-0.404c-0.158-0.268-0.213-0.522-0.387-0.808
			c-0.05-0.082,0.063-0.338,0-0.404c-0.052-0.055-0.349,0.063-0.387,0c-0.16-0.268-0.212-0.521-0.387-0.809
			c-0.049-0.081,0.064-0.337,0-0.404c-0.05-0.053-0.352,0.062-0.386,0c-0.047-0.081,0.063-0.339,0-0.404
			c-0.041-0.042-0.366,0.051-0.387,0c-0.087-0.212,0.115-0.614,0-0.808c-0.133-0.223-0.363,0.061-0.387-0.404
			c-0.004-0.092,0.041-0.326,0-0.404c-0.03-0.059-0.339,0.05-0.386,0c-0.064-0.067,0.051-0.323,0-0.404
			c-0.042-0.064-0.333,0.057-0.387,0c-0.129-0.135,0.129-0.674,0-0.809c-0.054-0.056-0.347,0.064-0.387,0
			c-0.091-0.146,0.124-0.702,0-0.808c-0.071-0.062-0.323,0.068-0.387,0c-0.063-0.07,0.065-0.337,0-0.404
			c-0.055-0.058-0.344,0.064-0.386,0c-0.053-0.081,0.064-0.337,0-0.404c-0.041-0.043-0.366,0.051-0.387,0
			c-0.072-0.176,0.119-0.673,0-0.809c-0.061-0.068-0.323,0.065-0.387,0c-0.054-0.057,0.062-0.361,0-0.404
			c-0.077-0.054-0.322,0.067-0.387,0s0.064-0.337,0-0.404c-0.054-0.057-0.345,0.065-0.386,0c-0.04-0.063,0.056-0.363,0-0.404
			c-0.14-0.1-0.67,0.132-0.773,0c-0.037-0.047,0.048-0.38,0-0.403c-0.14-0.07-0.681,0.117-0.772,0c-0.053-0.067,0.063-0.353,0-0.404
			c-0.074-0.062-0.321,0.068-0.387,0c-0.054-0.057,0.062-0.361,0-0.404c-0.09-0.063-0.296,0.061-0.387,0
			c-0.214-0.146,0.061-0.38-0.386-0.404c-0.057-0.003-0.351,0.038-0.387,0c-0.121-0.127,0.13-0.696,0-0.809
			c-0.057-0.048-0.349,0.062-0.387,0c-0.05-0.081,0.064-0.337,0-0.404c-0.129-0.135-0.518,0.003-0.387-0.403
			c-0.073-0.328-0.388-0.403-0.386-0.809c0.09-0.656-0.119-1.371,0-2.021c0.005-0.03,0.359,0.028,0.386,0
			c0.193-0.201-0.154-0.97,0-1.212c-1.315-0.433-2.27,0.599-3.478,0c-0.052-0.026,0.043-0.359,0-0.404
			c-0.055-0.057-0.346,0.064-0.387,0c-0.03-0.048,0.044-0.382,0-0.404c-0.267-0.133-0.487-0.238-0.772-0.404
			c-0.079-0.046-0.325,0.064-0.387,0c-0.055-0.057,0.062-0.361,0-0.404c-0.086-0.06-0.308,0.066-0.387,0
			c-0.064-0.055,0.06-0.342,0-0.404c-0.054-0.057-0.345,0.064-0.387,0c-0.051-0.081,0.064-0.337,0-0.404s-0.321,0.067-0.386,0
			c-0.129-0.135,0.002-0.542-0.387-0.404c0-0.27,0-0.539,0-0.809c-0.827,0.167-0.14-2.692-0.387-3.637
			c-0.028-0.108-0.367-0.03-0.387-0.404c-0.006-0.122,0.03-0.287,0-0.404c-0.026-0.104-0.367-0.033-0.386-0.404
			c-0.006-0.107,0.037-0.305,0-0.404c-0.122-0.319-0.268-0.439-0.387-0.809c-0.046-0.14,0.101-0.722,0-0.808
			c-0.037-0.032-0.373,0.041-0.387,0c-0.079-0.241,0.062-0.561,0-0.809c-0.41,0.16-0.258-0.27-0.387-0.404
			c-0.063-0.067-0.321,0.067-0.386,0c-0.056-0.058,0.063-0.358,0-0.404c-0.14-0.102-0.67,0.132-0.773,0
			c-0.047-0.06,0.059-0.364,0-0.404c-0.077-0.053-0.322,0.067-0.386,0c-0.055-0.057,0.062-0.361,0-0.404
			c-0.157-0.109-0.644,0.136-0.773,0c-0.129-0.135,0.003-0.542-0.387-0.404c0.065-0.876-1.37-0.183-1.932-0.404
			c0.071-0.344-0.151-0.381-0.387-0.404c-0.407,0.197-0.263-0.318-0.387-0.404c-0.084-0.058-0.31,0.067-0.387,0
			c-0.064-0.057,0.062-0.34,0-0.404c-0.128-0.135-0.644,0.135-0.772,0c-0.054-0.057,0.062-0.361,0-0.404
			c-0.084-0.059-0.311,0.067-0.387,0c-0.12-0.106-0.004-0.563-0.386-0.404c0.015-0.443-0.506-0.251-0.773-0.404
			c-0.057-0.032,0.048-0.354,0-0.404c-0.065-0.069-0.313,0.062-0.387,0c-0.064-0.056,0.061-0.341,0-0.404
			c-0.064-0.067-0.321,0.067-0.386,0s0.064-0.337,0-0.404c-0.058-0.06-0.34,0.067-0.387,0c-0.056-0.079,0.065-0.335,0-0.404
			c-0.055-0.056-0.346,0.065-0.387,0c-0.104-0.164,0.131-0.672,0-0.808c-0.031-0.033-0.376,0.039-0.387,0
			c-0.101-0.38-0.279-2.147,0-2.829c0.021-0.051,0.347,0.042,0.387,0c0.065-0.068-0.055-0.325,0-0.404
			c0.046-0.066,0.33,0.059,0.387,0c0.064-0.067-0.064-0.337,0-0.404s0.322,0.067,0.387,0c0.065-0.068-0.063-0.331,0-0.404
			c0.058-0.068,0.324,0.065,0.386,0c0.064-0.067-0.064-0.337,0-0.404s0.322,0.067,0.387,0s-0.064-0.337,0-0.404s0.322,0.067,0.387,0
			s-0.064-0.337,0-0.404c0.064-0.067,0.322,0.067,0.387,0c0.064-0.068-0.063-0.333,0-0.404c0.061-0.068,0.322,0.066,0.386,0
			c0.064-0.067-0.064-0.337,0-0.404s0.322,0.067,0.387,0s-0.064-0.337,0-0.404s0.322,0.067,0.387,0s-0.064-0.337,0-0.404
			c0.064-0.067,0.322,0.067,0.386,0c0.066-0.069-0.062-0.332,0-0.404c0.059-0.068,0.325,0.065,0.387,0
			c0.064-0.067-0.064-0.337,0-0.404s0.322,0.067,0.387,0c0.129-0.135-0.129-0.673,0-0.808c0.064-0.067,0.322,0.067,0.387,0
			s-0.064-0.337,0-0.404c0.053-0.056,0.347,0.064,0.386,0c0.117-0.189-0.085-0.599,0-0.809c0.021-0.051,0.347,0.042,0.387,0
			c0.129-0.135-0.129-0.673,0-0.808c0.041-0.042,0.366,0.051,0.387,0c0.092-0.224-0.104-0.591,0-0.809
			c0.026-0.056,0.342,0.047,0.387,0c0.129-0.134-0.129-0.673,0-0.808c0.048-0.05,0.354,0.06,0.386,0
			c0.079-0.148-0.118-0.707,0-0.808c0.039-0.033,0.372,0.042,0.387,0c0.126-0.361-0.262-1.797,0-2.021
			c0.035-0.03,0.375,0.038,0.387,0c0.042-0.139-0.099-0.724,0-0.809c0.037-0.032,0.373,0.041,0.387,0
			c-0.095,0.286,0.269-4.165,0-4.446c-0.022-0.022-0.386,0.021-0.387,0c-0.017-0.242,0.331-0.496,0.387-0.808
			c0.04-0.227,0.026-0.579,0-0.809c-0.06-0.504-0.22-0.141-0.387-0.404c-0.188-0.295,0.115-0.859-0.387-0.809l-1.481-0.741
			l-1.224,1.145c-0.329,0.074-0.364-0.158-0.387-0.404c0.071-0.344-0.15-0.381-0.387-0.404c0.119-0.418-0.213-0.283-0.386-0.404
			c-0.195-0.136-0.468,0.003-0.387-0.404l0.677-0.404l-0.677-0.404c0.17-0.241-0.279-0.516-0.387-0.404
			c-0.064,0.067,0.052,0.323,0,0.404l-0.772,0.404l0.772,0.404c-0.015,0.315-0.461,0.418-0.386,0.808
			c-0.001-0.005,0.617,0.105,0.386,0.404l-0.966,0.606l-0.58,1.01c-0.967,0.068-1.209-0.621-1.546-1.212
			c-0.931,0.166-0.84-0.738-1.932-0.404c-0.006-0.134,0.007-0.27,0-0.404c-0.018-0.339-0.083-0.385-0.387-0.404
			c0.332-1.075-0.728-0.72-0.772-1.617c-0.007-0.13,0.08-0.724,0-0.809c-0.064-0.067-0.322,0.067-0.387,0s0.064-0.336,0-0.404
			c-0.063-0.066-0.327,0.068-0.387,0c-0.063-0.072,0.065-0.336,0-0.404c-0.129-0.135-0.518,0.002-0.387-0.404
			c-0.313-0.077-0.385-0.405-0.772-0.404c-0.169,0.498-0.494,0.829-1.159,0.809c-0.317-0.01-0.623-0.578-1.16-0.404
			c0-0.27,0-0.539,0-0.808c-0.795-0.111-0.363-1.506-1.159-1.617c0.071,0.336-0.15,0.391-0.386,0.404
			c-0.129,0.007-0.259-0.005-0.387,0l-0.773-0.909l-0.772,0.909c-0.424,0.016-0.24-0.529-0.387-0.808
			c-0.03-0.059-0.339,0.05-0.387,0c-0.064-0.067,0.064-0.337,0-0.404s-0.321,0.067-0.386,0c-0.041-0.042,0.048-0.382,0-0.404
			c-0.218-0.098-0.546,0.075-0.773,0l0.193-1.415L424,189.479c-0.097-0.146,0.126-0.7,0-0.808c-0.077-0.066-0.299,0.053-0.386,0
			c0.074-0.328,0.386-0.403,0.386-0.809c0-0.327-0.446-0.403-0.386-0.808c0.07-0.336-0.15-0.391-0.387-0.404
			c-0.128-0.007-0.258,0.006-0.386,0c0,0.539,0,1.078,0,1.617l-0.966-0.202l-0.966-0.202c-0.355,0.082-0.33-0.167-0.386-0.404
			c-0.064-0.267,0.184-1.459,0-1.617c-0.033-0.028-0.377,0.035-0.387,0c-0.062-0.238,0.092-0.583,0-0.809
			c-0.021-0.051-0.346,0.042-0.386,0c-0.221-0.231,0.108-1.292,0-1.617c-0.015-0.044-0.351,0.038-0.387,0
			c-0.155-0.162,0.073-0.984,0-1.212c-0.045-0.142-0.366-0.004-0.386-0.404c-0.005-0.099,0.04-0.316,0-0.404
			c-0.09-0.197-0.364,0.04-0.386-0.404c-0.021-0.413-0.018-0.788-0.387-0.809c-0.128-0.007-0.258,0.006-0.386,0
			c-0.313,0.077-0.385,0.406-0.773,0.404l-0.966-1.01l-0.966,1.01c-0.321,0.074-0.374-0.157-0.386-0.404
			c-0.047-0.93-0.289-3.341,0-4.85c0.006-0.032,0.359,0.028,0.386,0c0.277-0.29-0.024-3.034,0-4.042
			c0.046-1.885-0.034-3.773,0-5.658c-0.313-0.077-0.385-0.405-0.773-0.404l-0.889-0.606l-1.043,0.202
			c0.076-0.523-0.099-1.099,0-1.617c0.006-0.032,0.359,0.028,0.387,0c0.242-0.253-0.318-2.092,0-2.425
			c0.027-0.028,0.38,0.032,0.386,0c0.099-0.518-0.076-1.094,0-1.617c0.329,0.075,0.365-0.158,0.386-0.404
			c-0.139-0.102-0.669,0.132-0.772,0c-0.063-0.081,0.05-0.313,0-0.404c-0.313,0.077-0.386,0.405-0.773,0.404l-1.216-0.939
			l-1.489-0.273c0.032-0.577,0.181-0.794,0.387-1.212c0.146-0.297,0.235-0.474,0.386-0.808c0.037-0.081-0.059-0.343,0-0.404
			c0.041-0.042,0.366,0.051,0.387,0c0.093-0.228-0.095-0.582,0-0.808c0.077-0.185,0.364,0.03,0.386-0.404
			c0.005-0.099-0.04-0.316,0-0.404c0.024-0.054,0.343,0.045,0.387,0c0.128-0.135-0.129-0.673,0-0.808
			c0.048-0.051,0.354,0.059,0.386,0c0.079-0.148-0.119-0.707,0-0.809c0.043-0.037,0.366,0.048,0.387,0
			c0.102-0.241-0.172-1.033,0-1.212c0.042-0.044,0.363,0.053,0.386,0c0.064-0.146-0.112-0.713,0-0.809
			c0.037-0.032,0.373,0.041,0.387,0c0.16-0.48-0.125-1.123,0-1.616c0.025-0.103,0.368-0.035,0.386-0.404
			c0.016-0.313-0.117-0.928,0-1.212c0.021-0.051,0.346,0.042,0.386,0c0.129-0.135-0.128-0.674,0-0.809
			c0.241-0.252,0.26,0.038,0.387-0.404c0.068-0.238-0.093-0.581,0-0.808c0.021-0.051,0.346,0.042,0.386,0
			c0.322-0.337-0.322-1.684,0-2.021c0.041-0.042,0.366,0.051,0.387,0c0.093-0.227-0.095-0.582,0-0.808
			c0.077-0.184,0.365,0.03,0.386-0.404c0.002-0.038-0.425-4.406,0-4.85c0.041-0.042,0.366,0.051,0.387,0
			c0.093-0.229-0.088-0.577,0-0.808c0.123-0.323,0.277-0.429,0.386-0.809c0.069-0.238-0.093-0.581,0-0.808
			c0.021-0.051,0.346,0.042,0.387,0c0.217-0.228-0.435-2.375,0-2.829c0.029-0.031,0.378,0.035,0.386,0
			c0.084-0.372-0.116-0.852,0-1.212c0.046-0.144,0.366-0.003,0.387-0.404c0.005-0.107-0.038-0.305,0-0.404
			c0.124-0.324,0.281-0.425,0.386-0.808c0.061-0.222-0.147-1.058,0-1.213c0.029-0.03,0.379,0.035,0.387,0
			c0.082-0.364-0.125-0.863,0-1.212c0.058-0.161,0.365,0.012,0.386-0.404c0.005-0.099-0.04-0.315,0-0.404
			c0.088-0.196,0.364,0.039,0.387-0.404c0.013-0.261-0.161-1.448,0-1.617c0.051-0.054,0.35,0.063,0.386,0
			c0.048-0.082-0.063-0.338,0-0.404c0.054-0.056,0.345,0.065,0.386,0c0.217-0.341-0.105-1.212,0-1.617
			c0.028-0.108,0.368-0.03,0.387-0.404c0.005-0.105-0.039-0.308,0-0.404c0.072-0.179,0.365,0.025,0.386-0.404
			c0.005-0.091-0.041-0.326,0-0.404c0.031-0.059,0.339,0.05,0.387,0c0.129-0.134-0.129-0.673,0-0.808c0.057-0.06,0.34,0.066,0.386,0
			c0.056-0.079-0.065-0.336,0-0.404c0.054-0.057,0.345,0.065,0.387,0c0.058-0.091-0.063-0.317,0-0.404
			c0.165-0.229,0.363,0.067,0.386-0.404c0.004-0.074-0.041-0.348,0-0.404c0.048-0.067,0.329,0.061,0.387,0
			c0.054-0.057-0.062-0.361,0-0.404c0.063-0.044,0.342,0.062,0.386,0c0.057-0.079-0.065-0.335,0-0.404
			c0.054-0.057,0.345,0.064,0.387,0c0.104-0.164-0.13-0.672,0-0.809c0.054-0.057,0.345,0.065,0.386,0
			c0.059-0.092-0.062-0.314,0-0.404c0.045-0.066,0.33,0.059,0.387,0c0.054-0.057-0.062-0.361,0-0.404
			c0.063-0.045,0.342,0.061,0.386,0c0.103-0.144-0.128-0.699,0-0.809c0.056-0.047,0.35,0.061,0.387,0
			c0.089-0.147-0.124-0.703,0-0.808c0.056-0.048,0.349,0.061,0.386,0c0.323-0.521,0.668-1.558,1.16-2.425
			c0.16-0.282,0.22-0.496,0.386-0.808c0.044-0.082-0.062-0.34,0-0.404c0.055-0.057,0.346,0.065,0.387,0
			c0.059-0.092-0.062-0.314,0-0.404c0.046-0.066,0.33,0.059,0.387,0c0.054-0.056-0.062-0.361,0-0.404
			c0.063-0.045,0.342,0.061,0.387,0c0.103-0.144-0.129-0.699,0-0.809c0.057-0.049,0.347,0.062,0.386,0
			c0.052-0.081-0.064-0.337,0-0.404c0.055-0.056,0.346,0.065,0.387,0c0.061-0.094-0.053-0.305,0-0.404
			c0.14-0.262,0.217-0.537,0.387-0.809c0.051-0.081-0.064-0.337,0-0.404c0.054-0.057,0.345,0.064,0.387,0
			c0.051-0.081-0.064-0.337,0-0.404c0.063-0.067,0.321,0.067,0.386,0c0.055-0.057-0.062-0.361,0-0.404
			c0.064-0.045,0.342,0.062,0.387,0c0.057-0.078-0.065-0.335,0-0.404c0.054-0.056,0.346,0.065,0.387,0
			c0.104-0.164-0.131-0.672,0-0.808c0.054-0.057,0.345,0.064,0.386,0c0.058-0.089-0.063-0.321,0-0.404
			c0.053-0.068,0.327,0.063,0.387,0c0.055-0.057-0.062-0.361,0-0.404c0.077-0.054,0.322,0.067,0.387,0s-0.064-0.336,0-0.404
			c0.054-0.057,0.345,0.064,0.387,0c0.055-0.087-0.064-0.327,0-0.404c0.057-0.068,0.324,0.064,0.386,0
			c0.055-0.057-0.062-0.361,0-0.404c0.078-0.054,0.322,0.067,0.387,0s-0.064-0.337,0-0.404c0.055-0.056,0.346,0.065,0.387,0
			c0.104-0.164-0.131-0.672,0-0.808c0.054-0.057,0.345,0.064,0.387,0c0.051-0.081-0.064-0.337,0-0.404s0.321,0.067,0.386,0
			c0.055-0.057-0.062-0.361,0-0.404c0.077-0.053,0.324,0.067,0.387,0c0.064-0.069-0.064-0.337,0-0.404
			c0.054-0.057,0.346,0.064,0.387,0c0.052-0.081-0.064-0.337,0-0.404s0.322,0.067,0.387,0c0.054-0.057-0.063-0.361,0-0.404
			c0.084-0.059,0.31,0.067,0.386,0c0.218-0.19-0.064-0.379,0.387-0.404c0.07-0.004,0.332,0.042,0.387,0
			c0.063-0.05-0.058-0.344,0-0.404c0.054-0.057,0.345,0.064,0.386,0c0.105-0.164-0.13-0.672,0-0.809
			c0.055-0.056,0.346,0.065,0.387,0c0.052-0.081-0.064-0.336,0-0.404s0.322,0.067,0.387,0c0.054-0.057-0.062-0.361,0-0.404
			c0.077-0.054,0.322,0.067,0.387,0s-0.064-0.337,0-0.404c0.054-0.057,0.345,0.065,0.386,0c0.052-0.081-0.064-0.337,0-0.404
			c0.064-0.067,0.322,0.067,0.387,0c0.055-0.056-0.062-0.361,0-0.404c0.081-0.057,0.315,0.067,0.387,0
			c0.065-0.062-0.063-0.339,0-0.404c0.054-0.057,0.345,0.064,0.387,0c0.042-0.067-0.059-0.358,0-0.404
			c0.137-0.107,0.668,0.134,0.772,0c0.055-0.07-0.064-0.347,0-0.404c0.072-0.063,0.32,0.068,0.387,0
			c0.054-0.057-0.062-0.361,0-0.404c0.077-0.054,0.322,0.067,0.387,0c0.063-0.067-0.064-0.337,0-0.404
			c0.054-0.057,0.345,0.065,0.386,0c0.048-0.074-0.063-0.347,0-0.404c0.07-0.064,0.321,0.069,0.387,0
			c0.054-0.057-0.062-0.361,0-0.404c0.077-0.054,0.322,0.067,0.387,0s-0.064-0.337,0-0.404c0.054-0.057,0.345,0.064,0.386,0
			c0.045-0.07-0.06-0.354,0-0.404c0.074-0.062,0.321,0.069,0.387,0c0.055-0.057-0.062-0.361,0-0.404
			c0.157-0.109,0.643,0.136,0.773,0c0.054-0.057-0.063-0.361,0-0.404c0.085-0.06,0.307,0.066,0.386,0
			c0.065-0.055-0.06-0.342,0-0.404c0.055-0.057,0.346,0.064,0.387,0c0.043-0.067-0.059-0.358,0-0.404
			c0.138-0.107,0.668,0.134,0.773,0c0.055-0.07-0.065-0.347,0-0.404c0.071-0.063,0.32,0.069,0.386,0
			c0.055-0.056-0.062-0.361,0-0.404c0.077-0.054,0.322,0.067,0.387,0s-0.064-0.337,0-0.404c0.054-0.057,0.346,0.064,0.387,0
			c0.044-0.068-0.06-0.356,0-0.404c0.074-0.06,0.32,0.069,0.387,0c0.054-0.057-0.063-0.361,0-0.404c0.156-0.11,0.643,0.136,0.772,0
			c0.054-0.057-0.062-0.361,0-0.404c0.088-0.062,0.301,0.064,0.387,0c0.063-0.047-0.057-0.345,0-0.404
			c0.054-0.057,0.345,0.064,0.386,0c0.043-0.067-0.059-0.358,0-0.404c0.138-0.107,0.669,0.134,0.773,0
			c0.05-0.063-0.062-0.358,0-0.404c0.076-0.057,0.321,0.068,0.387,0c0.054-0.057-0.063-0.361,0-0.404
			c0.156-0.109,0.643,0.136,0.772,0c0.055-0.057-0.062-0.361,0-0.404c0.088-0.062,0.301,0.064,0.387,0
			c0.063-0.047-0.057-0.345,0-0.404c0.054-0.056,0.345,0.065,0.387,0c0.042-0.066-0.059-0.358,0-0.404
			c0.137-0.108,0.668,0.134,0.772,0c0.047-0.06-0.059-0.364,0-0.404c0.141-0.097,0.671,0.13,0.773,0
			c0.046-0.059-0.059-0.365,0-0.404c0.265-0.18,0.476-0.227,0.772-0.404c0.543-0.323,1.094-0.507,1.546-0.808
			c0.061-0.041-0.053-0.349,0-0.404c0.054-0.057,0.345,0.065,0.387,0c0.042-0.067-0.059-0.358,0-0.404
			c0.137-0.108,0.668,0.134,0.772,0c0.044-0.056-0.056-0.37,0-0.404c0.078-0.049,0.324,0.065,0.387,0
			c0.054-0.057-0.062-0.361,0-0.404c0.364-0.254,1.235,0.288,1.159-0.404c0.407,0.197,0.263-0.317,0.387-0.404
			c0.089-0.063,0.296,0.061,0.387,0c0.214-0.145-0.061-0.38,0.386-0.404c0.069-0.004,0.334,0.042,0.387,0
			c0.064-0.052-0.059-0.343,0-0.404c0.054-0.057,0.346,0.064,0.387,0c0.051-0.081-0.064-0.337,0-0.404s0.322,0.067,0.386,0
			c0.129-0.134-0.002-0.541,0.387-0.404c0.14-0.102,0.67,0.132,0.773,0c0.03-0.039-0.039-0.39,0-0.404
			c0.229-0.083,0.543,0.085,0.772,0c0.043-0.016-0.036-0.367,0-0.404c0.18-0.188,0.926,0.125,1.159,0
			c0.055-0.029-0.045-0.356,0-0.404c0.064-0.067,0.322,0.067,0.387,0c0.064-0.067-0.064-0.336,0-0.404
			c0.063-0.066,0.309,0.051,0.387,0c0.06-0.039-0.052-0.35,0-0.404c0.258-0.27,1.288,0.27,1.546,0c0.054-0.057-0.063-0.361,0-0.404
			c0.156-0.109,0.643,0.136,0.772,0c0.051-0.052-0.059-0.368,0-0.404c0.078-0.049,0.324,0.065,0.387,0
			c0.041-0.042-0.049-0.383,0-0.404c0.229-0.103,0.99,0.177,1.159,0c0.064-0.067-0.064-0.337,0-0.404s0.322,0.067,0.387,0
			c0.054-0.057-0.062-0.361,0-0.404c0.177-0.123,0.575,0.089,0.772,0c0.049-0.021-0.04-0.361,0-0.404c0.17-0.177,0.931,0.103,1.16,0
			c0.048-0.022-0.041-0.362,0-0.404c0.169-0.177,0.93,0.103,1.159,0c0.048-0.022-0.041-0.362,0-0.404
			c0.169-0.177,0.931,0.103,1.159,0c0.049-0.021-0.041-0.362,0-0.404c0.258-0.269,1.288,0.27,1.546,0
			c0.036-0.038-0.044-0.387,0-0.404c0.074-0.028,0.333,0.056,0.387,0c0.04-0.042-0.049-0.382,0-0.404
			c0.229-0.103,0.989,0.177,1.159,0c0.04-0.042-0.049-0.382,0-0.404c0.219-0.098,0.549,0.085,0.772,0
			c0.666-0.253,1.367-1,2.319-0.808c-0.071-0.344,0.15-0.381,0.386-0.404c0.333-1.074-0.728-0.72-0.772-1.617
			c-0.005-0.09,0.041-0.327,0-0.404c-0.031-0.059-0.338,0.051-0.387,0c-0.129-0.135,0.129-0.673,0-0.808
			c-0.048-0.05-0.354,0.06-0.387,0c-0.078-0.148,0.119-0.707,0-0.809c-0.051-0.044-0.355,0.057-0.386,0
			c-0.045-0.082,0.062-0.339,0-0.404c-0.041-0.042-0.366,0.051-0.387,0c-0.093-0.228,0.095-0.582,0-0.809
			c-0.077-0.184-0.364,0.03-0.387-0.404c-0.005-0.094,0.041-0.321,0-0.404c-0.027-0.057-0.34,0.048-0.386,0
			c-0.055-0.057,0.062-0.361,0-0.404c-0.046-0.032-0.366,0.046-0.387,0c-0.149-0.33,0.151-0.885,0-1.212
			c-0.025-0.055-0.343,0.046-0.387,0c-0.064-0.067,0.064-0.337,0-0.404s-0.322,0.067-0.387,0c-0.181-0.189,0.195-1.045,0-1.212
			c-0.038-0.033-0.371,0.043-0.386,0c-0.127-0.354,0.095-0.848,0-1.212c-0.028-0.108-0.368-0.03-0.387-0.404
			c-0.006-0.109,0.037-0.304,0-0.404c-0.018-0.047-0.349,0.04-0.387,0c-0.155-0.162,0.073-0.984,0-1.212
			c-0.045-0.142-0.366-0.004-0.387-0.404c-0.028-0.562-0.175-0.814-0.386-1.212c-0.044-0.082,0.062-0.34,0-0.404
			c-0.241-0.251-0.26,0.038-0.387-0.404c-0.064-0.224,0.149-1.056,0-1.213c-0.029-0.03-0.379,0.035-0.387,0
			c-0.097-0.43,0.343-2.066,0-2.425c-0.042-0.044-0.363,0.053-0.387,0c-0.064-0.146,0.112-0.713,0-0.808
			c-0.03-0.027-0.378,0.032-0.386,0c-0.119-0.509,0.114-1.107,0-1.617c-0.074-0.328-0.302-0.423-0.387-0.809
			c-0.084-0.381,0.099-0.836,0-1.212c-0.028-0.108-0.367-0.03-0.387-0.404c-0.032-0.645,0.313-3.456,0-4.85
			c-0.075-0.335-0.364-0.397-0.386-0.808c-0.09-1.688-0.14-3.727,0-5.254c0.011-0.118-0.077-0.742,0-0.808
			c0.032-0.028,0.377,0.035,0.386,0c0.099-0.377-0.092-0.834,0-1.212c0.081-0.335,0.315-0.409,0.387-0.809
			c0.046-0.255-0.172-1.47,0-1.617c0.033-0.028,0.377,0.035,0.387,0c0.09-0.345-0.24-1.815,0-2.021c0.037-0.032,0.373,0.041,0.386,0
			c0.08-0.242-0.069-0.563,0-0.809c0.035-0.123,0.367-0.019,0.387-0.404c0.006-0.107-0.038-0.305,0-0.404
			c0.124-0.323,0.279-0.428,0.387-0.809c0.101-0.355-0.139-0.874,0-1.212c0.021-0.051,0.346,0.042,0.387,0
			c0.053-0.056-0.027-0.327,0-0.404c0.053-0.155,0.365,0.006,0.386-0.404c0.008-0.152-0.099-1.128,0-1.213
			c0.038-0.032,0.372,0.042,0.387,0c0.049-0.142-0.103-0.72,0-0.808c0.037-0.032,0.373,0.041,0.387,0
			C473.626,22.885,473.345,22.245,473.467,21.75z M497.041,261.421c0,0.27,0,0.539,0,0.809c0.084,0.657-0.112,1.368,0,2.021
			c0.005,0.03,0.359-0.027,0.386,0c0.328,0.343-0.073,2.013,0,2.425c0.068,0.384,0.342,0.485,0.387,0.809
			c0.117,0.838,0.081,2.584,0,2.829c-0.014,0.041-0.35-0.031-0.387,0c-0.088,0.075,0.026,0.679,0,0.809
			c-0.006,0.032-0.358-0.029-0.386,0c-0.258,0.269,0.344,0.368,0.386,0.404c0.05,0.042,0.02,0.728,0,0.808
			c-0.135,0.565-0.603,0.691-0.772,1.213c-0.184,0.563,0.227,1.523-0.387,1.616c0,0.27,0,0.539,0,0.809
			c0.236,0.023,0.458,0.061,0.387,0.404c0.225-0.077,0.559,0.101,0.772,0c0.043-0.02-0.029-0.358,0-0.404
			c0.042-0.064,0.333,0.057,0.387,0c0.13-0.136-0.104-0.645,0-0.809c0.041-0.064,0.332,0.057,0.387,0
			c0.064-0.067-0.064-0.336,0-0.403s0.309,0.054,0.387,0c0.123-0.087-0.021-0.602,0.386-0.404c0.39,0.137,0.258-0.27,0.387-0.404
			s0.645,0.135,0.772,0c0.064-0.067-0.063-0.337,0-0.404c0.064-0.067,0.322,0.067,0.387,0c0.057-0.06-0.063-0.355,0-0.404
			c0.521-0.396,1.434-0.39,1.546-1.213c0.486-0.165,0.79-0.521,0.773-1.212c0.131-0.407-0.258-0.27-0.387-0.404
			c-0.064-0.067,0.064-0.337,0-0.404c-0.055-0.057-0.346,0.064-0.387,0c-0.117-0.185,0.085-0.602,0-0.809
			c-0.021-0.051-0.346,0.043-0.387,0c-0.063-0.065,0.048-0.322,0-0.403c-0.036-0.063-0.335,0.054-0.386,0
			c-0.129-0.135,0.129-0.674,0-0.809c-0.046-0.048-0.359,0.057-0.387,0c-0.104-0.213,0.075-0.581,0-0.809
			c-0.014-0.04-0.35,0.032-0.387,0c-0.112-0.097,0.066-0.661,0-0.809c-0.024-0.054-0.343,0.046-0.387,0
			c-0.128-0.135,0.129-0.673,0-0.808c-0.032-0.035-0.374,0.04-0.386,0c-0.141-0.484,0.173-1.146,0-1.617
			c-0.018-0.047-0.349,0.04-0.387,0c-0.129-0.135,0.129-0.674,0-0.809c-0.046-0.047-0.358,0.057-0.387,0
			c-0.104-0.212,0.075-0.581,0-0.808c-0.014-0.041-0.35,0.031-0.386,0c-0.127-0.108,0.097-0.663,0-0.809
			c-0.236-0.023-0.458-0.061-0.387-0.404c-0.258,0-0.516,0-0.773,0C497.405,261.264,497.369,261.495,497.041,261.421z"/>
		<path fill-rule="evenodd" clip-rule="evenodd" d="M354.438,269.1l-1.546,1.213c-0.321,0.074-0.374-0.157-0.386-0.404
			c-0.019-0.374,0.083-0.85,0-1.212c-0.008-0.035-0.357,0.03-0.387,0c-0.217-0.228,0.485-2.727,0-3.233
			c-0.041-0.043-0.366,0.051-0.386,0c-0.075-0.183-0.004-0.607,0-0.809c0-0.018,0.367,0.021,0.386,0
			c0.225-0.235-0.044-1.662,0-2.021c0.1-0.81,0.065-1.098,0.387-1.617c0.168-0.497,0.494-0.83,1.159-0.809
			c-0.071-0.336,0.15-0.391,0.387-0.404c0.385-0.021,0.773,0.018,1.159,0c0.313,0.077,0.385,0.406,0.773,0.404
			c0,0.27,0,0.539,0,0.809c0.321-0.074,0.374,0.157,0.386,0.404c0.006,0.116,0.071,0.734,0,0.809c-0.024,0.025-0.382-0.027-0.386,0
			c-0.074,0.527,0.057,1.086,0,1.616c0,0.27,0,0.539,0,0.809c0.407-0.197,0.262,0.317,0.386,0.404c0.046,0.031,0.366-0.046,0.387,0
			c0.149,0.33,0.141,1.996,0,2.829c-0.06,0.352-0.515,0.636-0.387,1.212H354.438z"/>
		<path fill-rule="evenodd" clip-rule="evenodd" d="M399.653,318.004c-0.2-0.209,0.279-0.516,0.386-0.404
			C400.239,317.81,399.76,318.116,399.653,318.004z"/>
		<g>
			<path fill-rule="evenodd" clip-rule="evenodd" fill="none" stroke="#000000" stroke-width="2.652" stroke-linecap="round" d="
				M638.713,320.007c-0.341-1.368-1.131-2.527-1.678-3.821"/>
			<path fill-rule="evenodd" clip-rule="evenodd" fill="none" stroke="#000000" stroke-width="2.4078" stroke-linecap="round" d="
				M629.66,330.196c-0.771-2.563-2.338-4.791-2.963-7.409"/>
			<path fill-rule="evenodd" clip-rule="evenodd" fill="none" stroke="#000000" stroke-width="1.85" stroke-linecap="round" d="
				M613.944,325.886c-0.226-2.573-1.723-4.77-2.318-7.275"/>
			<path fill-rule="evenodd" clip-rule="evenodd" fill="none" stroke="#000000" stroke-width="2.2585" stroke-linecap="round" d="
				M604.927,359.432c-0.357-1.201-0.587-2.444-0.976-3.638"/>
			<path fill-rule="evenodd" clip-rule="evenodd" fill="none" stroke="#000000" stroke-width="3.1712" stroke-linecap="round" d="
				M647.566,414.397c-0.172,0.03-0.388,0.125-0.58,0.202"/>
			<path fill-rule="evenodd" clip-rule="evenodd" fill="none" stroke="#000000" stroke-width="2.7258" stroke-linecap="round" d="
				M642.746,425.332c0.512-0.011,1.196-0.132,1.729-0.224"/>
			<path fill-rule="evenodd" clip-rule="evenodd" fill="none" stroke="#000000" stroke-width="2.2088" stroke-linecap="round" d="
				M471.728,456.835c0.129-0.135,0.258-0.269,0.387-0.403"/>
			<path fill-rule="evenodd" clip-rule="evenodd" fill="none" stroke="#000000" stroke-width="2.3507" stroke-linecap="round" d="
				M460.521,456.835c-0.234-0.245-0.409-0.427-0.58-0.605"/>
			<path fill-rule="evenodd" clip-rule="evenodd" fill="none" stroke="#000000" stroke-width="2.6116" stroke-linecap="round" d="
				M343.81,456.835c0.257-0.143,0.515-0.306,0.773-0.471"/>
			<path fill-rule="evenodd" clip-rule="evenodd" fill="none" stroke="#000000" stroke-width="3.5922" stroke-linecap="round" d="
				M354.824,271.121c-0.122-0.527-0.27-1.589-0.387-2.021"/>
			<path fill-rule="evenodd" clip-rule="evenodd" fill="none" stroke="#000000" stroke-width="1.5215" stroke-linecap="round" d="
				M466.041,276.23c0.248-0.175,0.514-0.376,0.791-0.597"/>
			<path fill-rule="evenodd" clip-rule="evenodd" fill="none" stroke="#000000" stroke-width="2.3152" stroke-linecap="round" d="
				M444.289,201.2c-0.169-1.058,0.055-2.107-0.129-3.166"/>
			<path fill-rule="evenodd" clip-rule="evenodd" fill="none" stroke="#000000" stroke-width="1.5738" stroke-linecap="round" d="
				M440.038,199.381c0.652,1.027,0.883,2.296,1.739,3.233"/>
			<path fill-rule="evenodd" clip-rule="evenodd" fill="none" stroke="#000000" stroke-width="1.4716" stroke-linecap="round" d="
				M427.929,192.51c-0.044-0.368-0.047-0.74-0.064-1.111"/>
			<path fill-rule="evenodd" clip-rule="evenodd" fill="none" stroke="#000000" stroke-width="1.2308" stroke-linecap="round" d="
				M425.353,189.277c-0.745,0.688-0.88,1.386-1.011,1.8c-0.533,0.227-1.052,0.235-1.699,0.312c-0.633-0.9-0.359-2.26-0.768-3.324"/>
			<path fill-rule="evenodd" clip-rule="evenodd" fill="none" stroke="#000000" stroke-width="1.5428" stroke-linecap="round" d="
				M415.563,184.023c0.354-1.405,0.314-2.963,0.515-4.446"/>
			<path fill-rule="evenodd" clip-rule="evenodd" fill="none" stroke="#000000" stroke-width="1.5698" stroke-linecap="round" d="
				M412.471,168.26c0.279-1.169,0.854-2.373,0.979-3.637"/>
			<path fill-rule="evenodd" clip-rule="evenodd" fill="none" stroke="#000000" stroke-width="2.4001" stroke-linecap="round" d="
				M405.952,162.925c1.784-1.499,3.745-2.961,4.852-5.102"/>
			<path fill-rule="evenodd" clip-rule="evenodd" fill="none" stroke="#000000" stroke-width="0.8045" stroke-linecap="round" d="
				M440.231,197.158c0.632,0,1.234,0,1.836,0"/>
		</g>
	</g>
</g>
</svg>
