<?xml version="1.0" encoding="utf-8"?>
<!-- Generator: Adobe Illustrator 14.0.0, SVG Export Plug-In . SVG Version: 6.00 Build 43363)  -->
<!DOCTYPE svg PUBLIC "-//W3C//DTD SVG 1.1//EN" "http://www.w3.org/Graphics/SVG/1.1/DTD/svg11.dtd">
<svg version="1.1" id="图层_1" xmlns="http://www.w3.org/2000/svg" xmlns:xlink="http://www.w3.org/1999/xlink" x="0px" y="0px"
	 width="1280px" height="720px" viewBox="0 0 1280 720" enable-background="new 0 0 1280 720" xml:space="preserve">
<g>
	<path fill="#6AABE8" d="M307.753,196.211l7.703,4.305l-11.328,11.781l-8.836-16.313l-11.555,13.82l-4.984,2.492l3.852-14.727
		l-16.766,9.742l-0.453-47.125l8.156,4.758l4.531,10.875l7.477-9.516l7.703,13.367l7.477-21.297l10.422,12.234l-12.688,15.406
		L307.753,196.211z M285.55,194.625l3.172-9.969l-12.234-5.211l-4.078,12.914L285.55,194.625z"/>
	<path fill="#6AABE8" d="M318.006,166.305l48.031-4.078l7.703,10.195l-21.977,1.359l-1.813,5.664l19.711,6.344l-8.156,11.781
		l-10.195-9.289l-4.531,24.695l-6.344-5.211l-2.492-31.945l-14.5-3.172L318.006,166.305z"/>
	<path fill="#6AABE8" d="M398.721,192.133l-13.594,16.313l-6.344,3.625l10.875-27.414l-8.836-2.719l-4.531-6.797l11.555-1.359
		l-6.344-13.367l15.18,3.398l-4.984,11.102l6.344-1.133l8.609-16.539l11.102,8.383l-7.023,7.023l20.844,3.625l-8.609,19.711
		l-3.398,16.766l-19.711-7.703l14.047-3.398l0.68-18.805l-9.516-2.492l-4.531,5.438l12.008,3.852l-6.797,10.875L398.721,192.133z"/>
	<path fill="#6AABE8" d="M442.958,196.664l-4.984,3.852l-3.625-11.328l9.969-2.719l-1.359-8.156l-7.477,6.344l2.492-21.75
		l5.664,8.156l1.586-13.367l5.438,3.398l1.359,9.063l4.078-0.68l0.68-2.719l8.836-1.813l3.625-7.25l4.531,2.039l2.492,4.984h8.383
		l2.719,5.891l-11.102,1.133l-1.813,5.211l12.688-0.68l2.492,6.57l-7.477,1.813l-1.813,3.852l8.156-0.227l-1.359,6.344l-5.211,2.266
		l-3.852,15.859l-12.461-6.117l8.609-3.398l-2.266-8.383l-7.25,1.359l4.758,5.438l-8.383,5.438l-1.359-10.875l-2.945,0.453
		l-2.266-4.984l-2.945,2.492l-2.492,14.273l-3.852,3.852L442.958,196.664z M452.021,178.992l-1.813,8.156l7.703-1.133l-2.492,3.625
		l17.898-2.266l-1.359-3.852l-15.18,1.133l-2.945-5.664l13.594-3.172l-1.133-2.719l-8.383-0.68l-1.359,2.492L452.021,178.992z"/>
	<path fill="#6AABE8" d="M498.75,171.742l-3.172-2.266l-3.398-5.211l18.805-4.078l4.305,7.93l-11.328,3.625l2.266,4.531l4.078-0.68
		l3.852,8.836l10.648-3.398l-1.133-4.758l-2.492,0.453l-7.023,4.305l2.945-19.938l4.758,8.836l3.625-1.813l-1.359-10.875
		l10.648,3.852l-1.586,8.383l8.156-3.172l3.172,8.156l-10.195,1.359l-2.039,6.344l12.234-2.039l3.172,8.383l-15.18,1.133
		l9.063,7.023l6.117,1.813l-6.797,10.422l-7.703-10.195l-2.039,11.555l-4.531,2.492l-2.492-14.273l-11.555,8.836l-3.852,0.906
		l12.461-17.898h-5.438l-2.492-1.359l-10.875,16.992l-8.609,6.344l4.984-16.992l-1.813-6.797l-4.758,0.453L498.75,171.742z
		 M502.602,182.164l-3.172,3.625l5.211,4.758l4.305-6.57L502.602,182.164z"/>
	<path fill="#6AABE8" d="M589.434,195.984l13.367-0.68l3.172,7.93H590.34l-2.492,7.023l-4.984,2.492l-2.945-10.195l-9.969,1.133
		l-2.492-2.492l-5.438,11.555l-10.422-9.742l8.836-1.133l0.227-8.836l-9.742,0.453l3.852-19.711l7.703,1.133l0.906-5.664
		l-10.422-0.453l-2.719-5.211l18.125-4.305l1.133,10.875l7.023-1.359l-5.664-11.102l13.82,5.211l-2.492,6.57h4.531l5.664-11.781
		l9.516,5.891l-7.477,4.531l10.648,1.813l-3.852,12.008l-1.586,9.516l-8.609,0.227L589.434,195.984z M567.457,197.344l14.047-2.492
		l-1.586-2.719h-8.609l-1.359-9.516l-2.266-3.625l-8.383,0.68l0.68,7.023l4.305-1.586l5.891,6.344L567.457,197.344z
		 M582.184,174.914h-6.797l1.133,4.078l5.211-0.906L582.184,174.914z M583.316,186.695v-3.172h-5.664l-0.453,4.758L583.316,186.695z
		 M588.754,173.781l-0.227,4.531l5.891-0.68l1.133-3.398L588.754,173.781z M589.434,182.617l-0.227,3.398l5.211,0.68l0.453-4.078
		H589.434z"/>
	<path fill="#6AABE8" d="M664.031,196.664l-5.438,8.836l-4.078-2.266l-3.398,7.703l-9.742-4.531l-4.079,5.891l-5.438-2.719
		l-1.586-7.93l-5.211-1.133l-0.68,6.797l-4.531,3.625L616,201.875l-3.625,1.359l-4.078,1.133l9.516-10.875l-6.797-1.813
		l-3.172-3.852l19.258-1.359l2.266-1.813l-13.141-1.133l-3.852-12.234l10.195-1.813l-1.359-1.359l-9.516-1.359l-3.172-3.852
		l11.555-1.359l4.758-4.305l6.117,4.305l8.609,0.227l3.172-4.984l5.891,1.586l1.813,3.172l12.234,0.906l-3.172,4.305l-9.516,0.453
		l-2.492,2.039l11.781,1.813l-4.758,12.234l-14.954,0.68l4.532,2.039l15.859,0.453l3.398,3.172l-13.367,2.719l6.344,2.492
		L664.031,196.664z M635.257,191.68l7.024,3.852h4.531l-7.93-5.211l-8.609,1.133l-8.383,4.758l5.664-0.68L635.257,191.68z
		 M623.703,181.031l22.43-0.68l-1.359-2.039l-20.391,0.68L623.703,181.031z M646.813,173.102l-22.883,1.133l0.906,1.359l21.75,0.227
		L646.813,173.102z M631.859,167.211l-3.172,3.398l13.594-1.133l-2.493-3.172L631.859,167.211z M639.562,205.047l7.25-1.133v-4.078
		h-5.891L639.562,205.047z"/>
	<path fill="#6AABE8" d="M675.417,212.75l-2.492-24.469L666.581,191l11.555-33.305l8.836,10.875l-9.742,12.461l5.211,3.625
		l11.555-26.734l6.117,9.969l14.273-5.438l7.477,8.836l-24.695,4.305l2.945,2.039l2.039,4.305l12.688-3.625l3.172,8.156
		l-15.18,2.039l-1.813,6.117l16.313-2.266l2.719,9.289l-16.539,0.227l-5.664,10.875l-4.531-5.664l-1.813-26.281l-8.609,7.477
		l-3.398,20.617L675.417,212.75z"/>
	<path fill="#6AABE8" d="M768.592,183.297l11.328,7.023l-6.797,21.297l-6.117-3.852l-12.008,1.133l-3.625-16.766l-2.719,16.992
		l-6.797-2.492l-11.555,3.172l-5.891-23.336l10.195,1.359l12.234-2.719l7.023,3.398l13.141-2.719l-6.797-4.305l-25.375,2.039
		l-5.211-21.07h13.594l31.492-3.172L768.592,183.297z M733.928,200.969l9.289-0.453l-0.68-7.703l-7.703,0.906L733.928,200.969z
		 M741.178,176.273l20.391-1.813l-1.813-7.25l-17.219,2.945L741.178,176.273z M759.529,201.648l9.516-1.586l-0.453-7.93
		l-9.516,2.039L759.529,201.648z"/>
</g>
<g>
	<path fill="#6AABE8" d="M244.39,260.442l-19.938,11.328l21.977-28.32h-14.727l-4.758-7.023l31.492-4.078l12.914,0.906l6.117,6.344
		l-21.75,5.664l6.57,4.531l-6.344,3.852l2.266,1.813l21.75,6.117l-8.836,10.875l-13.367-9.969l-3.852,15.859l-5.664,4.531
		L244.39,260.442z"/>
	<path fill="#6AABE8" d="M288.401,263.614l-3.172,3.172l-2.719-10.875l7.023-1.359l-1.586-7.023l-2.039-0.68l-3.172-6.117
		l5.211-2.492l4.758-10.422l3.398,10.422l4.984,1.813l-4.984,7.023l-1.133,8.383l3.172-0.68l6.797-26.961l8.156,7.25l-4.531,6.117
		l8.609-2.492l-3.852-11.328l13.367,4.531l-4.531,7.023l9.742-2.492l4.305,7.93l-12.008,1.359l1.133,4.531l5.891-1.813l3.172,7.023
		l-9.289,0.68l-0.453,4.305l7.25-1.359l2.266,6.344l-8.836,0.906l-1.359,4.758l10.422-1.133l3.625,8.609l-17.672-1.359
		l-10.875,1.133l-8.156,4.531v-26.055l-4.758,4.758l-3.172,20.844l-9.516-7.023l5.891-2.266L288.401,263.614z M315.588,246.849
		h-7.93l2.266,4.305l5.891-1.359L315.588,246.849z M309.924,262.255l5.891-2.266l-1.133-3.398l-5.891,0.906L309.924,262.255z
		 M316.948,271.091l-0.68-4.305l-6.797,0.906v4.984L316.948,271.091z"/>
	<path fill="#6AABE8" d="M396.076,249.114l-29.906,2.945l-5.664,3.398l25.602-2.039l7.703,7.25l-12.234,4.984l12.008,0.68
		l2.492,4.305l-13.82,2.039l-4.758,9.742l-16.539-5.211l11.555-2.719l-2.492-3.172h-12.008l-2.719,7.25l-4.305,4.305l-3.172-15.406
		l-7.023,2.492l12.688-16.539l-7.477-0.68l-5.211-5.211l15.859-1.586l2.492-1.586l-3.625-1.133l-1.813-2.492l-8.609-0.68
		l-3.852-5.211l13.367-2.266l3.852-4.531l6.57,5.211l8.156-0.906l2.492-4.984l6.57,2.492l2.266,3.852l11.555,0.227l-3.625,4.758
		l-8.609,2.039l-4.758,3.625l-3.852-1.133l-1.586-4.531h-8.156l-2.945,2.492l9.289,4.078h19.711L396.076,249.114z M364.357,261.122
		l-4.531-2.492l-4.984,3.625l2.492,1.359l-0.227,3.398l11.102-2.039L364.357,261.122z M382.256,258.63l-12.008,1.359l6.117,3.625
		L382.256,258.63z"/>
	<path fill="#6AABE8" d="M446.431,271.317l7.93,2.719l-9.516,8.383l-12.914-8.609l-13.594,6.57l-6.797,2.039l11.328-12.461
		l-10.195-3.172l-2.945,12.234l-3.852,3.852l-1.813-24.242l-5.438,2.945l9.742-34.211l6.797,8.836l12.234-1.813l3.398-6.57
		l4.984,2.039l2.945,3.398l13.141,0.453l2.492,5.891l-15.406,1.813l-1.813,2.945l16.313,0.227l-4.305,11.328l-2.039,8.383
		l-5.664-1.813l-3.172,0.453l-2.719,3.852L446.431,271.317z M417.204,260.669l-3.625-16.086l6.117,0.68h8.609l-0.906-3.398
		l-10.648-0.68l-1.586-1.586l-7.023,11.555l5.211,3.625l-2.492,10.875L417.204,260.669z M421.282,263.161l7.93,3.625v-5.211
		L421.282,263.161z M422.415,256.138l7.023-0.906l-1.133-4.078l-4.758,0.453L422.415,256.138z M437.821,251.153l-0.906,4.984
		l5.664-0.227l2.039-5.438L437.821,251.153z"/>
	<path fill="#6AABE8" d="M490.442,231.896l19.938-3.172l-4.305,31.266l1.133,22.883l-16.539-5.438l8.836-4.305l-3.852-8.156
		l-6.344,2.719l-2.492,9.516l-5.211,4.305l-3.852-14.727l-4.531,0.68l-6.344,11.781l-4.984,3.172l1.359-22.656l-2.719-26.734
		L490.442,231.896z M477.981,240.731l-8.383,0.68l1.133,5.664l9.063-1.133L477.981,240.731z M479.34,259.763v-5.664l-9.516,1.813
		l2.492,4.531L479.34,259.763z M497.692,239.599l-7.703-0.906l-1.813,7.703l9.969-1.359L497.692,239.599z M497.465,258.63
		l-0.68-5.891l-7.477,0.227l-1.133,6.117L497.465,258.63z"/>
	<path fill="#6AABE8" d="M561.641,275.622l4.078-8.836l4.531,11.102l-25.828,4.531l-5.211-9.063l-21.297,9.063l9.742-10.648
		l-7.477-2.945l1.813-13.594l8.156-2.266l-1.359-2.492l-9.289-0.227l-4.078-4.305l6.57-0.906l-3.172-2.492l-3.852-8.836l23.336-0.68
		l-4.758-5.664l19.031,2.492l-4.078,4.078l21.75-0.68l-4.984,11.328l-6.344-5.211l-7.25,0.227l3.172,1.133l2.039,3.852l12.688,0.453
		l-3.172,4.531l-10.195,0.906l-1.813,2.266l9.516,3.852l-2.945,13.367l-4.078,2.492l-7.477-8.609l-6.344,2.492l8.156,2.945
		l-1.813,4.758L561.641,275.622z M524.484,245.263l5.891-1.359l2.492-3.852l-6.57-1.133L524.484,245.263z M538.984,259.31
		l11.555,3.852l2.492-4.078l-23.336-0.68l1.813,11.555L538.984,259.31z M548.5,238.919l-13.141,0.453l4.305,5.211l5.664-1.133
		L548.5,238.919z M547.82,252.966l-1.133-3.398h-7.703l-1.586,3.852L547.82,252.966z"/>
	<path fill="#6AABE8" d="M579.597,268.825c2.415-0.148,4.605,0,6.57,0.453c5.438,1.211,8.383,3.25,8.836,6.117
		c0.149,0.602-0.453,1.586-1.813,2.945c-1.059,1.055-1.813,1.887-2.266,2.492c-2.117,1.508-3.625,1.281-4.531-0.68
		c0-0.152-0.078-0.453-0.227-0.906c-0.152-1.965-0.531-3.172-1.133-3.625c-1.359-2.113-3.551-3.473-6.57-4.078
		c-0.757-0.148-1.059-0.602-0.906-1.359C577.859,269.431,578.539,268.978,579.597,268.825z"/>
	<path fill="#6AABE8" d="M661.671,271.997l17.219,0.453l3.852,7.477l-30.133-0.906l-13.82,1.586l-5.211-5.438l19.031-4.078
		l-2.039-4.078l-11.328-0.227l-2.039-4.984l15.633-2.039l-0.906-4.305l-9.969-0.68l-3.398-3.172l-7.703,1.133l26.055-25.375
		l7.93,7.703l12.914,6.797l8.609,2.719l-7.703,9.516l-5.211-2.492l-1.586,1.813l-7.93,1.359l-1.586,3.625l16.313,1.359l-2.492,5.664
		l-12.234,1.586L661.671,271.997z M645.585,248.208l24.469-1.359l-11.102-7.25L645.585,248.208z"/>
	<path fill="#6AABE8" d="M733.096,264.747l8.156,2.039l2.719,4.305l-10.422,2.039l-1.813,6.57l-4.531,2.719l-3.625-10.648
		l-7.25-0.453l-4.984,8.609l-4.531,2.492l-0.453-9.969l-2.719-0.453l-2.492-3.172l-3.172,9.742l-5.664,3.852l2.492-26.508
		l-2.719-25.375l11.555,1.813l29.906-3.625l9.742,6.117l-5.891,9.516l-4.531,2.039l6.57,3.172l-9.516,4.078l9.289,0.906l2.945,3.852
		l-6.344,1.586L733.096,264.747z M700.018,266.786l8.156-2.039l-0.453-3.172l-3.852-1.586l-1.813-3.172L700.018,266.786z
		 M705.682,241.864l23.563-2.266l2.492-4.078l-29.68,2.719L705.682,241.864z M703.643,254.778l5.891-1.359l-2.719-5.891
		l-4.305-1.133L703.643,254.778z M722.221,253.419l4.984-7.703l-15.18,1.133l7.023,2.719l-2.719,4.984L722.221,253.419z
		 M716.33,264.974l9.516-0.68l-0.906-4.531l-7.93,0.906L716.33,264.974z"/>
	<path fill="#6AABE8" d="M795.006,273.81l3.172-10.648l4.305,13.594l-18.352,5.664l-4.984-13.141l-14.273,13.141l6.57-16.766
		l-5.211-2.719l1.359-15.859l-6.344,12.234l7.703,10.648l-7.703,8.383l-4.531-9.516l-9.742,11.555l5.438-19.711l-5.438-12.461
		l4.758-3.625l-3.172-8.836l14.047-3.172l4.984,4.758l1.813-6.344l6.57,3.852l22.883-4.984l-2.039,33.305l-4.531,2.945
		l-4.531-12.461l-5.438,6.797l6.797,2.719l-2.492,8.609L795.006,273.81z M757.17,255.458l4.078-12.234l-7.93,3.172L757.17,255.458z
		 M775.295,260.442l4.758-19.031l7.93,8.383l2.266-9.063l-15.859-0.68L775.295,260.442z"/>
	<path fill="#6AABE8" d="M829.501,252.739l-2.719,2.719l29.453-0.227l-3.398,12.234l-1.813,14.953l-12.234-3.398l-22.883,1.586
		l-1.359-9.289l-1.133-4.305l-3.625,1.133l-4.758-0.453l9.742-12.461l-6.344-1.813l-3.398-3.852l17.219-1.359l0.906-3.172
		l-11.102,0.906l-3.852-4.758l18.125-1.133v-3.172h-15.406l-3.398-2.945l34.438-6.117l14.727,6.57l-17.219,1.133l-3.172,3.398
		h16.086l3.172,3.625l-19.711,2.719l-3.852,2.266l25.375-1.586l3.172,6.344L829.501,252.739z M843.548,261.575l1.133-2.492
		l-23.563,0.227l1.359,2.492L843.548,261.575z M822.931,269.278l20.617-1.813v-2.039l-21.07,1.359L822.931,269.278z
		 M822.478,275.396l21.07-0.906l-0.227-2.719l-19.711,1.586L822.478,275.396z"/>
</g>
<g>
	<path fill="#6AABE8" d="M466.254,389.068l-0.68,0.68c-0.906,1.059-1.586,1.512-2.039,1.359c-0.304,0-0.906-0.453-1.813-1.359
		c0-0.148-0.078-0.301-0.227-0.453c-0.152-0.301-0.304-0.453-0.453-0.453c-4.984-6.645-12.008-10.043-21.07-10.195
		c-2.57-1.359-4-4.305-4.305-8.836c-0.301-2.113,1.282-3.172,4.758-3.172c8.91,0.152,16.688,5.816,23.336,16.992
		c6.645-10.723,14.422-16.387,23.336-16.992c3.625,0,5.512,1.059,5.664,3.172c0,1.965-0.531,3.852-1.586,5.664
		c-1.059,2.117-2.343,3.172-3.852,3.172C479.016,379.1,471.993,382.576,466.254,389.068z M450.168,384.99v7.93
		c0,1.813,0.829,3.172,2.492,4.078c1.207,0.605,1.813,1.359,1.813,2.266c-0.757,6.043-3.172,9.063-7.25,9.063
		c-3.324,0-5.137-2.492-5.438-7.477c0-1.055,0.074-3.172,0.227-6.344c0.149-4.379,0.227-7.777,0.227-10.195
		c0-1.359,0.68-2.039,2.039-2.039C448.052,382.424,450.016,383.33,450.168,384.99z M485.965,383.631v8.156
		c0,2.266,0.754,3.93,2.266,4.984c0.906,0.605,1.359,1.285,1.359,2.039c-1.512,5.891-4.23,9.063-8.156,9.516
		c-3.777,0-5.816-2.719-6.117-8.156v-12.234c0.453-3.172,3.473-5.059,9.063-5.664C485.435,382.271,485.965,382.725,485.965,383.631z
		"/>
	<path fill="#6AABE8" d="M510.208,388.615h-2.719c-1.059,0-1.586-0.527-1.586-1.586c0-0.906,0.68-2.867,2.039-5.891
		c0.301-0.301,0.527-0.68,0.68-1.133c0.453-1.359,1.207-1.961,2.266-1.813c8.156,0.906,12.61,5.969,13.367,15.18
		c-0.605,9.668-5.515,14.652-14.727,14.953c-10.121-0.453-15.559-5.133-16.313-14.047c0.453-6.797,3.774-10.797,9.969-12.008
		c1.055,0,1.586,0.305,1.586,0.906c0,0.453-0.227,1.285-0.68,2.492c-0.757,2.57-1.133,4.684-1.133,6.344
		c0.754,6.949,3.398,10.953,7.93,12.008c3.02-0.301,4.605-3.02,4.758-8.156C515.493,391.486,513.68,389.068,510.208,388.615z"/>
	<path fill="#6AABE8" d="M543.512,398.811h1.133c0.906,0,1.359,0.453,1.359,1.359c0.149,0.906-0.832,2.719-2.945,5.438
		c-1.512,1.965-2.945,2.867-4.305,2.719c-7.101-1.207-10.875-5.512-11.328-12.914c0.301-9.363,5.133-14.348,14.5-14.953
		c2.719,0,4.078,0.68,4.078,2.039c0.301,1.059-0.832,1.738-3.398,2.039c-3.625,0.758-5.515,3.398-5.664,7.93
		c0.301,4.078,1.961,6.27,4.984,6.57C542.379,399.037,542.907,398.963,543.512,398.811z M556.879,372.076v23.109
		c-0.152,2.418,0.453,4.004,1.813,4.758c1.055,0.305,1.586,0.906,1.586,1.813c-1.664,4.383-4.078,6.57-7.25,6.57
		c-2.871,0-4.684-1.734-5.438-5.211c-0.152-1.508-0.227-3.625-0.227-6.344v-16.086c0.301-3.172-0.379-5.133-2.039-5.891
		c-0.152-0.148-0.304-0.227-0.453-0.227c-1.21-0.906-1.738-1.66-1.586-2.266c-0.152-0.602,1.207-1.586,4.078-2.945
		c0.754-0.301,1.66-0.754,2.719-1.359c1.359-0.906,2.492-1.359,3.398-1.359C555.747,366.639,556.879,368.451,556.879,372.076z"/>
</g>
<g>
	<path fill="#6AABE8" d="M588.984,388.615l-13.367,10.422c1.66,1.813,3.699,2.719,6.117,2.719c2.566,0,4.758-1.133,6.57-3.398
		c0.754-0.906,1.359-1.359,1.813-1.359c1.055,0,1.586,0.68,1.586,2.039c-1.359,6.195-5.816,9.289-13.367,9.289
		c-9.367-0.453-14.426-5.059-15.18-13.82c0.301-5.438,2.566-8.836,6.797-10.195c1.055-0.148,1.586,0.453,1.586,1.813
		c0,0.152-0.078,0.605-0.227,1.359c-0.152,0.605-0.227,1.285-0.227,2.039c0,1.965,0.602,4.004,1.813,6.117l0.227,0.227l7.25-5.664
		c-0.304-2.719-2.117-4.605-5.438-5.664c-1.512-0.301-2.266-0.828-2.266-1.586c0.301-1.813,2.719-2.793,7.25-2.945
		c5.438,0.305,8.836,2.492,10.195,6.57C590.117,387.182,589.738,387.861,588.984,388.615z"/>
</g>
<g>
</g>
<g>
	<path fill="#6AABE8" d="M631.085,367.998h2.266c0.906,0,1.359,0.453,1.359,1.359c0,1.059-1.891,1.965-5.664,2.719
		c-4.383,0.758-7.402,1.813-9.063,3.172c-3.172,2.871-5.438,4.23-6.797,4.078c-2.57,0-3.852-1.281-3.852-3.852
		c0.754-5.738,3.094-8.684,7.023-8.836c0.906,0,2.039,0.227,3.398,0.68c0.453,0.152,0.754,0.227,0.906,0.227
		c1.359,0.453,3.398,0.68,6.117,0.68C627.835,368.225,629.272,368.15,631.085,367.998z M630.858,400.85
		c-1.211,4.684-3.777,7.176-7.703,7.477c-3.477,0-5.363-2.641-5.664-7.93c-1.059-3.32,3.32-9.969,13.141-19.938
		c3.473-3.926,5.738-7.777,6.797-11.555c0.301-1.508,0.906-2.266,1.813-2.266c1.207,0,1.813,0.758,1.813,2.266
		c0,4.23-2.344,9.367-7.023,15.406c-3.625,4.684-5.438,8.309-5.438,10.875c0,1.359,0.453,2.645,1.359,3.852
		C630.554,399.795,630.858,400.396,630.858,400.85z"/>
</g>
<g>
</g>
<g>
	<path fill="#6AABE8" d="M422.362,502.347v-9.73c0-2.814-0.918-4.59-2.754-5.324c-0.981-0.367-1.469-0.918-1.469-1.652
		c-0.124-0.734,0.794-1.529,2.754-2.387c0.367-0.12,1.039-0.487,2.02-1.102c0.488-0.367,0.855-0.611,1.102-0.734
		c1.712-1.102,2.998-1.652,3.855-1.652c2.447,0.123,3.609,2.203,3.488,6.242c0,0.981-0.063,2.57-0.184,4.773
		c-0.124,2.817-0.184,5.141-0.184,6.977c-0.124,7.467,0.611,11.199,2.203,11.199c1.345,0.857,1.957,1.532,1.836,2.02
		c0.121,1.225-0.551,1.775-2.02,1.652c-1.592,0.123-3.672,0.307-6.242,0.551c-0.734,0-1.715,0.063-2.938,0.184
		c-1.102,0.123-2.266,0.184-3.488,0.184c-1.715,0-2.57-0.854-2.57-2.57c0-0.979,0.551-1.772,1.652-2.387
		C421.381,507.61,422.362,505.531,422.362,502.347z M445.679,513.546c-0.491,0-1.285-0.061-2.387-0.184
		c-0.491-0.12-0.918-0.184-1.285-0.184c-0.247,0-0.551-0.061-0.918-0.184c-0.491-0.12-0.981-0.184-1.469-0.184
		c-2.327-0.12-3.368-0.611-3.121-1.469c0-0.734,0.551-1.285,1.652-1.652c2.203-0.734,4.039-2.14,5.508-4.223
		c1.345-1.956,3.058-2.938,5.141-2.938c2.203,0,3.305,1.041,3.305,3.121C451.491,510.672,449.351,513.302,445.679,513.546z"/>
</g>
<g>
	<path fill="#6AABE8" d="M466.907,497.573h-2.203c-0.858,0-1.285-0.428-1.285-1.285c0-0.734,0.551-2.323,1.652-4.773
		c0.244-0.244,0.427-0.551,0.551-0.918c0.367-1.102,0.978-1.589,1.836-1.469c6.609,0.734,10.218,4.837,10.832,12.301
		c-0.491,7.834-4.469,11.873-11.934,12.117c-8.202-0.367-12.608-4.159-13.219-11.383c0.367-5.508,3.058-8.749,8.078-9.73
		c0.855,0,1.285,0.247,1.285,0.734c0,0.367-0.184,1.041-0.551,2.02c-0.614,2.083-0.918,3.795-0.918,5.141
		c0.611,5.631,2.754,8.876,6.426,9.73c2.447-0.244,3.732-2.447,3.855-6.609C471.189,499.899,469.721,497.94,466.907,497.573z"/>
	<path fill="#6AABE8" d="M491.141,500.694c0.978,0,1.469,0.431,1.469,1.285c0,0.49-0.551,0.981-1.652,1.469
		c-1.836,0.734-2.754,1.775-2.754,3.121c0,1.716,1.039,2.57,3.121,2.57c1.102,0,1.652,0.367,1.652,1.102
		c-0.734,1.959-3.061,3.061-6.977,3.305c-3.061-0.367-4.897-2.08-5.508-5.141C481.227,504.122,484.775,501.552,491.141,500.694z
		 M501.79,497.39v7.16c0,0.981,0.488,1.775,1.469,2.387c0.734,0.367,1.102,0.734,1.102,1.102c-0.981,3.672-2.938,5.508-5.875,5.508
		s-4.406-2.387-4.406-7.16v-8.078c-0.124-2.57-1.102-3.916-2.938-4.039c-1.469,0-2.817,1.165-4.039,3.488
		c-0.858,1.592-1.592,2.387-2.203,2.387c-0.734,0-1.592-0.671-2.57-2.02c-0.858-1.102-1.225-1.956-1.102-2.57
		c1.345-3.182,4.894-4.834,10.648-4.957C498.485,490.597,501.79,492.863,501.79,497.39z"/>
	<path fill="#6AABE8" d="M518.864,505.835h0.918c0.734,0,1.102,0.367,1.102,1.102c0.121,0.734-0.674,2.203-2.387,4.406
		c-1.225,1.592-2.387,2.323-3.488,2.203c-5.754-0.979-8.813-4.467-9.18-10.465c0.244-7.588,4.16-11.627,11.75-12.117
		c2.203,0,3.305,0.551,3.305,1.652c0.244,0.857-0.674,1.408-2.754,1.652c-2.938,0.614-4.469,2.754-4.59,6.426
		c0.244,3.305,1.589,5.08,4.039,5.324C517.946,506.019,518.373,505.958,518.864,505.835z M529.696,484.171v18.727
		c-0.124,1.959,0.367,3.244,1.469,3.855c0.855,0.247,1.285,0.734,1.285,1.469c-1.348,3.552-3.305,5.324-5.875,5.324
		c-2.327,0-3.795-1.405-4.406-4.223c-0.124-1.222-0.184-2.938-0.184-5.141v-13.035c0.244-2.57-0.307-4.159-1.652-4.773
		c-0.124-0.12-0.247-0.184-0.367-0.184c-0.981-0.734-1.409-1.346-1.285-1.836c-0.124-0.487,0.978-1.285,3.305-2.387
		c0.611-0.244,1.345-0.611,2.203-1.102c1.102-0.734,2.02-1.102,2.754-1.102C528.778,479.765,529.696,481.233,529.696,484.171z"/>
</g>
<g>
	<path fill="#6AABE8" d="M536.621,507.671v-7.527c0-0.979-0.551-1.896-1.652-2.754c-0.858-0.611-1.285-1.162-1.285-1.652
		c0-0.734,0.855-1.529,2.57-2.387c0.121,0,0.244-0.061,0.367-0.184c0.121,0,0.244-0.061,0.367-0.184
		c0.488-0.12,1.102-0.487,1.836-1.102c0.367-0.12,0.611-0.244,0.734-0.367l0.184-0.184c0.734-0.487,1.345-0.734,1.836-0.734
		c1.836,0,2.754,1.285,2.754,3.855v8.996c0,1.469,0.551,2.51,1.652,3.121c0.734,0.247,1.102,0.674,1.102,1.285
		c-1.102,3.795-3,5.691-5.691,5.691C538.578,513.546,536.988,511.59,536.621,507.671z M540.844,479.765
		c2.814,0.247,4.283,1.652,4.406,4.223c-0.367,2.693-1.836,4.162-4.406,4.406c-2.57-0.244-3.979-1.652-4.223-4.223
		C536.742,481.356,538.15,479.888,540.844,479.765z"/>
</g>
<g>
	<path fill="#6AABE8" d="M550.674,504.183v-4.223c0-1.102-0.551-2.08-1.652-2.938c-0.734-0.611-1.102-1.162-1.102-1.652
		c-0.247-0.734,0.918-1.652,3.488-2.754c0.244-0.244,0.551-0.428,0.918-0.551c1.589-1.102,2.63-1.589,3.121-1.469
		c1.957,0,2.938,1.899,2.938,5.691v14.504c0.244,1.959-1.102,2.874-4.039,2.754c-2.694,0.12-3.979-0.734-3.855-2.57v-3.121
		C550.611,506.266,550.674,505.04,550.674,504.183z M572.705,497.022v6.793c0,1.349,0.488,2.326,1.469,2.938
		c0.734,0.367,1.102,0.857,1.102,1.469c-1.102,3.552-2.938,5.324-5.508,5.324c-3.061,0-4.653-2.14-4.773-6.426v-8.996
		c0.244-1.713-0.858-2.507-3.305-2.387c-1.225,0-1.836-0.428-1.836-1.285c0.611-2.323,2.691-3.608,6.242-3.855
		C570.378,490.72,572.582,492.863,572.705,497.022z"/>
</g>
<g>
	<path fill="#6AABE8" d="M586.542,513.546h-3.488c-4.773,0-7.04-1.102-6.793-3.305c0.244-1.713,1.345-2.631,3.305-2.754
		c1.345,0,2.263,0.49,2.754,1.469c0.734,1.225,1.712,1.836,2.938,1.836c0.488,0,1.406-0.061,2.754-0.184
		c0.488-0.12,0.855-0.184,1.102-0.184c1.589-0.12,2.814-0.184,3.672-0.184c4.773,0.367,7.281,2.083,7.527,5.141
		c-0.734,5.385-5.081,8.198-13.035,8.445c-7.1-0.123-10.956-2.02-11.566-5.691c0.244-2.45,2.08-3.795,5.508-4.039
		c2.203,0,3.305,0.611,3.305,1.836c0,0.367-0.063,0.795-0.184,1.285c-0.124,0.367-0.184,0.671-0.184,0.918
		c0.244,1.836,1.529,2.814,3.855,2.938c2.814-0.123,4.283-1.469,4.406-4.039C592.417,514.584,590.458,513.426,586.542,513.546z
		 M584.155,495.37v0.918c-0.124,0.49-0.184,0.918-0.184,1.285c0.244,4.162,1.773,6.609,4.59,7.344c1.345,0,2.02-0.918,2.02-2.754
		c0-3.305-0.981-5.508-2.938-6.609c-0.124,0-0.247-0.061-0.367-0.184c-0.367-0.244-0.674-0.428-0.918-0.551
		c-0.734-0.244-1.102-0.611-1.102-1.102c0-0.367,0.427-1.162,1.285-2.387c-0.858,1.102-0.797,1.041,0.184-0.184
		c0.611-0.979,1.345-1.469,2.203-1.469c4.894,0.614,7.587,3.428,8.078,8.445c-0.491,6.242-3.979,9.61-10.465,10.098
		c-5.875-0.611-9.12-3.365-9.73-8.262c0.367-3.425,2.324-5.508,5.875-6.242C583.665,493.718,584.155,494.269,584.155,495.37z
		 M601.964,493.901c-0.124,2.326-0.734,3.552-1.836,3.672c-0.491,0-1.042-0.487-1.652-1.469c-0.124-0.12-0.247-0.244-0.367-0.367
		c0-0.12-0.063-0.184-0.184-0.184l-0.184-0.184c-0.491-0.734-0.734-1.285-0.734-1.652c0.244-1.346,1.345-2.264,3.305-2.754
		C601.413,490.964,601.964,491.945,601.964,493.901z"/>
	<path fill="#6AABE8" d="M606.648,513.362l-2.387-2.203c-0.734-0.611-1.042-1.162-0.918-1.652c0-0.611,0.304-1.102,0.918-1.469
		l2.387-2.57c0.488-0.487,0.978-0.734,1.469-0.734c0.367-0.244,0.918,0.123,1.652,1.102l2.02,2.203
		c0.488,0.49,0.734,0.981,0.734,1.469c0.121,0.49-0.124,0.981-0.734,1.469l-2.387,2.387c-0.367,0.123-0.858,0.184-1.469,0.184
		C607.442,513.546,607.015,513.485,606.648,513.362z"/>
	<path fill="#6AABE8" d="M618.859,513.362l-2.387-2.203c-0.734-0.611-1.042-1.162-0.918-1.652c0-0.611,0.304-1.102,0.918-1.469
		l2.387-2.57c0.488-0.487,0.978-0.734,1.469-0.734c0.367-0.244,0.918,0.123,1.652,1.102l2.02,2.203
		c0.488,0.49,0.734,0.981,0.734,1.469c0.121,0.49-0.124,0.981-0.734,1.469l-2.387,2.387c-0.367,0.123-0.858,0.184-1.469,0.184
		C619.653,513.546,619.226,513.485,618.859,513.362z"/>
</g>
<g>
	<path fill="#6AABE8" d="M631.056,513.362l-2.387-2.203c-0.734-0.611-1.042-1.162-0.918-1.652c0-0.611,0.304-1.102,0.918-1.469
		l2.387-2.57c0.488-0.487,0.978-0.734,1.469-0.734c0.367-0.244,0.918,0.123,1.652,1.102l2.02,2.203
		c0.488,0.49,0.734,0.981,0.734,1.469c0.121,0.49-0.124,0.981-0.734,1.469l-2.387,2.387c-0.367,0.123-0.858,0.184-1.469,0.184
		C631.85,513.546,631.423,513.485,631.056,513.362z"/>
	<path fill="#6AABE8" d="M643.173,513.362l-2.387-2.203c-0.734-0.611-1.042-1.162-0.918-1.652c0-0.611,0.304-1.102,0.918-1.469
		l2.387-2.57c0.487-0.487,0.979-0.734,1.469-0.734c0.367-0.244,0.918,0.123,1.652,1.102l2.02,2.203
		c0.487,0.49,0.734,0.981,0.734,1.469c0.12,0.49-0.123,0.981-0.734,1.469l-2.387,2.387c-0.367,0.123-0.857,0.184-1.469,0.184
		C643.968,513.546,643.54,513.485,643.173,513.362z"/>
	<path fill="#6AABE8" d="M655.29,513.362l-2.387-2.203c-0.734-0.611-1.041-1.162-0.918-1.652c0-0.611,0.304-1.102,0.918-1.469
		l2.387-2.57c0.487-0.487,0.979-0.734,1.469-0.734c0.367-0.244,0.918,0.123,1.652,1.102l2.02,2.203
		c0.487,0.49,0.734,0.981,0.734,1.469c0.12,0.49-0.123,0.981-0.734,1.469l-2.387,2.387c-0.367,0.123-0.857,0.184-1.469,0.184
		C656.085,513.546,655.657,513.485,655.29,513.362z"/>
	<path fill="#6AABE8" d="M667.407,513.362l-2.387-2.203c-0.734-0.611-1.041-1.162-0.918-1.652c0-0.611,0.304-1.102,0.918-1.469
		l2.387-2.57c0.487-0.487,0.979-0.734,1.469-0.734c0.367-0.244,0.918,0.123,1.652,1.102l2.02,2.203
		c0.487,0.49,0.734,0.981,0.734,1.469c0.12,0.49-0.123,0.981-0.734,1.469l-2.387,2.387c-0.367,0.123-0.857,0.184-1.469,0.184
		C668.202,513.546,667.774,513.485,667.407,513.362z"/>
</g>
<path d="M1001.755,212.355c-9.729-8.749-10.271-26.69-12.096-43.344c0.779-1.541,0.443,2.186,0.504,3.024
	C993.042,186.46,993.572,203.234,1001.755,212.355"/>
<path d="M973.027,200.764c4.5,0.372,7.546,2.198,11.088,3.528C981.17,204.375,976.046,202.287,973.027,200.764"/>
<path d="M1040.563,207.819c3.143,2.905,6.845,5.251,11.592,6.552C1047.526,214.963,1042.354,211.744,1040.563,207.819"/>
<path d="M926.154,223.948c1.435,0.672-0.388,2.241-0.503,3.024c3.842,0.694,8.438,0.632,11.087,2.52
	c-0.319,5.158,0.429,11.98,0,16.632c-0.213,2.326-2.019,3.612-0.503,5.04c-1.611-2.319-3.101-0.622-6.048-0.504
	c0.145,1.871,2.666,1.366,2.52,3.528c-2.319-3.525-10.526-3.559-14.112-0.504c-1.631,0.623-0.385-1.631-2.016-1.008
	c-2.072,0.111-1.098,3.271-3.528,3.024c0.285-1.228,0.433-2.592,2.018-2.52c-0.376-1.137-2.828-0.197-4.032-0.504
	c4.961-1.594,15.802-1.668,22.176-3.528c-1.56-5.833-0.747-14.037-1.512-20.664c-8.792-0.056-16.307,1.166-22.68,3.528
	c0.332,6.388,1.563,11.876,2.016,18.144c-3.031-4.193-1.975-12.474-3.023-18.648c2-1.023,4.178-1.871,7.056-2.016
	c-0.069-1.778-1.441-2.253-1.513-4.032c1.256,0.762,2.305,1.728,2.521,3.528c2.617-0.237,4.575-1.136,7.561-1.008
	C924.465,226.625,925.216,225.192,926.154,223.948 M933.715,248.644c3.541-2.624,2.321-14.993,1.009-19.152h-1.513
	C932.818,236.436,933.914,241.893,933.715,248.644"/>
<path d="M926.659,235.036c-0.455,1.897-2.62,2.084-5.04,2.016C922.441,235.521,925.092,235.82,926.659,235.036"/>
<path d="M913.556,236.547c0.821-0.951,3.989,0.013,4.031,1.512C915.623,238.175,914.974,236.978,913.556,236.547"/>
<path d="M925.147,241.587c-0.678,1.002-0.961,2.399-1.514,3.528c-1.477-0.427,0.303-1.623,0-2.52c-1.093-1.543-2.837,0.483-4.535,0
	c-1.488,0.438,1.17,0.754,0.505,2.016c-1.613-0.067-2.219-1.143-2.018-3.024C920.576,242.207,923.254,240.457,925.147,241.587"/>
<path d="M924.642,258.724c-2.225,3.278-4.242,7.23-6.552,11.088c-2.105,3.521-4.27,7.974-7.056,9.576
	c-1.676-4.409,1.393-12.685,1.512-18.648c1.332,5.369-1.302,11.127-1.009,17.136c3.906-6.007,7.223-12.602,11.593-18.144h-11.088
	C914.634,257.787,920.498,259.115,924.642,258.724"/>
<path d="M1030.987,265.779c0.178,6.9-2.021,15.788-3.528,22.68C1027.195,281.474,1030.09,273.284,1030.987,265.779"/>
<path d="M1018.388,274.852c-1.146,0.869-2.953,1.078-5.041,1.008C1013.275,273.772,1016.854,275.334,1018.388,274.852"/>
<path d="M920.107,277.875c3.994,0.042,8.011,4.417,11.592,6.552C927.634,284.457,924.274,279.424,920.107,277.875"/>
<path d="M1050.643,289.972c1.528-0.185,1.047,1.641,1.513,2.52c2.577-0.952,6.728-0.329,10.08-0.505
	c0.612,1.57,1.173,3.196,1.008,5.544c-2.054,1.476-5.605,1.45-9.072,1.513c-1.479,0.428,0.655,1.267,0,2.519
	C1051.297,299.398,1052.338,293.316,1050.643,289.972 M1052.659,292.995c0.051,2.302,0.313,4.393,1.512,5.544
	c2.214-0.81,5.354-0.692,8.064-1.008v-4.536C1059.309,291.696,1056.359,293.519,1052.659,292.995"/>
<path d="M1046.107,290.476c2.451,2.589,3.042,7.038,3.525,11.592c-1.379-3.206-4.045-1.046-7.559-1.008
	c1.115-1.573,4.34-1.036,6.048-2.016c0.113-2.13-0.777-3.255-1.008-5.04c-3.264,0.938-6.788,1.612-10.08,2.52
	c2.177-2.023,6.001-2.4,9.576-3.025C1046.977,291.958,1045.741,292.018,1046.107,290.476"/>
<path d="M1014.355,291.987c2.063-0.872,5.645,1.064,6.552,3.024C1018.496,294.23,1016.998,292.537,1014.355,291.987"/>
<path d="M914.563,296.02c2.347,0.677,4.33,1.718,6.552,2.52c-1.976,4.913-3.767,10.01-7.562,13.104
	c0.429-4.697-1.512-9.481,0-13.608c0.778,3.254,0.912,7.153,1.01,11.088c1.947-3.091,3.603-6.477,5.544-9.576
	C918.761,297.872,915.199,298.408,914.563,296.02"/>
<path d="M1036.531,298.035c6.334,4.585,12.069,9.771,19.151,13.608c3.239-1.296,6.954-2.117,11.593-2.015
	c-1.021-2.179-5.427-5.322-5.544-10.08c2.309,3.738,4.12,7.975,8.063,10.08c-2.095,0.425-3.74,1.299-6.553,1.008
	c2.733,7.85,8.57,12.597,7.561,24.191c-2.017-3.19-0.896-9.521-3.022-12.6C1059.124,311.76,1045.239,308.917,1036.531,298.035
	 M1057.699,312.147c1.521,1.342,2.74,0.695,5.04,0.504C1062.853,309.943,1058.66,311.45,1057.699,312.147 M1065.763,318.699
	c-1.028-1.657-1.567-3.807-2.521-5.544c-0.896,0.279-2.092,0.259-2.521,1.008C1062.638,315.116,1064.645,318.627,1065.763,318.699"
	/>
<path d="M991.171,355.996c2.236,0.953,0.092,5.638,0,7.561C989.193,362.535,991.89,358.956,991.171,355.996"/>
<path d="M1017.379,376.66c-11.013,2.41-30.907-0.894-42.84-3.023c-0.563-0.102-3.499-0.42-1.008-0.504
	C984.818,372.749,1005.004,378.23,1017.379,376.66"/>
<path d="M1030.483,379.684c3.659,1.832,2.072,8.285,1.512,12.601C1030.522,388.191,1033.253,382.73,1030.483,379.684"/>
<path d="M1023.427,385.228c3.232,4.496,5.596,9.861,7.562,15.624c0.684-1.164,1.448-2.247,1.512-4.032
	c-0.897,7.987,2.763,17.179,5.04,26.713c5.037,21.084,9.96,42.648,11.592,66.527c-3.282-9.035-2.668-18.804-4.535-28.224
	C1039.29,435.077,1034.078,407.251,1023.427,385.228"/>
<path d="M986.636,404.38c0.48,15.938-4.655,30.624-7.562,44.854C980.465,435.169,985.396,420.276,986.636,404.38"/>
<path d="M960.427,454.779c1.154,0.421,1.381,3.097,0.504,4.032C959.794,458.437,960.734,455.984,960.427,454.779"/>
<path d="M1019.395,468.892c1.3,0.691,0.111,3.088,0,4.032C1017.904,472.042,1019.687,470.238,1019.395,468.892"/>
<path d="M918.595,483.508c1.422,1.946,4.29,5.105,4.536,6.552C920.823,488.67,919.515,486.284,918.595,483.508"/>
<path d="M960.931,527.355c-0.363,1.821-2.559,1.811-4.535,2.017c0.428-0.747,1.268-1.084,2.52-1.009
	c-0.697-1.147-3.507-0.188-5.04-0.504C955.819,526.196,958.015,527.464,960.931,527.355"/>
<path d="M1027.963,527.355c-0.759,1.426-2.61,1.757-4.536,2.017c-0.508-1.517,1.123-0.894,2.017-1.009
	c-0.375-1.137-2.826-0.194-4.031-0.504C1022.146,526.37,1026.556,526.574,1027.963,527.355"/>
<path d="M1017.883,529.876c0.209,7.267-10.145,8.335-7.056,20.159c3.833,3.369,12.65,3.948,19.152,3.023
	c-5.336,3.145-16.147,0.505-20.16-2.521C1007.152,538.297,1015.422,536.991,1017.883,529.876"/>
<path d="M964.963,533.403c0.141,8.413,9.196,15.46,5.04,23.186C971.869,547.199,964.222,543.313,964.963,533.403"/>
<path d="M1035.02,539.956c1.141,5.347-2.241,10.523-6.05,12.601C1031.784,549.152,1034.517,545.669,1035.02,539.956"/>
<path d="M942.283,169.516c2.21-6.928,9.296-13.832,16.128-20.664c6.33-6.33,12.402-14.453,19.657-17.137
	c6.407-2.37,13.971,7.881,17.639,12.601c39.937-12.292,64.355,17.401,61.992,55.943c-0.105,1.711-0.316,4.098-0.504,7.057
	c-0.925,14.571-8.69,27.756-1.513,38.304c-3.287-0.409-5.022-2.369-7.561-3.529c-0.288,5.496,2.313,8.105,3.024,12.6
	c-3.903-0.464-6.16-2.577-9.072-4.031c-5.517,2.548-4.455,11.673-5.544,18.648c7.044,2.938,13.797,5.01,14.616,13.104
	c2.331-1.128,7.318-1.952,9.574-1.513c-0.506,3.022-1.338,5.719-1.008,9.577c-2.561-1.725,0.119-6.474,0-9.073
	c-10.116,0.468-15.203,5.966-24.19,7.56c-0.188,3.044,0.142,5.57,0.505,8.064c-3.377-1.832-5.453-4.963-8.065-7.56
	c0.964-1.57,1.804,1.174,2.522,1.513c0.291-1.026-0.346-3.972-0.505-1.513c4.409-18.452,8.051-39.693,11.089-60.48
	c-2.911,10.363-6.878,19.667-13.105,26.713c-0.563,9.762-2.901,20.177-4.032,27.72c0.313,1.366,2.106,1.253,2.018,3.023
	c-2.524-1.003-2.874-4.181-4.536-6.047c-2.196,2.563-1.086,9.108,2.016,9.576c1.257-0.65-0.146-2.828-1.008-3.025
	c2.814-1.182,2.28,3.777,2.017,5.04c-10.327-3.243,0.236-18.173-5.041-26.208c-4.061,3.829-17.543,3.051-26.207-0.504
	c-0.386-1.188-0.994-3.482,0-4.536c1.127,0.218,0.204,2.485,0.505,3.529c3.117,2.257,8.698,2.052,13.104,3.024
	c0.81-0.704,0.537-2.488,1.512-3.024c1.374,0.464-0.702,1.575,0,3.024c4.642,0.272,8.38-0.358,10.08-3.024
	c-6.526-1.365-18.744,0.396-24.19-3.529v-3.024c-3.847,0.357-4.546,0.841-9.072,2.017c-0.601,7.52,3.439,12.982,4.032,17.64
	c-2.409-3.304-3.809-7.618-4.536-12.6c-0.129-1.046-2.215-0.139-2.521-1.008c2.018-0.168,2.377-1.991,2.018-4.536
	c3.309-0.724,5.626-2.438,9.576-2.52c0.374-1.718-1.857-0.831-2.018-2.017c-2.232,0.288-2.383,2.657-5.04,2.521
	c0.823-2.022-2.219-4.026-3.022-6.048c-4.603-0.403-6.83,1.57-11.087,1.511c-1.313,5.243-2.355,10.751-3.025,16.633
	c1.188-2.513,6.936-4.821,12.6-4.536c4.523,24.011-11.521,31.821-12.096,52.416c-2.283,1.245-3.091,3.964-4.536,6.047
	c1.643,3.697,5.653,7.274,9.072,7.561c-2.38,12.067-5.848,23.048-5.04,38.304h2.016c0.774-15.522,3.76-28.834,5.544-43.344
	c-1.36,0.821-0.377,3.989-2.52,4.031c6.417-20.631,14.197-39.898,17.64-63.504c1.188,1.385-0.018,4.665-0.504,6.049
	c0.505,1.342,2.034,1.662,3.024,2.52c-0.759,1.366-2.175-0.803-3.024-1.009c-1.584,4.969-1.683,11.422-3.022,16.633
	c2.17,1.357,5.657,1.398,9.07,1.511c2.416-3.632,3.109-8.986,6.05-12.095c-2.075-1.285-5.736-0.985-9.072-1.009
	c1.362-1.997,1.817-4.9,3.526-6.551c0.98-0.92,1.63,1.333,4.032,0.504c0.955-1.397,1.2-3.505,2.521-4.537
	c1.438,1.146-1.716,1.948-1.007,4.033c1.771-0.078,0.611-3.083,2.52-3.024c1.01,2.854,2.203,5.525,5.544,6.048
	c-0.782,2.483,0.226,4.787,3.023,5.04c-0.155,0.684-1.262,0.418-2.017,0.503c0.669,3.868,0.952,8.121,4.536,9.073
	c0.307-2.165-1.71-6.346-2.016-9.576c0.731-0.742,3.299-0.742,4.03,0c-0.509,1.419-2.14-0.14-3.022,0
	c0.749,4.962,1.31,10.114,6.048,11.087c-4.046-0.15-7.173-0.181-9.072-3.527c-1.069-1.887-0.261-4.698-1.008-7.057
	c-1.214-3.83-4.409-6.352-6.048-8.567c-0.182,8.582,4.217,12.583,7.561,17.64c-2.508,0.481-3.908-4.486-5.04-7.056
	c-2.063,1.464-2.243,4.813-4.032,6.551c0.813,0.245,4.851-0.312,6.049,1.009c-1.126,1.105-6.753-1.621-7.056,1.511
	c1.688,0.999,3.718,1.658,6.048,2.016c1.82,2.211,4.325,3.738,6.552,5.545c22.914,3.519,19.552,32.703,42.84,35.783
	c2.663,0.354,5.057-0.721,7.057,1.009c0.643-0.702,2.47-0.22,2.521-1.513c1.343,3.253-4.062,1.588-5.544,1.513
	c-10.319-0.529-19.155-6.988-23.688-14.112c0.158,2.194,0.582,4.122,1.009,6.047c-2.464-2.577-3.609-6.47-4.535-10.584
	c-0.908,2.767,1.843,6.213,2.016,9.577c-2.779,4.948-7.546,7.91-13.607,9.576c-1.461,10.999,1.341,21.671,4.031,31.248
	c0.43,1.479,1.27-0.655,2.521,0c0.965,2.021,0.141,4.68-0.505,6.552c0.965,0.885,1.811,1.887,2.017,3.527
	c-2.982,0.883-5.27,2.459-9.072,2.521c1.594-2.103,5.933-1.458,8.064-3.023c-0.268-0.404-0.526-0.817-0.505-1.513
	c-2.143-1.191-5.682,1.164-8.063,0c-1.529,2.555-0.052,6.424,1.008,8.064c-0.951,1.45-4.407,1.174-6.048,0.504
	c-0.038-3.187-0.206-9.049,0-12.097c-5.17,1.465-10.288-1.007-15.624-1.008c4.269-1.237,10.806-0.395,14.616,0.504
	c0.403-6.15-1.033-14.731-0.504-22.68c-1.1-0.091-1.604,0.414-1.512,1.512c-1.139-7.858,1.62-16.184,2.52-23.687
	c-3.711,2.34-6.222,10.24-10.08,14.111c2.542-7.033,7.957-11.194,10.584-18.144c1.606,9.415-2.589,14.457-2.52,24.193
	c1.112-0.064,0.214-2.139,0.504-3.025c1.313,2.973,3.16-5.536,4.031-8.568c2.579-8.973,6.122-21.135,7.561-29.231
	c1.531,8.469-4.474,18.001-5.04,27.719c-5.506,9.154-5.926,25.035-4.032,38.809c0.449-0.393,1.14-0.543,2.018-0.505
	c1.116-9.468,0.16-21.007,1.512-30.239v-4.536c0.779-1.541,0.443,2.185,0.504,3.023c0.319,9.814-1.627,22.846,0,29.232
	c1.995-0.189,3.66-0.709,5.04-1.513c-1.98-9.042-5.896-18.23-3.528-28.729c-0.223-0.953,0.687-3.038-1.008-2.519
	c4.972-3.094,11.186-4.945,14.112-10.08c-1.973-11.973-6.447-21.442-15.624-26.208c-3.356,4.333-3.856,10.541-5.544,16.128
	c-1.69,5.595-3.604,11.238-5.04,16.631c-0.593-4.126,2.274-9.145,3.024-13.608c-3.443-0.925-7.671-1.066-12.098-1.008
	c1.233,4.312,5.46,5.628,10.08,6.552c-4.792,0.756-9.994-2.434-11.088-7.056c-3.079,0.056-5.724-0.325-8.064-1.007
	c-0.681,0.495-1.007,1.344-1.512,2.015c-1.022,0.154,0.104-1.456,0.504-1.512c-2.269-2.266-8.464-0.608-10.584-3.024
	c10.667,1.43,20.413,3.779,32.762,3.528c2.632-4.926,3.758-11.362,5.038-17.639c-6.313-2.087-9.359-7.44-16.632-8.569
	c1.688-3.522,3.28-7.135,5.04-10.584c-0.215-2.472-2.079-3.296-1.512-6.551c-1.085-1.771-4.243-1.47-7.057-1.513
	c-1.484,0.532-1.753,2.281-2.521,3.529c2.342,1.019,6.094,0.626,8.567,1.511c-1.98,4.235-4.103,8.33-5.543,13.104
	c0.955,0.893,3.227,0.47,4.031,1.512c-4.729,1.195-9.949-1.471-14.615-2.015c-4.519,8.585-6.78,19.427-9.576,29.736
	c-0.058,1.78-0.924-0.053-1.512,1.512c0.053,16.348-4.926,27.668-4.537,44.351c5.813,5.275,21.174,1.003,28.729,4.536h-5.544
	c-0.724,0.621-0.955,1.732-1.008,3.023c-1.734-0.278-0.292-1.948,0-3.023c-3.523,0.331-5.934-0.451-9.072-0.504
	c-1.107,0.457,0.792,2.884-1.512,3.023v-3.023c-4.697-0.006-7.871-1.537-11.593-2.521c-1.112,0.063-0.213,2.139-0.504,3.023
	c-0.458-1.391-1.024-2.671-3.527-2.017c-0.336,1.884-0.429,4.118,0,6.552c-1.916,0.404-0.642-2.383-1.008-3.527
	c-2.907-0.621-5.489-1.566-8.568-2.017c-1.428-0.082,0.419,3.107-1.008,3.024c2.882,1.485,6.802,1.935,10.08,3.023
	c-2.908,0.882-7.157-1.235-10.08-2.017c-4.439,3.286-0.793,12.397-4.536,15.624c1.03-6.047,1.375-11.418,3.023-17.641
	c-2.814-2.063-7.008-12.968-1.513-11.592c0.086,2.125-0.773-0.009-1.512,0c-1.324,1.608,0.447,7.755,1.008,4.031
	c0.533,2.387-0.8,3.92,2.017,5.545c2.22-1.982,0.695-6.158,2.521-7.562c0.813,0.021,0.277,2.476,3.023,1.009
	c-1.508-0.712-0.635-3.076,0.504-5.04c1.278,0.671-0.738,2.236-0.504,3.527c1.222-2.643,3.178-4.551,3.023-8.567
	c-1.682-0.157-5.505,1.878-8.567,2.016c0.028,2.156,0.677,3.692,1.009,5.544c-1.322,0.357-2.268,1.094-2.018,3.023
	c-2.134-1.668,0.475-3.549,0.505-5.543c0.248-16.309-12.368-28.199-17.137-40.824c4.572,6.011,8.336,12.833,11.593,20.16
	c-0.601-7.306-0.937-22.022,1.008-28.225c-2.291-1.909-4.203-4.196-6.553-6.048c-3.463,3.78-7.159,9.412-4.031,15.624
	c-4.778-5.146,0.03-13.122,3.527-16.128c-1.532-3.003-4.652-4.419-6.048-7.559c3.127-0.906,5.719-2.346,9.071-3.025
	c-1.666,2.03-4.739,2.653-7.56,3.529c3.16,4.398,7.142,7.978,11.088,11.591c1.711-2.32,1.254-6.809,2.017-10.08
	c-1.095-1.854-1.121,1.508-2.521,1.008c-0.433-1.607,0.793-1.558,1.008-2.519c-1.45-2.245-4.261-3.131-5.544-5.544
	c2.283-5.277,8.086-7.034,7.057-15.624c1.298-0.931,3.479,0.624,4.031,2.015c-1.504-0.008-1.713-1.309-3.023-1.511
	c0.409,4.776-1.026,7.709-3.024,10.08c0.67,1.681,2.854,1.852,4.032,3.024c2.836-21.188,11.95-36.099,10.584-61.489
	c2.222,21.963-5.71,42.426-9.575,63c-2.526,13.448-5.482,27.143-4.536,43.848c0.319,5.632,0.572,7.784,3.527,11.592
	c-1.87,0.966,1.15,5.78,1.009,9.577c3.636-1.847,7.303-0.762,9.071-4.032c1.103,0.074,1.082,1.271,1.008,2.521
	c2.566-1.847-0.308-4.372,0-8.065c-2.692-4.531-3.127-11.319-6.048-15.624c-0.147,4.017,0.106,11.987,0,17.641
	c-3.237-39.864,5.442-74.434,13.608-106.848c0.829,1.855-1.146,5.227-1.009,8.064c1.828-1.364,2.254-4.131,3.527-6.049
	c0.854,2.88-2.501,5.891-3.527,8.569c4.038,0.005,6.415-1.65,10.584-1.513c1.707,1.485,2.771,3.612,4.031,5.544
	c1.935-1.108,4.19-3.233,6.049-0.504c-3.063-4.828-8.944-5.969-13.104-8.567c-3.418-3.471-6.457-7.32-10.08-10.584
	c-1.571-4.813-2.977-9.792-4.032-15.12c-1.521,5.03-1.411,11.69-2.52,17.135c-0.327,4.8-0.625-0.895-0.505-3.528
	c0.141-3.08,1.166-6.842,1.009-8.567c-0.685,0.155-0.418,1.261-0.504,2.016c-0.289-11.377,4.516-22.028,7.56-31.752
	c0.795,2.319-1.619,5.761-2.017,8.568c2.244-3.805,4.14-7.958,5.545-12.601c-1.506-1.014-3.986-1.054-6.049-1.512
	c-3.305,9.296-4.231,20.969-6.552,31.248c0.063,1.247-0.617,0.857-0.503,0c1.614-10.648,3.186-21.34,6.047-30.743
	c0.088-1.432-3.297,0.609-2.521-1.513c3.774-0.584,6.813,0.798,10.584,1.513c1.063-5.733-6.171-7.173-6.552-13.104
	c3.079,1.623,6.539,2.867,9.071,5.039c2.026-3.181,3.233-7.182,4.032-11.592c1.308,3.333-1.594,6.799-2.018,10.081
	c2.722-5.007,5.789-9.667,8.064-15.121c-0.563,8.343-9.473,12.704-8.568,24.192c-1.141,1.772-2.216-1.62-3.023,0
	c3.18,2.533,8.604,2.82,11.593,5.545c-3.387,0.02-7.701-3.384-12.097-4.033c-1.686,7.199-9.104,12.96-9.071,22.176
	c0.051,14.556,6.31,26.832,16.632,32.761c0.62,0.563,1.035,0.438,1.008-0.504c3.521,3.367,8.285,5.49,12.601,8.064
	c11.604-0.492,19.579-4.615,27.721-8.568c3.3-10.141,6.16-23.407,7.561-33.768c-0.227,15.448-4.597,26.926-8.064,37.799
	c-2.413-0.118,0.388-1.788,0-3.023c-2.116,0.928-2.341,2.121-4.535,2.016c0.653,1.463,0.653,3.576,0,5.04
	c2.113,1.583,5.08,2.312,6.048,5.04c-1.611-1.58-4.33-2.054-6.048-3.529c-1.622,3.722-0.627,7.106-0.504,10.08
	c1.112-0.063,0.214-2.138,0.504-3.023c1.559,4.153,1.529,9.895,2.017,15.12c3.008-5.667,8.068-21.761-0.504-24.193
	c2.409-1.354,2.784,1.755,5.039,2.016c-0.637-4.837,1.994-6.404,2.521-10.08c-2.042,1.655-2.328,5.066-5.039,6.049
	c1.422-3.955,4.813-5.938,6.048-10.08c1.315,3.843-1.979,7.422-2.017,11.591c6.223-10.072,12.526-20.065,12.096-36.792
	c-4.895-2.497-6.599-8.185-13.606-8.567c1.403,1.213,4.291,4.518,2.52,6.551c-1.068-1.912-3.918-5.16-7.056-6.551
	c1.985,4.069,1.004,11.455-1.009,14.616c-5.396,2.006-9.5-1.107-8.567-7.056c2.231-0.241,2.507,0.692,4.032,0
	c-0.059-1.791-1.668-2.028-3.528-2.017c0.493-3.214-0.187-4.781,1.513-7.056c-3.953,0.058-6.595,0.938-7.561,5.545
	c-3.087-1.038-5.348-5.211-6.553-9.576c1.595,1.261,2.269,3.444,3.024,5.544c6.052,0.003,3.519-8.579,5.041-13.104
	c-2.378-0.024-3.819,0.884-6.05,1.007c1.091-1.598,3.676-1.701,6.05-2.016c0.739-7.06-0.961-14.302-0.506-21.672
	c-0.002,0.042-0.203-4.65,0.506-0.504c0.945,5.549,0.616,14.48,1.511,21.672c3.465-1.635,3.039-8.591,3.528-13.608
	c0.332-3.419,0.53-6.819-0.505-10.08c0.749-0.02,0.729,2.994,1.009,0.505c1.634,8.278,5.22,14.603,8.063,21.672
	c4.435-0.717,9.353,0.223,12.096,0.503c1.191,1.161,1.613,3.091,2.521,4.537c-0.6,0.728-1.7-2.303-2.016-3.529
	c-2.908,0.776-7.068-1.246-11.593-0.504c2.671,8.25,7.707,14.133,13.104,19.657c-0.589-1.941-3.537-5.866-5.04-8.569
	c3.343,1.188,5.438,10.136,9.576,10.583c-0.388,1.9,0.614,2.409,0.504,4.032c3.054-7.915-6.184-9.163-8.063-15.12
	c3.447,3.274,8.849,8.958,13.104,13.104c0.521,6.234-2.647,8.775-5.04,12.097c-0.756,8.149-1.739,16.068-3.023,23.688
	c0.626,0.754,1.663-2.34,3.023-2.52c2.863,0.833,4.979,2.414,7.561,3.527c-1.275-4.274-3.234-13.667-0.504-19.655
	c1.334,2.025-0.765,4.932-0.505,7.56c1.905,0.949,4.013,1.699,5.545,3.024c-3.258-7.134-1.457-20.03,0-29.232
	c0.813,0.685-0.521,3.482,0,5.544c1.216-3.826,2.118-7.961,2.017-13.104c-1.174-0.844-2.716-1.316-4.537-1.513
	c0.428-1.477,1.623,0.302,2.521,0c-9.146-6.815-16.106-15.813-19.655-28.224c5.469,11.165,11.073,22.191,21.673,28.224
	c1.823-20.39-1.079-37.978-11.089-49.392c-10.05-11.459-28.198-17.8-48.384-11.088c-5.269-3.44-8.422-12.503-15.12-13.104
	c-7.12-0.639-15.261,10.725-20.16,15.624c-7.157,7.158-13.027,12.415-16.632,18.648c9.82-8.155,18.985-21.333,31.752-28.224
	C963.294,147.183,953.712,159.273,942.283,169.516 M979.075,189.675c0.008-2.192,0.167-4.534-0.504-6.047
	c-2.854-0.683-5.861-3.873-8.064-3.528C973.658,182.997,975.347,187.357,979.075,189.675 M1007.299,207.819
	c-1.605-0.431-1.559,0.793-2.52,1.009c0.069,0.939,0.33,1.685,1.008,2.016C1006.234,209.779,1007.321,209.355,1007.299,207.819
	 M1041.57,227.98c1.488-3.721,4.711-5.706,4.033-11.592c-0.308-0.87-2.392,0.039-2.521-1.009c0.006-0.666,0.884-0.46,1.008-1.007
	c-0.308-0.028-0.597-0.076-0.504-0.504h-1.008C1044.519,218.096,1040.44,223.379,1041.57,227.98 M1012.843,192.7
	c3.058-0.137,5.616-0.77,8.568-1.009c-2.232-4.989-4.068-10.379-6.552-15.12C1015.079,182.839,1014.349,188.159,1012.843,192.7
	 M1010.323,194.212c-0.633,2.067-1.735,6.312-0.504,8.567C1009.464,199.944,1012.845,195.899,1010.323,194.212 M1010.323,202.275
	c0.684,0.976,4.555-1.785,6.048,0c-2.755,0.605-6.3,0.42-7.56,2.52c6.883-4.113,14.089,2.962,21.673,2.017
	c-3.855-3.707-5.952-9.169-8.569-14.112c-2.734,0.625-5.991,0.729-9.072,1.008C1011.97,196.529,1011.003,199.259,1010.323,202.275
	 M994.699,254.188c-0.203,2.387,0.899,3.468,0.504,6.047c5.199,3.373,16.469,2.206,23.185,2.52c-0.939-3.922,1.198-7.88,1.008-12.6
	C1012.085,252.3,1002.833,259.015,994.699,254.188 M966.979,306.1c-1.962-13.307,1.186-30.542,1.512-39.816
	C967.017,279.211,960.951,294.437,966.979,306.1 M969.499,313.659c0.072-5.709,2.445-10.183,4.536-14.615
	c3.296-6.985-4.204-8.907-6.048-14.616c2.818,1.716,3.977,5.095,6.552,7.055c0.785-1.063,0.901-2.793,2.521-3.023
	c-0.597,2.394-3.854,3.764-1.008,5.544c0.601-1.585,1.7-2.667,2.018-4.537c-0.131-1.247-2.335-2.997-1.514-3.527
	c1.451,0.06,0.875,2.148,2.521,2.016c2.576-5.489,2.816-13.312,2.521-21.672h-8.063c-7.312,7.083-7.945,28.614-4.032,39.312
	c-1.113,0.216-1.261-3.029-2.017-1.513C968.972,306.461,967.834,311.461,969.499,313.659 M1031.491,291.987
	c0.806,0.767,3.136,4.615,3.528,2.521c-0.533-8.264,0.834-17.307,0-24.192C1034.082,277.779,1031.418,283.515,1031.491,291.987
	 M1035.523,287.956c4.545-0.37,10.672-3.407,14.614-6.048c-1.577-6.654-6.748-9.716-13.606-11.089
	C1035.933,276.27,1036.029,282.414,1035.523,287.956 M947.323,290.98c2.221,1.14,2.907,3.812,5.544,4.536
	c1.302-1.386,2.147-3.227,2.016-6.049c-1.985-0.7-2.875-2.5-5.544-2.52C949.443,289.066,947.424,289.065,947.323,290.98
	 M966.474,308.619c-1.07-3.464-1.366-7.705-3.022-10.584C962.263,302.784,962.49,307.003,966.474,308.619 M961.939,317.188
	c2.584-0.944,0.639-6.417,3.526-7.056c-1.201,2.831-0.34,7.724-4.031,8.063c-0.082,13.355,4.781,21.762,7.057,32.76
	c2.927-4.633,3.217-11.902,4.536-18.143c-2.701-3.347-7.236-4.86-8.568-9.577c1.347-2.852,3.62-4.78,4.536-8.063
	c-0.861-4.348-4.229-6.189-6.551-9.072C962.273,309.551,961.065,314.341,961.939,317.188 M959.419,369.604
	c2.907,0.621,5.489,1.567,8.568,2.017c0.891-6.873,0.604-14.114,1.008-21.168c-1.788,5.269-4.18,9.933-6.048,15.12
	c1.522,0.324,2.908,0.788,3.022,2.521c-1.787-0.534-5.742-3.812-6.048-2.521C960.847,366.046,959.146,368.114,959.419,369.604
	 M1021.915,370.611c0.137,1.712-0.39,4.087,0.504,5.04c2.875-0.902,4.344-0.082,7.562-0.504c-0.391-2.405,0.788-3.243,0.504-5.544
	C1027.381,369.694,1025.486,370.992,1021.915,370.611 M1020.403,382.708c2.185-1.475,0.574-6.627,0.504-9.071h-2.521
	C1019.015,376.705,1017.849,381.566,1020.403,382.708 M1022.923,383.212c-1.41,0.578-2.619,0.578-4.031,0
	C1018.337,384.816,1023.478,384.816,1022.923,383.212"/>
<path d="M1034.515,192.195c-1.264-1.256-1.43-3.61-2.521-5.04C1032.739,186.938,1034.324,190.186,1034.515,192.195"/>
<path d="M965.467,530.884c-1.665-1.022-1.01-4.366-2.52-5.544c1.033-0.815,1.271-2.427,2.016-3.528
	c-0.729-13.888,4.826-25.711,7.058-38.304c-8.467,2.652-17.603-0.226-22.682-4.032c-1.938,21.621-0.951,41.974-3.022,60.479
	c3.247,5.152,3.854,12.944,8.063,17.137c5.714-0.23,9.999,0.212,14.616-0.505c-3.3,3.238-10.503,1.459-15.624,1.009
	c-3.813-4.249-4.581-11.547-7.56-16.632c-0.09-23.497,3.599-50.77,0.504-73.584c0.896-0.279,2.093-0.26,2.52-1.009
	c2.52-0.09-1.591,1.702,1.008,2.017c1.719-5.746,3.104-14.271,5.545-17.641c-0.503-14.112-2.056-27.177-1.513-42.336
	c-6.043,9.232-11.082,21.073-16.632,33.265c-6.233,13.69-15.556,28.919-12.601,45.863c-2.671-2.23-2.334-7.973-2.017-11.088
	c0.881-8.597,5.942-18.011,9.576-26.208c10.903-24.597,23.47-49.882,38.304-69.049c-4.965-2.13-9.648,4.61-13.606,8.568
	c-9.559,9.557-15.87,23.044-22.178,34.775c-9.411,17.515-17.629,35.68-20.158,55.943c0.549,1.272,1.272-2.826,2.52-1.008
	c1.278,1.578,0.723,4.989,1.512,7.056c-2.013-0.842-0.926-4.785-2.016-6.552c-1.923,1.27-1.37,5.014-3.528,6.048
	c0.723-24.634,11.969-44.332,21.168-62.495c4.468-8.817,8.572-18.213,14.112-25.704c5.698-7.706,13.478-12.813,19.152-20.16
	c1.355,0.219,2.584,1.893,4.031,0.504c1.137-0.375,0.196-2.826,0.505-4.031c0.833,0.51,0.547,2.141,1.008,3.023
	c10.469,5.174,30.659,3.25,44.352,3.527c-5.078,3.006-14.823-0.013-22.68,1.009c-1.555,1.47-1.004,5.043-1.513,7.561
	c1.668,1.141,5.004-0.356,7.057-0.505c-0.318,1.698-2.719,1.313-4.536,1.513c2.159,1.873,5.536,2.527,8.064,4.031
	c-2.716,0.857-5.938-2.119-8.568-3.023c0.851,4.356-0.11,10.526,2.016,13.607c-3.37,0.132-2.546-10.83-2.52-14.111
	c-7.453-0.901-3.844,9.261-6.552,13.104c-8.111-2.643-18.094-3.413-26.712-5.545c9.248,0.831,18.856,1.302,25.198,5.04
	c3.059-2.15,1.146-9.271,3.528-12.097c-3.979,0.053-7.02,1.043-11.088,1.009c2.054-1.307,5.24-1.479,8.568-1.513
	c-3.026-2.351-8.555-2.198-10.584-5.544c3.228,1.475,6.349,3.06,10.079,4.031c1.059-1.797,0.486-5.225,1.513-7.056
	c-4.503-1.882-11.337-1.432-15.12-4.032c-5.132,7.469-10.104,15.098-15.12,22.681c6.088-0.435,11.738,1.063,17.136,2.017
	c3.589,0.634,7.963,0.368,10.08,3.023c-8.909-1.676-17.154-4.013-27.216-4.536c-1.922,1.271-2.312,4.074-4.032,5.544
	c0.32,16.144,1.758,31.17,2.018,47.376c-1.118,0.277-0.719-0.962-1.514-1.008c-0.219,6.275-3.578,8.65-3.526,16.128
	c4.095,5.981,17.521,8.543,21.672,0.504c-0.578,0.604-1.277,0.197-0.504,0c-0.399-3.075,4.274-7.15,5.04-10.584
	c0.515-2.313-0.181-5.812,0-7.057c0.356-2.491,0.718,1.453,0.504,3.024c1.424,5.613-2.973,8.439-4.032,13.104
	c-0.092,1.771,1.191,2.169,2.017,3.023c-2.691,13.667-8.732,27.747-10.08,42.841c-0.39,4.353,0.932,8.66-2.017,11.087
	C965.254,526.394,965.802,528.197,965.467,530.884 M967.987,378.172c-0.159,0.682-0.718,0.963-0.504,2.016
	c0.731-0.275,2.604,0.589,2.52-0.504h-1.512C968.412,379.091,968.578,378.253,967.987,378.172 M989.155,390.268
	c4.634,0.435,2.963-5.438,4.032-8.567h-4.032C989.361,384.579,987.753,387.814,989.155,390.268 M948.331,474.939
	c1.72,8.361,14.562,9.833,23.688,7.563c0.51-3.654,4.028-8.657,2.016-11.595c-7.692,10.288-21.414,1.941-26.712-3.022
	c-0.675,1.437,0.792,4.396,1.008,6.552c6.401,3.979,15.773,7.934,24.192,5.544C963.668,484.168,953.884,478.811,948.331,474.939"/>
<path d="M987.642,140.788c1.825,0.034,4.824,3.233,7.058,4.536C992.642,145.521,989.942,142.023,987.642,140.788"/>
<path d="M967.987,163.467c0.62-0.22,1.035-0.645,1.008-1.512c-5.186,10.775-9.498,26.79-17.64,36.288
	c0.159,1.071,1.56-0.72,2.016-1.008c-0.214,1.979-4.94,3.789-7.056,5.544c14.922-11.118,15.028-41.418,31.752-52.416
	c-0.405,0.267-0.818,0.526-1.514,0.504c3.651-2.733,7.565-5.203,13.608-5.544C979.829,148.43,972.899,154.94,967.987,163.467"/>
<path d="M999.235,200.259c1.603,3.269,1.513,8.231,3.527,11.088C1000.407,210.84,999.547,204.49,999.235,200.259"/>
<path d="M965.972,172.54c-0.03-0.161,0.037-0.345,0-0.504c0.763,3.205-4.375,12.47-6.049,19.152
	c-2.792,11.154-4.173,26.705-5.039,37.8C954.29,205.883,958.407,187.488,965.972,172.54"/>
<path d="M1046.611,181.107c1.053,2.551,2.853,9.476,2.016,10.584C1048.176,187.943,1047.008,184.911,1046.611,181.107"/>
<path d="M1041.571,201.771c3.989,2.061,8.188,8.272,12.6,11.592C1049.441,212.043,1045.305,205.769,1041.571,201.771"/>
<path d="M975.547,208.828c2.224-0.865,6.039,1.007,8.064,2.016C981.907,211.189,978.146,209.264,975.547,208.828"/>
<path d="M974.035,213.868c-1.569-1.021-2.819,0.25-5.04-0.504c0.95-1.494,2.172-0.799,2.016-2.52
	c6.633-0.416,11.203,1.229,15.12,3.528c-1.183,1.987,0.949,1.542,1.008,3.528c-3.543-1.434-10.59-6.391-15.625-2.52
	C970.489,214.961,973.11,214,974.035,213.868"/>
<path d="M958.411,211.852c1.434,6.967,2.146,14.653,3.024,22.176C959.321,227.742,958.985,219.678,958.411,211.852"/>
<path d="M929.683,232.012v14.616c-4.498,1.717-10.411,2.021-16.129,2.52c3.945-2.104,10.591-1.507,15.12-3.024v-13.608
	c-5.275-1.188-10.605,1.784-16.632,1.512c0.667,4.374,0.677,9.403,1.008,14.112c-1.519-3.19-1.783-10.306-1.008-14.112
	C916.726,232.458,923.873,230.787,929.683,232.012"/>
<path d="M1005.283,243.1v-2.52c-4.233,0.201-7.896-0.167-11.592-0.504c-1.569,1.161-1.569,2.367,0,3.528
	c-1.767,0.963-5.082-3.148-3.528-5.544c6.199,2.772,14.339,0.982,21.672,2.016c-0.135,2.385-2.202,2.838-3.022,4.536
	c-1.462-1.01,1.451-1.867,1.008-3.528C1007.479,238.939,1007.427,243.374,1005.283,243.1"/>
<path d="M964.963,264.771c0.486,9.728-3.243,19.603-4.032,29.736C960.52,284.855,964.104,274.833,964.963,264.771"/>
<path d="M918.595,278.883c3.396,1.481,6.17,7.94,8.568,12.096c2.396-0.965,3.186-3.536,4.535-5.544
	c0.987,2.678-2.673,5.046-4.031,7.056C923.98,288.618,922.203,282.835,918.595,278.883"/>
<path d="M989.155,320.212c-1.838,2.025-5.021,2.709-8.568,3.023C982.489,322.042,986.176,321.592,989.155,320.212"/>
<path d="M954.883,331.3c1.261,3.275,2.189,6.882,2.521,11.088C955.772,339.482,955.497,335.222,954.883,331.3"/>
<path d="M1022.923,402.363c-6.624-0.051-17.05,3.084-25.199,1.514c8.309-0.766,16.763-1.383,24.695-2.521
	c-1.117-5.771-3.547-10.229-4.536-16.128c12.615,30.057,15.055,70.291,19.656,108.36c0.729,1.336,1.126-1.852,3.024-1.009
	c1.263,1.425,2.181,3.194,3.022,5.04c1.107-2.253,1.047-5.673,1.009-9.071c2.24-2.1,2.762,6.138,4.031,2.016
	c1.041,0.434,0.532,3.509,0,4.032c-1.412-0.939-1.942-2.761-2.52-4.536c-1.193,2.335-0.619,6.438-1.514,9.072
	c-2.694-0.496-2.632-3.751-4.03-5.544c-2.524-0.836-1.774,3.117-3.528,1.512c-5.373-29.402-5.701-63.852-13.607-90.72
	c-7.079,2.048-16.021,4.163-25.2,2.521c0.222,9.355,2.008,21.512,2.521,32.255c7.221,2.121,18.604,3.382,26.712,1.514
	c0.216-2.474,0.675-4.702,1.009-7.058c0.802,12.774-4.918,25.938-3.023,39.816c0.745-0.584,1.27-0.584,2.016,0
	c0.519-0.795,0.679-2.881-2.016-2.521c0.463-1.732,4.221-0.037,4.536,1.514c0.432,2.336-0.795,0.527-1.009,1.512
	c3.498,13.975,2.447,32.496,6.048,46.368c-1.91-0.367-2.147-2.063-2.521-3.528c-2.164-8.532-0.313-21.617-2.521-30.744
	c-4.453,2.642-14.73,10.732-22.177,4.536c2.979,11.078,14.198,19.197,13.104,33.265c-1.24,2.803-3.003,1.851-1.514,5.544
	c-0.864-0.646-1.011-2.011-2.016-2.521c-0.159-2.007,2.331-1.365,2.521-3.023c-1.844-20.333-14.431-29.922-20.16-46.367
	c3.858,0.56,8.435,4.631,12.601,6.552c-3.741,0.208-7.532-3.889-11.089-5.544c0.543,13.836,22.865,12.967,28.225,2.52
	c-0.572-1.778-0.557-4.146-1.009-6.048c-4.242,3.677-10.021,8.426-15.623,9.072c5.826-2.573,10.613-6.187,15.623-9.576
	c-1.481-0.415-1.714-0.924-4.03-0.504c-1.652-11.15,1.887-21.229,2.52-31.752c-6.957,0.902-19.18,0.169-26.208-2.017
	c2.758,9.225-0.496,19.528,1.512,28.729c1.022,4.684,5.027,6.975,5.545,11.593c-2.15-0.706-2.357-3.354-3.527-5.041
	c-1.477-0.131-1.55,1.141-3.023,1.009c-0.154-1.33,1.052-1.3,2.017-1.513c-0.283-2.237-1.328-3.712-2.017-5.544
	c1.156-22.828-4.974-41.059-3.529-62.495c-0.081-0.587,0.111-0.896,0.505-1.009C1006.979,407.12,1017.731,406.34,1022.923,402.363
	 M1005.787,488.548c6.729,6.715,23.01,1.854,23.185-6.553C1025.063,488.99,1013.499,492.403,1005.787,488.548"/>
<path d="M1035.02,522.819c0.76-1.042,1.605,3.217,2.016,5.544c0.633,3.604,1.695,9.165,0,11.089
	C1037.488,535.825,1036.181,527.896,1035.02,522.819"/>
</svg>
