<?xml version="1.0" encoding="utf-8"?>
<!-- Generator: Adobe Illustrator 14.0.0, SVG Export Plug-In . SVG Version: 6.00 Build 43363)  -->
<!DOCTYPE svg PUBLIC "-//W3C//DTD SVG 1.1//EN" "http://www.w3.org/Graphics/SVG/1.1/DTD/svg11.dtd">
<svg version="1.1" id="图层_1" xmlns="http://www.w3.org/2000/svg" xmlns:xlink="http://www.w3.org/1999/xlink" x="0px" y="0px"
	 width="540px" height="390px" viewBox="0 0 540 390" enable-background="new 0 0 540 390" xml:space="preserve">
<g>
	<path fill-rule="evenodd" clip-rule="evenodd" fill="#FFFFFF" d="M0.002-1c180.004,0,359.996,0,540,0
		c0,130.574,0,261.153,0,391.726c-180.335,0-360.665,0-541.002,0c0-129.571,0-259.15,0-388.72C-1.086,0.584-1.166-0.832,0.002-1z
		 M150.28,389.724c26.716,0,53.433,0,80.148,0c26.716,0,53.433,0,80.148,0c0-129.906,0-259.816,0-389.722
		c-26.716,0-53.432,0-80.148,0c-26.716,0-53.433,0-80.148,0c-27.384,0-54.768,0-82.152,0c0,129.907,0,259.816,0,389.722
		C95.512,389.724,122.896,389.724,150.28,389.724z M392.729,389.724c27.05,0,54.101,0,81.15,0c0-129.906,0-259.816,0-389.722
		c-27.05,0-54.101,0-81.15,0s-54.101,0-81.15,0c0,129.906,0,259.815,0,389.722C338.629,389.724,365.68,389.724,392.729,389.724z"/>
	<path fill-rule="evenodd" clip-rule="evenodd" fill="#81FEE6" d="M150.28,0.002c0,129.907,0,259.816,0,389.722
		c-27.384,0-54.768,0-82.152,0c0-129.905,0-259.815,0-389.722C95.512,0.002,122.896,0.002,150.28,0.002z M124.232,164.306
		c-11.1-1.868-22.738,0.655-32.059-1.002c-0.4,3.976-4.15,9.831-1.002,14.026c6.368-1.646,3.452-12.578,13.024-11.021
		c0,16.364,0,32.727,0,49.091c-2.458,0.881-5.777,0.901-6.011,4.007c6.345,0,12.69,0,19.036,0c1.539-4.878-3.673-3.006-5.009-5.009
		c0.666-15.698-1.333-34.061,1.001-48.089c8.231-1.218,6.879,7.147,11.021,10.019c1.775-0.229,5.017,1.01,4.007-2.004
		C124.321,173.568,127.019,166.195,124.232,164.306z"/>
	<path fill-rule="evenodd" clip-rule="evenodd" fill="#FEE065" d="M150.28,0.002c26.716,0,53.433,0,80.148,0
		c0,129.907,0,259.816,0,389.722c-26.716,0-53.432,0-80.148,0C150.28,259.818,150.28,129.909,150.28,0.002z M189.353,187.349
		c-1.38-1.292-0.991-4.352-1.002-7.013c-5.571-2.022-8.849,1.888-15.027,2.004c-0.803,3.809,4.737,1.274,7.013,2.003
		c2.762,7.614,2.588,20.614,1.002,31.058c-2.492,1.181-7.812-0.465-8.015,3.005c5.766,1.074,20.923,2.902,25.046-1.002
		c-1.305-2.763-5.415-2.003-8.015-1.002c-5.751-12.169-0.146-28.332,9.017-32.059c2.389,1.619,1.09,6.925,5.009,7.013
		c1.336,0,2.672,0,4.007,0c0.986-4.005,0.986-6.013,0-10.019C200.065,177.927,192.901,182.805,189.353,187.349z"/>
	<path fill-rule="evenodd" clip-rule="evenodd" fill="#FFC2FF" d="M230.429,0.002c26.716,0,53.433,0,80.148,0
		c0,129.906,0,259.815,0,389.722c-26.716,0-53.432,0-80.148,0C230.429,259.818,230.429,129.909,230.429,0.002z M254.473,193.36
		c3.17,1.376,3.349,0.218,7.013,0c-0.631-4.639,0.784-7.231,3.005-9.017c6.93-1.656,12.436,1.607,12.022,10.019
		c-30.684-3.766-31.586,37.258-1.001,23.042c2.347,1.994,6.374,2.309,11.021,2.004c1.835-1.767,3.27-7.249,2.003-9.017
		c-3.508-1.41-3.154,6.068-5.009,3.006c-2.109-6.219,0.717-23.4-3.006-31.058C270.642,179.56,251.817,177.803,254.473,193.36z"/>
	<path fill-rule="evenodd" clip-rule="evenodd" fill="#84FF67" d="M392.729,0.002c27.05,0,54.101,0,81.15,0
		c0,129.906,0,259.815,0,389.722c-27.05,0-54.101,0-81.15,0C392.729,259.818,392.729,129.909,392.729,0.002z M425.791,176.329
		c-0.64-5.206,2.209-8.029,0-12.022c-5.419-1.077-5.967,2.716-11.021,2.004c8.031,10.336,2.274,34.46,4.007,51.094
		c-2.235,0.436-3.571,1.771-4.007,4.008c5.009,0,10.019,0,15.027,0c-4.09-2.88-4.682-18.927,2.004-16.029
		c2.485,6.086,8.946,8.804,5.01,16.029c5.009,0,10.019,0,15.027,0c-5.508-6.849-10.783-13.929-15.027-22.041
		c0.303-8.379,9.618-7.747,12.021-14.026c-3.362-2.315-11.003-0.351-16.029-1.002c-0.979,4.318,3.764,2.915,4.008,6.011
		c-4.029,1.982-5.378,6.645-9.017,9.017c-1.409-0.261-1.143-2.197-2.004-3.006C427.312,191.855,427.563,180.8,425.791,176.329z"/>
	<path fill-rule="evenodd" clip-rule="evenodd" fill="#FFFFFF" d="M280.521,182.34c3.723,7.658,0.896,24.839,3.006,31.058
		c1.854,3.063,1.501-4.416,5.009-3.006c1.267,1.768-0.168,7.25-2.003,9.017c-4.646,0.305-8.674-0.01-11.021-2.004
		c-30.585,14.216-29.683-26.808,1.001-23.042c0.414-8.412-5.092-11.675-12.022-10.019c-2.222,1.786-3.636,4.378-3.005,9.017
		c-3.665,0.218-3.843,1.376-7.013,0C251.817,177.803,270.642,179.56,280.521,182.34z M264.492,217.404
		c4.881-0.128,6.97-3.048,11.021-4.007c2.261-3.59-0.076-11.863,1.001-14.026C268.479,195.012,251.83,209.909,264.492,217.404z"/>
	<path fill-rule="evenodd" clip-rule="evenodd" fill="#FFC2FF" d="M276.514,199.371c-1.077,2.163,1.26,10.437-1.001,14.026
		c-4.051,0.959-6.14,3.879-11.021,4.007C251.83,209.909,268.479,195.012,276.514,199.371z"/>
	<path fill-rule="evenodd" clip-rule="evenodd" fill="#81FEE6" d="M425.791,176.329c1.772,4.471,1.521,15.526,0,20.037
		C425.392,193.268,426.074,182.644,425.791,176.329z"/>
	<path fill-rule="evenodd" clip-rule="evenodd" fill="#81FEE6" d="M338.629,189.353c2.299-3.712,3.7-8.322,10.019-8.015
		C343.927,182.628,342.525,187.238,338.629,189.353z"/>
	<path fill-rule="evenodd" clip-rule="evenodd" fill="#81FEE6" d="M358.666,180.336c4.503,0.507,6.719,3.3,8.016,7.013
		C363.811,185.21,362.249,181.762,358.666,180.336z"/>
	<path fill-rule="evenodd" clip-rule="evenodd" fill="#FFFFFF" d="M128.239,174.325c1.01,3.014-2.232,1.775-4.007,2.004
		c-4.142-2.872-2.79-11.236-11.021-10.019c-2.334,14.029-0.336,32.391-1.001,48.089c1.336,2.003,6.548,0.131,5.009,5.009
		c-6.345,0-12.69,0-19.036,0c0.234-3.105,3.553-3.126,6.011-4.007c0-16.364,0-32.728,0-49.091
		c-9.572-1.557-6.656,9.374-13.024,11.021c-3.148-4.196,0.602-10.05,1.002-14.026c9.321,1.657,20.959-0.866,32.059,1.002
		C127.019,166.195,124.321,173.568,128.239,174.325z"/>
	<path fill-rule="evenodd" clip-rule="evenodd" fill="#FFFFFF" d="M208.388,181.338c0.986,4.005,0.986,6.013,0,10.019
		c-1.335,0-2.671,0-4.007,0c-3.919-0.088-2.621-5.394-5.009-7.013c-9.162,3.728-14.768,19.89-9.017,32.059
		c2.6-1.001,6.71-1.761,8.015,1.002c-4.123,3.904-19.28,2.076-25.046,1.002c0.203-3.47,5.522-1.824,8.015-3.005
		c1.586-10.444,1.76-23.444-1.002-31.058c-2.276-0.729-7.816,1.805-7.013-2.003c6.178-0.116,9.457-4.026,15.027-2.004
		c0.011,2.661-0.378,5.722,1.002,7.013C192.901,182.805,200.065,177.927,208.388,181.338z"/>
	<path fill-rule="evenodd" clip-rule="evenodd" fill="#67E0FF" d="M392.729,0.002c0,129.907,0,259.816,0,389.722
		c-27.05,0-54.101,0-81.15,0c0-129.906,0-259.816,0-389.722C338.629,0.002,365.68,0.002,392.729,0.002z M338.629,189.353
		c-0.138,1.866-0.658,3.349-2.003,4.008c-5.434,20.636,12.539,31.815,25.046,26.048c1.998-0.921,10.422-7.898,5.01-12.022
		c-4.902,3.854-5.286,9.877-12.022,10.019c-14.533,0.306-16.504-34.461,3.005-33.061c1.621,3.723-0.196,10.884,5.01,11.021
		c4.078,0.071,4.313-3.702,4.008-8.015c-1.297-3.713-3.513-6.506-8.016-7.013c-3.045,0.628-8.629-1.283-10.019,1.002
		C342.329,181.03,340.928,185.641,338.629,189.353z"/>
	<path fill-rule="evenodd" clip-rule="evenodd" fill="#FFFFFF" d="M425.791,196.365c0.861,0.809,0.595,2.745,2.004,3.006
		c3.639-2.372,4.987-7.035,9.017-9.017c-0.244-3.096-4.986-1.693-4.008-6.011c5.026,0.651,12.667-1.313,16.029,1.002
		c-2.403,6.279-11.719,5.646-12.021,14.026c4.244,8.112,9.52,15.192,15.027,22.041c-5.009,0-10.019,0-15.027,0
		c3.937-7.226-2.524-9.943-5.01-16.029c-6.686-2.897-6.094,13.149-2.004,16.029c-5.009,0-10.019,0-15.027,0
		c0.436-2.236,1.771-3.572,4.007-4.008c-1.732-16.634,4.024-40.758-4.007-51.094c5.054,0.712,5.602-3.081,11.021-2.004
		c2.209,3.993-0.64,6.817,0,12.022C426.074,182.644,425.392,193.268,425.791,196.365z"/>
	<path fill-rule="evenodd" clip-rule="evenodd" fill="#FFFFFF" d="M348.647,181.338c1.39-2.285,6.974-0.374,10.019-1.002
		c3.583,1.426,5.145,4.874,8.016,7.013c0.305,4.313,0.07,8.085-4.008,8.015c-5.206-0.137-3.389-7.298-5.01-11.021
		c-19.509-1.4-17.538,33.367-3.005,33.061c6.736-0.142,7.12-6.165,12.022-10.019c5.412,4.124-3.012,11.102-5.01,12.022
		c-12.507,5.768-30.479-5.412-25.046-26.048c1.345-0.659,1.865-2.142,2.003-4.008C342.525,187.238,343.927,182.628,348.647,181.338z
		"/>
</g>
</svg>
