<?xml version="1.0" encoding="utf-8"?>
<!-- Generator: Adobe Illustrator 14.0.0, SVG Export Plug-In . SVG Version: 6.00 Build 43363)  -->
<!DOCTYPE svg PUBLIC "-//W3C//DTD SVG 1.1//EN" "http://www.w3.org/Graphics/SVG/1.1/DTD/svg11.dtd">
<svg version="1.1" id="图层_1" xmlns="http://www.w3.org/2000/svg" xmlns:xlink="http://www.w3.org/1999/xlink" x="0px" y="0px"
	 width="1280px" height="720px" viewBox="0 0 1280 720" enable-background="new 0 0 1280 720" xml:space="preserve">
<g>
	<polygon fill="#7EA4C9" points="0,0 0,260.267 129.96,130.133 	"/>
	<polygon fill="#7EA4C9" points="183.785,0 183.969,92.079 91.897,91.903 	"/>
	<polyline fill="#737474" points="275.81,0.322 275.8,92.208 183.729,92.033 183.79,0 275.81,0.322 	"/>
	<polygon fill="#7EA4C9" points="276.356,184.027 184.576,92.018 184.514,183.975 276.402,275.879 	"/>
	<path fill="#737373" d="M145.479,163.267c-42.891,37.911-86.465,75.782-130.134,112.926
		c39.075-40.564,86.071-87.384,130.134-129.959c43.758,43.742,86.85,84.652,129.964,129.646
		C232.596,243.063,185.908,203.606,145.479,163.267z"/>
	<g>
		<path fill="#FFFFFF" d="M193.516,46.865c0.379-18.156,6.189-27.86,17.435-29.113c10.861,1.252,16.578,10.957,17.149,29.113
			c-0.763,18.157-6.479,27.656-17.149,28.487C199.898,74.521,194.087,65.021,193.516,46.865z M200.662,46.865
			c0,14.821,3.429,22.437,10.289,22.853c6.667-0.416,10.098-8.032,10.29-22.853c-0.191-14.605-3.622-22.226-10.29-22.852
			C204.091,24.639,200.662,32.26,200.662,46.865z"/>
		<path fill="#FFFFFF" d="M265.256,58.448c-0.572,10.854-6.1,16.489-16.577,16.904c-8.767-0.206-13.912-4.382-15.435-12.522
			c0-2.294,0.952-3.649,2.858-4.069c1.523,0,2.76,1.252,3.715,3.757c1.331,4.803,4.189,7.2,8.575,7.2
			c6.096-0.416,9.431-3.961,10.003-10.644c0-7.092-3.05-10.643-9.146-10.643c-2.671,0-4.001-0.939-4.001-2.817
			c-0.192-1.458,0.951-2.504,3.429-3.13c4.953-1.042,7.432-4.173,7.432-9.392c-0.384-5.635-2.858-8.658-7.432-9.078
			c-4.572,0.21-7.052,2.925-7.431,8.139c-0.192,2.505-1.242,3.654-3.144,3.444c-1.907,0-2.858-1.145-2.858-3.444
			c0.572-8.97,5.145-13.774,13.72-14.4c8.19,0.626,12.669,5.533,13.433,14.713c-0.192,5.43-2.192,9.499-6.002,12.208
			C261.92,46.973,264.872,51.561,265.256,58.448z"/>
	</g>
</g>
<g>
	<path fill="#737474" d="M314.277,197.39c3.088,0.913,4.632,2.664,4.632,5.256c0,2.16-0.964,3.967-2.891,5.418
		c-1.927,1.453-4.311,2.179-7.15,2.179c-1.578,0-2.637-0.198-3.178-0.595c-0.541-0.396-0.812-1.193-0.812-2.394
		c0-0.552,0.051-2.106,0.152-4.662c0.102-2.556,0.152-4.998,0.152-7.326c0-5.496-0.327-8.964-0.98-10.404
		c1.488,0,2.794-0.023,3.922-0.072c1.127-0.047,1.758-0.072,1.894-0.072c2.682,0,4.823,0.625,6.424,1.872
		c1.6,1.248,2.4,2.868,2.4,4.86C318.841,194.066,317.32,196.046,314.277,197.39z M308.09,187.418
		c-0.045,1.224-0.079,2.46-0.102,3.708l-0.034,5.22c0.631,0.072,1.228,0.108,1.792,0.108c2.051,0,3.572-0.426,4.564-1.278
		c0.991-0.852,1.487-1.974,1.487-3.366c0-1.368-0.502-2.459-1.504-3.276c-1.003-0.815-2.474-1.224-4.412-1.224
		C309.341,187.31,308.743,187.346,308.09,187.418z M307.988,198.722c0,4.248,0.021,7.104,0.068,8.568
		c0.744,0.12,1.454,0.18,2.13,0.18c1.735,0,3.104-0.426,4.108-1.278c1.002-0.852,1.504-1.938,1.504-3.258
		c0-1.368-0.524-2.424-1.572-3.168c-1.048-0.744-2.586-1.116-4.615-1.116C309.092,198.65,308.552,198.674,307.988,198.722z"/>
	<path fill="#737474" d="M328.173,209.342c-0.901,0.528-1.713,0.792-2.434,0.792c-0.429,0-0.767-0.12-1.014-0.36
		c-0.249-0.239-0.372-1.008-0.372-2.304c0-0.983,0.062-2.85,0.186-5.598s0.186-5.682,0.186-8.802c0-4.248-0.316-6.912-0.947-7.992
		c0.901-0.527,1.712-0.792,2.434-0.792c0.586,0,0.969,0.162,1.15,0.486c0.18,0.324,0.27,0.906,0.27,1.746
		c0,1.345-0.062,3.252-0.186,5.724c-0.125,2.472-0.186,5.616-0.186,9.432C327.26,205.802,327.564,208.358,328.173,209.342z"/>
	<path fill="#737474" d="M343.59,207.758c-0.608,0.936-1.392,1.65-2.35,2.142c-0.958,0.492-1.979,0.738-3.06,0.738
		c-1.104,0-2.068-0.246-2.891-0.738c-0.823-0.491-1.465-1.235-1.927-2.231c-0.462-0.996-0.693-2.406-0.693-4.23l0.169-5.328
		c0-2.232-0.259-3.816-0.778-4.752c1.037-0.504,1.826-0.756,2.367-0.756c0.813,0,1.217,0.648,1.217,1.944
		c0,0.816-0.045,2.016-0.135,3.6c-0.09,1.584-0.135,2.904-0.135,3.96c0,2.424,0.271,4.032,0.812,4.824s1.386,1.188,2.536,1.188
		c0.879,0,1.752-0.252,2.621-0.757c0.867-0.504,1.606-1.224,2.214-2.159c0.09-1.849,0.135-3.468,0.135-4.86
		c0-3.504-0.304-5.82-0.913-6.948c0.969-0.527,1.758-0.792,2.367-0.792c0.541,0,0.885,0.175,1.031,0.522
		c0.146,0.348,0.22,1.038,0.22,2.07l-0.135,7.848c0,3.36,0.293,5.521,0.879,6.479c-0.97,0.528-1.736,0.792-2.299,0.792
		c-0.473,0-0.794-0.162-0.963-0.485C343.708,209.504,343.612,208.814,343.59,207.758z"/>
	<path fill="#737474" d="M362.692,206.786c0.473,0.552,0.71,1.08,0.71,1.584c0,0.696-0.423,1.248-1.268,1.655
		c-0.845,0.408-2.023,0.612-3.533,0.612c-2.592,0-4.644-0.81-6.153-2.43c-1.51-1.62-2.265-3.81-2.265-6.57
		c0-2.736,0.755-4.992,2.265-6.768c1.51-1.776,3.437-2.664,5.782-2.664c1.803,0,3.291,0.576,4.463,1.728
		c1.171,1.152,1.758,2.592,1.758,4.32c0,1.368-0.496,2.334-1.488,2.898c-0.992,0.564-2.728,0.846-5.207,0.846
		c-1.601,0-3.223-0.131-4.869-0.396c-0.067,1.992,0.44,3.582,1.521,4.771c1.082,1.188,2.457,1.781,4.125,1.781
		C360.156,208.153,361.542,207.698,362.692,206.786z M353.09,199.514c1.938,0.265,3.618,0.396,5.038,0.396
		c1.533,0,2.524-0.138,2.975-0.414c0.451-0.275,0.676-0.761,0.676-1.458c0-1.104-0.344-1.985-1.031-2.646
		c-0.688-0.66-1.64-0.99-2.857-0.99c-1.24,0-2.288,0.444-3.144,1.332C353.89,196.622,353.337,197.882,353.09,199.514z"/>
	<path fill="#737474" d="M382.2,207.146c-1.194,1.225-2.383,2.112-3.566,2.664c-1.183,0.552-2.53,0.828-4.04,0.828
		c-2.412,0-4.306-0.684-5.681-2.052s-2.063-3.144-2.063-5.328c0-3.552,1.814-6.3,5.443-8.244c-0.496-1.344-0.743-2.592-0.743-3.744
		c0-1.896,0.619-3.462,1.859-4.698c1.239-1.236,2.896-1.854,4.97-1.854c1.194,0,2.209,0.234,3.043,0.702
		c0.834,0.468,1.251,1.038,1.251,1.71c0,0.768-0.496,1.417-1.487,1.944c-0.834-1.128-1.916-1.692-3.246-1.692
		c-1.06,0-1.905,0.36-2.536,1.08c-0.631,0.72-0.946,1.692-0.946,2.916c0,3.312,2.479,7.224,7.438,11.736
		c0.901-1.824,1.353-3.636,1.353-5.437c0.541-0.12,1.014-0.18,1.42-0.18c0.991,0,1.487,0.457,1.487,1.368
		c0,1.224-0.777,3.216-2.333,5.976c1.803,1.464,3.234,2.196,4.294,2.196c0.203,0,0.406-0.023,0.608-0.072
		c0.271,0.576,0.406,1.128,0.406,1.656c0,0.528-0.136,0.954-0.406,1.277c-0.271,0.324-0.643,0.486-1.115,0.486
		C386.303,210.386,384.5,209.306,382.2,207.146z M380.273,205.454c-2.683-2.4-4.981-5.148-6.897-8.244
		c-2.457,1.368-3.686,3.24-3.686,5.616c0,1.607,0.508,2.868,1.521,3.779c1.015,0.913,2.311,1.368,3.889,1.368
		C377.174,207.974,378.898,207.134,380.273,205.454z"/>
	<path fill="#737474" d="M409.079,185.474c0.766-0.264,1.386-0.396,1.859-0.396c0.969,0,1.454,0.625,1.454,1.872
		c0,1.993-1.342,5.748-4.023,11.268c2.366,4.992,3.809,7.488,4.327,7.488c0.226,0,0.671-0.474,1.336-1.422
		c0.664-0.948,1.566-2.568,2.705-4.86c1.138-2.292,1.949-4.392,2.434-6.3c0.484-1.908,0.728-3.618,0.728-5.13
		c0-1.104-0.136-2.028-0.406-2.772c0.767-0.288,1.408-0.432,1.928-0.432c0.518,0,0.93,0.162,1.233,0.486
		c0.305,0.324,0.457,0.942,0.457,1.854c0,1.872-0.372,3.918-1.116,6.138c-0.744,2.22-1.572,4.225-2.485,6.012
		c-0.912,1.788-2.04,3.774-3.381,5.958c-1.341,2.185-2.282,3.631-2.823,4.339c-0.54,0.707-0.912,1.062-1.115,1.062
		c-0.587,0-2.39-3.323-5.409-9.972c-3.878,6.648-6.313,9.972-7.304,9.972c-0.428,0-1.054-0.869-1.876-2.61
		c-0.823-1.739-2.249-5.525-4.277-11.357c-2.096-6.024-3.696-9.516-4.801-10.476c0.721-0.936,1.487-1.404,2.299-1.404
		c0.789,0,1.432,0.45,1.928,1.35c0.495,0.9,1.577,3.882,3.245,8.946c2.367,7.176,3.81,10.764,4.328,10.764
		c0.338,0,0.964-0.636,1.876-1.908c0.913-1.271,2.068-3.227,3.466-5.868c-2.457-6.624-4.429-10.452-5.917-11.484
		c0.608-1.008,1.363-1.512,2.266-1.512c1.194,0,2.941,3.469,5.24,10.404c1.42-3.336,2.13-5.952,2.13-7.848
		C409.383,186.89,409.281,186.17,409.079,185.474z"/>
	<path fill="#737474" d="M429.365,209.378c-0.857,0.504-1.646,0.756-2.367,0.756c-0.563,0-0.93-0.144-1.099-0.432
		c-0.17-0.288-0.254-0.9-0.254-1.836c0-1.032,0.072-2.929,0.22-5.688c0.146-2.759,0.22-5.711,0.22-8.856
		c0-2.88-0.057-4.8-0.169-5.76c-0.113-0.96-0.327-1.8-0.644-2.52c0.901-0.504,1.69-0.756,2.367-0.756
		c0.586,0,0.958,0.187,1.115,0.558c0.158,0.373,0.237,0.978,0.237,1.818c0,0.625-0.034,1.41-0.103,2.358
		c-0.067,0.948-0.146,2.646-0.235,5.094c1.667-1.272,3.347-1.908,5.037-1.908c1.015,0,1.909,0.187,2.688,0.558
		c0.777,0.373,1.414,0.913,1.91,1.62c0.495,0.708,0.828,1.452,0.997,2.232c0.169,0.78,0.254,1.806,0.254,3.078l-0.102,4.608
		c0,2.496,0.28,4.176,0.845,5.04c-1.037,0.528-1.825,0.792-2.366,0.792c-0.563,0-0.93-0.149-1.099-0.45
		c-0.169-0.3-0.255-0.833-0.255-1.602c0-0.648,0.034-1.65,0.103-3.006c0.067-1.356,0.102-2.574,0.102-3.654
		c0-2.472-0.288-4.224-0.861-5.256c-0.575-1.032-1.527-1.548-2.857-1.548c-1.194,0-2.659,0.588-4.395,1.764
		c-0.068,2.712-0.103,4.812-0.103,6.3c0,1.872,0.057,3.288,0.169,4.248C428.835,207.89,429.049,208.706,429.365,209.378z"/>
	<path fill="#737474" d="M448.434,209.342c-0.901,0.528-1.747,0.792-2.536,0.792c-0.519,0-0.879-0.162-1.081-0.486
		c-0.203-0.323-0.305-1.062-0.305-2.214c0-0.864,0.052-2.039,0.151-3.527c0.102-1.488,0.152-3.012,0.152-4.572
		c0-2.736-0.282-4.704-0.846-5.904c0.879-0.527,1.725-0.792,2.535-0.792c0.879,0,1.319,0.528,1.319,1.584l-0.203,4.104
		c-0.067,1.632-0.103,3.132-0.103,4.5C447.521,205.922,447.825,208.094,448.434,209.342z M446.337,185.294
		c0.541,0,1.003,0.186,1.387,0.558c0.384,0.373,0.574,0.846,0.574,1.422c0,0.672-0.214,1.23-0.643,1.674
		c-0.429,0.444-0.992,0.666-1.69,0.666c-0.586,0-1.048-0.174-1.386-0.522c-0.338-0.348-0.507-0.822-0.507-1.422
		c0-0.648,0.22-1.206,0.659-1.674C445.171,185.528,445.706,185.294,446.337,185.294z"/>
	<path fill="#737474" d="M454.181,196.454c-0.607,0.024-1.049,0.036-1.318,0.036c-0.52,0-0.867-0.072-1.049-0.216
		c-0.181-0.144-0.271-0.372-0.271-0.684c0-0.336,0.103-0.744,0.305-1.224c0.767,0.048,1.601,0.036,2.502-0.036
		c0.067-2.52-0.146-4.32-0.643-5.4c0.969-0.504,1.725-0.756,2.266-0.756c0.833,0,1.251,0.636,1.251,1.908
		c0,0.312-0.078,1.692-0.236,4.14c1.533-0.192,2.536-0.288,3.01-0.288c0.766,0,1.148,0.276,1.148,0.828
		c0,0.432-0.202,0.972-0.607,1.62c-0.475-0.144-1.062-0.216-1.759-0.216c-0.429,0-1.095,0.024-1.994,0.072
		c-0.181,3.312-0.271,5.736-0.271,7.272c0,1.896,0.151,3.126,0.456,3.69c0.306,0.563,0.728,0.846,1.269,0.846
		c0.383,0,0.777-0.145,1.184-0.432c0.181,0.408,0.271,0.792,0.271,1.151c0,0.576-0.216,1.032-0.644,1.368
		c-0.429,0.336-1.014,0.504-1.758,0.504c-1.217,0-2.108-0.414-2.671-1.242c-0.563-0.828-0.846-2.105-0.846-3.834
		C453.774,204.77,453.91,201.734,454.181,196.454z"/>
	<path fill="#737474" d="M475.447,206.786c0.474,0.552,0.71,1.08,0.71,1.584c0,0.696-0.423,1.248-1.269,1.655
		c-0.846,0.408-2.022,0.612-3.532,0.612c-2.594,0-4.645-0.81-6.153-2.43c-1.511-1.62-2.267-3.81-2.267-6.57
		c0-2.736,0.756-4.992,2.267-6.768c1.51-1.776,3.437-2.664,5.781-2.664c1.803,0,3.291,0.576,4.463,1.728s1.758,2.592,1.758,4.32
		c0,1.368-0.496,2.334-1.487,2.898c-0.992,0.564-2.728,0.846-5.207,0.846c-1.601,0-3.224-0.131-4.868-0.396
		c-0.067,1.992,0.439,3.582,1.521,4.771c1.082,1.188,2.456,1.781,4.124,1.781C472.911,208.153,474.298,207.698,475.447,206.786z
		 M465.845,199.514c1.938,0.265,3.618,0.396,5.038,0.396c1.532,0,2.524-0.138,2.977-0.414c0.449-0.275,0.676-0.761,0.676-1.458
		c0-1.104-0.344-1.985-1.031-2.646c-0.688-0.66-1.64-0.99-2.855-0.99c-1.24,0-2.288,0.444-3.146,1.332
		C466.646,196.622,466.093,197.882,465.845,199.514z"/>
	<path fill="#737474" d="M390.054,231.482c-1.173-0.576-2.57-0.864-4.192-0.864c-3.134,0-5.664,0.912-7.591,2.735
		c-1.927,1.824-2.891,4.213-2.891,7.164c0,3.001,0.924,5.454,2.772,7.362c1.848,1.908,4.158,2.862,6.931,2.862
		c1.759,0,3.393-0.456,4.902-1.368c0.631,0.841,0.947,1.561,0.947,2.16c0,0.744-0.496,1.313-1.488,1.71
		c-0.992,0.396-2.332,0.594-4.023,0.594c-3.944,0-7.167-1.242-9.669-3.726c-2.502-2.484-3.753-5.563-3.753-9.234
		c0-3.792,1.425-6.972,4.276-9.54c2.852-2.567,6.407-3.852,10.667-3.852c1.353,0,2.351,0.12,2.992,0.359
		c0.643,0.24,0.964,0.685,0.964,1.332C390.898,229.754,390.616,230.522,390.054,231.482z"/>
	<path fill="#737474" d="M411.083,244.19c0,2.663-0.885,4.938-2.654,6.821c-1.77,1.885-3.928,2.826-6.475,2.826
		c-2.569,0-4.654-0.84-6.255-2.52c-1.601-1.68-2.4-3.84-2.4-6.48c0-2.784,0.862-5.052,2.587-6.804
		c1.724-1.752,3.949-2.628,6.677-2.628c2.479,0,4.52,0.828,6.12,2.483C410.282,239.546,411.083,241.646,411.083,244.19z
		 M396.139,244.838c0,1.896,0.569,3.45,1.708,4.662c1.138,1.212,2.574,1.818,4.311,1.818c1.803,0,3.268-0.654,4.396-1.962
		c1.126-1.309,1.69-2.935,1.69-4.879c0-1.943-0.559-3.533-1.674-4.77c-1.116-1.235-2.564-1.854-4.345-1.854
		c-1.826,0-3.297,0.637-4.412,1.908C396.696,241.034,396.139,242.727,396.139,244.838z"/>
	<path fill="#737474" d="M414.26,235.586c0.563-0.12,1.049-0.18,1.454-0.18c1.172,0,1.826,0.624,1.961,1.872
		c1.69-1.248,3.369-1.872,5.038-1.872c1.623,0,3.043,0.672,4.26,2.016c1.735-1.344,3.606-2.016,5.612-2.016
		c1.916,0,3.409,0.57,4.48,1.71c1.069,1.14,1.604,2.73,1.604,4.77l-0.067,4.32c0,3.408,0.281,5.521,0.846,6.336
		c-0.992,0.528-1.78,0.792-2.366,0.792c-0.361,0-0.632-0.054-0.812-0.162c-0.182-0.107-0.316-0.342-0.405-0.702
		c-0.091-0.359-0.136-0.947-0.136-1.764l0.235-6.912c0-2.088-0.293-3.588-0.879-4.5s-1.555-1.368-2.907-1.368
		c-1.511,0-2.94,0.456-4.294,1.368c0.203,1.152,0.305,3.708,0.305,7.668c0,2.977,0.247,4.849,0.743,5.616
		c-0.945,0.504-1.746,0.756-2.399,0.756c-0.405,0-0.722-0.12-0.946-0.36c-0.226-0.239-0.339-0.923-0.339-2.052
		c0-0.552,0.028-1.452,0.085-2.7c0.056-1.247,0.084-2.447,0.084-3.6c0-2.472-0.253-4.212-0.76-5.22
		c-0.508-1.009-1.415-1.513-2.724-1.513c-1.352,0-2.75,0.553-4.191,1.656c-0.09,3.145-0.135,5.437-0.135,6.876
		c0,2.977,0.271,5.028,0.812,6.156c-0.834,0.504-1.623,0.756-2.367,0.756c-0.631,0-1.014-0.204-1.148-0.612
		c-0.135-0.407-0.203-0.972-0.203-1.691c0-0.696,0.063-1.974,0.187-3.834c0.124-1.86,0.186-3.786,0.186-5.778
		C415.071,238.658,414.801,236.715,414.26,235.586z"/>
	<path fill="#737474" d="M443.032,235.586c0.563-0.12,1.049-0.18,1.454-0.18c1.172,0,1.825,0.624,1.961,1.872
		c1.689-1.248,3.369-1.872,5.038-1.872c1.623,0,3.043,0.672,4.26,2.016c1.734-1.344,3.605-2.016,5.612-2.016
		c1.916,0,3.408,0.57,4.479,1.71c1.07,1.14,1.605,2.73,1.605,4.77l-0.067,4.32c0,3.408,0.281,5.521,0.845,6.336
		c-0.992,0.528-1.779,0.792-2.365,0.792c-0.361,0-0.633-0.054-0.813-0.162c-0.181-0.107-0.316-0.342-0.405-0.702
		c-0.091-0.359-0.136-0.947-0.136-1.764l0.236-6.912c0-2.088-0.293-3.588-0.879-4.5s-1.556-1.368-2.907-1.368
		c-1.511,0-2.941,0.456-4.294,1.368c0.203,1.152,0.304,3.708,0.304,7.668c0,2.977,0.248,4.849,0.744,5.616
		c-0.946,0.504-1.747,0.756-2.4,0.756c-0.404,0-0.722-0.12-0.945-0.36c-0.227-0.239-0.339-0.923-0.339-2.052
		c0-0.552,0.027-1.452,0.084-2.7c0.057-1.247,0.085-2.447,0.085-3.6c0-2.472-0.253-4.212-0.761-5.22
		c-0.508-1.009-1.415-1.513-2.723-1.513c-1.352,0-2.75,0.553-4.192,1.656c-0.09,3.145-0.135,5.437-0.135,6.876
		c0,2.977,0.271,5.028,0.813,6.156c-0.834,0.504-1.623,0.756-2.367,0.756c-0.631,0-1.015-0.204-1.149-0.612
		c-0.135-0.407-0.203-0.972-0.203-1.691c0-0.696,0.063-1.974,0.188-3.834c0.124-1.86,0.186-3.786,0.186-5.778
		C443.844,238.658,443.573,236.715,443.032,235.586z"/>
	<path fill="#737474" d="M483.639,249.986c0.475,0.552,0.71,1.08,0.71,1.584c0,0.696-0.423,1.248-1.268,1.655
		c-0.846,0.408-2.023,0.612-3.533,0.612c-2.593,0-4.644-0.81-6.152-2.43c-1.512-1.62-2.267-3.81-2.267-6.57
		c0-2.736,0.755-4.991,2.267-6.768c1.51-1.776,3.437-2.664,5.78-2.664c1.804,0,3.291,0.576,4.463,1.728
		c1.173,1.152,1.759,2.592,1.759,4.32c0,1.368-0.496,2.334-1.487,2.897c-0.992,0.564-2.729,0.847-5.207,0.847
		c-1.601,0-3.224-0.132-4.868-0.396c-0.068,1.992,0.439,3.582,1.521,4.771c1.082,1.188,2.455,1.781,4.123,1.781
		C481.103,251.354,482.489,250.898,483.639,249.986z M474.036,242.714c1.938,0.265,3.618,0.396,5.038,0.396
		c1.532,0,2.523-0.138,2.976-0.414c0.45-0.276,0.676-0.762,0.676-1.458c0-1.104-0.344-1.986-1.03-2.646
		c-0.688-0.659-1.641-0.99-2.856-0.99c-1.24,0-2.288,0.444-3.145,1.332C474.836,239.822,474.284,241.082,474.036,242.714z"/>
	<path fill="#737474" d="M491.922,239.618c-0.09,2.688-0.135,4.836-0.135,6.443c0,3.289,0.259,5.461,0.776,6.517
		c-0.856,0.504-1.646,0.756-2.366,0.756c-0.474,0-0.813-0.12-1.015-0.36c-0.203-0.239-0.305-0.756-0.305-1.548
		c0-0.647,0.051-2.117,0.152-4.41c0.102-2.291,0.151-4.134,0.151-5.525c0-2.664-0.26-4.608-0.777-5.832
		c0.541-0.168,1.024-0.252,1.454-0.252c1.172,0,1.825,0.66,1.961,1.979c0.767-0.6,1.64-1.08,2.619-1.439
		c0.98-0.36,1.899-0.54,2.757-0.54c0.856,0,1.655,0.156,2.399,0.468c0.744,0.313,1.393,0.798,1.944,1.458s0.946,1.512,1.184,2.556
		c0.236,1.044,0.344,2.466,0.32,4.267v2.483c0,1.753,0.051,3.001,0.152,3.744c0.102,0.744,0.333,1.464,0.692,2.16
		c-0.992,0.528-1.78,0.792-2.365,0.792c-0.541,0-0.908-0.156-1.101-0.468s-0.287-0.996-0.287-2.052c0-0.553,0.034-1.44,0.103-2.664
		c0.066-1.225,0.102-2.568,0.102-4.032c0-2.28-0.333-3.894-0.998-4.842c-0.665-0.948-1.604-1.423-2.822-1.423
		C495.168,237.854,493.635,238.442,491.922,239.618z"/>
	<path fill="#737474" d="M509.165,239.654c-0.608,0.023-1.049,0.036-1.319,0.036c-0.519,0-0.866-0.072-1.048-0.217
		c-0.181-0.144-0.271-0.371-0.271-0.684c0-0.336,0.102-0.744,0.305-1.224c0.766,0.048,1.6,0.035,2.502-0.036
		c0.067-2.521-0.147-4.32-0.643-5.4c0.969-0.504,1.725-0.756,2.266-0.756c0.833,0,1.251,0.636,1.251,1.908
		c0,0.312-0.079,1.691-0.237,4.14c1.533-0.191,2.536-0.288,3.011-0.288c0.766,0,1.148,0.276,1.148,0.828
		c0,0.432-0.203,0.972-0.607,1.62c-0.475-0.145-1.062-0.216-1.76-0.216c-0.428,0-1.094,0.024-1.994,0.071
		c-0.181,3.313-0.271,5.737-0.271,7.272c0,1.896,0.151,3.126,0.456,3.69c0.305,0.563,0.727,0.846,1.268,0.846
		c0.384,0,0.778-0.145,1.185-0.432c0.181,0.408,0.271,0.792,0.271,1.151c0,0.576-0.215,1.032-0.643,1.368
		c-0.429,0.336-1.014,0.504-1.758,0.504c-1.217,0-2.108-0.414-2.671-1.242c-0.563-0.828-0.847-2.105-0.847-3.834
		C508.759,247.97,508.896,244.935,509.165,239.654z"/>
	<path fill="#737474" d="M540.167,245.198h-8.926c-0.879,2.04-1.487,3.612-1.825,4.716c-0.339,1.104-0.53,2.22-0.575,3.348
		c-0.314,0.049-0.607,0.072-0.879,0.072c-1.442,0-2.164-0.612-2.164-1.836c0-0.576,1.07-3.155,3.212-7.74
		c2.028-4.296,3.889-8.544,5.579-12.744c-0.271-0.432-0.677-0.947-1.218-1.548c0.767-1.031,1.477-1.548,2.131-1.548
		c0.473,0,0.946,0.349,1.42,1.044c0.473,0.696,0.979,1.776,1.521,3.24c2.345,6.36,4.176,11.082,5.494,14.166s2.326,4.95,3.025,5.598
		c-0.789,0.912-1.544,1.368-2.265,1.368c-0.654,0-1.349-0.678-2.08-2.034C541.886,249.944,541.068,247.91,540.167,245.198z
		 M535.907,233.858l-3.584,8.928h6.965C537.891,238.851,536.764,235.874,535.907,233.858z"/>
	<path fill="#737474" d="M552.541,239.51c1.623-2.448,3.146-3.672,4.564-3.672c0.607,0,1.133,0.211,1.571,0.63
		c0.439,0.42,0.659,0.931,0.659,1.53c0,0.792-0.496,1.561-1.488,2.304c-0.338-1.008-0.866-1.512-1.589-1.512
		c-0.519,0-1.076,0.282-1.674,0.846c-0.597,0.564-1.188,1.387-1.773,2.466c-0.113,1.201-0.17,2.389-0.17,3.564
		c0,3.217,0.372,5.521,1.115,6.912c-0.9,0.504-1.747,0.756-2.535,0.756c-0.563,0-0.94-0.12-1.133-0.36
		c-0.191-0.239-0.288-0.863-0.288-1.872c0-0.383,0.058-1.649,0.17-3.798c0.112-2.147,0.169-4.037,0.169-5.67
		c0-2.735-0.236-4.584-0.71-5.544c0.519-0.168,0.97-0.252,1.354-0.252c0.518,0,0.957,0.145,1.317,0.432
		c0.36,0.288,0.541,0.889,0.541,1.801C552.643,238.479,552.608,238.958,552.541,239.51z"/>
	<path fill="#737474" d="M563.326,239.654c-0.608,0.023-1.049,0.036-1.319,0.036c-0.519,0-0.867-0.072-1.048-0.217
		c-0.181-0.144-0.271-0.371-0.271-0.684c0-0.336,0.102-0.744,0.305-1.224c0.766,0.048,1.6,0.035,2.502-0.036
		c0.067-2.521-0.147-4.32-0.643-5.4c0.969-0.504,1.725-0.756,2.266-0.756c0.833,0,1.251,0.636,1.251,1.908
		c0,0.312-0.079,1.691-0.237,4.14c1.533-0.191,2.536-0.288,3.01-0.288c0.767,0,1.149,0.276,1.149,0.828
		c0,0.432-0.203,0.972-0.608,1.62c-0.474-0.145-1.061-0.216-1.759-0.216c-0.428,0-1.094,0.024-1.994,0.071
		c-0.181,3.313-0.271,5.737-0.271,7.272c0,1.896,0.15,3.126,0.456,3.69c0.305,0.563,0.727,0.846,1.268,0.846
		c0.384,0,0.778-0.145,1.185-0.432c0.181,0.408,0.271,0.792,0.271,1.151c0,0.576-0.215,1.032-0.643,1.368
		c-0.429,0.336-1.015,0.504-1.758,0.504c-1.218,0-2.108-0.414-2.672-1.242c-0.563-0.828-0.846-2.105-0.846-3.834
		C562.92,247.97,563.056,244.935,563.326,239.654z"/>
	<path fill="#737474" d="M594.024,238.394c0.201,0.457,0.304,0.913,0.304,1.368c0,0.553-0.142,0.979-0.423,1.278
		c-0.281,0.301-0.896,0.48-1.842,0.54c-0.947,0.061-3.19,0.078-6.729,0.054c0,6.408,0.36,10.177,1.082,11.304
		c-1.06,0.601-1.983,0.9-2.772,0.9c-0.429,0-0.75-0.084-0.964-0.252s-0.359-0.396-0.438-0.684s-0.118-0.864-0.118-1.729
		c0-1.031,0.062-3.168,0.186-6.408c0.124-3.239,0.188-6.731,0.188-10.476c0-2.592-0.192-4.62-0.575-6.084
		c1.354,0.072,2.423,0.108,3.212,0.108c1.082,0,2.457-0.066,4.125-0.198c1.668-0.132,2.896-0.198,3.687-0.198
		c0.99,0,1.628,0.126,1.909,0.378s0.424,0.618,0.424,1.098c0,0.625-0.237,1.417-0.71,2.376c-0.926-0.575-2.772-0.863-5.546-0.863
		c-1.036,0-2.221,0.036-3.551,0.107c0.022,3.36,0,5.988-0.066,7.885c2.93,0.023,4.952,0,6.068-0.072
		C592.587,238.754,593.438,238.61,594.024,238.394z"/>
	<path fill="#737474" d="M610.591,249.986c0.475,0.552,0.71,1.08,0.71,1.584c0,0.696-0.423,1.248-1.268,1.655
		c-0.847,0.408-2.023,0.612-3.533,0.612c-2.593,0-4.644-0.81-6.153-2.43c-1.511-1.62-2.266-3.81-2.266-6.57
		c0-2.736,0.755-4.991,2.266-6.768c1.511-1.776,3.438-2.664,5.781-2.664c1.803,0,3.291,0.576,4.463,1.728
		c1.172,1.152,1.758,2.592,1.758,4.32c0,1.368-0.496,2.334-1.486,2.897c-0.992,0.564-2.729,0.847-5.207,0.847
		c-1.602,0-3.225-0.132-4.868-0.396c-0.068,1.992,0.438,3.582,1.521,4.771c1.082,1.188,2.456,1.781,4.124,1.781
		C608.055,251.354,609.441,250.898,610.591,249.986z M600.988,242.714c1.938,0.265,3.618,0.396,5.038,0.396
		c1.531,0,2.523-0.138,2.976-0.414c0.45-0.276,0.676-0.762,0.676-1.458c0-1.104-0.344-1.986-1.03-2.646
		c-0.688-0.659-1.641-0.99-2.856-0.99c-1.24,0-2.288,0.444-3.146,1.332S601.236,241.082,600.988,242.714z"/>
	<path fill="#737474" d="M616.034,250.526c0.744,0.432,1.476,0.647,2.197,0.647c0.789,0,1.426-0.203,1.909-0.612
		c0.484-0.407,0.729-0.936,0.729-1.584c0-0.552-0.147-1.056-0.439-1.512c-0.294-0.455-0.777-0.972-1.454-1.548
		c-2.187-1.848-3.278-3.443-3.278-4.788c0-1.416,0.642-2.724,1.927-3.924s2.828-1.8,4.632-1.8c0.586,0,1.003,0.12,1.251,0.359
		c0.248,0.24,0.372,0.517,0.372,0.828c0,0.385-0.215,0.996-0.643,1.836c-0.608-0.264-1.149-0.396-1.623-0.396
		c-0.901,0-1.641,0.233-2.214,0.702c-0.575,0.468-0.862,1.086-0.862,1.854c0,0.385,0.203,0.87,0.608,1.458
		c0.404,0.589,0.969,1.206,1.689,1.854c1.149,1.032,1.898,1.884,2.248,2.556s0.524,1.345,0.524,2.016
		c0,1.345-0.625,2.574-1.876,3.69c-1.251,1.116-2.6,1.674-4.041,1.674c-0.608,0-1.134-0.126-1.572-0.378
		c-0.439-0.252-0.659-0.642-0.659-1.17C615.459,251.786,615.65,251.198,616.034,250.526z"/>
	<path fill="#737474" d="M628.713,239.654c-0.607,0.023-1.049,0.036-1.319,0.036c-0.519,0-0.866-0.072-1.048-0.217
		c-0.181-0.144-0.271-0.371-0.271-0.684c0-0.336,0.102-0.744,0.305-1.224c0.767,0.048,1.601,0.035,2.502-0.036
		c0.067-2.521-0.146-4.32-0.643-5.4c0.969-0.504,1.725-0.756,2.266-0.756c0.833,0,1.251,0.636,1.251,1.908
		c0,0.312-0.079,1.691-0.237,4.14c1.533-0.191,2.536-0.288,3.011-0.288c0.766,0,1.148,0.276,1.148,0.828
		c0,0.432-0.203,0.972-0.607,1.62c-0.475-0.145-1.062-0.216-1.759-0.216c-0.429,0-1.095,0.024-1.994,0.071
		c-0.182,3.313-0.271,5.737-0.271,7.272c0,1.896,0.151,3.126,0.456,3.69c0.305,0.563,0.728,0.846,1.269,0.846
		c0.384,0,0.777-0.145,1.184-0.432c0.181,0.408,0.271,0.792,0.271,1.151c0,0.576-0.216,1.032-0.644,1.368s-1.014,0.504-1.758,0.504
		c-1.217,0-2.108-0.414-2.671-1.242c-0.563-0.828-0.847-2.105-0.847-3.834C628.307,247.97,628.442,244.935,628.713,239.654z"/>
	<path fill="#737474" d="M642.676,252.542c-0.901,0.528-1.747,0.792-2.536,0.792c-0.519,0-0.879-0.162-1.082-0.486
		c-0.202-0.323-0.304-1.062-0.304-2.214c0-0.864,0.051-2.039,0.151-3.527c0.102-1.488,0.151-3.012,0.151-4.572
		c0-2.736-0.281-4.704-0.845-5.904c0.879-0.527,1.725-0.792,2.535-0.792c0.879,0,1.319,0.528,1.319,1.584l-0.203,4.104
		c-0.067,1.632-0.103,3.132-0.103,4.5C641.763,249.122,642.067,251.294,642.676,252.542z M640.579,228.494
		c0.541,0,1.003,0.186,1.387,0.558c0.383,0.373,0.574,0.847,0.574,1.422c0,0.673-0.214,1.23-0.643,1.675
		c-0.429,0.444-0.992,0.666-1.69,0.666c-0.586,0-1.048-0.174-1.386-0.522s-0.508-0.822-0.508-1.422c0-0.648,0.221-1.206,0.659-1.674
		C639.413,228.728,639.948,228.494,640.579,228.494z"/>
	<path fill="#737474" d="M645.043,238.214c0.879-1.584,1.656-2.376,2.332-2.376c0.541,0,1.025,0.402,1.454,1.206
		c0.428,0.805,1.015,2.442,1.759,4.914c1.646,5.472,2.614,8.208,2.907,8.208c0.474,0,1.441-1.47,2.907-4.41
		c1.465-2.939,2.197-5.454,2.197-7.542c0-0.815-0.112-1.535-0.338-2.16c0.585-0.144,1.093-0.216,1.521-0.216
		c1.284,0,1.927,0.612,1.927,1.836c0,1.008-0.282,2.316-0.846,3.924s-1.438,3.475-2.62,5.599c-1.184,2.124-2.203,3.72-3.061,4.788
		c-0.855,1.067-1.655,1.602-2.399,1.602c-0.587,0-1.146-0.534-1.674-1.602c-0.529-1.068-1.258-3.138-2.182-6.21
		C647.759,241.862,646.463,239.343,645.043,238.214z"/>
	<path fill="#737474" d="M678.277,252.686c-0.926,0.601-1.646,0.9-2.164,0.9c-0.813,0-1.264-0.66-1.354-1.979
		c-1.578,1.488-3.212,2.231-4.901,2.231c-1.646,0-2.977-0.54-3.99-1.62c-1.014-1.08-1.521-2.424-1.521-4.032
		c0-1.823,0.705-3.287,2.113-4.392c1.409-1.104,3.297-1.656,5.663-1.656c0.834,0,1.69,0.072,2.57,0.216
		c0.021-0.239,0.032-0.479,0.032-0.72c0-1.247-0.326-2.214-0.979-2.897c-0.653-0.685-1.578-1.026-2.772-1.026
		c-1.961,0-3.324,0.732-4.091,2.196c-0.812-0.216-1.217-0.732-1.217-1.548c0-0.84,0.495-1.542,1.487-2.106
		c0.991-0.563,2.333-0.846,4.022-0.846c1.938,0,3.433,0.528,4.479,1.584c1.049,1.056,1.572,2.544,1.572,4.464l-0.103,4.392
		C677.127,249.446,677.511,251.727,678.277,252.686z M674.659,244.586c-0.946-0.168-1.814-0.252-2.604-0.252
		c-1.623,0-2.855,0.318-3.702,0.954c-0.845,0.636-1.268,1.578-1.268,2.826c0,1.008,0.304,1.794,0.913,2.357
		c0.608,0.564,1.453,0.847,2.535,0.847c1.689,0,3.077-0.648,4.159-1.944C674.625,247.886,674.613,246.29,674.659,244.586z"/>
	<path fill="#737474" d="M686.256,252.542c-0.901,0.528-1.714,0.792-2.435,0.792c-0.43,0-0.768-0.12-1.016-0.36
		c-0.248-0.239-0.372-1.008-0.372-2.304c0-0.983,0.063-2.85,0.188-5.598c0.123-2.748,0.186-5.682,0.186-8.803
		c0-4.247-0.314-6.911-0.945-7.991c0.9-0.528,1.713-0.792,2.435-0.792c0.586,0,0.969,0.162,1.149,0.485
		c0.18,0.324,0.271,0.906,0.271,1.746c0,1.345-0.063,3.253-0.187,5.725c-0.124,2.472-0.187,5.615-0.187,9.432
		C685.343,249.002,685.647,251.559,686.256,252.542z"/>
</g>
<g>
	<path fill="#7EA4C9" d="M339.25,97.313l-6.875,2.813l8.75-24.375l-5.313-2.813l-3.438-8.125l11.875-4.063l-7.5-17.188l17.5,6.563
		L373,47.938l30.313-0.625l4.375,8.125l-47.5,3.125l-6.563-5.938L348,62.938l6.875,6.25l-5.625,13.125l6.875,17.5l-6.875-3.438
		l-2.188,17.813l-4.375,4.688L339.25,97.313z M405.5,60.75l-6.563,21.563l9.688,8.125l-5,11.25l-1.875,17.188l-9.688-4.688L358,117
		l-0.313-17.813l-2.813-13.438l40.625-1.563l-5.313-5l-29.063,2.188l-5.938-20L368,62.938L405.5,60.75z M366.438,91.063l0.313,6.25
		l8.438-1.563L375.5,92L366.438,91.063z M376.438,107.313v-4.063H368l-0.625,5.938L376.438,107.313z M368,73.563h24.688
		l-1.875-6.875l-21.875,2.5L368,73.563z M384.25,91.375l0.625,5.938L393,96.688l0.938-5.313H384.25z M385.813,107.938l8.75,0.938
		l-0.625-5.625h-7.813L385.813,107.938z"/>
	<path fill="#7EA4C9" d="M481.75,87l6.875,6.875l-30.938,1.875l15,9.375l15,3.125l-19.375,11.25l-20-16.25L425.5,117l-8.75,1.563
		l18.125-20l-17.5-1.25l-5.313-5.938L443,87.625l-2.813-5.313L416.75,80.75l39.688-12.188L468.625,72l-8.75-10l-13.125,8.125
		l5.938-12.5l-17.813,1.25L445.5,65.75l-11.25,7.813L428,63.875l-15.625,7.813l15-28.125l9.375,8.125l9.688-2.813l5.313,5.625
		l7.813-11.563l8.125,7.188l14.063-2.188L488.625,57l-20.313,1.563l14.375,6.563l-10.938,6.563l8.438,5.625l-21.25,2.5l-2.813,5.938
		L481.75,87z"/>
	<path fill="#7EA4C9" d="M495.813,57.313L496.125,57c3.75,0.625,7.29,1.357,10.625,2.188c0,0.42-0.21,1.147-0.625,2.188
		c-0.42,1.46-0.625,2.607-0.625,3.438c-0.21,1.045-0.313,2.295-0.313,3.75v2.188c0,5.21,0.415,9.585,1.25,13.125
		c1.25,4.375,2.705,8.545,4.375,12.5c1.455,3.335,3.228,5,5.313,5c1.455,0,3.018-0.728,4.688-2.188c2.08-1.875,3.75-3.853,5-5.938
		h0.625l3.75,5.625c0.415,0.21,0.415,0.522,0,0.938c-0.835,2.085-2.295,3.96-4.375,5.625c-3.125,2.92-6.563,4.375-10.313,4.375
		c-5,0-8.96-3.228-11.875-9.688c-0.625-1.455-1.357-3.54-2.188-6.25c-0.42-1.875-0.835-3.228-1.25-4.063
		c-1.25-5.83-2.188-11.665-2.813-17.5c0-0.625-0.107-1.665-0.313-3.125c-0.21-1.25-0.42-2.188-0.625-2.813
		c0-1.04-0.107-2.603-0.313-4.688C496.125,59.813,496.018,58.357,495.813,57.313z M542.375,65.438l7.188-2.188h0.625
		c3.75,4.585,7.813,11.357,12.188,20.313c1.665,2.92,2.603,5.21,2.813,6.875l-7.5,3.438h-1.25c-3.125-10-7.92-19.165-14.375-27.5
		L542.375,65.438z"/>
</g>
<g>
</g>
</svg>
