<?xml version="1.0" encoding="utf-8"?>
<!-- Generator: Adobe Illustrator 14.0.0, SVG Export Plug-In . SVG Version: 6.00 Build 43363)  -->
<!DOCTYPE svg PUBLIC "-//W3C//DTD SVG 1.1//EN" "http://www.w3.org/Graphics/SVG/1.1/DTD/svg11.dtd">
<svg version="1.1" id="图层_1" xmlns="http://www.w3.org/2000/svg" xmlns:xlink="http://www.w3.org/1999/xlink" x="0px" y="0px"
	 width="540px" height="390px" viewBox="0 0 540 390" enable-background="new 0 0 540 390" xml:space="preserve">
<g>
	<g>
		<path fill-rule="evenodd" clip-rule="evenodd" d="M0,31.173c10.726,0,21.453,0,32.179,0
			c-2.221,101.292-0.255,218.444-1.005,319.777c-10.391,0-20.782,0-31.173,0C0,244.356,0,137.767,0,31.173z"/>
		<path fill-rule="evenodd" clip-rule="evenodd" d="M540,31.173c0,7.039,0,14.078,0,21.117c-21.117,0-42.234,0-63.352,0
			c-2.2,5.51-0.443,14.977-1.006,22.123c11.591,2.314,32.318,0.309,42.234,1.005c0,30.503,0,61.006,0,91.508
			c-6.046-0.658-14.731,1.324-19.106-1.005c0.081-24.431-0.211-44.491,0-67.375c-5.929-1.583-17.199-1.583-23.128,0
			c0,7.709,0,15.419,0,23.128c-6.496-0.543-15.245,1.167-20.112-1.005c1.504-22.621,1.296-45.809,0-68.38
			c-21.452,0-42.904,0-64.357,0c0,30.167,0,60.335,0,90.503c-6.703,0-13.407,0-20.111,0c1.245-14.387,1.304-29.629,0-44.246
			c-33.192-2.339-70.721-0.341-105.587-1.005c0.661-7.049-1.328-16.747,1.006-22.123c32.529-0.81,71.015,1.417,104.581-1.005
			c1.483-6.118,1.483-16.005,0-22.123c-42.569,0-85.14,0-127.709,0c-1.115,14.974-1.295,30.308,0,45.251
			c-6.38-0.659-15.404,1.326-20.112-1.006c0-14.749,0-29.497,0-44.246c-28.492,0-56.983,0-85.475,0
			c-1.289,5.923-1.77,16.292,0,22.123c18.578,2.354,46.432,0.292,63.352,1.005c-2.364,5.922,0.144,17.767-1.005,22.123
			c-20.463,0.655-43.554-1.32-62.347,1.005c-1.866,30.221,0.007,62.687-1.005,91.508c-10.842,0.116-21.39-0.063-30.167-2.011
			c0-52.291,0-104.582,0-156.872C251.062,31.173,395.531,31.173,540,31.173z"/>
		<path fill-rule="evenodd" clip-rule="evenodd" d="M217.207,71.396c-28.15,7.922-8.01-29.371,2.011-12.067
			C221.725,63.659,219.08,66.874,217.207,71.396z"/>
		<path fill-rule="evenodd" clip-rule="evenodd" d="M540,190.056c0,53.632,0,107.263,0,160.895c-144.469,0-288.939,0-433.408,0
			c0-46.258,0-92.515,0-138.771c10.114,0.612,22.715-1.263,31.173,1.006c-1.372,22.543-1.156,45.63,0,68.38
			c7.375,0,14.749,0,22.123,0c0-53.296,0-106.593,0-159.889c6.704,0,13.408,0,20.112,0c-1.89,60.285,0.186,123.255-1.005,182.012
			c-13.743,0-27.486,0-41.229,0c-1.498,6.381-1.498,16.747,0,23.128c21.453,0,42.905,0,64.358,0c0-68.38,0-136.76,0-205.14
			c6.38,0.659,15.404-1.326,20.112,1.006c-1.183,67.803-1.083,136.035,0,204.134c21.452,0,42.905,0,64.357,0
			c1.41-15.029,1.002-30.391,0-45.251c-7.374,0-14.748,0-22.123,0c0,7.374,0,14.748,0,22.123c-6.38-0.659-15.404,1.325-20.112-1.006
			c0-14.749,0-29.497,0-44.246c20.782,0,41.564,0,62.347,0c0,22.794,0,45.587,0,68.38c21.452,0,42.905,0,64.357,0
			c1.161-38.098,1.346-76.563,0-114.637c-5.418-1.794-16.642-1.421-22.123,0c0,30.503,0,61.006,0,91.509
			c-6.38-0.659-15.404,1.325-20.111-1.006c1.12-22.239,1.285-44.948,0-67.374c-27.83-0.662-58.313,1.329-84.47-1.006
			c0-37.542,0-75.083,0-112.626c34.86,0,69.721,0,104.581,0c-0.66,6.714,1.327,16.076-1.006,21.118
			c-27.511,0.646-57.62-1.308-83.463,1.005c-1.157,22.391-0.646,46.263,0,68.38c7.375,0,14.749,0,22.123,0
			c1.58-14.658,0.021-32.11,1.006-45.251c41.899,0,83.799,0,125.698,0c1.99-30.314-0.105-62.805,1.006-91.508
			c6.046,0.658,14.732-1.324,19.106,1.006c0,22.458,0,44.916,0,67.374c14.078,0,28.156,0,42.234,0
			c-0.662,7.383,1.329,17.418-1.006,23.128c-13.743,0-27.486,0-41.229,0c0,7.709,0,15.419,0,23.128c-7.039,0-14.078,0-21.117,0
			c0,30.503,0,61.006,0,91.509c-7.04,0-14.079,0-21.118,0c0,7.374,0,14.748,0,22.123c6.715,0.66,16.076-1.327,21.118,1.005
			c0,7.375,0,14.749,0,22.123c35.865,0,71.731,0,107.598,0c0-7.709,0-15.419,0-23.128c-6.715-0.66-16.076,1.327-21.118-1.006
			c0-22.458,0-44.916,0-67.374c6.704,0,13.408,0,20.112,0c2.211-5.834,0.435-15.655,1.006-23.129
			c-14.706-1.506-29.437-1.536-44.246,0c-0.67,30.168,1.34,63.016-1.006,91.509c-13.407,0-26.815,0-40.224,0
			c1.89-30.036,0.158-62.975,1.006-91.509c7.039,0,14.078,0,21.117,0c0.245-6.967-0.343-18.405,0-22.123
			C484.357,190.056,512.179,190.056,540,190.056z"/>
	</g>
</g>
</svg>
