<?xml version="1.0" encoding="utf-8"?>
<!-- Generator: Adobe Illustrator 14.0.0, SVG Export Plug-In . SVG Version: 6.00 Build 43363)  -->
<!DOCTYPE svg PUBLIC "-//W3C//DTD SVG 1.1//EN" "http://www.w3.org/Graphics/SVG/1.1/DTD/svg11.dtd">
<svg version="1.1" id="图层_1" xmlns="http://www.w3.org/2000/svg" xmlns:xlink="http://www.w3.org/1999/xlink" x="0px" y="0px"
	 width="1280px" height="720px" viewBox="0 0 1280 720" enable-background="new 0 0 1280 720" xml:space="preserve">
<g>
	<polygon fill="#7EA4C9" points="0,0 0,260.267 129.96,130.133 	"/>
	<polygon fill="#7EA4C9" points="183.785,0 183.969,92.079 91.897,91.903 	"/>
	<polyline fill="#747474" points="275.81,0.322 275.8,92.208 183.729,92.033 183.79,0 275.81,0.322 	"/>
	<polygon fill="#7EA4C9" points="276.356,184.027 184.576,92.018 184.514,183.975 276.402,275.879 	"/>
	<path fill="#737373" d="M145.479,163.267c-42.891,37.911-86.465,75.782-130.134,112.926
		c39.075-40.564,86.071-87.384,130.134-129.959c43.758,43.742,86.85,84.652,129.964,129.646
		C232.596,243.063,185.908,203.606,145.479,163.267z"/>
	<g>
		<path fill="#FFFFFF" d="M193.516,46.865c0.379-18.156,6.189-27.86,17.435-29.113c10.861,1.252,16.578,10.957,17.149,29.113
			c-0.763,18.157-6.479,27.656-17.149,28.487C199.898,74.521,194.087,65.021,193.516,46.865z M200.662,46.865
			c0,14.821,3.429,22.437,10.289,22.853c6.667-0.416,10.098-8.032,10.29-22.853c-0.191-14.605-3.622-22.226-10.29-22.852
			C204.091,24.639,200.662,32.26,200.662,46.865z"/>
		<path fill="#FFFFFF" d="M265.256,58.448c-0.572,10.854-6.1,16.489-16.577,16.904c-8.767-0.206-13.912-4.382-15.435-12.522
			c0-2.294,0.952-3.649,2.858-4.069c1.523,0,2.76,1.252,3.715,3.757c1.331,4.803,4.189,7.2,8.575,7.2
			c6.096-0.416,9.431-3.961,10.003-10.644c0-7.092-3.05-10.643-9.146-10.643c-2.671,0-4.001-0.939-4.001-2.817
			c-0.192-1.458,0.951-2.504,3.429-3.13c4.953-1.042,7.432-4.173,7.432-9.392c-0.384-5.635-2.858-8.658-7.432-9.078
			c-4.572,0.21-7.052,2.925-7.431,8.139c-0.192,2.505-1.242,3.654-3.144,3.444c-1.907,0-2.858-1.145-2.858-3.444
			c0.572-8.97,5.145-13.774,13.72-14.4c8.19,0.626,12.669,5.533,13.433,14.713c-0.192,5.43-2.192,9.499-6.002,12.208
			C261.92,46.973,264.872,51.561,265.256,58.448z"/>
	</g>
</g>
<g>
	<path fill="#7EA4C9" d="M323.743,21.195c4.139,0.147,6.779,0.803,7.924,1.969c0,0.294-0.288,0.656-0.857,1.094
		c-1.429,1.313-2.57,2.844-3.426,4.594h6.853c0.428,0,1.071-0.656,1.927-1.969c0.997-1.603,1.854-2.259,2.57-1.969
		c1.998,1.313,3.353,2.334,4.069,3.063c0.428,0.584,0.643,1.094,0.643,1.531c0,0.294-0.214,0.438-0.643,0.438h-13.706
		c4.139,1.75,5.638,4.084,4.497,7c2.71,1.606,4.139,2.7,4.283,3.281c0,0.438-0.214,0.803-0.642,1.094
		c-0.572,0.438-0.787,0.803-0.643,1.094v4.375c-0.288,1.75-1.713,2.625-4.283,2.625c-1.429,0.294-2.001-0.219-1.713-1.531h-8.352
		v6.563h10.494c0.428,0.147,0.927-0.362,1.499-1.531c0.428-0.875,0.856-1.384,1.285-1.531c3.139,1.169,5.14,2.772,5.996,4.813
		c0,0.438-0.288,0.875-0.856,1.313c-0.572,0.294-0.856,0.584-0.856,0.875c-0.428,5.688-2.356,8.678-5.782,8.969
		c-2.429,0.291-3.784-0.219-4.069-1.531c-0.144-1.456-0.786-2.406-1.927-2.844c-1.145-0.291-1.713-0.509-1.713-0.656
		c0-0.144,0.569-0.219,1.713-0.219c4.423,1.022,6.495-1.166,6.21-6.563h-11.993v14.875c-0.144,1.894-1.499,2.916-4.069,3.063
		c-1.285,0-1.857-0.438-1.713-1.313V59.258c-6.568,5.397-12.421,8.822-17.561,10.281c-3.142,1.019-3.999,0.947-2.57-0.219
		c0.285-0.147,0.499-0.219,0.643-0.219c7.137-4.081,11.634-8.603,13.491-13.563h-2.998c-0.428,0.147-0.856,0.584-1.285,1.313
		c-0.288,0.584-0.502,0.875-0.643,0.875c-2.998-0.291-4.855-0.947-5.568-1.969c0-0.144,0.07-0.362,0.214-0.656
		c0.569-0.728,0.927-1.456,1.07-2.188c0.569-3.5,0.927-5.831,1.071-7c0-1.019,0.927-1.094,2.784-0.219
		c1.425,0.731,2.57,1.094,3.426,1.094h7.924v-6.563h-14.991c-0.428,0-0.716-0.144-0.856-0.438c-0.144-0.291,0-0.509,0.428-0.656
		h9.208c-0.857-0.581-1.285-1.384-1.285-2.406c-0.144-3.791-1-6.05-2.57-6.781c-0.428,0.438-0.856,0.803-1.285,1.094
		c-2.429,2.188-4.427,3.938-5.996,5.25c-2.714,1.897-3.57,2.188-2.57,0.875c3.282-4.228,5.494-8.75,6.639-13.563
		c0.284-1.166,0.569-1.894,0.856-2.188c0.856-0.144,2.496,0,4.925,0.438c1.854,0.438,2.854,0.875,2.998,1.313
		c0,0.438-0.358,0.875-1.07,1.313c-0.716,0.438-1.215,0.875-1.5,1.313c-0.288,0.584-0.856,1.313-1.713,2.188
		c-0.288,0.294-0.502,0.584-0.643,0.875h6.424c0.285,0,0.783-0.509,1.5-1.531c0.997-1.75,1.927-2.406,2.784-1.969
		c1.998,1.459,3.283,2.553,3.854,3.281c0.857-2.041,1.355-4.081,1.5-6.125C323.101,21.78,323.314,21.342,323.743,21.195z
		 M307.253,49.195l-0.643,5.469h9.851v-6.781h-5.997C308.324,47.592,307.253,48.03,307.253,49.195z M308.966,29.945
		c2.71,1.313,4.497,2.7,5.354,4.156c0.712,2.044,0.141,3.719-1.713,5.031h2.784c2.71-3.353,4.638-6.416,5.782-9.188H308.966z
		 M326.313,30.383c-3.142,3.794-6.21,6.709-9.208,8.75h11.993l0.856-1.094c-0.856-0.581-1.499-1.894-1.927-3.938
		C327.738,32.208,327.169,30.967,326.313,30.383z M330.596,40.227h-8.352v1.313v5.25h8.352V40.227z"/>
	<path fill="#7EA4C9" d="M393.342,59.039c0.712,0,2.355,1.169,4.925,3.5c0.285,0.294,0.569,0.513,0.856,0.656
		c0.429,0.584,0.569,1.022,0.429,1.313c-0.144,0.147-0.502,0.219-1.07,0.219H350.94c-0.716,0-1.215-0.144-1.499-0.438
		c-0.144-0.291,0.07-0.509,0.642-0.656h39.403c0-0.144,0.141-0.362,0.429-0.656C391.628,60.352,392.77,59.039,393.342,59.039z
		 M389.701,23.383c0.997,0.147,2.854,1.459,5.567,3.938c0.429,0.584,0.569,1.022,0.429,1.313c-0.145,0.294-0.572,0.366-1.285,0.219
		h-38.547c-0.716,0-1.145-0.144-1.285-0.438c-0.144-0.291,0.07-0.509,0.643-0.656h14.99h15.633c0.141-0.291,0.215-0.362,0.215-0.219
		C387.773,24.771,388.984,23.383,389.701,23.383z M386.488,39.789c0.569,0,2.142,1.094,4.712,3.281
		c0.284,0.294,0.643,0.513,1.07,0.656c0.429,0.584,0.569,1.022,0.429,1.313c-0.145,0.294-0.643,0.438-1.499,0.438h-32.337
		c-0.572,0-1-0.144-1.285-0.438c-0.288-0.291-0.144-0.509,0.428-0.656h24.841C384.417,41.614,385.632,40.083,386.488,39.789z"/>
	<path fill="#7EA4C9" d="M444.31,22.945c2.569,0.294,4.996,1.825,7.281,4.594c0,0.438-0.429,1.022-1.285,1.75
		c-0.572,0.584-0.856,0.95-0.856,1.094v35.219c0.428,1.894-0.856,2.987-3.854,3.281c-1.857,0.438-2.714-0.075-2.57-1.531V64.07
		h-29.553v3.281c0,1.019-1.358,1.75-4.068,2.188c-1.429,0.291-2.071-0.294-1.928-1.75V25.352c-0.144-0.875,0-1.384,0.429-1.531
		c0.284-0.144,0.997,0,2.142,0.438c0.14,0.147,0.498,0.366,1.07,0.656c1.854,1.022,3.353,1.459,4.497,1.313h25.912
		c0.141,0,0.499-0.438,1.071-1.313C443.309,23.749,443.881,23.092,444.31,22.945z M413.472,29.945v33.031h29.553V27.102h-27.197
		C413.971,26.958,413.185,27.905,413.472,29.945z M433.174,33.664c2.426,0.438,4.567,1.897,6.425,4.375
		c0,0.438-0.358,0.875-1.071,1.313c-0.288,0.294-0.428,0.513-0.428,0.656v13.125c0.284,1.459-0.931,2.334-3.641,2.625
		c-1.714,0.584-2.5,0-2.356-1.75v-1.75h-8.138v1.531c0.285,1.459-0.856,2.334-3.426,2.625c-1.714,0.438-2.5-0.072-2.355-1.531
		V35.852c-0.145-0.728,0-1.166,0.428-1.313c0.141-0.144,0.783,0,1.928,0.438c0.284,0.147,0.783,0.366,1.499,0.656
		c1.569,0.731,2.426,1.022,2.569,0.875h6.211l0.643-0.875C432.173,34.614,432.745,33.958,433.174,33.664z M432.103,37.383h-5.781
		c-1.857,0-2.644,0.731-2.356,2.188v11.594h8.138V37.383z"/>
</g>
<g>
	<path fill="#7EA4C9" d="M406.286,138.487c3.697,0.751,6.513,2.531,8.452,5.344c0,0.751-0.528,1.595-1.585,2.531
		c-0.528,0.378-0.792,0.659-0.792,0.844v9.281h1.32l0.528-0.844c0.879-1.31,1.672-2.061,2.377-2.25c1.057,0,2.642,0.844,4.755,2.531
		c0.528,0.563,0.701,1.028,0.528,1.406c0,0.374-0.355,0.563-1.057,0.563h-61.017c-0.706-0.189-1.234-0.47-1.584-0.844
		c-0.178-0.378,0.086-0.563,0.792-0.563h8.716v-13.219c-0.177-1.688-0.091-2.624,0.264-2.813c0.173-0.374,0.792-0.374,1.849,0
		c0.702,0.189,2.641,0.659,5.811,1.406h28.263c0.174,0,0.438-0.374,0.793-1.125C405.229,139.612,405.758,138.865,406.286,138.487z
		 M399.418,95.456c4.577,0.189,6.249,1.222,5.019,3.094l-0.264,0.844v4.219h6.075l1.057-1.406c1.229-1.872,2.113-2.813,2.642-2.813
		c1.229,0.189,2.992,1.406,5.282,3.656c0.528,0.94,0.702,1.503,0.528,1.688c-0.178,0.378-0.706,0.47-1.585,0.281h-13.999v2.25
		c0,0.563-0.178,0.94-0.528,1.125l-0.265,0.281c4.577,1.876,6.075,3.375,4.491,4.5l-0.528,0.563
		c-0.706,0.94-1.585,2.347-2.642,4.219c-0.528,0.751-0.884,1.314-1.057,1.688h7.924c0.174,0,0.615-0.655,1.321-1.969
		c0.879-1.688,1.585-2.531,2.112-2.531c1.23,0.189,3.079,1.503,5.548,3.938c0.528,0.751,0.614,1.222,0.264,1.406
		c-0.178,0.378-0.706,0.47-1.585,0.281h-16.112c-5.46,8.253-8.717,11.813-9.773,10.688c2.113-4.311,4.313-11.25,6.604-20.813
		c-2.468,0.94-3.524,0.281-3.17-1.969v-3.938h-12.942v4.5c0.173,1.688-1.321,2.531-4.491,2.531c-1.939,0.378-2.905-0.374-2.905-2.25
		v-4.781h-15.056c-0.883,0-1.498-0.092-1.849-0.281c-0.354-0.374-0.177-0.655,0.528-0.844h16.377v-5.625
		c-0.178-1.31,0.528-1.969,2.113-1.969c5.283,0.563,7.131,1.595,5.547,3.094c-0.355,0.378-0.442,0.563-0.264,0.563v3.938h12.942
		V98.55C396.422,96.489,397.305,95.456,399.418,95.456z M388.588,108.956c1.057,0,2.465,0.94,4.227,2.813
		c0.702,0.94,1.057,1.595,1.057,1.969c0,0.378-0.354,0.47-1.057,0.281h-6.339c-1.762,0-2.555,0.659-2.377,1.969v5.063h1.584
		c0.879-1.31,1.494-2.153,1.849-2.531c2.641,0.378,4.928,1.688,6.868,3.938c0,0.563-0.354,1.125-1.057,1.688
		c-0.354,0.378-0.528,0.659-0.528,0.844v3.938c0.174,0.94-0.883,1.595-3.17,1.969c-2.113,0.378-3.169,0.097-3.169-0.844
		l-0.264-0.563h-1.056c-0.883,0-1.234,0.563-1.057,1.688v5.063h3.169l0.793-1.125c1.229-1.872,2.112-2.813,2.641-2.813
		s1.759,0.844,3.698,2.531c0.351,0.378,0.702,0.563,1.057,0.563c0.528,0.751,0.701,1.314,0.528,1.688
		c0,0.189-0.355,0.281-1.057,0.281H372.74c0,1.314-1.32,2.158-3.962,2.531c-2.468,0.563-3.524-0.281-3.169-2.531v-24.75
		c-0.355-1.872,0.528-2.531,2.641-1.969c2.642,1.503,4.664,2.25,6.075,2.25h5.019h6.339l0.792-1.406
		C387.354,109.8,388.061,108.956,388.588,108.956z M374.853,114.3c-1.585,0-2.291,0.563-2.113,1.688v5.063h5.283v-6.75H374.853z
		 M372.74,122.175v5.906h13.735v-5.906H372.74z M372.74,129.487v6.75h5.283v-6.75H372.74z M380.4,143.269h-3.169
		c-1.762-0.185-2.555,0.563-2.377,2.25v10.969h5.547V143.269z M389.909,143.269c-1.939-0.185-2.732,0.659-2.377,2.531v10.688h5.019
		v-13.219H389.909z M402.06,143.269c-1.763,0-2.555,0.659-2.377,1.969v11.25h5.282v-13.219H402.06z M402.323,124.706
		c3.344-0.936,6.955,0.097,10.83,3.094c1.758,3.001,1.407,5.722-1.057,8.156c-2.818,2.25-4.754,1.595-5.811-1.969
		c-0.178-0.185-0.265-0.655-0.265-1.406C405.844,129.206,404.61,126.583,402.323,124.706z"/>
	<path fill="#7EA4C9" d="M451.982,99.675c-0.178-1.31-0.091-2.153,0.264-2.531c0.174-0.185,1.057-0.185,2.642,0
		c0.528,0.189,1.057,0.378,1.585,0.563c5.634,0.94,8.188,1.784,7.66,2.531c-0.178,0.378-0.528,0.659-1.057,0.844
		c-0.706,0.189-1.147,0.378-1.32,0.563c-3.17,3.375-5.374,6.565-6.604,9.563h15.584c0.173,0,0.701-0.563,1.585-1.688
		c1.229-1.688,2.199-2.531,2.905-2.531c4.227,2.25,7.219,4.781,8.98,7.594c0,0.378-0.354,0.844-1.057,1.406
		c-0.883,0.751-1.498,1.406-1.849,1.969V154.8c0.174,2.061-1.498,3.278-5.019,3.656c-2.291,0.374-3.348-0.189-3.17-1.688v-5.063
		h-31.696v4.5c0.351,1.872-1.321,2.997-5.019,3.375c-2.113,0.185-3.17-0.659-3.17-2.531v-47.813
		c-0.178-2.25,3.17-1.591,10.037,1.969h8.188C451.627,108.394,451.805,104.553,451.982,99.675z M444.851,112.612
		c-2.291,0-3.434,1.033-3.434,3.094v14.625h31.696v-17.719H444.851z M441.417,131.456V150.3h31.696v-18.844H441.417z"/>
	<path fill="#7EA4C9" d="M510.622,98.831c4.048,1.125,6.604,2.72,7.659,4.781c0,0.563-0.264,1.033-0.792,1.406
		c-0.528,0.378-0.792,0.751-0.792,1.125v12.094c-0.355,1.688-2.291,2.628-5.812,2.813c-1.411,0-1.939-0.936-1.585-2.813h-2.113
		c-1.762,0-2.642,0.659-2.642,1.969l-1.584,10.969h5.282c1.057-1.872,1.85-2.813,2.378-2.813c3.52,1.314,5.897,2.72,7.131,4.219
		c0,0.751-0.354,1.314-1.056,1.688c-0.528,0.378-0.793,0.659-0.793,0.844c0,10.688-0.441,17.253-1.32,19.688
		c-0.528,2.997-2.113,5.063-4.755,6.188c-3.17,1.125-4.932,0.466-5.283-1.969c0-0.563,0-0.94,0-1.125
		c-0.705-2.065-2.203-3.19-4.49-3.375c-0.705-0.374-0.97-0.655-0.792-0.844c-0.178-0.185,0.528-0.281,2.113-0.281
		c4.226,0,6.513-0.936,6.867-2.813c0.351-2.624,0.438-8.622,0.265-18h-5.547l-0.528,2.813c-0.884,1.125-2.469,1.595-4.755,1.406
		c-1.763-0.374-2.555-1.31-2.377-2.813c0.528-5.436,1.143-10.688,1.849-15.75c0.174-2.061,0.351-3.375,0.528-3.938
		c0-1.31,2.286-0.563,6.867,2.25c0.174,0.189,0.438,0.281,0.793,0.281h4.227v-14.063h-13.472c-1.762-0.374-2.204-0.747-1.32-1.125
		h13.735C509.565,99.956,510.267,99.02,510.622,98.831z M546.545,117.112c3.521,0.751,5.897,2.25,7.132,4.5
		c-0.178,0.378-0.619,0.751-1.321,1.125l-0.264,0.281v16.031c0,1.876-0.441,2.72-1.321,2.531c0.528,0.563,1.321,1.406,2.378,2.531
		c0.173,0.378,0.438,0.659,0.792,0.844c0.879,1.314,1.23,2.158,1.057,2.531c-0.178,0.563-0.97,0.751-2.377,0.563h-13.207v11.813
		c0.173,1.31-1.234,2.25-4.227,2.813c-1.762,0.374-2.642-0.378-2.642-2.25V148.05h-15.056c-0.706,0-1.234-0.185-1.585-0.563
		c-0.178-0.374,0.087-0.655,0.793-0.844h15.848v-6.75h-5.282c0,1.688-1.057,2.628-3.17,2.813c-2.642,0.751-3.875,0.189-3.698-1.688
		v-20.531c-0.705-2.624,1.585-2.716,6.868-0.281h17.169c0,0.189,0.351-0.281,1.057-1.406
		C546.017,117.675,546.367,117.112,546.545,117.112z M530.168,97.987c2.814,0.751,4.755,2.065,5.812,3.938
		c0,0.378-0.265,0.751-0.793,1.125c-0.528,0.378-0.706,0.563-0.528,0.563v10.969c0,1.125-1.147,1.876-3.434,2.25
		c-1.763,0.563-2.555-0.185-2.377-2.25h-3.963c0.174,1.876-0.97,2.813-3.434,2.813c-1.762,0.563-2.555,0-2.377-1.688v-14.625
		c-0.355-2.25,1.494-2.435,5.547-0.563h3.434l0.793-0.844C529.376,98.739,529.813,98.176,530.168,97.987z M529.111,101.925h-2.377
		c-1.412-0.185-2.026,0.844-1.85,3.094v8.156h4.227V101.925z M532.545,121.331h-2.905c-1.763,0-2.555,0.94-2.377,2.813v5.063h5.282
		V121.331z M527.263,130.612v8.156h5.282v-8.156H527.263z M547.865,97.425c2.642,0.563,4.664,1.969,6.075,4.219
		c-0.178,0.378-0.619,0.751-1.32,1.125l-0.265,0.281v10.969c0.174,1.688-0.792,2.628-2.905,2.813
		c-2.113,0.378-3.083-0.092-2.905-1.406V114.3h-3.962v1.125c0.173,1.125-0.884,1.876-3.17,2.25c-1.94,0.189-2.819-0.466-2.642-1.969
		v-15.469c-0.354-2.435,1.585-2.342,5.812,0.281h3.434l0.528-0.844C547.073,98.55,547.511,97.803,547.865,97.425z M545.224,121.331
		h-3.697c-1.763-0.185-2.469,0.47-2.113,1.969v5.906h5.811V121.331z M545.224,130.612h-5.811v8.156h5.811V130.612z M539.413,139.894
		v6.75h6.339c0.174,0,0.966-1.406,2.378-4.219c-2.113,0.751-3.083-0.092-2.906-2.531H539.413z M544.432,101.644
		c-1.411-0.185-2.026,0.751-1.849,2.813v8.719h3.962v-11.531H544.432z"/>
	<path fill="#7EA4C9" d="M596.467,143.55v16.313c0,1.31-1.676,2.153-5.02,2.531c-2.112,0.185-3.083-0.378-2.905-1.688V143.55h-6.075
		c-1.762-0.185-2.468,0.47-2.113,1.969v10.125c0,0.936-0.792,1.591-2.377,1.969c-0.354,0-0.528,0.092-0.528,0.281
		c-2.996,0.747-4.403,0.185-4.227-1.688v-10.969c-5.109,2.065-8.63,3.283-10.565,3.656c-1.762,0.189-0.97-0.563,2.378-2.25
		c4.928-2.624,10.565-7.405,16.904-14.344h-17.433c-0.706,0-1.234-0.185-1.585-0.563c-0.178-0.185,0.173-0.374,1.057-0.563h18.754
		c0.701-0.747,1.671-2.25,2.905-4.5c0.351-0.563,0.615-1.028,0.792-1.406h-5.811v2.813c0,1.125-1.321,1.784-3.962,1.969
		c-2.291,0.189-3.525-0.281-3.698-1.406v-17.156c-0.178-1.688,1.758-1.688,5.811,0c1.408,0.751,2.287,1.033,2.642,0.844h22.188
		c0.351,0.189,0.966-0.281,1.849-1.406c0.701-0.936,1.229-1.406,1.585-1.406c3.343,1.125,5.72,2.813,7.132,5.063
		c-0.178,0.378-0.441,0.751-0.793,1.125c-0.354,0.563-0.528,1.033-0.528,1.406v9c0.702,1.876-0.97,2.909-5.019,3.094
		c-2.113,0.378-3.083-0.092-2.905-1.406v-2.531h-8.188c-0.528,0.563-1.32,1.503-2.377,2.813c-1.057,1.314-1.85,2.347-2.378,3.094
		h21.396c0.174,0,0.702-0.747,1.585-2.25c1.057-1.872,1.85-2.813,2.378-2.813c0.879,0.189,2.641,1.784,5.282,4.781
		c0.174,0.563,0.265,0.94,0.265,1.125c-0.178,0.378-0.528,0.47-1.057,0.281h-18.49c4.399,4.878,10.83,7.875,19.282,9
		c1.23,0.189,1.936,0.281,2.113,0.281c0,0.378-0.441,0.844-1.32,1.406c-1.234,0.751-2.113,1.406-2.642,1.969
		c-1.412,2.813-2.204,4.126-2.378,3.938c-0.883,0.189-2.555-0.374-5.019-1.688v5.906c-0.354,4.122-3.169,6.188-8.452,6.188
		c-1.057,0-1.676-0.659-1.849-1.969c-0.355-2.065-1.676-3.375-3.963-3.938c-1.057-0.185-1.584-0.374-1.584-0.563
		c0-0.185,0.527-0.281,1.584-0.281c4.227,0.378,6.249-0.563,6.075-2.813v-6.188H596.467z M596.995,98.269
		c-0.355-2.25,0.528-3.094,2.641-2.531c4.227,0.563,5.812,1.406,4.755,2.531l-0.264,0.563v4.781h7.659
		c0.174,0,0.793-0.747,1.85-2.25c1.229-1.872,2.113-2.905,2.642-3.094c0.879,0.189,2.464,1.595,4.754,4.219
		c0.528,0.94,0.793,1.595,0.793,1.969c0,0.378-0.355,0.47-1.057,0.281h-16.641v3.375c0.173,1.125-1.412,1.876-4.755,2.25
		c-1.763,0.189-2.555-0.281-2.377-1.406v-4.219h-8.717v2.813c0.173,0.94-1.412,1.595-4.755,1.969
		c-1.763,0.378-2.555-0.092-2.377-1.406v-3.375h-16.641c-1.412-0.374-1.763-0.747-1.057-1.125h17.697v-5.344
		c-0.355-2.061,0.528-2.813,2.642-2.25c4.399,0.378,5.984,1.314,4.754,2.813l-0.264,0.563v4.219h8.717V98.269z M582.995,113.456
		c-1.939,0-2.732,0.659-2.377,1.969v2.813h24.301v-4.781H582.995z M580.618,119.362v4.5h24.301v-4.5H580.618z M588.542,142.144
		v-3.094c-0.354-1.688,0.528-2.342,2.642-1.969c5.105,0.378,7.041,1.222,5.812,2.531l-0.265,0.281v2.25h7.396
		c0.173,0,0.351-0.185,0.527-0.563c0.352-0.374,0.615-0.655,0.793-0.844c-0.355-0.185-0.619-0.563-0.793-1.125
		c-0.883-1.125-2.112-3.56-3.697-7.313H590.92c-3.698,3.564-6.604,6.095-8.717,7.594c-0.528,0.563-1.057,1.033-1.585,1.406
		c0.173,0.189,0.528,0.378,1.057,0.563c0.351,0.189,0.614,0.281,0.792,0.281H588.542z"/>
	<path fill="#7EA4C9" d="M644.54,95.175c0.702-0.185,2.642,0.097,5.812,0.844c2.641,0.751,3.962,1.314,3.962,1.688
		c-0.178,0.563-0.706,1.314-1.585,2.25c-1.411,1.503-2.468,2.909-3.17,4.219h5.019c0.174,0.189,0.615-0.281,1.321-1.406
		c0.701-1.31,1.229-2.061,1.585-2.25c1.057,0,3.256,1.125,6.604,3.375c-0.355-1.499-0.528-2.813-0.528-3.938
		s0.086-1.969,0.264-2.531c0-1.688,0.528-1.028,1.585,1.969c0.351,0.751,0.701,1.406,1.057,1.969h9.509
		c0.351,0,0.702-0.563,1.057-1.688c0.351-0.936,0.702-1.591,1.057-1.969c4.755,1.314,8.275,4.315,10.565,9
		c-0.177,0.563-0.792,0.94-1.849,1.125c-4.404,0.751-8.452,3.375-12.15,7.875c3.521,3.753,9.418,6.658,17.697,8.719
		c0.528,0.378,0,1.033-1.585,1.969c-1.411,0.94-2.29,1.688-2.642,2.25c-0.354,0.563-0.705,1.314-1.057,2.25
		c-0.354,1.503-0.883,2.065-1.585,1.688c-2.818-0.563-5.638-2.153-8.452-4.781h-25.886c-9.864,7.128-15.939,10.222-18.226,9.281
		c4.577-2.435,8.89-6.188,12.943-11.25c-2.469,0.94-4.14,0.659-5.02-0.844c-0.354-0.374-0.441-1.31-0.264-2.813
		c0.351-2.624,0-4.592-1.057-5.906c-7.751,6.003-9.95,7.22-6.604,3.656c3.343-4.5,6.249-9.844,8.717-16.031
		c0.879-2.624,1.494-4.685,1.849-6.188C643.834,96.396,644.186,95.553,644.54,95.175z M647.445,140.175
		c5.283,1.503,7.925,2.813,7.925,3.938c-0.178,0.189-0.619,0.47-1.321,0.844c-1.585,0.563-2.731,1.125-3.434,1.688
		c-4.403,3.564-9.245,6.469-14.527,8.719c-4.053,1.688-5.019,1.688-2.906,0c0.174,0,0.352,0,0.528,0
		c4.577-3.56,8.188-7.686,10.83-12.375C645.597,140.737,646.563,139.801,647.445,140.175z M641.37,135.675h31.697
		c0.528,0,1.407-1.028,2.642-3.094c0.701-1.499,1.229-2.25,1.585-2.25c0.701,0,2.199,0.94,4.49,2.813
		c0.351,0.378,0.792,0.751,1.32,1.125c0.879,0.94,1.321,1.595,1.321,1.969c0,0.378-0.355,0.563-1.057,0.563h-15.585
		c-1.411-0.185-2.026,1.033-1.849,3.656v15.188c-0.706,3.186-3.611,4.781-8.717,4.781c-0.354,0-0.792-0.659-1.32-1.969
		c-0.884-2.439-2.026-3.753-3.435-3.938c-1.939-0.563-2.905-0.936-2.905-1.125c-0.178-0.185,0.793-0.374,2.905-0.563h0.528
		c3.344,0,4.929-0.655,4.755-1.969V136.8h-15.32c-0.883,0-1.585-0.185-2.113-0.563C640.137,136.053,640.487,135.864,641.37,135.675z
		 M645.597,109.519c-1.411,1.876-3.083,3.753-5.019,5.625c4.755,2.065,7.041,4.878,6.867,8.438c0.174-0.374,0.528-0.844,1.057-1.406
		c0.879-1.31,1.672-2.624,2.378-3.938c-2.291,0.189-3.525-1.125-3.698-3.938C647.004,111.865,646.476,110.27,645.597,109.519z
		 M655.37,105.3h-6.604c-0.706,1.125-1.412,2.065-2.113,2.813c2.992,1.125,5.192,2.531,6.604,4.219
		c0.351-1.125,0.792-2.813,1.32-5.063C654.929,106.521,655.192,105.862,655.37,105.3z M664.351,106.706
		c-2.996,7.69-6.958,14.344-11.887,19.969h12.68c0.351,0,0.965-0.844,1.849-2.531c0.701-1.31,1.229-2.061,1.585-2.25
		c0.351,0.189,1.407,0.563,3.17,1.125C668.75,119.27,666.286,113.834,664.351,106.706z M666.728,102.487
		c1.759,5.251,3.963,9.378,6.604,12.375c1.759-6.561,2.815-10.688,3.17-12.375H666.728z M671.219,142.425
		c-0.178,0-0.442-0.092-0.793-0.281c-1.585-0.563-1.147-0.844,1.321-0.844c8.274,0.94,13.293,3.472,15.056,7.594
		c0.351,3.375-0.355,5.533-2.113,6.469c-2.468,1.31-4.317,1.028-5.547-0.844c-0.178-0.185-0.354-0.655-0.528-1.406
		C677.731,147.865,675.268,144.301,671.219,142.425z"/>
</g>
<g>
	<path fill="#ffffff" d="M314.277,197.39c3.088,0.913,4.632,2.664,4.632,5.256c0,2.16-0.964,3.967-2.891,5.418
		c-1.927,1.453-4.311,2.179-7.15,2.179c-1.578,0-2.637-0.198-3.178-0.595c-0.541-0.396-0.812-1.193-0.812-2.394
		c0-0.552,0.051-2.106,0.152-4.662c0.102-2.556,0.152-4.998,0.152-7.326c0-5.496-0.327-8.964-0.98-10.404
		c1.488,0,2.794-0.023,3.922-0.072c1.127-0.047,1.758-0.072,1.894-0.072c2.682,0,4.823,0.625,6.424,1.872
		c1.6,1.248,2.4,2.868,2.4,4.86C318.841,194.066,317.32,196.046,314.277,197.39z M308.09,187.418
		c-0.045,1.224-0.079,2.46-0.102,3.708l-0.034,5.22c0.631,0.072,1.228,0.108,1.792,0.108c2.051,0,3.572-0.426,4.564-1.278
		c0.991-0.852,1.487-1.974,1.487-3.366c0-1.368-0.502-2.459-1.504-3.276c-1.003-0.815-2.474-1.224-4.412-1.224
		C309.341,187.31,308.743,187.346,308.09,187.418z M307.988,198.722c0,4.248,0.022,7.104,0.068,8.568
		c0.744,0.12,1.454,0.18,2.13,0.18c1.735,0,3.104-0.426,4.108-1.278c1.002-0.852,1.504-1.938,1.504-3.258
		c0-1.368-0.524-2.424-1.572-3.168c-1.048-0.744-2.586-1.116-4.615-1.116C309.092,198.65,308.552,198.674,307.988,198.722z"/>
	<path fill="#ffffff" d="M328.173,209.342c-0.901,0.528-1.713,0.792-2.434,0.792c-0.429,0-0.767-0.12-1.014-0.36
		c-0.249-0.239-0.372-1.008-0.372-2.304c0-0.983,0.062-2.85,0.186-5.598c0.124-2.748,0.186-5.682,0.186-8.802
		c0-4.248-0.316-6.912-0.947-7.992c0.901-0.527,1.712-0.792,2.434-0.792c0.586,0,0.969,0.162,1.15,0.486
		c0.18,0.324,0.27,0.906,0.27,1.746c0,1.345-0.062,3.252-0.186,5.724c-0.125,2.472-0.186,5.616-0.186,9.432
		C327.26,205.802,327.564,208.358,328.173,209.342z"/>
	<path fill="#ffffff" d="M343.59,207.758c-0.608,0.936-1.392,1.65-2.35,2.142c-0.958,0.492-1.978,0.738-3.06,0.738
		c-1.104,0-2.068-0.246-2.891-0.738c-0.823-0.491-1.465-1.235-1.927-2.231s-0.693-2.406-0.693-4.23l0.169-5.328
		c0-2.232-0.259-3.816-0.778-4.752c1.037-0.504,1.826-0.756,2.367-0.756c0.812,0,1.217,0.648,1.217,1.944
		c0,0.816-0.045,2.016-0.135,3.6c-0.09,1.584-0.135,2.904-0.135,3.96c0,2.424,0.271,4.032,0.812,4.824s1.386,1.188,2.536,1.188
		c0.879,0,1.752-0.252,2.621-0.757c0.867-0.504,1.606-1.224,2.214-2.159c0.09-1.849,0.135-3.468,0.135-4.86
		c0-3.504-0.304-5.82-0.913-6.948c0.969-0.527,1.758-0.792,2.367-0.792c0.541,0,0.885,0.175,1.031,0.522
		c0.146,0.348,0.22,1.038,0.22,2.07l-0.135,7.848c0,3.36,0.293,5.521,0.879,6.479c-0.97,0.528-1.736,0.792-2.299,0.792
		c-0.473,0-0.794-0.162-0.963-0.485C343.708,209.504,343.612,208.814,343.59,207.758z"/>
	<path fill="#ffffff" d="M362.692,206.786c0.473,0.552,0.71,1.08,0.71,1.584c0,0.696-0.423,1.248-1.268,1.655
		c-0.845,0.408-2.023,0.612-3.533,0.612c-2.592,0-4.644-0.81-6.153-2.43c-1.51-1.62-2.265-3.81-2.265-6.57
		c0-2.736,0.755-4.992,2.265-6.768c1.51-1.776,3.437-2.664,5.782-2.664c1.803,0,3.291,0.576,4.463,1.728
		c1.171,1.152,1.758,2.592,1.758,4.32c0,1.368-0.496,2.334-1.488,2.898c-0.992,0.564-2.728,0.846-5.207,0.846
		c-1.601,0-3.223-0.131-4.869-0.396c-0.067,1.992,0.44,3.582,1.521,4.771c1.082,1.188,2.457,1.781,4.125,1.781
		C360.156,208.153,361.542,207.698,362.692,206.786z M353.09,199.514c1.938,0.265,3.618,0.396,5.038,0.396
		c1.533,0,2.524-0.138,2.975-0.414c0.451-0.275,0.676-0.761,0.676-1.458c0-1.104-0.344-1.985-1.031-2.646
		c-0.688-0.66-1.64-0.99-2.857-0.99c-1.24,0-2.288,0.444-3.144,1.332C353.89,196.622,353.337,197.882,353.09,199.514z"/>
	<path fill="#ffffff" d="M382.2,207.146c-1.194,1.225-2.383,2.112-3.566,2.664s-2.53,0.828-4.04,0.828
		c-2.412,0-4.306-0.684-5.681-2.052s-2.063-3.144-2.063-5.328c0-3.552,1.814-6.3,5.443-8.244c-0.496-1.344-0.743-2.592-0.743-3.744
		c0-1.896,0.619-3.462,1.859-4.698c1.239-1.236,2.896-1.854,4.97-1.854c1.194,0,2.209,0.234,3.043,0.702
		c0.834,0.468,1.251,1.038,1.251,1.71c0,0.768-0.496,1.417-1.487,1.944c-0.834-1.128-1.916-1.692-3.246-1.692
		c-1.06,0-1.905,0.36-2.536,1.08c-0.631,0.72-0.946,1.692-0.946,2.916c0,3.312,2.479,7.224,7.438,11.736
		c0.901-1.824,1.353-3.636,1.353-5.437c0.541-0.12,1.014-0.18,1.42-0.18c0.991,0,1.487,0.457,1.487,1.368
		c0,1.224-0.777,3.216-2.333,5.976c1.803,1.464,3.234,2.196,4.294,2.196c0.203,0,0.406-0.023,0.608-0.072
		c0.271,0.576,0.406,1.128,0.406,1.656s-0.136,0.954-0.406,1.277c-0.271,0.324-0.643,0.486-1.115,0.486
		C386.303,210.386,384.5,209.306,382.2,207.146z M380.273,205.454c-2.683-2.4-4.981-5.148-6.897-8.244
		c-2.457,1.368-3.686,3.24-3.686,5.616c0,1.607,0.508,2.868,1.521,3.779c1.015,0.913,2.311,1.368,3.889,1.368
		C377.174,207.974,378.898,207.134,380.273,205.454z"/>
	<path fill="#ffffff" d="M409.079,185.474c0.766-0.264,1.386-0.396,1.859-0.396c0.969,0,1.454,0.625,1.454,1.872
		c0,1.993-1.342,5.748-4.023,11.268c2.366,4.992,3.809,7.488,4.327,7.488c0.226,0,0.671-0.474,1.336-1.422
		c0.664-0.948,1.566-2.568,2.705-4.86c1.138-2.292,1.949-4.392,2.434-6.3c0.484-1.908,0.728-3.618,0.728-5.13
		c0-1.104-0.136-2.028-0.406-2.772c0.767-0.288,1.408-0.432,1.928-0.432c0.518,0,0.93,0.162,1.233,0.486
		c0.305,0.324,0.457,0.942,0.457,1.854c0,1.872-0.372,3.918-1.116,6.138c-0.744,2.22-1.572,4.225-2.485,6.012
		c-0.912,1.788-2.04,3.774-3.381,5.958c-1.341,2.185-2.282,3.631-2.823,4.339c-0.54,0.707-0.912,1.062-1.115,1.062
		c-0.587,0-2.39-3.323-5.409-9.972c-3.878,6.648-6.312,9.972-7.304,9.972c-0.428,0-1.054-0.869-1.876-2.61
		c-0.823-1.739-2.249-5.525-4.277-11.357c-2.096-6.024-3.696-9.516-4.801-10.476c0.721-0.936,1.487-1.404,2.299-1.404
		c0.789,0,1.432,0.45,1.928,1.35c0.495,0.9,1.577,3.882,3.245,8.946c2.367,7.176,3.81,10.764,4.328,10.764
		c0.338,0,0.964-0.636,1.876-1.908c0.913-1.271,2.068-3.227,3.466-5.868c-2.457-6.624-4.429-10.452-5.917-11.484
		c0.608-1.008,1.363-1.512,2.266-1.512c1.194,0,2.941,3.469,5.24,10.404c1.42-3.336,2.13-5.952,2.13-7.848
		C409.383,186.89,409.281,186.17,409.079,185.474z"/>
	<path fill="#ffffff" d="M429.365,209.378c-0.857,0.504-1.646,0.756-2.367,0.756c-0.563,0-0.93-0.144-1.099-0.432
		s-0.254-0.9-0.254-1.836c0-1.032,0.073-2.929,0.22-5.688s0.22-5.711,0.22-8.856c0-2.88-0.057-4.8-0.169-5.76
		c-0.113-0.96-0.327-1.8-0.643-2.52c0.901-0.504,1.69-0.756,2.367-0.756c0.586,0,0.958,0.187,1.115,0.558
		c0.158,0.373,0.237,0.978,0.237,1.818c0,0.625-0.034,1.41-0.102,2.358s-0.146,2.646-0.236,5.094
		c1.667-1.272,3.347-1.908,5.037-1.908c1.015,0,1.91,0.187,2.688,0.558c0.777,0.373,1.414,0.913,1.91,1.62
		c0.495,0.708,0.828,1.452,0.997,2.232c0.169,0.78,0.254,1.806,0.254,3.078l-0.102,4.608c0,2.496,0.281,4.176,0.845,5.04
		c-1.037,0.528-1.825,0.792-2.366,0.792c-0.563,0-0.93-0.149-1.099-0.45c-0.169-0.3-0.254-0.833-0.254-1.602
		c0-0.648,0.034-1.65,0.102-3.006c0.067-1.356,0.102-2.574,0.102-3.654c0-2.472-0.288-4.224-0.862-5.256
		c-0.575-1.032-1.527-1.548-2.857-1.548c-1.194,0-2.659,0.588-4.395,1.764c-0.068,2.712-0.102,4.812-0.102,6.3
		c0,1.872,0.056,3.288,0.169,4.248C428.835,207.89,429.049,208.706,429.365,209.378z"/>
	<path fill="#ffffff" d="M448.434,209.342c-0.902,0.528-1.747,0.792-2.536,0.792c-0.519,0-0.879-0.162-1.082-0.486
		c-0.203-0.323-0.304-1.062-0.304-2.214c0-0.864,0.051-2.039,0.151-3.527c0.102-1.488,0.152-3.012,0.152-4.572
		c0-2.736-0.282-4.704-0.845-5.904c0.879-0.527,1.724-0.792,2.535-0.792c0.879,0,1.319,0.528,1.319,1.584l-0.203,4.104
		c-0.067,1.632-0.102,3.132-0.102,4.5C447.521,205.922,447.825,208.094,448.434,209.342z M446.337,185.294
		c0.541,0,1.003,0.186,1.387,0.558c0.383,0.373,0.574,0.846,0.574,1.422c0,0.672-0.214,1.23-0.643,1.674
		c-0.428,0.444-0.992,0.666-1.69,0.666c-0.586,0-1.048-0.174-1.386-0.522c-0.338-0.348-0.507-0.822-0.507-1.422
		c0-0.648,0.22-1.206,0.659-1.674C445.171,185.528,445.706,185.294,446.337,185.294z"/>
	<path fill="#ffffff" d="M454.181,196.454c-0.608,0.024-1.049,0.036-1.319,0.036c-0.519,0-0.867-0.072-1.048-0.216
		s-0.271-0.372-0.271-0.684c0-0.336,0.102-0.744,0.305-1.224c0.766,0.048,1.6,0.036,2.502-0.036c0.067-2.52-0.147-4.32-0.643-5.4
		c0.969-0.504,1.725-0.756,2.266-0.756c0.833,0,1.251,0.636,1.251,1.908c0,0.312-0.079,1.692-0.237,4.14
		c1.533-0.192,2.536-0.288,3.01-0.288c0.766,0,1.149,0.276,1.149,0.828c0,0.432-0.203,0.972-0.608,1.62
		c-0.474-0.144-1.061-0.216-1.759-0.216c-0.428,0-1.094,0.024-1.994,0.072c-0.181,3.312-0.271,5.736-0.271,7.272
		c0,1.896,0.151,3.126,0.456,3.69c0.305,0.563,0.727,0.846,1.268,0.846c0.383,0,0.778-0.145,1.184-0.432
		c0.181,0.408,0.271,0.792,0.271,1.151c0,0.576-0.215,1.032-0.643,1.368c-0.429,0.336-1.014,0.504-1.758,0.504
		c-1.217,0-2.108-0.414-2.671-1.242c-0.563-0.828-0.846-2.105-0.846-3.834C453.774,204.77,453.91,201.734,454.181,196.454z"/>
	<path fill="#ffffff" d="M475.447,206.786c0.474,0.552,0.71,1.08,0.71,1.584c0,0.696-0.423,1.248-1.268,1.655
		c-0.846,0.408-2.023,0.612-3.533,0.612c-2.593,0-4.644-0.81-6.153-2.43c-1.511-1.62-2.266-3.81-2.266-6.57
		c0-2.736,0.755-4.992,2.266-6.768c1.51-1.776,3.437-2.664,5.781-2.664c1.803,0,3.291,0.576,4.463,1.728
		c1.172,1.152,1.758,2.592,1.758,4.32c0,1.368-0.496,2.334-1.487,2.898c-0.992,0.564-2.728,0.846-5.207,0.846
		c-1.601,0-3.224-0.131-4.868-0.396c-0.068,1.992,0.439,3.582,1.521,4.771c1.082,1.188,2.456,1.781,4.124,1.781
		C472.911,208.153,474.298,207.698,475.447,206.786z M465.845,199.514c1.938,0.265,3.618,0.396,5.038,0.396
		c1.532,0,2.524-0.138,2.976-0.414c0.45-0.275,0.676-0.761,0.676-1.458c0-1.104-0.344-1.985-1.031-2.646
		c-0.688-0.66-1.64-0.99-2.856-0.99c-1.24,0-2.288,0.444-3.145,1.332C466.645,196.622,466.093,197.882,465.845,199.514z"/>
	<path fill="#ffffff" d="M390.054,231.482c-1.173-0.576-2.57-0.864-4.192-0.864c-3.134,0-5.664,0.912-7.591,2.735
		c-1.927,1.824-2.891,4.213-2.891,7.164c0,3.001,0.924,5.454,2.772,7.362c1.848,1.908,4.158,2.862,6.931,2.862
		c1.759,0,3.393-0.456,4.902-1.368c0.631,0.841,0.947,1.561,0.947,2.16c0,0.744-0.496,1.313-1.488,1.71
		c-0.992,0.396-2.332,0.594-4.023,0.594c-3.944,0-7.167-1.242-9.669-3.726c-2.502-2.484-3.753-5.563-3.753-9.234
		c0-3.792,1.425-6.972,4.276-9.54c2.852-2.567,6.407-3.852,10.667-3.852c1.353,0,2.351,0.12,2.992,0.359
		c0.643,0.24,0.964,0.685,0.964,1.332C390.898,229.754,390.616,230.522,390.054,231.482z"/>
	<path fill="#ffffff" d="M411.083,244.19c0,2.663-0.885,4.938-2.654,6.821c-1.77,1.885-3.928,2.826-6.475,2.826
		c-2.569,0-4.654-0.84-6.255-2.52s-2.4-3.84-2.4-6.48c0-2.784,0.862-5.052,2.587-6.804c1.724-1.752,3.949-2.628,6.677-2.628
		c2.479,0,4.52,0.828,6.12,2.483C410.282,239.546,411.083,241.646,411.083,244.19z M396.139,244.838c0,1.896,0.569,3.45,1.708,4.662
		c1.138,1.212,2.574,1.818,4.311,1.818c1.803,0,3.268-0.654,4.396-1.962c1.126-1.309,1.69-2.935,1.69-4.879
		c0-1.943-0.559-3.533-1.674-4.77c-1.116-1.235-2.564-1.854-4.345-1.854c-1.826,0-3.297,0.637-4.412,1.908
		C396.696,241.034,396.139,242.727,396.139,244.838z"/>
	<path fill="#ffffff" d="M414.26,235.586c0.563-0.12,1.049-0.18,1.454-0.18c1.172,0,1.826,0.624,1.961,1.872
		c1.69-1.248,3.369-1.872,5.038-1.872c1.623,0,3.043,0.672,4.26,2.016c1.735-1.344,3.606-2.016,5.612-2.016
		c1.916,0,3.409,0.57,4.48,1.71c1.07,1.14,1.605,2.73,1.605,4.77l-0.067,4.32c0,3.408,0.281,5.521,0.845,6.336
		c-0.992,0.528-1.78,0.792-2.366,0.792c-0.361,0-0.632-0.054-0.812-0.162c-0.181-0.107-0.316-0.342-0.405-0.702
		c-0.091-0.359-0.136-0.947-0.136-1.764l0.236-6.912c0-2.088-0.293-3.588-0.879-4.5s-1.555-1.368-2.907-1.368
		c-1.511,0-2.941,0.456-4.294,1.368c0.203,1.152,0.304,3.708,0.304,7.668c0,2.977,0.248,4.849,0.744,5.616
		c-0.946,0.504-1.747,0.756-2.4,0.756c-0.405,0-0.722-0.12-0.946-0.36c-0.226-0.239-0.339-0.923-0.339-2.052
		c0-0.552,0.028-1.452,0.085-2.7c0.056-1.247,0.084-2.447,0.084-3.6c0-2.472-0.253-4.212-0.76-5.22
		c-0.508-1.009-1.415-1.513-2.723-1.513c-1.352,0-2.75,0.553-4.192,1.656c-0.09,3.145-0.135,5.437-0.135,6.876
		c0,2.977,0.271,5.028,0.812,6.156c-0.834,0.504-1.623,0.756-2.367,0.756c-0.631,0-1.014-0.204-1.149-0.612
		c-0.135-0.407-0.203-0.972-0.203-1.691c0-0.696,0.063-1.974,0.187-3.834s0.186-3.786,0.186-5.778
		C415.071,238.658,414.801,236.715,414.26,235.586z"/>
	<path fill="#ffffff" d="M443.032,235.586c0.563-0.12,1.049-0.18,1.454-0.18c1.172,0,1.826,0.624,1.961,1.872
		c1.69-1.248,3.369-1.872,5.038-1.872c1.623,0,3.043,0.672,4.26,2.016c1.735-1.344,3.606-2.016,5.612-2.016
		c1.916,0,3.409,0.57,4.48,1.71c1.07,1.14,1.605,2.73,1.605,4.77l-0.067,4.32c0,3.408,0.281,5.521,0.845,6.336
		c-0.992,0.528-1.78,0.792-2.366,0.792c-0.361,0-0.632-0.054-0.812-0.162c-0.181-0.107-0.316-0.342-0.405-0.702
		c-0.091-0.359-0.136-0.947-0.136-1.764l0.236-6.912c0-2.088-0.293-3.588-0.879-4.5s-1.555-1.368-2.907-1.368
		c-1.511,0-2.941,0.456-4.294,1.368c0.203,1.152,0.304,3.708,0.304,7.668c0,2.977,0.248,4.849,0.744,5.616
		c-0.946,0.504-1.747,0.756-2.4,0.756c-0.405,0-0.722-0.12-0.946-0.36c-0.226-0.239-0.339-0.923-0.339-2.052
		c0-0.552,0.028-1.452,0.085-2.7c0.056-1.247,0.084-2.447,0.084-3.6c0-2.472-0.253-4.212-0.76-5.22
		c-0.508-1.009-1.415-1.513-2.723-1.513c-1.352,0-2.75,0.553-4.192,1.656c-0.09,3.145-0.135,5.437-0.135,6.876
		c0,2.977,0.271,5.028,0.812,6.156c-0.834,0.504-1.623,0.756-2.367,0.756c-0.631,0-1.014-0.204-1.149-0.612
		c-0.135-0.407-0.203-0.972-0.203-1.691c0-0.696,0.063-1.974,0.187-3.834s0.186-3.786,0.186-5.778
		C443.844,238.658,443.573,236.715,443.032,235.586z"/>
	<path fill="#ffffff" d="M483.639,249.986c0.474,0.552,0.71,1.08,0.71,1.584c0,0.696-0.423,1.248-1.268,1.655
		c-0.846,0.408-2.023,0.612-3.533,0.612c-2.593,0-4.644-0.81-6.153-2.43c-1.511-1.62-2.266-3.81-2.266-6.57
		c0-2.736,0.755-4.991,2.266-6.768c1.51-1.776,3.437-2.664,5.781-2.664c1.803,0,3.291,0.576,4.463,1.728
		c1.172,1.152,1.758,2.592,1.758,4.32c0,1.368-0.496,2.334-1.487,2.897c-0.992,0.564-2.728,0.847-5.207,0.847
		c-1.601,0-3.224-0.132-4.868-0.396c-0.068,1.992,0.439,3.582,1.521,4.771c1.082,1.188,2.456,1.781,4.124,1.781
		C481.103,251.354,482.489,250.898,483.639,249.986z M474.036,242.714c1.938,0.265,3.618,0.396,5.038,0.396
		c1.532,0,2.524-0.138,2.976-0.414c0.45-0.276,0.676-0.762,0.676-1.458c0-1.104-0.344-1.986-1.031-2.646
		c-0.688-0.659-1.64-0.99-2.856-0.99c-1.24,0-2.288,0.444-3.145,1.332C474.836,239.822,474.284,241.082,474.036,242.714z"/>
	<path fill="#ffffff" d="M491.922,239.618c-0.09,2.688-0.135,4.836-0.135,6.443c0,3.289,0.259,5.461,0.777,6.517
		c-0.857,0.504-1.646,0.756-2.367,0.756c-0.473,0-0.812-0.12-1.014-0.36c-0.203-0.239-0.305-0.756-0.305-1.548
		c0-0.647,0.051-2.117,0.152-4.41c0.102-2.291,0.152-4.134,0.152-5.525c0-2.664-0.26-4.608-0.778-5.832
		c0.541-0.168,1.025-0.252,1.454-0.252c1.172,0,1.826,0.66,1.961,1.979c0.767-0.6,1.64-1.08,2.62-1.439
		c0.98-0.36,1.899-0.54,2.756-0.54s1.656,0.156,2.4,0.468c0.744,0.313,1.392,0.798,1.944,1.458c0.552,0.66,0.946,1.512,1.184,2.556
		c0.236,1.044,0.343,2.466,0.32,4.267v2.483c0,1.753,0.051,3.001,0.152,3.744c0.102,0.744,0.333,1.464,0.693,2.16
		c-0.992,0.528-1.781,0.792-2.366,0.792c-0.541,0-0.908-0.156-1.1-0.468s-0.287-0.996-0.287-2.052c0-0.553,0.034-1.44,0.102-2.664
		c0.067-1.225,0.102-2.568,0.102-4.032c0-2.28-0.333-3.894-0.998-4.842s-1.605-1.423-2.822-1.423
		C495.168,237.854,493.635,238.442,491.922,239.618z"/>
	<path fill="#ffffff" d="M509.165,239.654c-0.608,0.023-1.049,0.036-1.319,0.036c-0.519,0-0.867-0.072-1.048-0.217
		c-0.181-0.144-0.271-0.371-0.271-0.684c0-0.336,0.102-0.744,0.305-1.224c0.766,0.048,1.6,0.035,2.502-0.036
		c0.067-2.521-0.147-4.32-0.643-5.4c0.969-0.504,1.725-0.756,2.266-0.756c0.833,0,1.251,0.636,1.251,1.908
		c0,0.312-0.079,1.691-0.237,4.14c1.533-0.191,2.536-0.288,3.01-0.288c0.766,0,1.149,0.276,1.149,0.828
		c0,0.432-0.203,0.972-0.608,1.62c-0.474-0.145-1.061-0.216-1.759-0.216c-0.428,0-1.094,0.024-1.994,0.071
		c-0.181,3.313-0.271,5.737-0.271,7.272c0,1.896,0.151,3.126,0.456,3.69c0.305,0.563,0.727,0.846,1.268,0.846
		c0.383,0,0.778-0.145,1.184-0.432c0.181,0.408,0.271,0.792,0.271,1.151c0,0.576-0.215,1.032-0.643,1.368
		c-0.429,0.336-1.014,0.504-1.758,0.504c-1.217,0-2.108-0.414-2.671-1.242c-0.563-0.828-0.846-2.105-0.846-3.834
		C508.759,247.97,508.895,244.935,509.165,239.654z"/>
	<path fill="#ffffff" d="M540.167,245.198h-8.926c-0.879,2.04-1.487,3.612-1.825,4.716c-0.339,1.104-0.53,2.22-0.575,3.348
		c-0.315,0.049-0.608,0.072-0.879,0.072c-1.442,0-2.164-0.612-2.164-1.836c0-0.576,1.07-3.155,3.212-7.74
		c2.028-4.296,3.889-8.544,5.579-12.744c-0.271-0.432-0.677-0.947-1.218-1.548c0.767-1.031,1.477-1.548,2.131-1.548
		c0.473,0,0.946,0.349,1.42,1.044c0.473,0.696,0.98,1.776,1.521,3.24c2.344,6.36,4.175,11.082,5.494,14.166
		c1.318,3.084,2.326,4.95,3.025,5.598c-0.789,0.912-1.544,1.368-2.265,1.368c-0.654,0-1.348-0.678-2.08-2.034
		C541.886,249.944,541.068,247.91,540.167,245.198z M535.907,233.858l-3.584,8.928h6.965
		C537.891,238.851,536.764,235.874,535.907,233.858z"/>
	<path fill="#ffffff" d="M552.541,239.51c1.623-2.448,3.145-3.672,4.564-3.672c0.608,0,1.133,0.211,1.572,0.63
		c0.439,0.42,0.659,0.931,0.659,1.53c0,0.792-0.496,1.561-1.488,2.304c-0.338-1.008-0.867-1.512-1.589-1.512
		c-0.519,0-1.076,0.282-1.674,0.846c-0.597,0.564-1.188,1.387-1.774,2.466c-0.113,1.201-0.169,2.389-0.169,3.564
		c0,3.217,0.372,5.521,1.115,6.912c-0.901,0.504-1.747,0.756-2.535,0.756c-0.564,0-0.941-0.12-1.133-0.36
		c-0.192-0.239-0.288-0.863-0.288-1.872c0-0.383,0.057-1.649,0.17-3.798c0.112-2.147,0.169-4.037,0.169-5.67
		c0-2.735-0.237-4.584-0.71-5.544c0.518-0.168,0.969-0.252,1.353-0.252c0.518,0,0.957,0.145,1.318,0.432
		c0.36,0.288,0.541,0.889,0.541,1.801C552.643,238.479,552.608,238.958,552.541,239.51z"/>
	<path fill="#ffffff" d="M563.326,239.654c-0.608,0.023-1.049,0.036-1.319,0.036c-0.519,0-0.867-0.072-1.048-0.217
		c-0.181-0.144-0.271-0.371-0.271-0.684c0-0.336,0.102-0.744,0.305-1.224c0.766,0.048,1.6,0.035,2.502-0.036
		c0.067-2.521-0.147-4.32-0.643-5.4c0.969-0.504,1.725-0.756,2.266-0.756c0.833,0,1.251,0.636,1.251,1.908
		c0,0.312-0.079,1.691-0.237,4.14c1.533-0.191,2.536-0.288,3.01-0.288c0.766,0,1.149,0.276,1.149,0.828
		c0,0.432-0.203,0.972-0.608,1.62c-0.474-0.145-1.061-0.216-1.759-0.216c-0.428,0-1.094,0.024-1.994,0.071
		c-0.181,3.313-0.271,5.737-0.271,7.272c0,1.896,0.151,3.126,0.456,3.69c0.305,0.563,0.727,0.846,1.268,0.846
		c0.384,0,0.778-0.145,1.184-0.432c0.181,0.408,0.271,0.792,0.271,1.151c0,0.576-0.215,1.032-0.643,1.368s-1.014,0.504-1.758,0.504
		c-1.217,0-2.108-0.414-2.671-1.242c-0.563-0.828-0.846-2.105-0.846-3.834C562.92,247.97,563.056,244.935,563.326,239.654z"/>
	<path fill="#ffffff" d="M594.024,238.394c0.202,0.457,0.304,0.913,0.304,1.368c0,0.553-0.141,0.979-0.423,1.278
		c-0.281,0.301-0.896,0.48-1.842,0.54c-0.947,0.061-3.19,0.078-6.729,0.054c0,6.408,0.36,10.177,1.082,11.304
		c-1.06,0.601-1.983,0.9-2.772,0.9c-0.429,0-0.75-0.084-0.964-0.252s-0.36-0.396-0.439-0.684s-0.118-0.864-0.118-1.729
		c0-1.031,0.062-3.168,0.186-6.408c0.124-3.239,0.187-6.731,0.187-10.476c0-2.592-0.192-4.62-0.575-6.084
		c1.353,0.072,2.423,0.108,3.212,0.108c1.082,0,2.457-0.066,4.125-0.198s2.896-0.198,3.686-0.198c0.991,0,1.628,0.126,1.91,0.378
		c0.281,0.252,0.423,0.618,0.423,1.098c0,0.625-0.237,1.417-0.71,2.376c-0.925-0.575-2.772-0.863-5.545-0.863
		c-1.037,0-2.221,0.036-3.551,0.107c0.022,3.36,0,5.988-0.067,7.885c2.93,0.023,4.953,0,6.069-0.072
		C592.587,238.754,593.438,238.61,594.024,238.394z"/>
	<path fill="#ffffff" d="M610.591,249.986c0.474,0.552,0.71,1.08,0.71,1.584c0,0.696-0.423,1.248-1.268,1.655
		c-0.846,0.408-2.023,0.612-3.533,0.612c-2.593,0-4.644-0.81-6.153-2.43c-1.511-1.62-2.266-3.81-2.266-6.57
		c0-2.736,0.755-4.991,2.266-6.768c1.51-1.776,3.437-2.664,5.781-2.664c1.803,0,3.291,0.576,4.463,1.728
		c1.172,1.152,1.758,2.592,1.758,4.32c0,1.368-0.496,2.334-1.487,2.897c-0.992,0.564-2.728,0.847-5.207,0.847
		c-1.601,0-3.224-0.132-4.868-0.396c-0.068,1.992,0.439,3.582,1.521,4.771c1.082,1.188,2.456,1.781,4.124,1.781
		C608.055,251.354,609.441,250.898,610.591,249.986z M600.988,242.714c1.938,0.265,3.618,0.396,5.038,0.396
		c1.532,0,2.524-0.138,2.976-0.414c0.45-0.276,0.676-0.762,0.676-1.458c0-1.104-0.344-1.986-1.031-2.646
		c-0.688-0.659-1.64-0.99-2.856-0.99c-1.24,0-2.288,0.444-3.145,1.332C601.788,239.822,601.236,241.082,600.988,242.714z"/>
	<path fill="#ffffff" d="M616.034,250.526c0.744,0.432,1.476,0.647,2.197,0.647c0.789,0,1.426-0.203,1.91-0.612
		c0.484-0.407,0.728-0.936,0.728-1.584c0-0.552-0.147-1.056-0.439-1.512c-0.294-0.455-0.778-0.972-1.454-1.548
		c-2.187-1.848-3.279-3.443-3.279-4.788c0-1.416,0.642-2.724,1.927-3.924s2.828-1.8,4.632-1.8c0.586,0,1.003,0.12,1.251,0.359
		c0.248,0.24,0.372,0.517,0.372,0.828c0,0.385-0.215,0.996-0.643,1.836c-0.608-0.264-1.149-0.396-1.623-0.396
		c-0.901,0-1.64,0.233-2.214,0.702c-0.575,0.468-0.862,1.086-0.862,1.854c0,0.385,0.203,0.87,0.608,1.458
		c0.405,0.589,0.969,1.206,1.69,1.854c1.149,1.032,1.898,1.884,2.248,2.556s0.524,1.345,0.524,2.016c0,1.345-0.625,2.574-1.876,3.69
		s-2.599,1.674-4.041,1.674c-0.608,0-1.133-0.126-1.572-0.378s-0.659-0.642-0.659-1.17
		C615.459,251.786,615.65,251.198,616.034,250.526z"/>
	<path fill="#ffffff" d="M628.713,239.654c-0.608,0.023-1.049,0.036-1.319,0.036c-0.519,0-0.867-0.072-1.048-0.217
		c-0.181-0.144-0.271-0.371-0.271-0.684c0-0.336,0.102-0.744,0.305-1.224c0.766,0.048,1.6,0.035,2.502-0.036
		c0.067-2.521-0.147-4.32-0.643-5.4c0.969-0.504,1.725-0.756,2.266-0.756c0.833,0,1.251,0.636,1.251,1.908
		c0,0.312-0.079,1.691-0.237,4.14c1.533-0.191,2.536-0.288,3.01-0.288c0.766,0,1.149,0.276,1.149,0.828
		c0,0.432-0.203,0.972-0.608,1.62c-0.474-0.145-1.061-0.216-1.759-0.216c-0.428,0-1.094,0.024-1.994,0.071
		c-0.181,3.313-0.271,5.737-0.271,7.272c0,1.896,0.151,3.126,0.456,3.69c0.305,0.563,0.727,0.846,1.268,0.846
		c0.384,0,0.778-0.145,1.184-0.432c0.181,0.408,0.271,0.792,0.271,1.151c0,0.576-0.215,1.032-0.643,1.368s-1.014,0.504-1.758,0.504
		c-1.217,0-2.108-0.414-2.671-1.242c-0.563-0.828-0.846-2.105-0.846-3.834C628.307,247.97,628.442,244.935,628.713,239.654z"/>
	<path fill="#ffffff" d="M642.676,252.542c-0.902,0.528-1.747,0.792-2.536,0.792c-0.519,0-0.879-0.162-1.082-0.486
		c-0.203-0.323-0.304-1.062-0.304-2.214c0-0.864,0.051-2.039,0.151-3.527c0.102-1.488,0.152-3.012,0.152-4.572
		c0-2.736-0.282-4.704-0.845-5.904c0.879-0.527,1.724-0.792,2.535-0.792c0.879,0,1.319,0.528,1.319,1.584l-0.203,4.104
		c-0.067,1.632-0.102,3.132-0.102,4.5C641.763,249.122,642.067,251.294,642.676,252.542z M640.579,228.494
		c0.541,0,1.003,0.186,1.387,0.558c0.383,0.373,0.574,0.847,0.574,1.422c0,0.673-0.214,1.23-0.643,1.675
		c-0.428,0.444-0.992,0.666-1.69,0.666c-0.586,0-1.048-0.174-1.386-0.522c-0.338-0.348-0.507-0.822-0.507-1.422
		c0-0.648,0.22-1.206,0.659-1.674C639.413,228.728,639.948,228.494,640.579,228.494z"/>
	<path fill="#ffffff" d="M645.043,238.214c0.879-1.584,1.656-2.376,2.332-2.376c0.541,0,1.025,0.402,1.454,1.206
		c0.428,0.805,1.015,2.442,1.759,4.914c1.645,5.472,2.614,8.208,2.907,8.208c0.474,0,1.442-1.47,2.907-4.41
		c1.465-2.939,2.198-5.454,2.198-7.542c0-0.815-0.113-1.535-0.338-2.16c0.585-0.144,1.093-0.216,1.521-0.216
		c1.284,0,1.927,0.612,1.927,1.836c0,1.008-0.282,2.316-0.846,3.924c-0.563,1.608-1.437,3.475-2.62,5.599
		c-1.183,2.124-2.203,3.72-3.06,4.788c-0.856,1.067-1.656,1.602-2.4,1.602c-0.587,0-1.145-0.534-1.674-1.602
		c-0.529-1.068-1.257-3.138-2.181-6.21C647.759,241.862,646.463,239.343,645.043,238.214z"/>
	<path fill="#ffffff" d="M678.277,252.686c-0.925,0.601-1.646,0.9-2.164,0.9c-0.812,0-1.263-0.66-1.353-1.979
		c-1.578,1.488-3.212,2.231-4.902,2.231c-1.646,0-2.976-0.54-3.99-1.62c-1.014-1.08-1.521-2.424-1.521-4.032
		c0-1.823,0.705-3.287,2.113-4.392c1.409-1.104,3.297-1.656,5.663-1.656c0.834,0,1.69,0.072,2.57,0.216
		c0.021-0.239,0.033-0.479,0.033-0.72c0-1.247-0.327-2.214-0.98-2.897c-0.653-0.685-1.578-1.026-2.772-1.026
		c-1.961,0-3.325,0.732-4.091,2.196c-0.812-0.216-1.217-0.732-1.217-1.548c0-0.84,0.495-1.542,1.487-2.106
		c0.991-0.563,2.333-0.846,4.023-0.846c1.938,0,3.432,0.528,4.479,1.584c1.049,1.056,1.572,2.544,1.572,4.464l-0.102,4.392
		C677.127,249.446,677.511,251.727,678.277,252.686z M674.659,244.586c-0.946-0.168-1.814-0.252-2.604-0.252
		c-1.623,0-2.856,0.318-3.702,0.954c-0.845,0.636-1.268,1.578-1.268,2.826c0,1.008,0.304,1.794,0.913,2.357
		c0.608,0.564,1.453,0.847,2.535,0.847c1.69,0,3.077-0.648,4.159-1.944C674.625,247.886,674.613,246.29,674.659,244.586z"/>
	<path fill="#ffffff" d="M686.256,252.542c-0.902,0.528-1.714,0.792-2.435,0.792c-0.429,0-0.767-0.12-1.015-0.36
		c-0.248-0.239-0.372-1.008-0.372-2.304c0-0.983,0.063-2.85,0.187-5.598c0.123-2.748,0.186-5.682,0.186-8.803
		c0-4.247-0.315-6.911-0.946-7.991c0.901-0.528,1.713-0.792,2.435-0.792c0.586,0,0.969,0.162,1.149,0.485
		c0.18,0.324,0.271,0.906,0.271,1.746c0,1.345-0.063,3.253-0.187,5.725s-0.186,5.615-0.186,9.432
		C685.343,249.002,685.647,251.559,686.256,252.542z"/>
</g>
</svg>
