<?xml version="1.0" encoding="utf-8"?>
<!-- Generator: Adobe Illustrator 14.0.0, SVG Export Plug-In . SVG Version: 6.00 Build 43363)  -->
<!DOCTYPE svg PUBLIC "-//W3C//DTD SVG 1.1//EN" "http://www.w3.org/Graphics/SVG/1.1/DTD/svg11.dtd">
<svg version="1.1" id="图层_1" xmlns="http://www.w3.org/2000/svg" xmlns:xlink="http://www.w3.org/1999/xlink" x="0px" y="0px"
	 width="540px" height="390px" viewBox="0 0 540 390" enable-background="new 0 0 540 390" xml:space="preserve">
<g>
	<path fill-rule="evenodd" clip-rule="evenodd" d="M171.317,131.243c-3.34,0-6.679,0-10.019,0c1.061-13.66-22.41-14.967-21.039,0
		c-3.673,0-7.347,0-11.021,0C125.607,104.953,175.183,103.944,171.317,131.243z"/>
	<path fill-rule="evenodd" clip-rule="evenodd" d="M119.221,131.243c0,16.697,0,33.395,0,50.093
		c-31.675,8.661-54.066-14.823-39.072-36.067c4.783-6.777,14.604-7.451,28.052-7.013
		C105.522,129.566,113.037,131.07,119.221,131.243z M88.163,152.282c-4.238,14.944,4.219,23.11,20.037,21.039
		c-0.662-8.689,1.328-20.028-1.001-27.05C99.761,147.774,92.663,146.4,88.163,152.282z"/>
	<path fill-rule="evenodd" clip-rule="evenodd" d="M125.232,0c-0.097,60.91-1.199,126.974,5.009,183.339c3.673,0,7.347,0,11.021,0
		c2.307-15.058,0.356-34.374,1.002-51.094c5.69,0.654,14.007-1.318,18.033,1.001c1.311,16.054-2.639,37.37,2.004,50.093
		c3.673,0,7.347,0,11.02,0c2.307-15.058,0.357-34.374,1.002-51.094c121.892,0,243.785,0,365.677,0c0,85.491,0,170.983,0,256.475
		c-138.257-0.668-279.182,1.336-415.77-1.002c0-84.489,0-168.979,0-253.469c-6.292-8.325,2.155-26.607-12.022-23.042
		c-9.017,2.267-2.683,10.066-6.011,19.035c-35.399,0-70.798,0-106.197,0C0,86.827,0,43.414,0,0C41.744,0,83.488,0,125.232,0z"/>
</g>
</svg>
