<?xml version="1.0" encoding="utf-8"?>
<!-- Generator: Adobe Illustrator 14.0.0, SVG Export Plug-In . SVG Version: 6.00 Build 43363)  -->
<!DOCTYPE svg PUBLIC "-//W3C//DTD SVG 1.1//EN" "http://www.w3.org/Graphics/SVG/1.1/DTD/svg11.dtd">
<svg version="1.1" id="图层_1" xmlns="http://www.w3.org/2000/svg" xmlns:xlink="http://www.w3.org/1999/xlink" x="0px" y="0px"
	 width="848px" height="480px" viewBox="0 0 848 480" enable-background="new 0 0 848 480" xml:space="preserve">
<g>
	<path fill="none" stroke="#000000" stroke-width="2.3195" stroke-linecap="round" d="M651.561,150.353
		c0.121-0.036,0.243-0.072,0.365-0.109c4.813,2.675,5.328,10.446,4.185,15.403"/>
	<path fill="none" stroke="#000000" stroke-width="1.2683" stroke-linecap="round" d="M650.431,172.713
		c-0.118,0.682-0.429,1.325-0.743,1.929c-1.338,0.269-2.995,0.228-4.585,0.252"/>
	<path fill="none" stroke="#000000" stroke-width="2.0926" stroke-linecap="round" d="M650.431,172.713
		c-0.657-0.154-1.347-0.295-1.938-0.483"/>
	<path fill="none" stroke="#000000" stroke-width="1.93" stroke-linecap="round" d="M648.494,172.229
		c-0.158,0.056-0.317,0.109-0.478,0.166c-5.18-2.193-4.885-10.794-4.324-15.302c0.027-0.217,0.393-0.393,0.443-0.605"/>
	<path fill="none" stroke="#000000" stroke-width="1.4022" stroke-linecap="round" d="M644.135,156.488
		c0.942-3.092,3.536-8.208,7.426-6.135"/>
	<path fill="none" stroke="#000000" stroke-width="1.6778" stroke-linecap="round" d="M644.135,156.488
		c2.1,0.605,2.823,3.008,4.843,3.875"/>
	<path fill="none" stroke="#000000" stroke-width="1.5819" stroke-linecap="round" d="M648.978,160.363
		c0.727-1.284,1.366-2.217,2.422-3.391"/>
	<path fill="none" stroke="#000000" stroke-width="1.3926" stroke-linecap="round" d="M651.4,156.972
		c2.93,1.487,2.348,5.458,2.421,8.233"/>
	<path fill="none" stroke="#000000" stroke-width="1.5534" stroke-linecap="round" d="M651.561,150.353
		c0.354,2.138,0.439,4.452-0.161,6.619"/>
	<path fill="none" stroke="#000000" stroke-width="2.0711" stroke-linecap="round" d="M648.494,172.229
		c-0.023-1.2,0.079-1.799,0.223-2.375c0.479-0.174,1.396-0.443,2.2-0.773"/>
	<path fill="none" stroke="#000000" stroke-width="2.5384" stroke-linecap="round" d="M650.917,169.08
		c-1.637-2.574-2.187-5.658-1.938-8.718"/>
	
		<line fill="none" stroke="#000000" stroke-width="2.9594" stroke-linecap="round" x1="650.917" y1="169.08" x2="650.917" y2="169.08"/>
	<path fill="none" stroke="#000000" stroke-width="1.8549" stroke-linecap="round" d="M650.917,169.08
		c0.483-0.483,0.968-0.969,1.452-1.452"/>
	<path fill="none" stroke="#000000" stroke-width="2.1297" stroke-linecap="round" d="M652.368,167.628
		c0.283-0.63,0.813-1.567,1.453-2.422"/>
	<path fill="none" stroke="#000000" stroke-width="2.6822" stroke-linecap="round" d="M654.305,168.596
		c0.822-0.857,1.496-2.15,1.806-2.949"/>
	<path fill="none" stroke="#000000" stroke-width="2.9857" stroke-linecap="round" d="M656.111,165.647
		c-0.839-0.241-1.565-0.346-2.29-0.44"/>
	<path fill="none" stroke="#000000" stroke-width="1.6209" stroke-linecap="round" d="M652.53,170.696
		c0.746,0.023,1.167-1.161,1.775-2.101"/>
	<path fill="none" stroke="#000000" stroke-width="1.2506" stroke-linecap="round" d="M654.305,168.596
		c-0.656-0.312-1.346-0.592-1.938-0.969"/>
	<path fill="none" stroke="#000000" stroke-width="1.9374" stroke-linecap="round" d="M650.431,172.713
		c1.016-0.258,1.827-1.425,2.099-2.018"/>
	<path fill="none" stroke="#000000" stroke-width="1.3699" stroke-linecap="round" d="M652.53,170.696
		c-0.538-0.538-1.075-1.077-1.613-1.615"/>
	<path fill="none" stroke="#000000" stroke-width="1.4492" stroke-linecap="round" d="M687.725,166.175
		c0.793-1.484,1.076-3.248,2.187-4.596c1.532-0.468,3.452,0.238,4.596-1.217"/>
	<path fill="none" stroke="#000000" stroke-width="0.9687" stroke-linecap="round" d="M693.053,164.722
		c-0.178-0.824,0.378-0.914,0.969-0.97c0.646,0,1.291,0,1.938,0c-0.474,1.021,0.762,0.658,0.969,0.97
		c0.596,0.894-0.457,2.888,0,3.873C694.438,168.503,695.545,164.816,693.053,164.722z"/>
	<path fill="none" stroke="#000000" stroke-width="2.9061" stroke-linecap="round" d="M663.509,196.204c0-0.323,0-0.646,0-0.969"/>
	<path fill="none" stroke="#000000" stroke-width="0.9687" stroke-linecap="round" d="M706.616,275.153
		c0.823-0.179,0.913,0.378,0.97,0.969c-0.148,0.596,0.192,1.355,0,1.938c-0.039,0.111-0.898-0.106-0.97,0
		c-0.473,0.707,0.289,2.059-0.969,1.937c-0.646,0-1.292,0-1.938,0C702.679,276.383,707.343,278.462,706.616,275.153z"/>
	<path fill="none" stroke="#000000" stroke-width="1.738" stroke-linecap="round" d="M665.93,138.567
		c6.525-3.072,14.104,1.067,20.568-0.752c6.73-5.086,15.034-0.433,20.137,4.744c1.086,2.665,1.225,5.754,0.707,8.602"/>
	<path fill="none" stroke="#000000" stroke-width="1.5684" stroke-linecap="round" d="M707.343,151.16
		c2.479,4.807,8.734,5.525,11.536,10.017c2.041-0.104,4.13,1.007,4.688,3.062"/>
	<path fill="none" stroke="#000000" stroke-width="1.7995" stroke-linecap="round" d="M723.567,164.238
		c0.881,8.434,3.56,17.979-1.453,25.67"/>
	<path fill="none" stroke="#000000" stroke-width="1.9025" stroke-linecap="round" d="M722.114,189.907
		c0.008,2.241,0.474,5.676-2.422,6.297"/>
	<path fill="none" stroke="#000000" stroke-width="1.6522" stroke-linecap="round" d="M719.692,196.204
		c1.054,4,3.552,7.575,5.49,11.301"/>
	<path fill="none" stroke="#000000" stroke-width="1.837" stroke-linecap="round" d="M725.182,207.505
		c2.023-0.902,2.547-3.164,3.291-4.92c0.467,0.061,1.092,0.364,1.625,0.668c2.248,5.492,1.881,11.77,1.461,17.652"/>
	<path fill="none" stroke="#000000" stroke-width="1.5592" stroke-linecap="round" d="M731.559,220.906
		c2.092,3.713-0.35,7.734-0.242,11.624"/>
	<path fill="none" stroke="#000000" stroke-width="1.7273" stroke-linecap="round" d="M731.317,232.53
		c0.165,0.045,0.33,0.09,0.495,0.135c0.432,0.141,0.815,0.372,1.196,0.608c-0.146,9.441-3.424,23.088-10.188,29.975
		c-1.923,1.959-2.491,2.84-5.31,3.188"/>
	<path fill="none" stroke="#000000" stroke-width="1.8029" stroke-linecap="round" d="M717.512,266.434
		c-0.498,2.03-1.497,3.894-1.762,5.921c0.854,4.028,4.933,5.578,6.622,8.352c0.684,1.12,0.58,2.511,1.289,3.554
		c0.98,1.444,3.48,2.673,4.038,3.7c3.163,5.82,2.854,10.572-0.001,17.913c-2.377-0.049-1.729,3.086-3.647,3.829"/>
	<path fill="none" stroke="#000000" stroke-width="1.8419" stroke-linecap="round" d="M724.052,309.702
		c0.442,2.743-1.787,4.785-1.453,7.588"/>
	<path fill="none" stroke="#000000" stroke-width="1.2683" stroke-linecap="round" d="M710.49,314.384
		c0.264,1.441,0.846,2.625,1.453,3.875"/>
	<path fill="none" stroke="#000000" stroke-width="1.2885" stroke-linecap="round" d="M702.902,314.707
		c-1.676,1.019-2.911,2.466-4.521,3.552"/>
	<path fill="none" stroke="#000000" stroke-width="2.0675" stroke-linecap="round" d="M687.968,311.962
		c0.264,1.089,0.217,2.797,0.242,4.359"/>
	<path fill="none" stroke="#000000" stroke-width="1.4265" stroke-linecap="round" d="M624.276,257.716
		c7.498-10.684,22.017-13.403,28.52-24.76c0.105-0.186,0.422-0.25,0.542-0.427"/>
	<path fill="none" stroke="#000000" stroke-width="1.9634" stroke-linecap="round" d="M653.338,232.53
		c-1.289-6.766,2.418-11.728,4.844-17.437"/>
	<path fill="none" stroke="#000000" stroke-width="1.2898" stroke-linecap="round" d="M658.18,215.094
		c-2.957-3.436-8.192-5.681-9.041-10.655"/>
	<path fill="none" stroke="#000000" stroke-width="1.7559" stroke-linecap="round" d="M649.139,204.438
		c-3.086-2.535-5.285-3.387-7.629-5.575c-2.459-2.296-3.497-5.063-5.229-7.402c-0.521-0.704-1.912-0.965-2.332-1.677
		c-1.196-2.028-2.222-3.881-2.784-5.654c-2.225-7.013-0.214-13.969,0.86-23.281"/>
	<path fill="none" stroke="#000000" stroke-width="1.4925" stroke-linecap="round" d="M632.026,160.847
		c-1.086-2.666-0.646-6.098,1.672-8.016c6.531-0.62,5.433-8.853,8.992-13.4c3.375-4.313,6.441-6.012,13.049-6.639
		c3.785,0.973,6.726,3.931,10.191,5.773"/>
	<path fill="none" stroke="#000000" stroke-width="1.8549" stroke-linecap="round" d="M653.338,232.53
		c0.665,0.824,0.851,1.339,1.211,1.938"/>
	<path fill="none" stroke="#000000" stroke-width="1.7937" stroke-linecap="round" d="M654.548,234.467
		c2.394-0.016,4.598,1.219,7.022,0.97"/>
	<path fill="none" stroke="#000000" stroke-width="1.698" stroke-linecap="round" d="M654.548,234.467
		c-3.81,8.669-4.837,19.829,1.211,27.608"/>
	<path fill="none" stroke="#000000" stroke-width="1.453" stroke-linecap="round" d="M655.759,262.075
		c4.008,3.932,9.1,5.923,13.764,8.516c2.088,0.513,5.142,0.443,6.256,2.464"/>
	<path fill="none" stroke="#000000" stroke-width="2.0711" stroke-linecap="round" d="M675.778,273.054
		c0.953,0.153,2.718,0.111,3.714,0.402"/>
	<path fill="none" stroke="#000000" stroke-width="1.5997" stroke-linecap="round" d="M679.492,273.457
		c3.909,0.003,7.948,0.778,11.947,0.728"/>
	<path fill="none" stroke="#000000" stroke-width="1.6778" stroke-linecap="round" d="M691.439,274.184
		c1.757-7.313,6.837-14.34,14.208-16.469"/>
	<path fill="none" stroke="#000000" stroke-width="2.2073" stroke-linecap="round" d="M691.439,274.184
		c-1.23,5.241,4.54,7.542,3.552,12.593"/>
	<path fill="none" stroke="#000000" stroke-width="1.6107" stroke-linecap="round" d="M694.991,286.777
		c2.451,1.559,5.377,1.815,8.234,1.938"/>
	<path fill="none" stroke="#000000" stroke-width="1.4014" stroke-linecap="round" d="M691.116,288.714
		c-3.139,4.309-8.101,7.038-12.311,9.969c-1.629-0.095-2.439,0.662-3.672,2.141"/>
	<path fill="none" stroke="#000000" stroke-width="1.526" stroke-linecap="round" d="M675.134,300.823
		c1.231,0.018,3.367-0.142,4.545,0.29c3.074,2.504,2.516,7.028,4.172,10.364"/>
	<path fill="none" stroke="#000000" stroke-width="1.7124" stroke-linecap="round" d="M683.85,311.477
		c1.749,1.166,2.959,0.563,4.117,0.484"/>
	<path fill="none" stroke="#000000" stroke-width="2.1661" stroke-linecap="round" d="M687.968,311.962
		c0.223-1.088,0.151-2.796,0.727-4.358"/>
	<path fill="none" stroke="#000000" stroke-width="1.3699" stroke-linecap="round" d="M688.694,307.603
		c-0.768-2.598,0.955-5.691,2.906-7.266"/>
	<path fill="none" stroke="#000000" stroke-width="1.5492" stroke-linecap="round" d="M688.694,307.603
		c2.194-1.837,4.688-3.159,6.997-4.654c1.516-0.091,2.779,0.9,4.335,1.074c2.111,3.108,2.541,7.013,2.876,10.685"/>
	<path fill="none" stroke="#000000" stroke-width="1.5486" stroke-linecap="round" d="M702.902,314.707
		c1.69,0.178,3.165-1.188,4.684-1.776"/>
	<path fill="none" stroke="#000000" stroke-width="2.0482" stroke-linecap="round" d="M707.586,312.93c0-2.583,0-5.166,0-7.749"/>
	<path fill="none" stroke="#000000" stroke-width="1.1462" stroke-linecap="round" d="M707.586,312.93
		c0.203,0.437,0.465,0.822,0.728,1.207c0.589,0.12,1.379,0.186,2.178,0.246"/>
	<path fill="none" stroke="#000000" stroke-width="1.595" stroke-linecap="round" d="M710.49,314.384
		c-0.703-4.346,3.385-6.458,5.555-9.46c0.852-0.173,1.522-0.344,2.154-0.461c1.219,0.341,2.133,0.595,2.936,0.865
		c0.339,0.541,0.781,1.049,1.242,1.52c0.133,1.234,1.009,2.261,1.676,2.854"/>
	<path fill="none" stroke="#000000" stroke-width="1.9495" stroke-linecap="round" d="M717.512,266.434
		c-0.191-3.205-0.472-6.49,2.664-8.233"/>
	<path fill="none" stroke="#000000" stroke-width="1.5597" stroke-linecap="round" d="M731.317,232.53
		c-0.09,0.07-0.18,0.14-0.27,0.209c-0.138,1.961-1.604,2.256-2.886,3.873c-0.321,0.407-0.191,1.144-0.448,1.461
		c-3.714,4.604-16.039,15.561-24.336,14.16c-3.697-0.624-7.938-4.534-10.125-8.283c-0.488-0.834-1.488-1.54-1.39-2.434
		c-1.67-0.335-0.791-2.418-1.878-3.335"/>
	<path fill="none" stroke="#000000" stroke-width="1.4352" stroke-linecap="round" d="M689.986,238.181
		c-6.919,1.72-13.186-2.435-19.695-3.229"/>
	<path fill="none" stroke="#000000" stroke-width="1.7193" stroke-linecap="round" d="M689.986,238.181
		c-0.051-3.546-1.931-6.754-3.229-10.011"/>
	<path fill="none" stroke="#000000" stroke-width="2.3548" stroke-linecap="round" d="M686.757,228.171
		c-1.035-0.647-1.672-0.958-2.226-1.455c-0.317-1.51-0.182-3.65,0.771-3.873"/>
	<path fill="none" stroke="#000000" stroke-width="2.1661" stroke-linecap="round" d="M685.303,222.843
		c0.381-0.381,0.914-0.912,1.453-1.452"/>
	<path fill="none" stroke="#000000" stroke-width="2.0165" stroke-linecap="round" d="M731.559,220.906c-1.361,0-2.054,0-2.986,0"/>
	<path fill="none" stroke="#000000" stroke-width="2.9944" stroke-linecap="round" d="M728.573,220.906
		c-0.176,1.089-0.145,2.796-0.161,4.359"/>
	<path fill="none" stroke="#000000" stroke-width="1.5434" stroke-linecap="round" d="M724.859,210.089
		c-4.575,1.08-9.425,0.741-14.127,1.13"/>
	<path fill="none" stroke="#000000" stroke-width="1.4959" stroke-linecap="round" d="M710.732,211.219
		c1.202,2.653,4.16,3.311,5.569,5.813"/>
	<path fill="none" stroke="#000000" stroke-width="3.4927" stroke-linecap="round" d="M710.732,211.219
		c-0.048-0.031-0.097-0.063-0.146-0.097"/>
	<path fill="none" stroke="#000000" stroke-width="1.4838" stroke-linecap="round" d="M710.588,211.122
		c-3.761,2.36-7.504,5.022-11.479,6.877"/>
	<path fill="none" stroke="#000000" stroke-width="2.3435" stroke-linecap="round" d="M699.108,217.999
		c-1.223,5.965,1.445,12.211-1.694,17.921"/>
	<path fill="none" stroke="#000000" stroke-width="2.0776" stroke-linecap="round" d="M695.798,212.026
		c-0.709,0.223-2.025,0.058-3.229-0.322"/>
	<path fill="none" stroke="#000000" stroke-width="1.5819" stroke-linecap="round" d="M692.569,211.703
		c-1.291,0.872-2.583,0.836-3.875,0.969"/>
	<path fill="none" stroke="#000000" stroke-width="1.3116" stroke-linecap="round" d="M692.569,210.735c-4.844,0-9.687,0-14.53,0"/>
	<path fill="none" stroke="#000000" stroke-width="1.9231" stroke-linecap="round" d="M711.217,195.719
		c-2.708-0.421-6.651,1.099-8.477-1.452"/>
	<path fill="none" stroke="#000000" stroke-width="1.4797" stroke-linecap="round" d="M696.928,191.844
		c-3.094,1.148-6.508,0.189-9.688,0"/>
	<path fill="none" stroke="#000000" stroke-width="1.5729" stroke-linecap="round" d="M687.241,191.844
		c-0.209,0.435-0.472,0.825-0.735,1.215c-0.867,0.197-1.476-0.043-1.974-0.299c-0.106-0.594-0.375-1.525-0.682-2.368"/>
	<path fill="none" stroke="#000000" stroke-width="1.9152" stroke-linecap="round" d="M683.85,190.392
		c-2.744-1.233-4.768,1.541-6.78,2.905"/>
	<path fill="none" stroke="#000000" stroke-width="1.2885" stroke-linecap="round" d="M677.07,193.298
		c-0.621,1.029-0.796,1.877-1.242,2.618c-0.532,0.178-1.04,0.153-1.548,0.12c-0.715-0.479-1.055-1.539-1.729-2.415"/>
	<path fill="none" stroke="#000000" stroke-width="1.7559" stroke-linecap="round" d="M672.55,193.621
		c-0.959,0.063-1.875,0.447-3.229,0.646"/>
	<path fill="none" stroke="#000000" stroke-width="1.9773" stroke-linecap="round" d="M723.567,164.238
		c-1.176,0.54-2.438,1.078-3.391,1.938"/>
	<path fill="none" stroke="#000000" stroke-width="2.0549" stroke-linecap="round" d="M707.343,151.16c-0.404,0-0.81,0-1.211,0"/>
	<path fill="none" stroke="#000000" stroke-width="1.5917" stroke-linecap="round" d="M665.93,138.567
		c0.652,1.604,1.884,3.04,1.938,4.844"/>
	<path fill="none" stroke="#000000" stroke-width="1.5316" stroke-linecap="round" d="M632.026,160.847
		c0.629-0.283,1.568-0.813,2.422-1.453"/>
	<path fill="none" stroke="#000000" stroke-width="1.3699" stroke-linecap="round" d="M649.139,204.438
		c1.934-0.371,3.543,1.062,4.895,2.203c3.859,1.257,8.106,1.642,12.077,0.884c0.501-0.467,1.435-0.504,2.241-0.665"/>
	<path fill="none" stroke="#000000" stroke-width="1.3968" stroke-linecap="round" d="M658.18,215.094
		c3.936,1.136,5.527,5.631,10.152,5.771c4.247-0.728,7.673-3.235,11.644-4.319"/>
	<path fill="none" stroke="#000000" stroke-width="3.0633" stroke-linecap="round" d="M701.127,190.876
		c0.055,0.161,0.106,0.323,0.162,0.484"/>
	<path fill="none" stroke="#000000" stroke-width="1.9773" stroke-linecap="round" d="M701.289,191.361
		c0.771,0.677,1.203,1.719,1.452,2.906"/>
	<path fill="none" stroke="#000000" stroke-width="1.6505" stroke-linecap="round" d="M716.059,189.665
		c-3.479-4.505-11.197-1.619-14.934,1.211"/>
	<path fill="none" stroke="#000000" stroke-width="2.9857" stroke-linecap="round" d="M716.059,189.665
		c-0.132,0.515-0.188,1.104-0.242,1.695"/>
	<path fill="none" stroke="#000000" stroke-width="1.7524" stroke-linecap="round" d="M722.114,189.907
		c-1.838-0.865-4.092-0.461-6.055-0.242"/>
	<path fill="none" stroke="#000000" stroke-width="1.3699" stroke-linecap="round" d="M687.241,191.844
		c-0.196-0.435-0.459-0.821-0.725-1.205c-1.096-0.157-1.813-0.179-2.666-0.247"/>
	<path fill="none" stroke="#000000" stroke-width="1.6778" stroke-linecap="round" d="M701.127,190.876
		c-2.097,0.027-3.072,0.41-4.197,0.969"/>
	<path fill="none" stroke="#000000" stroke-width="1.5959" stroke-linecap="round" d="M696.928,191.844
		c0.393,1.244,1.66,1.933,2.906,1.938"/>
	<path fill="none" stroke="#000000" stroke-width="1.1864" stroke-linecap="round" d="M699.836,193.782
		c0.602,0.339,1.789,0.369,2.905,0.484"/>
	<path fill="none" stroke="#000000" stroke-width="1.5316" stroke-linecap="round" d="M701.289,191.361
		c-0.65,0.997-0.962,1.716-1.453,2.422"/>
	<path fill="none" stroke="#000000" stroke-width="2.2195" stroke-linecap="round" d="M711.217,195.719
		c0.146,4.229,1.146,9.005-1.072,12.869"/>
	<path fill="none" stroke="#000000" stroke-width="4.0523" stroke-linecap="round" d="M710.144,208.589
		c0.218,0.698,0.318,1.828,0.442,2.533"/>
	<path fill="none" stroke="#000000" stroke-width="2.0926" stroke-linecap="round" d="M719.692,196.204
		c-2.422-0.455-3.069-2.899-3.875-4.844"/>
	<path fill="none" stroke="#000000" stroke-width="1.8998" stroke-linecap="round" d="M715.817,191.361
		c-1.372,0.421-2.514,0.381-3.338,0.63c-0.924,1.053-0.906,2.46-1.263,3.729"/>
	<path fill="none" stroke="#000000" stroke-width="1.3699" stroke-linecap="round" d="M677.07,193.298
		c-1.215-0.027-3.63-0.042-4.521,0.323"/>
	<path fill="none" stroke="#000000" stroke-width="2.0549" stroke-linecap="round" d="M695.961,209.766
		c0.01,1.006-0.074,1.643-0.162,2.26"/>
	<path fill="none" stroke="#000000" stroke-width="1.6064" stroke-linecap="round" d="M695.798,212.026
		c1.366,1.959,2.821,3.609,3.311,5.974"/>
	<path fill="none" stroke="#000000" stroke-width="1.6996" stroke-linecap="round" d="M710.144,208.589
		c-6.013-1.532-9.05-8.229-15.155-8.841c-0.723,3.162,0.479,6.76,0.972,10.019"/>
	<path fill="none" stroke="#000000" stroke-width="2.0776" stroke-linecap="round" d="M725.182,207.505
		c-0.121,0.813-0.167,1.916-0.323,2.584"/>
	<path fill="none" stroke="#000000" stroke-width="2.3059" stroke-linecap="round" d="M724.859,210.089
		c1.423,0.766,1.268,2.776,2.846,3.271c0.349,2.496,0.643,5.02,0.868,7.545"/>
	<path fill="none" stroke="#000000" stroke-width="2.9061" stroke-linecap="round" d="M692.569,210.735c0,0.322,0,0.646,0,0.969"/>
	<path fill="none" stroke="#000000" stroke-width="1.4368" stroke-linecap="round" d="M695.961,209.766
		c-1.31-0.058-2.308,0.441-3.392,0.969"/>
	<path fill="none" stroke="#000000" stroke-width="1.6064" stroke-linecap="round" d="M686.757,228.171
		c0.094-1.895,0.219-4.019-1.453-5.328"/>
	<path fill="none" stroke="#000000" stroke-width="1.5236" stroke-linecap="round" d="M624.276,257.716
		c1.244,3.563,4.771,5.021,5.813,8.719"/>
	<path fill="none" stroke="#000000" stroke-width="1.562" stroke-linecap="round" d="M630.09,266.434
		c4.51-1.924,9.391-2.962,14.047-4.358"/>
	<path fill="none" stroke="#000000" stroke-width="1.2652" stroke-linecap="round" d="M630.09,266.434
		c-1.99,1.55-4.674,2.429-5.813,4.844"/>
	<path fill="none" stroke="#000000" stroke-width="1.2392" stroke-linecap="round" d="M624.276,271.278
		c0.877,2.496,3.95,2.701,5.006,5.005"/>
	<path fill="none" stroke="#000000" stroke-width="1.5695" stroke-linecap="round" d="M629.282,276.282
		c1.602-0.63,3.312-0.88,5.005-1.13"/>
	<path fill="none" stroke="#000000" stroke-width="1.9674" stroke-linecap="round" d="M634.287,275.153
		c0.063-1.626,1.659-2.092,2.1-3.391"/>
	<path fill="none" stroke="#000000" stroke-width="2.9857" stroke-linecap="round" d="M634.287,275.153
		c0.089,0.381,0.127,0.913,0.161,1.453"/>
	<path fill="none" stroke="#000000" stroke-width="1.6374" stroke-linecap="round" d="M618.303,275.314
		c1.813-1.656,4.002-2.64,5.973-4.036"/>
	<path fill="none" stroke="#000000" stroke-width="1.4991" stroke-linecap="round" d="M624.276,257.716
		c-3.854,2.502-7.975,6.047-10.864,10.426c-1.878,2.844-5.146,6.655-2.734,10.489c2.637-0.722,4.97-2.894,7.627-3.316"/>
	<path fill="none" stroke="#000000" stroke-width="1.1995" stroke-linecap="round" d="M650.27,272.085
		c1.24,3.305,4.367,5.132,5.488,8.396"/>
	<path fill="none" stroke="#000000" stroke-width="1.8004" stroke-linecap="round" d="M655.759,280.48
		c2.006,3.295,6.242,3.083,9.688,3.391"/>
	<path fill="none" stroke="#000000" stroke-width="1.8014" stroke-linecap="round" d="M655.759,280.48
		c-4.053,0.843-8.164,1.617-12.107,2.745"/>
	<path fill="none" stroke="#000000" stroke-width="3.6759" stroke-linecap="round" d="M643.651,283.225
		c-1.383,0.528-2.098,0.56-2.905,0.646"/>
	<path fill="none" stroke="#000000" stroke-width="2.1857" stroke-linecap="round" d="M632.996,286.777
		c1.489,2.048,1.87,4.418,2.582,6.78"/>
	<path fill="none" stroke="#000000" stroke-width="2.0385" stroke-linecap="round" d="M635.578,293.557
		c2.504-0.021,4.01-2.584,6.62-2.422"/>
	<path fill="none" stroke="#000000" stroke-width="1.3147" stroke-linecap="round" d="M642.198,291.136
		c0.234-0.601,0.407-1.009,0.578-1.408c2.482-1.094,5.463-0.268,8.141-0.528"/>
	<path fill="none" stroke="#000000" stroke-width="1.5292" stroke-linecap="round" d="M644.619,303.244
		c2.626,1.135,6.024,1.293,8.432-0.288c7.475,1.19,14.666-1.802,22.084-2.134"/>
	<path fill="none" stroke="#000000" stroke-width="1.2506" stroke-linecap="round" d="M675.778,273.054
		c-0.353,0.469-0.504,1.038-0.645,1.613"/>
	<path fill="none" stroke="#000000" stroke-width="1.6285" stroke-linecap="round" d="M655.759,262.075
		c-3.488,1.758-5.224,6.22-5.488,10.01"/>
	<path fill="none" stroke="#000000" stroke-width="1.7848" stroke-linecap="round" d="M618.303,275.314
		c0.49,4.867-3.57,10.948-2.746,15.688c0.203,1.165,1.521,1.347,1.938,1.588"/>
	<path fill="none" stroke="#000000" stroke-width="1.8966" stroke-linecap="round" d="M617.496,292.589
		c0.399-1.289,1.082-1.78,2.423-2.422"/>
	<path fill="none" stroke="#000000" stroke-width="1.6262" stroke-linecap="round" d="M619.919,290.167
		c2.183-5.075,6.938-8.982,9.363-13.885"/>
	<path fill="none" stroke="#000000" stroke-width="2.0422" stroke-linecap="round" d="M643.651,278.059c0,1.722,0,3.442,0,5.166"/>
	<path fill="none" stroke="#000000" stroke-width="1.7147" stroke-linecap="round" d="M650.27,272.085
		c-2.821,1.105-5.447,3.083-6.619,5.975"/>
	<path fill="none" stroke="#000000" stroke-width="1.8759" stroke-linecap="round" d="M691.116,288.714
		c1.021,0.309,2.322-0.479,3.875-1.938"/>
	<path fill="none" stroke="#000000" stroke-width="1.3403" stroke-linecap="round" d="M679.492,273.457
		c0.467,2.614,2.604,4.38,3.64,6.774c4.366,0.535,6.352,4.944,7.984,8.481"/>
	<path fill="none" stroke="#000000" stroke-width="2.7399" stroke-linecap="round" d="M619.919,290.167
		c0.322,0.323,0.646,0.646,0.968,0.969"/>
	<path fill="none" stroke="#000000" stroke-width="1.7265" stroke-linecap="round" d="M620.885,291.136
		c2.758-0.871,4.264-4.153,7.266-4.358"/>
	<path fill="none" stroke="#000000" stroke-width="1.4007" stroke-linecap="round" d="M628.151,286.777
		c1.525-1.573,3.53-2.405,5.006-4.036"/>
	<path fill="none" stroke="#000000" stroke-width="1.7862" stroke-linecap="round" d="M633.157,282.74
		c2.556,0.679,5.634-1.631,7.589,1.13"/>
	<path fill="none" stroke="#000000" stroke-width="1.329" stroke-linecap="round" d="M643.651,278.059
		c-2.897-1.203-6.408,0.373-9.203-1.453"/>
	<path fill="none" stroke="#000000" stroke-width="1.8337" stroke-linecap="round" d="M634.448,276.606
		c-0.788,1.931-1.584,4.04-1.291,6.135"/>
	<path fill="none" stroke="#000000" stroke-width="1.7086" stroke-linecap="round" d="M629.121,288.714
		c1.436-0.155,2.488-1.488,3.875-1.938"/>
	<path fill="none" stroke="#000000" stroke-width="1.588" stroke-linecap="round" d="M632.996,286.777
		c0.211-0.436,0.469-0.822,0.729-1.207c2.358-0.417,5.008-0.197,7.021-1.699"/>
	<path fill="none" stroke="#000000" stroke-width="1.6522" stroke-linecap="round" d="M618.465,293.557
		c-0.579,1.171-0.991,2.091-0.829,2.907c0.938,0.436,2.25,0.404,3.25,0.482"/>
	<path fill="none" stroke="#000000" stroke-width="1.4664" stroke-linecap="round" d="M620.885,296.948
		c2.418-3.152,4.268-6.849,8.233-8.233"/>
	<path fill="none" stroke="#000000" stroke-width="1.2506" stroke-linecap="round" d="M629.121,288.714
		c-0.312-0.657-0.592-1.347-0.97-1.938"/>
	<path fill="none" stroke="#000000" stroke-width="1.8788" stroke-linecap="round" d="M620.885,296.948
		c0.129,5.328,6.242,0.895,9.203,1.694"/>
	<path fill="none" stroke="#000000" stroke-width="2.0738" stroke-linecap="round" d="M630.09,298.642
		c2.082-1.267,4.441-2.8,5.488-5.085"/>
	<path fill="none" stroke="#000000" stroke-width="1.3699" stroke-linecap="round" d="M617.496,292.589
		c0.323,0.322,0.646,0.646,0.97,0.969"/>
	<path fill="none" stroke="#000000" stroke-width="1.6778" stroke-linecap="round" d="M618.465,293.557
		c1.288-0.399,1.779-1.082,2.421-2.422"/>
	<path fill="none" stroke="#000000" stroke-width="1.5635" stroke-linecap="round" d="M630.09,298.642
		c0.268,1.521-1.222,3.21,0.049,4.561c4.629,1.232,9.82-1.479,14.48,0.042"/>
	<path fill="none" stroke="#000000" stroke-width="1.4881" stroke-linecap="round" d="M644.619,303.244
		c1.827-3.385,0.368-7.501-0.768-10.853c-0.504-0.269-1.077-0.758-1.653-1.257"/>
	<path fill="none" stroke="#000000" stroke-width="1.5296" stroke-linecap="round" d="M675.134,300.823
		c-2.605,5.16-10.975,10.663-5.842,16.859c0.601-0.197,1.777-0.331,2.942-0.389c3.521-2.691,7.892-3.366,11.615-5.816"/>
	
		<line fill="none" stroke="#000000" stroke-width="2.7399" stroke-linecap="round" x1="675.134" y1="300.823" x2="675.134" y2="300.823"/>
</g>
</svg>
