<?xml version="1.0" encoding="utf-8"?>
<!-- Generator: Adobe Illustrator 14.0.0, SVG Export Plug-In . SVG Version: 6.00 Build 43363)  -->
<!DOCTYPE svg PUBLIC "-//W3C//DTD SVG 1.1//EN" "http://www.w3.org/Graphics/SVG/1.1/DTD/svg11.dtd">
<svg version="1.1" id="图层_1" xmlns="http://www.w3.org/2000/svg" xmlns:xlink="http://www.w3.org/1999/xlink" x="0px" y="0px"
	 width="848px" height="480px" viewBox="0 0 848 480" enable-background="new 0 0 848 480" xml:space="preserve">
<g>
	<path fill="none" stroke="#000000" stroke-width="1.9658" stroke-linecap="round" d="M600.302,415.459
		c-2.868,3.045-9.509,5.705-14.295,6.938c-1.034,0.266-2.691,0.73-3.368,0.842c-7.266,1.193-14.96,0.754-22.568,0.119
		c-4.305-0.359-8.511-0.346-11.836-1.582"/>
	<path fill="none" stroke="#000000" stroke-width="1.9011" stroke-linecap="round" d="M525.92,420.091
		c-3.157,0.101-6.688,0.122-9.936,0.887c-0.257,0.061-0.487,0.555-0.711,0.577c-7.126,0.718-14.958,0.957-21.538-1.415
		c-1.07-3.851-4.685-6.617-5.954-10.063c-2.468-6.695-1.228-15.463-0.045-23.249c1.894-12.461,5.021-24.905,7.223-29.183
		c0.938-1.823,2.141-3.492,3.355-5.048c2.264-2.898,4.933-6.328,7.927-8.88c2.02-1.722,4.197-3.016,6.966-4.452
		c0.298-0.154,0.561-0.847,1.02-1.022c1.561-0.599,2.645-0.503,4.061-1.039c0.647-0.243,1.286-0.886,1.938-1.06
		c0.916-0.245,2.207,0.031,3.046-0.264c5.181-1.818,9.866-5.188,14.771-6.562c1.199-0.336,2.809-0.591,3.577-0.795
		c12.061-3.191,24.064-2.816,36.35,0.661c3.59,1.017,10.985,3.584,15.809,6.435c1.685,0.995,4.816,3.694,5.936,4.489
		c12.829,9.125,28.762,27.938,24.269,49.915c-0.506,2.474-1.988,5.659-3.101,8.298c-1.866,4.432-8.587,13.889-18.361,16.828
		c-0.61,0.184-1.413,0.23-2.214,0.307"/>
	<path fill="none" stroke="#000000" stroke-width="2.0882" stroke-linecap="round" d="M525.92,420.091
		c2.298-0.618,4.943,0.314,7.399,0.038c0.472,0.431,1.175,1.336,1.862,2.066"/>
	<path fill="none" stroke="#000000" stroke-width="3.2301" stroke-linecap="round" d="M535.181,422.197
		c4.322-1.184,8.89,1.333,13.052-0.421"/>
	<path fill="none" stroke="#000000" stroke-width="1.7863" stroke-linecap="round" d="M548.233,421.776
		c4.582-4.322-1.317-9.864-2.315-14.525"/>
	<path fill="none" stroke="#000000" stroke-width="1.9648" stroke-linecap="round" d="M545.919,407.248
		c-1.616-1-2.727-2.592-3.158-4.421"/>
	<path fill="none" stroke="#000000" stroke-width="1.9542" stroke-linecap="round" d="M542.76,402.827
		c-7.408-5.963-16.155-0.094-23.858,1.123"/>
	<path fill="none" stroke="#000000" stroke-width="1.6124" stroke-linecap="round" d="M518.901,403.95
		c-3.203,2.1-6.789,4.066-10.877,3.51"/>
	<path fill="none" stroke="#000000" stroke-width="1.5687" stroke-linecap="round" d="M508.024,407.46
		c-0.108,0.178-0.218,0.355-0.326,0.533c-2.544,0.202-4.817,1.374-7.042,2.413"/>
	<path fill="none" stroke="#000000" stroke-width="2.026" stroke-linecap="round" d="M508.024,401.987
		c-2.007-4.945-2.187-21.1-1.138-31.156c0.41-3.938,0.277-8.159,0.932-11.662c0.072-0.391,0.638-0.857,0.668-1.288
		c0.628-8.982,6.403-13.854,13.223-17.363"/>
	<path fill="none" stroke="#000000" stroke-width="3.9578" stroke-linecap="round" d="M552.864,403.671
		c1.685-0.28,3.336-0.832,5.054-0.844"/>
	<path fill="none" stroke="#000000" stroke-width="2.4518" stroke-linecap="round" d="M557.918,402.827
		c0.835-1.067,0.857-2.991-0.199-3.907c-4.856-18.675-0.876-38.494-2.748-57.563"/>
	<path fill="none" stroke="#000000" stroke-width="1.5914" stroke-linecap="round" d="M557.918,402.827
		c6.019,3.923,11.728,8.328,18.524,10.526"/>
	<path fill="none" stroke="#000000" stroke-width="1.8719" stroke-linecap="round" d="M600.302,415.459
		c-3.127-9.563-13.856-13.323-20.671-19.912c-2.483-6.45-3.95-13.363-5.914-21.891c-1.083-4.702-2.217-9.876-3.368-15.155
		c-1.709-7.838-2.038-15.951-7.659-19.39"/>
	<path fill="none" stroke="#000000" stroke-width="1.8449" stroke-linecap="round" d="M545.919,407.248
		c2.317-1.113,5.158-1.485,6.945-3.577"/>
	<path fill="none" stroke="#000000" stroke-width="2.3286" stroke-linecap="round" d="M552.864,403.671
		c-3.223-1.232-6.916-3.465-10.104-0.844"/>
	<path fill="none" stroke="#000000" stroke-width="2.3693" stroke-linecap="round" d="M518.901,403.95
		c-2.16-3.397-7.433-1.398-10.877-1.965"/>
	<path fill="none" stroke="#000000" stroke-width="2.3545" stroke-linecap="round" d="M508.024,401.987
		c-0.295,1.779-0.361,3.697,0,5.475"/>
	<path fill="none" stroke="#000000" stroke-width="2.2423" stroke-linecap="round" d="M525.92,420.091
		c-0.351,4.896,6.522,3.622,9.263,2.104"/>
</g>
</svg>
