<?xml version="1.0" encoding="utf-8"?>
<!-- Generator: Adobe Illustrator 14.0.0, SVG Export Plug-In . SVG Version: 6.00 Build 43363)  -->
<!DOCTYPE svg PUBLIC "-//W3C//DTD SVG 1.1//EN" "http://www.w3.org/Graphics/SVG/1.1/DTD/svg11.dtd">
<svg version="1.1" id="图层_1" xmlns="http://www.w3.org/2000/svg" xmlns:xlink="http://www.w3.org/1999/xlink" x="0px" y="0px"
	 width="848px" height="480px" viewBox="0 0 848 480" enable-background="new 0 0 848 480" xml:space="preserve">
<g>
	<path fill-rule="evenodd" clip-rule="evenodd" fill="none" stroke="#000000" stroke-width="1.1261" stroke-linecap="round" d="
		M522.103,170.561c-0.086-0.16-0.174-0.32-0.262-0.48c-0.1-0.725,0.094-1.147,0.309-1.463c2.248,0.967,4.535,2.562,6.932,1.163
		c0.461,0.589,0.705,0.991,1.086,1.263c2.223-0.606,3.893-2.245,5.639-3.62c0.445-0.121,0.77-0.02,1.088,0.091
		c0.156,0.587-0.01,1.105-0.164,1.585"/>
	<path fill-rule="evenodd" clip-rule="evenodd" fill="none" stroke="#000000" stroke-width="1.5798" stroke-linecap="round" d="
		M514.058,363.266c0.152-0.215,0.451-0.281,0.732-0.365"/>
	<path fill-rule="evenodd" clip-rule="evenodd" fill="none" stroke="#000000" stroke-width="1.9349" stroke-linecap="round" d="
		M501.627,368.385c0.184-0.191,0.633-0.459,1.096-0.73"/>
	<path fill-rule="evenodd" clip-rule="evenodd" fill="none" stroke="#000000" stroke-width="1.0105" stroke-linecap="round" d="
		M502.722,367.655c1.061-1.809,2.891-3.545,4.73-4.551c0.918,3.867,4.418,0.279,6.605,0.162"/>
	<path fill-rule="evenodd" clip-rule="evenodd" fill="none" stroke="#000000" stroke-width="1.0956" stroke-linecap="round" d="
		M502.722,367.655c1.754,0.371,3.902-1.236,4.186,1.66c2.68-0.957,5.855-3.26,7.15-6.049"/>
	<path fill-rule="evenodd" clip-rule="evenodd" fill="none" stroke="#000000" stroke-width="1.2326" stroke-linecap="round" d="
		M553.916,366.192c1.371,0.652,0.969,3.109,2.838,3.268c0-4.586,4.02-1.014,6.188-1.84c-0.922-2.479-3.881-4.684-6.287-5.271
		c-0.68,0.703-0.17,1.953-0.945,2.492c-0.648-0.121-1.266-0.4-1.9-0.34C553.638,364.883,553.902,365.576,553.916,366.192"/>
	<path fill-rule="evenodd" clip-rule="evenodd" fill="none" stroke="#000000" stroke-width="1.0935" stroke-linecap="round" d="
		M555.623,208.713c-0.043,3.725,0.127,7.753-1.898,11.022c-4.92,1.666-8.646,5.077-12.404,8.808
		c-1.197,1.325-3.904,0.135-4.225,2.354"/>
	<path fill-rule="evenodd" clip-rule="evenodd" fill="none" stroke="#000000" stroke-width="1.1467" stroke-linecap="round" d="
		M537.095,230.896c1.121,0.425,2.355,0.479,3.447,0.943c0.238,0.249,0.504,0.469,0.773,0.688c-0.078,1.804,0.652,3.321,1.264,4.952"
		/>
	<path fill-rule="evenodd" clip-rule="evenodd" fill="none" stroke="#000000" stroke-width="0.9601" stroke-linecap="round" d="
		M542.58,237.478c0.053,0.067,0.105,0.135,0.158,0.202c1.895,0.407,3.26,1.737,5.119,2.201c2.82,4.472,7.873,6.755,10.813,11.126"/>
	<path fill-rule="evenodd" clip-rule="evenodd" fill="none" stroke="#000000" stroke-width="1.0251" stroke-linecap="round" d="
		M558.67,251.008c1.475-0.297,2.984-1.559,4.535-0.873c1.965,1.955,1.869,4.988,4.398,6.549c1.262,0.438,2.547,1.318,2.734,2.723
		c-0.26,1.031-0.258,2.154-1.43,2.57"/>
	<path fill-rule="evenodd" clip-rule="evenodd" fill="none" stroke="#000000" stroke-width="1.0281" stroke-linecap="round" d="
		M568.908,261.977c0.252,0.48,0.582,0.881,0.93,1.266c0.102,0.627,0.439,1.025,0.752,1.453c-0.271,4.328-5.195,6.15-6.068,10.445"/>
	<path fill-rule="evenodd" clip-rule="evenodd" fill="none" stroke="#000000" stroke-width="1.1114" stroke-linecap="round" d="
		M564.521,275.141c0.25,0.482,0.582,0.881,0.934,1.26c0.375,1.482,0.793,3.025,0.42,4.563c-0.879,1.691-3.359,1.266-4.23,2.594
		c0.189,2.012,1.303,3.68,2.357,5.268c0.145,0.674,0.064,1.289-0.076,1.82c-0.875,1.291-1.627,3.195-3.609,2.779"/>
	<path fill-rule="evenodd" clip-rule="evenodd" fill="none" stroke="#000000" stroke-width="1.1943" stroke-linecap="round" d="
		M560.316,293.424c-0.213,0.848-0.096,2.186-0.301,2.883c-1.133,0.963-2.063,1.91-3.539,2.236"/>
	<path fill-rule="evenodd" clip-rule="evenodd" fill="none" stroke="#000000" stroke-width="1.1411" stroke-linecap="round" d="
		M556.476,298.543c0.406,7.088,1.973,14.049,0.924,21.164c1.23,0.555,1.135,1.885,0.727,2.945c3.637,5.393-2.705,6.855-6.922,8.65
		c-1.746,0.742-2.805,1.625-4.602,1.979"/>
	<path fill-rule="evenodd" clip-rule="evenodd" fill="none" stroke="#000000" stroke-width="2.0359" stroke-linecap="round" d="
		M546.603,333.281c-0.115,0.975,0.125,1.951,0.73,2.926"/>
	<path fill-rule="evenodd" clip-rule="evenodd" fill="none" stroke="#000000" stroke-width="1.0598" stroke-linecap="round" d="
		M547.334,336.207c0.988-0.014,1.979-0.023,2.816,0.113c0.32,0.295,0.42,0.588,0.598,0.861"/>
	<path fill-rule="evenodd" clip-rule="evenodd" fill="none" stroke="#000000" stroke-width="1.1194" stroke-linecap="round" d="
		M550.748,337.182c1.164,0.049,2.518-0.65,3.682-0.023c0.242,0.244,0.512,0.463,0.781,0.68c0.139,0.641,0.109,1.305,0.045,1.922
		c-2.348,1.949,0.553,4.885-0.975,7.051"/>
	<path fill-rule="evenodd" clip-rule="evenodd" fill="none" stroke="#000000" stroke-width="1.2534" stroke-linecap="round" d="
		M554.281,346.811c2.461,0.209,3.475,2.818,2.805,4.998"/>
	<path fill-rule="evenodd" clip-rule="evenodd" fill="none" stroke="#000000" stroke-width="1.1563" stroke-linecap="round" d="
		M557.086,351.809c3.666,0.666,7.6,1.008,10.727,3.412"/>
	<path fill-rule="evenodd" clip-rule="evenodd" fill="none" stroke="#000000" stroke-width="1.2411" stroke-linecap="round" d="
		M567.812,355.221c0.615-0.035,1.248,0.051,1.891,0.227c1.693,2.146,3.418,4.52,2.861,7.453"/>
	<path fill-rule="evenodd" clip-rule="evenodd" fill="none" stroke="#000000" stroke-width="1.1907" stroke-linecap="round" d="
		M572.564,362.901c0.129,0.166,0.256,0.33,0.383,0.496c1.457,3.209-2.992,6.379-5.473,7.459c-4.363,1.902-8.256,3.908-12.34,4.6"/>
	<path fill-rule="evenodd" clip-rule="evenodd" fill="none" stroke="#000000" stroke-width="1.2555" stroke-linecap="round" d="
		M555.135,375.455c-0.08,0.125-0.162,0.248-0.242,0.373c-2.686,0.918-7.049,1.258-12.561,0.965c-1.338-0.07-3.557-0.096-4.502-0.367
		c-1.633-0.467-2.275-1.008-3.66-2.922"/>
	<path fill-rule="evenodd" clip-rule="evenodd" fill="none" stroke="#000000" stroke-width="1.2563" stroke-linecap="round" d="
		M534.17,373.504c-0.486,0.762-0.727,1.291-1.115,1.789c-5.578,2.396-11.881,1.26-17.781,1.021c-0.701-0.52-1.912-0.527-2.678-0.98"
		/>
	<path fill-rule="evenodd" clip-rule="evenodd" fill="none" stroke="#000000" stroke-width="1.5514" stroke-linecap="round" d="
		M498.701,165.625c-0.244-0.1-0.488-0.143-0.73-0.183"/>
	<path fill-rule="evenodd" clip-rule="evenodd" fill="none" stroke="#000000" stroke-width="1.0915" stroke-linecap="round" d="
		M498.701,165.625c0.121-0.042,0.24-0.083,0.361-0.125c2.627,0.49,5.496,0.454,8.117,0.08c0.176-0.604,0.25-1.114,0.396-1.572
		c1.766-0.876,3.922,0.259,5.539,0.915c0.66,0.122,1.172,0.255,1.646,0.333c1.186-1.967-0.865-4.214-0.525-6.227
		c0.264-0.14,0.891,0.121,1.686,0.175c1.023,0.36,2.111,0.927,3.795,2.043c2.018,1.338,3.555,3.388,6.039,4.073
		c0.229-0.463,0.455-0.865,0.77-1.102c1.973,1.944,3.219,0.022,5.15-0.652c3.379,2.48,5.662-4.854,10.328-4.092
		c0.15,0.568-0.141,0.965-0.367,1.379c-0.09,0.629-0.428,1.03-0.742,1.461c-0.113,0.451-0.014,0.774,0.096,1.092
		c0.375,0.119,0.807,0.154,1.242,0.185c0.662-0.556,1.842-0.764,2.393-0.295c0.441,3.062,8.051-0.347,10.867,0.729
		c-0.139,1.874-2.998,2.101-2.729,4.023c2.484,1.589,5.486,1.606,8.242,2.37c0.428,0.34,0.924,0.603,1.25,0.958
		c-0.279,1.628-3.141,1.353-4.471,1.97c-0.201,0.334-0.291,0.599-0.375,0.86c0.193,0.199,0.566,0.274,0.947,0.344
		c0.588,0.613,1.793,0.624,2.662,0.988c0.199,0.335,0.289,0.6,0.373,0.862c-0.746,0.299-1.828,0.508-1.945,1.122
		c3.527,2.83,5.383,7.113,7.867,10.615c0.121,0.482,0.125,0.955,0.08,1.358c-0.664,0.457-1.535,0.291-2.111,0.148
		c-0.492,1.827,0.594,4.429,2.029,5.8c0.262,0.823,0.549,2.229-0.197,2.76c-0.523-0.04-1.289-0.3-1.84-0.393
		c-0.893,1.761,1.287,3.873,0.109,5.816c-1.545,0.489-2.607-1.777-4.176-1.013c-1.061,1.036-0.564,2.743-1.105,4.042
		c-1.461,1.678-2.971-1.714-4.268-0.583c0.219,0.52,0.336,1.753-0.213,2.641"/>
	<path fill-rule="evenodd" clip-rule="evenodd" fill="none" stroke="#000000" stroke-width="1.7188" stroke-linecap="round" d="
		M555.623,208.713c-0.656-0.038-2.104-0.391-3.109-0.392c-1.777,1.196-0.842,3.753-1.889,5.389"/>
	<path fill-rule="evenodd" clip-rule="evenodd" fill="none" stroke="#000000" stroke-width="1.0013" stroke-linecap="round" d="
		M550.625,213.71c-0.535,4.147-4.455,7.635-8.584,10.431c-1.525,1.033-5.129,3.237-8.385,2.147c-1.375-2.084-3.162-1.503-5.127-1.03
		c-0.658,0.158-1.324,1.302-2.018,1.529c-1.027,0.337-2.107-0.619-2.768,1.015c-0.344,0.165-0.621,0.254-0.896,0.339
		c-3.586-2.878-8.025-4.144-11.512-7.321c-4.189-0.158-4.168-5.136-6.053-7.842"/>
	<path fill-rule="evenodd" clip-rule="evenodd" fill="none" stroke="#000000" stroke-width="1.1241" stroke-linecap="round" d="
		M503.015,212.174c-0.143,0.071-0.287,0.141-0.432,0.212c-0.402,0.233-0.615,0.561-0.818,0.893
		c-0.221,3.798,2.783,6.399,4.785,9.402c1.879,1.02,4.096,0.604,6.006,1.307c1.594,5.348,7.416,5.213,11.375,7.64"/>
	<path fill-rule="evenodd" clip-rule="evenodd" fill="none" stroke="#000000" stroke-width="1.1104" stroke-linecap="round" d="
		M550.625,213.71c-2.33-1.179-4.064-2.775-6.557-3.455c-0.469,0.66-0.623,1.458-1.057,1.877c-1.494,0.077-2.021-1.64-3.334-1.995
		c-0.473-0.091-1.092,0.165-1.662,0.481c-1.621,1.74-2.072,5.168-4.217,5.896c-0.354-1.276-1.041-2.438-1.188-3.798
		c-0.467-0.632-1.742-0.612-2.422-0.37c-0.518,0.629-1.014,1.473-1.533,1.857c-0.314-0.031-0.598-0.183-0.879-0.341
		c-0.199-1.156-0.869-2.11-1.137-3.232c-0.332-0.173-0.6-0.331-0.863-0.488c-1.75-0.552-1.504,1.772-2.932,1.908
		c-0.938-0.075-0.98-1.345-1.506-1.858c-2.145,0.515-4.686,2.34-5.656,4.413c-0.43,0.567-1.074,0.93-1.605,1.102
		c-0.859-2.105-0.615-4.857-1.52-6.858c-2.301,0.027-5.486,0.175-7.275,4.13"/>
	<path fill-rule="evenodd" clip-rule="evenodd" fill="none" stroke="#000000" stroke-width="0.9374" stroke-linecap="round" d="
		M558.67,251.008c-2.51,3.242-5.656,6.313-9.324,8.045"/>
	<path fill-rule="evenodd" clip-rule="evenodd" fill="none" stroke="#000000" stroke-width="1.3542" stroke-linecap="round" d="
		M549.345,259.053c-0.607,1.861,0.563,3.633,0.549,5.484"/>
	<path fill-rule="evenodd" clip-rule="evenodd" fill="none" stroke="#000000" stroke-width="1.1727" stroke-linecap="round" d="
		M549.894,264.537c1.328-0.076,2.436,0.684,3.627,1.127c0.6,1.346,0.842,2.861,0.76,4.357"/>
	<path fill-rule="evenodd" clip-rule="evenodd" fill="none" stroke="#000000" stroke-width="1.243" stroke-linecap="round" d="
		M557.816,270.875c-1.18-0.262-2.447-0.309-3.535-0.854"/>
	<path fill-rule="evenodd" clip-rule="evenodd" fill="none" stroke="#000000" stroke-width="1.0014" stroke-linecap="round" d="
		M551.357,272.217c0.652,0.994,0.301,2.246,0,3.289"/>
	<path fill-rule="evenodd" clip-rule="evenodd" fill="none" stroke="#000000" stroke-width="1.5224" stroke-linecap="round" d="
		M551.357,275.506c0.23,0.268,0.926,0.322,1.27,0.535c0.115,0.549,0.229,1.15,0.559,1.66"/>
	<path fill-rule="evenodd" clip-rule="evenodd" fill="none" stroke="#000000" stroke-width="1.0212" stroke-linecap="round" d="
		M551.357,275.506c-1.314-0.008-1.756,0.512-2.383,0.906c-0.762,1.715,0.195,3.395,0.188,5.129"/>
	<path fill-rule="evenodd" clip-rule="evenodd" fill="none" stroke="#000000" stroke-width="1.5636" stroke-linecap="round" d="
		M549.162,281.541c0.156,0.094,0.311,0.188,0.465,0.283c0.238,0.527,0.232,1.578,0.268,2.641"/>
	<path fill-rule="evenodd" clip-rule="evenodd" fill="none" stroke="#000000" stroke-width="1.5514" stroke-linecap="round" d="
		M560.316,293.424c-0.129-0.475-0.141-1.184-0.184-1.828"/>
	<path fill-rule="evenodd" clip-rule="evenodd" fill="none" stroke="#000000" stroke-width="1.0706" stroke-linecap="round" d="
		M564.521,275.141c-1.32,1.059-2.598,2.322-3.658,3.656"/>
	<path fill-rule="evenodd" clip-rule="evenodd" fill="none" stroke="#000000" stroke-width="0.8445" stroke-linecap="round" d="
		M560.863,278.797c0.52,0.215,0.852,0.613,1.098,1.098"/>
	<path fill-rule="evenodd" clip-rule="evenodd" fill="none" stroke="#000000" stroke-width="0.9876" stroke-linecap="round" d="
		M560.863,278.797c-2.002,0.055-3.305-1.404-4.594-2.727c-0.125-0.643,0.043-1.164,0.207-1.66"/>
	<path fill-rule="evenodd" clip-rule="evenodd" fill="none" stroke="#000000" stroke-width="0.8957" stroke-linecap="round" d="
		M556.476,274.41c-0.287-0.201-0.689-0.285-1.098-0.365"/>
	<path fill-rule="evenodd" clip-rule="evenodd" fill="none" stroke="#000000" stroke-width="1.2282" stroke-linecap="round" d="
		M493.033,260.514c5.35,1.83,5.941,10.441,12.615,9.873"/>
	<path fill-rule="evenodd" clip-rule="evenodd" fill="none" stroke="#000000" stroke-width="1.1943" stroke-linecap="round" d="
		M505.648,270.387c0.857-1.137,1.305-1.754,1.951-2.682"/>
	<path fill-rule="evenodd" clip-rule="evenodd" fill="none" stroke="#000000" stroke-width="1.0978" stroke-linecap="round" d="
		M505.162,251.862c-1.188-0.795-2.447-1.352-3.887-1.555c-3.436,1.771-6.586,4.264-9.754,6.574
		c-0.223,0.822,0.059,1.553,0.318,2.463c0.42,0.297,0.797,0.576,1.193,1.17"/>
	<path fill-rule="evenodd" clip-rule="evenodd" fill="none" stroke="#000000" stroke-width="1.0357" stroke-linecap="round" d="
		M498.701,165.625c0.16,1.083,0.576,2.105,1.635,2.57c0.064,0.423,0.23,0.746,0.4,1.063c0.389,0.384,0.523,0.888,0.697,1.288
		c-0.059,0.342-0.217,0.632-0.381,0.92c-2.732,0.912-5.264,1.8-7.633,3.321c-0.568,0.431-0.93,1.075-1.104,1.606
		c0.506,0.436,2.148,0.219,3.236,0.616c-0.029,1.079-2.09,2.416-0.084,2.876c-0.391,2.96-3.605,5.238-5.004,8.024
		c-0.199,0.671-0.34,1.289-0.295,1.808c0.904,0.123,1.316,0.345,1.682,0.617c0.051,1.162-0.809,2.363,0.199,3.282
		c-0.188,3.842-3.027,7.59-2.457,11.189c2.582-0.761,4.018-3.938,6.914-3.895"/>
	<path fill-rule="evenodd" clip-rule="evenodd" fill="none" stroke="#000000" stroke-width="1.4004" stroke-linecap="round" d="
		M496.508,200.912c0.043-0.244,0.201-0.488,0.365-0.731"/>
	<path fill-rule="evenodd" clip-rule="evenodd" fill="none" stroke="#000000" stroke-width="1.4095" stroke-linecap="round" d="
		M496.508,200.912c0.072,1.365-0.221,1.62-0.752,1.916c-0.371,0.645-0.24,1.521,0.061,1.966c1.893,0.254,2.883-2.549,4.906-1.875
		c0.594,1.069-0.857,2.402,0.207,3.331c3.115-0.414,2.389,3.996,2.086,5.923"/>
	<path fill-rule="evenodd" clip-rule="evenodd" fill="none" stroke="#000000" stroke-width="1.6677" stroke-linecap="round" d="
		M503.015,212.174c0.77,0.606,1.637,0.7,2.268,0.804"/>
	<path fill-rule="evenodd" clip-rule="evenodd" fill="none" stroke="#000000" stroke-width="1.0343" stroke-linecap="round" d="
		M523.931,231.627c-0.779,0.468-1.414,0.603-1.961,0.944c-1.016,1.479-0.852,3.289-1.695,4.907"/>
	<path fill-rule="evenodd" clip-rule="evenodd" fill="none" stroke="#000000" stroke-width="1.5291" stroke-linecap="round" d="
		M537.095,230.896c-4.35,0.686-8.885,0.467-13.164,0.731"/>
	<path fill-rule="evenodd" clip-rule="evenodd" fill="none" stroke="#000000" stroke-width="1.5514" stroke-linecap="round" d="
		M511.865,281.358c0,1.584,0,3.17,0,4.754"/>
	<path fill-rule="evenodd" clip-rule="evenodd" fill="none" stroke="#000000" stroke-width="0.8957" stroke-linecap="round" d="
		M511.865,286.112c0.287,0.199,0.689,0.285,1.098,0.365"/>
	<path fill-rule="evenodd" clip-rule="evenodd" fill="none" stroke="#000000" stroke-width="1.2211" stroke-linecap="round" d="
		M511.865,286.112c-1.84,2.949-6.369,5.053-4.998,9.385"/>
	<path fill-rule="evenodd" clip-rule="evenodd" fill="none" stroke="#000000" stroke-width="0.9603" stroke-linecap="round" d="
		M506.867,295.496c2.113,0.582,6.164,4.531,9.188,6.17c1.104,0.598,2.986,0.898,4.271,1.58c1.139,0.602,4.805,1.686,7.48,1.918
		c0.059,0.004,0.092,0.301,0.148,0.328"/>
	<path fill-rule="evenodd" clip-rule="evenodd" fill="none" stroke="#000000" stroke-width="0.8957" stroke-linecap="round" d="
		M527.955,305.492c1.635-0.041,2.797-0.064,3.777,0.486"/>
	<path fill-rule="evenodd" clip-rule="evenodd" fill="none" stroke="#000000" stroke-width="1.3026" stroke-linecap="round" d="
		M555.013,294.156c0.031-2.73-3.584-2.781-4.299-5.096c-0.482-1.469,0.686-3.613-0.82-4.596"/>
	<path fill-rule="evenodd" clip-rule="evenodd" fill="none" stroke="#000000" stroke-width="1.4004" stroke-linecap="round" d="
		M549.894,284.465c-0.365,0.107-0.732,0.307-1.098,0.549"/>
	<path fill-rule="evenodd" clip-rule="evenodd" fill="none" stroke="#000000" stroke-width="1.2667" stroke-linecap="round" d="
		M549.162,281.541c-1.254,0.729-2.609,1.33-3.656,2.377"/>
	<path fill-rule="evenodd" clip-rule="evenodd" fill="none" stroke="#000000" stroke-width="1.2812" stroke-linecap="round" d="
		M549.345,259.053c-0.857-3.48-0.781-7.074-1.279-10.605"/>
	<path fill-rule="evenodd" clip-rule="evenodd" fill="none" stroke="#000000" stroke-width="1.2222" stroke-linecap="round" d="
		M542.58,237.478c-7.447-0.363-15-0.29-22.305,0"/>
	<path fill-rule="evenodd" clip-rule="evenodd" fill="none" stroke="#000000" stroke-width="1.0605" stroke-linecap="round" d="
		M520.275,237.478c-5.326,0.858-7.439,4.432-9.164,8.27c-2.592,1.113-3.939,4.148-5.949,6.113"/>
	<path fill-rule="evenodd" clip-rule="evenodd" fill="none" stroke="#000000" stroke-width="0.9728" stroke-linecap="round" d="
		M505.162,251.862c1.543,3.529,3.895,6.85,7.434,8.652"/>
	<path fill-rule="evenodd" clip-rule="evenodd" fill="none" stroke="#000000" stroke-width="1.3052" stroke-linecap="round" d="
		M512.595,260.514c1.199-3.127,0.537-6.609,1.098-9.871"/>
	<path fill-rule="evenodd" clip-rule="evenodd" fill="none" stroke="#000000" stroke-width="1.558" stroke-linecap="round" d="
		M512.595,260.514c-0.215,1.424,0.461,3.15-0.365,4.389"/>
	<path fill-rule="evenodd" clip-rule="evenodd" fill="none" stroke="#000000" stroke-width="1.2091" stroke-linecap="round" d="
		M512.23,264.903c0.078,2.111,0.031,4.232-0.73,6.217"/>
	<path fill-rule="evenodd" clip-rule="evenodd" fill="none" stroke="#000000" stroke-width="1.4697" stroke-linecap="round" d="
		M511.5,271.119c0.727,1.232-0.498,2.463-0.646,3.691c0.66,2.111,1.084,4.309,1.012,6.547"/>
	<path fill-rule="evenodd" clip-rule="evenodd" fill="none" stroke="#000000" stroke-width="0.7434" stroke-linecap="round" d="
		M511.865,281.358c1.787,0.383,2.307,1.166,3.291,1.463"/>
	<path fill-rule="evenodd" clip-rule="evenodd" fill="none" stroke="#000000" stroke-width="0.8957" stroke-linecap="round" d="
		M496.689,272.948c1.879,0.188,2.598,2.244,4.205,2.926"/>
	<path fill-rule="evenodd" clip-rule="evenodd" fill="none" stroke="#000000" stroke-width="0.9575" stroke-linecap="round" d="
		M493.033,260.514c-0.367,1.314-0.883,2.43-1.441,3.631c0.746,3.406,2.768,6.334,5.098,8.803"/>
	<path fill-rule="evenodd" clip-rule="evenodd" fill="none" stroke="#000000" stroke-width="1.2017" stroke-linecap="round" d="
		M557.816,270.875c0.135,1.275-0.895,2.389-1.34,3.535"/>
	<path fill-rule="evenodd" clip-rule="evenodd" fill="none" stroke="#000000" stroke-width="1.1214" stroke-linecap="round" d="
		M568.908,261.977c-4.176,2.275-7.24,6.09-11.092,8.898"/>
	<path fill-rule="evenodd" clip-rule="evenodd" fill="none" stroke="#000000" stroke-width="1.0051" stroke-linecap="round" d="
		M551.357,272.217c1.115-0.551,2.4-0.973,2.924-2.195"/>
	<path fill-rule="evenodd" clip-rule="evenodd" fill="none" stroke="#000000" stroke-width="1.2571" stroke-linecap="round" d="
		M549.894,264.537c-0.176,2.709,0.314,5.314,1.463,7.68"/>
	<path fill-rule="evenodd" clip-rule="evenodd" fill="none" stroke="#000000" stroke-width="1.4053" stroke-linecap="round" d="
		M507.599,267.705c1.795,0.623,1.537,3.461,3.9,3.414"/>
	<path fill-rule="evenodd" clip-rule="evenodd" fill="none" stroke="#000000" stroke-width="1.1943" stroke-linecap="round" d="
		M512.23,264.903c-1.852-0.145-4.807,0.438-4.631,2.803"/>
	<path fill-rule="evenodd" clip-rule="evenodd" fill="none" stroke="#000000" stroke-width="1.0343" stroke-linecap="round" d="
		M505.648,270.387c0.084,0.207,0.17,0.412,0.254,0.617c-0.361,2.557-3.236,3.451-5.008,4.869"/>
	<path fill-rule="evenodd" clip-rule="evenodd" fill="none" stroke="#000000" stroke-width="0.9441" stroke-linecap="round" d="
		M500.894,275.873c-0.199,0.287-0.285,0.689-0.365,1.096"/>
	<path fill-rule="evenodd" clip-rule="evenodd" fill="none" stroke="#000000" stroke-width="1.1808" stroke-linecap="round" d="
		M496.689,272.948c-0.279,0.449-0.596,0.574-0.922,0.818c-0.488,1.055-1.234,2.023-1.422,3.191c0.307,2.834,4.023,2.246,5.088,4.4"
		/>
	<path fill-rule="evenodd" clip-rule="evenodd" fill="none" stroke="#000000" stroke-width="0.8957" stroke-linecap="round" d="
		M499.433,281.358c1.584,0,3.168,0,4.752,0"/>
	<path fill-rule="evenodd" clip-rule="evenodd" fill="none" stroke="#000000" stroke-width="1.1857" stroke-linecap="round" d="
		M499.433,281.358c-0.613,1.787-1.52,3.51-2.791,4.768c-0.852,2.049,0.121,3.734,1.174,5.26c0.609,0.121,1.129,0.332,1.617,0.576"/>
	<path fill-rule="evenodd" clip-rule="evenodd" fill="none" stroke="#000000" stroke-width="0.9121" stroke-linecap="round" d="
		M499.433,291.961c0.891-0.326,0.938-1.5,1.828-1.828"/>
	<path fill-rule="evenodd" clip-rule="evenodd" fill="none" stroke="#000000" stroke-width="1.2254" stroke-linecap="round" d="
		M499.433,291.961c-0.463,3.563,3.447,5.484,6.215,6.582"/>
	<path fill-rule="evenodd" clip-rule="evenodd" fill="none" stroke="#000000" stroke-width="1.5077" stroke-linecap="round" d="
		M505.648,298.543c0.75-0.814-0.076-2.395,1.219-3.047"/>
	<path fill-rule="evenodd" clip-rule="evenodd" fill="none" stroke="#000000" stroke-width="1.0902" stroke-linecap="round" d="
		M536.609,305.248c-1.119,0.16-2.471,0.064-3.535,0.609"/>
	<path fill-rule="evenodd" clip-rule="evenodd" fill="none" stroke="#000000" stroke-width="0.9251" stroke-linecap="round" d="
		M533.074,305.858c0.271,0.703,0.377,1.572,0.73,2.193"/>
	<path fill-rule="evenodd" clip-rule="evenodd" fill="none" stroke="#000000" stroke-width="0.9092" stroke-linecap="round" d="
		M533.804,308.051c1.678,0.035,2.324,2.033,4.023,1.828"/>
	<path fill-rule="evenodd" clip-rule="evenodd" fill="none" stroke="#000000" stroke-width="0.9861" stroke-linecap="round" d="
		M556.476,298.543c-0.516-1.455-0.928-2.934-1.463-4.387"/>
	<path fill-rule="evenodd" clip-rule="evenodd" fill="none" stroke="#000000" stroke-width="1.0024" stroke-linecap="round" d="
		M555.013,294.156c-5.053,5.104-11.164,9.756-18.404,11.092"/>
	<path fill-rule="evenodd" clip-rule="evenodd" fill="none" stroke="#000000" stroke-width="0.9423" stroke-linecap="round" d="
		M536.609,305.248c1.566,1.994,4.83,2.143,7.068,3.168"/>
	<path fill-rule="evenodd" clip-rule="evenodd" fill="none" stroke="#000000" stroke-width="1.2301" stroke-linecap="round" d="
		M505.648,298.543c-0.457,6.855-0.836,13.979,0.357,20.762c-0.156,0.568-0.395,1.318-0.641,1.885
		c-0.412,1.42,0.539,2.666,1.588,3.484c0.467,1.381-1.271,2.605-0.352,4.004c0.242,0.242,0.463,0.508,0.684,0.773
		c4.445,1.209,7.893,4.348,12.625,4.195"/>
	<path fill-rule="evenodd" clip-rule="evenodd" fill="none" stroke="#000000" stroke-width="1.0212" stroke-linecap="round" d="
		M519.91,333.647c2.611-0.596,5.271-1.379,8.045-1.096"/>
	<path fill-rule="evenodd" clip-rule="evenodd" fill="none" stroke="#000000" stroke-width="1.4535" stroke-linecap="round" d="
		M533.804,330.723c-0.088-7.297-1.021-14.479-0.854-21.818"/>
	<path fill-rule="evenodd" clip-rule="evenodd" fill="none" stroke="#000000" stroke-width="1.5939" stroke-linecap="round" d="
		M532.951,308.905c-0.596-0.016-1.088-0.301-1.523-0.854"/>
	<path fill-rule="evenodd" clip-rule="evenodd" fill="none" stroke="#000000" stroke-width="0.9695" stroke-linecap="round" d="
		M531.427,308.051c-2.283,1.203-4.479,4.365-7.313,6.4c-0.127,0.09-0.07,0.438-0.184,0.547"/>
	<path fill-rule="evenodd" clip-rule="evenodd" fill="none" stroke="#000000" stroke-width="0.9526" stroke-linecap="round" d="
		M527.955,305.492c-0.039,0.119-0.08,0.238-0.119,0.357c-2.193,1.83-5.02,2.371-7.561,3.299"/>
	<path fill-rule="evenodd" clip-rule="evenodd" fill="none" stroke="#000000" stroke-width="1.0343" stroke-linecap="round" d="
		M532.951,308.905c0.285-0.285,0.57-0.568,0.854-0.854"/>
	<path fill-rule="evenodd" clip-rule="evenodd" fill="none" stroke="#000000" stroke-width="1.5514" stroke-linecap="round" d="
		M533.074,305.858c-0.504-0.008-0.961,0.055-1.342,0.121"/>
	<path fill-rule="evenodd" clip-rule="evenodd" fill="none" stroke="#000000" stroke-width="1.5685" stroke-linecap="round" d="
		M531.732,305.979c-0.08,0.594-0.135,1.467-0.305,2.072"/>
	<path fill-rule="evenodd" clip-rule="evenodd" fill="none" stroke="#000000" stroke-width="1.2017" stroke-linecap="round" d="
		M527.955,332.551c0.531,1.328,0.299,2.986,1.463,4.021"/>
	<path fill-rule="evenodd" clip-rule="evenodd" fill="none" stroke="#000000" stroke-width="1.1849" stroke-linecap="round" d="
		M529.418,336.573c0.771,0.492,2.121,0.129,2.314,1.342"/>
	<path fill-rule="evenodd" clip-rule="evenodd" fill="none" stroke="#000000" stroke-width="1.097" stroke-linecap="round" d="
		M537.095,332.186c-1.158-0.42-2.523-0.262-3.291-1.463"/>
	<path fill-rule="evenodd" clip-rule="evenodd" fill="none" stroke="#000000" stroke-width="1.1989" stroke-linecap="round" d="
		M533.804,330.723c-1.84,0.846-4.17,0.695-5.85,1.828"/>
	<path fill-rule="evenodd" clip-rule="evenodd" fill="none" stroke="#000000" stroke-width="1.5514" stroke-linecap="round" d="
		M519.91,333.647c0.016,0.854,0.023,2.16-0.184,2.926"/>
	<path fill-rule="evenodd" clip-rule="evenodd" fill="none" stroke="#000000" stroke-width="1.331" stroke-linecap="round" d="
		M519.726,336.573c0.197,0.521-0.258,1.465-0.359,2.17c3.09,1.195,6.916,1.076,10.051,0.025"/>
	<path fill-rule="evenodd" clip-rule="evenodd" fill="none" stroke="#000000" stroke-width="0.9251" stroke-linecap="round" d="
		M529.418,338.768c-0.389-0.705-0.254-1.574,0-2.195"/>
	<path fill-rule="evenodd" clip-rule="evenodd" fill="none" stroke="#000000" stroke-width="1.3564" stroke-linecap="round" d="
		M546.603,333.281c-3.139-0.531-6.303-1.014-9.508-1.096"/>
	<path fill-rule="evenodd" clip-rule="evenodd" fill="none" stroke="#000000" stroke-width="1.2667" stroke-linecap="round" d="
		M537.095,332.186c0.123,1.746-0.361,3.404-0.549,5.119"/>
	<path fill-rule="evenodd" clip-rule="evenodd" fill="none" stroke="#000000" stroke-width="0.8957" stroke-linecap="round" d="
		M547.701,338.401c1.033,0.047,1.686-0.049,2.322-0.225c0.182-0.344,0.451-0.668,0.725-0.994"/>
	<path fill-rule="evenodd" clip-rule="evenodd" fill="none" stroke="#000000" stroke-width="1.0343" stroke-linecap="round" d="
		M547.334,336.207c0.006,1.027,0.277,1.611,0.367,2.193"/>
	<path fill-rule="evenodd" clip-rule="evenodd" fill="none" stroke="#000000" stroke-width="0.8653" stroke-linecap="round" d="
		M514.791,344.617c1.391,0.371,2.455,1.393,4.021,1.098"/>
	<path fill-rule="evenodd" clip-rule="evenodd" fill="none" stroke="#000000" stroke-width="1.3256" stroke-linecap="round" d="
		M514.791,344.617c-0.555,0.852-0.693,1.83-0.854,2.803"/>
	<path fill-rule="evenodd" clip-rule="evenodd" fill="none" stroke="#000000" stroke-width="1.4885" stroke-linecap="round" d="
		M513.937,347.42c0.938,1.115,0.779,2.258,0.73,2.926"/>
	<path fill-rule="evenodd" clip-rule="evenodd" fill="none" stroke="#000000" stroke-width="0.9601" stroke-linecap="round" d="
		M514.668,350.346c4.662,4.381,12.119,2.688,17.797,1.463"/>
	<path fill-rule="evenodd" clip-rule="evenodd" fill="none" stroke="#000000" stroke-width="1.2237" stroke-linecap="round" d="
		M533.804,338.768c-0.896-0.439-1.588-0.67-2.072-0.854"/>
	<path fill-rule="evenodd" clip-rule="evenodd" fill="none" stroke="#000000" stroke-width="1.1369" stroke-linecap="round" d="
		M519.726,336.573c-2.547-0.471-4.332,1.416-6.559,2.045c-0.188,0.328-0.279,0.598-0.369,0.865c0.326,1.834,1.873,3.238,1.992,5.135
		"/>
	<path fill-rule="evenodd" clip-rule="evenodd" fill="none" stroke="#000000" stroke-width="1.2667" stroke-linecap="round" d="
		M529.418,338.768c0.512-0.012,1.432-0.295,2.314-0.854"/>
	<path fill-rule="evenodd" clip-rule="evenodd" fill="none" stroke="#000000" stroke-width="1.0951" stroke-linecap="round" d="
		M547.701,338.401c-0.037,0.123-0.072,0.246-0.109,0.369c-3.41,0.99-6.92-0.238-10.387-0.479c-0.316-0.291-0.447-0.646-0.658-0.986"
		/>
	<path fill-rule="evenodd" clip-rule="evenodd" fill="none" stroke="#000000" stroke-width="1.0014" stroke-linecap="round" d="
		M536.547,337.305c-1.123,0.076-1.807,0.998-2.742,1.463"/>
	<path fill-rule="evenodd" clip-rule="evenodd" fill="none" stroke="#000000" stroke-width="1.5514" stroke-linecap="round" d="
		M533.804,338.768c-0.02,0.723,0.021,1.551,0.123,2.07"/>
	<path fill-rule="evenodd" clip-rule="evenodd" fill="none" stroke="#000000" stroke-width="1.0503" stroke-linecap="round" d="
		M533.927,340.838c2.828,1.037,1.242,3.813-0.244,5.363"/>
	<path fill-rule="evenodd" clip-rule="evenodd" fill="none" stroke="#000000" stroke-width="1.5798" stroke-linecap="round" d="
		M533.683,346.201c0.078,0.418,0.148,0.869,0.244,1.219"/>
	<path fill-rule="evenodd" clip-rule="evenodd" fill="none" stroke="#000000" stroke-width="0.9966" stroke-linecap="round" d="
		M552.636,348.274c-0.914,0.105-1.463,0.813-2.377,1.098"/>
	<path fill-rule="evenodd" clip-rule="evenodd" fill="none" stroke="#000000" stroke-width="1.3317" stroke-linecap="round" d="
		M533.927,340.838c-0.398,0.227-0.709,0.447-1.016,0.666c-0.158,1.207-0.766,1.518-1.133,1.805
		c-0.176,0.598-0.135,1.436-0.002,1.826c0.49,0.326,1.443,0.891,1.906,1.066"/>
	<path fill-rule="evenodd" clip-rule="evenodd" fill="none" stroke="#000000" stroke-width="0.8576" stroke-linecap="round" d="
		M553.916,350.102c0.535-0.047,0.887,0.09,1.23,0.234c0.141,0.795,0.838,1.152,1.451,1.717"/>
	<path fill-rule="evenodd" clip-rule="evenodd" fill="none" stroke="#000000" stroke-width="1.2667" stroke-linecap="round" d="
		M554.281,346.811c-0.986,0.332-1.367,0.865-1.645,1.463"/>
	<path fill-rule="evenodd" clip-rule="evenodd" fill="none" stroke="#000000" stroke-width="1.3485" stroke-linecap="round" d="
		M552.636,348.274c0.48,0.607,1.096,0.795,1.279,1.828"/>
	<path fill-rule="evenodd" clip-rule="evenodd" fill="none" stroke="#000000" stroke-width="1.6353" stroke-linecap="round" d="
		M510.219,351.93c0.123,0.244,0.244,0.488,0.367,0.732"/>
	<path fill-rule="evenodd" clip-rule="evenodd" fill="none" stroke="#000000" stroke-width="1.428" stroke-linecap="round" d="
		M513.937,347.42c-1.281,0.283-2.264,1.092-3.357,1.736c-0.178,0.691-0.135,2.023-0.361,2.773"/>
	<path fill-rule="evenodd" clip-rule="evenodd" fill="none" stroke="#000000" stroke-width="1.5798" stroke-linecap="round" d="
		M532.465,351.809c0.389,0.064,1.09,0.26,1.705,0.488"/>
	<path fill-rule="evenodd" clip-rule="evenodd" fill="none" stroke="#000000" stroke-width="1.2128" stroke-linecap="round" d="
		M534.537,351.93c-0.137-1.324,0.713-2.582,0.25-3.914c-0.295-0.32-0.586-0.42-0.859-0.596"/>
	<path fill-rule="evenodd" clip-rule="evenodd" fill="none" stroke="#000000" stroke-width="1.4955" stroke-linecap="round" d="
		M533.927,347.42c-1.801,0.688-2.102,2.771-1.463,4.389"/>
	<path fill-rule="evenodd" clip-rule="evenodd" fill="none" stroke="#000000" stroke-width="2.194" stroke-linecap="round" d="
		M534.537,351.93c-0.123,0.123-0.244,0.244-0.367,0.367"/>
	<path fill-rule="evenodd" clip-rule="evenodd" fill="none" stroke="#000000" stroke-width="1.5592" stroke-linecap="round" d="
		M534.17,352.297c-0.504,1.617-0.578,3.508,0,5.119"/>
	<path fill-rule="evenodd" clip-rule="evenodd" fill="none" stroke="#000000" stroke-width="1.2335" stroke-linecap="round" d="
		M553.916,350.102c-4.822,5.398-13.08,3.016-19.379,1.828"/>
	<path fill-rule="evenodd" clip-rule="evenodd" fill="none" stroke="#000000" stroke-width="0.9638" stroke-linecap="round" d="
		M506.623,356.928c1.799,1.326,3.643-0.504,5.035-1.549c0.668-0.146,1.285-0.068,1.82,0.066c0.633,0.576,1.264,1.168,1.842,1.807
		c6.162,1.283,12.752,1.266,18.85,0.164"/>
	<path fill-rule="evenodd" clip-rule="evenodd" fill="none" stroke="#000000" stroke-width="1.0706" stroke-linecap="round" d="
		M514.668,350.346c-1.711,0.215-2.344,2.227-4.082,2.316"/>
	<path fill-rule="evenodd" clip-rule="evenodd" fill="none" stroke="#000000" stroke-width="1.2066" stroke-linecap="round" d="
		M510.586,352.662c-0.111,0.52-0.205,0.941-0.35,1.26c-1.576,0.518-3.326,1.078-3.613,3.006"/>
	<path fill-rule="evenodd" clip-rule="evenodd" fill="none" stroke="#000000" stroke-width="1.474" stroke-linecap="round" d="
		M497.787,357.051c0.459,2.146-1.99,3.197-1.645,5.484"/>
	<path fill-rule="evenodd" clip-rule="evenodd" fill="none" stroke="#000000" stroke-width="1.3115" stroke-linecap="round" d="
		M496.142,362.535c1.553,1.016,3.439,0.484,5.104,1.068c0.373-0.094,0.9-0.277,1.402-0.418c1.326-2.006,1.703-5.053,3.975-6.258"/>
	<path fill-rule="evenodd" clip-rule="evenodd" fill="none" stroke="#000000" stroke-width="1.0022" stroke-linecap="round" d="
		M510.219,351.93c-4.664,0.424-8.918,2.229-12.432,5.121"/>
	<path fill-rule="evenodd" clip-rule="evenodd" fill="none" stroke="#000000" stroke-width="1.1369" stroke-linecap="round" d="
		M559.523,356.928c2.322,1.33,1.732,4.654,3.492,6.404c2.35,0.264,4.379-0.592,6.625-0.797"/>
	<path fill-rule="evenodd" clip-rule="evenodd" fill="none" stroke="#000000" stroke-width="1.6353" stroke-linecap="round" d="
		M557.086,351.809c-0.162,0.082-0.326,0.162-0.488,0.244"/>
	<path fill-rule="evenodd" clip-rule="evenodd" fill="none" stroke="#000000" stroke-width="1.1652" stroke-linecap="round" d="
		M556.597,352.053c-0.027,0.092-0.055,0.184-0.082,0.275c0.475,1.838,2.414,2.777,3.008,4.6"/>
	<path fill-rule="evenodd" clip-rule="evenodd" fill="none" stroke="#000000" stroke-width="1.1148" stroke-linecap="round" d="
		M492.972,364.242c-0.199,0.234-0.398,0.469-0.598,0.703c-0.428,1.34-0.34,2.805,0.189,4.1c1.699,1.568,4.896,2.719,8.113,3.58
		c3.76,1.006,7.914,1.863,11.453,2.705c0.146,0.035,0.316-0.025,0.465,0.004"/>
	
		<line fill-rule="evenodd" clip-rule="evenodd" fill="none" stroke="#000000" stroke-width="2.0685" stroke-linecap="round" x1="534.17" y1="357.416" x2="534.17" y2="357.416"/>
	<path fill-rule="evenodd" clip-rule="evenodd" fill="none" stroke="#000000" stroke-width="1.9034" stroke-linecap="round" d="
		M534.17,357.416c-0.297,4.041,0.867,8.049,0.184,12.066"/>
	<path fill-rule="evenodd" clip-rule="evenodd" fill="none" stroke="#000000" stroke-width="1.6353" stroke-linecap="round" d="
		M534.353,369.483c0.061,0.121,0.121,0.244,0.184,0.365"/>
	<path fill-rule="evenodd" clip-rule="evenodd" fill="none" stroke="#000000" stroke-width="1.024" stroke-linecap="round" d="
		M559.523,356.928c-1.732,1.092-4.055,0.768-4.361-1.51c-1.953,0.332-3.996,1.574-5.785,2.576
		c-5.146,0.863-10.15,0.092-15.207-0.578"/>
	<path fill-rule="evenodd" clip-rule="evenodd" fill="none" stroke="#000000" stroke-width="1.1563" stroke-linecap="round" d="
		M569.64,362.535c-0.035,0.662,0.328,1.113,0.701,1.527c0.779-0.146,1.471-0.723,2.223-1.162"/>
	<path fill-rule="evenodd" clip-rule="evenodd" fill="none" stroke="#000000" stroke-width="1.363" stroke-linecap="round" d="
		M567.812,355.221c1.086,2.324,1.891,4.703,1.828,7.314"/>
	<path fill-rule="evenodd" clip-rule="evenodd" fill="none" stroke="#000000" stroke-width="1.4396" stroke-linecap="round" d="
		M492.972,364.242c1.387,0.596,2.248-0.969,3.17-1.707"/>
	<path fill-rule="evenodd" clip-rule="evenodd" fill="none" stroke="#000000" stroke-width="1.2667" stroke-linecap="round" d="
		M497.787,357.051c-3.51-0.07-5.537,4.063-4.814,7.191"/>
	<path fill-rule="evenodd" clip-rule="evenodd" fill="none" stroke="#000000" stroke-width="1.0855" stroke-linecap="round" d="
		M534.353,369.483c-6.094,1.727-13.645-0.684-18.635,3.854c-1.283,0.146-2.561,0.811-3.123,1.998"/>
	<path fill-rule="evenodd" clip-rule="evenodd" fill="none" stroke="#000000" stroke-width="0.9303" stroke-linecap="round" d="
		M555.135,375.455c-0.822-1.502-2.152-2.301-3.58-3.244c-1.893-1.252-4.49-1.99-7.256-1.703c-3.32,0.346-6.324,0.182-9.762-0.66"/>
	<path fill-rule="evenodd" clip-rule="evenodd" fill="none" stroke="#000000" stroke-width="1.9502" stroke-linecap="round" d="
		M534.537,369.848c-0.053,1.219-0.359,2.438-0.367,3.656"/>
</g>
</svg>
