<?xml version="1.0" encoding="utf-8"?>
<!-- Generator: Adobe Illustrator 14.0.0, SVG Export Plug-In . SVG Version: 6.00 Build 43363)  -->
<!DOCTYPE svg PUBLIC "-//W3C//DTD SVG 1.1//EN" "http://www.w3.org/Graphics/SVG/1.1/DTD/svg11.dtd">
<svg version="1.1" id="图层_1" xmlns="http://www.w3.org/2000/svg" xmlns:xlink="http://www.w3.org/1999/xlink" x="0px" y="0px"
	 width="848px" height="480px" viewBox="0 0 848 480" enable-background="new 0 0 848 480" xml:space="preserve">
<g>
	<path fill="none" stroke="#000000" stroke-width="1.539" stroke-linecap="round" d="M447.705,100.453
		c-0.708-1.366-0.603-3.033,0.413-4.218c0.474-0.26,0.809-0.401,1.171-0.462c0.96,0.853,0.584,2.313,1.076,3.407"/>
	<path fill="none" stroke="#000000" stroke-width="1.3627" stroke-linecap="round" d="M447.705,100.453
		c1.011,0.186,1.964-0.615,2.66-1.272"/>
	<path fill="none" stroke="#000000" stroke-width="1.7892" stroke-linecap="round" d="M447.705,100.453
		c-1.418,1.329-1.347,3.584-0.938,5.32c0.784,0.627,1.33,0.879,1.865,1.013c1.334-0.609,1.094-2.14,1.326-2.715
		c0.132-0.321,0.637-0.44,0.827-0.776c0.635-1.115,0.45-2.704-0.42-4.113"/>
	<path fill="none" stroke="#000000" stroke-width="0.6938" stroke-linecap="round" d="M466.323,111.671
		c-0.274-1.347,3.16-1.015,2.081,0.693c-0.462,0-0.925,0-1.388,0C467.144,111.774,466.746,111.71,466.323,111.671z"/>
	<path fill="none" stroke="#000000" stroke-width="0.8957" stroke-linecap="round" d="M465.976,116.874c0.229,0,0.462,0,0.693,0"/>
	<path fill="none" stroke="#000000" stroke-width="0.8957" stroke-linecap="round" d="M469.445,199.44c0-0.23,0-0.462,0-0.693"/>
	<path fill="none" stroke="#000000" stroke-width="2.9215" stroke-linecap="round" d="M413.938,119.302
		c-1.035-7.72,0.636-15.499,0.693-23.243"/>
	<path fill="none" stroke="#000000" stroke-width="1.3286" stroke-linecap="round" d="M414.632,96.059
		c-0.802-2.458,0.041-7.217,0.277-10.021c0.073-0.862,0.042-2.099,0.187-2.698"/>
	<path fill="none" stroke="#000000" stroke-width="1.0773" stroke-linecap="round" d="M415.095,83.339
		c-0.826-3.634-0.189-7.326,1.307-10.382c0.07-0.145,0.433-0.142,0.5-0.292c1.161-2.63,2.57-5.189,4.331-6.885
		c3.576-3.44,6.93-6.084,11.47-7.853c4.289-1.672,8.542-2.364,13.848-2.111"/>
	<path fill="none" stroke="#000000" stroke-width="0.9812" stroke-linecap="round" d="M446.55,55.817
		c5.026-1.753,10.54,0.631,15.61,1.041"/>
	<path fill="none" stroke="#000000" stroke-width="0.988" stroke-linecap="round" d="M462.16,56.858
		c4.43,0.481,8.807,2.479,12.489,4.857"/>
	<path fill="none" stroke="#000000" stroke-width="1.327" stroke-linecap="round" d="M474.649,61.715
		c1.958-0.152,3.642-1.748,5.689-0.833c3.065,1.798,3.839,5.633,6.124,7.854c2.514,5.111,1.028,15.51,0.673,24.437
		c-0.102,2.533-0.174,5.739-0.35,8.437c-0.029,0.474-0.507,0.907-0.55,1.389c-1.169,13.136,1.611,25.307-3.082,29.667
		c-1.208,1.122-6.75,3.109-9.2,1.901"/>
	<path fill="none" stroke="#000000" stroke-width="1.1295" stroke-linecap="round" d="M473.955,134.567
		c-0.777,0.91-2.24,0.964-3.122,1.041"/>
	<path fill="none" stroke="#000000" stroke-width="1.0886" stroke-linecap="round" d="M473.089,160.932
		c0.267,1.573,1.003,3.33,0.174,4.857"/>
	<path fill="none" stroke="#000000" stroke-width="1.2529" stroke-linecap="round" d="M477.771,207.766
		c-0.334,3.032,0.388,5.951,0.521,8.846"/>
	<path fill="none" stroke="#000000" stroke-width="1.1888" stroke-linecap="round" d="M478.293,216.613
		c2.504,3.848,1.737,7.829,3.164,11.758c0.086,0.233,0.611,0.324,0.702,0.571c0.229,0.626,0.146,1.474,0.283,1.869
		c0.043,0.125,0.492,0.128,0.552,0.283c0.825,2.146,1.285,4.604,2.099,6.713c0.009,0.021,0.985,0.802,0.818,2.025
		c1.574,0.46,0.375,2.133,0.359,3.146"/>
	<path fill="none" stroke="#000000" stroke-width="1.2794" stroke-linecap="round" d="M486.27,242.979
		c1.677,1.121,1.555,3.933,1.215,5.724"/>
	<path fill="none" stroke="#000000" stroke-width="0.955" stroke-linecap="round" d="M487.485,248.701
		c2.471,4.829-0.569,9.448-4.317,12.334c-0.858,0.192-2.652,0.188-3.661-0.191"/>
	
		<line fill="none" stroke="#000000" stroke-width="2.7753" stroke-linecap="round" x1="479.507" y1="260.844" x2="479.507" y2="260.844"/>
	<path fill="none" stroke="#000000" stroke-width="1.2598" stroke-linecap="round" d="M466.671,264.66
		c-1.025,0.512-1.232,2.629-1.771,3.674c-0.076,0.146-0.433,0.137-0.498,0.289c-0.215,0.5-0.083,1.391-0.27,1.896
		c-0.087,0.234-0.667,0.306-0.765,0.56c-0.894,2.332-1.135,4.59-1.937,6.971c-0.044,0.131-0.452,0.147-0.499,0.287
		c-0.215,0.641-0.16,1.955-0.32,2.428c-0.042,0.123-0.498,0.133-0.552,0.285c-0.454,1.287-1.136,3.543-1.614,5.221
		c-1.286,4.513-2.743,8.906-3.847,13.396c-1.462,5.948-2.767,12.602-3.47,18.038c-0.118,0.91-0.64,3.597-0.972,5.933
		c-1.037,7.293-0.508,17.647-0.402,25.979c0.07,5.654,1.711,12.781,2.55,17.529c6.749,8.035,17.14,11.279,24.933,18.082
		c4.136,1.305,6.938,5.145,11.78,7.648c0.725,0.372,1.748-0.031,1.937,0.838"/>
	<path fill="none" stroke="#000000" stroke-width="0.7757" stroke-linecap="round" d="M490.954,393.713
		c0.734-0.041,1.07,0.315,1.389,0.692"/>
	<path fill="none" stroke="#000000" stroke-width="1.1254" stroke-linecap="round" d="M400.293,249.86
		c1.667-1.407,4.093-0.741,5.319,0.925"/>
	<path fill="none" stroke="#000000" stroke-width="1.4927" stroke-linecap="round" d="M405.613,250.783
		c0.198-0.078,0.396-0.156,0.595-0.236c2.045-2.605,1.863-6.443,3.089-9.269c0.104-0.237,0.594-0.329,0.704-0.573
		c0.181-0.4,0.083-0.963,0.231-1.342c1.248-3.193,4.127-5.08,5.643-8.151c0.306-0.617,0.202-1.845,0.363-2.417
		c0.06-0.213,0.624-0.342,0.701-0.573c0.367-1.104,0.142-2.384,0.465-3.804c1.662-7.282,1.148-15.177,1.668-23.204
		c0.201-3.101,0.269-5.924,0.971-10.101c2.344-13.938,0.091-28.78,0.313-41.282"/>
	<path fill="none" stroke="#000000" stroke-width="1.6043" stroke-linecap="round" d="M420.356,149.831
		c-2.726-1.051-4.973-2.391-6.601-4.313c-4.555-5.384-3.354-12.988-0.822-19.136c0.056-0.137,0.468-0.134,0.499-0.287
		c0.161-2.257,0.266-4.536,0.506-6.792"/>
	<path fill="none" stroke="#000000" stroke-width="0.9678" stroke-linecap="round" d="M473.955,134.567
		c-2.632-2.684-6.603-5.087-10.649-4.402c-0.306,0.28-0.399,0.557-0.566,0.817"/>
	<path fill="none" stroke="#000000" stroke-width="1.1553" stroke-linecap="round" d="M455.221,58.939
		c-0.531,1.391-2.633,2.304-3.97,2.978c-2.704,1.363-4.989,3.238-9.375,5.879c-4.13,5.279-11.558,9.567-10.246,20.632"/>
	<path fill="none" stroke="#000000" stroke-width="1.8247" stroke-linecap="round" d="M431.632,88.427
		c0.146,1.558-0.096,3.075-0.693,4.51"/>
	<path fill="none" stroke="#000000" stroke-width="1.2859" stroke-linecap="round" d="M420.356,144.974
		c0.271-4.336-0.28-9.183,2.967-12.471c0.652-0.273,1.477-0.374,2.063-0.711"/>
	<path fill="none" stroke="#000000" stroke-width="0.9175" stroke-linecap="round" d="M425.386,131.792
		c1.742-2.153,4.758-3.241,6.117-5.568c0.221-0.378,0.329-0.946,1.168-1.023"/>
	<path fill="none" stroke="#000000" stroke-width="0.9039" stroke-linecap="round" d="M425.386,131.792
		c4.187,2.949,7.479-0.562,11.102-2.082"/>
	<path fill="none" stroke="#000000" stroke-width="1.298" stroke-linecap="round" d="M436.488,129.71
		c0.348-0.348,0.693-0.694,1.041-1.041"/>
	<path fill="none" stroke="#000000" stroke-width="1.3185" stroke-linecap="round" d="M437.529,128.669
		c-0.342-2.03-0.623-5.073,1.214-6.418"/>
	<path fill="none" stroke="#000000" stroke-width="2.1429" stroke-linecap="round" d="M438.743,122.251
		c0.389-1.648-0.025-3.373,0.289-5.03"/>
	<path fill="none" stroke="#000000" stroke-width="1.3022" stroke-linecap="round" d="M439.032,117.221
		c-0.116-2.818,0.526-5.313,0.854-8.287c0.536-4.854,0.336-9.746,2.499-14.956"/>
	<path fill="none" stroke="#000000" stroke-width="1.5707" stroke-linecap="round" d="M442.385,93.978
		c0.129-1.433,0.272-2.908,0.508-4.308c0.373-0.078,0.727-0.556,0.88-1.243"/>
	<path fill="none" stroke="#000000" stroke-width="1.1468" stroke-linecap="round" d="M443.773,88.427
		c0.45-2.795,1.295-5.326,2.586-7.791c0.283-0.542,1.854-3.081,3.146-4.501c0.979-1.075,2.182-1.977,3.287-2.972"/>
	<path fill="none" stroke="#000000" stroke-width="1.0384" stroke-linecap="round" d="M452.794,73.163
		c1.226-2.15,3.417-3.988,5.896-4.511"/>
	<path fill="none" stroke="#000000" stroke-width="1.1031" stroke-linecap="round" d="M458.69,68.653
		c0.08-0.151,0.16-0.303,0.239-0.455c4.263-3.102,8.467,2.503,7.74,6.699"/>
	<path fill="none" stroke="#000000" stroke-width="1.4718" stroke-linecap="round" d="M466.671,74.897
		c0.594,0.721,0.981,1.648,1.4,1.972c0.565-0.062,1.406-0.454,2.646-0.583"/>
	<path fill="none" stroke="#000000" stroke-width="1.6995" stroke-linecap="round" d="M470.718,76.285
		c0.069-1.164,1.171-1.185,1.851-1.734"/>
	<path fill="none" stroke="#000000" stroke-width="0.9455" stroke-linecap="round" d="M472.567,74.551
		c0.084-0.365,0.308-0.817,0.533-1.211c0.371-0.086,0.785-0.132,1.201-0.176"/>
	<path fill="none" stroke="#000000" stroke-width="1.4326" stroke-linecap="round" d="M479.044,77.673
		c-0.013,1.243,0.598,2.321,1.072,3.431c-0.131,3.56,2.006,7.658-0.264,10.793"/>
	<path fill="none" stroke="#000000" stroke-width="1.2825" stroke-linecap="round" d="M479.852,91.896
		c0.197,0.231,0.395,0.462,0.592,0.694c0.943,8.278,0.606,17.124-0.976,25.182c-1.412,2.181-2.858,4.979-3.085,7.775"/>
	<path fill="none" stroke="#000000" stroke-width="0.9455" stroke-linecap="round" d="M476.385,125.547
		c0.679-0.101,1.231-0.771,2.081-1.041"/>
	<path fill="none" stroke="#000000" stroke-width="0.8654" stroke-linecap="round" d="M460.427,123.119
		c-1.196,2.092-0.863,4.62-1.852,6.707"/>
	<path fill="none" stroke="#000000" stroke-width="1.1431" stroke-linecap="round" d="M459.038,130.751
		c1.189,0.049,1.757,0.339,2.775,0.347"/>
	<path fill="none" stroke="#000000" stroke-width="0.9072" stroke-linecap="round" d="M474.649,61.715
		c-1.81,2.563-4.579,4.196-6.938,6.245"/>
	<path fill="none" stroke="#000000" stroke-width="1.2412" stroke-linecap="round" d="M467.712,67.959
		c-0.104,0.517,0.38,0.866,1.04,1.041"/>
	<path fill="none" stroke="#000000" stroke-width="0.9004" stroke-linecap="round" d="M468.752,69
		c1.399-0.863,2.646-2.129,4.162-2.775"/>
	<path fill="none" stroke="#000000" stroke-width="0.8498" stroke-linecap="round" d="M468.752,69c0,0.23,0,0.462,0,0.693"/>
	<path fill="none" stroke="#000000" stroke-width="0.8012" stroke-linecap="round" d="M467.712,67.959
		c-0.313-0.151-0.59-0.336-0.865-0.523c-0.024-1.132-0.594-1.719-0.869-2.599"/>
	<path fill="none" stroke="#000000" stroke-width="0.9373" stroke-linecap="round" d="M465.976,64.837
		c-1.229,0.072-2.322,0.009-2.916-0.553c-0.803-0.12-1.739-0.135-2.633-0.137c-6.871,3.688-13.752,8.574-17.695,15.261"/>
	<path fill="none" stroke="#000000" stroke-width="1.3963" stroke-linecap="round" d="M414.632,96.059
		c2.841-3.655,1.839-9.522,4.163-13.183"/>
	<path fill="none" stroke="#000000" stroke-width="0.9455" stroke-linecap="round" d="M418.795,82.876
		c-0.055-0.98,0.06-1.791,0.348-2.429"/>
	<path fill="none" stroke="#000000" stroke-width="0.8498" stroke-linecap="round" d="M419.142,80.448
		c0.243-0.45,0.265-1.122,0.347-1.733"/>
	<path fill="none" stroke="#000000" stroke-width="0.8957" stroke-linecap="round" d="M419.142,80.448
		c0.464,0.217,1.017,0.477,1.503,0.811"/>
	<path fill="none" stroke="#000000" stroke-width="1.0004" stroke-linecap="round" d="M420.645,81.258
		c2.183-2.815,4.458-5.744,6.476-8.789"/>
	<path fill="none" stroke="#000000" stroke-width="1.2354" stroke-linecap="round" d="M413.938,119.302
		c3.175-1.179,3.881-6.493,4.438-9.675c1.157-6.609,0.08-15.98,4.655-23.211c1.361-0.062,2.458-3.854,4.29-6.116
		c0.397-0.492,1.257-0.619,1.7-1.074c0.572-0.587,0.652-1.658,1.568-1.9"/>
	<path fill="none" stroke="#000000" stroke-width="1.4781" stroke-linecap="round" d="M420.356,149.831
		c0.251-1.581,0.299-3.278,0-4.857"/>
	<path fill="none" stroke="#000000" stroke-width="1.0422" stroke-linecap="round" d="M420.356,144.974
		c-2.157-0.59-3.354-2.537-4.88-3.969c-0.014-2.896-0.146-5.495,0.761-7.961c0.077-0.208,0.597-0.37,0.702-0.577
		c0.2-0.396,0.005-0.999,0.23-1.338c0.702-1.054,2.462-2.825,3.795-3.704c0.336-0.222,0.808-0.143,1.101-0.34
		c0.549-0.369,0.824-1.04,1.241-1.539"/>
	<path fill="none" stroke="#000000" stroke-width="1.3783" stroke-linecap="round" d="M423.305,125.547
		c-0.578-0.78,0.141-2.002,0.573-3.123c0.63-3.375,0.648-7.107,2.201-10.061"/>
	<path fill="none" stroke="#000000" stroke-width="1.5771" stroke-linecap="round" d="M426.08,112.365
		c-0.653-0.809-0.668-2.049-0.52-2.774"/>
	<path fill="none" stroke="#000000" stroke-width="1.0273" stroke-linecap="round" d="M425.56,109.589
		c-0.152-0.415-0.393-1.007-0.602-1.666c-3.853-3.405-4.218-11.404,0.229-14.487c0.598-0.1,1.271-0.12,1.934-0.151"/>
	<path fill="none" stroke="#000000" stroke-width="0.9205" stroke-linecap="round" d="M427.121,93.284
		c0.254-2.078,2.193-4.916,4.511-4.857"/>
	<path fill="none" stroke="#000000" stroke-width="1.1679" stroke-linecap="round" d="M427.121,93.284
		c0.07,0.162,0.142,0.325,0.211,0.488c0.507,0.382,1.131,0.483,2.046,0.553"/>
	<path fill="none" stroke="#000000" stroke-width="1.6995" stroke-linecap="round" d="M429.378,94.324
		c0.513-0.551,1.101-0.961,1.561-1.389"/>
	<path fill="none" stroke="#000000" stroke-width="1.2018" stroke-linecap="round" d="M448.399,57.436
		c2.206,0.532,5.375-0.476,6.822,1.503"/>
	<path fill="none" stroke="#000000" stroke-width="1.2734" stroke-linecap="round" d="M455.221,58.939
		c2.104-0.032,4.113-0.821,6.244-0.693"/>
	<path fill="none" stroke="#000000" stroke-width="1.0229" stroke-linecap="round" d="M415.095,83.339
		c0.09-0.025,0.18-0.049,0.271-0.074c1.581-3.201,2.867-6.469,4.329-9.896c2.067-1.272,3.136-3.436,4.401-4.725
		c6.66-6.786,12.063-9.056,24.304-11.208"/>
	<path fill="none" stroke="#000000" stroke-width="1.161" stroke-linecap="round" d="M448.399,57.436
		c0.046-0.505-0.786-0.79-1.851-1.619"/>
	<path fill="none" stroke="#000000" stroke-width="1.0598" stroke-linecap="round" d="M465.976,63.102
		c0.326-0.124,0.852-0.271,1.387-0.347"/>
	<path fill="none" stroke="#000000" stroke-width="0.8498" stroke-linecap="round" d="M465.976,63.102c0,0.652,0,1.196,0,1.734"/>
	<path fill="none" stroke="#000000" stroke-width="0.8957" stroke-linecap="round" d="M462.16,56.858
		c-0.223,0.472-0.423,0.964-0.693,1.389"/>
	<path fill="none" stroke="#000000" stroke-width="1.0848" stroke-linecap="round" d="M461.467,58.245
		c1.99,1.28,2.634,3.488,4.511,4.856"/>
	<path fill="none" stroke="#000000" stroke-width="1.3683" stroke-linecap="round" d="M418.795,82.876
		c0.8,0.223,1.216,0.302,1.57,0.182c0.129-0.539,0.162-1.329,0.28-1.8"/>
	<path fill="none" stroke="#000000" stroke-width="1.3436" stroke-linecap="round" d="M425.56,109.589
		c0.691-0.041,1.249,0.315,1.908,0.694"/>
	<path fill="none" stroke="#000000" stroke-width="1.1241" stroke-linecap="round" d="M427.469,110.283
		c0.917,0.209,1.938,0.219,2.774,0.693"/>
	<path fill="none" stroke="#000000" stroke-width="1.4718" stroke-linecap="round" d="M431.459,110.977
		c0.32-1.239,0.105-2.549,0.173-3.815"/>
	<path fill="none" stroke="#000000" stroke-width="1.3921" stroke-linecap="round" d="M431.632,107.16
		c-0.311-0.002-0.62-0.005-0.931-0.007c-1.688-0.528-2.471-2.531-2.192-4.194c1.271-1.118,1.146-3.005,0.313-4.331
		c-0.848-0.546-2.219-2.905-3.086-1.183"/>
	<path fill="none" stroke="#000000" stroke-width="1.503" stroke-linecap="round" d="M431.632,107.16
		c-0.002-3.439,0.328-7.019-0.347-10.407"/>
	<path fill="none" stroke="#000000" stroke-width="1.6023" stroke-linecap="round" d="M431.285,96.753
		c0.482-1.208,0.569-2.779-0.348-3.816"/>
	<path fill="none" stroke="#000000" stroke-width="1.3877" stroke-linecap="round" d="M429.378,94.324
		c0.354,1.046,0.622,2.217,1.907,2.429"/>
	
		<line fill="none" stroke="#000000" stroke-width="2.7753" stroke-linecap="round" x1="426.08" y1="112.365" x2="426.08" y2="112.365"/>
	<path fill="none" stroke="#000000" stroke-width="1.3165" stroke-linecap="round" d="M426.08,112.365
		c0.658-0.667,0.97-1.491,1.39-2.081"/>
	<path fill="none" stroke="#000000" stroke-width="1.695" stroke-linecap="round" d="M426.196,123.35
		c0.087,0.026,0.175,0.052,0.261,0.078c3.337-1.112,4.354-4.997,4.48-8.289"/>
	<path fill="none" stroke="#000000" stroke-width="1.2018" stroke-linecap="round" d="M430.937,115.139
		c-0.712-0.612-0.908-1.551-1.041-2.428"/>
	<path fill="none" stroke="#000000" stroke-width="0.8498" stroke-linecap="round" d="M429.896,112.711
		c-0.02-0.714,0.158-1.229,0.348-1.734"/>
	<path fill="none" stroke="#000000" stroke-width="1.4881" stroke-linecap="round" d="M431.632,112.711
		c0.011-0.714-0.078-1.229-0.173-1.734"/>
	<path fill="none" stroke="#000000" stroke-width="1.4443" stroke-linecap="round" d="M431.459,110.977c-0.518,0-0.869,0-1.215,0"/>
	<path fill="none" stroke="#000000" stroke-width="1.5822" stroke-linecap="round" d="M430.937,115.139
		c0.512-0.612,0.604-1.551,0.693-2.428"/>
	<path fill="none" stroke="#000000" stroke-width="0.8012" stroke-linecap="round" d="M431.632,112.711c-0.652,0-1.195,0-1.734,0"/>
	<path fill="none" stroke="#000000" stroke-width="1.0407" stroke-linecap="round" d="M423.305,125.547
		c1.378,0.054,2.25-1.175,2.891-2.197"/>
	<path fill="none" stroke="#000000" stroke-width="1.3406" stroke-linecap="round" d="M426.196,123.35
		c-0.398-3.603,1.729-7.571-0.116-10.985"/>
	<path fill="none" stroke="#000000" stroke-width="1.161" stroke-linecap="round" d="M400.293,249.86
		c0,0.304,0.479,0.884,1.156,1.617"/>
	<path fill="none" stroke="#000000" stroke-width="0.9745" stroke-linecap="round" d="M400.293,249.86
		c-2.249-0.162-4.149-1.528-6.473-1.151c-1.097,0.58-2.149,1.08-3.274,1.58c-0.199,0.774-0.215,1.723,0.016,2.356
		c3.944,1.535,6.503,5.035,9.649,7.701c0.794,0.131,1.731,0.146,2.624,0.146c1.022-0.75,2.351-0.748,3.473-1.384"/>
	<path fill="none" stroke="#000000" stroke-width="0.8974" stroke-linecap="round" d="M406.306,259.11
		c1.05-1.053,1.782-2.639,3.469-2.774"/>
	<path fill="none" stroke="#000000" stroke-width="1.1697" stroke-linecap="round" d="M406.306,259.11
		c1.136,0.699,2.028,1.662,2.93,2.621c1.356,0.349,2.717-0.176,4.008-0.539"/>
	<path fill="none" stroke="#000000" stroke-width="1.0291" stroke-linecap="round" d="M413.245,261.192
		c1.126-2.035,3.085-3.41,4.856-4.856"/>
	<path fill="none" stroke="#000000" stroke-width="1.298" stroke-linecap="round" d="M413.245,261.192
		c1.459,0.951,3.362,1.244,5.088,0.925"/>
	<path fill="none" stroke="#000000" stroke-width="1.0388" stroke-linecap="round" d="M418.333,262.115
		c1.009-3.098,3.61-4.811,4.626-7.862"/>
	<path fill="none" stroke="#000000" stroke-width="1.104" stroke-linecap="round" d="M418.333,262.115
		c1.277,0.677,3.058,0.613,4.409,0.248c0.038-1.157,0.93-1.311,1.099-1.666c1.227-2.575,1.065-6.145,2.935-8.18"/>
	<path fill="none" stroke="#000000" stroke-width="1.2668" stroke-linecap="round" d="M426.774,252.518
		c0.089-1.541-0.013-3.25,1.041-4.51"/>
	<path fill="none" stroke="#000000" stroke-width="1.4293" stroke-linecap="round" d="M427.815,248.008
		c-0.231-0.16-0.466-0.32-0.698-0.482c-1.178-2.578-0.701-5.633-0.799-8.426c-0.035-1.029-0.188-4.496-0.168-6.663
		c0.051-5.192,0.364-11.409,0.975-17.731c0.047-0.478,0.48-0.9,0.551-1.389c1.128-7.932,0.592-16.099,1.637-24.173
		c0.79-6.1,0.968-17.375,2.667-25.782"/>
	<path fill="none" stroke="#000000" stroke-width="1.7553" stroke-linecap="round" d="M431.978,163.361
		c-0.194-2.516-0.864-5.21,0.23-7.632"/>
	<path fill="none" stroke="#000000" stroke-width="1.7644" stroke-linecap="round" d="M432.094,151.913
		c-0.585-1.829,0.483-3.438,0.578-5.204"/>
	<path fill="none" stroke="#000000" stroke-width="0.9272" stroke-linecap="round" d="M405.613,250.783
		c-0.544,1.309-2.325,1.872-2.082,3.469"/>
	<path fill="none" stroke="#000000" stroke-width="1.162" stroke-linecap="round" d="M486.097,248.701
		c-1.704,4.202-2.007,9.618-6.592,12.143"/>
	<path fill="none" stroke="#000000" stroke-width="1.293" stroke-linecap="round" d="M457.997,233.091
		c-0.497,0.218-0.935,0.427-1.256,0.717c-0.138,0.788-0.078,2.087-0.293,2.552c-1.152,0.229-1.478,5.377-2.482,7.97
		c-0.099,0.248-0.622,0.299-0.703,0.569c-0.227,0.767-0.05,2.063-0.233,2.722c-0.063,0.229-0.688,0.315-0.763,0.563
		c-0.759,2.492-1.114,5.689-1.911,8.107c-0.063,0.19-0.443,0.303-0.5,0.5c-0.782,2.737-1.136,5.614-2.026,8.457
		c-0.311,0.994-1.219,2.174-1.459,3.147c-0.499,2.021-0.493,4.799-0.86,6.5"/>
	<path fill="none" stroke="#000000" stroke-width="1.3702" stroke-linecap="round" d="M445.509,274.895
		c0.031,1.287-0.234,2.875-0.811,4.105"/>
	<path fill="none" stroke="#000000" stroke-width="1.3734" stroke-linecap="round" d="M444.698,279
		c-0.122,1.416-0.308,5.83-1.035,8.455c-0.104,0.381-0.658,0.659-0.764,1.059c-0.231,0.889-0.192,2.158-0.328,2.658
		c-0.033,0.123-0.501,0.133-0.552,0.285c-1.115,3.371-1.586,6.727-2.313,10.071c-0.974,4.479-1.99,9.096-2.454,13.396
		c-0.975,9.037-0.716,19.989-0.142,30.528c0.117,2.14-0.082,4.412,0.072,6.521c0.515,6.985,2.971,13.785,1.225,21.069
		c-1.575,0.873-1.403,3.146-2.612,4.365"/>
	<path fill="none" stroke="#000000" stroke-width="0.9635" stroke-linecap="round" d="M481.24,406.897
		c3.256,0.426,6.938,1.525,10.062-0.348"/>
	<path fill="none" stroke="#000000" stroke-width="0.9671" stroke-linecap="round" d="M491.302,406.549
		c-0.245-4.748-5.607-6.83-9.366-7.979"/>
	<path fill="none" stroke="#000000" stroke-width="1.0363" stroke-linecap="round" d="M491.302,406.549
		c1.336,0.614,3.604,0.686,4.163-1.041"/>
	<path fill="none" stroke="#000000" stroke-width="1.0693" stroke-linecap="round" d="M495.465,405.508
		c-0.337-3.267-3.236-5.593-5.897-6.938"/>
	<path fill="none" stroke="#000000" stroke-width="1.7979" stroke-linecap="round" d="M495.465,405.508
		c0.98,0.043,1.604-0.049,2.209-0.215c1.022-1.656,0.625-3.888,0.133-5.683"/>
	<path fill="none" stroke="#000000" stroke-width="0.8845" stroke-linecap="round" d="M497.805,399.612
		c-1.96,0.312-3.112-1.27-4.539-2.197"/>
	<path fill="none" stroke="#000000" stroke-width="1.0407" stroke-linecap="round" d="M493.266,397.413
		c-0.323,0.121-0.922-0.12-1.448-0.424c-0.105-0.385-0.081-0.746-0.05-1.108c0.075-0.146,0.15-0.289,0.227-0.435"/>
	<path fill="none" stroke="#000000" stroke-width="1.3877" stroke-linecap="round" d="M476.73,219.215
		c0.171-0.823,0.676-2.072,1.563-2.603"/>
	<path fill="none" stroke="#000000" stroke-width="1.0262" stroke-linecap="round" d="M431.804,218.521
		c10.395-0.055,21.562,5.386,26.191,14.57"/>
	<path fill="none" stroke="#000000" stroke-width="0.9943" stroke-linecap="round" d="M457.997,233.091
		c1.551-0.647,3.022-0.525,4.562-1.685c2.239-1.687,4.547-3.796,6.686-5.776c3.81-0.577,4.244-5.116,7.487-6.415"/>
	<path fill="none" stroke="#000000" stroke-width="1.3222" stroke-linecap="round" d="M426.774,252.518
		c0.081,0.15,0.162,0.301,0.243,0.451c-0.37,9.986,0.418,21.279-0.867,32.125c-0.199,1.691-0.502,3.543-0.739,5.225
		c-0.158,1.129-0.128,2.365-0.368,3.484c-0.554,2.561-1.768,5.17-2.359,7.942c-2.125,9.949-3.28,19.886-4.236,30.105
		c-0.185,1.979-0.563,3.205-0.898,5.66c-1.399,10.266-0.183,19.729-0.838,28.446c-0.078,1.035-0.723,1.771-0.568,2.673
		c0.245,1.434-0.748,5.801-1.892,7.94c-0.079,0.148-0.438,0.133-0.499,0.287c-1.013,2.57-1.519,5.314-3.469,7.633
		c-0.167,0.656-0.102,1.978-0.32,2.429c-0.048,0.133-0.478,0.125-0.552,0.284c-2.143,4.632-2.43,8.699-0.167,11.205
		c2.148,2.379,10.071,4.982,13.859,6.263c6.316,2.133,16.521,4.356,21.158,5.207c2.776,2.061,6.836,3.063,10.4,2.354
		c0.151-0.311,0.354-0.57,0.562-0.826"/>
	<path fill="none" stroke="#000000" stroke-width="1.0213" stroke-linecap="round" d="M455.221,411.406
		c-0.082-2.66-2.696-3.896-4.51-5.205"/>
	<path fill="none" stroke="#000000" stroke-width="0.843" stroke-linecap="round" d="M455.221,411.406
		c2.275-0.233,5.334,2.359,6.938,0"/>
	<path fill="none" stroke="#000000" stroke-width="1.1574" stroke-linecap="round" d="M462.16,411.406
		c0.812-3.578-3.2-4.684-4.51-7.285"/>
	<path fill="none" stroke="#000000" stroke-width="1.0192" stroke-linecap="round" d="M462.16,411.406
		c2.288,0.097,4.937,1.988,6.938,0"/>
	<path fill="none" stroke="#000000" stroke-width="1.0598" stroke-linecap="round" d="M469.098,411.406
		c0.19-3.815-3.505-5.842-5.897-7.979"/>
	<path fill="none" stroke="#000000" stroke-width="1.0652" stroke-linecap="round" d="M469.098,411.406
		c1.452,0.679,3.587-0.02,4.278-1.504"/>
	<path fill="none" stroke="#000000" stroke-width="1.0838" stroke-linecap="round" d="M473.378,409.903
		c-0.095-3.551-3.224-5.473-5.666-7.516"/>
	<path fill="none" stroke="#000000" stroke-width="1.2216" stroke-linecap="round" d="M473.378,409.903
		c2.534,0.015,5.669,0.785,7.703-1.084c0.079-0.385,0.112-0.813,0.146-1.244c0.005-0.227,0.01-0.453,0.015-0.678"/>
	<path fill="none" stroke="#000000" stroke-width="0.9902" stroke-linecap="round" d="M481.24,406.897
		c-0.941-2.336-4.99-3.684-8.133-5.744c-3.971-2.604-7.197-5.045-11.447-7.291c-1.96-1.037-3.688-1.444-6.239-2.768
		c-2.01-1.043-4.822-2.447-7.285-3.824c-0.414-0.23-0.644-0.805-1.046-1.035c-0.494-0.279-1.265-0.117-1.726-0.356
		c-1.19-0.619-2.037-2.365-4.165-2.771c-1.247-2.438-4.272-3.063-5.403-5.697"/>
	<path fill="none" stroke="#000000" stroke-width="1.0726" stroke-linecap="round" d="M436.488,129.71
		c0.379,1.106,0.759,2.406,1.922,2.922c0.715,2.24,3.654,7.864,0.994,11.794c-0.184,0.271-0.567,0.293-0.707,0.563
		c-1.202,2.365-3.291,5.796-6.604,6.922"/>
	<path fill="none" stroke="#000000" stroke-width="2.1448" stroke-linecap="round" d="M432.094,151.913
		c-0.166,1.257-0.227,2.58,0.114,3.815"/>
	<path fill="none" stroke="#000000" stroke-width="0.903" stroke-linecap="round" d="M432.21,155.729
		c4.536-2.852,7.495-7.546,9.684-12.289c1.019-0.415,1.765-2.068,3.054-1.354c0.786,0.955,2.408-0.129,3.131,1.013
		c5.236,0.308,10.775,4.654,15.266-0.397c1.335-0.286,2.72-0.165,4.013,0.113c0.118-0.031,0.237-0.063,0.356-0.095"/>
	<path fill="none" stroke="#000000" stroke-width="1.0749" stroke-linecap="round" d="M467.712,142.719
		c0.024-0.527-0.036-0.85-0.104-1.164c-2.005-0.072-1.907-2.191-3.25-2.941"/>
	<path fill="none" stroke="#000000" stroke-width="1.2322" stroke-linecap="round" d="M431.978,163.361
		c0.43,0.168,0.723,0.292,1.008,0.414c0.629,1.251,0.936,2.58,1.769,3.749"/>
	<path fill="none" stroke="#000000" stroke-width="1.0184" stroke-linecap="round" d="M434.755,167.524
		c11.829-5.25,24.821-7.107,37.831-6.523c0.166,0.007,0.336-0.069,0.503-0.068"/>
	<path fill="none" stroke="#000000" stroke-width="1.845" stroke-linecap="round" d="M473.089,160.932
		c0.429-1.894-0.251-3.821-0.348-5.724"/>
	<path fill="none" stroke="#000000" stroke-width="1.3346" stroke-linecap="round" d="M434.755,167.524
		c0.022,1.688,0.967,2.495,1.733,3.816"/>
	<path fill="none" stroke="#000000" stroke-width="0.9285" stroke-linecap="round" d="M436.488,171.34
		c11.52-4.282,24.293-5.291,36.773-5.551"/>
	<path fill="none" stroke="#000000" stroke-width="1.1962" stroke-linecap="round" d="M439.957,201.175
		c12.356,2.345,25.22,3.57,37.814,2.429"/>
	<path fill="none" stroke="#000000" stroke-width="1.2268" stroke-linecap="round" d="M477.771,203.603
		c0.808-2.751-0.189-6.819-0.109-10.297c0.058-2.423-0.708-8.238-1.382-11.796c-0.1-0.527-0.652-1.319-0.839-2.2
		c-0.31-1.461,0.053-3.09-0.211-4.848c-0.072-0.486-0.631-0.912-0.763-1.389c-0.276-0.998-0.222-3.845-0.438-5.168
		c-0.088-0.538-0.37-1.403-0.769-2.116"/>
	<path fill="none" stroke="#000000" stroke-width="1.3588" stroke-linecap="round" d="M427.815,248.008
		c1.452-9.828,2.03-19.765,3.989-29.487"/>
	<path fill="none" stroke="#000000" stroke-width="1.1539" stroke-linecap="round" d="M431.804,218.521
		c0.631-5.02,1.717-10.268,5.377-13.877"/>
	<path fill="none" stroke="#000000" stroke-width="0.9647" stroke-linecap="round" d="M437.181,204.644
		c0.377-1.628,2.07-2.127,2.774-3.469"/>
	<path fill="none" stroke="#000000" stroke-width="1.0926" stroke-linecap="round" d="M439.957,201.175
		c0.675-1.502,2.44-4.381,1.627-7.868c-0.03-0.132-0.163-0.285-0.169-0.419c-0.146-4.271-1.107-9.819-2.188-13.079
		c-0.045-0.132-0.457-0.146-0.498-0.289c-0.187-0.646-0.067-1.944-0.271-2.588c-0.071-0.228-0.642-0.329-0.763-0.561
		c-0.769-1.479-0.807-3.64-1.207-5.031"/>
	<path fill="none" stroke="#000000" stroke-width="1.147" stroke-linecap="round" d="M437.181,204.644
		c11.423,2.353,27.554,3.395,40.59,3.123"/>
	<path fill="none" stroke="#000000" stroke-width="0.8498" stroke-linecap="round" d="M477.771,207.766c0-1.388,0-2.774,0-4.163"/>
	<path fill="none" stroke="#000000" stroke-width="1.0897" stroke-linecap="round" d="M462.853,139.424
		c-0.504-1.928-1.811-3.45-2.197-5.436"/>
	<path fill="none" stroke="#000000" stroke-width="0.9812" stroke-linecap="round" d="M460.656,133.989
		c-1.139-0.446-1.394-2.119-1.618-3.237"/>
	<path fill="none" stroke="#000000" stroke-width="1.3286" stroke-linecap="round" d="M459.038,130.751
		c-0.235-0.354-0.316-0.642-0.463-0.925"/>
	<path fill="none" stroke="#000000" stroke-width="0.9812" stroke-linecap="round" d="M438.222,128.669
		c0.935,0.812,1.394,1.997,2.545,2.544"/>
	<path fill="none" stroke="#000000" stroke-width="0.9679" stroke-linecap="round" d="M440.767,131.214
		c4.414-0.195,8.53,0.929,12.72,1.619"/>
	<path fill="none" stroke="#000000" stroke-width="0.9955" stroke-linecap="round" d="M440.767,131.214
		c-0.271,3.336,2.347,5.391,3.38,8.183c6.032,1.472,13.054,6.606,18.579,1.393c0.088-0.455,0.1-0.946,0.127-1.364"/>
	<path fill="none" stroke="#000000" stroke-width="1.0325" stroke-linecap="round" d="M438.743,122.251
		c1.426,1.255,0.662,3.375,0.867,5.029"/>
	<path fill="none" stroke="#000000" stroke-width="0.9733" stroke-linecap="round" d="M439.61,127.281
		c0.231-0.07,0.462-0.142,0.692-0.213c2.356-2.169,0.471-5.729,2.083-8.112"/>
	<path fill="none" stroke="#000000" stroke-width="1.1199" stroke-linecap="round" d="M452.794,73.163
		c4.328,1.6,9.464,0.063,13.877,1.733"/>
	<path fill="none" stroke="#000000" stroke-width="0.7867" stroke-linecap="round" d="M458.69,68.653
		c1.414,1.243,3.888,0.973,4.511,3.122"/>
	<path fill="none" stroke="#000000" stroke-width="0.8776" stroke-linecap="round" d="M477.771,73.857
		c0.008-0.933-0.485-1.362-0.858-1.927c-0.94-0.278-2.343,0.259-2.61,1.233"/>
	<path fill="none" stroke="#000000" stroke-width="0.8498" stroke-linecap="round" d="M472.567,74.551
		c0.979,0.041,1.336-0.317,1.734-0.694"/>
	<path fill="none" stroke="#000000" stroke-width="0.6938" stroke-linecap="round" d="M474.302,73.857c0-0.23,0-0.462,0-0.693"/>
	<path fill="none" stroke="#000000" stroke-width="0.8718" stroke-linecap="round" d="M443.773,88.427
		c3.688-0.875,7.042-2.98,11.102-2.775"/>
	<path fill="none" stroke="#000000" stroke-width="0.9812" stroke-linecap="round" d="M442.385,93.978
		c1.088,0.822,1.68,1.253,2.429,1.734"/>
	<path fill="none" stroke="#000000" stroke-width="1.0678" stroke-linecap="round" d="M444.814,95.712
		c2.444-0.906,3.651-3.357,6.047-4.362c0.867-0.186,1.688-0.08,2.139,0.238c-0.28,1.21,0.994,1.474,1.122,2.451
		c0.021,0.211,0.039,0.422,0.06,0.633"/>
	<path fill="none" stroke="#000000" stroke-width="1.2765" stroke-linecap="round" d="M444.814,95.712
		c-0.075,1.644,0.06,3.35-0.694,4.856"/>
	<path fill="none" stroke="#000000" stroke-width="1.1431" stroke-linecap="round" d="M439.032,117.221
		c1.47-0.298,2.694,0.491,3.354,1.735"/>
	<path fill="none" stroke="#000000" stroke-width="1.0678" stroke-linecap="round" d="M442.385,118.956
		c4.291,0.897,8.369,2.863,12.489,4.163"/>
	<path fill="none" stroke="#000000" stroke-width="0.8293" stroke-linecap="round" d="M454.875,123.119c0.926,0,1.851,0,2.775,0"/>
	<path fill="none" stroke="#000000" stroke-width="0.8498" stroke-linecap="round" d="M457.65,123.119c1.072,0,1.986,0,2.775,0"/>
	<path fill="none" stroke="#000000" stroke-width="1.5856" stroke-linecap="round" d="M460.427,123.119
		c0.975-0.631,1.528-0.861,2.081-1.041"/>
	<path fill="none" stroke="#000000" stroke-width="0.9217" stroke-linecap="round" d="M462.508,122.078
		c2.708-1.452,5.146-3.668,8.5-4.163"/>
	<path fill="none" stroke="#000000" stroke-width="1.1793" stroke-linecap="round" d="M471.008,117.915
		c0.833-0.783,1.462-1.992,2.773-2.082"/>
	<path fill="none" stroke="#000000" stroke-width="1.8491" stroke-linecap="round" d="M473.781,115.833
		c1.057-4.851,1.63-9.746,1.563-14.744"/>
	<path fill="none" stroke="#000000" stroke-width="1.161" stroke-linecap="round" d="M475.344,101.09
		c-0.875-0.633-1.81-1.043-2.603-1.214"/>
	<path fill="none" stroke="#000000" stroke-width="2.556" stroke-linecap="round" d="M472.741,99.875
		c-0.829,1.25-0.801,1.994-0.867,2.774"/>
	<path fill="none" stroke="#000000" stroke-width="1.482" stroke-linecap="round" d="M471.874,102.651
		c1.167,0.672,1.388,2.668,0.011,3.227C470.835,105.156,471.113,103.491,471.874,102.651"/>
	<path fill="none" stroke="#000000" stroke-width="1.4683" stroke-linecap="round" d="M472.741,99.875
		c-0.374-1.429-0.148-2.98,0.38-4.313c0.371-0.237,0.76-0.461,1.147-0.684c0.765,0.271,0.979,1.538,1.248,2.222"/>
	<path fill="none" stroke="#000000" stroke-width="1.1506" stroke-linecap="round" d="M479.852,91.896
		c-2.016-0.79-2.499-3.121-4.51-3.815"/>
	<path fill="none" stroke="#000000" stroke-width="1.0693" stroke-linecap="round" d="M470.718,76.285
		c0.027,0.151,0.056,0.303,0.083,0.454c1.734,1.202,4.018-1.044,6.064,0.104c0.449,0.439,1.213,0.676,2.179,0.828"/>
	<path fill="none" stroke="#000000" stroke-width="1.6995" stroke-linecap="round" d="M479.044,77.673
		c-0.189-1.336-0.108-2.858-1.271-3.816"/>
	<path fill="none" stroke="#000000" stroke-width="0.8339" stroke-linecap="round" d="M477.771,73.857c-1.156,0-2.313,0-3.47,0"/>
	<path fill="none" stroke="#000000" stroke-width="1.1004" stroke-linecap="round" d="M473.781,115.833
		c-0.359,3.763,0.209,8.31-2.255,11.447"/>
	<path fill="none" stroke="#000000" stroke-width="1.2508" stroke-linecap="round" d="M471.526,127.281
		c2.134,1.337,3.191-1.493,4.857-1.733"/>
	
		<line fill="none" stroke="#000000" stroke-width="3.4922" stroke-linecap="round" x1="479.852" y1="91.896" x2="479.852" y2="91.896"/>
	<path fill="none" stroke="#000000" stroke-width="1.4443" stroke-linecap="round" d="M479.852,91.896
		c-1.534,1.602-0.528,4.024-2.544,5.319"/>
	<path fill="none" stroke="#000000" stroke-width="2.642" stroke-linecap="round" d="M475.344,101.09
		c0.38-0.59,0.542-0.909,0.693-1.214"/>
	<path fill="none" stroke="#000000" stroke-width="1.5771" stroke-linecap="round" d="M476.037,99.875
		c-0.654-0.809-0.669-2.048-0.521-2.775"/>
	<path fill="none" stroke="#000000" stroke-width="1.3627" stroke-linecap="round" d="M476.037,99.875
		c0.678-0.675,1.421-1.659,1.271-2.66"/>
	<path fill="none" stroke="#000000" stroke-width="1.4718" stroke-linecap="round" d="M477.308,97.216
		c-0.359-0.081-1.113-0.088-1.792-0.116"/>
	<path fill="none" stroke="#000000" stroke-width="1.1874" stroke-linecap="round" d="M471.008,117.915
		c0.997,3.483-1.493,5.738-1.908,9.02"/>
	<path fill="none" stroke="#000000" stroke-width="1.6995" stroke-linecap="round" d="M469.098,126.935
		c0.726,0.68,1.545,0.54,2.428,0.347"/>
	<path fill="none" stroke="#000000" stroke-width="1.0937" stroke-linecap="round" d="M462.508,122.078
		c0.325,1.654-0.478,3.233-0.242,4.833c2.122,0.066,4.649,0.642,6.834,0.022"/>
	<path fill="none" stroke="#000000" stroke-width="2.1385" stroke-linecap="round" d="M437.529,128.669c0.23,0,0.463,0,0.693,0"/>
	<path fill="none" stroke="#000000" stroke-width="1.0213" stroke-linecap="round" d="M438.222,128.669
		c0.733-0.445,1.07-0.847,1.388-1.389"/>
	<path fill="none" stroke="#000000" stroke-width="1.298" stroke-linecap="round" d="M454.875,123.119
		c-0.206,1.198,0.365,2.381,1.215,2.948"/>
	<path fill="none" stroke="#000000" stroke-width="1.6877" stroke-linecap="round" d="M456.09,126.068
		c0.116,0.992,0.318,2.227,0.602,2.912c0.767,0.456,1.434,0.667,1.885,0.848"/>
	<path fill="none" stroke="#000000" stroke-width="1.1793" stroke-linecap="round" d="M457.65,123.119
		c0.021,0.718-0.021,1.368-0.102,1.974c-0.406,0.384-1.069,0.685-1.46,0.975"/>
	<path fill="none" stroke="#000000" stroke-width="0.8957" stroke-linecap="round" d="M460.656,133.989
		c0.554-0.304,1.054-0.511,1.504-0.809"/>
	<path fill="none" stroke="#000000" stroke-width="0.8498" stroke-linecap="round" d="M462.16,133.179
		c-0.242-0.431-0.265-1.281-0.347-2.082"/>
	<path fill="none" stroke="#000000" stroke-width="1.2882" stroke-linecap="round" d="M467.712,142.719
		c2.532,2.409,1.276,6.943,3.311,9.339c0.202,1.25-0.084,3.074,1.72,3.149"/>
	<path fill="none" stroke="#000000" stroke-width="1.2816" stroke-linecap="round" d="M472.741,155.208
		c0.58-6.646-0.56-13.167-1.907-19.602"/>
	<path fill="none" stroke="#000000" stroke-width="0.9812" stroke-linecap="round" d="M470.834,135.608
		c-2.303-2.208-5.14-3.783-8.096-4.625"/>
	<path fill="none" stroke="#000000" stroke-width="1.4988" stroke-linecap="round" d="M462.738,130.982
		c-0.21,0.063-0.563,0.09-0.925,0.116"/>
	<path fill="none" stroke="#000000" stroke-width="0.8957" stroke-linecap="round" d="M462.853,139.424
		c0.465-0.216,1.018-0.477,1.504-0.811"/>
	<path fill="none" stroke="#000000" stroke-width="1.178" stroke-linecap="round" d="M464.357,138.614
		c-0.043-2.109-1.804-3.315-2.197-5.435"/>
	<path fill="none" stroke="#000000" stroke-width="1.2018" stroke-linecap="round" d="M472.567,256.682
		c-0.213,0.603-0.94,1.025-1.734,1.734"/>
	<path fill="none" stroke="#000000" stroke-width="1.4686" stroke-linecap="round" d="M470.834,258.416
		c-0.004,0.981,0.237,1.801,0.424,2.396c2.235,1.021,4.876,0.361,7.208,1.072"/>
	<path fill="none" stroke="#000000" stroke-width="2.0815" stroke-linecap="round" d="M478.466,261.885
		c0.347-0.348,0.693-0.693,1.041-1.041"/>
	<path fill="none" stroke="#000000" stroke-width="1.1955" stroke-linecap="round" d="M476.73,219.215
		c0.083,0.152,0.165,0.304,0.248,0.456c-0.09,2.041-0.376,5.192-1.514,8.911c-0.72,2.345-0.746,5.08-1.273,7.521
		c-0.738,3.426-1.406,6.75-2.354,10.029c0.114-0.398-1.159,1.635-0.817,2.717c-1.596,0.533-0.322,2.619-1.227,3.67"/>
	<path fill="none" stroke="#000000" stroke-width="0.8498" stroke-linecap="round" d="M469.793,252.518
		c0.637,0.289,1.594,0.258,2.22,0.558c0.472,1.155-0.168,2.532,0.556,3.606"/>
	<path fill="none" stroke="#000000" stroke-width="1.2877" stroke-linecap="round" d="M472.567,256.682
		c1.004-0.359,2.245-0.361,2.429-1.734"/>
	<path fill="none" stroke="#000000" stroke-width="1.4988" stroke-linecap="round" d="M474.996,254.948
		c0.189-0.463,0.271-0.926,0.348-1.389"/>
	<path fill="none" stroke="#000000" stroke-width="1.161" stroke-linecap="round" d="M474.996,254.948
		c0.715,0.466,1.229,0.688,1.734,1.039"/>
	<path fill="none" stroke="#000000" stroke-width="0.9424" stroke-linecap="round" d="M476.73,255.987
		c1.229-1.625,1.308-5.391,0.487-8.118c-1.133-3.767-1.075-8.153-0.487-12.001"/>
	<path fill="none" stroke="#000000" stroke-width="1.0166" stroke-linecap="round" d="M476.73,255.987
		c0.395,0.775,0.196,2.017,0.558,3.121c0.793,0.58,1.607,1.185,2.219,1.736"/>
	<path fill="none" stroke="#000000" stroke-width="2.1385" stroke-linecap="round" d="M486.097,248.701c0.462,0,0.925,0,1.388,0"/>
	<path fill="none" stroke="#000000" stroke-width="1.5178" stroke-linecap="round" d="M486.27,242.979
		c-0.839,1.699-0.664,3.928-0.173,5.724"/>
	<path fill="none" stroke="#000000" stroke-width="1.097" stroke-linecap="round" d="M467.885,258.762
		c0.701-0.266,2.066-0.326,2.949-0.346"/>
	<path fill="none" stroke="#000000" stroke-width="1.133" stroke-linecap="round" d="M469.793,252.518
		c-0.314,2.199-2.07,4.062-1.908,6.244"/>
	<path fill="none" stroke="#000000" stroke-width="1.2508" stroke-linecap="round" d="M467.885,258.762
		c-0.732,1.795-2.098,3.701-1.214,5.898"/>
	<path fill="none" stroke="#000000" stroke-width="1.1176" stroke-linecap="round" d="M466.671,264.66
		c3.306-0.923,6.852-0.453,10.198-0.902c0.478-0.338,0.908-1.062,1.597-1.873"/>
	<path fill="none" stroke="#000000" stroke-width="0.9356" stroke-linecap="round" d="M445.509,274.895
		c-0.492,0.334-1.081,0.701-1.532,1.021c-0.179,0.735-0.176,1.772-0.202,2.967"/>
	<path fill="none" stroke="#000000" stroke-width="1.4718" stroke-linecap="round" d="M444.698,279
		c-0.209-0.064-0.563-0.092-0.925-0.117"/>
	<path fill="none" stroke="#000000" stroke-width="1.243" stroke-linecap="round" d="M443.773,278.883
		c-0.186,0.01-0.371,0.02-0.558,0.029c-2.477,5.563-3.438,11.834-4.809,17.809c-0.025,0.119-0.514,0.143-0.551,0.287
		c-0.313,1.2-0.434,2.121-0.604,3.352c-1.033,7.438-2.775,15.521-4.162,23.59c-1.027,5.972-2.224,11.719-2.775,17.34
		c-1.076,10.931-0.973,21.656,0.493,32.093c1.711,1.186,2.8,3.645,4.987,4.026"/>
	
		<line fill="none" stroke="#000000" stroke-width="1.3877" stroke-linecap="round" x1="491.995" y1="395.448" x2="491.995" y2="395.448"/>
	<path fill="none" stroke="#000000" stroke-width="0.8498" stroke-linecap="round" d="M490.954,393.713
		c-0.038,0.5,0.084,0.842,0.215,1.174c0.311,0.151,0.569,0.354,0.826,0.561"/>
	<path fill="none" stroke="#000000" stroke-width="1.1266" stroke-linecap="round" d="M495.81,396.489
		c-0.388-1.516-1.967-2.328-3.469-2.082"/>
	<path fill="none" stroke="#000000" stroke-width="0.8957" stroke-linecap="round" d="M492.343,394.406
		c-0.042,0.422-0.191,0.734-0.348,1.041"/>
	<path fill="none" stroke="#000000" stroke-width="1.4988" stroke-linecap="round" d="M493.266,397.413
		c0.063-0.211,0.091-0.563,0.116-0.926"/>
	<path fill="none" stroke="#000000" stroke-width="1.0407" stroke-linecap="round" d="M493.384,396.489
		c-0.155-0.457-0.89-0.662-1.389-1.041"/>
	<path fill="none" stroke="#000000" stroke-width="2.3631" stroke-linecap="round" d="M497.805,399.612
		c-0.226-1.11-0.979-2.156-1.995-3.123"/>
	<path fill="none" stroke="#000000" stroke-width="1.0407" stroke-linecap="round" d="M495.81,396.489c-0.883,0-1.658,0-2.428,0"/>
	<path fill="none" stroke="#000000" stroke-width="0.8897" stroke-linecap="round" d="M469.445,71.775
		c3.229-1.629,5.271-4.889,9.021-5.551"/>
</g>
</svg>
