<?xml version="1.0" encoding="utf-8"?>
<!-- Generator: Adobe Illustrator 14.0.0, SVG Export Plug-In . SVG Version: 6.00 Build 43363)  -->
<!DOCTYPE svg PUBLIC "-//W3C//DTD SVG 1.1//EN" "http://www.w3.org/Graphics/SVG/1.1/DTD/svg11.dtd">
<svg version="1.1" id="图层_1" xmlns="http://www.w3.org/2000/svg" xmlns:xlink="http://www.w3.org/1999/xlink" x="0px" y="0px"
	 width="848px" height="480px" viewBox="0 0 848 480" enable-background="new 0 0 848 480" xml:space="preserve">
<g>
	<path fill="none" stroke="#000000" stroke-width="0.8863" stroke-linecap="round" d="M202.32,102.998
		c2.005,0.427,4.747,0.253,6.245,1.387"/>
	<path fill="none" stroke="#000000" stroke-width="0.6938" stroke-linecap="round" d="M197.81,162.32
		c-0.127-0.59,0.271-0.653,0.693-0.693c1.389,0,2.775,0,4.163,0c0.127,0.59-0.271,0.654-0.693,0.693
		C200.585,162.32,199.198,162.32,197.81,162.32z"/>
	<path fill="none" stroke="#000000" stroke-width="0.8498" stroke-linecap="round" d="M182.892,240.377
		c-0.399,0.525-0.609,1.241-0.694,2.081"/>
	<path fill="none" stroke="#000000" stroke-width="0.9812" stroke-linecap="round" d="M172.832,168.565
		c0.218-1.391,0.809-2.54,1.389-3.815"/>
	<path fill="none" stroke="#000000" stroke-width="1.4744" stroke-linecap="round" d="M174.219,164.749
		c-0.146-6.012,0.342-12.075-0.345-18.04c-0.688-1.687-1.282-3.986-0.003-5.55"/>
	<path fill="none" stroke="#000000" stroke-width="1.2879" stroke-linecap="round" d="M173.873,141.158
		c-0.813-2.821-1.383-6.427-2.465-9.92c-0.039-0.127-0.455-0.149-0.499-0.287c-0.204-0.644-0.173-1.954-0.32-2.429
		c-0.039-0.126-0.493-0.13-0.552-0.285c-2.367-6.364-2.466-12.204,0.053-17.123c0.341-0.664,1.987-3.613,4.823-3.607"/>
	<path fill="none" stroke="#000000" stroke-width="1.0598" stroke-linecap="round" d="M174.913,107.508
		c0.202-0.49,0.313-1.079,0.552-1.54c0.312-0.178,0.567-0.266,0.821-0.349c1.173,0.355,2.42,0.568,3.484,1.194"/>
	<path fill="none" stroke="#000000" stroke-width="0.854" stroke-linecap="round" d="M179.77,106.814
		c0.15-0.312,0.336-0.589,0.522-0.864c2.035,0.277,2.423-1.617,3.452-2.794c1.375,0.268,2.354-1.482,3.657-0.505"/>
	<path fill="none" stroke="#000000" stroke-width="0.9812" stroke-linecap="round" d="M187.402,102.651
		c0.151-0.312,0.336-0.589,0.522-0.864c0.825-0.101,1.639-0.212,2.252-0.523"/>
	<path fill="none" stroke="#000000" stroke-width="0.9303" stroke-linecap="round" d="M190.177,101.263
		c2.891-3.077,7-5.281,11.243-6.103c3.015-1.98,7.106-3.632,10.829-3.372c0.089,0.006,0.158,0.312,0.246,0.34"/>
	<path fill="none" stroke="#000000" stroke-width="0.9816" stroke-linecap="round" d="M212.496,92.128
		c0.125,0.026,0.25,0.054,0.375,0.081c6.407-1.13,13.767-1.884,20.009,0.357c0.759,0.272,1.502,0.945,2.194,1.267
		c1.297,0.602,2.964,0.34,3.499,2.052c1.492,0.081,2.758,1.169,3.949,1.916c2.73,1.713,5.751,3.638,7.033,6.533
		c1.654,1.177,3.052,3.106,2.894,5.255"/>
	<path fill="none" stroke="#000000" stroke-width="1.2802" stroke-linecap="round" d="M252.449,109.589
		c0.06,1.767,1.292,2.905,2.425,4.001c0.111,0.577,0.43,0.952,0.726,1.348c-0.089,3.878,0.721,6.979,1.393,11.649
		c0.247,1.715,0.133,3.876,0.489,6.245c0.139,0.923,0.741,1.804,0.892,2.774c0.556,3.569,0.995,8.19,1.184,11.717
		c0.439,8.263,2.216,17.15,3.396,23.99c0.288,1.668,0.386,3.182,0.81,4.738c-0.063-0.23,1.215,2.346,0.816,4.104
		c1.737,2.504,1.546,7.659,0.496,10.469c-0.05,0.134-0.473,0.136-0.499,0.287c-0.279,4.284-5.081,6.271-7.271,9.567"/>
	<path fill="none" stroke="#000000" stroke-width="1.0706" stroke-linecap="round" d="M257.306,200.481
		c1.063,1.876,3.831,3.12,3.531,5.523c-0.396,0.241-0.877,0.443-1.276,0.721"/>
	<path fill="none" stroke="#000000" stroke-width="1.097" stroke-linecap="round" d="M259.561,206.725
		c0.027,1.395-1.31,2.372-1.041,3.816"/>
	<path fill="none" stroke="#000000" stroke-width="1.6995" stroke-linecap="round" d="M246.031,214.704
		c-0.083,0.463-0.383,0.925-0.694,1.388"/>
	<path fill="none" stroke="#000000" stroke-width="1.3395" stroke-linecap="round" d="M212.38,248.356
		c0.32,0.947,0.861,1.281,1.229,1.533c0.143,0.539,0.138,1.365,0.159,1.937"/>
	<path fill="none" stroke="#000000" stroke-width="0.9735" stroke-linecap="round" d="M213.768,251.824
		c2.562,2.221,2.135,6.521,4.042,9.03c0.083,0.435,0.095,1.193,0.122,1.896"/>
	<path fill="none" stroke="#000000" stroke-width="1.4409" stroke-linecap="round" d="M217.931,262.752
		c0.116,0.039,0.233,0.076,0.352,0.115c1.583,3.114,1.742,6.979,2.461,10.321c0.025,0.117,0.471,0.156,0.497,0.289
		c0.306,1.545,0.017,2.738,0.271,4.365c0.074,0.479,0.615,0.92,0.762,1.387c0.351,1.123,0.348,2.969,0.442,3.777
		c0.649,5.512,0.416,11.916,1.114,18.426c0.051,0.477,0.481,0.899,0.55,1.387c1.355,9.533,0.075,18.506,1.638,27.644
		c0.13,0.76,0.166,3.674,0.585,5.661"/>
	<path fill="none" stroke="#000000" stroke-width="1.3067" stroke-linecap="round" d="M190.062,283.625
		c0.817,2.201,0.875,4.36,1.515,6.662c0.053,0.188,0.454,0.305,0.499,0.5c0.463,1.983,0.205,2.6,1.058,5.096
		c1.052,3.071,1.01,6.891,1.939,10.61c0.03,0.121,0.465,0.152,0.497,0.289c1.501,6.357,3.12,12.843,4.147,19.455"/>
	<path fill="none" stroke="#000000" stroke-width="1.3877" stroke-linecap="round" d="M199.718,326.239
		c1.199,0.48,1.412,2.066,1.445,3.181"/>
	<path fill="none" stroke="#000000" stroke-width="1.2936" stroke-linecap="round" d="M201.163,329.418
		c0.621,2.682,1.479,5.395,2.197,8.094"/>
	<path fill="none" stroke="#000000" stroke-width="2.1448" stroke-linecap="round" d="M199.544,329.881c0,0.924,0,1.85,0,2.774"/>
	<path fill="none" stroke="#000000" stroke-width="1.1976" stroke-linecap="round" d="M166.24,263.967
		c-0.162,0.229-0.324,0.463-0.486,0.693c-0.543,9.274-0.297,18.231,1.981,27.643c1.374,5.674,2.94,14.242,4.858,20.817
		c0.327,1.125,1.068,1.947,1.459,3.146c0.231,0.717,0.083,1.582,0.277,2.125c0.084,0.231,0.667,0.311,0.758,0.563
		c0.943,2.646,1.616,5.119,2.757,7.607c0.215,0.469,2.349,3.887,3.129,5.855c0.034,0.09,0.143,0.147,0.183,0.235"/>
	<path fill="none" stroke="#000000" stroke-width="1.0997" stroke-linecap="round" d="M170.635,194.121
		c-0.087,0.025-0.174,0.052-0.261,0.078c-2.065-1.271-4.373-2.782-5.783-4.797c-0.292-2.435-0.25-5.477,2.344-6.614"/>
	<path fill="none" stroke="#000000" stroke-width="1.0273" stroke-linecap="round" d="M166.934,182.788
		c-0.505-0.346-0.846-0.593-1.177-0.834c-0.338-1.734-0.909-3.544-0.004-5.205c0.311-0.151,0.563-0.36,0.813-0.572
		c0.688-0.237,1.509-0.341,2.101-0.674"/>
	<path fill="none" stroke="#000000" stroke-width="1.0483" stroke-linecap="round" d="M168.669,175.503
		c-0.042-2,0.293-3.987,1.239-5.69c0.973-0.292,2.18-0.819,2.924-1.248"/>
	<path fill="none" stroke="#000000" stroke-width="0.7794" stroke-linecap="round" d="M214.809,118.262
		c7.125,1.603,13.48,5.145,20.121,8.326"/>
	<path fill="none" stroke="#000000" stroke-width="1.0759" stroke-linecap="round" d="M216.89,122.078
		c5.455,0.41,9.896,5.349,11.923,9.946c0.045,0.102,0.492,0.025,0.564,0.113"/>
	<path fill="none" stroke="#000000" stroke-width="0.8498" stroke-linecap="round" d="M229.379,132.138
		c0.501-0.038,0.842,0.084,1.174,0.214c0.151,0.312,0.354,0.57,0.561,0.827"/>
	<path fill="none" stroke="#000000" stroke-width="1.24" stroke-linecap="round" d="M246.725,195.277
		c1.1,5.053-3.577,7.222-6.079,10.55c-0.16,0.803-0.686,1.726-0.803,2.635c0.323,0.951,0.531,1.88,0.831,2.565
		c0.239,0.231,0.451,0.483,0.663,0.737c2.023,0.171,3.177,1.856,4.693,2.94"/>
	<path fill="none" stroke="#000000" stroke-width="1.3191" stroke-linecap="round" d="M246.031,214.704
		c2.283-3.336-2.453-5.607-0.486-8.814c1.528-0.83,2.746-2.353,4.649-2.287"/>
	<path fill="none" stroke="#000000" stroke-width="0.9309" stroke-linecap="round" d="M250.194,203.603
		c1.542-2.814,4.462-4.433,5.896-7.285"/>
	<path fill="none" stroke="#000000" stroke-width="1.03" stroke-linecap="round" d="M256.092,196.318
		c-0.494-0.897-0.087-1.778,0.253-2.524c0.364-11.096-1.677-22.295-1.292-33.207"/>
	<path fill="none" stroke="#000000" stroke-width="1.2189" stroke-linecap="round" d="M256.092,196.318
		c0.907-0.12,2.857-1.969,3.672-3.961c0.293-0.717,0.02-1.781,0.147-2.632c0.19-1.27,0.671-2.228,0.684-3.468
		c0.005-0.478-0.478-0.907-0.547-1.388c-0.363-2.551-0.237-6.493-0.417-8.64c-0.176-2.111-0.29-3.17-0.526-5.127
		c-0.035-0.287-0.468-0.567-0.488-0.899c-0.709-11.702-2.863-24.482-4.605-31.82"/>
	<path fill="none" stroke="#000000" stroke-width="0.9427" stroke-linecap="round" d="M250.194,203.603
		c2.7,2.288,6.631,1.049,9.367,3.122"/>
	<path fill="none" stroke="#000000" stroke-width="0.9501" stroke-linecap="round" d="M257.306,200.481
		c-0.487,0.084-0.949,0.308-1.381,0.533c-0.089,0.371-0.136,0.785-0.181,1.202"/>
	<path fill="none" stroke="#000000" stroke-width="0.9978" stroke-linecap="round" d="M252.449,109.589
		c-5.473-3.221-10.422-8.015-16.131-10.754"/>
	<path fill="none" stroke="#000000" stroke-width="0.9419" stroke-linecap="round" d="M212.496,92.128
		c-0.75,1.226-2.81,1.816-4.08,2.396c-1.071,0.488-1.834,0.865-2.787,1.376c-2.74,1.473-5.678,2.658-7.667,5.516
		c-1.323,0.173-3.536,0.438-3.273,2.275"/>
	<path fill="none" stroke="#000000" stroke-width="1.2135" stroke-linecap="round" d="M194.688,103.691
		c2.056,0.179,3.977,1.083,5.896,1.735"/>
	<path fill="none" stroke="#000000" stroke-width="0.8945" stroke-linecap="round" d="M200.585,105.426
		c3.686-0.378,6.919,2.703,10.754,3.122"/>
	<path fill="none" stroke="#000000" stroke-width="1.0321" stroke-linecap="round" d="M200.585,105.426
		c1.491,2.431,5.314,3.711,7.814,6.053c2.509,2.352,3.565,4.944,6.41,6.783"/>
	<path fill="none" stroke="#000000" stroke-width="0.9046" stroke-linecap="round" d="M174.913,107.508
		c1.16,0.851,2.436,1.344,3.816,1.734"/>
	<path fill="none" stroke="#000000" stroke-width="1.1972" stroke-linecap="round" d="M173.873,141.158
		c0.198,0.078,0.396,0.156,0.594,0.235c1.83,2.229,1.333,6.374,3.063,8.583c0.41,1.227-0.122,2.609,0.32,3.815
		c0.373,0.078,0.726,0.555,0.879,1.243"/>
	<path fill="none" stroke="#000000" stroke-width="0.8717" stroke-linecap="round" d="M174.219,164.749
		c1.838,0.077,3.701-0.177,5.518,0.174c0.198-1.882,2.403-1.661,3.617-2.718"/>
	<path fill="none" stroke="#000000" stroke-width="1.3642" stroke-linecap="round" d="M183.355,162.204
		c-0.181-10.429-4.356-20.052-4.625-30.413"/>
	<path fill="none" stroke="#000000" stroke-width="3.4692" stroke-linecap="round" d="M178.729,131.792c0-0.116,0-0.231,0-0.348"/>
	<path fill="none" stroke="#000000" stroke-width="1.4106" stroke-linecap="round" d="M178.729,131.445
		c-2.571-3.036-2.695-7.302-3.122-11.101"/>
	<path fill="none" stroke="#000000" stroke-width="1.0652" stroke-linecap="round" d="M175.607,120.344
		c0.461-1.339,0.408-3.247,1.829-4.024c4.142-0.929,8.05,2.312,10.313,5.412"/>
	<path fill="none" stroke="#000000" stroke-width="1.8646" stroke-linecap="round" d="M187.749,121.731
		c0.98,0.2,1.791,0.306,2.428,0.348"/>
	<path fill="none" stroke="#000000" stroke-width="1.1317" stroke-linecap="round" d="M190.177,122.078
		c0.937-3.836-0.989-8.109,0.548-11.943c0.235-0.225,0.444-0.479,0.651-0.733c0.395-0.09,0.816-0.116,1.24-0.141
		c1.275,0.742,3.052,1.063,3.458,2.757"/>
	<path fill="none" stroke="#000000" stroke-width="1.4163" stroke-linecap="round" d="M196.075,112.017
		c0.969,0.581,1.267,1.183,1.734,1.734"/>
	<path fill="none" stroke="#000000" stroke-width="1.108" stroke-linecap="round" d="M203.707,118.956
		c4.165,2.89,7.422,6.969,8.673,11.795"/>
	<path fill="none" stroke="#000000" stroke-width="1.2758" stroke-linecap="round" d="M212.38,130.751
		c1.821,2.068,2.871,5.144,3.123,7.979"/>
	<path fill="none" stroke="#000000" stroke-width="1.1659" stroke-linecap="round" d="M215.503,138.73
		c1.272,4.266,3.406,7.973,4.163,12.489"/>
	<path fill="none" stroke="#000000" stroke-width="1.1687" stroke-linecap="round" d="M219.665,151.219
		c0.117,0.034,0.233,0.068,0.35,0.102c0.625,2.303,1.756,4.017,1.547,6.635c1.585,1.906,1.521,5.264,1.572,7.834"/>
	<path fill="none" stroke="#000000" stroke-width="1.0437" stroke-linecap="round" d="M223.135,165.789
		c0.066,0.049,0.133,0.099,0.197,0.147c0.824,4.583-1.37,7.556-4.519,10.448c-0.849,0.779-2.045,1.226-3.149,2.395
		c-1.796,1.901-2.54,2.564-4.324,2.968"/>
	<path fill="none" stroke="#000000" stroke-width="1.1147" stroke-linecap="round" d="M211.34,181.747
		c-0.389,2.494-4.096,3.21-3.123,6.245"/>
	<path fill="none" stroke="#000000" stroke-width="0.8957" stroke-linecap="round" d="M208.217,187.992
		c0.224,0.471,0.424,0.964,0.694,1.388"/>
	<path fill="none" stroke="#000000" stroke-width="1.4835" stroke-linecap="round" d="M211.513,190.767
		c0.155-0.613,0.149-1.551,0.173-2.428"/>
	<path fill="none" stroke="#000000" stroke-width="0.8632" stroke-linecap="round" d="M223.135,179.319
		c-2.454,0.262-4.938,2.239-6.243,4.163"/>
	<path fill="none" stroke="#000000" stroke-width="1.0219" stroke-linecap="round" d="M225.91,176.891
		c0.146-1.816,1.521-2.956,2.603-4.163"/>
	<path fill="none" stroke="#000000" stroke-width="1.3258" stroke-linecap="round" d="M228.512,172.728
		c-0.016-7.852-1.114-16.41-2.811-23.729c-0.022-0.102-0.435-0.112-0.486-0.208"/>
	<path fill="none" stroke="#000000" stroke-width="1.2018" stroke-linecap="round" d="M228.512,172.728
		c0.325-0.042,0.598-0.191,0.866-0.347"/>
	<path fill="none" stroke="#000000" stroke-width="1.127" stroke-linecap="round" d="M232.848,175.156
		c2.36-5.043-0.129-10.628,0-15.958"/>
	<path fill="none" stroke="#000000" stroke-width="1.1414" stroke-linecap="round" d="M232.848,159.198
		c-1.592-4.377-2.237-9.122-3.854-13.387c-0.606-0.044-0.459-0.92-0.765-1.502c-0.124-0.234-0.63-0.296-0.762-0.554
		c-0.994-1.947-1.202-3.606-1.941-5.578c-0.047-0.125-0.437-0.163-0.5-0.292c-2.16-4.376-4.775-8.521-7.193-13.018
		c-0.801-0.239-0.894-1.3-0.943-2.79"/>
	<path fill="none" stroke="#000000" stroke-width="0.8554" stroke-linecap="round" d="M216.89,122.078
		c-1.157-0.808-2.159-2.288-2.082-3.816"/>
	<path fill="none" stroke="#000000" stroke-width="1.1764" stroke-linecap="round" d="M187.402,102.651
		c-0.391,1.909-0.833,3.9-0.694,5.897"/>
	<path fill="none" stroke="#000000" stroke-width="1.1506" stroke-linecap="round" d="M186.708,108.548
		c-0.267,1.513,0.936,3.089,0,4.51"/>
	<path fill="none" stroke="#000000" stroke-width="0.8498" stroke-linecap="round" d="M186.708,113.058
		c0.19,0.272,0.271,0.654,0.348,1.041"/>
	<path fill="none" stroke="#000000" stroke-width="0.8606" stroke-linecap="round" d="M181.736,172.844
		c1.086-1.065,2.428-1.321,3.932-1.157"/>
	<path fill="none" stroke="#000000" stroke-width="1.0097" stroke-linecap="round" d="M185.668,171.687
		c0.6-2.485-2.039-3.548-3.469-4.855"/>
	<path fill="none" stroke="#000000" stroke-width="1.0407" stroke-linecap="round" d="M185.668,171.687
		c1.037-0.104,2.054,0.064,3.007,0.463"/>
	<path fill="none" stroke="#000000" stroke-width="0.9914" stroke-linecap="round" d="M188.675,172.15
		c0.968-0.466,1.595-1.327,2.39-2.006c0.143-0.631,0.069-1.216-0.058-1.723c-0.942-0.788-1.446-1.843-1.868-2.979"/>
	<path fill="none" stroke="#000000" stroke-width="0.9395" stroke-linecap="round" d="M189.137,165.443
		c-0.195,0.08-0.391,0.16-0.586,0.24c-1.774-0.131-2.804-1.85-3.23-3.362"/>
	<path fill="none" stroke="#000000" stroke-width="1.0946" stroke-linecap="round" d="M171.444,176.197
		c3.572-0.879,7.488,2.773,11.271,0.853c0.251-0.463,0.403-0.811,0.491-1.189c-0.086-1.204-1.069-1.946-1.471-3.016"/>
	<path fill="none" stroke="#000000" stroke-width="1.0134" stroke-linecap="round" d="M181.736,172.844
		c-3.123-1.056-5.987-2.71-8.904-4.279"/>
	<path fill="none" stroke="#000000" stroke-width="0.8698" stroke-linecap="round" d="M190.177,101.263
		c0.746,1.769,2.963,2.184,4.51,2.428"/>
	<path fill="none" stroke="#000000" stroke-width="1.0724" stroke-linecap="round" d="M181.042,108.317
		c1.727,1.754,3.433,3.561,5.666,4.741"/>
	<path fill="none" stroke="#000000" stroke-width="1.161" stroke-linecap="round" d="M179.77,106.814
		c0.325,0.942,0.836,1.306,1.271,1.503"/>
	<path fill="none" stroke="#000000" stroke-width="0.8692" stroke-linecap="round" d="M181.042,108.317
		c0.333-0.387,0.754-0.678,1.181-0.965c1.626,0.052,2.773,1.572,4.485,1.196"/>
	<path fill="none" stroke="#000000" stroke-width="1.4033" stroke-linecap="round" d="M201.452,181.747
		c-0.274,3.104-2.815,4.898-3.643,7.632"/>
	<path fill="none" stroke="#000000" stroke-width="0.9831" stroke-linecap="round" d="M197.81,189.38
		c0.963,0.312,1.261,0.829,1.487,1.383c0.392,0.236,0.756,0.562,1.094,0.905c1.951,0.202,3.504-1.371,5.051-2.288"/>
	<path fill="none" stroke="#000000" stroke-width="0.8375" stroke-linecap="round" d="M205.442,189.38
		c0.808-0.875,2.048-0.937,2.774-1.388"/>
	<path fill="none" stroke="#000000" stroke-width="1.0407" stroke-linecap="round" d="M211.34,181.747
		c-0.326,0.124-0.853,0.271-1.388,0.347"/>
	<path fill="none" stroke="#000000" stroke-width="2.6872" stroke-linecap="round" d="M204.401,180.244
		c-0.092,0.062-0.186,0.123-0.277,0.185"/>
	<path fill="none" stroke="#000000" stroke-width="2.0649" stroke-linecap="round" d="M206.483,172.381
		c0.281,2.073,0.926,4.021,1.733,5.896"/>
	<path fill="none" stroke="#000000" stroke-width="0.9643" stroke-linecap="round" d="M208.217,178.278
		c0.15,0.081,0.302,0.162,0.451,0.243c4.588,0.026,7.252-5.243,6.487-9.263"/>
	<path fill="none" stroke="#000000" stroke-width="1.4122" stroke-linecap="round" d="M197.81,189.38
		c-0.744,0.932-0.605,2.038-0.811,2.66"/>
	<path fill="none" stroke="#000000" stroke-width="0.9827" stroke-linecap="round" d="M197,192.039
		c0.845,0.644,1.89,1.053,2.35,2.037c1.332,0.826,1.997-0.799,3.125-1.41c1.421-0.771,2.844-0.561,3.313-2.246"/>
	<path fill="none" stroke="#000000" stroke-width="1.0974" stroke-linecap="round" d="M197,192.039
		c-0.125,0.025-0.25,0.052-0.374,0.079c-0.345,0.02-0.533,0.104-0.713,0.191c-0.494,0.834,0.371,2.402-0.896,2.704
		c-0.32,0.567-0.322,1.515-0.105,2.134c3.518,4.476,6.545,9.482,10.532,13.741"/>
	<path fill="none" stroke="#000000" stroke-width="1.2216" stroke-linecap="round" d="M215.734,190.652
		c-1.52,0.137-0.381,2.138-1.363,2.813c-0.331,0.074-0.928-0.173-1.576-0.351c-0.599-0.708-1.184-1.366-1.281-2.346"/>
	<path fill="none" stroke="#000000" stroke-width="1.1764" stroke-linecap="round" d="M211.513,190.767
		c-1.105,0.163-2.18-0.356-2.603-1.388"/>
	<path fill="none" stroke="#000000" stroke-width="1.086" stroke-linecap="round" d="M223.135,179.319
		c0.166,0.073,0.331,0.146,0.496,0.219c-0.093,1.597-0.673,3.355-1.883,4.639"/>
	<path fill="none" stroke="#000000" stroke-width="1.298" stroke-linecap="round" d="M221.747,184.176
		c-0.339,2.013-1.167,3.593-2.774,4.857"/>
	<path fill="none" stroke="#000000" stroke-width="1.4243" stroke-linecap="round" d="M218.971,189.033
		c0.775,1.81-0.181,3.584-1.388,4.855"/>
	<path fill="none" stroke="#000000" stroke-width="0.9095" stroke-linecap="round" d="M217.584,193.889
		c-1.563,6.359-5.268,12.047-9.714,16.652"/>
	<path fill="none" stroke="#000000" stroke-width="0.8498" stroke-linecap="round" d="M207.87,210.542
		c0.021,0.714-0.158,1.229-0.347,1.733"/>
	<path fill="none" stroke="#000000" stroke-width="0.8293" stroke-linecap="round" d="M207.523,212.276
		c0.214,0.942,0.745,1.568,1.041,2.429"/>
	<path fill="none" stroke="#000000" stroke-width="1.4988" stroke-linecap="round" d="M188.675,172.15
		c0.063,0.209,0.091,0.563,0.115,0.926"/>
	<path fill="none" stroke="#000000" stroke-width="1.0835" stroke-linecap="round" d="M170.635,194.121
		c0.46-1.466-0.303-2.982,0.007-4.4c0.57-0.521,1.152-0.471,1.643-0.46c0.543,0.575,1.308,1.042,1.805,1.528
		c0.647,1.572,3.243,5.136,6.184,7.108c0.442,0.297,1.294,0.116,1.724,0.358c0.91,0.513,2.216,1.581,3.714,2.531
		c0.131,0.083,0.181,0.296,0.306,0.388"/>
	<path fill="none" stroke="#000000" stroke-width="0.9629" stroke-linecap="round" d="M186.014,201.175
		c1.295,3.227,4.029,5.205,4.51,8.673"/>
	<path fill="none" stroke="#000000" stroke-width="0.9812" stroke-linecap="round" d="M190.525,209.848
		c0.965,1.375,2.845,2.542,2.774,4.51"/>
	<path fill="none" stroke="#000000" stroke-width="0.9382" stroke-linecap="round" d="M193.3,214.358
		c1.296,0.251,1.854,2.03,2.525,2.784c0.099,0.112,1.708,2.288,2.49,2.951c0.503,0.427,1.291,0.553,1.749,1.034
		c0.857,0.898,1.485,2.121,2.414,3.133c0.899,0.982,1.666,1.197,2.457,2.387c0.499,0.749,1.765,1.557,3.095,2.489
		c4.782-1.475,6.279-7.669,9.786-10.73"/>
	<path fill="none" stroke="#000000" stroke-width="1.0477" stroke-linecap="round" d="M217.815,218.405
		c0.242-1.632,1.624-3.007,2.891-4.047"/>
	<path fill="none" stroke="#000000" stroke-width="1.058" stroke-linecap="round" d="M220.706,214.358
		c0.834-2.392,2.767-4.165,4.04-6.264c0.115-1.467,1.106-2.567,2.205-3.45"/>
	<path fill="none" stroke="#000000" stroke-width="1.0749" stroke-linecap="round" d="M226.951,204.644
		c0.063-0.453,0.233-1.432,0.554-2.224c0.314-0.146,0.575-0.349,0.834-0.551"/>
	<path fill="none" stroke="#000000" stroke-width="1.0876" stroke-linecap="round" d="M228.339,201.868
		c1.158-3.172,2.684-7.016,5.204-9.367"/>
	<path fill="none" stroke="#000000" stroke-width="0.8776" stroke-linecap="round" d="M228.339,201.868
		c1.792,1.083,3.479,2.268,5.551,2.774"/>
	<path fill="none" stroke="#000000" stroke-width="1.3718" stroke-linecap="round" d="M233.889,204.644
		c0.609-0.995,1.289-1.909,2.082-2.774"/>
	<path fill="none" stroke="#000000" stroke-width="1.0598" stroke-linecap="round" d="M235.97,201.868
		c-0.025-0.969,0.02-1.485,0.111-2.029c0.256-0.178,0.507-0.376,0.757-0.576c2.066-7.045,2.933-16.407-0.703-22.991
		c-0.072-0.131-0.098-0.289-0.166-0.422"/>
	<path fill="none" stroke="#000000" stroke-width="0.9455" stroke-linecap="round" d="M235.97,175.85
		c-1.566,0.033-2.066-0.557-3.122-0.694"/>
	<path fill="none" stroke="#000000" stroke-width="0.9689" stroke-linecap="round" d="M232.848,175.156
		c-2.473-0.145-4.537,1.362-6.938,1.735"/>
	<path fill="none" stroke="#000000" stroke-width="1.0652" stroke-linecap="round" d="M225.91,176.891
		c-1.048-0.151-1.939,0.488-2.618,1.199c-0.075,0.387-0.117,0.808-0.158,1.229"/>
	<path fill="none" stroke="#000000" stroke-width="1.261" stroke-linecap="round" d="M195.034,172.728
		c-0.084,0.15-0.168,0.3-0.252,0.451c0.744,2.23,0.735,4.999,1.339,7.12c1.882-0.515,3.314-2.043,5.158-2.713"/>
	<path fill="none" stroke="#000000" stroke-width="0.9564" stroke-linecap="round" d="M201.279,177.585
		c0.405-1.214,0.259-2.549,1.734-3.123"/>
	<path fill="none" stroke="#000000" stroke-width="2.0815" stroke-linecap="round" d="M203.013,174.462
		c0.058-1.186,0.092-2.358-0.694-3.122"/>
	<path fill="none" stroke="#000000" stroke-width="2.1385" stroke-linecap="round" d="M198.85,166.136c0,1.156,0,2.313,0,3.469"/>
	<path fill="none" stroke="#000000" stroke-width="0.916" stroke-linecap="round" d="M198.85,169.605
		c1.054,0.748,2.232,1.373,3.469,1.735"/>
	<path fill="none" stroke="#000000" stroke-width="0.9536" stroke-linecap="round" d="M195.382,163.361
		c-1.201,2.782-0.816,6.427-0.347,9.367"/>
	<path fill="none" stroke="#000000" stroke-width="1.1268" stroke-linecap="round" d="M195.034,172.728
		c1.667-0.266,2.879-1.823,3.816-3.123"/>
	<path fill="none" stroke="#000000" stroke-width="1.1241" stroke-linecap="round" d="M171.444,176.197
		c-0.917-0.21-1.938-0.22-2.775-0.693"/>
	<path fill="none" stroke="#000000" stroke-width="1.1534" stroke-linecap="round" d="M166.934,182.788
		c2.979,1.854,9.734,1.604,8.112-3.467c-1.218-1.035-2.955-1.54-3.604-3.125"/>
	<path fill="none" stroke="#000000" stroke-width="1.0823" stroke-linecap="round" d="M170.635,194.121
		c2.089,1.63,2.005,4.777,4.461,6.191c0.242,0.471,0.394,0.817,0.479,1.199c-0.16,0.779-0.366,1.616-1.196,1.891
		c-0.29,0.943-0.025,2.116-0.32,3.121c-0.036,0.123-0.502,0.136-0.552,0.286c-0.504,1.558-0.742,3.168-1.921,4.919
		c-0.182,0.27-0.564,0.3-0.708,0.564c-1.315,2.438-2.671,4.9-3.631,6.782c-0.073,0.143-0.46,0.127-0.501,0.285
		c-0.823,3.22-0.87,6.569,2.42,9.75c0.619,0.126,1.1,0.247,1.55,0.328c0.517-0.079,1.101-0.172,1.57-0.367
		c2.433-1.288,3.572-4.775,6.443-5"/>
	<path fill="none" stroke="#000000" stroke-width="1.3243" stroke-linecap="round" d="M178.729,224.071
		c1.145-2.958,2.119-5.616,2.774-8.673"/>
	<path fill="none" stroke="#000000" stroke-width="1.0395" stroke-linecap="round" d="M190.177,122.078
		c0.197,0.161,0.396,0.323,0.593,0.485c2.438,0.939,3.426-2.189,5.409-2.819c1.385,0.087,2.714,0.427,4.089-0.064
		c1.141,1.202,2.459,0.141,3.438-0.723"/>
	<path fill="none" stroke="#000000" stroke-width="1.1506" stroke-linecap="round" d="M203.707,118.956
		c-1.575-1.979-3.359-4.726-5.896-5.204"/>
	<path fill="none" stroke="#000000" stroke-width="1.161" stroke-linecap="round" d="M197.81,113.752
		c-0.852,0.416-1.507,0.634-1.966,0.81"/>
	<path fill="none" stroke="#000000" stroke-width="1.2347" stroke-linecap="round" d="M195.844,114.561
		c0.046,0.505-0.786,0.79-1.851,1.619"/>
	<path fill="none" stroke="#000000" stroke-width="1.7171" stroke-linecap="round" d="M193.994,116.18
		c-0.057,0.539-0.247,0.97-0.441,1.396c-0.611,0.266-1.021,0.421-1.294,0.687"/>
	<path fill="none" stroke="#000000" stroke-width="0.8957" stroke-linecap="round" d="M194.341,113.752
		c0.465,0.216,1.019,0.476,1.504,0.81"/>
	<path fill="none" stroke="#000000" stroke-width="1.0213" stroke-linecap="round" d="M196.075,112.017
		c-0.97,0.581-1.267,1.183-1.735,1.734"/>
	<path fill="none" stroke="#000000" stroke-width="0.9812" stroke-linecap="round" d="M194.341,113.752
		c-0.313,0.759-0.29,1.697-0.347,2.429"/>
	<path fill="none" stroke="#000000" stroke-width="1.2449" stroke-linecap="round" d="M178.729,131.445
		c1.76-1.791,0.642-4.607,1.604-6.727c0.608-0.363,0.727-0.801,0.975-1.087c2.081-1.287,4.992,0.665,6.44-1.899"/>
	<path fill="none" stroke="#000000" stroke-width="0.8776" stroke-linecap="round" d="M175.607,120.344
		c2.379,0.499,4.425-0.614,6.591-0.694"/>
	<path fill="none" stroke="#000000" stroke-width="1.2546" stroke-linecap="round" d="M210.992,146.362
		c0.229,0.766,0.656,2.11,1.203,2.914c0.697,0.479,1.552,0.586,2.243,0.451c0.931-1.208-0.328-2.549-0.671-3.711"/>
	<path fill="none" stroke="#000000" stroke-width="1.5611" stroke-linecap="round" d="M178.729,131.792
		c0.784,0.348,1.71,0.583,2.212,0.833c0.069,1.693,0.596,3.214,1.951,4.371"/>
	<path fill="none" stroke="#000000" stroke-width="1.0291" stroke-linecap="round" d="M182.892,136.995
		c0.445-0.734,0.846-1.071,1.388-1.389"/>
	<path fill="none" stroke="#000000" stroke-width="1.2018" stroke-linecap="round" d="M182.892,136.995
		c0.025,2.181,0.713,5.084,2.774,5.896"/>
	<path fill="none" stroke="#000000" stroke-width="1.4718" stroke-linecap="round" d="M185.668,142.893c0.421,0,0.733,0,1.041,0"/>
	<path fill="none" stroke="#000000" stroke-width="1.5201" stroke-linecap="round" d="M186.708,142.893
		c0.255-0.697,0.35-1.533,0.729-1.839c0.475,0.049,0.907,0.239,1.218,0.481c0.178,0.586,0.358,1.524,0.131,2.401
		c-0.114,0.23-0.228,0.46-0.342,0.691"/>
	<path fill="none" stroke="#000000" stroke-width="4.0457" stroke-linecap="round" d="M188.235,145.668
		c0.006,0.011,0.012,0.021,0.019,0.032"/>
	<path fill="none" stroke="#000000" stroke-width="2.5176" stroke-linecap="round" d="M188.254,145.7
		c0.89,0.384,1.81,0.988,1.925,2.05"/>
	<path fill="none" stroke="#000000" stroke-width="1.4695" stroke-linecap="round" d="M191.496,152.537
		c0.868,1.643,2.92,0.583,4.091,1.488c0.519,3.086,0.064,6.242-0.206,9.335"/>
	<path fill="none" stroke="#000000" stroke-width="1.1266" stroke-linecap="round" d="M195.382,163.361
		c1.14,1.126,2.704,1.281,3.47,2.775"/>
	<path fill="none" stroke="#000000" stroke-width="0.9812" stroke-linecap="round" d="M198.85,166.136
		c1.191-0.519,3.135,0.004,3.469,1.388"/>
	<path fill="none" stroke="#000000" stroke-width="0.8136" stroke-linecap="round" d="M202.32,167.524
		c1.237-0.305,2.175,0.412,3.123,1.041"/>
	<path fill="none" stroke="#000000" stroke-width="1.0407" stroke-linecap="round" d="M205.442,168.565
		c0.464,0.216,1.017,0.477,1.503,0.811"/>
	<path fill="none" stroke="#000000" stroke-width="1.0693" stroke-linecap="round" d="M206.945,169.374
		c2.667,0.426,5.515,0.238,8.21-0.116"/>
	<path fill="none" stroke="#000000" stroke-width="0.9084" stroke-linecap="round" d="M215.156,169.259
		c2.617-1.324,4.982-3.095,7.979-3.469"/>
	<path fill="none" stroke="#000000" stroke-width="1.1241" stroke-linecap="round" d="M219.665,151.219
		c-1.896-0.517-2.99,1.493-4.855,1.041"/>
	<path fill="none" stroke="#000000" stroke-width="0.9455" stroke-linecap="round" d="M215.503,138.73
		c-0.487-0.263-1.622-0.335-3.123-0.347"/>
	<path fill="none" stroke="#000000" stroke-width="1.4627" stroke-linecap="round" d="M212.38,138.383c0,1.185,0,2.358,0,3.122"/>
	<path fill="none" stroke="#000000" stroke-width="1.8052" stroke-linecap="round" d="M212.38,141.505
		c0.498,0.217,0.936,0.426,1.257,0.717c0.203,1.27,0.417,2.524,0.131,3.793"/>
	<path fill="none" stroke="#000000" stroke-width="0.8498" stroke-linecap="round" d="M212.38,130.751
		c-2.867,0.312-6.118-0.709-8.673,0.693"/>
	<path fill="none" stroke="#000000" stroke-width="1.4718" stroke-linecap="round" d="M183.355,162.204
		c0.563,0.104,1.393,0.1,1.966,0.115"/>
	<path fill="none" stroke="#000000" stroke-width="0.9587" stroke-linecap="round" d="M185.321,162.32
		c0.728-2.792-0.075-6.15,1.894-8.503c0.59-0.071,1.263-0.449,1.923-0.862"/>
	<path fill="none" stroke="#000000" stroke-width="1.4718" stroke-linecap="round" d="M189.137,152.953
		c-0.379-1.177-0.309-2.498-0.348-3.354"/>
	<path fill="none" stroke="#000000" stroke-width="1.5065" stroke-linecap="round" d="M188.79,149.6
		c-0.664-0.467-1-1.275-1.305-1.812c0.207-0.78,0.504-1.406,0.769-2.088"/>
	<path fill="none" stroke="#000000" stroke-width="1.3877" stroke-linecap="round" d="M210.414,142.315
		c0.503,0.005,1.189-0.218,1.966-0.81"/>
	<path fill="none" stroke="#000000" stroke-width="1.6749" stroke-linecap="round" d="M212.38,138.383
		c-0.282-0.186-0.789-0.538-1.208-1.22c-0.617-0.156-1.505-0.086-2.261,0.049c-0.464,1.221-0.512,2.701-0.132,3.946
		c0.562,0.455,1.114,0.741,1.635,1.156"/>
	<path fill="none" stroke="#000000" stroke-width="1.5515" stroke-linecap="round" d="M186.708,142.893
		c0.652,0.652,1.196,1.196,1.735,1.735"/>
	<path fill="none" stroke="#000000" stroke-width="1.4781" stroke-linecap="round" d="M210.414,142.315
		c0.123,1.196-0.854,3.526,0.578,4.047"/>
	<path fill="none" stroke="#000000" stroke-width="0.8498" stroke-linecap="round" d="M210.992,146.362
		c0.77-0.313,1.901-0.29,2.775-0.347"/>
	<path fill="none" stroke="#000000" stroke-width="3.5379" stroke-linecap="round" d="M188.235,145.668
		c0.069-0.348,0.139-0.694,0.208-1.041"/>
	<path fill="none" stroke="#000000" stroke-width="1.3877" stroke-linecap="round" d="M185.668,142.893
		c-0.043,0.69,0.081,1.095,0.212,1.486c0.771,0.63,1.631,1.087,2.355,1.29"/>
	<path fill="none" stroke="#000000" stroke-width="2.1385" stroke-linecap="round" d="M188.79,149.6
		c0.116-0.039,0.231-0.077,0.348-0.116"/>
	<path fill="none" stroke="#000000" stroke-width="0.8957" stroke-linecap="round" d="M189.137,149.484
		c0.466-0.714,0.688-1.229,1.041-1.733"/>
	<path fill="none" stroke="#000000" stroke-width="0.8498" stroke-linecap="round" d="M190.756,149.947
		c0.37-0.573,0.303-1.163,0.236-1.643c-0.304-0.148-0.56-0.35-0.813-0.554"/>
	<path fill="none" stroke="#000000" stroke-width="2.5016" stroke-linecap="round" d="M190.525,153.185
		c0.324-0.216,0.646-0.432,0.971-0.646"/>
	<path fill="none" stroke="#000000" stroke-width="2.1007" stroke-linecap="round" d="M191.496,152.537
		c0.063-0.895-0.704-1.662-0.74-2.591"/>
	<path fill="none" stroke="#000000" stroke-width="1.4988" stroke-linecap="round" d="M190.756,149.947
		c-0.369-0.061-1.033-0.246-1.618-0.463"/>
	<path fill="none" stroke="#000000" stroke-width="1.4229" stroke-linecap="round" d="M189.137,165.443
		c-0.633-2.784-0.342-5.801-0.235-8.631c1.378-0.662,1.287-2.354,1.623-3.627"/>
	<path fill="none" stroke="#000000" stroke-width="2.1385" stroke-linecap="round" d="M190.525,153.185
		c-0.463-0.126-0.925-0.181-1.388-0.23"/>
	<path fill="none" stroke="#000000" stroke-width="0.9622" stroke-linecap="round" d="M203.013,174.462
		c0.228,0.81,0.717,1.127,1.219,1.561c0.292,1.387,0.121,2.816,0.169,4.223"/>
	<path fill="none" stroke="#000000" stroke-width="1.6189" stroke-linecap="round" d="M204.401,180.244
		c1.438-0.389,2.727-0.928,3.815-1.967"/>
	<path fill="none" stroke="#000000" stroke-width="0.8498" stroke-linecap="round" d="M202.32,167.524c0,1.127,0,2.268,0,3.816"/>
	<path fill="none" stroke="#000000" stroke-width="1.5515" stroke-linecap="round" d="M206.483,172.381
		c0.367-1.195,0.295-2.374,0.462-3.006"/>
	<path fill="none" stroke="#000000" stroke-width="1.0033" stroke-linecap="round" d="M205.442,168.565
		c-0.369,0.769-0.365,2.066-0.246,3.017c0.258,0.293,0.773,0.507,1.286,0.8"/>
	<path fill="none" stroke="#000000" stroke-width="0.8776" stroke-linecap="round" d="M201.279,177.585
		c0.258,0.667,0.358,1.492,0.694,2.081"/>
	<path fill="none" stroke="#000000" stroke-width="1.5822" stroke-linecap="round" d="M201.973,179.666
		c0.655-0.062,1.503,0.333,2.15,0.764"/>
	<path fill="none" stroke="#000000" stroke-width="1.8789" stroke-linecap="round" d="M201.452,181.747
		c1.71,0.138,2.242-0.737,2.671-1.318"/>
	<path fill="none" stroke="#000000" stroke-width="1.161" stroke-linecap="round" d="M201.973,179.666
		c-0.44,0.842-0.673,1.492-0.521,2.082"/>
	<path fill="none" stroke="#000000" stroke-width="1.0052" stroke-linecap="round" d="M178.729,224.071
		c0.201,1.729-0.451,2.224-0.919,2.792c-0.917,1.486-1.424,5.337-2.761,8.451c-0.104,0.244-0.604,0.313-0.708,0.565
		c-0.243,0.599-0.033,1.512-0.233,2.029c-0.085,0.221-0.607,0.35-0.753,0.567c-0.867,1.301-1.137,3.066-1.77,4.46
		c-0.354,0.783-2.726,2.111-2.569,5.418"/>
	<path fill="none" stroke="#000000" stroke-width="0.9793" stroke-linecap="round" d="M169.016,248.356
		c0.114,0.035,0.229,0.07,0.345,0.105c14.063-0.9,28.83-0.318,43.02-0.105"/>
	<path fill="none" stroke="#000000" stroke-width="1.0362" stroke-linecap="round" d="M212.38,248.356
		c0.593-2.104,0.006-3.533,0.73-5.41c0.053-0.137,0.456-0.137,0.499-0.286c0.188-0.652,0.172-1.951,0.32-2.429
		c0.038-0.127,0.491-0.129,0.551-0.284c1.408-3.653,1.913-6.732,3.551-9.625c0.127-0.224,0.601-0.298,0.763-0.537
		c0.565-0.833,0.92-2.284,1.619-3.232c0.225-0.303,3.016-2.387,3.068-4.561"/>
	<path fill="none" stroke="#000000" stroke-width="1.1741" stroke-linecap="round" d="M183.24,210.888
		c2.498,0.142,4.84-0.816,7.285-1.041"/>
	<path fill="none" stroke="#000000" stroke-width="1.1679" stroke-linecap="round" d="M186.014,201.175
		c-0.497,0.218-0.936,0.426-1.257,0.717c-0.675,2.813-2.167,5.869-1.519,8.997"/>
	<path fill="none" stroke="#000000" stroke-width="0.9356" stroke-linecap="round" d="M183.24,210.888
		c-1.767,0.99-0.327,3.301-1.735,4.51"/>
	<path fill="none" stroke="#000000" stroke-width="1.2204" stroke-linecap="round" d="M181.505,215.398
		c3.915-0.254,7.731-1.476,11.795-1.041"/>
	<path fill="none" stroke="#000000" stroke-width="1.1654" stroke-linecap="round" d="M213.768,251.824
		c-3.851,0.198-11.92-0.154-18.276,0.002c-3.774,0.092-7.963,0.68-11.828,0.684c-2.743,0.002-5.534-0.434-8.187-0.121
		c0.121-0.014-2.237,0.885-3.688,0.478"/>
	<path fill="none" stroke="#000000" stroke-width="1.4903" stroke-linecap="round" d="M169.016,248.356
		c-0.116,0.033-0.233,0.068-0.35,0.103c-0.771,5.145-2.396,10.18-2.426,15.51"/>
	<path fill="none" stroke="#000000" stroke-width="1.0111" stroke-linecap="round" d="M166.24,263.967
		c4.302,3.424,6.916,8.012,11.317,11.469c2.597,4.107,7.314,8.146,12.504,8.189"/>
	<path fill="none" stroke="#000000" stroke-width="0.9408" stroke-linecap="round" d="M190.062,283.625
		c-0.422-4.443,2.959-6.929,4.813-10.451c2.339-1.309,6.404-5.582,9.343-7.301c1.28-0.748,3.136-1.996,4.487-2.445
		c0.797-0.266,1.752-0.053,2.418-0.371c1.039-0.498,4.767-0.59,6.809-0.305"/>
	<path fill="none" stroke="#000000" stroke-width="1.4988" stroke-linecap="round" d="M199.544,329.881
		c0.722-0.236,1.178-0.318,1.619-0.463"/>
	<path fill="none" stroke="#000000" stroke-width="1.5515" stroke-linecap="round" d="M199.718,326.239
		c-0.734,1.033-0.63,2.513-0.174,3.644"/>
	<path fill="none" stroke="#000000" stroke-width="1.4429" stroke-linecap="round" d="M244.412,193.427
		c-1.003-6.236-1.972-18.255-1.503-27.291"/>
	<path fill="none" stroke="#000000" stroke-width="1.3658" stroke-linecap="round" d="M244.412,193.427
		c1.09,0.22,0.975,1.814,2.313,1.85"/>
	<path fill="none" stroke="#000000" stroke-width="1.4994" stroke-linecap="round" d="M246.725,195.277
		c2.186-2.614,0.537-6.159-0.264-10.406c-0.55-2.922-0.297-5.821-0.434-9.021c-0.021-0.477-0.5-0.905-0.555-1.393
		c-0.237-2.125-0.562-7.928,0.418-11.79c0.319-1.264,0.187-2.89-0.322-3.816"/>
	<path fill="none" stroke="#000000" stroke-width="1.1401" stroke-linecap="round" d="M235.97,201.868
		c4.238-1.188,6.282-4.968,8.441-8.441"/>
	<path fill="none" stroke="#000000" stroke-width="1.1506" stroke-linecap="round" d="M243.256,152.26
		c0.875-0.678,0.303-2.313,1.619-2.544"/>
	<path fill="none" stroke="#000000" stroke-width="1.2445" stroke-linecap="round" d="M244.875,149.716
		c0.235-4.061-0.606-8.537-3.861-11.171c-1.517-0.626-3.175-0.288-4.695-0.855"/>
	<path fill="none" stroke="#000000" stroke-width="0.9812" stroke-linecap="round" d="M236.318,137.689
		c-0.517,1.322-1.831,2.396-3.105,2.936c-1.276-2.29-3.116-4.152-3.14-7.099"/>
	<path fill="none" stroke="#000000" stroke-width="1.2067" stroke-linecap="round" d="M237.358,157.81
		c1.251-2.247,3.475-4.406,5.896-5.551"/>
	<path fill="none" stroke="#000000" stroke-width="1.391" stroke-linecap="round" d="M235.97,175.85
		c-0.053-6.102,1.465-11.935,1.388-18.04"/>
	<path fill="none" stroke="#000000" stroke-width="0.821" stroke-linecap="round" d="M237.358,157.81
		c-1.825-0.595-2.884,1.118-4.51,1.388"/>
	<path fill="none" stroke="#000000" stroke-width="0.8592" stroke-linecap="round" d="M217.815,218.405
		c1.867,1.241,3.841,2.238,5.667,3.585"/>
	<path fill="none" stroke="#000000" stroke-width="1.0213" stroke-linecap="round" d="M223.482,221.99
		c1.937-0.567,3.128-2.251,3.469-4.162"/>
	<path fill="none" stroke="#000000" stroke-width="0.8498" stroke-linecap="round" d="M205.442,189.38
		c0.188,0.272,0.271,0.654,0.347,1.041"/>
	<path fill="none" stroke="#000000" stroke-width="0.821" stroke-linecap="round" d="M205.789,190.42
		c1.186-0.068,2.359-0.633,3.122-1.041"/>
	<path fill="none" stroke="#000000" stroke-width="0.8498" stroke-linecap="round" d="M215.734,190.652
		c0.593,1.188,0.285,2.665,1.851,3.238"/>
	<path fill="none" stroke="#000000" stroke-width="1.1216" stroke-linecap="round" d="M217.584,186.258
		c-1.815,0.758-2.212,2.711-1.851,4.394"/>
	<path fill="none" stroke="#000000" stroke-width="0.8957" stroke-linecap="round" d="M230.073,133.526
		c0.421-0.042,0.733-0.19,1.041-0.347"/>
	<path fill="none" stroke="#000000" stroke-width="0.7757" stroke-linecap="round" d="M229.379,132.138
		c-0.041,0.734,0.317,1.071,0.694,1.388"/>
	<path fill="none" stroke="#000000" stroke-width="1.3877" stroke-linecap="round" d="M236.318,137.689
		c-2.136-1.386-2.996-3.627-5.204-4.51"/>
	<path fill="none" stroke="#000000" stroke-width="1.1793" stroke-linecap="round" d="M243.256,152.26
		c1.761,1.81-0.755,5.771,2.313,6.591"/>
	<path fill="none" stroke="#000000" stroke-width="1.8696" stroke-linecap="round" d="M245.569,158.851
		c1.078-2.972,0.299-6.306-0.694-9.135"/>
	<path fill="none" stroke="#000000" stroke-width="1.6023" stroke-linecap="round" d="M217.584,186.258
		c0.237,1.214,0.436,2.404,1.388,2.775"/>
	<path fill="none" stroke="#000000" stroke-width="1.1728" stroke-linecap="round" d="M221.747,184.176
		c-0.195-0.08-0.39-0.16-0.585-0.24c-1.316,0.523-3.138,0.706-3.578,2.322"/>
	<path fill="none" stroke="#000000" stroke-width="0.8673" stroke-linecap="round" d="M226.951,204.644
		c2.274,0.167,3.642,2.082,5.897,2.429"/>
	<path fill="none" stroke="#000000" stroke-width="1.0749" stroke-linecap="round" d="M232.848,207.073
		c0.159-0.07,0.319-0.142,0.48-0.213c0.277-0.989,0.532-1.609,0.561-2.216"/>
	<path fill="none" stroke="#000000" stroke-width="0.8581" stroke-linecap="round" d="M220.706,214.358
		c2.17,0.982,4.204,2.125,6.245,3.47"/>
	<path fill="none" stroke="#000000" stroke-width="1.0481" stroke-linecap="round" d="M226.951,217.827
		c2.429-2.456,3.411-5.894,5.015-8.828c0.518-0.037,0.844-0.854,0.883-1.927"/>
	<path fill="none" stroke="#000000" stroke-width="0.8498" stroke-linecap="round" d="M207.87,210.542
		c-0.979-0.056-1.792,0.059-2.428,0.347"/>
	<path fill="none" stroke="#000000" stroke-width="1.1431" stroke-linecap="round" d="M205.442,210.888
		c0.281,0.891,1.188,1.384,2.081,1.388"/>
	<path fill="none" stroke="#000000" stroke-width="1.2888" stroke-linecap="round" d="M227.298,118.956
		c6.742,3.392,11.289,6.628,15.446,10.903c1.521,1.563,5.341,5.51,6.332,9.531c0.334,1.356,1.069,2.552,1.343,3.851
		c0.801,3.781,0.228,8.501,0.474,13.182c0.024,0.478,0.497,0.904,0.55,1.388c0.487,4.4-0.083,8.53,0.141,11.795"/>
	<path fill="none" stroke="#000000" stroke-width="0.9764" stroke-linecap="round" d="M241.174,142.546
		c-0.066-0.164-0.135-0.328-0.201-0.492c-0.237-0.226-0.445-0.479-0.651-0.737c-2.825-1.24-3.087,2.069-5.214,2.789
		c-1.317,2.864,2.987,3.511,2.583,6.077c-0.454,0.68-0.565,1.73-1.372,2.077"/>
</g>
</svg>
