<?xml version="1.0" encoding="utf-8"?>
<!-- Generator: Adobe Illustrator 14.0.0, SVG Export Plug-In . SVG Version: 6.00 Build 43363)  -->
<!DOCTYPE svg PUBLIC "-//W3C//DTD SVG 1.1//EN" "http://www.w3.org/Graphics/SVG/1.1/DTD/svg11.dtd">
<svg version="1.1" id="图层_1" xmlns="http://www.w3.org/2000/svg" xmlns:xlink="http://www.w3.org/1999/xlink" x="0px" y="0px"
	 width="848px" height="480px" viewBox="0 0 848 480" enable-background="new 0 0 848 480" xml:space="preserve">
<g>
	<path fill-rule="evenodd" clip-rule="evenodd" fill="none" stroke="#000000" stroke-width="1.0309" stroke-linecap="round" d="
		M264.055,147.817c-1.429,0.083-2.544,0.936-3.995,1.104c-0.235,0.391-0.332,0.691-0.422,0.987c0.912,1.11,2.141,1.475,3.569,1.3"/>
	<path fill-rule="evenodd" clip-rule="evenodd" fill="none" stroke="#000000" stroke-width="0.8479" stroke-linecap="round" d="
		M278.045,162.655c0.565,0,1.131,0,1.696,0c0.848,0,1.696,0,2.544,0c0.156,0.721-0.331,0.8-0.848,0.848
		C280.322,163.615,275.302,163.631,278.045,162.655z"/>
	<path fill-rule="evenodd" clip-rule="evenodd" fill="none" stroke="#000000" stroke-width="1.6601" stroke-linecap="round" d="
		M213.183,221.583c0.873-0.569,1.502-0.841,2.12-1.272"/>
	<path fill-rule="evenodd" clip-rule="evenodd" fill="none" stroke="#000000" stroke-width="1.3135" stroke-linecap="round" d="
		M249.641,294.5c1.025,0.626,0.472,1.868,0.456,2.528c0.113,0.721,0.569,1.97,1.596,2.639c4.193-0.865,5.356-4.994,4.732-8.982"/>
	<path fill-rule="evenodd" clip-rule="evenodd" fill="none" stroke="#000000" stroke-width="1.4376" stroke-linecap="round" d="
		M256.424,290.685c-1.512,0.12-1.878-1.996-3.392-2.119"/>
	<path fill-rule="evenodd" clip-rule="evenodd" fill="none" stroke="#000000" stroke-width="1.2524" stroke-linecap="round" d="
		M256.424,290.685c0.142-0.041,0.284-0.083,0.426-0.124c1.317-2.418,2.165-6.941-1.274-7.931"/>
	<path fill-rule="evenodd" clip-rule="evenodd" fill="none" stroke="#000000" stroke-width="1.2287" stroke-linecap="round" d="
		M202.584,350.036c3.187-2.14,7.261-2.87,10.599-4.663"/>
	<path fill-rule="evenodd" clip-rule="evenodd" fill="none" stroke="#000000" stroke-width="1.6958" stroke-linecap="round" d="
		M187.322,126.621c0.229,0.269,0.762,0.44,1.271,0.848"/>
	<path fill-rule="evenodd" clip-rule="evenodd" fill="none" stroke="#000000" stroke-width="1.1135" stroke-linecap="round" d="
		M187.322,126.621c-7.192-0.91-14.124-1.033-21.355,0.266c-2.918,0.524-9.357,2.229-13.165,3.793
		c-1.283,0.526-2.084,1.024-3.394,1.694c-0.661,0.338-1.539,0.061-2.112,0.431c-1.045,0.673-2.436,2.219-4.672,3.801
		c-1.736,1.229-4.62,2.038-5.292,4.449c6.609,4.788,16.046,4.558,21.303,11.285"/>
	<path fill-rule="evenodd" clip-rule="evenodd" fill="none" stroke="#000000" stroke-width="1.9534" stroke-linecap="round" d="
		M158.635,152.339c1.958,0.807,3.912,1.471,5.37,3.109"/>
	<path fill-rule="evenodd" clip-rule="evenodd" fill="none" stroke="#000000" stroke-width="1.3554" stroke-linecap="round" d="
		M158.635,152.339c-1.141,0.941-2.837,0.373-3.957-0.283"/>
	<path fill-rule="evenodd" clip-rule="evenodd" fill="none" stroke="#000000" stroke-width="1.0323" stroke-linecap="round" d="
		M187.322,126.621c-3.005-5.928-9.418-8.163-13.99-12.718"/>
	<path fill-rule="evenodd" clip-rule="evenodd" fill="none" stroke="#000000" stroke-width="2.4961" stroke-linecap="round" d="
		M173.332,113.902c-0.283,0-0.565,0-0.848,0"/>
	<path fill-rule="evenodd" clip-rule="evenodd" fill="none" stroke="#000000" stroke-width="1.1312" stroke-linecap="round" d="
		M173.332,113.902c6.323-0.866,11.817,3.12,17.806,4.663"/>
	<path fill-rule="evenodd" clip-rule="evenodd" fill="none" stroke="#000000" stroke-width="1.3442" stroke-linecap="round" d="
		M191.138,118.565c-2.086-8.152-11.483-11.815-17.385-16.502c0.194-0.495,0.973-0.956,1.461-1.542
		c15.852-2.619,31.881,2.879,44.463,11.881c0.242,0.173,0.766,0,1.061,0.198c4.579,3.064,6.531,7.11,11.098,10.629"/>
	<path fill-rule="evenodd" clip-rule="evenodd" fill="none" stroke="#000000" stroke-width="1.342" stroke-linecap="round" d="
		M231.836,123.229c0.198-0.283,0.396-0.565,0.593-0.848c1.06-6.508-4.342-11.196-5.045-17.381"/>
	<path fill-rule="evenodd" clip-rule="evenodd" fill="none" stroke="#000000" stroke-width="1.8576" stroke-linecap="round" d="
		M227.384,105c-0.75-1.028-1.26-1.546-1.908-1.696"/>
	<path fill-rule="evenodd" clip-rule="evenodd" fill="none" stroke="#000000" stroke-width="1.2136" stroke-linecap="round" d="
		M227.384,105c4.392,1.168,10.55,7.09,13.578,12.495c0.912,1.628,1.862,2.691,2.438,3.625c0.164,0.266,0.782,0.322,0.938,0.642
		c2.357,4.839,3.203,9.639,4.173,14.75"/>
	<path fill-rule="evenodd" clip-rule="evenodd" fill="none" stroke="#000000" stroke-width="1.3767" stroke-linecap="round" d="
		M248.511,136.512c2.278-0.004,1.518-2.856,3.674-3.109"/>
	<path fill-rule="evenodd" clip-rule="evenodd" fill="none" stroke="#000000" stroke-width="2.211" stroke-linecap="round" d="
		M252.185,133.403c0.084-1.973,0.083-4.132,0.848-5.935"/>
	<path fill-rule="evenodd" clip-rule="evenodd" fill="none" stroke="#000000" stroke-width="1.1536" stroke-linecap="round" d="
		M252.185,133.403c0.538,1.923-1.035,4.005-0.018,5.7c3.599,0.294,6.96-3.381,10.617-1.884"/>
	<path fill-rule="evenodd" clip-rule="evenodd" fill="none" stroke="#000000" stroke-width="1.5862" stroke-linecap="round" d="
		M262.783,137.219c0.947-0.697,1.497-0.804,2.12-1.271"/>
	<path fill-rule="evenodd" clip-rule="evenodd" fill="none" stroke="#000000" stroke-width="1.1156" stroke-linecap="round" d="
		M262.783,137.219c-2.687,2.928-7.551,3.315-9.327,6.783"/>
	<path fill-rule="evenodd" clip-rule="evenodd" fill="none" stroke="#000000" stroke-width="1.1063" stroke-linecap="round" d="
		M253.457,144.002c1.119,0.906,2.355-0.083,3.14-0.253c4.545-0.988,10.177,0.404,14.242,1.949"/>
	<path fill-rule="evenodd" clip-rule="evenodd" fill="none" stroke="#000000" stroke-width="1.0725" stroke-linecap="round" d="
		M253.457,144.002c-0.551,0.297-1.372,0.324-2.12,0.424"/>
	<path fill-rule="evenodd" clip-rule="evenodd" fill="none" stroke="#000000" stroke-width="1.8316" stroke-linecap="round" d="
		M248.511,136.512c-0.077,0.256-0.11,0.689-0.142,1.13"/>
	<path fill-rule="evenodd" clip-rule="evenodd" fill="none" stroke="#000000" stroke-width="1.1254" stroke-linecap="round" d="
		M231.836,123.229c2.293,2.89,4.24,5.882,6.359,8.903"/>
	<path fill-rule="evenodd" clip-rule="evenodd" fill="none" stroke="#000000" stroke-width="1.4686" stroke-linecap="round" d="
		M191.138,118.565c0.575,0.279,1.179,0.855,1.696,1.272"/>
	<path fill-rule="evenodd" clip-rule="evenodd" fill="none" stroke="#000000" stroke-width="1.4212" stroke-linecap="round" d="
		M164.854,188.516c5.837,2.612,12.434,4.356,17.78,8.067c0.126,0.087,0.354,0.027,0.487,0.104"/>
	<path fill-rule="evenodd" clip-rule="evenodd" fill="none" stroke="#000000" stroke-width="2.1295" stroke-linecap="round" d="
		M183.121,196.686c2.211-0.675,4.141,0.893,6.321,0.732"/>
	<path fill-rule="evenodd" clip-rule="evenodd" fill="none" stroke="#000000" stroke-width="2.428" stroke-linecap="round" d="
		M183.121,196.686c0.438,1.141,0.872,2.047,1.375,3.276"/>
	<path fill-rule="evenodd" clip-rule="evenodd" fill="none" stroke="#000000" stroke-width="1.3013" stroke-linecap="round" d="
		M184.496,199.962c1.826-0.392,3.275,0.96,4.946,1.272"/>
	<path fill-rule="evenodd" clip-rule="evenodd" fill="none" stroke="#000000" stroke-width="1.57" stroke-linecap="round" d="
		M189.018,212.68c2.155-0.736,1.644-3.313,1.696-5.087"/>
	<path fill-rule="evenodd" clip-rule="evenodd" fill="none" stroke="#000000" stroke-width="1.2819" stroke-linecap="round" d="
		M199.616,228.366c-0.047,0.611,0.103,1.03,0.263,1.439c0.734,0.451,1.244,0.62,1.716,0.822"/>
	<path fill-rule="evenodd" clip-rule="evenodd" fill="none" stroke="#000000" stroke-width="1.1653" stroke-linecap="round" d="
		M201.595,230.627c2.479-1.709,5.718-0.771,8.196-2.261"/>
	<path fill-rule="evenodd" clip-rule="evenodd" fill="none" stroke="#000000" stroke-width="1.1991" stroke-linecap="round" d="
		M209.791,228.366c-0.283-0.282-0.565-0.565-0.848-0.848"/>
	<path fill-rule="evenodd" clip-rule="evenodd" fill="none" stroke="#000000" stroke-width="1.7168" stroke-linecap="round" d="
		M209.791,228.366c4.167-0.967,8.719,0.106,12.718-1.696"/>
	<path fill-rule="evenodd" clip-rule="evenodd" fill="none" stroke="#000000" stroke-width="2.6133" stroke-linecap="round" d="
		M222.509,226.67c0-0.565,0-1.13,0-1.695"/>
	<path fill-rule="evenodd" clip-rule="evenodd" fill="none" stroke="#000000" stroke-width="1.548" stroke-linecap="round" d="
		M222.509,224.975c-0.77-1.096-1.603-2.821-1.696-4.24"/>
	<path fill-rule="evenodd" clip-rule="evenodd" fill="none" stroke="#000000" stroke-width="1.085" stroke-linecap="round" d="
		M222.509,224.975c7.656-6.616,16.469-12.918,27.132-12.718"/>
	<path fill-rule="evenodd" clip-rule="evenodd" fill="none" stroke="#000000" stroke-width="1.2412" stroke-linecap="round" d="
		M222.509,226.67c1.201,0.694,2.2,0.794,2.928,1.305c0.691,1.76,0.745,4.124,0.04,5.902"/>
	<path fill-rule="evenodd" clip-rule="evenodd" fill="none" stroke="#000000" stroke-width="1.4276" stroke-linecap="round" d="
		M225.618,234.583c0.109,0.034,0.219,0.067,0.328,0.1c4.15,3.398,4.034,11.057,6.084,15.428c1.202,2.561,2.315,6.465,3.918,10.601
		c1.309,3.376,2.524,5.467,3.642,9.076c0.897,2.896,1.918,4.481,5.6,6.271"/>
	<path fill-rule="evenodd" clip-rule="evenodd" fill="none" stroke="#000000" stroke-width="1.3582" stroke-linecap="round" d="
		M245.19,276.06c0.237-0.197,0.61-0.362,0.99-0.526c1.397,0.035,2.446,1.204,2.934,2.404c0.096,1.018,0.175,2.559-0.034,3.37
		c-2.891,4.312-7.159,6.759-10.885,10.226"/>
	<path fill-rule="evenodd" clip-rule="evenodd" fill="none" stroke="#000000" stroke-width="1.2842" stroke-linecap="round" d="
		M238.195,291.533c1.323,2.233,4.36,2.313,6.783,2.543"/>
	<path fill-rule="evenodd" clip-rule="evenodd" fill="none" stroke="#000000" stroke-width="1.7986" stroke-linecap="round" d="
		M238.195,291.533c-0.815-0.034-1.823,0.036-2.543,0.212"/>
	<path fill-rule="evenodd" clip-rule="evenodd" fill="none" stroke="#000000" stroke-width="1.6145" stroke-linecap="round" d="
		M235.651,291.745c-0.686,6.74,1.636,12.605,3.695,18.985c0.237,0.734,0.03,1.604,0.251,2.292
		c1.502,4.662,5.154,10.006,2.083,14.933c-0.236,1.284-0.077,2.568,0.429,3.765c5.489,3.036,2.36,9.458,1.596,14.219"/>
	<path fill-rule="evenodd" clip-rule="evenodd" fill="none" stroke="#000000" stroke-width="1.3833" stroke-linecap="round" d="
		M152.559,208.441c-0.862-0.268-1.708-0.553-2.295-1.097c-4.631-0.373-8.257-4.478-10.664-7.989
		c-0.75-2.217-0.957-4.756,0.551-6.727c0.24-1.863-1.545-3.641-0.479-5.556c0.692-1.167,2.163-1.023,2.949-2.148
		c0.15-1.019-0.146-1.689-0.205-2.335c-2.098-3.139-3.925-6.599-6.83-9.022c-0.318-0.699-0.768-1.381-1.147-2.13
		c0.357-2.232,1.701-4.777,3.347-6.427c2.535-0.523,4.287,2.065,6.295,3.157"/>
	<path fill-rule="evenodd" clip-rule="evenodd" fill="none" stroke="#000000" stroke-width="1.555" stroke-linecap="round" d="
		M144.08,168.167c1.928,0.003,3.761-0.688,5.723-0.424"/>
	<path fill-rule="evenodd" clip-rule="evenodd" fill="none" stroke="#000000" stroke-width="1.6733" stroke-linecap="round" d="
		M149.803,167.743c0.885-2.266,0.243-4.926,1.708-6.989c3.599-1.354,6.781,2.313,6.559,5.717"/>
	<path fill-rule="evenodd" clip-rule="evenodd" fill="none" stroke="#000000" stroke-width="1.2746" stroke-linecap="round" d="
		M158.07,166.471c2.865,0.219,5.406-1.065,8.229-1.11c0.222-0.373,0.335-0.687,0.443-0.999c0.081-1.045-1.72-1.482-2.473-2.332
		c-0.755-0.853-1.121-1.635-2.144-2.158c-4.753-2.432-9.209-4.71-15.078-7.815"/>
	<path fill-rule="evenodd" clip-rule="evenodd" fill="none" stroke="#000000" stroke-width="1.1127" stroke-linecap="round" d="
		M152.559,208.441c3.786-5.062,7.621-10.119,12.859-13.708"/>
	<path fill-rule="evenodd" clip-rule="evenodd" fill="none" stroke="#000000" stroke-width="1.3495" stroke-linecap="round" d="
		M165.418,194.733c0.672-2.08-0.546-4.095-0.565-6.218"/>
	<path fill-rule="evenodd" clip-rule="evenodd" fill="none" stroke="#000000" stroke-width="1.1568" stroke-linecap="round" d="
		M164.854,188.516c-0.677-1.855-0.906-4.395-3.392-4.664"/>
	<path fill-rule="evenodd" clip-rule="evenodd" fill="none" stroke="#000000" stroke-width="1.0384" stroke-linecap="round" d="
		M161.462,183.852c0,0.424,0,0.848,0,1.272"/>
	<path fill-rule="evenodd" clip-rule="evenodd" fill="none" stroke="#000000" stroke-width="1.5108" stroke-linecap="round" d="
		M161.462,183.852c-3.481-4.862-3.428-11.491-3.392-17.381"/>
	<path fill-rule="evenodd" clip-rule="evenodd" fill="none" stroke="#000000" stroke-width="1.1029" stroke-linecap="round" d="
		M165.418,194.733c0.106,0.034,0.213,0.068,0.319,0.103c1.819,0.289,1.951,2.322,2.761,3.601c2.404,0.953,2.436,3.599,3.74,5.552
		c0.099,0.148,0.539,0.132,0.68,0.33c3.04,4.236,5.859,8.009,9.129,12.789c0.717,1.049,2.085,1.261,2.935,2.152
		c2.499,2.624,4.287,5.861,7.193,8.068c2.511,0.373,5.112-0.165,7.441,1.038"/>
	<path fill-rule="evenodd" clip-rule="evenodd" fill="none" stroke="#000000" stroke-width="1.2771" stroke-linecap="round" d="
		M199.616,228.366c1.354-1.211,2.695-1.844,4.463-1.473c0.227-0.6,0.246-1.772-0.192-2.513c-6.669-0.826-15.307-3.194-14.869-11.699
		"/>
	<path fill-rule="evenodd" clip-rule="evenodd" fill="none" stroke="#000000" stroke-width="1.1443" stroke-linecap="round" d="
		M189.018,212.68c-3.344-3.443-2.884-8.395-4.522-12.718"/>
	<path fill-rule="evenodd" clip-rule="evenodd" fill="none" stroke="#000000" stroke-width="1.4686" stroke-linecap="round" d="
		M202.584,232.605c0.051,0.282,0.234,0.565,0.424,0.848"/>
	<path fill-rule="evenodd" clip-rule="evenodd" fill="none" stroke="#000000" stroke-width="1.1968" stroke-linecap="round" d="
		M152.559,208.441c-1.223,1.51-1.604,3.351-2.791,4.84c-0.184,1.008-0.207,2.159,0.083,2.958c1.739,0.192,3.751,0.408,4.686,2.094
		c-0.012,1.224,0.959,2.424,1.938,3.086c1.677,0.013,3.196,0.721,4.727,1.255c3.561,2.024,6.528,5.43,9.78,8.048
		c0.496,0.399,1.143,0.293,1.498,0.573c4.328,3.397,8.396,6.057,10.92,11.061"/>
	<path fill-rule="evenodd" clip-rule="evenodd" fill="none" stroke="#000000" stroke-width="2.0149" stroke-linecap="round" d="
		M183.4,242.355c1.744,0.412,4.109,0.353,5.029,2.215c0.17,1.129,0.119,2.747,0.023,3.721"/>
	<path fill-rule="evenodd" clip-rule="evenodd" fill="none" stroke="#000000" stroke-width="1.5862" stroke-linecap="round" d="
		M188.453,248.291c-0.175,1.541-1.521,2.283-2.645,3.089"/>
	<path fill-rule="evenodd" clip-rule="evenodd" fill="none" stroke="#000000" stroke-width="1.4686" stroke-linecap="round" d="
		M184.354,256.346c-1.862,3.35-2.851,7.085-3.781,11.006c0.114,1.925,1.955,2.369,3.258,3.093c0.096,0.507,0.054,1.09-0.041,1.551
		c-0.156,0.258-0.821,0.366-0.929,0.673c-3.479,9.835-4.656,26.816-1.633,41.068c1.084,5.11,4.286,13.509,6.399,19.885
		c0.242,0.73,0.002,1.607,0.252,2.302c0.659,1.831,2.249,3.17,2.028,5.075c-2.484,2.885-6.037,6.386-3.01,10.311"/>
	<path fill-rule="evenodd" clip-rule="evenodd" fill="none" stroke="#000000" stroke-width="1.4532" stroke-linecap="round" d="
		M186.898,351.309c2.555,1.262,4.488,3.655,5.936,5.935"/>
	<path fill-rule="evenodd" clip-rule="evenodd" fill="none" stroke="#000000" stroke-width="1.5862" stroke-linecap="round" d="
		M186.898,351.309c-0.762,1.031-1.552,2.34-1.13,3.674"/>
	<path fill-rule="evenodd" clip-rule="evenodd" fill="none" stroke="#000000" stroke-width="1.2347" stroke-linecap="round" d="
		M185.768,354.982c0.11,0.03,0.221,0.061,0.331,0.091c8.576,9.409,22.949,11.515,34.927,8.529"/>
	<path fill-rule="evenodd" clip-rule="evenodd" fill="none" stroke="#000000" stroke-width="1.6236" stroke-linecap="round" d="
		M221.025,363.603c0.091-0.391,0.613-1.105,1.201-1.837"/>
	<path fill-rule="evenodd" clip-rule="evenodd" fill="none" stroke="#000000" stroke-width="2.0114" stroke-linecap="round" d="
		M222.227,361.766c-1.437-6.108-4.035-12.922,0-18.653"/>
	<path fill-rule="evenodd" clip-rule="evenodd" fill="none" stroke="#000000" stroke-width="1.5183" stroke-linecap="round" d="
		M222.227,343.112c0.763-4.22-3.085-6.304-5.125-9.156c-0.282-9.265,0.609-18.845-3.32-27.337c-0.722-0.85-0.968-1.686-0.882-2.227"
		/>
	<path fill-rule="evenodd" clip-rule="evenodd" fill="none" stroke="#000000" stroke-width="1.3303" stroke-linecap="round" d="
		M212.9,304.393c-2.395-3.771-5.03-7.126-7.349-10.74"/>
	<path fill-rule="evenodd" clip-rule="evenodd" fill="none" stroke="#000000" stroke-width="1.1806" stroke-linecap="round" d="
		M212.9,304.393c5.447-2.615,10.097-6.766,13.849-11.588"/>
	<path fill-rule="evenodd" clip-rule="evenodd" fill="none" stroke="#000000" stroke-width="1.113" stroke-linecap="round" d="
		M222.227,343.112c4.719-0.342,8.776-3.496,13-5.37"/>
	<path fill-rule="evenodd" clip-rule="evenodd" fill="none" stroke="#000000" stroke-width="1.5943" stroke-linecap="round" d="
		M222.227,361.766c3.857,0.743,7.755,1.146,11.729,0.989"/>
	<path fill-rule="evenodd" clip-rule="evenodd" fill="none" stroke="#000000" stroke-width="1.8959" stroke-linecap="round" d="
		M221.025,363.603c0.212,0.424,0.424,0.848,0.636,1.271"/>
	<path fill-rule="evenodd" clip-rule="evenodd" fill="none" stroke="#000000" stroke-width="1.3119" stroke-linecap="round" d="
		M221.661,364.874c4.192,2.75,11.481,1.855,16.823,0.714c1.121-0.239,2.432-1.107,3.644-1.443c0.755-0.209,1.596-0.035,2.293-0.25
		c3.883-1.193,6.999-3.658,10.53-4.716c0.224-0.794,0.227-2.412,0.008-2.955c-2.87-1.602-5.083-4.093-8.287-4.915"/>
	<path fill-rule="evenodd" clip-rule="evenodd" fill="none" stroke="#000000" stroke-width="1.4607" stroke-linecap="round" d="
		M246.674,351.309c0.081,4.459-3.525,7.381-6.783,9.75"/>
	<path fill-rule="evenodd" clip-rule="evenodd" fill="none" stroke="#000000" stroke-width="1.765" stroke-linecap="round" d="
		M246.674,351.309c-1.268-1.662-0.482-4.588-2.968-5.37"/>
	<path fill-rule="evenodd" clip-rule="evenodd" fill="none" stroke="#000000" stroke-width="2.7474" stroke-linecap="round" d="
		M243.706,345.938c-0.511,0.493-0.651,1.263-0.848,1.979"/>
	<path fill-rule="evenodd" clip-rule="evenodd" fill="none" stroke="#000000" stroke-width="1.7292" stroke-linecap="round" d="
		M235.651,291.745c-0.18-0.11-0.359-0.22-0.538-0.329c-0.641-7.105-5.313-11.993-8.082-18.396"/>
	<path fill-rule="evenodd" clip-rule="evenodd" fill="none" stroke="#000000" stroke-width="1.3584" stroke-linecap="round" d="
		M227.031,273.021c-0.152-0.034-0.303-0.069-0.455-0.104c-11.085,1.981-22.576,1.368-33.612-0.593
		c-1.212-1.053-2.916-0.597-4.371-0.716"/>
	<path fill-rule="evenodd" clip-rule="evenodd" fill="none" stroke="#000000" stroke-width="1.4411" stroke-linecap="round" d="
		M227.031,273.021c1.277-0.679,2.501-1.455,3.917-1.84c0.622-0.732,0.489-1.837,0.344-2.489c-5.761-5.444-5.353-13.613-3.696-20.824
		"/>
	<path fill-rule="evenodd" clip-rule="evenodd" fill="none" stroke="#000000" stroke-width="1.8077" stroke-linecap="round" d="
		M245.19,276.06c0.88,1.532,0.636,3.275,0.212,4.875"/>
	<path fill-rule="evenodd" clip-rule="evenodd" fill="none" stroke="#000000" stroke-width="1.6067" stroke-linecap="round" d="
		M144.08,168.167c-0.173,2.7,2.322,4.329,3.058,6.697c0.247,0.261,0.485,0.386,0.724,0.503c0.199,0.178,0.395,0.399,0.591,0.623
		c0.486,0.208,1.252,0.302,1.877,0.305c1.17-2.7-0.471-5.714-0.526-8.552"/>
	<path fill-rule="evenodd" clip-rule="evenodd" fill="none" stroke="#000000" stroke-width="1.226" stroke-linecap="round" d="
		M173.756,366.146c1.6-0.562,1.857-2.968,3.815-2.968"/>
	<path fill-rule="evenodd" clip-rule="evenodd" fill="none" stroke="#000000" stroke-width="1.5159" stroke-linecap="round" d="
		M173.756,366.146c0.819,3.979,3.184,1.408,5.904,1.905c0.577,0.104,1.006,0.809,1.486,0.885
		c12.067,1.907,28.144,3.311,39.233-2.059c0.254-0.475,0.72-1.28,1.283-2.004"/>
	<path fill-rule="evenodd" clip-rule="evenodd" fill="none" stroke="#000000" stroke-width="1.0927" stroke-linecap="round" d="
		M185.768,354.982c-4.354,2.521-8.431,5.175-12.246,8.386c-0.232,1.033-0.094,2.023,0.234,2.778"/>
	<path fill-rule="evenodd" clip-rule="evenodd" fill="none" stroke="#000000" stroke-width="1.9301" stroke-linecap="round" d="
		M184.354,256.346c1.101-1.377,1.608-3.226,1.454-4.966"/>
	<path fill-rule="evenodd" clip-rule="evenodd" fill="none" stroke="#000000" stroke-width="1.3521" stroke-linecap="round" d="
		M183.083,242.779c-1.181,0.129-1.817,0.344-2.492,0.518c-1.884,3.901,0.082,8.316,1.466,11.962c0.661,0.39,1.355,0.652,2.298,1.087
		"/>
	<path fill-rule="evenodd" clip-rule="evenodd" fill="none" stroke="#000000" stroke-width="4.2394" stroke-linecap="round" d="
		M183.4,242.355c-0.106,0.142-0.212,0.283-0.318,0.424"/>
	<path fill-rule="evenodd" clip-rule="evenodd" fill="none" stroke="#000000" stroke-width="3.2508" stroke-linecap="round" d="
		M183.083,242.779c0.495,2.334,0.584,4.859,1.696,6.996"/>
	<path fill-rule="evenodd" clip-rule="evenodd" fill="none" stroke="#000000" stroke-width="3.3201" stroke-linecap="round" d="
		M184.778,249.775c-0.025,0.529,0.498,1.037,1.03,1.604"/>
	<path fill-rule="evenodd" clip-rule="evenodd" fill="none" stroke="#000000" stroke-width="1.4188" stroke-linecap="round" d="
		M188.453,248.291c-1.434,0.105-2.725,0.912-3.674,1.484"/>
	<path fill-rule="evenodd" clip-rule="evenodd" fill="none" stroke="#000000" stroke-width="1.1187" stroke-linecap="round" d="
		M214.242,234.725c0.047-0.144,0.093-0.287,0.14-0.43c2.922-1.619,7.699-0.883,11.094-0.418"/>
	<path fill-rule="evenodd" clip-rule="evenodd" fill="none" stroke="#000000" stroke-width="1.8576" stroke-linecap="round" d="
		M201.595,230.627c0.029,0.9,0.6,1.489,0.989,1.979"/>
	<path fill-rule="evenodd" clip-rule="evenodd" fill="none" stroke="#000000" stroke-width="1.3204" stroke-linecap="round" d="
		M202.584,232.605c3.944,0.445,7.524,2.581,11.658,2.12"/>
	<path fill-rule="evenodd" clip-rule="evenodd" fill="none" stroke="#000000" stroke-width="1.7986" stroke-linecap="round" d="
		M225.618,234.583c-0.078-0.205-0.11-0.455-0.142-0.707"/>
	<path fill-rule="evenodd" clip-rule="evenodd" fill="none" stroke="#000000" stroke-width="1.3303" stroke-linecap="round" d="
		M214.242,234.725c0.11,0.177,0.221,0.354,0.332,0.532c3.398,1.438,7.772,0.916,11.044-0.673"/>
	<path fill-rule="evenodd" clip-rule="evenodd" fill="none" stroke="#000000" stroke-width="0.9667" stroke-linecap="round" d="
		M268.294,152.905c5.737,2.125,11.613,4.93,16.11,9.327"/>
	<path fill-rule="evenodd" clip-rule="evenodd" fill="none" stroke="#000000" stroke-width="1.3846" stroke-linecap="round" d="
		M280.165,192.755c0.282-0.283,0.565-0.565,0.848-0.848"/>
	<path fill-rule="evenodd" clip-rule="evenodd" fill="none" stroke="#000000" stroke-width="1.2718" stroke-linecap="round" d="
		M252.467,209.43c0.047,0.209,0.149,0.466,0.252,0.725c1.071,0.204,1.872,0.838,2.433,1.677"/>
	<path fill-rule="evenodd" clip-rule="evenodd" fill="none" stroke="#000000" stroke-width="1.3213" stroke-linecap="round" d="
		M255.152,211.832c1.119-0.595,2.302-0.16,2.542,0.399c-0.129,0.813-1.83,0.879-2.442,0.333
		C255.206,212.349,255.179,212.092,255.152,211.832"/>
	<path fill-rule="evenodd" clip-rule="evenodd" fill="none" stroke="#000000" stroke-width="1.8316" stroke-linecap="round" d="
		M251.337,209.289c0.498,0.017,0.818,0.078,1.13,0.141"/>
	<path fill-rule="evenodd" clip-rule="evenodd" fill="none" stroke="#000000" stroke-width="1.1412" stroke-linecap="round" d="
		M252.467,209.43c1.646-1.489,3.529-1.024,5.39-1.676c7.066-2.473,14.837-7.94,22.055-14.22c0.176-0.153,0.095-0.604,0.253-0.778"/>
	<path fill-rule="evenodd" clip-rule="evenodd" fill="none" stroke="#000000" stroke-width="1.1122" stroke-linecap="round" d="
		M280.165,192.755c-5.053,0.159-10.578,1.681-15.393,1.219c0.026-0.354,0.199-0.679,0.379-1.002
		c3.743-0.594,6.832-3.07,10.127-5.104c0.896-0.552,2.412-0.968,3.409-1.661c4.544-3.158,8.577-7.481,11.875-11.866
		c2.246-2.986,5.061-6.036,4.865-9.991"/>
	<path fill-rule="evenodd" clip-rule="evenodd" fill="none" stroke="#000000" stroke-width="1.0847" stroke-linecap="round" d="
		M295.427,164.351c-6.846,2.448-14.443,2.738-21.197,0.424"/>
	<path fill-rule="evenodd" clip-rule="evenodd" fill="none" stroke="#000000" stroke-width="1.6236" stroke-linecap="round" d="
		M295.427,164.351c0.283-0.051,0.565-0.234,0.848-0.424"/>
	<path fill-rule="evenodd" clip-rule="evenodd" fill="none" stroke="#000000" stroke-width="1.4032" stroke-linecap="round" d="
		M208.943,222.431c-0.475-1.42-2.58-3.966-4.894-6.96c-1.988-2.571-3.962-4.513-5.936-6.799c-0.934-1.083-0.972-3.125-3.136-3.375
		c-0.473,0.41-0.657,1.156-0.827,1.762c-0.081,0.337-0.272,0.648-0.47,0.958"/>
</g>
</svg>
