<?xml version="1.0" encoding="utf-8"?>
<!-- Generator: Adobe Illustrator 14.0.0, SVG Export Plug-In . SVG Version: 6.00 Build 43363)  -->
<!DOCTYPE svg PUBLIC "-//W3C//DTD SVG 1.1//EN" "http://www.w3.org/Graphics/SVG/1.1/DTD/svg11.dtd">
<svg version="1.1" id="图层_1" xmlns="http://www.w3.org/2000/svg" xmlns:xlink="http://www.w3.org/1999/xlink" x="0px" y="0px"
	 width="848px" height="480px" viewBox="0 0 848 480" enable-background="new 0 0 848 480" xml:space="preserve">
<g>
	<path fill-rule="evenodd" clip-rule="evenodd" fill="none" stroke="#000000" stroke-width="0.8479" stroke-linecap="round" d="
		M601.686,103.156c0.848,0,1.695,0,2.544,0c0,0.565,0,1.131,0,1.696c-0.849,0-1.696,0-2.544,0
		C601.686,104.287,601.686,103.721,601.686,103.156z"/>
	<path fill-rule="evenodd" clip-rule="evenodd" fill="none" stroke="#000000" stroke-width="0.8479" stroke-linecap="round" d="
		M657.646,120.113c-0.155-0.721,0.331-0.8,0.848-0.848c0.565,0,1.131,0,1.696,0c0.848,0,1.695,0,2.544,0
		c0.155,0.721-0.331,0.8-0.849,0.848C660.472,120.113,659.059,120.113,657.646,120.113z"/>
	<path fill-rule="evenodd" clip-rule="evenodd" fill="none" stroke="#000000" stroke-width="0.8479" stroke-linecap="round" d="
		M677.146,137.071c0.17,0.113,0.707-0.142,0.849,0c0.089,0.089-0.106,0.802,0,0.848c0.716,0.307,1.801-0.246,2.543,0
		C680.809,139.416,675.789,139.432,677.146,137.071z"/>
	<path fill-rule="evenodd" clip-rule="evenodd" fill="none" stroke="#000000" stroke-width="1.1305" stroke-linecap="round" d="
		M624.791,151.485c2.756,0.482,5.184,1.298,7.842,2.12"/>
	<path fill-rule="evenodd" clip-rule="evenodd" fill="none" stroke="#000000" stroke-width="1.8859" stroke-linecap="round" d="
		M624.154,170.563c2.828,2.365,1.512,6.368,2.544,9.327"/>
	<path fill-rule="evenodd" clip-rule="evenodd" fill="none" stroke="#000000" stroke-width="1.4503" stroke-linecap="round" d="
		M622.883,193.879c-0.348-3.038,0.16-7.199,0.338-9.868c0.309-4.635-0.709-9.259,0.934-13.449"/>
	<path fill-rule="evenodd" clip-rule="evenodd" fill="none" stroke="#000000" stroke-width="2.6133" stroke-linecap="round" d="
		M624.154,170.563c0-0.283,0-0.565,0-0.848"/>
	<path fill-rule="evenodd" clip-rule="evenodd" fill="none" stroke="#000000" stroke-width="1.9273" stroke-linecap="round" d="
		M624.154,169.714c-0.297-0.848-0.323-1.696-0.424-2.543"/>
	<path fill-rule="evenodd" clip-rule="evenodd" fill="none" stroke="#000000" stroke-width="1.507" stroke-linecap="round" d="
		M624.154,169.714c0.618-0.421,1.032-0.723,1.438-1.02c0.43-5.705-0.422-11.602-0.801-17.21"/>
	<path fill-rule="evenodd" clip-rule="evenodd" fill="none" stroke="#000000" stroke-width="1.7986" stroke-linecap="round" d="
		M624.791,151.485c-0.117-0.282-0.166-0.565-0.213-0.848"/>
	<path fill-rule="evenodd" clip-rule="evenodd" fill="none" stroke="#000000" stroke-width="1.3213" stroke-linecap="round" d="
		M640.688,174.378c0.861-0.697,2.465-0.533,2.685,0.707"/>
	<path fill-rule="evenodd" clip-rule="evenodd" fill="none" stroke="#000000" stroke-width="1.6087" stroke-linecap="round" d="
		M643.373,175.084c1.833-0.113,2.871,1.615,4.098,2.685"/>
	<path fill-rule="evenodd" clip-rule="evenodd" fill="none" stroke="#000000" stroke-width="1.6395" stroke-linecap="round" d="
		M631.785,178.193c2.282-2.301,5.5-4.073,8.903-3.815"/>
	<path fill-rule="evenodd" clip-rule="evenodd" fill="none" stroke="#000000" stroke-width="1.0384" stroke-linecap="round" d="
		M640.688,174.378c0.184,0.379,0.412,0.723,0.643,1.064c0.718,0.17,1.396-0.096,2.042-0.358"/>
	<path fill-rule="evenodd" clip-rule="evenodd" fill="none" stroke="#000000" stroke-width="1.584" stroke-linecap="round" d="
		M630.09,191.759c1.884-6.038,11.485-9.186,15.458-2.837c0.201,0.701,0.197,1.71,0.228,2.413"/>
	<path fill-rule="evenodd" clip-rule="evenodd" fill="none" stroke="#000000" stroke-width="1.4219" stroke-linecap="round" d="
		M593.207,193.455c-0.071-2.436,1.521-4.514,3.815-5.087"/>
	<path fill-rule="evenodd" clip-rule="evenodd" fill="none" stroke="#000000" stroke-width="1.3429" stroke-linecap="round" d="
		M638.356,190.487c0.646-0.033,1.036,0.047,1.416,0.132c2.28,3.635,1.541,8.453-0.574,11.944c-0.954,0.207-2.096,0.216-3.052,0.093
		c-2.179-1.723-3.275-5.986-1.394-8.142"/>
	<path fill-rule="evenodd" clip-rule="evenodd" fill="none" stroke="#000000" stroke-width="1.548" stroke-linecap="round" d="
		M638.356,190.487c-0.22-0.425-0.442-0.591-0.666-0.744c-2.507-0.052-3.204,2.756-2.938,4.772"/>
	<path fill-rule="evenodd" clip-rule="evenodd" fill="none" stroke="#000000" stroke-width="1.3167" stroke-linecap="round" d="
		M638.356,190.487c0.016,1.497,0.456,3.192-0.86,4.451c-0.994,0.183-1.675-0.125-2.309-0.245c-0.145-0.06-0.29-0.119-0.435-0.178"/>
	<path fill-rule="evenodd" clip-rule="evenodd" fill="none" stroke="#000000" stroke-width="1.1312" stroke-linecap="round" d="
		M612.284,213.804c6.513,2.041,13.29-0.726,18.653-4.664"/>
	<path fill-rule="evenodd" clip-rule="evenodd" fill="none" stroke="#000000" stroke-width="0.8479" stroke-linecap="round" d="
		M618.644,209.141c0.848,0,1.695,0,2.544,0c0,0.565,0,1.131,0,1.696c-0.849,0-1.696,0-2.544,0
		C618.644,210.271,618.644,209.706,618.644,209.141z"/>
	<path fill-rule="evenodd" clip-rule="evenodd" fill="none" stroke="#000000" stroke-width="1.1991" stroke-linecap="round" d="
		M647.896,348.617c2.936-1.863,6.73-1.761,10.174-1.696"/>
	<path fill-rule="evenodd" clip-rule="evenodd" fill="none" stroke="#000000" stroke-width="1.0575" stroke-linecap="round" d="
		M597.87,379.141c0.776-0.354,1.372-0.889,1.696-1.695"/>
	<path fill-rule="evenodd" clip-rule="evenodd" fill="none" stroke="#000000" stroke-width="1.103" stroke-linecap="round" d="
		M619.915,101.884c2.079,1.497,0.89,4.645,2.544,5.935"/>
	<path fill-rule="evenodd" clip-rule="evenodd" fill="none" stroke="#000000" stroke-width="1.1575" stroke-linecap="round" d="
		M607.197,95.949c2.071,3.381,5.516,6.011,7.207,9.75"/>
	<path fill-rule="evenodd" clip-rule="evenodd" fill="none" stroke="#000000" stroke-width="1.4686" stroke-linecap="round" d="
		M614.404,105.7c0.872,0.873,1.502,1.502,2.119,2.12"/>
	<path fill-rule="evenodd" clip-rule="evenodd" fill="none" stroke="#000000" stroke-width="1.0074" stroke-linecap="round" d="
		M614.404,105.7c-2.434,0.964-4.584-1.733-7.207-1.272"/>
	<path fill-rule="evenodd" clip-rule="evenodd" fill="none" stroke="#000000" stroke-width="1.9228" stroke-linecap="round" d="
		M604.653,94.253c0.742,0.803,1.575,1.182,2.544,1.696"/>
	<path fill-rule="evenodd" clip-rule="evenodd" fill="none" stroke="#000000" stroke-width="1.1091" stroke-linecap="round" d="
		M607.197,95.949c5.141-0.202,7.863,5.799,12.718,5.935"/>
	<path fill-rule="evenodd" clip-rule="evenodd" fill="none" stroke="#000000" stroke-width="1.6666" stroke-linecap="round" d="
		M619.915,101.884c0.329-3.735-3.106-5.773-3.392-9.327"/>
	<path fill-rule="evenodd" clip-rule="evenodd" fill="none" stroke="#000000" stroke-width="1.1342" stroke-linecap="round" d="
		M623.307,92.558c3.017,3.306,5.442,7.044,9.098,9.556c2.473,4.403,4.479,9.014,5.881,13.902"/>
	<path fill-rule="evenodd" clip-rule="evenodd" fill="none" stroke="#000000" stroke-width="1.1847" stroke-linecap="round" d="
		M638.285,116.016c2.188-1.476,2.026-5.05,4.099-6.924"/>
	<path fill-rule="evenodd" clip-rule="evenodd" fill="none" stroke="#000000" stroke-width="1.6958" stroke-linecap="round" d="
		M642.384,109.091c-0.713-1.006,0.067-2.532,1.06-3.18"/>
	<path fill-rule="evenodd" clip-rule="evenodd" fill="none" stroke="#000000" stroke-width="2.6362" stroke-linecap="round" d="
		M643.443,105.912c0.116-0.449,0.166-0.965,0.212-1.484"/>
	<path fill-rule="evenodd" clip-rule="evenodd" fill="none" stroke="#000000" stroke-width="1.4686" stroke-linecap="round" d="
		M643.443,105.912c0.909,0.757,1.066,2.314,0.637,3.18"/>
	<path fill-rule="evenodd" clip-rule="evenodd" fill="none" stroke="#000000" stroke-width="1.2031" stroke-linecap="round" d="
		M644.08,109.091c1.577,1.443-0.632,3.48-0.654,3.57c-0.307,1.2,0.16,3.298-1.065,3.315c-0.431,0.748-0.279,1.763,0.07,2.279
		c3.399-1.009,4.356-3.454,10.286-4.761c0.467-0.103,4.923-1.483,7.175-0.112c-2.18,2.87-6.604,3.184-8.083,6.71
		c0.349,0.311,1.301,0.34,2.021,0.445"/>
	<path fill-rule="evenodd" clip-rule="evenodd" fill="none" stroke="#000000" stroke-width="1.8316" stroke-linecap="round" d="
		M638.285,116.016c-0.076,0.256-0.109,0.689-0.141,1.13"/>
	<path fill-rule="evenodd" clip-rule="evenodd" fill="none" stroke="#000000" stroke-width="1.7785" stroke-linecap="round" d="
		M642.384,109.091c0.575,0,1.179,0,1.696,0"/>
	<path fill-rule="evenodd" clip-rule="evenodd" fill="none" stroke="#000000" stroke-width="0.948" stroke-linecap="round" d="
		M577.945,125.625c1.194-0.05,1.632,0.387,2.119,0.848"/>
	<path fill-rule="evenodd" clip-rule="evenodd" fill="none" stroke="#000000" stroke-width="1.2968" stroke-linecap="round" d="
		M556.324,176.921c-0.227-0.013-0.454-0.026-0.682-0.04c-1.867-3.769-6.086-6.596-8.231-9.405
		c-3.731-4.883-6.532-10.625-8.718-16.591c-3.113-8.495-5.682-17.707-3.874-26.431c0.298-0.065,0.666-0.059,1.038-0.049
		c0.245,0.146,0.455,0.352,0.664,0.562c2.082,0.729,3.149,2.743,4.742,3.847c0.879,0.608,2.046,0.741,2.953,1.286
		c1.254,0.752,1.79,1.837,2.904,2.184c0.46,0.144,1.132-0.085,1.579,0.116c1.929,0.867,3.921,2.655,6.236,2.271
		c0.075-0.378,0.026-0.674-0.028-0.966c-3.188-3.458-7.256-6.737-8.979-10.849c1.813-0.676,2.987,0.23,4.641,0.892
		c7.853,3.144,19.416,3.223,27.204,2.256c0.071-0.009,0.103-0.348,0.171-0.38"/>
	<path fill-rule="evenodd" clip-rule="evenodd" fill="none" stroke="#000000" stroke-width="1.1809" stroke-linecap="round" d="
		M577.945,125.625c-0.046-0.138-0.092-0.276-0.137-0.415c-2.686-2.099-5.387-3.44-8.119-5.32c-3.281-2.259-6.293-4.777-9.738-7.219
		c-0.784-0.62-1.387-1.624-1.345-2.408c13.206-0.17,24.371-6.258,37.567-6.683"/>
	<path fill-rule="evenodd" clip-rule="evenodd" fill="none" stroke="#000000" stroke-width="1.3767" stroke-linecap="round" d="
		M666.549,131.56c1.694,1.26,4.051,0.782,5.935,1.696"/>
	<path fill-rule="evenodd" clip-rule="evenodd" fill="none" stroke="#000000" stroke-width="2.3982" stroke-linecap="round" d="
		M672.483,133.256c0.873-0.152,1.502-0.331,2.12-0.424"/>
	<path fill-rule="evenodd" clip-rule="evenodd" fill="none" stroke="#000000" stroke-width="1.0876" stroke-linecap="round" d="
		M672.483,133.256c-1.161,1.222-2.305,1.435-3.142,1.934c-0.236,0.4-0.338,0.708-0.433,1.01c1.453,1.309,3.386,1.421,5.271,1.295"/>
	<path fill-rule="evenodd" clip-rule="evenodd" fill="none" stroke="#000000" stroke-width="2.0013" stroke-linecap="round" d="
		M664.005,132.408c0.88-0.177,1.568-0.444,2.544-0.848"/>
	<path fill-rule="evenodd" clip-rule="evenodd" fill="none" stroke="#000000" stroke-width="1.0422" stroke-linecap="round" d="
		M666.549,131.56c4.973-2.785,10.768-3.666,16.24-4.715c-0.025-0.356-0.201-0.677-0.385-0.997c-0.476-0.075-0.84-0.264-1.198-0.458
		c-4.559-2.558-9.366-4.405-14.657-4.853"/>
	<path fill-rule="evenodd" clip-rule="evenodd" fill="none" stroke="#000000" stroke-width="2.0331" stroke-linecap="round" d="
		M631.785,222.283c0.272,0.848,0.518,1.695,0.848,2.543"/>
	<path fill-rule="evenodd" clip-rule="evenodd" fill="none" stroke="#000000" stroke-width="2.472" stroke-linecap="round" d="
		M632.633,224.827c0.465,0.565,0.662,1.13,0.848,1.696"/>
	<path fill-rule="evenodd" clip-rule="evenodd" fill="none" stroke="#000000" stroke-width="1.4686" stroke-linecap="round" d="
		M633.48,226.522c2.111,0.472,2.755,2.674,3.816,4.239"/>
	<path fill-rule="evenodd" clip-rule="evenodd" fill="none" stroke="#000000" stroke-width="1.1163" stroke-linecap="round" d="
		M637.297,230.762c4.715,0.104,8.211,4.385,13.142,4.239"/>
	<path fill-rule="evenodd" clip-rule="evenodd" fill="none" stroke="#000000" stroke-width="1.5369" stroke-linecap="round" d="
		M637.297,230.762c-0.732,1.723-1.897,3.129-2.12,5.087"/>
	<path fill-rule="evenodd" clip-rule="evenodd" fill="none" stroke="#000000" stroke-width="1.4247" stroke-linecap="round" d="
		M635.177,235.849c0.22,3.059,0.193,6.795-1.303,9.589c-1.182,0.265-2.553,0.304-3.557-0.487c-0.257-0.544-0.896-1.189-1.499-1.895"
		/>
	<path fill-rule="evenodd" clip-rule="evenodd" fill="none" stroke="#000000" stroke-width="1.5813" stroke-linecap="round" d="
		M625.002,247.719c2.095,2.748,1.436,6.727,0.424,9.751"/>
	<path fill-rule="evenodd" clip-rule="evenodd" fill="none" stroke="#000000" stroke-width="2.355" stroke-linecap="round" d="
		M622.459,261.285c-0.754,1.519-1.23,2.481-2.12,3.815"/>
	<path fill-rule="evenodd" clip-rule="evenodd" fill="none" stroke="#000000" stroke-width="2.3982" stroke-linecap="round" d="
		M620.339,265.101c0.142,0.142,0.282,0.283,0.425,0.424"/>
	<path fill-rule="evenodd" clip-rule="evenodd" fill="none" stroke="#000000" stroke-width="1.3945" stroke-linecap="round" d="
		M622.459,278.243c3.764,2.015,8.44,1.406,12.583,0.713c4.074-0.683,9.442-3.314,13.277-3.681"/>
	<path fill-rule="evenodd" clip-rule="evenodd" fill="none" stroke="#000000" stroke-width="1.2677" stroke-linecap="round" d="
		M648.319,275.275c0.914-0.881,1.29-1.489,1.606-2.07c-2.626-7.6-6.189-15.857-4.958-23.908c7.211,1.011,14.135,2.793,20.905,5.033
		c1.57,0.519,2.803,0.123,4.058,0.563c4.278,1.5,9.053,6.224,14.596,8.747c0.763,0.153,1.533,0.119,2.241,0.049
		c0.535-0.305,1.099-0.589,1.602-0.932c0.443-2.864,3.35-4.184,2.344-7.407"/>
	<path fill-rule="evenodd" clip-rule="evenodd" fill="none" stroke="#000000" stroke-width="1.4002" stroke-linecap="round" d="
		M690.713,255.35c-0.041-0.142-0.083-0.283-0.125-0.426c-1.542-0.547-3.25-0.963-4.538-2.117"/>
	<path fill-rule="evenodd" clip-rule="evenodd" fill="none" stroke="#000000" stroke-width="1.8152" stroke-linecap="round" d="
		M686.05,252.807c-0.44,1.574-0.837,3.595,0,5.087"/>
	<path fill-rule="evenodd" clip-rule="evenodd" fill="none" stroke="#000000" stroke-width="1.6278" stroke-linecap="round" d="
		M686.05,252.807c-0.166-5.045-0.285-11.344,3.392-15.262"/>
	<path fill-rule="evenodd" clip-rule="evenodd" fill="none" stroke="#000000" stroke-width="1.168" stroke-linecap="round" d="
		M689.441,237.545c-0.361-0.906-0.644-1.608-1.075-2.333c-0.396-0.202-0.709-0.301-1.019-0.395c-1.503,0.167-2.871,0.782-4.03,1.716
		c-2.224-0.797-5.145-0.519-6.782,1.672c-6.43,0.105-13.609-0.632-19.313-2.355"/>
	<path fill-rule="evenodd" clip-rule="evenodd" fill="none" stroke="#000000" stroke-width="1.6102" stroke-linecap="round" d="
		M648.319,275.275c1.142,1.663,1.631,4.411,2.516,7.198c2.24,7.062,5.239,14.489,6.717,21.594c0.553,2.66,0.615,5.396,0.986,7.922
		c0.042,0.283,0.547,0.467,0.581,0.714c0.256,1.813,0.037,4.178,0.225,6.103c0.399,4.098,2.002,11.527,0.092,17.48
		c-0.085,1.025-0.163,2.563,0.037,3.384c2.644,1.036,3.632,2.986,4.103,5.437c0.117,0.607-1.547,2.339-0.868,4.35
		c0.301,0.892,0.932,1.454,0.874,2.129"/>
	<path fill-rule="evenodd" clip-rule="evenodd" fill="none" stroke="#000000" stroke-width="1.6341" stroke-linecap="round" d="
		M663.581,351.585c0.991,1.19,0.869,2.15,0,3.391"/>
	<path fill-rule="evenodd" clip-rule="evenodd" fill="none" stroke="#000000" stroke-width="1.1863" stroke-linecap="round" d="
		M663.581,354.976c2.189,3.228,5.8,4.845,8.244,7.866c2.907,0.04,4.819,2.327,6.857,4.026c0.319,0.96,0.361,2.512,0.054,3.323
		c-0.499,0.296-1.159,0.618-1.73,1.036"/>
	<path fill-rule="evenodd" clip-rule="evenodd" fill="none" stroke="#000000" stroke-width="1.5577" stroke-linecap="round" d="
		M677.006,371.228c0.136,0.948-0.296,2.54-1.555,2.401"/>
	<path fill-rule="evenodd" clip-rule="evenodd" fill="none" stroke="#000000" stroke-width="1.4332" stroke-linecap="round" d="
		M675.451,373.629c-0.788,0.868-2.033,1.738-3.25,1.555"/>
	<path fill-rule="evenodd" clip-rule="evenodd" fill="none" stroke="#000000" stroke-width="1.1595" stroke-linecap="round" d="
		M627.122,358.367c3.472,9.854-7.882,13.372-14.167,17.205c-2.77,0.397-5.232,2.061-8.182,1.993
		c-1.274,0.922-1.913,2.94-3.581,3.201c-0.26,0.023-0.519,0.047-0.778,0.069"/>
	<path fill-rule="evenodd" clip-rule="evenodd" fill="none" stroke="#000000" stroke-width="1.2952" stroke-linecap="round" d="
		M596.174,354.128c-0.056,0.412-0.112,0.825-0.168,1.237c-2.775,2.858-5.091,6.051-8.111,8.701c-0.657,0.577-1.135,1.646-2,2.188
		c-1.057,0.661-2.188,0.58-3.072,1.23c-0.973,0.714-1.566,1.59-2.334,2.754"/>
	<path fill-rule="evenodd" clip-rule="evenodd" fill="none" stroke="#000000" stroke-width="1.0384" stroke-linecap="round" d="
		M580.488,370.238c0.334,0.231,0.8,0.331,1.272,0.424"/>
	<path fill-rule="evenodd" clip-rule="evenodd" fill="none" stroke="#000000" stroke-width="1.1653" stroke-linecap="round" d="
		M581.761,370.662c0.904-0.509,1.796-1.03,2.544-1.696"/>
	<path fill-rule="evenodd" clip-rule="evenodd" fill="none" stroke="#000000" stroke-width="1.6168" stroke-linecap="round" d="
		M580.488,372.781c-0.091,0.981,0.217,1.824,0.506,2.883c0.307,0.35,1.301,0.391,2.32,0.509"/>
	<path fill-rule="evenodd" clip-rule="evenodd" fill="none" stroke="#000000" stroke-width="1.4971" stroke-linecap="round" d="
		M583.314,376.173c-0.2-2.561,2.775-3.14,2.686-5.511"/>
	<path fill-rule="evenodd" clip-rule="evenodd" fill="none" stroke="#000000" stroke-width="1.522" stroke-linecap="round" d="
		M583.314,376.173c0.684,1.392,2.441,2.769,3.957,1.696"/>
	<path fill-rule="evenodd" clip-rule="evenodd" fill="none" stroke="#000000" stroke-width="1.2677" stroke-linecap="round" d="
		M587.271,377.869c0.443-1.987,0.703-4.758,2.968-5.512"/>
	<path fill-rule="evenodd" clip-rule="evenodd" fill="none" stroke="#000000" stroke-width="1.0946" stroke-linecap="round" d="
		M587.271,377.869c0.5,1.155,1.743,2.029,3.005,2.073c0.538-0.448,1.558-0.704,2.931-0.802"/>
	<path fill-rule="evenodd" clip-rule="evenodd" fill="none" stroke="#000000" stroke-width="1.5369" stroke-linecap="round" d="
		M593.207,379.141c0.105-1.931,0.963-4,2.543-5.087"/>
	<path fill-rule="evenodd" clip-rule="evenodd" fill="none" stroke="#000000" stroke-width="1.1991" stroke-linecap="round" d="
		M593.207,379.141c0.109,0.639,0.517,1.379,1.271,1.695"/>
	<path fill-rule="evenodd" clip-rule="evenodd" fill="none" stroke="#000000" stroke-width="1.765" stroke-linecap="round" d="
		M564.379,198.118c-0.283,0-0.564,0-0.848,0"/>
	<path fill-rule="evenodd" clip-rule="evenodd" fill="none" stroke="#000000" stroke-width="1.0582" stroke-linecap="round" d="
		M564.379,198.118c1.985-1.294,5.26,0.717,6.77-1.234c-0.047-0.426-0.364-1.028-0.631-1.511
		c-11.715-3.741-22.125-11.987-28.412-22.462c-0.13-0.75-0.346-1.347-0.533-1.903c3.377,0.303,6.465,3.076,9.664,4.641"/>
	<path fill-rule="evenodd" clip-rule="evenodd" fill="none" stroke="#000000" stroke-width="0.9737" stroke-linecap="round" d="
		M564.379,198.118c1.448,1.994,4.701,1.791,6.536,3.639c2.884-0.257,4.972,2.085,7.878,1.873"/>
	<path fill-rule="evenodd" clip-rule="evenodd" fill="none" stroke="#000000" stroke-width="1.4314" stroke-linecap="round" d="
		M578.793,203.63c-0.499-3.638-2.296-7.733-0.575-11.287c0.51-0.055,1.109,0.256,1.609,0.501c0.698,1.605,1.679,3.024,1.934,4.851"
		/>
	<path fill-rule="evenodd" clip-rule="evenodd" fill="none" stroke="#000000" stroke-width="1.6322" stroke-linecap="round" d="
		M581.761,197.694c2.827,0.295,2.929,4.181,5.935,4.664"/>
	<path fill-rule="evenodd" clip-rule="evenodd" fill="none" stroke="#000000" stroke-width="1.1886" stroke-linecap="round" d="
		M587.695,202.358c0.271-3.669-3.806-7.097-1.695-10.599"/>
	<path fill-rule="evenodd" clip-rule="evenodd" fill="none" stroke="#000000" stroke-width="3.1235" stroke-linecap="round" d="
		M586,191.759c-0.699-1.176-1.461-2.379-1.271-3.815"/>
	<path fill-rule="evenodd" clip-rule="evenodd" fill="none" stroke="#000000" stroke-width="2.0184" stroke-linecap="round" d="
		M584.729,187.944c-0.449-0.551-0.654-1.372-0.848-2.12"/>
	<path fill-rule="evenodd" clip-rule="evenodd" fill="none" stroke="#000000" stroke-width="1.0969" stroke-linecap="round" d="
		M584.729,187.944c1.77-2.854,1.584-6.981,1.537-10.333c-0.027-1.947,2.49-7.935,3.785-10.617c1.134-2.35,1.697-3.104,3.379-5.112
		c0.285-0.341,0.137-0.943,0.439-1.244c0.861-0.855,2.182-1.184,2.713-1.639c2.98-2.555,5.545-5.457,10.615-5.394"/>
	<path fill-rule="evenodd" clip-rule="evenodd" fill="none" stroke="#000000" stroke-width="1.572" stroke-linecap="round" d="
		M607.197,153.605c0.867-1.811,1.443-3.648,2.543-5.087"/>
	<path fill-rule="evenodd" clip-rule="evenodd" fill="none" stroke="#000000" stroke-width="1.3234" stroke-linecap="round" d="
		M607.197,153.605c-2.117,7.668-1.902,15.914-1.021,23.659c0.022,0.198-0.385,0.445-0.394,0.646"/>
	<path fill-rule="evenodd" clip-rule="evenodd" fill="none" stroke="#000000" stroke-width="2.0769" stroke-linecap="round" d="
		M605.783,177.911c0.047,0.484,1.191,1.613,2.05,2.19"/>
	<path fill-rule="evenodd" clip-rule="evenodd" fill="none" stroke="#000000" stroke-width="2.0184" stroke-linecap="round" d="
		M607.833,180.101c1.06-1.043,1.629-2.347,2.331-2.897"/>
	<path fill-rule="evenodd" clip-rule="evenodd" fill="none" stroke="#000000" stroke-width="1.6003" stroke-linecap="round" d="
		M610.164,177.204c0.125-2.536-0.059-5.013-0.424-7.49"/>
	<path fill-rule="evenodd" clip-rule="evenodd" fill="none" stroke="#000000" stroke-width="2.1015" stroke-linecap="round" d="
		M610.164,177.204c0.736,0.494,1.255,1.651,2.12,2.685"/>
	<path fill-rule="evenodd" clip-rule="evenodd" fill="none" stroke="#000000" stroke-width="1.2524" stroke-linecap="round" d="
		M612.284,179.889c1.519-1.357,0.079-3.757,1.696-5.087"/>
	<path fill-rule="evenodd" clip-rule="evenodd" fill="none" stroke="#000000" stroke-width="2.0769" stroke-linecap="round" d="
		M613.98,174.802c-0.244-1.13-0.373-2.261-0.424-3.392"/>
	<path fill-rule="evenodd" clip-rule="evenodd" fill="none" stroke="#000000" stroke-width="1.1796" stroke-linecap="round" d="
		M613.98,174.802c2.219,4.052,2.305,9.215,5.087,12.718"/>
	<path fill-rule="evenodd" clip-rule="evenodd" fill="none" stroke="#000000" stroke-width="1.6419" stroke-linecap="round" d="
		M612.284,179.889c0.472,1.373,0.435,2.849,0.848,4.239"/>
	<path fill-rule="evenodd" clip-rule="evenodd" fill="none" stroke="#000000" stroke-width="2.0092" stroke-linecap="round" d="
		M607.833,180.101c0.015,2.3,1.808,3.86,1.483,6.147"/>
	<path fill-rule="evenodd" clip-rule="evenodd" fill="none" stroke="#000000" stroke-width="1.7273" stroke-linecap="round" d="
		M605.783,177.911c-5.322-2.375-12.996-3.002-15.544,3.674"/>
	<path fill-rule="evenodd" clip-rule="evenodd" fill="none" stroke="#000000" stroke-width="1.5285" stroke-linecap="round" d="
		M586,191.759c0.545,0.897,1.034,1.309,1.695,1.696"/>
	<path fill-rule="evenodd" clip-rule="evenodd" fill="none" stroke="#000000" stroke-width="1.333" stroke-linecap="round" d="
		M592.359,212.532c4.545,8.138,14.195,8.997,22.186,11.164"/>
	<path fill-rule="evenodd" clip-rule="evenodd" fill="none" stroke="#000000" stroke-width="1.6623" stroke-linecap="round" d="
		M614.545,223.696c4.617-0.418,9.371,0.357,13.85-0.989"/>
	<path fill-rule="evenodd" clip-rule="evenodd" fill="none" stroke="#000000" stroke-width="2.0184" stroke-linecap="round" d="
		M628.395,222.707c1.13,0.067,2.26-0.072,3.391-0.424"/>
	<path fill-rule="evenodd" clip-rule="evenodd" fill="none" stroke="#000000" stroke-width="1.3599" stroke-linecap="round" d="
		M631.785,222.283c4.784-3.202,10.063-4.287,13.783-8.232c1.271-1.347,2.723-4.223,3.811-5.758"/>
	<path fill-rule="evenodd" clip-rule="evenodd" fill="none" stroke="#000000" stroke-width="1.5599" stroke-linecap="round" d="
		M649.379,208.293c-0.049-3.936,1.676-7.705,2.756-11.446"/>
	<path fill-rule="evenodd" clip-rule="evenodd" fill="none" stroke="#000000" stroke-width="1.2646" stroke-linecap="round" d="
		M652.135,196.847c-0.575-9.885,1.247-20.876-4.465-29.451c-0.452-0.678-2.104-3.749-3.231-5.251
		c-2.167-1.934-5.317-3.116-6.718-5.996"/>
	<path fill-rule="evenodd" clip-rule="evenodd" fill="none" stroke="#000000" stroke-width="1.88" stroke-linecap="round" d="
		M652.135,196.847c1.708-0.396,2.271-2.548,4.239-2.544"/>
	<path fill-rule="evenodd" clip-rule="evenodd" fill="none" stroke="#000000" stroke-width="1.1562" stroke-linecap="round" d="
		M658.493,201.086c5.787-1.453,11.532-4.724,15.349-9.47c-0.691-0.499-1.838-0.752-2.206-1.553"/>
	<path fill-rule="evenodd" clip-rule="evenodd" fill="none" stroke="#000000" stroke-width="1.1216" stroke-linecap="round" d="
		M671.636,190.063c-1.782-0.354-2.406,1.536-3.392,2.544"/>
	<path fill-rule="evenodd" clip-rule="evenodd" fill="none" stroke="#000000" stroke-width="1.0679" stroke-linecap="round" d="
		M671.636,190.063c5.608-5.058,11.703-9.881,15.084-17.141c0.142-0.524,0.021-0.907-0.11-1.283
		c-0.658-0.164-1.119,0.176-1.599,0.442c-0.509,0.047-0.892,0.228-1.268,0.415c-1.979,1.997-4.568,3.695-7.444,3.365"/>
	<path fill-rule="evenodd" clip-rule="evenodd" fill="none" stroke="#000000" stroke-width="1.7986" stroke-linecap="round" d="
		M676.299,175.861c-0.282,0.116-0.565,0.166-0.848,0.212"/>
	<path fill-rule="evenodd" clip-rule="evenodd" fill="none" stroke="#000000" stroke-width="1.1242" stroke-linecap="round" d="
		M676.299,175.861c1.816-3.477,4.911-4.761,7.854-8.892c2.488-3.492,3.71-7.556,5.54-11.424c0.144-0.305,0.733-0.377,0.87-0.692
		c2.136-4.902,3.184-10.183,5.482-14.994c0.119-0.764,0.333-1.357,0.518-1.907c-3.143-0.24-6.985,0.851-10.513,0.39"/>
	<path fill-rule="evenodd" clip-rule="evenodd" fill="none" stroke="#000000" stroke-width="1.7986" stroke-linecap="round" d="
		M656.374,194.303c0.297,0.873,0.323,1.502,0.424,2.12"/>
	<path fill-rule="evenodd" clip-rule="evenodd" fill="none" stroke="#000000" stroke-width="1.245" stroke-linecap="round" d="
		M649.379,208.293c3.921-0.645,6.743-4.373,9.114-7.207"/>
	<path fill-rule="evenodd" clip-rule="evenodd" fill="none" stroke="#000000" stroke-width="1.4095" stroke-linecap="round" d="
		M658.493,201.086c0.006-2.436,5.438-13.477-0.431-14.688c-1.598,2.267-0.743,5.375-1.688,7.904"/>
	<path fill-rule="evenodd" clip-rule="evenodd" fill="none" stroke="#000000" stroke-width="1.0812" stroke-linecap="round" d="
		M621.398,268.492c1.259,0.327,2.846,0.85,3.989-0.04c0.27-0.321,0.345-0.794,0.411-1.274c-0.301-0.626-0.839-1.543-1.703-2.255
		c-1.256,0.279-2.379,0.514-3.332,0.602"/>
	<path fill-rule="evenodd" clip-rule="evenodd" fill="none" stroke="#000000" stroke-width="1.3375" stroke-linecap="round" d="
		M591.37,294.918c-0.027,6.125-0.08,12.467-0.707,18.512"/>
	<path fill-rule="evenodd" clip-rule="evenodd" fill="none" stroke="#000000" stroke-width="1.4808" stroke-linecap="round" d="
		M591.512,317.245c0.553,9.01,2.705,17.65,6.782,25.013"/>
	<path fill-rule="evenodd" clip-rule="evenodd" fill="none" stroke="#000000" stroke-width="1.3067" stroke-linecap="round" d="
		M598.294,342.258c2.16,0.282,4.492,0.153,6.359,1.271"/>
	<path fill-rule="evenodd" clip-rule="evenodd" fill="none" stroke="#000000" stroke-width="1.8591" stroke-linecap="round" d="
		M598.294,342.258c-0.669,1.481-2.878,2.041-2.598,3.856c3.942,1.974-0.788,5.33,0.478,8.014"/>
	<path fill-rule="evenodd" clip-rule="evenodd" fill="none" stroke="#000000" stroke-width="1.1747" stroke-linecap="round" d="
		M596.174,354.128c4.343-0.812,10.788,1.764,14.291,3.095c0.726,0.275,1.361,1.195,2.008,1.38
		c4.529,1.298,10.187,1.689,14.649-0.235"/>
	<path fill-rule="evenodd" clip-rule="evenodd" fill="none" stroke="#000000" stroke-width="1.4188" stroke-linecap="round" d="
		M627.122,358.367c1.04-0.508,1.842-0.774,2.402-0.989"/>
	<path fill-rule="evenodd" clip-rule="evenodd" fill="none" stroke="#000000" stroke-width="1.8548" stroke-linecap="round" d="
		M629.524,357.378c0.087-2.104,0.612-4.507-0.495-6.43"/>
	<path fill-rule="evenodd" clip-rule="evenodd" fill="none" stroke="#000000" stroke-width="2.2433" stroke-linecap="round" d="
		M629.029,350.948c-0.724,0.301-1.34,0.493-1.907,0.637"/>
	<path fill-rule="evenodd" clip-rule="evenodd" fill="none" stroke="#000000" stroke-width="1.9195" stroke-linecap="round" d="
		M629.029,350.948c0.545-0.939,1.072-2.078,1.908-3.179"/>
	<path fill-rule="evenodd" clip-rule="evenodd" fill="none" stroke="#000000" stroke-width="1.6143" stroke-linecap="round" d="
		M630.938,347.77c-2.204-1.97-2.599-5.025-3.674-7.349"/>
	<path fill-rule="evenodd" clip-rule="evenodd" fill="none" stroke="#000000" stroke-width="1.1775" stroke-linecap="round" d="
		M627.264,340.421c-2.846,2.509-4.916,6.396-7.349,9.044"/>
	<path fill-rule="evenodd" clip-rule="evenodd" fill="none" stroke="#000000" stroke-width="1.8529" stroke-linecap="round" d="
		M627.264,340.421c-0.576-4.483,0.287-9.225-0.144-13.714c-0.145-1.502-1.844-4.863,0.087-8.105"/>
	<path fill-rule="evenodd" clip-rule="evenodd" fill="none" stroke="#000000" stroke-width="1.1639" stroke-linecap="round" d="
		M627.207,318.602c-1.662-3.096-5.59-4.383-6.534-8.053c-3.919-2.754-8.144-15.611-11.78-22.979"/>
	<path fill-rule="evenodd" clip-rule="evenodd" fill="none" stroke="#000000" stroke-width="1.4977" stroke-linecap="round" d="
		M627.207,318.602c2.209-0.73,2.616-2.437,3.348-4.15c0.189-0.444,2.518-4.814,3.656-8.347c0.237-0.736,0.027-1.605,0.25-2.293
		c1.397-4.311,3.551-9.513,3.26-15.394"/>
	<path fill-rule="evenodd" clip-rule="evenodd" fill="none" stroke="#000000" stroke-width="1.6691" stroke-linecap="round" d="
		M630.938,347.77c1.453,0.88,2.146,1.438,3.392,1.695"/>
	<path fill-rule="evenodd" clip-rule="evenodd" fill="none" stroke="#000000" stroke-width="1.8959" stroke-linecap="round" d="
		M629.524,357.378c0.524,0.525,1.068,1.068,1.625,1.626"/>
	<path fill-rule="evenodd" clip-rule="evenodd" fill="none" stroke="#000000" stroke-width="1.1101" stroke-linecap="round" d="
		M664.853,374.478c-0.083-1.79-0.773-2.432-1.271-3.392"/>
	<path fill-rule="evenodd" clip-rule="evenodd" fill="none" stroke="#000000" stroke-width="1.2384" stroke-linecap="round" d="
		M665.276,375.325c2.219,0.682,4.808,1.204,6.925-0.142"/>
	<path fill-rule="evenodd" clip-rule="evenodd" fill="none" stroke="#000000" stroke-width="1.3335" stroke-linecap="round" d="
		M672.201,375.184c0.148-3.182-1.75-6.277-4.805-7.065"/>
	<path fill-rule="evenodd" clip-rule="evenodd" fill="none" stroke="#000000" stroke-width="1.1216" stroke-linecap="round" d="
		M675.451,373.629c-0.522-0.741-0.542-1.574,0-2.543"/>
	<path fill-rule="evenodd" clip-rule="evenodd" fill="none" stroke="#000000" stroke-width="1.0946" stroke-linecap="round" d="
		M675.451,371.086c-0.272-0.576-0.518-1.179-0.848-1.696"/>
	<path fill-rule="evenodd" clip-rule="evenodd" fill="none" stroke="#000000" stroke-width="1.379" stroke-linecap="round" d="
		M661.461,352.856c-5.193-1.373-9.286,2.134-13.749,4.045c-1.89,0.81-4.63,1.393-6.345,2.145c-1.536,0.674-6.657,0.761-10.218-0.042
		"/>
	<path fill-rule="evenodd" clip-rule="evenodd" fill="none" stroke="#000000" stroke-width="1.4711" stroke-linecap="round" d="
		M631.149,359.004c-1.276,3.709,0.522,7.206,5.053,10.633c0.409,0.31,1.688,0.255,2.112,0.432c2.014,0.84,2.897,2.108,5.466,3.013
		c2.219,0.78,4.693,1.671,7.624,2.551c0.743,0.223,1.6,0.014,2.303,0.251c3.424,1.157,5.455,3.983,10.039,2.15
		c0.626-0.787,1.002-1.824,1.53-2.708"/>
	<path fill-rule="evenodd" clip-rule="evenodd" fill="none" stroke="#000000" stroke-width="1.8316" stroke-linecap="round" d="
		M665.276,375.325c-0.034-0.39-0.239-0.608-0.424-0.848"/>
	<path fill-rule="evenodd" clip-rule="evenodd" fill="none" stroke="#000000" stroke-width="1.2718" stroke-linecap="round" d="
		M664.853,374.478c-0.571,0.177-1.45,0.444-2.119,0.848"/>
	<path fill-rule="evenodd" clip-rule="evenodd" fill="none" stroke="#000000" stroke-width="0.9776" stroke-linecap="round" d="
		M675.875,368.966c0.157-1.331-1.305-3.348-2.632-3.064c-0.934,1.094,0.624,2.588,1.36,3.488"/>
	<path fill-rule="evenodd" clip-rule="evenodd" fill="none" stroke="#000000" stroke-width="1.7986" stroke-linecap="round" d="
		M589.18,266.797c0.682,0,1.296,0,1.908,0"/>
	<path fill-rule="evenodd" clip-rule="evenodd" fill="none" stroke="#000000" stroke-width="1.3737" stroke-linecap="round" d="
		M591.088,266.797c0.616-3.727-4.531-7.918-0.425-11.022"/>
	<path fill-rule="evenodd" clip-rule="evenodd" fill="none" stroke="#000000" stroke-width="1.6121" stroke-linecap="round" d="
		M590.663,242.208c-0.188-0.103-0.375-0.206-0.563-0.309c-6.434,2.085-6.936,11.062-4.818,17.555
		c0.822,2.521,1.754,3.559,3.075,5.416c0.493,0.692,0.48,1.393,0.823,1.927"/>
	<path fill-rule="evenodd" clip-rule="evenodd" fill="none" stroke="#000000" stroke-width="1.4686" stroke-linecap="round" d="
		M590.663,242.208c-0.525,3.728-2.06,7.349-1.651,11.274c0.453,0.494,1.147,0.984,1.651,1.443"/>
	<path fill-rule="evenodd" clip-rule="evenodd" fill="none" stroke="#000000" stroke-width="1.9228" stroke-linecap="round" d="
		M590.663,254.926c1.157-0.831,0.358-2.488,1.272-3.391"/>
	<path fill-rule="evenodd" clip-rule="evenodd" fill="none" stroke="#000000" stroke-width="1.1016" stroke-linecap="round" d="
		M597.87,237.969c-3.388-1.589-5.788,1.616-7.207,4.239"/>
	<path fill-rule="evenodd" clip-rule="evenodd" fill="none" stroke="#000000" stroke-width="2.0551" stroke-linecap="round" d="
		M597.87,237.969c0.151,2.75-2.573,4.809-2.289,7.631"/>
	<path fill-rule="evenodd" clip-rule="evenodd" fill="none" stroke="#000000" stroke-width="1.9458" stroke-linecap="round" d="
		M595.581,245.6c3.037,0.302,4.173-2.881,6.528-3.815"/>
	<path fill-rule="evenodd" clip-rule="evenodd" fill="none" stroke="#000000" stroke-width="3.9406" stroke-linecap="round" d="
		M595.581,245.6c-0.1-0.144-1.944,1.688-2.374,2.543"/>
	<path fill-rule="evenodd" clip-rule="evenodd" fill="none" stroke="#000000" stroke-width="1.3737" stroke-linecap="round" d="
		M593.207,248.143c0.352,0.914,0.262,1.961,0.15,2.66c-0.533,0.365-0.959,0.57-1.422,0.732"/>
	<path fill-rule="evenodd" clip-rule="evenodd" fill="none" stroke="#000000" stroke-width="3.4267" stroke-linecap="round" d="
		M590.663,254.926c0,0.283,0,0.566,0,0.849"/>
	<path fill-rule="evenodd" clip-rule="evenodd" fill="none" stroke="#000000" stroke-width="1.5126" stroke-linecap="round" d="
		M590.663,255.774c1.112,3.577,1.512,7.474,3.533,10.881"/>
	<path fill-rule="evenodd" clip-rule="evenodd" fill="none" stroke="#000000" stroke-width="2.1338" stroke-linecap="round" d="
		M594.196,266.655c0.279,0.056,0.647,0.113,1.02,0.171c0.465,0.465,0.808,1.158,1.101,1.666"/>
	<path fill-rule="evenodd" clip-rule="evenodd" fill="none" stroke="#000000" stroke-width="1.9335" stroke-linecap="round" d="
		M596.316,268.492c1.053,0.112,2.77-0.235,3.461-0.636"/>
	<path fill-rule="evenodd" clip-rule="evenodd" fill="none" stroke="#000000" stroke-width="1.5664" stroke-linecap="round" d="
		M599.777,267.856c-2.764-3.566-5.802-7.329-4.826-12.345c2.322-3.533,5.545-7.414,10.126-7.793"/>
	<path fill-rule="evenodd" clip-rule="evenodd" fill="none" stroke="#000000" stroke-width="1.761" stroke-linecap="round" d="
		M605.077,247.719c0.042-0.142,0.083-0.283,0.125-0.426c6.649-2.545,13.726,3.209,14.685,9.77c-0.79,2.741-2.592,5.293-5.059,6.767"
		/>
	<path fill-rule="evenodd" clip-rule="evenodd" fill="none" stroke="#000000" stroke-width="1.0384" stroke-linecap="round" d="
		M607.621,241.36c-1.4,0.233-2.328,1.407-3.815,1.271"/>
	<path fill-rule="evenodd" clip-rule="evenodd" fill="none" stroke="#000000" stroke-width="1.1353" stroke-linecap="round" d="
		M605.077,232.034c-3.12,1.026-4.916,4.005-7.207,5.935"/>
	<path fill-rule="evenodd" clip-rule="evenodd" fill="none" stroke="#000000" stroke-width="1.1991" stroke-linecap="round" d="
		M591.088,266.797c0.654,0.368,2.074,0.484,3.108-0.142"/>
	<path fill-rule="evenodd" clip-rule="evenodd" fill="none" stroke="#000000" stroke-width="3.0571" stroke-linecap="round" d="
		M599.777,267.856c1.104,0.397,1.395,0.487,1.908,0.636"/>
	<path fill-rule="evenodd" clip-rule="evenodd" fill="none" stroke="#000000" stroke-width="1.6555" stroke-linecap="round" d="
		M601.686,268.492c2.379-1.13,5.436-0.768,8.055-0.424"/>
	<path fill-rule="evenodd" clip-rule="evenodd" fill="none" stroke="#000000" stroke-width="2.3026" stroke-linecap="round" d="
		M611.775,267.56c0.642-1.532,2.453-2.146,3.053-3.73"/>
	<path fill-rule="evenodd" clip-rule="evenodd" fill="none" stroke="#000000" stroke-width="1.1425" stroke-linecap="round" d="
		M605.077,247.719c0.218,1.637,0.95,3.025,2.384,3.841c2.67,3.747,4.25,8.499,7.367,12.27"/>
	<path fill-rule="evenodd" clip-rule="evenodd" fill="none" stroke="#000000" stroke-width="1.4395" stroke-linecap="round" d="
		M605.077,232.034c1.239,2.427,0.585,5.593,2.544,7.631"/>
	<path fill-rule="evenodd" clip-rule="evenodd" fill="none" stroke="#000000" stroke-width="1.6445" stroke-linecap="round" d="
		M607.621,239.665c3.171-0.401,6.271,0.686,9.326,0"/>
	<path fill-rule="evenodd" clip-rule="evenodd" fill="none" stroke="#000000" stroke-width="1.4989" stroke-linecap="round" d="
		M616.947,239.665c0.373-1.198,1.823-2.056,2.968-1.272"/>
	<path fill-rule="evenodd" clip-rule="evenodd" fill="none" stroke="#000000" stroke-width="1.406" stroke-linecap="round" d="
		M619.915,238.393c1.113-1.439,3.065-0.762,3.957,0.565"/>
	<path fill-rule="evenodd" clip-rule="evenodd" fill="none" stroke="#000000" stroke-width="1.2713" stroke-linecap="round" d="
		M613.557,226.099c-0.184-0.186-0.368-0.371-0.552-0.556c-3.735-1.583-6.178,3.838-7.928,6.491"/>
	<path fill-rule="evenodd" clip-rule="evenodd" fill="none" stroke="#000000" stroke-width="1.256" stroke-linecap="round" d="
		M578.793,203.63c2.297,5.188,8.059,9.212,13.566,8.902"/>
	<path fill-rule="evenodd" clip-rule="evenodd" fill="none" stroke="#000000" stroke-width="1.3025" stroke-linecap="round" d="
		M592.359,212.532c-1.383-3.366-2.578-7.265-4.664-10.174"/>
	<path fill-rule="evenodd" clip-rule="evenodd" fill="none" stroke="#000000" stroke-width="1.9335" stroke-linecap="round" d="
		M581.761,197.694c-0.298,0.873-0.323,1.502-0.425,2.12"/>
	<path fill-rule="evenodd" clip-rule="evenodd" fill="none" stroke="#000000" stroke-width="1.9885" stroke-linecap="round" d="
		M614.545,223.696c-0.066,0.688-0.514,1.701-0.988,2.402"/>
	<path fill-rule="evenodd" clip-rule="evenodd" fill="none" stroke="#000000" stroke-width="1.3035" stroke-linecap="round" d="
		M613.557,226.099c-0.249,3.902,4.59,9.778,8.689,7.832c1.546-1.567,3.136-3.066,4.646-4.671c1.06-0.353,1.352-1.474,1.927-2.313"/>
	<path fill-rule="evenodd" clip-rule="evenodd" fill="none" stroke="#000000" stroke-width="1.3135" stroke-linecap="round" d="
		M628.818,226.946c1.231-0.818,2.365-1.668,3.814-2.12"/>
	<path fill-rule="evenodd" clip-rule="evenodd" fill="none" stroke="#000000" stroke-width="1.0384" stroke-linecap="round" d="
		M628.395,222.707c-0.035,1.909-0.057,3.261,0.424,4.239"/>
	<path fill-rule="evenodd" clip-rule="evenodd" fill="none" stroke="#000000" stroke-width="1.226" stroke-linecap="round" d="
		M623.872,238.958c-0.307,1.489-1.394,2.589-2.685,3.25"/>
	<path fill-rule="evenodd" clip-rule="evenodd" fill="none" stroke="#000000" stroke-width="1.1555" stroke-linecap="round" d="
		M619.915,245.176c1.062,1.342,1.873,2.76,3.108,3.957"/>
	<path fill-rule="evenodd" clip-rule="evenodd" fill="none" stroke="#000000" stroke-width="2.0478" stroke-linecap="round" d="
		M623.023,249.133c0.541-0.165,1.346-0.865,1.979-1.414"/>
	<path fill-rule="evenodd" clip-rule="evenodd" fill="none" stroke="#000000" stroke-width="1.2664" stroke-linecap="round" d="
		M625.002,247.719c0.861-1.825,1.984-3.721,3.816-4.662"/>
	<path fill-rule="evenodd" clip-rule="evenodd" fill="none" stroke="#000000" stroke-width="1.2865" stroke-linecap="round" d="
		M633.48,226.522c-1.867,4.819-6.012,8.729-9.608,12.436"/>
	<path fill-rule="evenodd" clip-rule="evenodd" fill="none" stroke="#000000" stroke-width="1.4888" stroke-linecap="round" d="
		M635.177,235.849c-2.53,1.856-5.034,4.272-6.358,7.208"/>
	<path fill-rule="evenodd" clip-rule="evenodd" fill="none" stroke="#000000" stroke-width="1.0946" stroke-linecap="round" d="
		M619.915,240.088c0.569,0.873,0.841,1.502,1.272,2.12"/>
	<path fill-rule="evenodd" clip-rule="evenodd" fill="none" stroke="#000000" stroke-width="1.6236" stroke-linecap="round" d="
		M616.947,239.665c0.993,0.555,1.768,0.85,2.968,0.424"/>
	<path fill-rule="evenodd" clip-rule="evenodd" fill="none" stroke="#000000" stroke-width="2.6133" stroke-linecap="round" d="
		M619.915,240.088c0-0.565,0-1.13,0-1.696"/>
	<path fill-rule="evenodd" clip-rule="evenodd" fill="none" stroke="#000000" stroke-width="1.3135" stroke-linecap="round" d="
		M607.621,241.36c4.476,0.248,8.387,1.587,12.294,3.815"/>
	<path fill-rule="evenodd" clip-rule="evenodd" fill="none" stroke="#000000" stroke-width="1.5369" stroke-linecap="round" d="
		M619.915,245.176c0.98-1.488,1.173-2.202,1.272-2.968"/>
	<path fill-rule="evenodd" clip-rule="evenodd" fill="none" stroke="#000000" stroke-width="1.765" stroke-linecap="round" d="
		M607.621,239.665c0,0.746,0,1.228,0,1.696"/>
	<path fill-rule="evenodd" clip-rule="evenodd" fill="none" stroke="#000000" stroke-width="1.6958" stroke-linecap="round" d="
		M623.023,249.133c0.598,2.371,0.908,4.935,0.707,7.489"/>
	<path fill-rule="evenodd" clip-rule="evenodd" fill="none" stroke="#000000" stroke-width="1.0946" stroke-linecap="round" d="
		M623.73,256.622c0.576,0.272,1.179,0.517,1.695,0.848"/>
	<path fill-rule="evenodd" clip-rule="evenodd" fill="none" stroke="#000000" stroke-width="1.5088" stroke-linecap="round" d="
		M593.207,248.143c-0.87,0.682-1.11,1.968-1.271,3.393"/>
	<path fill-rule="evenodd" clip-rule="evenodd" fill="none" stroke="#000000" stroke-width="1.3846" stroke-linecap="round" d="
		M622.459,261.285c1.886-0.39,2.369-2.305,2.967-3.815"/>
	<path fill-rule="evenodd" clip-rule="evenodd" fill="none" stroke="#000000" stroke-width="1.161" stroke-linecap="round" d="
		M623.73,256.622c-0.854,1.44-1.485,2.928-1.271,4.663"/>
	<path fill-rule="evenodd" clip-rule="evenodd" fill="none" stroke="#000000" stroke-width="2.9126" stroke-linecap="round" d="
		M611.775,267.56c-0.491,0.26-1.308,0.394-2.035,0.509"/>
	<path fill-rule="evenodd" clip-rule="evenodd" fill="none" stroke="#000000" stroke-width="1.3663" stroke-linecap="round" d="
		M595.963,276.123c2.604-0.147,4.993,0.901,7.168,1.947c6.38,0.021,13.451,3.876,19.328,0.173"/>
	<path fill-rule="evenodd" clip-rule="evenodd" fill="none" stroke="#000000" stroke-width="1.5916" stroke-linecap="round" d="
		M622.459,278.243c-0.509-3.207-1.641-6.474-1.061-9.751"/>
	<path fill-rule="evenodd" clip-rule="evenodd" fill="none" stroke="#000000" stroke-width="1.8185" stroke-linecap="round" d="
		M621.398,268.492c-0.123-0.748-0.254-1.895-0.635-2.968"/>
	<path fill-rule="evenodd" clip-rule="evenodd" fill="none" stroke="#000000" stroke-width="1.9064" stroke-linecap="round" d="
		M620.339,265.101c-2.999,0.528-5.306,4.262-8.563,2.459"/>
	<path fill-rule="evenodd" clip-rule="evenodd" fill="none" stroke="#000000" stroke-width="1.5316" stroke-linecap="round" d="
		M583.456,293.505c2.763-0.901,5.142,1.307,7.914,1.413"/>
	<path fill-rule="evenodd" clip-rule="evenodd" fill="none" stroke="#000000" stroke-width="1.6118" stroke-linecap="round" d="
		M591.37,294.918c2.255-6.05,1.376-12.953,4.593-18.795"/>
	<path fill-rule="evenodd" clip-rule="evenodd" fill="none" stroke="#000000" stroke-width="1.5445" stroke-linecap="round" d="
		M595.963,276.123c-0.469-0.796-1.271-0.902-2.13-1.508c-0.226-2.455,2.17-3.702,2.483-6.123"/>
	<path fill-rule="evenodd" clip-rule="evenodd" fill="none" stroke="#000000" stroke-width="1.398" stroke-linecap="round" d="
		M589.18,266.797c-1.619,4.425-2.551,9.173-4.487,13.401c-0.528,1.154-4.032,7.523-3.526,11.34c0.824,0.528,1.602,1.339,2.29,1.967"
		/>
	<path fill-rule="evenodd" clip-rule="evenodd" fill="none" stroke="#000000" stroke-width="1.3049" stroke-linecap="round" d="
		M601.686,268.492c1.725,2.007,4.762,1.15,7.076,1.148c0.359-0.316,0.62-0.945,0.979-1.572"/>
	<path fill-rule="evenodd" clip-rule="evenodd" fill="none" stroke="#000000" stroke-width="1.6108" stroke-linecap="round" d="
		M583.456,293.505c-0.288,0.717-0.677,1.342-1.089,2.019c0.057,6.861-0.65,13.662-0.905,20.411c1.433,0.697,3.494,0.714,4.962,0.039
		"/>
	<path fill-rule="evenodd" clip-rule="evenodd" fill="none" stroke="#000000" stroke-width="1.4188" stroke-linecap="round" d="
		M586.424,315.974c0.508-1.04,0.775-1.842,0.989-2.402"/>
	<path fill-rule="evenodd" clip-rule="evenodd" fill="none" stroke="#000000" stroke-width="1.4023" stroke-linecap="round" d="
		M587.413,313.571c-2.317-4.44-0.539-9.98-1.413-14.979"/>
	<path fill-rule="evenodd" clip-rule="evenodd" fill="none" stroke="#000000" stroke-width="1.7986" stroke-linecap="round" d="
		M587.413,313.571c0.835-0.153,2.377-0.126,3.25-0.142"/>
	<path fill-rule="evenodd" clip-rule="evenodd" fill="none" stroke="#000000" stroke-width="1.2287" stroke-linecap="round" d="
		M586.424,315.974c1.177,1.822,3.301,1.344,5.088,1.271"/>
	<path fill-rule="evenodd" clip-rule="evenodd" fill="none" stroke="#000000" stroke-width="1.7422" stroke-linecap="round" d="
		M591.512,317.245c0.07-1.513,0.111-2.561-0.849-3.815"/>
	<path fill-rule="evenodd" clip-rule="evenodd" fill="none" stroke="#000000" stroke-width="1.1991" stroke-linecap="round" d="
		M661.461,352.856c0.71,1.185,1.444,1.548,2.12,2.119"/>
	<path fill-rule="evenodd" clip-rule="evenodd" fill="none" stroke="#000000" stroke-width="1.3406" stroke-linecap="round" d="
		M663.581,351.585c-0.551,0.247-1.372,0.71-2.12,1.271"/>
	<path fill-rule="evenodd" clip-rule="evenodd" fill="none" stroke="#000000" stroke-width="0.948" stroke-linecap="round" d="
		M676.723,371.086c0.05-1.194-0.387-1.633-0.848-2.12"/>
	<path fill-rule="evenodd" clip-rule="evenodd" fill="none" stroke="#000000" stroke-width="1.0946" stroke-linecap="round" d="
		M675.875,368.966c-0.515,0.051-0.896,0.234-1.271,0.424"/>
	<path fill-rule="evenodd" clip-rule="evenodd" fill="none" stroke="#000000" stroke-width="1.0384" stroke-linecap="round" d="
		M580.488,372.781c0.381-0.185,0.72-0.411,1.057-0.64c0.105-0.46,0.162-0.969,0.216-1.479"/>
	<path fill-rule="evenodd" clip-rule="evenodd" fill="none" stroke="#000000" stroke-width="1.1991" stroke-linecap="round" d="
		M580.488,370.238c-0.449,0.815-0.293,1.823,0,2.543"/>
	<path fill-rule="evenodd" clip-rule="evenodd" fill="none" stroke="#000000" stroke-width="1.8959" stroke-linecap="round" d="
		M677.006,371.228c-0.095-0.048-0.188-0.095-0.283-0.142"/>
	<path fill-rule="evenodd" clip-rule="evenodd" fill="none" stroke="#000000" stroke-width="1.765" stroke-linecap="round" d="
		M676.723,371.086c-0.514,0-0.896,0-1.271,0"/>
	<path fill-rule="evenodd" clip-rule="evenodd" fill="none" stroke="#000000" stroke-width="1.2665" stroke-linecap="round" d="
		M705.975,229.278c-1.614-0.602-2.549-0.538-3.141-0.433c-2.207,2.504-3.691,5.792-6.609,7.852"/>
	<path fill-rule="evenodd" clip-rule="evenodd" fill="none" stroke="#000000" stroke-width="1.2495" stroke-linecap="round" d="
		M705.975,229.278c0.512-3.306,0.696-6.863,0.162-10.13c-0.375-0.208-0.682-0.39-0.986-0.57c-0.873-0.124-1.836-0.091-2.327,0.093
		c0.6,1.385-1.397,1.121-2.135,2.154c-3.89,5.451-4.93,13.631-11.247,16.721"/>
	<path fill-rule="evenodd" clip-rule="evenodd" fill="none" stroke="#000000" stroke-width="1.1073" stroke-linecap="round" d="
		M690.713,255.35c4.476,0.507,8.829-0.238,12.282-2.928c4.752,1.137,9.189,3.554,14.164,2.666c0.332-0.514,0.703-0.994,0.991-1.563
		c-0.056-4.945-8.527-3.409-9.492-7.931c3.111-1.15,6.046-2.82,8.708-4.712c0.558-0.573,0.975-1.286,1.566-1.825
		c0.121-1.274,0.711-3.25-0.805-3.926c-3.119-0.045-5.744,2.262-8.762,2.415"/>
	<path fill-rule="evenodd" clip-rule="evenodd" fill="none" stroke="#000000" stroke-width="1.6958" stroke-linecap="round" d="
		M709.366,237.545c-0.229,0.269-0.763,0.44-1.271,0.848"/>
	<path fill-rule="evenodd" clip-rule="evenodd" fill="none" stroke="#000000" stroke-width="1.3448" stroke-linecap="round" d="
		M709.366,237.545c1.441-2.509,3.236-5.016,4.938-7.224c0.307-1.967,0.696-3.936,0.032-5.878c-0.679-0.45-1.83-0.439-2.601-0.206
		c-2.145,1.521-3.223,4.161-5.761,5.042"/>
	
		<line fill-rule="evenodd" clip-rule="evenodd" fill="none" stroke="#000000" stroke-width="3.0571" stroke-linecap="round" x1="705.975" y1="229.278" x2="705.975" y2="229.278"/>
	<path fill-rule="evenodd" clip-rule="evenodd" fill="none" stroke="#000000" stroke-width="1.3982" stroke-linecap="round" d="
		M705.975,229.278c1.911,4.232-0.877,10.281-5.053,12.117c-1.574,2.511-0.572,6.746-3.85,8.021"/>
	<path fill-rule="evenodd" clip-rule="evenodd" fill="none" stroke="#000000" stroke-width="1.3017" stroke-linecap="round" d="
		M602.109,187.52c2.408-0.369,3.542,2.249,5.37,3.109"/>
	<path fill-rule="evenodd" clip-rule="evenodd" fill="none" stroke="#000000" stroke-width="1.2333" stroke-linecap="round" d="
		M598.294,194.727c0.353-0.781,0.314-1.933,0.679-2.717c1.162-0.945,2.742-1.131,3.386-0.623c0.082,0.326,0.153,0.731,0.224,1.141
		c0.055,0.167,0.109,0.335,0.164,0.503"/>
	<path fill-rule="evenodd" clip-rule="evenodd" fill="none" stroke="#000000" stroke-width="1.2765" stroke-linecap="round" d="
		M598.294,194.727c0.56,0.289,1.019,0.677,1.455,1.088c0.778,0.173,1.495,0.083,2.11-0.084c0.574-0.777,0.607-1.816,0.887-2.7"/>
	<path fill-rule="evenodd" clip-rule="evenodd" fill="none" stroke="#000000" stroke-width="1.2556" stroke-linecap="round" d="
		M598.294,194.727c-1.336,3.627,1.181,10.896,6.112,8.65c0.568-3.204,1.051-6.534-0.01-9.669c-0.532-0.325-1.068-0.528-1.65-0.677"
		/>
</g>
</svg>
