<?xml version="1.0" encoding="utf-8"?>
<!-- Generator: Adobe Illustrator 14.0.0, SVG Export Plug-In . SVG Version: 6.00 Build 43363)  -->
<!DOCTYPE svg PUBLIC "-//W3C//DTD SVG 1.1//EN" "http://www.w3.org/Graphics/SVG/1.1/DTD/svg11.dtd">
<svg version="1.1" id="图层_1" xmlns="http://www.w3.org/2000/svg" xmlns:xlink="http://www.w3.org/1999/xlink" x="0px" y="0px"
	 width="848px" height="480px" viewBox="0 0 848 480" enable-background="new 0 0 848 480" xml:space="preserve">
<g>
	<path fill-rule="evenodd" clip-rule="evenodd" fill="none" stroke="#000000" stroke-width="2.2422" stroke-linecap="round" d="
		M634.207,119.292c4.129-1.228,8.103-3.44,10.859-6.238c7.604-2.33,15.321-6.806,23.328-5.18c0.274,0.666,0.172,1.45,0.181,2.214
		c-4.122,8.447-9.456,16.034-14.646,23.717c-4.653,6.891-11.385,11.165-17.802,16.562c-3.345,2.813-6.067,7.18-10.931,7.812
		c-5.223-0.368-10.171-3.511-14.375-6.461c-0.506-0.355-1.311-0.207-1.694-0.51c-0.304-0.24-1.285-1.946-2.431-2.981
		c-1.648-1.489-5.67-3.254-5.633-7.497c0.169-7.362,1.7-14.77,1.825-22.003"/>
	<path fill-rule="evenodd" clip-rule="evenodd" fill="none" stroke="#000000" stroke-width="2.1758" stroke-linecap="round" d="
		M602.89,118.728c-0.388,0.003-0.774,0.006-1.162,0.01c-6.418,2.182-10.607,7.229-14.059,13.708
		c-0.646,1.213-0.701,3.384-1.37,4.888c-1.058,2.375-2.506,4.388-3.402,6.78c-2.398,6.404-6.683,16.564-8.942,25.354
		c-0.712,2.769-1.105,5.459-1.254,8.511"/>
	<path fill-rule="evenodd" clip-rule="evenodd" fill="none" stroke="#000000" stroke-width="2.3979" stroke-linecap="round" d="
		M647.75,180.235c1.558,2.143,6.501,3.365,8.97,4.964c2.292,1.484,5.071,4.229,6.795,5.647c5.352,4.406,9.508,7.976,13.968,13.483
		c1.008,1.244,1.203,2.634,2.117,3.727c1.296,1.552,2.373,3.081,3.381,4.511c3.585,5.09,5.471,10.254,8.234,16.127
		c1.315,2.795,3.078,4.92,4.197,7.584c2.032,4.839,3.722,10.737,4.521,14.652c3.318,16.247-0.867,25.962-5.267,34.223
		c-0.867,1.629-2.02,2.606-3.181,4.216c-8.045,11.149-15.436,17.174-25.286,20.918c-2.35,0.893-4.368,1.565-6.761,2.258
		c-8.347,2.417-17.5,2.041-27.273,3.738c-0.375,0.065-0.608,0.72-0.94,0.776c-15.51,2.627-32.165,3.529-49.361-0.604
		c-3.112-0.748-6.768-0.697-9.611-1.352c-12.914-2.97-26.646-8.544-38.087-16.61c-6.999-4.935-12.223-9.025-15.398-14.879
		c-1.787-3.294-2.151-7.548-3.672-11.791c-0.119-0.332-0.7-0.578-0.784-0.904c-1.054-4.095-2.465-10.473-0.243-18.239
		c1.201-4.198,5.132-10.865,7.528-14.494c3.323-5.032,4.905-10.404,6.79-14.67c2.926-6.623,5.264-11.47,7.902-15.804
		c1.013-1.663,1.12-3.117,2.506-4.791c2.916-3.519,15.245-18.63,23.749-20.148"/>
	<path fill-rule="evenodd" clip-rule="evenodd" fill="none" stroke="#000000" stroke-width="2.299" stroke-linecap="round" d="
		M562.543,182.774c0.74-12.67-0.992-25.439,0.061-40.682c0.025-0.375,0.747-0.636,0.772-0.954c0.27-3.347-0.042-6.911,0.355-10.332
		c0.044-0.379,0.733-0.627,0.773-0.954c0.636-5.149,1.221-14.44,3.693-18.387c2.768-4.419,12.284-9.769,15.957-11.605
		c14.34-7.169,24.687-14.961,40.24-5.914c0.564,0.328,1.813,1.75,2.622,2.232c8.974,5.354,5.857,11.917,7.189,23.113"/>
	<path fill-rule="evenodd" clip-rule="evenodd" fill="none" stroke="#000000" stroke-width="2.4271" stroke-linecap="round" d="
		M562.543,182.774c0.238,0.146,0.478,0.292,0.716,0.438c0.366,0.859,0.358,2.388,0.413,3.794"/>
	<path fill-rule="evenodd" clip-rule="evenodd" fill="none" stroke="#000000" stroke-width="2.2359" stroke-linecap="round" d="
		M647.75,180.235c-8.207,1.221-15.587,5.733-21.443,10.721"/>
	<path fill-rule="evenodd" clip-rule="evenodd" fill="none" stroke="#000000" stroke-width="2.2796" stroke-linecap="round" d="
		M647.75,180.235c0.213-0.368,0.426-0.735,0.639-1.103c13.53-4.792,27.398-14.284,42.247-11.312"/>
	<path fill-rule="evenodd" clip-rule="evenodd" fill="none" stroke="#000000" stroke-width="2.0457" stroke-linecap="round" d="
		M690.636,167.82c3.705-0.887,9.274-0.093,10.722,3.95"/>
	<path fill-rule="evenodd" clip-rule="evenodd" fill="none" stroke="#000000" stroke-width="2.1981" stroke-linecap="round" d="
		M690.636,167.82c-2.704,7.346,5.863,12.187,10.38,18.459c0.772,1.071,0.675,5.447,5.545,8.39c6.329,3.826,13.998,0.682,21.31-2.544
		c3.569-1.575,6.681-3.954,9.664-5.317c5.147-2.353,10.43-3.811,16.076-4.939c0.367-0.073,0.627-0.728,0.95-0.775
		c6.477-0.938,12.264,1.594,17.588-0.554c0.187-0.326,0.237-0.833,0.281-1.348c-4.99-9.168-11.598-15.047-20.24-17.453
		c-1.023-0.285-2.637,0.081-3.821-0.127c-0.909-0.16-2.069-0.913-2.948-1.001c-8.358-0.838-16.869,1.341-25.212,1.063
		c-1.815,1.999-4.821,0.325-7.001,1.633"/>
	<path fill-rule="evenodd" clip-rule="evenodd" fill="none" stroke="#000000" stroke-width="2.5236" stroke-linecap="round" d="
		M713.207,163.306c0.188,0.376,0.376,0.752,0.564,1.128"/>
	<path fill-rule="evenodd" clip-rule="evenodd" fill="none" stroke="#000000" stroke-width="2.1891" stroke-linecap="round" d="
		M713.207,163.306c-5.502-7.932-5.888-18.737-11.999-26.178c-0.452-0.223-1.245-0.737-1.993-1.234
		c-10.114-1.628-17.658-2.231-25.464,0.805c-5.552,2.159-14.416,8.699-18.835,12.181c-6.372,5.022-13.705,11.731-23.21,21.931
		c-2.05,2.2-2.923,4.507-6.245,5.192"/>
	<path fill-rule="evenodd" clip-rule="evenodd" fill="none" stroke="#000000" stroke-width="2.1053" stroke-linecap="round" d="
		M625.461,176.002c-2.272,5.045-6.986,8.584-9.875,13.261"/>
	<path fill-rule="evenodd" clip-rule="evenodd" fill="none" stroke="#000000" stroke-width="2.2602" stroke-linecap="round" d="
		M625.461,176.002c-3.522-2.28-12.404-1.958-20.597-1.975c-5.457-0.011-11.281-0.553-15.631,0.006
		c-2.934,0.377-6.549,1.939-9.358,2.656c-2.377,0.607-4.928,0.996-7.175,1.288"/>
	<path fill-rule="evenodd" clip-rule="evenodd" fill="none" stroke="#000000" stroke-width="2.2805" stroke-linecap="round" d="
		M572.7,177.978c-2.032,1.577-0.619,4.636-1.693,6.771"/>
	<path fill-rule="evenodd" clip-rule="evenodd" fill="none" stroke="#000000" stroke-width="2.375" stroke-linecap="round" d="
		M602.89,118.728c4.681-3.147,9.172-6.382,14.389-8.464"/>
	<path fill-rule="evenodd" clip-rule="evenodd" fill="none" stroke="#000000" stroke-width="2.1855" stroke-linecap="round" d="
		M617.278,110.263c0.33-0.927,0.946-1.817,1.693-2.821"/>
	<path fill-rule="evenodd" clip-rule="evenodd" fill="none" stroke="#000000" stroke-width="1.7844" stroke-linecap="round" d="
		M617.278,110.263c0.753,0.618,1.505,0.881,2.258,1.129"/>
	<path fill-rule="evenodd" clip-rule="evenodd" fill="none" stroke="#000000" stroke-width="2.4811" stroke-linecap="round" d="
		M634.207,119.292c-0.903,2.134-0.429,4.522-0.564,6.771"/>
	<path fill-rule="evenodd" clip-rule="evenodd" fill="none" stroke="#000000" stroke-width="2.9961" stroke-linecap="round" d="
		M555.771,222.556c1.924,4.192,2.547,10.252-0.564,14.107"/>
	<path fill-rule="evenodd" clip-rule="evenodd" fill="none" stroke="#000000" stroke-width="3.79" stroke-linecap="round" d="
		M537.15,235.535c-2.557-2.353-2.724-8.726,1.642-9.131"/>
	<path fill-rule="evenodd" clip-rule="evenodd" fill="none" stroke="#000000" stroke-width="5.2243" stroke-linecap="round" d="
		M538.792,226.403c1.399-1.608,2.153-3.995,4.377-4.788"/>
	<path fill-rule="evenodd" clip-rule="evenodd" fill="none" stroke="#000000" stroke-width="3.431" stroke-linecap="round" d="
		M543.169,221.616c0.753-2.99,2.399-5.547,4.761-7.614c1.751-0.898,4.022-0.402,5.539,0.704c1.19,2.614,3.003,4.716,2.303,7.851"/>
	<path fill-rule="evenodd" clip-rule="evenodd" fill="none" stroke="#000000" stroke-width="2.438" stroke-linecap="round" d="
		M543.169,221.616c0.843,2.73,2.626,4.812,2.728,7.712"/>
	<path fill-rule="evenodd" clip-rule="evenodd" fill="none" stroke="#000000" stroke-width="2.3792" stroke-linecap="round" d="
		M545.896,229.328c2.164,0,3.977,0,6.207,0"/>
	<path fill-rule="evenodd" clip-rule="evenodd" fill="none" stroke="#000000" stroke-width="4.3425" stroke-linecap="round" d="
		M537.15,235.535c-1.396,7.24,2.287,20.831,11.85,16.365"/>
	<path fill-rule="evenodd" clip-rule="evenodd" fill="none" stroke="#000000" stroke-width="4.6805" stroke-linecap="round" d="
		M549,251.899c-0.017-0.733,0.129-1.827,0.282-2.822"/>
	<path fill-rule="evenodd" clip-rule="evenodd" fill="none" stroke="#000000" stroke-width="4.5843" stroke-linecap="round" d="
		M549.282,249.077c-0.254-1.594-0.243-2.913-0.282-3.949"/>
	<path fill-rule="evenodd" clip-rule="evenodd" fill="none" stroke="#000000" stroke-width="2.161" stroke-linecap="round" d="
		M549,245.128c-1.086-1.069-2.427-1.574-3.386-2.258"/>
	<path fill-rule="evenodd" clip-rule="evenodd" fill="none" stroke="#000000" stroke-width="5.1471" stroke-linecap="round" d="
		M554.643,239.767c0.167-1.332,0.461-2.244,0.564-3.104"/>
	<path fill-rule="evenodd" clip-rule="evenodd" fill="none" stroke="#000000" stroke-width="2.161" stroke-linecap="round" d="
		M545.896,229.328c-0.165,0.564-0.473,1.128-0.847,1.693"/>
	<path fill-rule="evenodd" clip-rule="evenodd" fill="none" stroke="#000000" stroke-width="2.4205" stroke-linecap="round" d="
		M552.104,229.328c1.818,2.197,0.791,5.404,3.104,7.335"/>
	<path fill-rule="evenodd" clip-rule="evenodd" fill="none" stroke="#000000" stroke-width="2.2052" stroke-linecap="round" d="
		M555.771,222.556c-2.235,1.619-2.662,4.404-3.668,6.771"/>
	<path fill-rule="evenodd" clip-rule="evenodd" fill="none" stroke="#000000" stroke-width="2.4773" stroke-linecap="round" d="
		M537.15,235.535c2.153-2.46,3.801-6.122,1.642-9.131"/>
	<path fill-rule="evenodd" clip-rule="evenodd" fill="none" stroke="#000000" stroke-width="3.6859" stroke-linecap="round" d="
		M554.643,247.667c0.637-2.541,0.971-5.391,0-7.9"/>
	<path fill-rule="evenodd" clip-rule="evenodd" fill="none" stroke="#000000" stroke-width="2.161" stroke-linecap="round" d="
		M554.643,239.767c-2.972,0.493-3.293,3.874-5.643,5.361"/>
	<path fill-rule="evenodd" clip-rule="evenodd" fill="none" stroke="#000000" stroke-width="2.8708" stroke-linecap="round" d="
		M549,251.899c1.639,0.821,3.344,2.809,5.326,1.991c0.768-1.955,1.264-4.229,0.316-6.224"/>
	<path fill-rule="evenodd" clip-rule="evenodd" fill="none" stroke="#000000" stroke-width="2.7062" stroke-linecap="round" d="
		M554.643,247.667c-1.969,0.771-3.544,1.156-5.36,1.41"/>
	<path fill-rule="evenodd" clip-rule="evenodd" fill="none" stroke="#000000" stroke-width="4.6304" stroke-linecap="round" d="
		M605.429,258.671c-0.178-1.289,0.611-2.63,1.27-4.515"/>
	<path fill-rule="evenodd" clip-rule="evenodd" fill="none" stroke="#000000" stroke-width="4.3952" stroke-linecap="round" d="
		M606.698,254.156c-0.116-3.288,1.302-6.614,2.681-9.593"/>
	<path fill-rule="evenodd" clip-rule="evenodd" fill="none" stroke="#000000" stroke-width="2.8375" stroke-linecap="round" d="
		M609.379,244.563c1.307-6.444,6.036-13.181,13.166-13.543"/>
	<path fill-rule="evenodd" clip-rule="evenodd" fill="none" stroke="#000000" stroke-width="3.6225" stroke-linecap="round" d="
		M622.545,231.021c7.261-5.66,15.89,1.083,21.175,6.449"/>
	<path fill-rule="evenodd" clip-rule="evenodd" fill="none" stroke="#000000" stroke-width="3.0357" stroke-linecap="round" d="
		M622.545,231.021c1.738,3.529,3.102,7.239,2.634,11.286"/>
	<path fill-rule="evenodd" clip-rule="evenodd" fill="none" stroke="#000000" stroke-width="2.7971" stroke-linecap="round" d="
		M632.138,254.908c2.152-0.349,4.408,0.604,6.208,1.693"/>
	<path fill-rule="evenodd" clip-rule="evenodd" fill="none" stroke="#000000" stroke-width="2.8994" stroke-linecap="round" d="
		M638.346,256.602c0.601-0.099,1.683-0.401,2.633-0.753"/>
	<path fill-rule="evenodd" clip-rule="evenodd" fill="none" stroke="#000000" stroke-width="2.6165" stroke-linecap="round" d="
		M609.379,244.563c1.495,1.613,3.421,2.956,4.231,5.078"/>
	<path fill-rule="evenodd" clip-rule="evenodd" fill="none" stroke="#000000" stroke-width="2.1328" stroke-linecap="round" d="
		M613.61,249.642c5.609,0.68,8.757-3.705,11.568-7.335"/>
	<path fill-rule="evenodd" clip-rule="evenodd" fill="none" stroke="#000000" stroke-width="2.3814" stroke-linecap="round" d="
		M643.235,256.978c3.991-4.491,5.176-10.574,8.154-15.408c0.227-0.651,0.484-1.669,0.698-2.503
		c-2.476-1.593-5.863,0.377-8.368-1.597"/>
	<path fill-rule="evenodd" clip-rule="evenodd" fill="none" stroke="#000000" stroke-width="2.4318" stroke-linecap="round" d="
		M643.72,237.469c0.629,6.516-0.322,12.441-2.741,18.379"/>
	<path fill-rule="evenodd" clip-rule="evenodd" fill="none" stroke="#000000" stroke-width="2.3606" stroke-linecap="round" d="
		M613.047,254.156c3.4,7.894,14.442,6.218,19.091,0.752"/>
	<path fill-rule="evenodd" clip-rule="evenodd" fill="none" stroke="#000000" stroke-width="2.6063" stroke-linecap="round" d="
		M632.138,254.908c-1.473-4.434-1.917-10.557-6.959-12.602"/>
	<path fill-rule="evenodd" clip-rule="evenodd" fill="none" stroke="#000000" stroke-width="1.7062" stroke-linecap="round" d="
		M606.698,254.156c2.137-0.378,4.253-0.765,6.349,0"/>
	<path fill-rule="evenodd" clip-rule="evenodd" fill="none" stroke="#000000" stroke-width="2.413" stroke-linecap="round" d="
		M613.047,254.156c0.282-1.315,0.215-3.332,0.563-4.515"/>
	<path fill-rule="evenodd" clip-rule="evenodd" fill="none" stroke="#000000" stroke-width="2.6978" stroke-linecap="round" d="
		M605.429,258.671c1.427,1.698,1.169,4.155,1.692,6.207"/>
	<path fill-rule="evenodd" clip-rule="evenodd" fill="none" stroke="#000000" stroke-width="4.4452" stroke-linecap="round" d="
		M607.121,264.878c0.639,0.342,1.61,1.066,2.442,1.748c6.524,1.15,14.309,2.485,20.371-0.459"/>
	<path fill-rule="evenodd" clip-rule="evenodd" fill="none" stroke="#000000" stroke-width="2.3792" stroke-linecap="round" d="
		M629.935,266.167c1.424-4.503,8.204-4.423,8.411-9.565"/>
	<path fill-rule="evenodd" clip-rule="evenodd" fill="none" stroke="#000000" stroke-width="2.2826" stroke-linecap="round" d="
		M629.935,266.167c6.406,2.212,10.238-4.863,13.301-9.189"/>
	<path fill-rule="evenodd" clip-rule="evenodd" fill="none" stroke="#000000" stroke-width="2.5236" stroke-linecap="round" d="
		M643.235,256.978c-0.752-0.376-1.505-0.752-2.257-1.129"/>
	<path fill-rule="evenodd" clip-rule="evenodd" fill="none" stroke="#000000" stroke-width="2.7808" stroke-linecap="round" d="
		M605.429,258.671c-1.603,1.44-3.531,3.347-3.171,5.702c1.035,0.541,3.453,0.451,4.863,0.505"/>
	<path fill-rule="evenodd" clip-rule="evenodd" fill="none" stroke="#000000" stroke-width="2.5236" stroke-linecap="round" d="
		M546.743,286.603c0.57,0.37,0.994,0.887,1.41,1.411"/>
	<path fill-rule="evenodd" clip-rule="evenodd" fill="none" stroke="#000000" stroke-width="1.8324" stroke-linecap="round" d="
		M548.153,288.014c2.345,0.045,5.094-1.612,7.054,0.563"/>
	<path fill-rule="evenodd" clip-rule="evenodd" fill="none" stroke="#000000" stroke-width="2.4997" stroke-linecap="round" d="
		M555.207,288.577c3.627,0.255,7.805-0.695,12.062-1.481c1.527-0.281,6.642-1.736,9.897-2.343c9.166-1.706,18.683-4.541,24.03,3.261
		"/>
	<path fill-rule="evenodd" clip-rule="evenodd" fill="none" stroke="#000000" stroke-width="2.1364" stroke-linecap="round" d="
		M601.196,288.014c2.936-0.007,4.825,2.989,7.336,4.231"/>
	<path fill-rule="evenodd" clip-rule="evenodd" fill="none" stroke="#000000" stroke-width="3.4478" stroke-linecap="round" d="
		M608.532,292.245c1.34-0.165,2.67-0.339,3.668-0.846"/>
	<path fill-rule="evenodd" clip-rule="evenodd" fill="none" stroke="#000000" stroke-width="2.2719" stroke-linecap="round" d="
		M612.2,291.399c0.179-2.465,1.788-4.781,4.089-5.708c3.114-0.275,2.315,3.358,3.247,5.144"/>
	<path fill-rule="evenodd" clip-rule="evenodd" fill="none" stroke="#000000" stroke-width="2.7644" stroke-linecap="round" d="
		M619.536,290.835c1.594,0.464,2.913,0.534,3.949,0.847"/>
	<path fill-rule="evenodd" clip-rule="evenodd" fill="none" stroke="#000000" stroke-width="2.3403" stroke-linecap="round" d="
		M533.012,287.825c-0.87,0.252-1.948,0.31-2.811-0.043c-0.165-0.78-0.527-1.896-1.516-3.154"/>
	<path fill-rule="evenodd" clip-rule="evenodd" fill="none" stroke="#000000" stroke-width="2.8847" stroke-linecap="round" d="
		M533.012,287.825c1.291-2.747,4.492-5.972,7.807-4.326"/>
	<path fill-rule="evenodd" clip-rule="evenodd" fill="none" stroke="#000000" stroke-width="4.5143" stroke-linecap="round" d="
		M540.818,283.499c0.094,0,0.188,0,0.281,0"/>
	<path fill-rule="evenodd" clip-rule="evenodd" fill="none" stroke="#000000" stroke-width="2.5102" stroke-linecap="round" d="
		M541.1,283.499c1.536-1.205,2.704-3.666,4.952-3.458c1.222,1.929,0.456,4.408,0.691,6.562"/>
	<path fill-rule="evenodd" clip-rule="evenodd" fill="none" stroke="#000000" stroke-width="2.161" stroke-linecap="round" d="
		M541.1,283.499c1.429,1.491,3.355,3.679,5.644,3.104"/>
	<path fill-rule="evenodd" clip-rule="evenodd" fill="none" stroke="#000000" stroke-width="2.2422" stroke-linecap="round" d="
		M533.012,287.825c1.216,1.19,1.944,4.61,4.307,3.347c1.724-2.315,2.584-4.973,3.5-7.673"/>
	<path fill-rule="evenodd" clip-rule="evenodd" fill="none" stroke="#000000" stroke-width="2.3941" stroke-linecap="round" d="
		M612.2,291.399c2.436-0.186,5.023,0.469,7.336-0.564"/>
	<path fill-rule="evenodd" clip-rule="evenodd" fill="none" stroke="#000000" stroke-width="1.9987" stroke-linecap="round" d="
		M548.153,288.014c-1.04,2.26,0.489,4.16,1.688,5.927c0.519,0.302,1.044,0.338,1.569,0.361c1.698-1.508,2.742-3.693,3.797-5.725"/>
	<path fill-rule="evenodd" clip-rule="evenodd" fill="none" stroke="#000000" stroke-width="2.2669" stroke-linecap="round" d="
		M601.196,288.014c-0.934,3.007,0.386,6.08,1.274,8.81c0.891,0.308,2.062,0.229,2.903,0.037c1.185-1.512,2.859-2.457,3.158-4.615"/>
	<path fill-rule="evenodd" clip-rule="evenodd" fill="none" stroke="#000000" stroke-width="2.3769" stroke-linecap="round" d="
		M623.485,291.682c0.718,2.521-1.727,4.34-1.07,6.851c2.271,1.986,6.462,0.294,8.439-1.369
		C630.3,293.916,627.033,290.333,623.485,291.682"/>
	<path fill-rule="evenodd" clip-rule="evenodd" fill="none" stroke="#000000" stroke-width="2.1281" stroke-linecap="round" d="
		M635.336,303.813c1.53-0.042,3.717-0.283,4.138-2.069"/>
</g>
</svg>
