<?xml version="1.0" encoding="utf-8"?>
<!-- Generator: Adobe Illustrator 14.0.0, SVG Export Plug-In . SVG Version: 6.00 Build 43363)  -->
<!DOCTYPE svg PUBLIC "-//W3C//DTD SVG 1.1//EN" "http://www.w3.org/Graphics/SVG/1.1/DTD/svg11.dtd">
<svg version="1.1" id="图层_1" xmlns="http://www.w3.org/2000/svg" xmlns:xlink="http://www.w3.org/1999/xlink" x="0px" y="0px"
	 width="848px" height="480px" viewBox="0 0 848 480" enable-background="new 0 0 848 480" xml:space="preserve">
<g>
	<path fill-rule="evenodd" clip-rule="evenodd" fill="none" stroke="#000000" stroke-width="0.8585" stroke-linecap="round" d="
		M529.543,118.237c1.843-0.039,3.465-1.158,5.018-2.007"/>
	<path fill-rule="evenodd" clip-rule="evenodd" fill="none" stroke="#000000" stroke-width="2.2656" stroke-linecap="round" d="
		M508.137,130.779c0.47-2.081-0.431-4.903,1.338-6.355"/>
	<path fill-rule="evenodd" clip-rule="evenodd" fill="none" stroke="#000000" stroke-width="1.0363" stroke-linecap="round" d="
		M509.475,124.424c-0.128-3.213,2.355-6.059,4.571-7.972"/>
	<path fill-rule="evenodd" clip-rule="evenodd" fill="none" stroke="#000000" stroke-width="1.1093" stroke-linecap="round" d="
		M514.046,116.453c0.691-1.22,1.604-2.471,2.787-3.233"/>
	<path fill-rule="evenodd" clip-rule="evenodd" fill="none" stroke="#000000" stroke-width="0.946" stroke-linecap="round" d="
		M516.833,113.219c0.259-0.633,0.851-0.933,1.338-1.338"/>
	<path fill-rule="evenodd" clip-rule="evenodd" fill="none" stroke="#000000" stroke-width="1.126" stroke-linecap="round" d="
		M525.195,111.212c-1.865-1.697-5.894-2.155-7.024,0.669"/>
	<path fill-rule="evenodd" clip-rule="evenodd" fill="none" stroke="#000000" stroke-width="0.8931" stroke-linecap="round" d="
		M518.171,111.881c2.909,0.249,5.743,1.445,7.358,4.014"/>
	<path fill-rule="evenodd" clip-rule="evenodd" fill="none" stroke="#000000" stroke-width="1.5688" stroke-linecap="round" d="
		M529.209,119.575c0.183-0.446,0.261-0.892,0.334-1.338"/>
	<path fill-rule="evenodd" clip-rule="evenodd" fill="none" stroke="#000000" stroke-width="1.167" stroke-linecap="round" d="
		M529.543,118.237c-0.968-2.438-1.036-6.564-4.348-7.024"/>
	<path fill-rule="evenodd" clip-rule="evenodd" fill="none" stroke="#000000" stroke-width="0.7627" stroke-linecap="round" d="
		M525.195,111.212c-0.071,1.539,0.92,2.76,1.672,4.014"/>
	<path fill-rule="evenodd" clip-rule="evenodd" fill="none" stroke="#000000" stroke-width="1.8115" stroke-linecap="round" d="
		M527.201,118.906c-0.053-0.473-0.246-1.015-0.445-1.561"/>
	<path fill-rule="evenodd" clip-rule="evenodd" fill="none" stroke="#000000" stroke-width="1.1194" stroke-linecap="round" d="
		M526.756,117.345c-0.515,0.017-0.806-0.801-1.227-1.449"/>
	<path fill-rule="evenodd" clip-rule="evenodd" fill="none" stroke="#000000" stroke-width="0.953" stroke-linecap="round" d="
		M516.833,113.219c2.14,0.545,3.929,0.64,5.488,1.861c2.042,1.599,2.062,4.74,4.212,5.833"/>
	<path fill-rule="evenodd" clip-rule="evenodd" fill="none" stroke="#000000" stroke-width="1.0114" stroke-linecap="round" d="
		M514.046,116.453c0.485,1.01,1.508,1.596,2.452,2.119"/>
	<path fill-rule="evenodd" clip-rule="evenodd" fill="none" stroke="#000000" stroke-width="1.1093" stroke-linecap="round" d="
		M516.498,118.571c3.312,0.093,6.607,2.98,5.575,6.578"/>
	<path fill-rule="evenodd" clip-rule="evenodd" fill="none" stroke="#000000" stroke-width="1.55" stroke-linecap="round" d="
		M524.303,127.379c2.477-1.01,1.962-4.289,2.23-6.466"/>
	<path fill-rule="evenodd" clip-rule="evenodd" fill="none" stroke="#000000" stroke-width="0.946" stroke-linecap="round" d="
		M526.756,117.345c0.455-0.744,0.328-1.535,0.111-2.118"/>
	<path fill-rule="evenodd" clip-rule="evenodd" fill="none" stroke="#000000" stroke-width="0.8636" stroke-linecap="round" d="
		M526.867,115.227c-0.454,0.215-0.93,0.408-1.338,0.669"/>
	<path fill-rule="evenodd" clip-rule="evenodd" fill="none" stroke="#000000" stroke-width="1.0838" stroke-linecap="round" d="
		M509.475,124.424c1.078,0.249,1.93,1.01,3.01,1.171"/>
	<path fill-rule="evenodd" clip-rule="evenodd" fill="none" stroke="#000000" stroke-width="0.8759" stroke-linecap="round" d="
		M512.484,125.595c3.093-0.733,4.656-4.002,4.014-7.024"/>
	<path fill-rule="evenodd" clip-rule="evenodd" fill="none" stroke="#000000" stroke-width="0.9232" stroke-linecap="round" d="
		M512.484,125.595c-0.213,2.716,3.384,4.672,5.687,3.679"/>
	<path fill-rule="evenodd" clip-rule="evenodd" fill="none" stroke="#000000" stroke-width="1.1587" stroke-linecap="round" d="
		M518.171,129.274c-0.343-2.39,1.405-4.506,3.902-4.125"/>
	<path fill-rule="evenodd" clip-rule="evenodd" fill="none" stroke="#000000" stroke-width="1.1628" stroke-linecap="round" d="
		M508.137,130.779c0.285,5.201,5.848,3.633,8.152,3.303c0.759-0.108,3.495-1.026,5.028-1.661c0.561-0.233,1.195-0.07,1.675-0.333
		c3.79-2.08,6.156-7.195,6.217-12.514"/>
	<path fill-rule="evenodd" clip-rule="evenodd" fill="none" stroke="#000000" stroke-width="1.4451" stroke-linecap="round" d="
		M529.209,119.575c-0.669-0.215-1.338-0.408-2.008-0.669"/>
	<path fill-rule="evenodd" clip-rule="evenodd" fill="none" stroke="#000000" stroke-width="1.6386" stroke-linecap="round" d="
		M527.201,118.906c-0.215,0.669-0.407,1.338-0.668,2.007"/>
	<path fill-rule="evenodd" clip-rule="evenodd" fill="none" stroke="#000000" stroke-width="1.0218" stroke-linecap="round" d="
		M508.137,130.779c2.973,2.261,7.836,2.347,10.703,0.167"/>
	<path fill-rule="evenodd" clip-rule="evenodd" fill="none" stroke="#000000" stroke-width="1.0034" stroke-linecap="round" d="
		M518.84,130.947c-0.14-0.451-0.351-1.145-0.669-1.672"/>
	<path fill-rule="evenodd" clip-rule="evenodd" fill="none" stroke="#000000" stroke-width="0.8849" stroke-linecap="round" d="
		M518.84,130.947c2.341,0.258,4.795-1.263,5.463-3.568"/>
	<path fill-rule="evenodd" clip-rule="evenodd" fill="none" stroke="#000000" stroke-width="0.946" stroke-linecap="round" d="
		M524.303,127.379c-0.907-1.158-1.381-1.617-2.229-2.23"/>
	<path fill-rule="evenodd" clip-rule="evenodd" fill="none" stroke="#000000" stroke-width="0.8386" stroke-linecap="round" d="
		M499.105,129.609c-0.152-0.07-0.306-0.14-0.459-0.21c-0.562-1.468-1.582-2.796-1.548-4.473"/>
	<path fill-rule="evenodd" clip-rule="evenodd" fill="none" stroke="#000000" stroke-width="1.2476" stroke-linecap="round" d="
		M590.976,219.025c1.091,2.671,3.256,4.854,3.456,7.916"/>
	<path fill-rule="evenodd" clip-rule="evenodd" fill="none" stroke="#000000" stroke-width="0.8887" stroke-linecap="round" d="
		M585.4,217.242c1.76,0.866,3.727,0.917,5.575,1.784"/>
	<path fill-rule="evenodd" clip-rule="evenodd" fill="none" stroke="#000000" stroke-width="0.8999" stroke-linecap="round" d="
		M590.976,219.025c1.023-1.962,3.611-2.442,4.459-4.459"/>
	<path fill-rule="evenodd" clip-rule="evenodd" fill="none" stroke="#000000" stroke-width="1.1869" stroke-linecap="round" d="
		M532.888,227.945c0.413-2.904,1.269-5.606,2.007-8.362"/>
	<path fill-rule="evenodd" clip-rule="evenodd" fill="none" stroke="#000000" stroke-width="0.9673" stroke-linecap="round" d="
		M497.768,237.311c0.563,1.069,0.447,2.438,1.338,3.345"/>
	<path fill-rule="evenodd" clip-rule="evenodd" fill="none" stroke="#000000" stroke-width="1.0159" stroke-linecap="round" d="
		M493.085,290.157c-1.686,4.935,0.85,10.155,0.335,15.386"/>
	<path fill-rule="evenodd" clip-rule="evenodd" fill="none" stroke="#000000" stroke-width="1.5706" stroke-linecap="round" d="
		M592.09,318.253c0.167-0.774,0.594-0.877,0.851-1.144c1.617-4.638-0.989-9.03-1.185-13.573"/>
	<path fill-rule="evenodd" clip-rule="evenodd" fill="none" stroke="#000000" stroke-width="0.669" stroke-linecap="round" d="
		M296.079,410.234c0-0.223,0-0.446,0-0.669"/>
	<path fill-rule="evenodd" clip-rule="evenodd" fill="none" stroke="#000000" stroke-width="0.669" stroke-linecap="round" d="
		M296.079,410.234c0.398,0.294,0.854-0.483,0.669-0.669c-0.111-0.111-0.535,0.089-0.669,0"/>
	<path fill-rule="evenodd" clip-rule="evenodd" fill="none" stroke="#000000" stroke-width="0.8381" stroke-linecap="round" d="
		M622.527,230.286c0.61,1.734,0.91,3.672,2.496,4.862c3.686,1.008,7.568,1.107,10.883,3.165"/>
	<path fill-rule="evenodd" clip-rule="evenodd" fill="none" stroke="#000000" stroke-width="0.8604" stroke-linecap="round" d="
		M635.906,238.313c0.782-0.68,1.742-0.838,2.481-1.532c6.514-0.839,10.362-6.414,15.469-9.951"/>
	<path fill-rule="evenodd" clip-rule="evenodd" fill="none" stroke="#000000" stroke-width="1.3616" stroke-linecap="round" d="
		M653.856,226.83c-0.149-1.061,0.835-1.296,1.449-1.896"/>
	<path fill-rule="evenodd" clip-rule="evenodd" fill="none" stroke="#000000" stroke-width="0.9862" stroke-linecap="round" d="
		M655.306,224.935c4.651-6.428,6.046-14.569,10.063-21.277c0.086-0.143,0.413-0.125,0.487-0.271
		c0.243-0.481,0.128-1.318,0.309-1.675c0.063-0.126,0.436-0.119,0.528-0.276c2.749-4.708,4.288-10.401,8.125-14.743"/>
	<path fill-rule="evenodd" clip-rule="evenodd" fill="none" stroke="#000000" stroke-width="1.137" stroke-linecap="round" d="
		M674.817,186.693c-0.207-1.417,1.12-2.416,2.007-3.345"/>
	<path fill-rule="evenodd" clip-rule="evenodd" fill="none" stroke="#000000" stroke-width="1.0056" stroke-linecap="round" d="
		M676.824,183.348c-0.025-0.084-0.051-0.168-0.075-0.252c1.725-3.613,8.947-8.23,14.5-11.192c1.596-0.851,3.049-1.953,4.678-2.678
		c3.658-1.629,7.974-2.207,11.685-3.701c0.788-0.317,3.425-1.152,5.193-1.396c6.127-0.849,15.81-3.319,23.982-2.041
		c0.135,0.382-0.104,0.952-0.386,1.466c-7.455,4.618-15.517,7.645-22.203,13.125c-0.476,0.39-3.562,2.459-4.998,3.813
		c-2.577,2.428-4.628,5.589-7.173,8.134c-1.04,1.04-3.767,5.379-5.27,8.082c-0.195,0.082-0.365,0.162-0.534,0.242"/>
	<path fill-rule="evenodd" clip-rule="evenodd" fill="none" stroke="#000000" stroke-width="1.2096" stroke-linecap="round" d="
		M694.886,200.295c-1.329,7.314-3.863,14.697-6.243,21.406"/>
	<path fill-rule="evenodd" clip-rule="evenodd" fill="none" stroke="#000000" stroke-width="1.1071" stroke-linecap="round" d="
		M680.392,250.689c-0.246,2.236-1.441,4.142-2.492,6.173c-0.061,0.117-0.454,0.113-0.531,0.269
		c-3.481,7.013-7.598,16.17-13.7,20.316"/>
	<path fill-rule="evenodd" clip-rule="evenodd" fill="none" stroke="#000000" stroke-width="1.0467" stroke-linecap="round" d="
		M663.668,277.447c-1.69,2.35-3.283,5.19-6.021,6.355"/>
	<path fill-rule="evenodd" clip-rule="evenodd" fill="none" stroke="#000000" stroke-width="0.946" stroke-linecap="round" d="
		M636.91,297.516c-1.046,0.968-2.109,2.237-3.68,2.007"/>
	<path fill-rule="evenodd" clip-rule="evenodd" fill="none" stroke="#000000" stroke-width="1.1009" stroke-linecap="round" d="
		M633.23,299.522c-1.973,1.877-4.688,3.011-7.247,3.568"/>
	<path fill-rule="evenodd" clip-rule="evenodd" fill="none" stroke="#000000" stroke-width="0.9243" stroke-linecap="round" d="
		M625.983,303.091c-1.739,1.358-3.454,2.785-5.797,2.787"/>
	<path fill-rule="evenodd" clip-rule="evenodd" fill="none" stroke="#000000" stroke-width="0.9372" stroke-linecap="round" d="
		M620.187,305.878c-1.65,2.048-2.848,4.243-5.018,6.021"/>
	<path fill-rule="evenodd" clip-rule="evenodd" fill="none" stroke="#000000" stroke-width="1.0497" stroke-linecap="round" d="
		M615.169,311.898c0.471,0.645,0.855,1.375,1.196,2.148c0.543,0.349,1.103,0.682,1.64,1.036c4.062,6.906,4.447,15.486,9.591,21.853
		c0.41,0.254,0.753,0.511,1.119,1.052"/>
	<path fill-rule="evenodd" clip-rule="evenodd" fill="none" stroke="#000000" stroke-width="0.9933" stroke-linecap="round" d="
		M628.715,337.987c2.675,0.823,5.455,2.896,6.676,4.513c2.927,3.875,3.507,8.89,0.676,13.04c-1.354,1.983-4.372,3.29-6.281,5.003
		c-2.606,2.338-4.063,4.853-6.403,7.054c-3.56,3.348-8.201,5.553-12.7,8.043c-0.559,0.094-1.382,0.112-2.202,0.144"/>
	<path fill-rule="evenodd" clip-rule="evenodd" fill="none" stroke="#000000" stroke-width="1.141" stroke-linecap="round" d="
		M608.479,375.783c-1.536,1.742-3.418,3.886-5.909,4.236"/>
	<path fill-rule="evenodd" clip-rule="evenodd" fill="none" stroke="#000000" stroke-width="1.1558" stroke-linecap="round" d="
		M602.57,380.02c-5.201,5.904-7.835,13.684-13.797,18.78c-0.373-0.036-0.809-0.249-1.191-0.457
		c-2.267-7.165-2.377-14.881-0.844-22.225"/>
	<path fill-rule="evenodd" clip-rule="evenodd" fill="none" stroke="#000000" stroke-width="1.0034" stroke-linecap="round" d="
		M586.738,376.118c-0.434-0.122-1.163-0.37-1.783-0.781"/>
	<path fill-rule="evenodd" clip-rule="evenodd" fill="none" stroke="#000000" stroke-width="0.9581" stroke-linecap="round" d="
		M584.955,375.337c-3.477,2.091-7.85,3.156-11.93,2.119"/>
	<path fill-rule="evenodd" clip-rule="evenodd" fill="none" stroke="#000000" stroke-width="0.9683" stroke-linecap="round" d="
		M532.219,304.54c-1.942,1.777-5.094,0.658-7.358,2.007"/>
	<path fill-rule="evenodd" clip-rule="evenodd" fill="none" stroke="#000000" stroke-width="1.0495" stroke-linecap="round" d="
		M524.86,306.547c4.35,4.893,6.063,11.227,7.395,16.586c-0.059-0.235,0.465,1.19,0.787,1.954c0.052,0.122,0.464,0.118,0.533,0.271
		c1.252,2.76,2.475,5.126,4.178,7.755c1.662,2.564,4.326,5.581,4.993,7.651c2.533,7.871-1.726,12.315-8.286,14.851
		c-1.912,0.739-4.272,0.921-6.492,1.537c-2.102,0.584-3.688,1.34-5.542,1.814c-3.148,0.806-5.85,1.284-8.07,1.964
		c-6.653,2.036-16.287,6.896-25.73,5.041"/>
	<path fill-rule="evenodd" clip-rule="evenodd" fill="none" stroke="#000000" stroke-width="1.02" stroke-linecap="round" d="
		M488.625,365.972c-3.434,2.708-7.979,2.695-12.168,2.35c-0.54-0.386-0.852-0.849-1.1-1.234"/>
	<path fill-rule="evenodd" clip-rule="evenodd" fill="none" stroke="#000000" stroke-width="0.9909" stroke-linecap="round" d="
		M475.357,367.087c-3.042-0.352-6.062,1.104-9.166,1.871c-4.262,1.055-8.059,1.775-11.934,3.452
		c-2.621,1.135-5.035,3.205-8.476,3.159c-0.259-0.423-0.405-0.756-0.495-1.115c0.441-4.441,4.669-6.622,5.319-10.879"/>
	<path fill-rule="evenodd" clip-rule="evenodd" fill="none" stroke="#000000" stroke-width="1.0088" stroke-linecap="round" d="
		M450.606,363.575c-7.914,1.39-16.125,2.621-23.223,6.043c-0.816,0.132-1.344,0.392-1.861,0.454c-0.303-0.078-0.57-0.34-0.835-0.609
		c-0.652-3.465,2.505-6.082,3.286-9.288"/>
	<path fill-rule="evenodd" clip-rule="evenodd" fill="none" stroke="#000000" stroke-width="0.997" stroke-linecap="round" d="
		M427.974,360.175c-1.074-0.992-2.913,0.15-3.889-0.816c1.641-3.529,4.377-6.939,7.615-8.837c3.226-1.889,9.593-3.069,14.454-4.276
		c2.854-0.709,4.54-1.484,7.63-1.568"/>
	<path fill-rule="evenodd" clip-rule="evenodd" fill="none" stroke="#000000" stroke-width="1.0186" stroke-linecap="round" d="
		M516.833,240.32c-2.22,1.554-4.204,3.532-6.495,4.878c-4.278,0.808-8.37,2.457-12.044,4.68c-3.729,0.162-7.149,1.513-10.653,2.057
		c-7.307,1.135-14.035-0.025-21.3-0.885c-1.402,0.287-3.618,0.968-4.362-0.695"/>
	<path fill-rule="evenodd" clip-rule="evenodd" fill="none" stroke="#000000" stroke-width="1.0797" stroke-linecap="round" d="
		M461.979,250.354c-3.917-0.27-8.062,0.392-11.518-1.865c-0.249-0.437-0.408-0.774-0.523-1.145"/>
	<path fill-rule="evenodd" clip-rule="evenodd" fill="none" stroke="#000000" stroke-width="1.6612" stroke-linecap="round" d="
		M449.938,247.345c-0.217-0.221-1.374-0.473-1.783-1.004"/>
	<path fill-rule="evenodd" clip-rule="evenodd" fill="none" stroke="#000000" stroke-width="1.0465" stroke-linecap="round" d="
		M483.72,194.497c-10.079,0.483-19.437,2.398-27.909-2.863c-2.197-1.364-5.31-5.539-9.553-4.495c-0.223,0-0.445,0-0.668,0"/>
	<path fill-rule="evenodd" clip-rule="evenodd" fill="none" stroke="#000000" stroke-width="0.8283" stroke-linecap="round" d="
		M463.985,185.466c-1.549,0.664-3.363,0.185-5.017,0.334"/>
	<path fill-rule="evenodd" clip-rule="evenodd" fill="none" stroke="#000000" stroke-width="1.0308" stroke-linecap="round" d="
		M418.497,121.247c-2.828-8.26-6.035-22.567-4.595-31.363c0.005-0.033,0.252-0.026,0.274-0.056c2.652,4.819,5.412,9.891,8.07,14.961
		c0.569,0.357,0.961,0.925,1.611,1.158c1.675,4.471,5.721,7.808,7.874,12.099c0.872,1.737,2.125,2.555,3.321,4.01
		c5.173,6.29,10.198,12.832,16.891,17.253"/>
	<path fill-rule="evenodd" clip-rule="evenodd" fill="none" stroke="#000000" stroke-width="0.8755" stroke-linecap="round" d="
		M451.944,139.309c0.729-0.386,1.277-0.952,1.822-1.523c5.946-1.854,12.485-3.143,16.908-7.842"/>
	<path fill-rule="evenodd" clip-rule="evenodd" fill="none" stroke="#000000" stroke-width="1.1444" stroke-linecap="round" d="
		M470.675,129.943c-3.646-2.911-4.396-8.789-2.007-12.71"/>
	<path fill-rule="evenodd" clip-rule="evenodd" fill="none" stroke="#000000" stroke-width="0.8849" stroke-linecap="round" d="
		M468.668,117.233c-3.372-0.785-6.43-2.449-9.699-3.68"/>
	<path fill-rule="evenodd" clip-rule="evenodd" fill="none" stroke="#000000" stroke-width="0.9261" stroke-linecap="round" d="
		M458.969,113.554c-1.325-0.164-2.812-1.054-3.68-2.007"/>
	<path fill-rule="evenodd" clip-rule="evenodd" fill="none" stroke="#000000" stroke-width="1.0016" stroke-linecap="round" d="
		M455.289,111.547c-0.299-0.001-0.598-0.003-0.897-0.005c-1.008-0.528-2.093-1.043-2.931-1.852c-2.431-0.994-4.229-1.885-5.56-3.806
		c-3.545-5.114-1.515-17.713-2.487-24.74c0.123-0.745,0.512-1.228,0.864-1.353c1.929,3.061,2.42,6.947,3.808,10.493
		c0.045,0.116,0.478,0.124,0.532,0.272c1.264,3.41,1.979,7.769,5.808,9.479c1.542,0.22,3.05,0.709,4.208,1.812"/>
	<path fill-rule="evenodd" clip-rule="evenodd" fill="none" stroke="#000000" stroke-width="0.8674" stroke-linecap="round" d="
		M478.703,106.53c2.926-1.119,4.496-4.023,7.182-5.527c3.137-1.756,7.841-2.804,11.66-1.719"/>
	<path fill-rule="evenodd" clip-rule="evenodd" fill="none" stroke="#000000" stroke-width="0.9485" stroke-linecap="round" d="
		M497.545,99.283c1.999-0.164,6.352-3.277,9.058-4.322c0.71-0.274,1.7-0.137,2.329-0.347c5.391-1.798,10.118-2.748,15.936,0.886
		c0.088,0.054,0.08,0.26,0.16,0.326"/>
	<path fill-rule="evenodd" clip-rule="evenodd" fill="none" stroke="#000000" stroke-width="1.1465" stroke-linecap="round" d="
		M525.027,95.827c5.723-0.672,13.19,1.012,14.885,7.024"/>
	<path fill-rule="evenodd" clip-rule="evenodd" fill="none" stroke="#000000" stroke-width="0.97" stroke-linecap="round" d="
		M539.912,102.851c4.178-0.728,7.88-3.047,12.041-3.679"/>
	<path fill-rule="evenodd" clip-rule="evenodd" fill="none" stroke="#000000" stroke-width="0.9243" stroke-linecap="round" d="
		M551.953,99.171c1.895-1.17,3.605-2.76,6.021-2.341"/>
	<path fill-rule="evenodd" clip-rule="evenodd" fill="none" stroke="#000000" stroke-width="0.9591" stroke-linecap="round" d="
		M557.974,96.83c4.467-3.163,9.869-4.702,15.052-6.355"/>
	<path fill-rule="evenodd" clip-rule="evenodd" fill="none" stroke="#000000" stroke-width="0.9347" stroke-linecap="round" d="
		M573.025,90.475c1.771-1.164,3.749-2.385,5.908-2.564"/>
	<path fill-rule="evenodd" clip-rule="evenodd" fill="none" stroke="#000000" stroke-width="1.0676" stroke-linecap="round" d="
		M578.934,87.911c5.229-2.589,10.782-4.148,15.672-7.296c2.563-5.141,5.366-11.92,8.088-17.332c0.579-1.152,0.166-2.963,2.044-2.962
		c1.043,1.478,0.166,2.812-0.446,5.068c-0.278,1.028-0.268,3.034-0.427,4.311c-0.252,2.023-0.366,3.978-0.667,6.028
		c-0.688,4.691-1.372,9.263-2.724,13.737c-0.941,3.115-4.736,4.397-8.188,6.224c-1.502,0.795-3.229,2.238-5.027,3
		c-1.091,0.461-1.956,0.339-2.75,0.595"/>
	<path fill-rule="evenodd" clip-rule="evenodd" fill="none" stroke="#000000" stroke-width="0.8722" stroke-linecap="round" d="
		M560.983,111.881c2.169,2.824,8.097,4.915,6.69,9.366"/>
	<path fill-rule="evenodd" clip-rule="evenodd" fill="none" stroke="#000000" stroke-width="1.2557" stroke-linecap="round" d="
		M567.674,121.247c0.36,1.193,1.756,1.321,2.548,2.034c0.209,0.745-0.049,1.416-0.286,2.246c-0.45,0.212-1.033,0.984-1.37,1.741"/>
	<path fill-rule="evenodd" clip-rule="evenodd" fill="none" stroke="#000000" stroke-width="2.0618" stroke-linecap="round" d="
		M568.565,127.268c0.061,0.263,0.087,0.631,0.111,1.003"/>
	<path fill-rule="evenodd" clip-rule="evenodd" fill="none" stroke="#000000" stroke-width="1.2244" stroke-linecap="round" d="
		M568.677,128.271c2.186,1.46,3.089,4.304,3.011,6.856"/>
	<path fill-rule="evenodd" clip-rule="evenodd" fill="none" stroke="#000000" stroke-width="1.4063" stroke-linecap="round" d="
		M571.688,135.127c0.112,0.037,0.226,0.074,0.339,0.111c2.094,2.801,2.312,6.92,2.671,10.425"/>
	<path fill-rule="evenodd" clip-rule="evenodd" fill="none" stroke="#000000" stroke-width="1.2748" stroke-linecap="round" d="
		M574.697,145.664c0.974,1.962,1.36,4.525,0.669,6.689"/>
	<path fill-rule="evenodd" clip-rule="evenodd" fill="none" stroke="#000000" stroke-width="1.2428" stroke-linecap="round" d="
		M575.366,152.353c0.347,3.74,0.765,7.704,0.669,11.373"/>
	<path fill-rule="evenodd" clip-rule="evenodd" fill="none" stroke="#000000" stroke-width="0.9922" stroke-linecap="round" d="
		M576.035,163.726c1.117,1.152,1.093,2.784,2.007,4.014"/>
	
		<line fill-rule="evenodd" clip-rule="evenodd" fill="none" stroke="#000000" stroke-width="2.0618" stroke-linecap="round" x1="578.042" y1="167.739" x2="578.042" y2="167.739"/>
	<path fill-rule="evenodd" clip-rule="evenodd" fill="none" stroke="#000000" stroke-width="1.0743" stroke-linecap="round" d="
		M578.042,167.739c3.179-0.423,3.866,3.062,4.683,5.352"/>
	<path fill-rule="evenodd" clip-rule="evenodd" fill="none" stroke="#000000" stroke-width="1.0787" stroke-linecap="round" d="
		M582.725,173.091c4.969,3.498,8.778,8.598,10.034,14.717"/>
	<path fill-rule="evenodd" clip-rule="evenodd" fill="none" stroke="#000000" stroke-width="1.1006" stroke-linecap="round" d="
		M592.759,187.808c5.448,2.614,9.9,6.918,11.902,12.719c0.351,1.989-1.561,4.231,0.139,6.012"/>
	<path fill-rule="evenodd" clip-rule="evenodd" fill="none" stroke="#000000" stroke-width="1.2692" stroke-linecap="round" d="
		M604.8,206.538c1.648,1.074,2.576,2.918,3.345,4.683"/>
	<path fill-rule="evenodd" clip-rule="evenodd" fill="none" stroke="#000000" stroke-width="1.0708" stroke-linecap="round" d="
		M608.145,211.221c1.754,1.17,3.462,2.815,3.68,5.017"/>
	<path fill-rule="evenodd" clip-rule="evenodd" fill="none" stroke="#000000" stroke-width="0.8636" stroke-linecap="round" d="
		M611.824,216.238c0.454,0.215,0.93,0.408,1.338,0.669"/>
	<path fill-rule="evenodd" clip-rule="evenodd" fill="none" stroke="#000000" stroke-width="0.9422" stroke-linecap="round" d="
		M613.162,216.907c3.048-6.246,14.609-7.737,16.025,0.323c-1.415,4.694-1.608,10.74-6.66,13.056"/>
	<path fill-rule="evenodd" clip-rule="evenodd" fill="none" stroke="#000000" stroke-width="1.0034" stroke-linecap="round" d="
		M613.162,216.907c-0.215,0.454-0.408,0.93-0.669,1.338"/>
	<path fill-rule="evenodd" clip-rule="evenodd" fill="none" stroke="#000000" stroke-width="0.8849" stroke-linecap="round" d="
		M611.489,222.593c1.08,1.303,0.718,3.521,2.342,4.348"/>
	<path fill-rule="evenodd" clip-rule="evenodd" fill="none" stroke="#000000" stroke-width="0.9485" stroke-linecap="round" d="
		M613.831,226.941c1.006-2.221,1.326-4.681,2.532-6.833c2.367-0.367,3.929-2.35,5.97-3.396c0.615-0.131,1.18-0.06,1.671,0.065
		c3.265,4.056-0.489,9.34-2.479,13.175"/>
	<path fill-rule="evenodd" clip-rule="evenodd" fill="none" stroke="#000000" stroke-width="1.4191" stroke-linecap="round" d="
		M622.527,230.286c-0.263-0.04-0.631-0.185-1.003-0.334"/>
	<path fill-rule="evenodd" clip-rule="evenodd" fill="none" stroke="#000000" stroke-width="1.284" stroke-linecap="round" d="
		M621.524,229.952c-1.403,0.413-2.723,1.254-3.08,2.755c-2.083-0.258-3.16,2.325-5.124,2.102c-0.357-1.021,0.059-2.161-0.325-3.185"
		/>
	<path fill-rule="evenodd" clip-rule="evenodd" fill="none" stroke="#000000" stroke-width="0.8528" stroke-linecap="round" d="
		M612.995,231.624c-0.821-0.112-1.427-0.653-2.022-1.156c-0.072-0.373-0.112-0.778-0.152-1.185"/>
	<path fill-rule="evenodd" clip-rule="evenodd" fill="none" stroke="#000000" stroke-width="0.9172" stroke-linecap="round" d="
		M606.584,226.384c-0.797,2.673-3.621,3.888-5.278,6.094c-2.253,0.504-4.72-0.335-6.874,0.484"/>
	<path fill-rule="evenodd" clip-rule="evenodd" fill="none" stroke="#000000" stroke-width="0.9764" stroke-linecap="round" d="
		M594.432,232.962c1.477,2.558,5.68,4.288,5.017,7.693"/>
	<path fill-rule="evenodd" clip-rule="evenodd" fill="none" stroke="#000000" stroke-width="1.2892" stroke-linecap="round" d="
		M599.448,240.655c0.331,1.096,1.16,2.038,2.23,2.452"/>
	<path fill-rule="evenodd" clip-rule="evenodd" fill="none" stroke="#000000" stroke-width="0.8297" stroke-linecap="round" d="
		M601.679,243.107c1.336-1.088,0.85-2.724,1.449-4.125"/>
	<path fill-rule="evenodd" clip-rule="evenodd" fill="none" stroke="#000000" stroke-width="1.0162" stroke-linecap="round" d="
		M601.679,243.107c2.203,2.565,4.892,4.903,7.47,7.247"/>
	<path fill-rule="evenodd" clip-rule="evenodd" fill="none" stroke="#000000" stroke-width="1.0521" stroke-linecap="round" d="
		M609.148,250.354c1.978-1.685,1.213-4.54,2.007-6.689"/>
	<path fill-rule="evenodd" clip-rule="evenodd" fill="none" stroke="#000000" stroke-width="0.7948" stroke-linecap="round" d="
		M611.155,243.665c-0.716-2.284-2.957-3.944-4.349-5.686"/>
	<path fill-rule="evenodd" clip-rule="evenodd" fill="none" stroke="#000000" stroke-width="0.8722" stroke-linecap="round" d="
		M611.155,243.665c0.834,0.808,2.644-0.369,3.011,1.004"/>
	<path fill-rule="evenodd" clip-rule="evenodd" fill="none" stroke="#000000" stroke-width="0.9986" stroke-linecap="round" d="
		M609.037,252.25c1.495,1.474,3.836,2.204,4.905,4.014"/>
	<path fill-rule="evenodd" clip-rule="evenodd" fill="none" stroke="#000000" stroke-width="1.0992" stroke-linecap="round" d="
		M613.942,256.264c2.285,0.494,4.574,1.36,6.913,0.78"/>
	<path fill-rule="evenodd" clip-rule="evenodd" fill="none" stroke="#000000" stroke-width="1.018" stroke-linecap="round" d="
		M620.855,257.044c2.57-0.016,4.327-1.444,5.797-3.456"/>
	<path fill-rule="evenodd" clip-rule="evenodd" fill="none" stroke="#000000" stroke-width="1.4191" stroke-linecap="round" d="
		M626.652,253.588c-0.219-1.283-0.063-2.604-0.111-3.902"/>
	<path fill-rule="evenodd" clip-rule="evenodd" fill="none" stroke="#000000" stroke-width="0.9905" stroke-linecap="round" d="
		M626.541,249.686c-3.109-0.823-4.849-5.026-3.01-7.692"/>
	<path fill-rule="evenodd" clip-rule="evenodd" fill="none" stroke="#000000" stroke-width="0.9812" stroke-linecap="round" d="
		M626.541,249.686c0.929-3.21,1.191-7.305,5.018-8.361"/>
	<path fill-rule="evenodd" clip-rule="evenodd" fill="none" stroke="#000000" stroke-width="2.1154" stroke-linecap="round" d="
		M593.596,248.181c-0.057,0.167-0.112,0.334-0.168,0.502"/>
	<path fill-rule="evenodd" clip-rule="evenodd" fill="none" stroke="#000000" stroke-width="0.7706" stroke-linecap="round" d="
		M593.428,248.683c3.506,4.575,9.414,6.192,14.383,8.361"/>
	<path fill-rule="evenodd" clip-rule="evenodd" fill="none" stroke="#000000" stroke-width="1.2213" stroke-linecap="round" d="
		M607.811,257.044c2.064,0.008,4.247,0.047,6.132-0.78"/>
	<path fill-rule="evenodd" clip-rule="evenodd" fill="none" stroke="#000000" stroke-width="1.4958" stroke-linecap="round" d="
		M529.209,209.214c-0.224,0.223-0.446,0.446-0.669,0.669"/>
	<path fill-rule="evenodd" clip-rule="evenodd" fill="none" stroke="#000000" stroke-width="0.9494" stroke-linecap="round" d="
		M525.529,205.535c-0.415,2.584-0.847,5.276-1.655,7.703c2.465,3.908,4.456,8.257,4.838,12.881
		c-0.269,0.153-0.835-0.081-1.346-0.361c-1.52-3.08-2.689-6.391-5.824-8.199c-0.654-0.971-0.966-2.078-1.364-3.161"/>
	<path fill-rule="evenodd" clip-rule="evenodd" fill="none" stroke="#000000" stroke-width="1.2134" stroke-linecap="round" d="
		M520.178,214.398c-0.603,0.255-0.941,0.407-1.268,0.554c-3.153,6.133-4.995,14.001-2.077,20.518"/>
	<path fill-rule="evenodd" clip-rule="evenodd" fill="none" stroke="#000000" stroke-width="1.0838" stroke-linecap="round" d="
		M516.833,235.471c0.228,0.068,0.45,0.158,0.672,0.249c0.28,0.759,0.506,1.669,0.666,2.427"/>
	<path fill-rule="evenodd" clip-rule="evenodd" fill="none" stroke="#000000" stroke-width="0.8684" stroke-linecap="round" d="
		M518.171,238.146c2.841,1.661,5.962-0.881,8.506-2.03c1.491-0.673,3.349-0.485,3.87-2.15"/>
	<path fill-rule="evenodd" clip-rule="evenodd" fill="none" stroke="#000000" stroke-width="1.0425" stroke-linecap="round" d="
		M518.171,238.146c-0.228,0.068-0.45,0.158-0.672,0.249c-0.244,0.573-0.343,1.367-0.666,1.925"/>
	<path fill-rule="evenodd" clip-rule="evenodd" fill="none" stroke="#000000" stroke-width="0.7996" stroke-linecap="round" d="
		M516.833,240.32c0.266,0.997,0.738,1.835,1.338,2.676"/>
	<path fill-rule="evenodd" clip-rule="evenodd" fill="none" stroke="#000000" stroke-width="1.0034" stroke-linecap="round" d="
		M518.171,242.996c1.715,0.092,2.702-1.761,4.349-1.672"/>
	<path fill-rule="evenodd" clip-rule="evenodd" fill="none" stroke="#000000" stroke-width="1.0727" stroke-linecap="round" d="
		M518.171,242.996c-1.347,1.308-1.885,3.192-2.007,5.018"/>
	<path fill-rule="evenodd" clip-rule="evenodd" fill="none" stroke="#000000" stroke-width="0.8605" stroke-linecap="round" d="
		M516.164,248.014c1.283-0.297,1.926-0.737,2.474-1.189c1.771-0.249,3.515-0.347,5.283-0.053c0.078,0.265-0.063,0.736-0.144,1.182
		c-2.444,3.081-6.213,3.304-9.453,5.077"/>
	<path fill-rule="evenodd" clip-rule="evenodd" fill="none" stroke="#000000" stroke-width="1.2307" stroke-linecap="round" d="
		M514.324,253.03c-1.52,2.729-1.763,5.93-2.174,9.031"/>
	<path fill-rule="evenodd" clip-rule="evenodd" fill="none" stroke="#000000" stroke-width="0.8193" stroke-linecap="round" d="
		M512.15,262.062c0.629,0,1.153,0,1.672,0"/>
	<path fill-rule="evenodd" clip-rule="evenodd" fill="none" stroke="#000000" stroke-width="0.9261" stroke-linecap="round" d="
		M513.822,262.062c-0.048-0.486,0.08-0.816,0.216-1.139c0.438-0.123,0.822-0.106,1.202-0.083c0.083,0.348-0.128,1.043-0.414,1.556"
		/>
	<path fill-rule="evenodd" clip-rule="evenodd" fill="none" stroke="#000000" stroke-width="1.8921" stroke-linecap="round" d="
		M512.484,266.075c-0.06,0.486-0.276,1.076-0.501,1.672"/>
	<path fill-rule="evenodd" clip-rule="evenodd" fill="none" stroke="#000000" stroke-width="1.0367" stroke-linecap="round" d="
		M511.983,267.747c1.238,14.612,9.035,27.643,20.235,36.793"/>
	<path fill-rule="evenodd" clip-rule="evenodd" fill="none" stroke="#000000" stroke-width="1.0457" stroke-linecap="round" d="
		M532.219,304.54c0.11,0.001,0.22,0.002,0.33,0.003c11.526,6.228,24.845,11.452,38.302,9.362"/>
	<path fill-rule="evenodd" clip-rule="evenodd" fill="none" stroke="#000000" stroke-width="1.1587" stroke-linecap="round" d="
		M570.851,313.905c0.252-0.896,0.1-1.712-0.327-2.103c-0.075-5.169-1.441-8.544,0.684-12.428c0.854-1.559,2.438-3.195,2.654-5.538"
		/>
	<path fill-rule="evenodd" clip-rule="evenodd" fill="none" stroke="#000000" stroke-width="0.9727" stroke-linecap="round" d="
		M573.861,293.837c0.652-3.444,2.108-7.081,4.516-9.7"/>
	<path fill-rule="evenodd" clip-rule="evenodd" fill="none" stroke="#000000" stroke-width="1.0775" stroke-linecap="round" d="
		M578.377,284.137c1.834-3.427,6.021-4.92,8.361-8.027"/>
	<path fill-rule="evenodd" clip-rule="evenodd" fill="none" stroke="#000000" stroke-width="1.0577" stroke-linecap="round" d="
		M586.738,276.109c-0.076-0.994,0.082-1.977,0.446-2.898"/>
	<path fill-rule="evenodd" clip-rule="evenodd" fill="none" stroke="#000000" stroke-width="0.8372" stroke-linecap="round" d="
		M587.185,273.211c-0.728-0.365-1.263-0.714-1.878-1.019c-6.179,0.963-8.563-1.486-12.1-4.627c-2.038-1.81-6.734-3.058-10.217-4.501
		"/>
	<path fill-rule="evenodd" clip-rule="evenodd" fill="none" stroke="#000000" stroke-width="1.1457" stroke-linecap="round" d="
		M587.185,273.211c1.067-1.336,2.674-2.742,2.564-4.627"/>
	<path fill-rule="evenodd" clip-rule="evenodd" fill="none" stroke="#000000" stroke-width="1.0483" stroke-linecap="round" d="
		M589.749,268.584c-0.479-0.069-0.798-0.547-1.173-1.01c-4.59-0.354-8.407-0.064-12.677-1.363c-3.9-1.187-12.506-7.435-17.159-4.557
		c-0.145,0.024-0.288,0.049-0.433,0.072"/>
	<path fill-rule="evenodd" clip-rule="evenodd" fill="none" stroke="#000000" stroke-width="0.9333" stroke-linecap="round" d="
		M589.749,268.584c3.979-3.304,7.62-8.805,13.713-7.86"/>
	<path fill-rule="evenodd" clip-rule="evenodd" fill="none" stroke="#000000" stroke-width="1.5545" stroke-linecap="round" d="
		M586.738,276.109c0.688-0.234,1.186-0.255,1.673-0.334"/>
	<path fill-rule="evenodd" clip-rule="evenodd" fill="none" stroke="#000000" stroke-width="0.8958" stroke-linecap="round" d="
		M594.432,268.751c0.957-2.899,3.998-3.898,6.689-4.349"/>
	<path fill-rule="evenodd" clip-rule="evenodd" fill="none" stroke="#000000" stroke-width="1.3119" stroke-linecap="round" d="
		M624.367,281.127c0.497-1.601-0.035-3.216-0.669-4.683"/>
	<path fill-rule="evenodd" clip-rule="evenodd" fill="none" stroke="#000000" stroke-width="0.8193" stroke-linecap="round" d="
		M623.698,276.444c-2.908-0.294-3.949-3.117-5.693-4.844c-0.893-0.883-2.111-1.472-3.011-2.34c-0.235-0.227-0.096-0.771-0.358-0.979
		c-2.229-1.762-5.04-3.183-8.498-3.544"/>
	<path fill-rule="evenodd" clip-rule="evenodd" fill="none" stroke="#000000" stroke-width="1.0992" stroke-linecap="round" d="
		M623.698,276.444c0.572-2.484-0.944-4.72-1.505-7.024"/>
	<path fill-rule="evenodd" clip-rule="evenodd" fill="none" stroke="#000000" stroke-width="1.005" stroke-linecap="round" d="
		M622.193,297.516c0.488-0.331,0.813-0.572,1.129-0.809c0.973-3.081,2.677-5.891,2.885-9.226"/>
	<path fill-rule="evenodd" clip-rule="evenodd" fill="none" stroke="#000000" stroke-width="1.4451" stroke-linecap="round" d="
		M627.768,253.811c-0.383-0.071-0.794-0.136-1.115-0.223"/>
	<path fill-rule="evenodd" clip-rule="evenodd" fill="none" stroke="#000000" stroke-width="1.0218" stroke-linecap="round" d="
		M593.428,248.683c-1.987,0.266-3.71-0.624-5.574-1.115"/>
	<path fill-rule="evenodd" clip-rule="evenodd" fill="none" stroke="#000000" stroke-width="0.8706" stroke-linecap="round" d="
		M587.854,247.567c-2.231,4.646-8.496,2.286-11.958,4.989c-5.996,0.126-11.946-1.64-16.733-5.063
		c-2.671-0.333-5.607-0.354-8.014-1.352c-1.407-0.472-3.506,0.614-4.213-1.139"/>
	<path fill-rule="evenodd" clip-rule="evenodd" fill="none" stroke="#000000" stroke-width="1.2954" stroke-linecap="round" d="
		M546.936,245.003c-0.314-0.039-0.821,0.306-1.338,0.669"/>
	<path fill-rule="evenodd" clip-rule="evenodd" fill="none" stroke="#000000" stroke-width="0.9429" stroke-linecap="round" d="
		M580.885,236.307c-3.044-0.034-5.521,1.599-7.674,3.521c-2.608,1.439-6.341,0.533-8.548,2.165"/>
	<path fill-rule="evenodd" clip-rule="evenodd" fill="none" stroke="#000000" stroke-width="1.0647" stroke-linecap="round" d="
		M585.066,230.955c-1.993-3.01-1.456-6.905-3.011-10.034"/>
	<path fill-rule="evenodd" clip-rule="evenodd" fill="none" stroke="#000000" stroke-width="0.9948" stroke-linecap="round" d="
		M582.056,220.921c-3.152,0.051-5.33-2.491-7.98-3.726c-2.604-2.682-1.168-6.944-2.723-9.988"/>
	<path fill-rule="evenodd" clip-rule="evenodd" fill="none" stroke="#000000" stroke-width="0.9607" stroke-linecap="round" d="
		M585.178,244.892c-4.793,2.521-8.782,4.058-13.624,2.919c-0.674-0.159-3.645-0.449-5.352-1.336
		c-1.828-0.95-3.861-0.494-6.681-1.347c-2.37-0.717-9.335-1.208-12.586-0.125"/>
	<path fill-rule="evenodd" clip-rule="evenodd" fill="none" stroke="#000000" stroke-width="0.7915" stroke-linecap="round" d="
		M567.116,210.329c-0.808-0.55-1.421-1.009-2.119-1.449"/>
	<path fill-rule="evenodd" clip-rule="evenodd" fill="none" stroke="#000000" stroke-width="0.8507" stroke-linecap="round" d="
		M564.328,208.88c-2.945,3.786-7.588,6.474-12.374,7.024c-0.529,0.363-1.226,0.559-1.821,0.855c-2.172,2.91-5.724,3.946-8.055,6.662
		c0.027,1.007-1.195,1.501-1.084,2.519c1.239,0.728,1.803-0.848,2.412-1.195c1.282-0.73,2.281-1.221,3.353-1.994
		c3.291-2.374,8.007-3.369,11.683-5.033c0.773-0.35,1.693-1.331,2.349-1.661c1.013-0.509,2.482-0.591,3.013-1.015
		c1.556-1.245,2.489-2.684,3.206-4.453c0.035-0.087,0.071-0.174,0.107-0.261"/>
	<path fill-rule="evenodd" clip-rule="evenodd" fill="none" stroke="#000000" stroke-width="0.8462" stroke-linecap="round" d="
		M523.634,204.754c-0.349,0.744-0.441,1.535-0.78,2.119"/>
	<path fill-rule="evenodd" clip-rule="evenodd" fill="none" stroke="#000000" stroke-width="1.018" stroke-linecap="round" d="
		M522.854,206.873c-0.393,2.165-0.087,4.93-2.676,5.853"/>
	<path fill-rule="evenodd" clip-rule="evenodd" fill="none" stroke="#000000" stroke-width="1.304" stroke-linecap="round" d="
		M516.164,248.014c-1.182,1.289-2.186,3.233-1.84,5.017"/>
	<path fill-rule="evenodd" clip-rule="evenodd" fill="none" stroke="#000000" stroke-width="1.137" stroke-linecap="round" d="
		M594.432,268.751c-2.911,1.196-4.109,4.727-6.021,7.024"/>
	<path fill-rule="evenodd" clip-rule="evenodd" fill="none" stroke="#000000" stroke-width="0.8175" stroke-linecap="round" d="
		M588.411,275.775c0.858,0.767,1.89-0.135,2.478-0.2c3.967-0.444,7.663,0.338,10.38,2.06c0.651,0.412,1.035,1.262,1.684,1.66
		c2.581,1.587,5.236,3.72,8.677,5.371c0.511,0.245,1.297-0.035,1.868,0.139c1.913,0.582,4.383,2.103,5.352,3.346"/>
	<path fill-rule="evenodd" clip-rule="evenodd" fill="none" stroke="#000000" stroke-width="0.835" stroke-linecap="round" d="
		M578.377,284.137c2.472,0.627,3.796-1.247,5.175-1.849c3.572-1.557,5.096-2.721,8.674-1.632c3.187,0.971,7.118,1.504,10.381,3.667
		c0.808,0.536,2.421,1.768,4.339,2.352c2.67,0.813,5.639,0.755,8.357,1.008c0.081,0.007,0.123,0.431,0.201,0.468"/>
	<path fill-rule="evenodd" clip-rule="evenodd" fill="none" stroke="#000000" stroke-width="0.8975" stroke-linecap="round" d="
		M573.861,293.837c2.688-1.074,5.213-2.507,7.525-4.349"/>
	<path fill-rule="evenodd" clip-rule="evenodd" fill="none" stroke="#000000" stroke-width="1.0511" stroke-linecap="round" d="
		M570.851,313.905c0.766,3.624,3.07,6.887,7.001,7.218c0.371,0.295,0.67,0.666,0.859,1.145"/>
	<path fill-rule="evenodd" clip-rule="evenodd" fill="none" stroke="#000000" stroke-width="0.9889" stroke-linecap="round" d="
		M578.711,322.268c3.597,0.265,6.289,3.511,7.358,6.689"/>
	<path fill-rule="evenodd" clip-rule="evenodd" fill="none" stroke="#000000" stroke-width="1.0489" stroke-linecap="round" d="
		M578.711,322.268c-0.802,6.202,5.216,9.449,5.687,15.386"/>
	<path fill-rule="evenodd" clip-rule="evenodd" fill="none" stroke="#000000" stroke-width="0.8193" stroke-linecap="round" d="
		M584.397,337.653c2.118,0,4.236,0,6.354,0"/>
	<path fill-rule="evenodd" clip-rule="evenodd" fill="none" stroke="#000000" stroke-width="1.0727" stroke-linecap="round" d="
		M584.397,337.653c-0.743,0.998-2.297,1.769-2.007,3.345"/>
	<path fill-rule="evenodd" clip-rule="evenodd" fill="none" stroke="#000000" stroke-width="0.8735" stroke-linecap="round" d="
		M582.391,340.998c3.672-0.176,6.344-0.232,9.498,0.87c0.689,0.24,1.89,0.396,2.669,0.676c2.162,0.779,3.806,2.291,5.704,2.992
		c2.388,0.882,5.208,1.025,8.552,1.482"/>
	<path fill-rule="evenodd" clip-rule="evenodd" fill="none" stroke="#000000" stroke-width="0.925" stroke-linecap="round" d="
		M582.391,340.998c-0.035,0.11-0.069,0.221-0.104,0.331c-5.693,2.888-8.621,6.005-14.31,8.343c-0.325,0.133-0.505,0.39-0.781,0.549
		c-5.551,3.199-9.913-0.715-15.703,1.021c-2.122,0.636-2.993,1.138-3.889,2.8"/>
	<path fill-rule="evenodd" clip-rule="evenodd" fill="none" stroke="#000000" stroke-width="1.0432" stroke-linecap="round" d="
		M547.604,354.042c0.615,0.277,1.538,0.246,2.131,0.545c2.442,3.89,1.631,8.847,2.887,13.169"/>
	<path fill-rule="evenodd" clip-rule="evenodd" fill="none" stroke="#000000" stroke-width="1.0768" stroke-linecap="round" d="
		M552.622,367.756c3.972-2.645,8.378-4.896,11.037-9.031"/>
	<path fill-rule="evenodd" clip-rule="evenodd" fill="none" stroke="#000000" stroke-width="0.9523" stroke-linecap="round" d="
		M563.659,358.725c0.001-0.112,0.001-0.225,0.001-0.337c3.513-4.956,10.018-4.788,15.515-4.885c1.675-0.959,3.347-2.046,4.888-3.14"
		/>
	<path fill-rule="evenodd" clip-rule="evenodd" fill="none" stroke="#000000" stroke-width="1.1036" stroke-linecap="round" d="
		M588.076,369.094c-1.521-7.387,5.533-14.787,13.004-13.822c0.603-0.962,1.472-1.653,2.478-2.137
		c0.191-0.032,0.383-0.064,0.573-0.096"/>
	<path fill-rule="evenodd" clip-rule="evenodd" fill="none" stroke="#000000" stroke-width="1.206" stroke-linecap="round" d="
		M608.479,375.783c-0.094-1.379,0.345-2.698,0.669-4.014"/>
	<path fill-rule="evenodd" clip-rule="evenodd" fill="none" stroke="#000000" stroke-width="1.3925" stroke-linecap="round" d="
		M628.715,337.987c-0.162,1.938,1.508,3.774,0.168,5.687"/>
	<path fill-rule="evenodd" clip-rule="evenodd" fill="none" stroke="#000000" stroke-width="1.0363" stroke-linecap="round" d="
		M615.169,311.898c-2.028,1.135-4.184,0.195-6.355,0.334"/>
	<path fill-rule="evenodd" clip-rule="evenodd" fill="none" stroke="#000000" stroke-width="1.4243" stroke-linecap="round" d="
		M621.189,302.867c-0.317-1.932,0.429-3.579,1.004-5.352"/>
	<path fill-rule="evenodd" clip-rule="evenodd" fill="none" stroke="#000000" stroke-width="1.4347" stroke-linecap="round" d="
		M622.193,297.516c-0.275-0.944-0.317-1.727-0.502-2.341"/>
	<path fill-rule="evenodd" clip-rule="evenodd" fill="none" stroke="#000000" stroke-width="0.8789" stroke-linecap="round" d="
		M621.691,295.175c-4.003,2.341-8.961,2.514-12.878,5.017"/>
	<path fill-rule="evenodd" clip-rule="evenodd" fill="none" stroke="#000000" stroke-width="1.1397" stroke-linecap="round" d="
		M621.691,295.175c1.37-4.521,3.032-9.246,2.676-14.048"/>
	<path fill-rule="evenodd" clip-rule="evenodd" fill="none" stroke="#000000" stroke-width="0.7803" stroke-linecap="round" d="
		M624.367,281.127c-2.701-1.414-5.235-3.023-8.013-4.529c-3.944-7.76-13.179-11.051-21.07-7.897
		c-0.251,0.101-0.595-0.033-0.853,0.051"/>
	<path fill-rule="evenodd" clip-rule="evenodd" fill="none" stroke="#000000" stroke-width="1.0838" stroke-linecap="round" d="
		M621.189,302.867c-0.555,0.678-0.975,1.56-1.003,3.011"/>
	<path fill-rule="evenodd" clip-rule="evenodd" fill="none" stroke="#000000" stroke-width="1.0832" stroke-linecap="round" d="
		M625.983,303.091c-0.024-0.084-0.05-0.168-0.075-0.252c1.769-3.644,6.419-5.417,6.313-10.011c0.319-0.648,1.301-2.982,1.604-4.32
		c1.012-4.478-0.959-8.262-0.861-12.491c0.035-1.496,0.57-4.582-1.077-4.813c-1.193,6.14-0.114,12.768-2.156,19.094
		c-0.039,0.122-0.477,0.127-0.532,0.275c-1.566,4.237-3.311,9.329-7.12,12.149c-0.215,0.158-0.657,0.009-0.889,0.146"/>
	<path fill-rule="evenodd" clip-rule="evenodd" fill="none" stroke="#000000" stroke-width="1.1799" stroke-linecap="round" d="
		M548.385,372.885c1.498-1.586,2.966-3.329,4.237-5.129"/>
	<path fill-rule="evenodd" clip-rule="evenodd" fill="none" stroke="#000000" stroke-width="0.9631" stroke-linecap="round" d="
		M547.604,354.042c-0.19,0.189-0.381,0.378-0.571,0.566c-3.219,1.158-7.81,3.375-11.282,5.642c-3.564,2.327-7.248,3.878-9.729,6.984
		c-2.177,2.725-3.69,6.14-5.205,9.423c-0.062,0.134-0.423,0.133-0.485,0.271c-0.226,0.497-0.14,1.311-0.308,1.675
		c-0.492,1.063-1.977,2.124-1.084,3.507c2.522,1.024,4.334-1.263,6.399-2.168c4.823-2.113,10.11-4.041,15.035-5.703
		c1.462-0.494,5.751-2.02,8.011-1.354"/>
	<path fill-rule="evenodd" clip-rule="evenodd" fill="none" stroke="#000000" stroke-width="1.4347" stroke-linecap="round" d="
		M453.784,344.677c0.133,0.661,0.163,1.42,0.278,1.896"/>
	<path fill-rule="evenodd" clip-rule="evenodd" fill="none" stroke="#000000" stroke-width="0.8905" stroke-linecap="round" d="
		M466.996,340.998c-4.413-1.564-10.46-0.258-13.212,3.679"/>
	<path fill-rule="evenodd" clip-rule="evenodd" fill="none" stroke="#000000" stroke-width="0.9049" stroke-linecap="round" d="
		M504.792,270.423c-2.126,0.64-4.699,1.49-6.021,3.345"/>
	<path fill-rule="evenodd" clip-rule="evenodd" fill="none" stroke="#000000" stroke-width="1.0208" stroke-linecap="round" d="
		M516.944,202.302c-0.023,0.087-0.048,0.174-0.071,0.261c-2.919,2.435-4.779,5.705-5.317,9.634
		c-0.532,3.887,1.15,8.316-2.565,10.916c-6.087,2.093-10.591,8.308-16.239,10.854"/>
	<path fill-rule="evenodd" clip-rule="evenodd" fill="none" stroke="#000000" stroke-width="0.8898" stroke-linecap="round" d="
		M492.751,233.966c0.814,1.609,1.942,3.231,3.345,4.348"/>
	<path fill-rule="evenodd" clip-rule="evenodd" fill="none" stroke="#000000" stroke-width="0.8663" stroke-linecap="round" d="
		M492.751,233.966c-1.612,0.087-3.142-0.455-4.485-1.202c-3.633-0.146-7.145-0.212-10.461-0.911
		c-0.283-0.06-0.541-0.434-0.867-0.471c-0.778-0.087-1.79,0.047-2.478-0.198c-0.977-0.348-1.755-1.646-4.119-1.231"/>
	<path fill-rule="evenodd" clip-rule="evenodd" fill="none" stroke="#000000" stroke-width="0.7328" stroke-linecap="round" d="
		M470.341,229.952c0.01,0.882,0.505,1.278,0.669,2.007"/>
	<path fill-rule="evenodd" clip-rule="evenodd" fill="none" stroke="#000000" stroke-width="0.8758" stroke-linecap="round" d="
		M470.341,229.952c-5.52-4.812-12.335-7.703-18.201-11.902c-4.411-0.415-8.691-2.252-13.035-1.941
		c-2.993,2.659-7.786,2.456-9.904,6.15"/>
	<path fill-rule="evenodd" clip-rule="evenodd" fill="none" stroke="#000000" stroke-width="1.0771" stroke-linecap="round" d="
		M429.2,222.259c1.5,2.74,2.108,6.373,2.007,9.365"/>
	<path fill-rule="evenodd" clip-rule="evenodd" fill="none" stroke="#000000" stroke-width="0.9248" stroke-linecap="round" d="
		M431.207,231.624c3.964,2.578,8.406-1.125,11.707-3.01"/>
	<path fill-rule="evenodd" clip-rule="evenodd" fill="none" stroke="#000000" stroke-width="0.8193" stroke-linecap="round" d="
		M442.914,228.614c0.542-1.681,0.854-3.459,0.669-5.352"/>
	<path fill-rule="evenodd" clip-rule="evenodd" fill="none" stroke="#000000" stroke-width="0.8193" stroke-linecap="round" d="
		M442.914,228.614c0.405,0.04,0.707,0.185,1.003,0.334"/>
	<path fill-rule="evenodd" clip-rule="evenodd" fill="none" stroke="#000000" stroke-width="0.8332" stroke-linecap="round" d="
		M443.917,228.948c1.457-0.378,3.242,0.96,4.817,0.134c1.207-0.962,2.109-2.268,2.207-3.813"/>
	<path fill-rule="evenodd" clip-rule="evenodd" fill="none" stroke="#000000" stroke-width="0.8674" stroke-linecap="round" d="
		M443.917,228.948c-0.921,2.791-3.472,3.803-5.821,4.877c-1.295,0.593-3.22,0.281-4.554,0.806c-2.876,1.132-4.513,3.674-7.197,5.51
		c-0.082,0.587-0.274,1.063-0.489,1.518"/>
	<path fill-rule="evenodd" clip-rule="evenodd" fill="none" stroke="#000000" stroke-width="0.7518" stroke-linecap="round" d="
		M425.855,241.658c-0.255,3.04,2.549,4.449,4.014,6.689"/>
	<path fill-rule="evenodd" clip-rule="evenodd" fill="none" stroke="#000000" stroke-width="0.8919" stroke-linecap="round" d="
		M429.869,248.348c0.724,0.363,1.887,0.299,3.345,0.335"/>
	<path fill-rule="evenodd" clip-rule="evenodd" fill="none" stroke="#000000" stroke-width="0.9922" stroke-linecap="round" d="
		M433.214,248.683c0.919-3.293,5.575-3.523,6.689-6.689"/>
	<path fill-rule="evenodd" clip-rule="evenodd" fill="none" stroke="#000000" stroke-width="1.0752" stroke-linecap="round" d="
		M439.903,241.993c-0.019-1.418-0.044-3.541-1.672-4.014"/>
	<path fill-rule="evenodd" clip-rule="evenodd" fill="none" stroke="#000000" stroke-width="0.9243" stroke-linecap="round" d="
		M439.903,241.993c2.211-0.137,3.965-1.936,5.687-3.011"/>
	<path fill-rule="evenodd" clip-rule="evenodd" fill="none" stroke="#000000" stroke-width="0.8193" stroke-linecap="round" d="
		M445.59,238.982c-0.02-0.923,0.152-1.44,0.334-2.007"/>
	<path fill-rule="evenodd" clip-rule="evenodd" fill="none" stroke="#000000" stroke-width="0.7996" stroke-linecap="round" d="
		M445.924,236.976c-0.3-0.146-0.567-0.324-0.833-0.504c-0.113-0.556-0.134-1.205-0.17-1.837"/>
	<path fill-rule="evenodd" clip-rule="evenodd" fill="none" stroke="#000000" stroke-width="0.8613" stroke-linecap="round" d="
		M445.924,236.976c2.751-2.559,6.429-2.562,9.365-4.683"/>
	<path fill-rule="evenodd" clip-rule="evenodd" fill="none" stroke="#000000" stroke-width="1.0034" stroke-linecap="round" d="
		M455.289,232.293c-0.139-1.204,1.289-1.777,1.004-3.01"/>
	<path fill-rule="evenodd" clip-rule="evenodd" fill="none" stroke="#000000" stroke-width="0.8386" stroke-linecap="round" d="
		M455.289,232.293c0.591,0.302,1.495,0.289,2.342,0.335"/>
	<path fill-rule="evenodd" clip-rule="evenodd" fill="none" stroke="#000000" stroke-width="0.841" stroke-linecap="round" d="
		M449.938,247.345c3.351,0.71,5.844-1.246,8.696-2.342"/>
	<path fill-rule="evenodd" clip-rule="evenodd" fill="none" stroke="#000000" stroke-width="0.9792" stroke-linecap="round" d="
		M458.634,245.003c1.225-0.746,3.259-0.691,3.68-2.341"/>
	<path fill-rule="evenodd" clip-rule="evenodd" fill="none" stroke="#000000" stroke-width="0.9089" stroke-linecap="round" d="
		M458.634,245.003c0.146,0.301,0.324,0.568,0.505,0.834c2.342-0.101,5.428,1.233,7.188-0.499"/>
	<path fill-rule="evenodd" clip-rule="evenodd" fill="none" stroke="#000000" stroke-width="0.8316" stroke-linecap="round" d="
		M461.979,250.354c0.991-0.282,1.349-1.494,2.342-1.672"/>
	<path fill-rule="evenodd" clip-rule="evenodd" fill="none" stroke="#000000" stroke-width="0.9694" stroke-linecap="round" d="
		M516.833,235.471c-2.741,1.737-5.521,3.278-8.696,4.181"/>
	<path fill-rule="evenodd" clip-rule="evenodd" fill="none" stroke="#000000" stroke-width="2.7091" stroke-linecap="round" d="
		M520.178,214.398c0-0.562,0-1.134,0-1.672"/>
	<path fill-rule="evenodd" clip-rule="evenodd" fill="none" stroke="#000000" stroke-width="1.0089" stroke-linecap="round" d="
		M571.688,135.127c-1.911,1.161-4.189,0.518-6.164,1.365c-2.428,1.504-3.141,4.618-5.766,5.604"/>
	<path fill-rule="evenodd" clip-rule="evenodd" fill="none" stroke="#000000" stroke-width="1.0335" stroke-linecap="round" d="
		M559.758,142.096c0.02,1.434,0.928,2.815,1.2,4.232c-0.184,0.486-0.672,0.903-1.074,1.207c-1.347,0.827-2.951,0.564-4.363,1.251"/>
	<path fill-rule="evenodd" clip-rule="evenodd" fill="none" stroke="#000000" stroke-width="1.3348" stroke-linecap="round" d="
		M555.521,148.786c-0.286,5.385,3.042,11.654-2.082,15.761c-0.269,0.561-0.479,1.105-0.816,1.855"/>
	<path fill-rule="evenodd" clip-rule="evenodd" fill="none" stroke="#000000" stroke-width="1.1143" stroke-linecap="round" d="
		M552.622,166.401c0.916,2.845-1.067,5.926,0.306,8.685c-1.346,4.868-2.001,9.686-2.647,14.728"/>
	<path fill-rule="evenodd" clip-rule="evenodd" fill="none" stroke="#000000" stroke-width="0.9596" stroke-linecap="round" d="
		M552.622,166.401c-5.688,3.971-3.334,8.254-6.741,11.993c-0.457,0.502-1.199,0.852-1.626,1.142
		c-0.207,0.141-0.256,0.619-0.509,0.742c-4.665,2.271-9.797,2.305-14.633,6.096c-0.134,0.105-0.429,0.005-0.573,0.096"/>
	<path fill-rule="evenodd" clip-rule="evenodd" fill="none" stroke="#000000" stroke-width="1.2427" stroke-linecap="round" d="
		M555.521,148.786c-4.307,0.023-8.74-0.332-13.23-0.713c-3.71-0.315-7.358-1.405-10.852,0.044"/>
	<path fill-rule="evenodd" clip-rule="evenodd" fill="none" stroke="#000000" stroke-width="1.3379" stroke-linecap="round" d="
		M531.438,148.117c0.432,1.272,1.909,1.652,2.787,2.564"/>
	<path fill-rule="evenodd" clip-rule="evenodd" fill="none" stroke="#000000" stroke-width="0.8193" stroke-linecap="round" d="
		M496.207,175.32c-0.639,0.402-1.648,0.385-2.787,0.446"/>
	<path fill-rule="evenodd" clip-rule="evenodd" fill="none" stroke="#000000" stroke-width="1.4191" stroke-linecap="round" d="
		M493.42,175.767c0,0.111,0,0.223,0,0.334"/>
	<path fill-rule="evenodd" clip-rule="evenodd" fill="none" stroke="#000000" stroke-width="1.2596" stroke-linecap="round" d="
		M487.064,194.497c2.534,0.319,5.17,0.868,7.693,0.334"/>
	<path fill-rule="evenodd" clip-rule="evenodd" fill="none" stroke="#000000" stroke-width="0.9806" stroke-linecap="round" d="
		M494.758,194.832c0.146-0.302,0.324-0.564,0.504-0.824c5.45-2.344,7.756-8.468,11.102-12.989c0.531-2.72,0.662-5.484,0.77-8.262"/>
	<path fill-rule="evenodd" clip-rule="evenodd" fill="none" stroke="#000000" stroke-width="1.4958" stroke-linecap="round" d="
		M507.133,172.756c-0.074-0.037-0.148-0.074-0.223-0.112"/>
	<path fill-rule="evenodd" clip-rule="evenodd" fill="none" stroke="#000000" stroke-width="0.8316" stroke-linecap="round" d="
		M506.91,172.645c-1.109,0.296-1.918,1.185-3.122,1.115"/>
	<path fill-rule="evenodd" clip-rule="evenodd" fill="none" stroke="#000000" stroke-width="1.1266" stroke-linecap="round" d="
		M506.91,172.645c-0.13-3.222-0.153-6.479-0.347-9.652c0.379-0.101,1.082,0.111,1.442,0.428c2.182,2,2.722,4.961,4.256,7.44"/>
	<path fill-rule="evenodd" clip-rule="evenodd" fill="none" stroke="#000000" stroke-width="0.8866" stroke-linecap="round" d="
		M512.262,170.861c3.08-1.374,5.842-3.116,8.919-4.459"/>
	<path fill-rule="evenodd" clip-rule="evenodd" fill="none" stroke="#000000" stroke-width="1.09" stroke-linecap="round" d="
		M499.44,195.5c3.233,1.131,6.631,0.236,9.923,0.112"/>
	<path fill-rule="evenodd" clip-rule="evenodd" fill="none" stroke="#000000" stroke-width="1.2008" stroke-linecap="round" d="
		M509.363,195.612c1.128-0.614,2.331-0.991,3.456-1.617"/>
	<path fill-rule="evenodd" clip-rule="evenodd" fill="none" stroke="#000000" stroke-width="0.9926" stroke-linecap="round" d="
		M512.819,193.996c-0.01-0.744,0.551-1.097,0.968-1.542c1.918-2.049,3.656-4.769,5.54-6.5c1.768-1.625,3.826-2.231,5.019-3.678
		c3.672-4.459,3.537-10.292,4.004-16.887c0.017-0.231,0.477-0.431,0.524-0.659"/>
	<path fill-rule="evenodd" clip-rule="evenodd" fill="none" stroke="#000000" stroke-width="1.2315" stroke-linecap="round" d="
		M528.874,164.729c1.269-4.114,0.618-8.227-1.258-11.702c-0.041-0.075,0.114-0.256,0.087-0.339"/>
	<path fill-rule="evenodd" clip-rule="evenodd" fill="none" stroke="#000000" stroke-width="1.4958" stroke-linecap="round" d="
		M527.703,152.688c-0.205-0.332-0.464-0.559-0.725-0.78"/>
	<path fill-rule="evenodd" clip-rule="evenodd" fill="none" stroke="#000000" stroke-width="1.0182" stroke-linecap="round" d="
		M533.223,165.063c4.855,0.343,8.652-3.206,12.389-5.767c0.697-1.8,1.199-3.67,1.318-5.637c0.002-0.212,0.004-0.425,0.006-0.638"/>
	<path fill-rule="evenodd" clip-rule="evenodd" fill="none" stroke="#000000" stroke-width="1.0531" stroke-linecap="round" d="
		M509.363,195.612c1.867,2.805,4.639,5.107,7.581,6.689"/>
	<path fill-rule="evenodd" clip-rule="evenodd" fill="none" stroke="#000000" stroke-width="0.9945" stroke-linecap="round" d="
		M516.944,202.302c2.196,0.466,5.165,0.846,6.689,2.453"/>
	<path fill-rule="evenodd" clip-rule="evenodd" fill="none" stroke="#000000" stroke-width="1.3379" stroke-linecap="round" d="
		M523.634,204.754c0.485-0.005,1.146,0.21,1.896,0.781"/>
	<path fill-rule="evenodd" clip-rule="evenodd" fill="none" stroke="#000000" stroke-width="1.2515" stroke-linecap="round" d="
		M525.529,205.535c0.111-0.001,0.222-0.003,0.333-0.004c1.401,0.867,2.718,2.12,3.347,3.683"/>
	<path fill-rule="evenodd" clip-rule="evenodd" fill="none" stroke="#000000" stroke-width="1.0444" stroke-linecap="round" d="
		M529.209,209.214c3.14,2.875,8.507,9.104,12.199,3.503c1.591-0.527,2.624-2.086,4.458-2.244c0.271-0.385,0.525-0.73,1.069-1.093"/>
	<path fill-rule="evenodd" clip-rule="evenodd" fill="none" stroke="#000000" stroke-width="0.9526" stroke-linecap="round" d="
		M546.936,209.381c-0.023-1.067,0.327-1.729,0.853-2.327c1.042-3.637,4.213-6.68,5.407-10.646c0.369-1.224,0.204-2.806,0.362-4.22
		c0.365-3.264,1.104-7.494,2.607-10.877c1.235-0.889,1.608-2.293,2.478-3.538"/>
	<path fill-rule="evenodd" clip-rule="evenodd" fill="none" stroke="#000000" stroke-width="0.9103" stroke-linecap="round" d="
		M546.936,209.381c2.647-0.682,5.799-0.558,8.027-2.508"/>
	<path fill-rule="evenodd" clip-rule="evenodd" fill="none" stroke="#000000" stroke-width="1.0241" stroke-linecap="round" d="
		M554.963,206.873c-0.63-3.841,4.031-5.221,3.011-9.031"/>
	<path fill-rule="evenodd" clip-rule="evenodd" fill="none" stroke="#000000" stroke-width="1.027" stroke-linecap="round" d="
		M554.963,206.873c1.635,0.988,3.212-0.113,4.683-0.669"/>
	<path fill-rule="evenodd" clip-rule="evenodd" fill="none" stroke="#000000" stroke-width="0.8884" stroke-linecap="round" d="
		M559.646,206.204c1.109-1.753,3.759-1.577,5.495-2.533c1.035-0.789,1.996-2.689,3.536-1.815"/>
	<path fill-rule="evenodd" clip-rule="evenodd" fill="none" stroke="#000000" stroke-width="1.0613" stroke-linecap="round" d="
		M568.677,201.855c0.374-0.647,0.672-0.778,1.007-1.074c0.379-0.668,0.693-1.454,1.168-2.103c1.079-1.475,2.74-3.249,4.054-3.126
		c-1.052,3.862-2.986,7.517-3.553,11.655"/>
	<path fill-rule="evenodd" clip-rule="evenodd" fill="none" stroke="#000000" stroke-width="0.9609" stroke-linecap="round" d="
		M582.056,220.921c0.037-0.67-0.081-1.057-0.207-1.431c-6.808-3.607-8.07-12.653-5.479-19.307"/>
	<path fill-rule="evenodd" clip-rule="evenodd" fill="none" stroke="#000000" stroke-width="1.1194" stroke-linecap="round" d="
		M592.759,187.808c-1.043,0.521-2.214-0.254-3.345,0"/>
	<path fill-rule="evenodd" clip-rule="evenodd" fill="none" stroke="#000000" stroke-width="1.0218" stroke-linecap="round" d="
		M582.725,173.091c-0.639,1.202,0.08,2.733-0.846,3.833c-2.951,2.557-4.896,6.032-6.513,9.545"/>
	<path fill-rule="evenodd" clip-rule="evenodd" fill="none" stroke="#000000" stroke-width="1.0495" stroke-linecap="round" d="
		M578.042,167.739c3.13,10.409-6.947,16.717-11.372,24.082"/>
	<path fill-rule="evenodd" clip-rule="evenodd" fill="none" stroke="#000000" stroke-width="0.9075" stroke-linecap="round" d="
		M575.366,152.353c-1.082,0.147-1.421,1.221-2.158,1.856c-0.942,0.171-2.192,0.037-2.988,0.355c-1.722,0.738-2.57,2.257-3.711,3.648
		c-3.562,1.042-4.171,5.345-6.528,7.52"/>
	<path fill-rule="evenodd" clip-rule="evenodd" fill="none" stroke="#000000" stroke-width="0.7793" stroke-linecap="round" d="
		M559.646,206.204c1.37,1.344,3.738,0.832,4.683,2.676"/>
	<path fill-rule="evenodd" clip-rule="evenodd" fill="none" stroke="#000000" stroke-width="1.3925" stroke-linecap="round" d="
		M564.328,208.88c0.224,0,0.446,0,0.669,0"/>
	<path fill-rule="evenodd" clip-rule="evenodd" fill="none" stroke="#000000" stroke-width="0.8931" stroke-linecap="round" d="
		M568.677,201.855c-0.745,2.607-2.669,4.63-3.68,7.024"/>
	<path fill-rule="evenodd" clip-rule="evenodd" fill="none" stroke="#000000" stroke-width="1.2515" stroke-linecap="round" d="
		M567.116,210.329c1.26-1.135,2.969-1.839,4.236-3.122"/>
	<path fill-rule="evenodd" clip-rule="evenodd" fill="none" stroke="#000000" stroke-width="0.927" stroke-linecap="round" d="
		M576.035,163.726c-0.991,1.184-1.623,2.442-2.193,3.827c-4.499,4.941-10.143,6.986-10.967,16.256
		c2.747-0.44,2.808-4.568,4.641-6.527c1.673-0.119,2.138-1.158,3.326-2.024c0.291-0.212,0.734-0.121,0.993-0.345
		c2.393-2.067,3.024-5.384,6.207-7.172"/>
	<path fill-rule="evenodd" clip-rule="evenodd" fill="none" stroke="#000000" stroke-width="0.855" stroke-linecap="round" d="
		M574.697,145.664c-1.913,1.289-2.389,3.698-4.164,5.202c-1.846,0.087-3.718,0.231-5.039,1.65c-1.559,3.861-4.012,7.122-6.043,10.68
		c-0.068,0.824-0.179,1.605-0.475,2.202"/>
	<path fill-rule="evenodd" clip-rule="evenodd" fill="none" stroke="#000000" stroke-width="0.8193" stroke-linecap="round" d="
		M558.977,165.398c0.264,0.183,0.631,0.261,1.004,0.334"/>
	<path fill-rule="evenodd" clip-rule="evenodd" fill="none" stroke="#000000" stroke-width="1.1587" stroke-linecap="round" d="
		M494.758,194.832c1.487,0.434,3.094,0.704,4.683,0.669"/>
	<path fill-rule="evenodd" clip-rule="evenodd" fill="none" stroke="#000000" stroke-width="1.0341" stroke-linecap="round" d="
		M499.44,195.5c0.635-1.678,2.571-1.726,3.52-3.169c1.37-2.597,2.605-4.953,4.348-7.025c0.39-0.464,1.221-0.593,1.658-1.017
		c2.501-2.426,4.063-7.314,3.018-12.871"/>
	<path fill-rule="evenodd" clip-rule="evenodd" fill="none" stroke="#000000" stroke-width="1.1175" stroke-linecap="round" d="
		M512.819,193.996c0.146,0.041,0.291,0.081,0.437,0.122c3.181-0.085,5.483-2.621,7.754-4.483c1.417-4.239,5.718-5.874,8.708-8.675
		c2.24-4.823,4.247-10.42,3.505-15.896"/>
	<path fill-rule="evenodd" clip-rule="evenodd" fill="none" stroke="#000000" stroke-width="1.1587" stroke-linecap="round" d="
		M533.223,165.063c-1.436-0.152-3.026,0.358-4.349-0.334"/>
	<path fill-rule="evenodd" clip-rule="evenodd" fill="none" stroke="#000000" stroke-width="0.9027" stroke-linecap="round" d="
		M451.944,139.309c4.931,6.42-6.396,12.423-10.519,16.909c-0.948,0.15-2.146,0.188-3.098,0.052c-0.937-0.791-1.508-2.205-2.94-2.244
		"/>
	<path fill-rule="evenodd" clip-rule="evenodd" fill="none" stroke="#000000" stroke-width="1.1514" stroke-linecap="round" d="
		M435.388,154.025c-0.255,0.413-0.546,0.524-0.849,0.744c-2.158,5.423-2.622,14.971,0.528,18.797
		c0.641,1.652,0.049,3.369,0.312,5.016c0.997,0.615,1.469,1.847,2.629,2.313"/>
	<path fill-rule="evenodd" clip-rule="evenodd" fill="none" stroke="#000000" stroke-width="1.206" stroke-linecap="round" d="
		M438.008,180.895c1.278,0.324,2.569-0.074,3.902-0.111"/>
	<path fill-rule="evenodd" clip-rule="evenodd" fill="none" stroke="#000000" stroke-width="0.902" stroke-linecap="round" d="
		M441.91,180.784c1.337-0.15,2.657-1.546,4.014-0.669"/>
	<path fill-rule="evenodd" clip-rule="evenodd" fill="none" stroke="#000000" stroke-width="1.0852" stroke-linecap="round" d="
		M445.924,180.115c2.068-1.208,4.697-0.443,6.801,0.111"/>
	<path fill-rule="evenodd" clip-rule="evenodd" fill="none" stroke="#000000" stroke-width="1.1933" stroke-linecap="round" d="
		M452.725,180.226c1.31-0.267,2.701,0.078,3.902,0.558"/>
	<path fill-rule="evenodd" clip-rule="evenodd" fill="none" stroke="#000000" stroke-width="0.8462" stroke-linecap="round" d="
		M456.627,180.784c2.111-0.022,4.684,0.357,7.024,0.669"/>
	<path fill-rule="evenodd" clip-rule="evenodd" fill="none" stroke="#000000" stroke-width="0.946" stroke-linecap="round" d="
		M463.651,181.453c1.264-0.543,2.677-0.256,4.014-0.334"/>
	<path fill-rule="evenodd" clip-rule="evenodd" fill="none" stroke="#000000" stroke-width="0.9908" stroke-linecap="round" d="
		M467.665,181.118c3.34-1.016,5.792-3.721,8.919-5.129"/>
	<path fill-rule="evenodd" clip-rule="evenodd" fill="none" stroke="#000000" stroke-width="0.9863" stroke-linecap="round" d="
		M476.584,175.989c1.227-1.792,3.346-3.104,5.352-4.014"/>
	<path fill-rule="evenodd" clip-rule="evenodd" fill="none" stroke="#000000" stroke-width="0.9106" stroke-linecap="round" d="
		M481.936,171.976c2.133-2.306,5.559-3.809,8.474-4.905"/>
	<path fill-rule="evenodd" clip-rule="evenodd" fill="none" stroke="#000000" stroke-width="1.0162" stroke-linecap="round" d="
		M490.409,167.07c1.443-1.869,3.845-3.635,6.355-3.679"/>
	<path fill-rule="evenodd" clip-rule="evenodd" fill="none" stroke="#000000" stroke-width="1.0465" stroke-linecap="round" d="
		M496.765,163.391c3.707-1.954,7.954-2.354,11.701-4.653c0.087-0.053,0.248,0.015,0.34-0.03"/>
	<path fill-rule="evenodd" clip-rule="evenodd" fill="none" stroke="#000000" stroke-width="0.869" stroke-linecap="round" d="
		M508.806,158.708c1.948-2.189,3.845-4.821,6.522-6.021"/>
	<path fill-rule="evenodd" clip-rule="evenodd" fill="none" stroke="#000000" stroke-width="1.1662" stroke-linecap="round" d="
		M515.328,152.688c3.62-4.408,10.654-4.648,16.11-4.571"/>
	<path fill-rule="evenodd" clip-rule="evenodd" fill="none" stroke="#000000" stroke-width="0.9252" stroke-linecap="round" d="
		M552.956,133.957c-2.906-0.949-4.304-4.189-6.354-6.355"/>
	<path fill-rule="evenodd" clip-rule="evenodd" fill="none" stroke="#000000" stroke-width="0.7861" stroke-linecap="round" d="
		M567.674,121.247c-2.626-0.736-4.64-2.543-7.024-3.679"/>
	<path fill-rule="evenodd" clip-rule="evenodd" fill="none" stroke="#000000" stroke-width="0.9383" stroke-linecap="round" d="
		M525.027,95.827c-0.037,0.113-0.073,0.226-0.11,0.339c-1.962,1.739-4.456,1.334-6.313,2.102c-3.109,1.285-4.52,2.554-7.941,5.413
		c-0.354,0.296-0.628,1.022-1.126,1.437c-0.701,0.584-1.611,0.726-2.234,1.245c-3.166,2.641-5.72,6.049-8.716,10.016
		c-0.089,1.053-0.728,1.931-1.152,2.861"/>
	<path fill-rule="evenodd" clip-rule="evenodd" fill="none" stroke="#000000" stroke-width="0.8835" stroke-linecap="round" d="
		M497.545,99.283c-0.024,0.087-0.048,0.174-0.071,0.261c-0.121,0.662-1.502,0.395-2.185,0.829c-1.059,0.672-1.962,2.067-3.025,2.995
		c-0.484,0.422-1.196,0.579-1.687,0.989c-2.332,1.952-5.172,5.157-6.668,6.697c-1.236,1.274-2.548,1.704-2.865,3.838"/>
	<path fill-rule="evenodd" clip-rule="evenodd" fill="none" stroke="#000000" stroke-width="0.9694" stroke-linecap="round" d="
		M470.675,129.943c2.635-1.228,3.637-4.154,4.683-6.689"/>
	<path fill-rule="evenodd" clip-rule="evenodd" fill="none" stroke="#000000" stroke-width="0.9694" stroke-linecap="round" d="
		M578.934,87.911c-0.945,4.451,0.343,10.745,5.575,11.373"/>
	<path fill-rule="evenodd" clip-rule="evenodd" fill="none" stroke="#000000" stroke-width="0.8636" stroke-linecap="round" d="
		M455.289,111.547c-1.175-3.686,0.987-7.078,3.345-9.7"/>
	<path fill-rule="evenodd" clip-rule="evenodd" fill="none" stroke="#000000" stroke-width="0.9775" stroke-linecap="round" d="
		M573.025,90.475c-0.176,4.037,0.408,9.456,4.825,11.229c0.139,0.307,0.331,0.561,0.526,0.812"/>
	<path fill-rule="evenodd" clip-rule="evenodd" fill="none" stroke="#000000" stroke-width="0.946" stroke-linecap="round" d="
		M578.377,102.516c2.103-0.866,4.885-1.161,6.132-3.233"/>
	<path fill-rule="evenodd" clip-rule="evenodd" fill="none" stroke="#000000" stroke-width="1.1115" stroke-linecap="round" d="
		M418.497,121.247c0.145-0.078,0.289-0.156,0.435-0.234c0.829-0.114,1.727-0.118,2.376,0.101c3.116,2.684,5.601,8.199,2.207,11.84"
		/>
	<path fill-rule="evenodd" clip-rule="evenodd" fill="none" stroke="#000000" stroke-width="1.037" stroke-linecap="round" d="
		M423.515,132.954c0.238,2.122,1.537,3.572,2.526,5.5c2.521,4.914,5.489,10.054,9.056,14.255c0.076,0.44,0.173,0.913,0.291,1.316"/>
	<path fill-rule="evenodd" clip-rule="evenodd" fill="none" stroke="#000000" stroke-width="1.0727" stroke-linecap="round" d="
		M557.974,96.83c-1.271,4.707,0.776,11.061,5.971,12.091c0.128,0.095,0.256,0.19,0.384,0.285"/>
	<path fill-rule="evenodd" clip-rule="evenodd" fill="none" stroke="#000000" stroke-width="0.9607" stroke-linecap="round" d="
		M564.328,109.206c4.931-1.485,9.604-3.908,14.049-6.689"/>
	<path fill-rule="evenodd" clip-rule="evenodd" fill="none" stroke="#000000" stroke-width="1.4843" stroke-linecap="round" d="
		M557.305,112.885c1.256-0.222,2.419-0.848,3.679-1.003"/>
	<path fill-rule="evenodd" clip-rule="evenodd" fill="none" stroke="#000000" stroke-width="0.8898" stroke-linecap="round" d="
		M560.983,111.881c0.565-1.464,2.871-0.978,3.345-2.676"/>
	<path fill-rule="evenodd" clip-rule="evenodd" fill="none" stroke="#000000" stroke-width="0.9113" stroke-linecap="round" d="
		M539.912,102.851c-0.188,0.035-0.376,0.07-0.564,0.105c-3.621,1.085-4.023,9.654-0.462,12.293c0.426,0.316,1.429,0.655,1.838,0.838
		c1.887,0.843,5.821,3.481,8.702,0.96c2.969-0.519,5.443-2.384,7.879-4.163"/>
	<path fill-rule="evenodd" clip-rule="evenodd" fill="none" stroke="#000000" stroke-width="0.9108" stroke-linecap="round" d="
		M557.305,112.885c-5.316-2.213-6.858-8.549-5.352-13.713"/>
	<path fill-rule="evenodd" clip-rule="evenodd" fill="none" stroke="#000000" stroke-width="0.9836" stroke-linecap="round" d="
		M458.969,113.554c0.094-2.184-0.294-3.78,0.371-5.547c0.211-0.561,3.342-3.662,4.758-4.709"/>
	<path fill-rule="evenodd" clip-rule="evenodd" fill="none" stroke="#000000" stroke-width="1.0838" stroke-linecap="round" d="
		M464.098,103.297c-1.594-1.154-3.558-1.304-5.464-1.45"/>
	<path fill-rule="evenodd" clip-rule="evenodd" fill="none" stroke="#000000" stroke-width="0.9814" stroke-linecap="round" d="
		M468.668,117.233c3.344-3.566,7.377-6.69,10.035-10.704"/>
	<path fill-rule="evenodd" clip-rule="evenodd" fill="none" stroke="#000000" stroke-width="0.9624" stroke-linecap="round" d="
		M478.703,106.53c-4.734-1.634-9.806-2.037-14.605-3.233"/>
	<path fill-rule="evenodd" clip-rule="evenodd" fill="none" stroke="#000000" stroke-width="1.0096" stroke-linecap="round" d="
		M418.497,121.247c1.344,3.887,1.486,9.187,5.018,11.707"/>
	<path fill-rule="evenodd" clip-rule="evenodd" fill="none" stroke="#000000" stroke-width="1.1009" stroke-linecap="round" d="
		M552.956,133.957c1.107,2.716,3.776,4.806,6.021,6.689"/>
	<path fill-rule="evenodd" clip-rule="evenodd" fill="none" stroke="#000000" stroke-width="0.8871" stroke-linecap="round" d="
		M568.565,127.268c-2.422-0.206-4.062,1.975-6.049,2.871c-3.267,1.015-6.812,1.641-9.561,3.819"/>
	<path fill-rule="evenodd" clip-rule="evenodd" fill="none" stroke="#000000" stroke-width="1.2954" stroke-linecap="round" d="
		M558.977,140.646c-0.045,0.309,0.356,0.873,0.781,1.449"/>
	<path fill-rule="evenodd" clip-rule="evenodd" fill="none" stroke="#000000" stroke-width="0.8651" stroke-linecap="round" d="
		M568.677,128.271c-1.365,1.279-1.977,2.706-3.504,3.854c-0.588,0.442-1.211,0.456-1.686,0.99c-0.209,0.236-0.162,0.75-0.348,0.99
		c-1.611,2.083-3.156,3.149-4.163,6.541"/>
	<path fill-rule="evenodd" clip-rule="evenodd" fill="none" stroke="#000000" stroke-width="1.0799" stroke-linecap="round" d="
		M508.806,158.708c0.076,0.146,0.153,0.292,0.23,0.439c1.243,0.6,2.208,1.859,3.405,2.615c1.528,1.143,2.272,4.288,4.531,3.752
		c0.16-0.289,0.302-0.529,0.443-0.768c0.354-4.167-0.863-8.161-2.088-12.059"/>
	
		<line fill-rule="evenodd" clip-rule="evenodd" fill="none" stroke="#000000" stroke-width="1.4958" stroke-linecap="round" x1="533.223" y1="165.063" x2="533.223" y2="165.063"/>
	<path fill-rule="evenodd" clip-rule="evenodd" fill="none" stroke="#000000" stroke-width="0.9519" stroke-linecap="round" d="
		M533.223,165.063c2.435-5.019-0.821-10.37-5.52-12.376"/>
	<path fill-rule="evenodd" clip-rule="evenodd" fill="none" stroke="#000000" stroke-width="0.8714" stroke-linecap="round" d="
		M676.824,183.348c3.512-0.716,6.962,0.121,10.07,1.971c0.796,0.474,1.442,1.583,2.347,2.336c3.236,2.7,5.989,3.909,6.661,8.791
		c0.107,0.168,0.215,0.336,0.321,0.504"/>
	<path fill-rule="evenodd" clip-rule="evenodd" fill="none" stroke="#000000" stroke-width="1.0071" stroke-linecap="round" d="
		M507.133,172.756c1.792,0.061,3.11-1.147,4.851-1.338"/>
	<path fill-rule="evenodd" clip-rule="evenodd" fill="none" stroke="#000000" stroke-width="1.4958" stroke-linecap="round" d="
		M511.983,171.418c0.093-0.186,0.186-0.372,0.278-0.558"/>
	<path fill-rule="evenodd" clip-rule="evenodd" fill="none" stroke="#000000" stroke-width="0.8462" stroke-linecap="round" d="
		M490.409,167.07c2.416,2.496,3.847,5.517,5.798,8.25"/>
	<path fill-rule="evenodd" clip-rule="evenodd" fill="none" stroke="#000000" stroke-width="1.3075" stroke-linecap="round" d="
		M496.207,175.32c0.118,0.029,0.235,0.059,0.354,0.088c0.498,0.046,0.941-0.28,1.366-0.609c0.142-3.785,0.882-8.018-1.162-11.408"/>
	<path fill-rule="evenodd" clip-rule="evenodd" fill="none" stroke="#000000" stroke-width="1.0658" stroke-linecap="round" d="
		M558.977,165.398c-0.28,0.506-0.209,1.274-0.111,1.811c0.789-0.038,0.971-0.735,1.115-1.477"/>
	<path fill-rule="evenodd" clip-rule="evenodd" fill="none" stroke="#000000" stroke-width="0.9634" stroke-linecap="round" d="
		M481.936,171.976c1.483,2.934,0.722,6.411,1.45,9.477"/>
	<path fill-rule="evenodd" clip-rule="evenodd" fill="none" stroke="#000000" stroke-width="1.0413" stroke-linecap="round" d="
		M483.386,181.453c2.638-0.092,4.031-2.916,6.577-3.456"/>
	<path fill-rule="evenodd" clip-rule="evenodd" fill="none" stroke="#000000" stroke-width="1.4451" stroke-linecap="round" d="
		M489.963,177.997c0.062-0.202,0.088-0.544,0.112-0.892"/>
	<path fill-rule="evenodd" clip-rule="evenodd" fill="none" stroke="#000000" stroke-width="0.9966" stroke-linecap="round" d="
		M490.075,177.104c0.6-2.553-1.616-5.257-0.671-7.419c2.446,0.877,3.67,3.665,4.016,6.082"/>
	<path fill-rule="evenodd" clip-rule="evenodd" fill="none" stroke="#000000" stroke-width="0.9258" stroke-linecap="round" d="
		M489.963,177.997c1.494,3.39,0.071,9.703-2.941,13.113c-1.03,1.165-2.577,1.555-3.302,3.388"/>
	<path fill-rule="evenodd" clip-rule="evenodd" fill="none" stroke="#000000" stroke-width="1.6386" stroke-linecap="round" d="
		M483.72,194.497c1.115,0.391,2.229,0.343,3.345,0"/>
	<path fill-rule="evenodd" clip-rule="evenodd" fill="none" stroke="#000000" stroke-width="0.9322" stroke-linecap="round" d="
		M487.064,194.497c3.013-2.738,5.475-5.126,6.553-9.501c0.706-2.864,0.475-6.197-0.197-8.895"/>
	<path fill-rule="evenodd" clip-rule="evenodd" fill="none" stroke="#000000" stroke-width="0.7915" stroke-linecap="round" d="
		M490.075,177.104c1.506-0.066,2.572-0.61,3.345-1.003"/>
	<path fill-rule="evenodd" clip-rule="evenodd" fill="none" stroke="#000000" stroke-width="0.9584" stroke-linecap="round" d="
		M476.584,175.989c1.841,1.987,3.482,4.236,5.129,6.467"/>
	<path fill-rule="evenodd" clip-rule="evenodd" fill="none" stroke="#000000" stroke-width="1.6386" stroke-linecap="round" d="
		M481.713,182.456c0.55-0.195,1.077-0.561,1.673-1.003"/>
	<path fill-rule="evenodd" clip-rule="evenodd" fill="none" stroke="#000000" stroke-width="0.9818" stroke-linecap="round" d="
		M467.665,181.118c0.304,1.646-0.765,3.065-0.669,4.683"/>
	<path fill-rule="evenodd" clip-rule="evenodd" fill="none" stroke="#000000" stroke-width="0.9006" stroke-linecap="round" d="
		M466.996,185.801c4.714,0.114,9.561,0.201,13.85-1.541c0.316-0.513,0.523-1.061,0.867-1.804"/>
	<path fill-rule="evenodd" clip-rule="evenodd" fill="none" stroke="#000000" stroke-width="1.2655" stroke-linecap="round" d="
		M442.245,183.794c0.698,0.524,1.257,0.769,1.9,0.951c1.712-0.682,1.558-3.066,1.778-4.63"/>
	<path fill-rule="evenodd" clip-rule="evenodd" fill="none" stroke="#000000" stroke-width="1.0774" stroke-linecap="round" d="
		M452.725,180.226c-0.261,1.51,0.076,4.387,1.891,4.452c0.804-1.229,1.784-2.397,2.012-3.894"/>
	<path fill-rule="evenodd" clip-rule="evenodd" fill="none" stroke="#000000" stroke-width="1.3097" stroke-linecap="round" d="
		M442.245,183.794c0.053-1.33-0.058-2.314-0.335-3.01"/>
	<path fill-rule="evenodd" clip-rule="evenodd" fill="none" stroke="#000000" stroke-width="1.0924" stroke-linecap="round" d="
		M438.008,180.895c-0.187,2.381,0.76,4.66,1.75,6.733c0.298,0.187,0.602,0.21,0.906,0.226c1.088-1.042,0.403-2.992,1.581-4.061"/>
	<path fill-rule="evenodd" clip-rule="evenodd" fill="none" stroke="#000000" stroke-width="1.0085" stroke-linecap="round" d="
		M463.651,181.453c-0.121,1.371,0.072,2.693,0.334,4.014"/>
	<path fill-rule="evenodd" clip-rule="evenodd" fill="none" stroke="#000000" stroke-width="1.0034" stroke-linecap="round" d="
		M463.985,185.466c0.93,0.083,0.976,1.657,2.002,1.219c0.197-0.394,0.565-0.684,1.009-0.884"/>
	<path fill-rule="evenodd" clip-rule="evenodd" fill="none" stroke="#000000" stroke-width="0.8636" stroke-linecap="round" d="
		M674.817,186.693c0.084,0.025,0.168,0.05,0.252,0.075c5.366-1.357,11.532,0.779,14.207,5.525c2.695,2.07,4.796,4.733,5.609,8.002"
		/>
	<path fill-rule="evenodd" clip-rule="evenodd" fill="none" stroke="#000000" stroke-width="1.1933" stroke-linecap="round" d="
		M694.886,200.295c1.333-0.358,0.916-2.281,1.338-3.345"/>
	<path fill-rule="evenodd" clip-rule="evenodd" fill="none" stroke="#000000" stroke-width="1.3655" stroke-linecap="round" d="
		M687.75,225.269c0.636-1.015,1.123-2.346,0.893-3.568"/>
	<path fill-rule="evenodd" clip-rule="evenodd" fill="none" stroke="#000000" stroke-width="0.8952" stroke-linecap="round" d="
		M688.643,221.701c-0.088-0.024-0.175-0.047-0.262-0.071c-0.73-1.725-1.804-3.756-2.837-5.527c-2.56-1.46-5.112-2.457-8.162-2.541"
		/>
	<path fill-rule="evenodd" clip-rule="evenodd" fill="none" stroke="#000000" stroke-width="0.8049" stroke-linecap="round" d="
		M655.306,224.935c0.758,0.071,2.008-0.183,2.802-0.112c-0.6-0.053,2.835,0.376,3.354,0.647c0.387,0.202,0.63,0.827,1.018,0.989
		c0.549,0.23,1.177,0.123,1.653,0.344c0.786,0.365,1.572,1.354,2.315,1.695c1.756,0.807,3.235,2.556,4.738,4.639
		c3.812,2.13,7.492,5.138,9.727,9.005c0.037,0.963,0.897,1.856,1.486,2.527"/>
	<path fill-rule="evenodd" clip-rule="evenodd" fill="none" stroke="#000000" stroke-width="1.1554" stroke-linecap="round" d="
		M682.398,244.669c2.749-5.989,3.842-12.901,5.352-19.4"/>
	<path fill-rule="evenodd" clip-rule="evenodd" fill="none" stroke="#000000" stroke-width="0.8991" stroke-linecap="round" d="
		M687.75,225.269c-0.415-0.161-0.694-0.284-0.967-0.404c-1.818-3.351-3.124-7.464-7.061-8.961"/>
	<path fill-rule="evenodd" clip-rule="evenodd" fill="none" stroke="#000000" stroke-width="0.9416" stroke-linecap="round" d="
		M653.856,226.83c1.531,0.855,3.44,0.258,5.125,0.449c2.599,0.982,4.805,2.943,7.172,4.854c4.372,3.532,8.853,7.68,11.256,12.07
		c0.077,0.142,0.418,0.127,0.487,0.271c0.229,0.48,0.157,1.317,0.309,1.675c0.054,0.127,0.452,0.116,0.533,0.271
		c0.656,1.265-0.036,2.989,1.653,4.268"/>
	<path fill-rule="evenodd" clip-rule="evenodd" fill="none" stroke="#000000" stroke-width="1.4397" stroke-linecap="round" d="
		M680.392,250.689c1.734-1.564,1.49-3.985,2.007-6.021"/>
	<path fill-rule="evenodd" clip-rule="evenodd" fill="none" stroke="#000000" stroke-width="1.0012" stroke-linecap="round" d="
		M635.906,238.313c0.145,0.302,0.328,0.564,0.514,0.824c1.732,0.699,3.965,2.221,4.098,4.494c0.133,2.288-0.074,6.801-0.468,8.19
		c-0.235,0.83-1.086,1.097-1.356,1.319"/>
	<path fill-rule="evenodd" clip-rule="evenodd" fill="none" stroke="#000000" stroke-width="1.1587" stroke-linecap="round" d="
		M638.693,253.142c-0.312,1.377-1.38,2.47-1.449,3.902"/>
	<path fill-rule="evenodd" clip-rule="evenodd" fill="none" stroke="#000000" stroke-width="0.917" stroke-linecap="round" d="
		M637.244,257.044c1.968,2.731,2.939,6.379,5.521,8.536c1.944,7.306,3.577,13.881-0.032,20.37c-0.142,0.254-0.571,0.281-0.688,0.546
		c-1.557,3.573-2.834,7.155-5.08,10.405c-0.103,0.147,0.03,0.456-0.055,0.614"/>
	<path fill-rule="evenodd" clip-rule="evenodd" fill="none" stroke="#000000" stroke-width="0.9833" stroke-linecap="round" d="
		M636.91,297.516c0.221-0.002,0.442-0.004,0.663-0.006c4.906-2.807,10.074-5.571,14.544-8.859c0.37-0.273,0.633-0.982,1.119-1.324
		c0.837-0.59,1.439-0.608,2.712-1.792c0.444-0.413,1.229-1.343,1.699-1.731"/>
	<path fill-rule="evenodd" clip-rule="evenodd" fill="none" stroke="#000000" stroke-width="1.5328" stroke-linecap="round" d="
		M656.31,253.699c-1.225-1.335-2.551-2.403-4.014-3.345"/>
	<path fill-rule="evenodd" clip-rule="evenodd" fill="none" stroke="#000000" stroke-width="0.8283" stroke-linecap="round" d="
		M637.244,257.044c-1.157,0.785-1.711,2.261-2.676,3.345"/>
	<path fill-rule="evenodd" clip-rule="evenodd" fill="none" stroke="#000000" stroke-width="0.8596" stroke-linecap="round" d="
		M634.568,260.389c0.146,0.077,0.293,0.154,0.438,0.23c8.048,11.521,5.877,27.722-1.776,38.903"/>
	<path fill-rule="evenodd" clip-rule="evenodd" fill="none" stroke="#000000" stroke-width="1.5228" stroke-linecap="round" d="
		M522.854,206.873c-0.46-0.255-0.926-0.376-1.312-0.489c-0.338,0.722-0.854,1.072-1.21,1.299c-0.052,1.665-0.867,3.413-0.154,5.042"
		/>
	<path fill-rule="evenodd" clip-rule="evenodd" fill="none" stroke="#000000" stroke-width="1.1989" stroke-linecap="round" d="
		M604.8,219.917c2.211-2.158,3.043-5.527,3.345-8.696"/>
	<path fill-rule="evenodd" clip-rule="evenodd" fill="none" stroke="#000000" stroke-width="1.1635" stroke-linecap="round" d="
		M604.8,206.538c-3.092,3.193-2.428,8.59-1.247,12.616c0.254,0.277,0.751,0.482,1.247,0.763"/>
	<path fill-rule="evenodd" clip-rule="evenodd" fill="none" stroke="#000000" stroke-width="1.5419" stroke-linecap="round" d="
		M604.8,219.917c-0.516,2.164,0.437,4.658,1.784,6.466"/>
	<path fill-rule="evenodd" clip-rule="evenodd" fill="none" stroke="#000000" stroke-width="1.3655" stroke-linecap="round" d="
		M606.584,226.384c0.856-0.07,1.018-0.988,1.561-1.449"/>
	<path fill-rule="evenodd" clip-rule="evenodd" fill="none" stroke="#000000" stroke-width="0.8481" stroke-linecap="round" d="
		M608.145,224.935c0.018-2.733,1.949-5.081,3.345-7.024"/>
	<path fill-rule="evenodd" clip-rule="evenodd" fill="none" stroke="#000000" stroke-width="0.8193" stroke-linecap="round" d="
		M611.489,217.911c0.406,0.04,0.708,0.185,1.004,0.334"/>
	<path fill-rule="evenodd" clip-rule="evenodd" fill="none" stroke="#000000" stroke-width="0.8193" stroke-linecap="round" d="
		M611.824,216.238c-0.234,0.435-0.255,1.083-0.335,1.672"/>
	<path fill-rule="evenodd" clip-rule="evenodd" fill="none" stroke="#000000" stroke-width="1.2387" stroke-linecap="round" d="
		M613.831,226.941c0.088,1.607-0.272,3.188-0.836,4.683"/>
	<path fill-rule="evenodd" clip-rule="evenodd" fill="none" stroke="#000000" stroke-width="1.1587" stroke-linecap="round" d="
		M608.145,224.935c1.411-0.305,2.121-1.697,3.345-2.341"/>
	<path fill-rule="evenodd" clip-rule="evenodd" fill="none" stroke="#000000" stroke-width="1.2663" stroke-linecap="round" d="
		M611.489,222.593c0.493-1.406,0.314-3.008,1.004-4.348"/>
	<path fill-rule="evenodd" clip-rule="evenodd" fill="none" stroke="#000000" stroke-width="1.2335" stroke-linecap="round" d="
		M580.885,236.307c-0.499,3.642,2.574,5.822,4.293,8.585"/>
	<path fill-rule="evenodd" clip-rule="evenodd" fill="none" stroke="#000000" stroke-width="1.0787" stroke-linecap="round" d="
		M585.178,244.892c1.356,0.282,2.357,1.358,2.676,2.676"/>
	<path fill-rule="evenodd" clip-rule="evenodd" fill="none" stroke="#000000" stroke-width="0.9213" stroke-linecap="round" d="
		M594.432,232.962c-2.712-2.26-6.24-1.297-9.365-2.007"/>
	<path fill-rule="evenodd" clip-rule="evenodd" fill="none" stroke="#000000" stroke-width="0.9683" stroke-linecap="round" d="
		M585.066,230.955c-2.022,1.316-2.828,3.575-4.182,5.352"/>
	<path fill-rule="evenodd" clip-rule="evenodd" fill="none" stroke="#000000" stroke-width="1.0267" stroke-linecap="round" d="
		M433.214,248.683c0.033,0.112,0.065,0.224,0.099,0.336c5.027,0.362,9.804-2.415,14.842-2.678"/>
	<path fill-rule="evenodd" clip-rule="evenodd" fill="none" stroke="#000000" stroke-width="0.951" stroke-linecap="round" d="
		M448.154,246.341c1.445-1.115,3.3-1.912,3.985-3.819c0.146-0.795,0.165-1.704-0.075-2.323c-1.976-1.233-4.101-1.963-6.475-1.216"/>
	<path fill-rule="evenodd" clip-rule="evenodd" fill="none" stroke="#000000" stroke-width="1.0411" stroke-linecap="round" d="
		M593.596,248.181c5.243,1.023,9.714,4.688,15.441,4.069"/>
	<path fill-rule="evenodd" clip-rule="evenodd" fill="none" stroke="#000000" stroke-width="1.4191" stroke-linecap="round" d="
		M609.037,252.25c0.101-0.543,0.096-1.342,0.111-1.896"/>
	<path fill-rule="evenodd" clip-rule="evenodd" fill="none" stroke="#000000" stroke-width="0.9938" stroke-linecap="round" d="
		M599.448,240.655c-2.861-1.92-6.687-3.011-9.845-1.145c-0.256,0.438-0.403,0.771-0.492,1.136c0.135,3.259,2.832,5.169,4.484,7.534"
		/>
	<path fill-rule="evenodd" clip-rule="evenodd" fill="none" stroke="#000000" stroke-width="1.049" stroke-linecap="round" d="
		M425.855,241.658c-4.077,1.999-8.048,10.473-4.813,16.204c0.06,0.106,0.448,0.027,0.531,0.121c0.395-0.2,0.62-0.596,0.956-0.82
		c0.207-0.063,0.352-0.164,0.493-0.268c1.284-3.381,4.569-5.737,6.846-8.548"/>
	<path fill-rule="evenodd" clip-rule="evenodd" fill="none" stroke="#000000" stroke-width="1.0413" stroke-linecap="round" d="
		M627.768,253.811c0.119,3.924-1.729,7.74-3.428,11.066c-0.178,0.84-0.075,1.63,0.231,2.066c0.931,0.29,1.911-0.118,2.782-0.394
		c2.34-2.124,5.188-3.588,7.215-6.161"/>
	<path fill-rule="evenodd" clip-rule="evenodd" fill="none" stroke="#000000" stroke-width="1.0884" stroke-linecap="round" d="
		M638.693,253.142c-2.546-3.128-8.124-1.536-10.926,0.669"/>
	<path fill-rule="evenodd" clip-rule="evenodd" fill="none" stroke="#000000" stroke-width="0.8975" stroke-linecap="round" d="
		M663.668,277.447c-0.46-3.827,3.328-8.141,0.145-11.517c-1.16-4.616-2.889-9.92-7.503-12.231"/>
	<path fill-rule="evenodd" clip-rule="evenodd" fill="none" stroke="#000000" stroke-width="0.9834" stroke-linecap="round" d="
		M656.31,253.699c-0.111,1.664,0.811,3.272,1.862,4.492c1.079,3.359,1.42,8.174,2.723,11.995c1.813,5.32-1.796,8.039-3.247,13.616"
		/>
	<path fill-rule="evenodd" clip-rule="evenodd" fill="none" stroke="#000000" stroke-width="0.8494" stroke-linecap="round" d="
		M607.811,257.044c-0.255,0.46-0.377,0.928-0.493,1.316c2.139,0.332,5.174,0.431,7.316,1.227c0.325,0.12,1.826,0.654,3.336,0.258
		c1.159-0.305,2.751-0.388,2.886-2.801"/>
	<path fill-rule="evenodd" clip-rule="evenodd" fill="none" stroke="#000000" stroke-width="0.8193" stroke-linecap="round" d="
		M513.822,262.062c0.406,0.04,0.708,0.185,1.004,0.334"/>
	<path fill-rule="evenodd" clip-rule="evenodd" fill="none" stroke="#000000" stroke-width="0.9655" stroke-linecap="round" d="
		M512.484,266.075c1.563-0.621,1.431-2.481,2.342-3.68"/>
	<path fill-rule="evenodd" clip-rule="evenodd" fill="none" stroke="#000000" stroke-width="1.4707" stroke-linecap="round" d="
		M512.15,262.062c0.087,1.335-0.249,2.751,0.334,4.014"/>
	<path fill-rule="evenodd" clip-rule="evenodd" fill="none" stroke="#000000" stroke-width="0.8573" stroke-linecap="round" d="
		M504.792,270.423c0.888,1.309,1.99,2.547,3.19,3.492c0.326,1.942,1.603,3.422,2.019,5.348c1.837,2.877,5.19,5.183,5.054,8.958
		c-1.512,0.068-2.286-1.768-3.398-2.587c-4.33-1.628-8.266-4.563-9.397-9.333c-0.906-1.19-2.143-1.938-3.487-2.533"/>
	<path fill-rule="evenodd" clip-rule="evenodd" fill="none" stroke="#000000" stroke-width="0.9818" stroke-linecap="round" d="
		M498.771,273.768c-1.528,0.33-2.598,1.586-4.15,1.871c-3.259,3.4-6.297,7.154-9.07,10.998c-2.87,0.758-4.889,3.234-6.417,5.624
		c-0.651,5.052,0.389,10.166,1.435,15.098c1.85,2.704,5.283,2.965,7.66,5.049c3.637,5.067,4.303,11.168,6.529,16.884"/>
	<path fill-rule="evenodd" clip-rule="evenodd" fill="none" stroke="#000000" stroke-width="0.9058" stroke-linecap="round" d="
		M494.758,329.291c2.07,0.93,4.305,1.919,5.686,3.68"/>
	<path fill-rule="evenodd" clip-rule="evenodd" fill="none" stroke="#000000" stroke-width="0.8193" stroke-linecap="round" d="
		M494.758,329.291c-0.695,1.244-2.13,2.007-1.673,3.68"/>
	<path fill-rule="evenodd" clip-rule="evenodd" fill="none" stroke="#000000" stroke-width="1.0541" stroke-linecap="round" d="
		M493.085,332.971c3.103,0.572,4.916,2.431,8.177,3.864c3.312,1.457,6.893,1.302,11.223,1.487"/>
	<path fill-rule="evenodd" clip-rule="evenodd" fill="none" stroke="#000000" stroke-width="0.9646" stroke-linecap="round" d="
		M493.085,332.971c-6.087,2.33-12.012,6.055-17.718,8.671c-0.064,0.03-0.062,0.208-0.121,0.248"/>
	<path fill-rule="evenodd" clip-rule="evenodd" fill="none" stroke="#000000" stroke-width="0.8447" stroke-linecap="round" d="
		M475.246,341.89c2.734,1.68,5.466-1.188,7.944-2.09c0.779-0.284,1.623-0.03,1.867-0.809"/>
	<path fill-rule="evenodd" clip-rule="evenodd" fill="none" stroke="#000000" stroke-width="1.3053" stroke-linecap="round" d="
		M475.246,341.89c-2.739,0.017-5.563-0.257-8.25-0.892"/>
	<path fill-rule="evenodd" clip-rule="evenodd" fill="none" stroke="#000000" stroke-width="0.8919" stroke-linecap="round" d="
		M466.996,340.998c-3.091,2.097-7.741,1.116-9.7,5.017"/>
	<path fill-rule="evenodd" clip-rule="evenodd" fill="none" stroke="#000000" stroke-width="0.9363" stroke-linecap="round" d="
		M470.563,351.924c0.085-0.313,0.31-0.891,0.629-1.388c2.28-0.768,4.433-2.029,6.643-2.713c2.153-0.641,4.602,0.94,7.116,0.426
		c2.726-0.557,4.594-2.803,7.465-3.906"/>
	<path fill-rule="evenodd" clip-rule="evenodd" fill="none" stroke="#000000" stroke-width="1.2809" stroke-linecap="round" d="
		M488.625,365.972c0.059-0.256,0.238-0.584,0.446-0.892"/>
	<path fill-rule="evenodd" clip-rule="evenodd" fill="none" stroke="#000000" stroke-width="0.84" stroke-linecap="round" d="
		M524.86,306.547c-4.379-0.913-9.79,0.725-13.203-2.853c-1.4-0.48-2.702-1.176-3.855-2.165"/>
	<path fill-rule="evenodd" clip-rule="evenodd" fill="none" stroke="#000000" stroke-width="0.8502" stroke-linecap="round" d="
		M511.983,267.747c-2.587,0.496-5.032,1.11-7.191,2.676"/>
	<path fill-rule="evenodd" clip-rule="evenodd" fill="none" stroke="#000000" stroke-width="0.9485" stroke-linecap="round" d="
		M427.974,360.175c0.085-0.025,0.17-0.05,0.255-0.074c3.782-4.265,8.359-6.816,13.491-8.924c3.967-1.629,8.116-2.456,12.343-4.604"
		/>
	<path fill-rule="evenodd" clip-rule="evenodd" fill="none" stroke="#000000" stroke-width="0.9624" stroke-linecap="round" d="
		M450.606,363.575c2.533-1.461,6.401-5.906,10.703-7.526"/>
	<path fill-rule="evenodd" clip-rule="evenodd" fill="none" stroke="#000000" stroke-width="1.2451" stroke-linecap="round" d="
		M461.31,356.049c-2.291-2.767-2.535-6.75-4.014-10.034"/>
	<path fill-rule="evenodd" clip-rule="evenodd" fill="none" stroke="#000000" stroke-width="1.0363" stroke-linecap="round" d="
		M457.296,346.015c-0.999,0.368-2.181,0.5-3.233,0.558"/>
	<path fill-rule="evenodd" clip-rule="evenodd" fill="none" stroke="#000000" stroke-width="1.2012" stroke-linecap="round" d="
		M475.357,367.087c-1.32-4.714-0.729-9.849-2.7-14.36c-0.604-0.25-1.436-0.384-2.094-0.803"/>
	<path fill-rule="evenodd" clip-rule="evenodd" fill="none" stroke="#000000" stroke-width="0.9922" stroke-linecap="round" d="
		M470.563,351.924c-2.982,1.621-6.098,3.09-9.254,4.125"/>
	<path fill-rule="evenodd" clip-rule="evenodd" fill="none" stroke="#000000" stroke-width="1.0304" stroke-linecap="round" d="
		M548.385,372.885c-0.917,2.685-1.635,7.317-2.119,12.158c-0.314,3.137-1.442,4.673-0.135,7.936
		c0.384,0.519,0.968,0.835,1.454,1.123c2.778-0.994,4.606-3.204,7.001-4.982c0.355-0.265,0.514-0.904,0.883-1.129
		c1.625-0.985,3.212-1.672,4.654-2.689c2.393-1.688,5.321-3.249,7.37-5.35c2.082-0.315,3.576-1.968,5.532-2.495"/>
	<path fill-rule="evenodd" clip-rule="evenodd" fill="none" stroke="#000000" stroke-width="0.9827" stroke-linecap="round" d="
		M573.025,377.456c2.65-2.476,2.142-6.268,0.429-9.127c-0.41-3.246-2.034-6.25-3.611-9.098c-0.831-0.061-1.487-0.297-1.972-0.704
		c-1.571-0.854-2.784,1.093-4.212,0.197"/>
	<path fill-rule="evenodd" clip-rule="evenodd" fill="none" stroke="#000000" stroke-width="1.7517" stroke-linecap="round" d="
		M588.076,369.094c-0.322,1.657,0.036,3.585-1.003,5.018"/>
	<path fill-rule="evenodd" clip-rule="evenodd" fill="none" stroke="#000000" stroke-width="1.1587" stroke-linecap="round" d="
		M602.57,380.02c1.188-5.828,0.519-12.62-3.288-17.44c-4.952-2.13-7.938,4.242-11.206,6.515"/>
	<path fill-rule="evenodd" clip-rule="evenodd" fill="none" stroke="#000000" stroke-width="1.4347" stroke-linecap="round" d="
		M586.738,376.118c0.063-0.046,0.127-0.092,0.19-0.138c0.1-0.323,0.111-1.129,0.145-1.869"/>
	<path fill-rule="evenodd" clip-rule="evenodd" fill="none" stroke="#000000" stroke-width="1.1587" stroke-linecap="round" d="
		M587.073,374.111c-0.81,0.161-1.92,0.24-2.118,1.226"/>
	<path fill-rule="evenodd" clip-rule="evenodd" fill="none" stroke="#000000" stroke-width="0.9143" stroke-linecap="round" d="
		M429.2,222.259c-0.11,0.001-0.22,0.002-0.33,0.003c-2.652,1.026-3.877,4.063-6.514,5.195c-2.319,3.828-3.537,8.426-2.647,13
		c1.848,0.472,2.608-1.698,3.615-2.652c2.4-2.275,4.632-5.29,7.883-6.18"/>
	<path fill-rule="evenodd" clip-rule="evenodd" fill="none" stroke="#000000" stroke-width="0.9103" stroke-linecap="round" d="
		M534.561,233.966c0.677-0.009,1.057,0.28,1.473,0.533c3.452,0.688,6.757,0.916,10.04,2.001c2.266,0.75,5.626,1.742,7.933,2.77
		c0.259,0.115,0.532,0.523,0.763,0.577c5.139,1.196,9.584-0.165,15.055-2.06c3.237-2.309,6.163-5.193,9.557-7.166"/>
</g>
</svg>
