<?xml version="1.0" encoding="utf-8"?>
<!-- Generator: Adobe Illustrator 14.0.0, SVG Export Plug-In . SVG Version: 6.00 Build 43363)  -->
<!DOCTYPE svg PUBLIC "-//W3C//DTD SVG 1.1//EN" "http://www.w3.org/Graphics/SVG/1.1/DTD/svg11.dtd">
<svg version="1.1" id="图层_1" xmlns="http://www.w3.org/2000/svg" xmlns:xlink="http://www.w3.org/1999/xlink" x="0px" y="0px"
	 width="848px" height="480px" viewBox="0 0 848 480" enable-background="new 0 0 848 480" xml:space="preserve">
<g>
	<path fill="none" stroke="#000000" stroke-width="1.5945" stroke-linecap="round" d="M273.615,135.641
		c5.223-1.315,8.111,3.901,11.657,6.245"/>
	<path fill="none" stroke="#000000" stroke-width="1.3113" stroke-linecap="round" d="M236.56,147.299
		c1.354-2.924,5.484-1.663,6.885,0.607c0.108,1.003,0.553,1.668,1.025,2.307"/>
	<path fill="none" stroke="#000000" stroke-width="1.6421" stroke-linecap="round" d="M236.56,147.299
		c-1.272,2.47-2.114,5.072-1.666,7.91"/>
	<path fill="none" stroke="#000000" stroke-width="1.075" stroke-linecap="round" d="M238.642,143.552
		c-0.275,0.002-0.551,0.004-0.826,0.007c-1.13,0.607-2.413,1.545-2.69,2.88c0.413,0.286,0.977,0.529,1.436,0.86"/>
	<path fill="none" stroke="#000000" stroke-width="1.2678" stroke-linecap="round" d="M273.198,150.63
		c0.241-0.592,0.368-1.297,0.658-1.839c0.926-0.245,2.062-0.265,2.831,0.019c0.42,1.395,1.019,2.854,0.466,4.318"/>
	<path fill="none" stroke="#000000" stroke-width="1.2863" stroke-linecap="round" d="M277.154,153.128
		c1.249,2.444,0.157,5.235-0.457,7.67c-0.539,0.322-0.955,0.506-1.406,0.617c-0.442-0.075-0.984-0.344-1.467-0.604
		c-1.222-2.323-1.563-5.425-0.487-7.822"/>
	<path fill="none" stroke="#000000" stroke-width="1.2277" stroke-linecap="round" d="M273.198,150.63
		c-0.596-0.262-1.124-0.518-1.513-0.864c-0.122-2.917,2.566-4.894,4.982-5.937"/>
	<path fill="none" stroke="#000000" stroke-width="1.2977" stroke-linecap="round" d="M276.668,143.829
		c0.057-0.677-0.942-1.059-2.221-1.11"/>
	<path fill="none" stroke="#000000" stroke-width="1.5945" stroke-linecap="round" d="M276.668,143.829
		c3.661,1.611,4.166,5.824,4.857,9.298"/>
	<path fill="none" stroke="#000000" stroke-width="1.7664" stroke-linecap="round" d="M273.198,150.63
		c-0.022,0.823,0.023,1.767,0.139,2.358"/>
	<path fill="none" stroke="#000000" stroke-width="1.7664" stroke-linecap="round" d="M277.154,153.128
		c-1.66,0.012-3.035,0.019-3.816-0.14"/>
	<path fill="none" stroke="#000000" stroke-width="1.397" stroke-linecap="round" d="M239.197,153.822
		c-0.552-1.42-1.023-3.385-0.094-4.688c0.905-0.261,1.816-0.02,2.649,0.476c0.232,1.186,0.802,2.273,0.637,3.519"/>
	<path fill="none" stroke="#000000" stroke-width="1.5094" stroke-linecap="round" d="M239.197,153.822
		c1.089,0.347,2.264-0.157,3.192-0.693"/>
	<path fill="none" stroke="#000000" stroke-width="1.3311" stroke-linecap="round" d="M239.197,153.822
		c-1.678,2.478,0.699,4.903,0.884,7.392c0.183,0.101,0.417,0.227,0.654,0.354c0.171,0.318,0.396,0.63,0.624,0.941
		c0.719,0.164,1.3-0.044,1.831-0.266c0.777-2.852,0.829-6.562-0.8-9.115"/>
	<path fill="none" stroke="#000000" stroke-width="1.272" stroke-linecap="round" d="M254.047,173.112
		c-0.327-0.228-0.784-0.324-1.249-0.416"/>
	<path fill="none" stroke="#000000" stroke-width="1.0879" stroke-linecap="round" d="M254.047,173.112
		c4.86-0.299,9.178-1.112,12.942-2.879c1.107-0.52,1.586-2.085,3.065-1.423c-0.539,3.614-2.202,7.488-5.778,8.703
		C260.471,178.804,256.298,176.556,254.047,173.112"/>
	<path fill="none" stroke="#000000" stroke-width="0.8327" stroke-linecap="round" d="M259.875,168.116c0.556,0,1.11,0,1.666,0
		c0,0.555,0,1.109,0,1.665c-0.555,0-1.109,0-1.666,0C259.875,169.226,259.875,168.671,259.875,168.116z"/>
	<path fill="none" stroke="#000000" stroke-width="1.0328" stroke-linecap="round" d="M289.436,334.238
		c-1.239,0.421-1.78,2.037-3.331,1.665"/>
	<path fill="none" stroke="#000000" stroke-width="1.2859" stroke-linecap="round" d="M245.303,342.565
		c1.229,1.512,4.262,0.47,4.995,2.498"/>
	<path fill="none" stroke="#000000" stroke-width="1.3866" stroke-linecap="round" d="M279.027,280.946
		c2.808,10.056,7.785,18.386,9.7,29.022c1.667,1.899,1.37,4.794-1.215,5.563c-0.054,0.129-0.105,0.259-0.158,0.389"/>
	<path fill="none" stroke="#000000" stroke-width="1.2324" stroke-linecap="round" d="M287.354,315.918
		c1.255,2.892,2.012,6.32,3.747,8.742"/>
	<path fill="none" stroke="#000000" stroke-width="1.4148" stroke-linecap="round" d="M291.101,324.66
		c0.874-0.004,1.561,0.293,2.416,0.508c1.975,0.416,0.249,3.433,2.122,5.095c0.498,0.44,1.841,0.357,2.718,0.885
		c0.951,0.57,1.765,1.961,3.147,1.96c2.048,2.462-0.564,5.606,0.837,8.208"/>
	<path fill="none" stroke="#000000" stroke-width="1.3934" stroke-linecap="round" d="M302.343,341.316
		c3.192,0.39,5.247,3.585,5.204,6.661"/>
	<path fill="none" stroke="#000000" stroke-width="1.3898" stroke-linecap="round" d="M307.547,347.977
		c0.875,0.286,2.269,0.322,3.081,0.875c0.578,0.924,1.097,2.04,0.736,3.148"/>
	<path fill="none" stroke="#000000" stroke-width="1.272" stroke-linecap="round" d="M311.364,352.001
		c1.125,1.997,4.264,1.871,5.424,4.024c0.113,1.277-0.236,1.982-0.706,3.191"/>
	<path fill="none" stroke="#000000" stroke-width="2.5325" stroke-linecap="round" d="M316.082,359.218
		c0.435,1.067,1.263,1.784,1.805,2.915"/>
	<path fill="none" stroke="#000000" stroke-width="1.6654" stroke-linecap="round" d="M249.467,284.277
		c-0.662,0.643-1.384,1.06-1.942,1.389"/>
	<path fill="none" stroke="#000000" stroke-width="1.6454" stroke-linecap="round" d="M248.912,316.474
		c0.892,3.332,1.092,7.04,2.775,9.992"/>
	<path fill="none" stroke="#000000" stroke-width="1.4423" stroke-linecap="round" d="M251.687,326.466
		c0.148-0.034,0.298-0.069,0.445-0.104c0.74-0.052,1.435,0.241,2.118,0.607c1.125,1.608,0.368,3.662,0.69,5.474
		c1.814,1.49,4.62,1.42,5.997,3.646c0.149,0.736,0.117,1.492,0.048,2.185c-3.438,3.376-0.256,6.759-0.278,10.536"/>
	<path fill="none" stroke="#000000" stroke-width="1.4658" stroke-linecap="round" d="M260.708,348.81
		c1.343,0.991,2.06,2.44,2.795,3.864c0.029,8.174,1.778,16.861-0.795,24.772c-0.339,0.324-0.958,0.579-1.583,0.923"/>
	<path fill="none" stroke="#000000" stroke-width="1.2877" stroke-linecap="round" d="M261.124,378.369
		c-0.775,3.376-4.729,4.198-7.494,4.996"/>
	<path fill="none" stroke="#000000" stroke-width="1.4172" stroke-linecap="round" d="M253.63,383.365
		c-0.084,0.193-0.168,0.388-0.252,0.58c-2.763,1.575-5.099,3.46-8.266,5.058c-2.375,1.197-5.194,2.021-7.878,2.946
		c-10.832,3.737-23.017,6.236-32.159-2.359c-0.516-2.431-1.399-5.521,0.675-7.474"/>
	<path fill="none" stroke="#000000" stroke-width="1.3598" stroke-linecap="round" d="M205.751,382.116
		c1.736-6.143,7.436-10.203,13.115-12.489"/>
	<path fill="none" stroke="#000000" stroke-width="1.115" stroke-linecap="round" d="M149.128,241.809
		c-3.369-0.176-6.872,0.342-10.158-0.249c-0.276-0.279-0.583-0.526-0.891-0.774c-0.113-1.404-0.604-3.108,0.265-4.35
		c2.945-1.951,6.777-0.435,9.744-2.329"/>
	<path fill="none" stroke="#000000" stroke-width="1.2545" stroke-linecap="round" d="M148.087,234.107
		c-1.079-1.509-3.087-2.11-4.777-2.831c-0.29-0.466-0.674-0.902-1.079-1.308c-0.188-0.981-0.203-2.104,0.079-2.897
		c0.366-0.202,0.668-0.382,0.967-0.559c1.94-0.651,3.869,0.429,5.809,0.639c7.433,0.804,15.012-0.036,21.313,2.966
		c1.84,0.877,3.998,2.354,7.005,2.737c3.722,0.428,5.687-4.743,10.004-6.342c2.899-1.073,4.381-3.543,8.125-6.169
		c0.32-0.225,0.759-0.379,1.035-0.492c2.276-0.933,3.036-2.426,4.803-3.657c1.775-1.235,3.719-1.795,5.394-2.934
		c2.025-1.379,4.9-4.495,8.35-5.815c1.605-2.136,3.9-3.857,5.409-6.205c6.563-3.951,9.885-11.873,16.873-14.804"/>
	<path fill="none" stroke="#000000" stroke-width="1.6654" stroke-linecap="round" d="M237.393,186.435
		c0.304-1.015,1.598-1.067,2.915-2.082"/>
	<path fill="none" stroke="#000000" stroke-width="1.0352" stroke-linecap="round" d="M240.307,184.354
		c0.771-1.417,1.22-3.118,2.914-3.747"/>
	<path fill="none" stroke="#000000" stroke-width="1.7664" stroke-linecap="round" d="M243.221,180.607c0-0.328,0-0.785,0-1.249"/>
	<path fill="none" stroke="#000000" stroke-width="1.3625" stroke-linecap="round" d="M243.221,179.358
		c-0.045-0.136-0.09-0.271-0.135-0.406c-4.472-2.29-8.58-5.016-11.106-9.585"/>
	<path fill="none" stroke="#000000" stroke-width="1.7664" stroke-linecap="round" d="M231.98,169.365
		c-0.857,0.293-1.476,0.318-2.082,0.418"/>
	<path fill="none" stroke="#000000" stroke-width="1.3651" stroke-linecap="round" d="M229.899,169.781
		c-1.295,2.253,0.571,4.822-0.417,7.078"/>
	<path fill="none" stroke="#000000" stroke-width="2.3552" stroke-linecap="round" d="M229.482,176.86
		c0.05,0.556,0.229,1.11,0.417,1.665"/>
	<path fill="none" stroke="#000000" stroke-width="1.3408" stroke-linecap="round" d="M229.482,176.86
		c-0.517-0.201-0.867-0.351-1.21-0.497c-1.801-3.559-2.862-7.575-5.59-10.744"/>
	<path fill="none" stroke="#000000" stroke-width="1.1348" stroke-linecap="round" d="M222.682,165.618
		c-0.93-0.101-1.505-0.37-2.123-0.646c-0.135-0.704-0.375-1.296-0.652-1.854"/>
	<path fill="none" stroke="#000000" stroke-width="1.3253" stroke-linecap="round" d="M219.906,163.12
		c-1.142-1.605-1.245-3.504-1.597-5.357c0.18-0.249,0.673-0.567,1.181-0.888"/>
	<path fill="none" stroke="#000000" stroke-width="1.9528" stroke-linecap="round" d="M277.362,189.974
		c-0.127,1.76,0.1,3.484,0.416,5.204"/>
	<path fill="none" stroke="#000000" stroke-width="1.3952" stroke-linecap="round" d="M277.778,195.178
		c1.563,5.864,1.385,11.799,1.998,17.856c0.407,4.024,0.854,8.802,1.659,13.327c1.058,5.949,3.227,11.557,4.752,16.197
		c1.906,1.681,3.701,3.033,6.702,4.123c2.32,0.843,3.657,1.97,6.301,2.858c1.012,0.341,1.433,1.059,2.651,0.997
		c1.799-0.092,2.957-2.25,5.665-0.985c0.571,0.406,1.089,1.272,1.914,2.248"/>
	<path fill="none" stroke="#000000" stroke-width="1.4045" stroke-linecap="round" d="M309.42,251.801
		c3.832,2.115,8.502,2.046,12.271,4.384c0.381,1.185,0.403,1.957,0.122,3.029c-2.208,2.803-5.96,0.119-8.646,1.33"/>
	<path fill="none" stroke="#000000" stroke-width="1.3682" stroke-linecap="round" d="M313.168,260.544
		c0.029,1.616-0.985,2.874-2.498,3.331"/>
	<path fill="none" stroke="#000000" stroke-width="1.2965" stroke-linecap="round" d="M310.67,263.875
		c0.858,1.379,1.69,2.632,2.272,4.14c-0.09,0.364-0.19,0.777-0.29,1.192c-2.418,2.765-6.005,0.545-8.645-0.336"/>
	<path fill="none" stroke="#000000" stroke-width="1.3625" stroke-linecap="round" d="M304.008,268.871
		c-0.537,2.703-3.883,2.873-5.787,1.623c-0.979-2.016-1.854-4.376-1.499-6.619"/>
	<path fill="none" stroke="#000000" stroke-width="1.229" stroke-linecap="round" d="M163.283,252.218
		c-0.767-0.344-1.897-0.322-2.668-0.662c-1.618-0.979-1.576-2.95-1.501-4.623c2.916-3.482,7.69-5.313,12.081-5.956"/>
	<path fill="none" stroke="#000000" stroke-width="1.1614" stroke-linecap="round" d="M163.283,252.218
		c6.021-2.632,12.655-3.279,18.655-6.327c2.278-1.764,2.434-4.675,3.861-6.962c2.668-1.04,4.431-3.303,6.409-5.249
		c1.876-0.804,4.408-2.631,6.647-4.166c3.004-2.06,5.837-4.213,8.333-5.835c3.066-1.992,6.25-3.829,9.167-5.821
		c2.366-1.614,3.966-3.556,8.546-4.359"/>
	<path fill="none" stroke="#000000" stroke-width="1.8837" stroke-linecap="round" d="M148.087,234.107
		c2.405-0.252,4.854-0.219,7.286-0.208"/>
	<path fill="none" stroke="#000000" stroke-width="1.4788" stroke-linecap="round" d="M149.128,241.809
		c0.06-0.079,0.118-0.157,0.178-0.236c1.76-0.129,3.438-0.74,5.234-0.596"/>
	<path fill="none" stroke="#000000" stroke-width="1.2201" stroke-linecap="round" d="M149.128,241.809
		c-1.79,4.266-8.669,3.649-9.773,8.718c0.173,0.771,0.753,1.301,1.221,1.919c3.988,0.569,7.646-1.524,10.805-3.788
		c1.154,0.104,2.313-0.695,3.387-0.4c-0.116,4.813-5.766,7.435-4.969,12.459c0.276,0.272,0.528,0.582,0.778,0.893
		c5.208,0.222,7.522-5.889,11.887-7.831c0.258-0.495,0.5-1.072,0.821-1.559"/>
	<path fill="none" stroke="#000000" stroke-width="1.5833" stroke-linecap="round" d="M229.066,158.957
		c1.383-1.381,0.158-3.366,0.084-4.951c-0.187-3.988-0.329-8.775,1.581-12.536"/>
	<path fill="none" stroke="#000000" stroke-width="1.4514" stroke-linecap="round" d="M230.731,141.47
		c-0.141-0.182-0.279-0.365-0.418-0.547c-0.896-2.182,0.686-4.855,2.105-6.216c2.395-6.107,7.598-10.818,13.279-13.83
		c1.533,8.331,0.733,17.048,3.945,24.911c0.098,0.24,0.982,0.343,1.138,0.593c1.201,1.926,1.41,4.824,2.939,6.659
		c1.251-4.912,4.382-9.005,6.537-13.227c0.042-0.081,0.258-0.072,0.312-0.147"/>
	<path fill="none" stroke="#000000" stroke-width="1.6654" stroke-linecap="round" d="M260.569,139.666
		c-0.006-0.604,0.261-1.428,0.972-2.359"/>
	<path fill="none" stroke="#000000" stroke-width="1.075" stroke-linecap="round" d="M260.569,139.666
		c0.356,0.654,0.677,1.327,1.11,1.942"/>
	<path fill="none" stroke="#000000" stroke-width="1.2844" stroke-linecap="round" d="M261.679,141.609
		c0.207-0.045,0.455-0.147,0.705-0.253c0.602-2.178,1.984-3.733,3.158-5.729c3.11-5.291,5.989-11.167,11.008-14.828
		c3.271,0.381,4.4,4.315,5.637,6.694c0.321,0.619,1.483,1.027,1.852,1.599c4.478,6.956,3.745,14.641,6.229,22.789"/>
	<path fill="none" stroke="#000000" stroke-width="2.5889" stroke-linecap="round" d="M290.268,151.879
		c0.555-0.033,1.109-0.153,1.666-0.277"/>
	<path fill="none" stroke="#000000" stroke-width="1.7716" stroke-linecap="round" d="M291.934,151.601
		c0.134-3.242,1.54-6.201,2.082-9.298"/>
	<path fill="none" stroke="#000000" stroke-width="1.5145" stroke-linecap="round" d="M296.93,170.198
		c0.193-0.277,0.389-0.555,0.583-0.833c0.169-3.217,1.049-6.595,1.411-9.532c2.097-16.945,2.662-32.112-2.313-46.644
		c-0.806-2.354-2.48-7.547-4.383-10.017c-2.865-3.718-5.802-7.28-9.169-9.77c-0.533-0.394-2.063-0.737-3.385-1.711
		c-0.764-0.563-1.386-1.454-2.284-1.878c-2.452-1.154-7.785-1.326-12.807-2.183c-0.35-0.061-0.674-0.544-1.078-0.587
		c-6.822-0.733-11.23,0.26-16.71,2.211c-7.401,2.636-15.106,6.217-20.447,12.859c-1.421,1.769-2.78,4.491-4.12,6.672
		c-0.09,0.146-0.542,0.124-0.673,0.316c-3.137,4.608-4.222,9.958-5.282,14.579c-2.478,10.787,1.505,21.441,3.215,33.192"/>
	<path fill="none" stroke="#000000" stroke-width="2.6332" stroke-linecap="round" d="M229.482,166.867
		c-0.334-2.616-0.512-5.254-0.416-7.91"/>
	<path fill="none" stroke="#000000" stroke-width="1.2562" stroke-linecap="round" d="M229.066,158.957
		c-2.453-3.758-3.487-8.285-4.997-12.491"/>
	<path fill="none" stroke="#000000" stroke-width="1.8044" stroke-linecap="round" d="M230.731,141.47
		c3.263-1.583,5.436-5.769,9.576-4.996"/>
	<path fill="none" stroke="#000000" stroke-width="1.5469" stroke-linecap="round" d="M243.221,179.358
		c8.019,1.691,16.422,5.657,24.931,2.782c2.24-1.608,5.272-2.892,8.238-3.06"/>
	<path fill="none" stroke="#000000" stroke-width="1.6125" stroke-linecap="round" d="M276.39,179.08
		c0.805-0.682,1.256-0.741,1.804-0.972"/>
	<path fill="none" stroke="#000000" stroke-width="1.5945" stroke-linecap="round" d="M278.195,178.109
		c0.716-0.575,1.087-0.698,1.526-0.972"/>
	<path fill="none" stroke="#000000" stroke-width="1.9144" stroke-linecap="round" d="M279.721,177.137
		c0.624-1.236,1.834-1.572,3.053-1.943"/>
	<path fill="none" stroke="#000000" stroke-width="1.4936" stroke-linecap="round" d="M282.774,175.194
		c1.533-2.765,3.351-5.889,5.413-8.326"/>
	<path fill="none" stroke="#000000" stroke-width="1.4853" stroke-linecap="round" d="M288.187,166.867
		c0.013-1.708,0.139-3.619,1.249-4.996"/>
	<path fill="none" stroke="#000000" stroke-width="1.6654" stroke-linecap="round" d="M289.436,161.871
		c-0.786-1.374-0.155-3.088,0.833-4.164"/>
	<path fill="none" stroke="#000000" stroke-width="2.5665" stroke-linecap="round" d="M290.268,157.707c0-0.556,0-1.11,0-1.665"/>
	<path fill="none" stroke="#000000" stroke-width="1.7988" stroke-linecap="round" d="M261.679,141.609
		c-0.09,0.478-0.17,0.988-0.277,1.389"/>
	<path fill="none" stroke="#000000" stroke-width="1.7988" stroke-linecap="round" d="M290.268,156.042
		c0.833-0.269,1.666-0.508,2.499-0.833"/>
	<path fill="none" stroke="#000000" stroke-width="2.6332" stroke-linecap="round" d="M292.767,155.209
		c0.104-1.452-0.071-2.759-0.833-3.608"/>
	<path fill="none" stroke="#000000" stroke-width="1.7804" stroke-linecap="round" d="M290.268,151.879
		c-0.487,1.388-0.428,2.775,0,4.164"/>
	<path fill="none" stroke="#000000" stroke-width="1.7988" stroke-linecap="round" d="M292.35,158.332
		c0.572-0.139,1.094-0.224,1.525-0.348"/>
	<path fill="none" stroke="#000000" stroke-width="1.808" stroke-linecap="round" d="M293.877,157.985
		c0.364-0.791-0.43-1.983-1.109-2.775"/>
	<path fill="none" stroke="#000000" stroke-width="1.4423" stroke-linecap="round" d="M221.572,162.287
		c-0.732-1.784-0.954-3.796-2.082-5.413"/>
	<path fill="none" stroke="#000000" stroke-width="1.6826" stroke-linecap="round" d="M289.436,161.871
		c1.394-0.655,3.127-1.757,2.915-3.539"/>
	<path fill="none" stroke="#000000" stroke-width="1.7988" stroke-linecap="round" d="M292.35,158.332
		c-0.541-0.122-1.349-0.35-2.082-0.625"/>
	<path fill="none" stroke="#000000" stroke-width="1.1776" stroke-linecap="round" d="M288.187,166.867
		c2.532-0.056,4.666-1.563,6.522-3.054"/>
	<path fill="none" stroke="#000000" stroke-width="1.4236" stroke-linecap="round" d="M294.71,163.814
		c0.209-1.937-0.063-4.063-0.833-5.829"/>
	<path fill="none" stroke="#000000" stroke-width="1.9079" stroke-linecap="round" d="M222.682,165.618
		c-0.377-1.013,0.179-2.564-0.753-3.261c-0.119-0.022-0.238-0.047-0.357-0.07"/>
	<path fill="none" stroke="#000000" stroke-width="1.075" stroke-linecap="round" d="M221.572,162.287
		c-0.565,0.268-1.157,0.508-1.665,0.833"/>
	<path fill="none" stroke="#000000" stroke-width="1.2413" stroke-linecap="round" d="M282.774,175.194
		c4.824-0.593,8.613-4.784,13.878-4.164"/>
	<path fill="none" stroke="#000000" stroke-width="2.8238" stroke-linecap="round" d="M296.653,171.031
		c0.092-0.276,0.185-0.555,0.277-0.833"/>
	<path fill="none" stroke="#000000" stroke-width="1.2437" stroke-linecap="round" d="M296.93,170.198
		c-1.708-1.775-1.227-4.376-2.221-6.384"/>
	<path fill="none" stroke="#000000" stroke-width="1.7988" stroke-linecap="round" d="M231.98,169.365
		c-0.272-0.885-0.384-1.388-0.596-1.839c-0.419-0.146-1.209-0.377-1.902-0.658"/>
	<path fill="none" stroke="#000000" stroke-width="1.5945" stroke-linecap="round" d="M229.482,166.867
		c-0.429,1.048-0.021,2.021,0.417,2.914"/>
	<path fill="none" stroke="#000000" stroke-width="1.075" stroke-linecap="round" d="M279.721,177.137
		c1.082,1.609,2.374,2.95,3.607,4.441"/>
	<path fill="none" stroke="#000000" stroke-width="1.3508" stroke-linecap="round" d="M283.329,181.578
		c2.506-0.852,5.232-0.598,7.772-1.389"/>
	<path fill="none" stroke="#000000" stroke-width="1.2327" stroke-linecap="round" d="M295.681,187.268
		c5.284-2.992,10.833-5.384,16.296-7.852c0.672-0.469,1.414-0.844,1.752-1.341c-0.034-0.358-0.21-0.678-0.394-0.995
		c-0.466-0.073-0.828-0.263-1.184-0.456c-4.882-2.428-10.374-4.05-15.499-5.594"/>
	<path fill="none" stroke="#000000" stroke-width="1.272" stroke-linecap="round" d="M276.39,179.08
		c0.837,2.045,0.81,4.49-0.069,6.522"/>
	<path fill="none" stroke="#000000" stroke-width="1.7988" stroke-linecap="round" d="M275.28,189.35
		c0.857,0.279,1.476,0.413,2.082,0.625"/>
	<path fill="none" stroke="#000000" stroke-width="1.7664" stroke-linecap="round" d="M277.362,189.974
		c0.565-0.146,1.157-0.159,1.665-0.208"/>
	<path fill="none" stroke="#000000" stroke-width="1.3166" stroke-linecap="round" d="M279.027,189.766
		c1.448-1.751,2.359-3.604,3.747-5.412"/>
	<path fill="none" stroke="#000000" stroke-width="1.7859" stroke-linecap="round" d="M282.774,184.354
		c0.354-1.198,0.383-2.126,0.555-2.775"/>
	<path fill="none" stroke="#000000" stroke-width="1.0198" stroke-linecap="round" d="M278.195,178.109
		c0.228,0.327,0.325,0.785,0.417,1.249"/>
	<path fill="none" stroke="#000000" stroke-width="1.6" stroke-linecap="round" d="M251.41,195.734
		c0.932-0.557,1.909-0.388,2.593-0.218c4.575,0.786,9.618-1.048,13.783,0.496"/>
	<path fill="none" stroke="#000000" stroke-width="1.4322" stroke-linecap="round" d="M267.786,196.011
		c1.983-2.713,4.602-4.97,7.494-6.661"/>
	<path fill="none" stroke="#000000" stroke-width="1.5094" stroke-linecap="round" d="M275.28,189.35
		c0.333-1.232,1.421-2.438,1.041-3.747"/>
	<path fill="none" stroke="#000000" stroke-width="1.1959" stroke-linecap="round" d="M276.321,185.603
		c-1.916-0.246-3.676,1.337-4.372,2.914"/>
	<path fill="none" stroke="#000000" stroke-width="1.1444" stroke-linecap="round" d="M243.221,180.607
		c0.752,1.143-0.042,2.835,1.249,3.747"/>
	<path fill="none" stroke="#000000" stroke-width="1.333" stroke-linecap="round" d="M240.307,184.354
		c4.142,2.328,4.722,8.758,9.775,10.224c0.395,0.763,0.915,0.906,1.326,1.156"/>
	<path fill="none" stroke="#000000" stroke-width="1.2758" stroke-linecap="round" d="M224.903,213.498
		c0.209,2.598-2.51,4.708-3.354,6.347c-2.957,5.748-4.801,12.04-7.659,17.984c-0.073,0.151-0.563,0.146-0.661,0.341
		c-3.091,6.103-4.804,12.623-7.521,18.875c-0.93,2.139-4.891,8.504-4.946,12.991c4.248,4.664,11.12,5.393,16.646,7.995"/>
	<path fill="none" stroke="#000000" stroke-width="1.3275" stroke-linecap="round" d="M217.408,278.031
		c9.836,2.045,19.667,3.943,29.56,5.412"/>
	<path fill="none" stroke="#000000" stroke-width="1.0198" stroke-linecap="round" d="M246.969,283.444
		c0.832-0.049,1.665,0.381,2.498,0.833"/>
	<path fill="none" stroke="#000000" stroke-width="2.553" stroke-linecap="round" d="M249.467,284.277c0.277,0,0.556,0,0.833,0"/>
	<path fill="none" stroke="#000000" stroke-width="1.352" stroke-linecap="round" d="M250.3,284.277
		c9.513-1.551,19.452-0.827,28.729-3.331"/>
	<path fill="none" stroke="#000000" stroke-width="1.3896" stroke-linecap="round" d="M279.027,280.946
		c0.041-0.14,0.082-0.278,0.123-0.419c1.732-0.708,4.029-0.416,5.549-1.698c0.281-2.815-2.571-7.502-3.907-11.592
		c-1.155-3.536-3.068-12.065-5.138-17.348c-0.065-0.165-0.542-0.167-0.599-0.345c-1.582-4.938-3.073-9.825-2.528-14.977
		c-0.373-0.44-0.69-1.1-1.132-1.642"/>
	<path fill="none" stroke="#000000" stroke-width="1.5264" stroke-linecap="round" d="M237.393,186.435
		c0.182,0.096,0.363,0.191,0.546,0.287c2.245,4.699,3.914,10.987,2.739,16.194c-0.623,0.106-0.692,1.092-0.971,1.605
		c-4.675,3.747-11.336,3.733-14.806,8.976"/>
	<path fill="none" stroke="#000000" stroke-width="1.2267" stroke-linecap="round" d="M279.027,189.766
		c2.02,3.307,5.679,4.842,8.097,7.724c6.017,0.827,12.22,1.618,18.224,1.601c-1.107-5.025-7.091-7.373-9.667-11.822"/>
	<path fill="none" stroke="#000000" stroke-width="1.29" stroke-linecap="round" d="M295.681,187.268
		c-4.352-0.708-8.718-1.454-12.907-2.914"/>
	<path fill="none" stroke="#000000" stroke-width="2.7714" stroke-linecap="round" d="M267.786,196.011
		c-0.246,2.368-1.157,4.701-2.082,6.87"/>
	<path fill="none" stroke="#000000" stroke-width="2.5665" stroke-linecap="round" d="M263.622,210.167
		c0.008,0.856-0.063,1.476-0.139,2.082"/>
	<path fill="none" stroke="#000000" stroke-width="1.1992" stroke-linecap="round" d="M263.484,212.249
		c-0.242,0.956-0.144,1.854,0.364,2.701c1.132,0.242,2.692,0.071,3.688,0.462c0.277,0.277,0.58,0.529,0.884,0.781
		c0.574,1.85,1.361,3.587,1.03,5.632"/>
	<path fill="none" stroke="#000000" stroke-width="1.418" stroke-linecap="round" d="M269.451,221.824
		c0.737,1.123,0.694,2.253,0.947,3.201c0.315,0.354,0.934,0.609,1.551,0.961"/>
	<path fill="none" stroke="#000000" stroke-width="1.3598" stroke-linecap="round" d="M258.127,210.667
		c1.224-1.627,3.996-1.85,5.496-0.5"/>
	<path fill="none" stroke="#000000" stroke-width="3.2096" stroke-linecap="round" d="M263.622,210.167
		c1.569-1.958,1.962-4.79,2.082-7.286"/>
	<path fill="none" stroke="#000000" stroke-width="1.7988" stroke-linecap="round" d="M265.704,202.881
		c-1.157-0.43-1.729-0.54-2.358-0.764"/>
	<path fill="none" stroke="#000000" stroke-width="2.0457" stroke-linecap="round" d="M251.41,195.734
		c1.506,5.085,3.662,10.411,6.717,14.934"/>
	<path fill="none" stroke="#000000" stroke-width="2.5604" stroke-linecap="round" d="M271.949,225.988c0,1.666,0,3.331,0,4.997"/>
	<path fill="none" stroke="#000000" stroke-width="1.2578" stroke-linecap="round" d="M271.949,230.985
		c1.979,0.856,2.82,3.095,3.107,5.174c0.053,0.154,0.581,0.149,0.663,0.34c2.611,6.037,3.271,11.623,7.272,16.732
		c1.405,1.794,3.568,3.364,4.361,5.232"/>
	<path fill="none" stroke="#000000" stroke-width="1.1984" stroke-linecap="round" d="M287.354,258.463
		c2.224,0.087,4.811,1.188,6.037,2.914"/>
	<path fill="none" stroke="#000000" stroke-width="1.6125" stroke-linecap="round" d="M293.391,261.377
		c1.592-0.299,2.797,1.183,3.331,2.498"/>
	<path fill="none" stroke="#000000" stroke-width="1.6303" stroke-linecap="round" d="M310.67,263.875
		c-1.691-0.813-3.484-2.203-4.303-4.024"/>
	<path fill="none" stroke="#000000" stroke-width="1.6125" stroke-linecap="round" d="M306.367,259.851
		c-0.294-0.049-0.917-0.485-1.526-0.972"/>
	<path fill="none" stroke="#000000" stroke-width="1.1776" stroke-linecap="round" d="M309.42,251.801
		c-1.109,0.75-2.22,0.719-3.331,0.833"/>
	<path fill="none" stroke="#000000" stroke-width="1.7864" stroke-linecap="round" d="M277.778,195.178
		c-3.145,4.643-2.39,14.305-4.285,21.528c-0.424,1.616-0.183,6.375-1.543,9.28"/>
	<path fill="none" stroke="#000000" stroke-width="1.2189" stroke-linecap="round" d="M263.345,202.117
		c-0.026-1.691-1.042-3.937-3.067-3.587c-3.118,0.821-1.974,5.127,0.834,5.353C261.965,203.851,262.639,203.068,263.345,202.117"/>
	<path fill="none" stroke="#000000" stroke-width="3.3308" stroke-linecap="round" d="M258.127,210.667
		c-0.006,0.979,0.004,2.044,1.095,2.95"/>
	<path fill="none" stroke="#000000" stroke-width="1.5094" stroke-linecap="round" d="M259.221,213.616
		c1.175-1.018,2.71-1.529,4.263-1.368"/>
	<path fill="none" stroke="#000000" stroke-width="1.1776" stroke-linecap="round" d="M258.904,217.106
		c2.638,5.469,3.796,11.286,5.135,17.208"/>
	<path fill="none" stroke="#000000" stroke-width="1.3" stroke-linecap="round" d="M264.039,234.315
		c2.607,0.353,4.788-1.246,7.355-1.388"/>
	<path fill="none" stroke="#000000" stroke-width="1.9528" stroke-linecap="round" d="M271.394,232.927
		c0.072-0.443,0.296-1.241,0.555-1.942"/>
	<path fill="none" stroke="#000000" stroke-width="2.5665" stroke-linecap="round" d="M269.451,221.824c-0.277,0-0.555,0-0.833,0"/>
	<path fill="none" stroke="#000000" stroke-width="2.1066" stroke-linecap="round" d="M259.221,213.616
		c0.279,1.509-0.191,2.696-0.317,3.489"/>
	<path fill="none" stroke="#000000" stroke-width="1.4217" stroke-linecap="round" d="M258.904,217.106
		c-1.128,0.247-2.446-0.083-3.388,0.783c-1.278,3.17-0.592,6.617,0.858,9.524c3.176,0.854,4.743,3.544,5.004,6.652
		c0.368,0.202,0.676,0.381,0.979,0.561c0.853,0.134,1.337-0.062,1.681-0.313"/>
	<path fill="none" stroke="#000000" stroke-width="1.1571" stroke-linecap="round" d="M268.619,221.824
		c-1.33-1.257-4.653-1.317-4.929,0.902c0.23,0.525,0.781,0.754,1.164,1.078C266.42,223.9,267.891,223.312,268.619,221.824"/>
	<path fill="none" stroke="#000000" stroke-width="1.4068" stroke-linecap="round" d="M287.354,258.463
		c-0.234,2.845-1.848,5.95-0.793,8.705c0.731,0.439,1.863,0.431,2.629,0.201c1.217-0.779,1.699-2.21,2.962-2.839
		c0.085-0.514,0.592-1.778,1.239-3.153"/>
	<path fill="none" stroke="#000000" stroke-width="1.4261" stroke-linecap="round" d="M313.168,260.544
		c-1.881-0.995-4.759-1.732-6.801-0.693"/>
	<path fill="none" stroke="#000000" stroke-width="1.1776" stroke-linecap="round" d="M304.008,268.871
		c-1.632-2.438-4.291-4.762-7.285-4.996"/>
	<path fill="none" stroke="#000000" stroke-width="1.4333" stroke-linecap="round" d="M237.393,318.207
		c3.99,0.06,7.668-1.353,11.519-1.733"/>
	<path fill="none" stroke="#000000" stroke-width="1.5563" stroke-linecap="round" d="M248.912,316.474
		c1.472-0.494,3.258-1.23,3.431-3.042c-0.883-9.364-4.561-18.38-4.818-27.768"/>
	<path fill="none" stroke="#000000" stroke-width="1.4379" stroke-linecap="round" d="M217.408,278.031
		c-0.099,0.183-0.198,0.364-0.297,0.548c1.85,11.02,5.966,21.71,8.925,32.459c0.409,1.864-0.081,4.501,1.896,5.548
		c2.999,1.228,6.291,0.961,9.462,1.622"/>
	<path fill="none" stroke="#000000" stroke-width="1.3401" stroke-linecap="round" d="M250.3,284.277
		c2.765,4.038,3.993,8.734,6.28,12.745c0.101,0.175,0.512,0.163,0.606,0.343c3.104,5.866,5.147,12.156,9.561,17.105
		c0.448,3.633,4.894,3.533,7.702,3.653c0.277,0.099,0.554,0.195,0.832,0.292"/>
	<path fill="none" stroke="#000000" stroke-width="1.3565" stroke-linecap="round" d="M275.28,318.415
		c4.087-0.671,8.037-1.954,12.074-2.497"/>
	<path fill="none" stroke="#000000" stroke-width="1.0198" stroke-linecap="round" d="M246.969,283.444
		c-0.032,0.85,0.254,1.539,0.555,2.222"/>
	<path fill="none" stroke="#000000" stroke-width="1.193" stroke-linecap="round" d="M275.28,318.415
		c1.465,2.729,2.492,5.501,3.053,8.604"/>
	<path fill="none" stroke="#000000" stroke-width="1.1528" stroke-linecap="round" d="M278.333,327.021
		c3.738,1.763,12.128,3.379,12.769-2.359"/>
	<path fill="none" stroke="#000000" stroke-width="1.4747" stroke-linecap="round" d="M237.393,318.207
		c0.071,3.473,0.898,7.04,2.082,10.2"/>
	<path fill="none" stroke="#000000" stroke-width="1.492" stroke-linecap="round" d="M239.474,328.407
		c0.273,0.887,0.39,1.39,0.599,1.84c3.533,1.818,7.625,0.723,10.849-1.23c0.529-0.818,0.574-1.837,0.766-2.551"/>
	<path fill="none" stroke="#000000" stroke-width="1.2792" stroke-linecap="round" d="M278.333,327.021
		c-1.633,1.503-1.834,3.534-1.005,5.535c-0.463,1.725-1.464,3.188-1.621,5.021c1.521,2.994,3.071,5.557,2.208,9.029
		c0.7,0.903,1.006,1.581,1.32,2.203"/>
	<path fill="none" stroke="#000000" stroke-width="1.1776" stroke-linecap="round" d="M279.236,348.81
		c3.633,1.457,7.574,7.25,11.299,2.472c0.05-0.13,0.101-0.26,0.15-0.391"/>
	<path fill="none" stroke="#000000" stroke-width="1.2996" stroke-linecap="round" d="M290.685,350.891
		c0.076-6.029,7.05-7.605,11.657-9.575"/>
	<path fill="none" stroke="#000000" stroke-width="1.3923" stroke-linecap="round" d="M239.474,328.407
		c-2.357,0.477-4.463,2.604-2.949,4.982c-0.235,2.184-2.749,3.396-2.452,5.75c0.751,2.778,2.551,5.617,0.821,8.42"/>
	<path fill="none" stroke="#000000" stroke-width="1.2956" stroke-linecap="round" d="M234.895,347.561
		c4.571-0.055,9.985,1.174,12.388,5.384c0.108,1.004,0.093,2.483,0.103,3.359"/>
	<path fill="none" stroke="#000000" stroke-width="1.1848" stroke-linecap="round" d="M247.385,356.304
		c0.797,0.385,1.479,0.684,2.068,0.796c4.806-0.867,6.875-6.305,11.255-8.29"/>
	<path fill="none" stroke="#000000" stroke-width="1.1302" stroke-linecap="round" d="M290.685,350.891
		c3.974-1.328,5.707,2.101,8.327,3.956"/>
	<path fill="none" stroke="#000000" stroke-width="1.3508" stroke-linecap="round" d="M299.012,354.847
		c2.811,0.223,4.635-3.328,7.354-1.735"/>
	<path fill="none" stroke="#000000" stroke-width="1.1776" stroke-linecap="round" d="M306.367,353.112
		c0.37-0.37,0.741-0.74,1.11-1.109"/>
	<path fill="none" stroke="#000000" stroke-width="1.2154" stroke-linecap="round" d="M231.98,355.887
		c3.332,1.079,6.654,1.382,9.576,3.747"/>
	<path fill="none" stroke="#000000" stroke-width="1.7429" stroke-linecap="round" d="M234.895,347.561
		c-1.153,2.702-2.735,5.284-2.915,8.326"/>
	<path fill="none" stroke="#000000" stroke-width="1.7773" stroke-linecap="round" d="M307.477,352.001
		c1.271,0.194,2.615,0.23,3.886,0"/>
	<path fill="none" stroke="#000000" stroke-width="1.7773" stroke-linecap="round" d="M307.547,347.977
		c-0.299,1.301-0.29,2.71-0.068,4.023"/>
	<path fill="none" stroke="#000000" stroke-width="1.0876" stroke-linecap="round" d="M247.385,356.304
		c-2.382,0.267-3.981,2.054-5.828,3.33"/>
	<path fill="none" stroke="#000000" stroke-width="1.2221" stroke-linecap="round" d="M241.556,359.634
		c0.538,2.096,2.182,3.664,2.706,5.829"/>
	<path fill="none" stroke="#000000" stroke-width="1.9108" stroke-linecap="round" d="M282.244,375.418
		c1.354-4.987-0.613-11.066,2.643-15.494c0.319,0.063,0.786,0.09,1.26,0.113c2.251,1.872,5.563,1.093,7.645-0.654
		c0.996-0.194,1.354,0.556,1.891,1.084"/>
	<path fill="none" stroke="#000000" stroke-width="1.2189" stroke-linecap="round" d="M295.681,360.467
		c1.938-1.107,2.675-3.594,3.331-5.62"/>
	<path fill="none" stroke="#000000" stroke-width="1.4762" stroke-linecap="round" d="M279.236,348.81
		c-0.553,3.192-0.079,6.454,0.591,9.559c-0.741,5.272-1.318,11.988,1.45,16.545c0.162,0.268,0.773,0.259,0.967,0.506"/>
	<path fill="none" stroke="#000000" stroke-width="1.5945" stroke-linecap="round" d="M301.926,359.218c0-0.556,0-1.11,0-1.665"/>
	<path fill="none" stroke="#000000" stroke-width="1.5127" stroke-linecap="round" d="M301.926,366.712
		c0.363,1.18,0.329,2.16,0.53,2.876c0.443,0.316,1.448,0.349,2.384,0.455"/>
	<path fill="none" stroke="#000000" stroke-width="1.8216" stroke-linecap="round" d="M304.841,370.043
		c0.145-1.938-0.363-3.985,0.417-5.829"/>
	<path fill="none" stroke="#000000" stroke-width="1.9184" stroke-linecap="round" d="M305.257,364.214
		c-1.355-1.931,0.746-4.02,0-5.829"/>
	<path fill="none" stroke="#000000" stroke-width="1.3998" stroke-linecap="round" d="M305.257,364.214
		c1.598,0.316,2.413,1.651,2.741,3.089c0.933,0.488,1.465,0.685,1.975,1.271c3.275,0.194,6.509-1.405,9.828-1.564
		c0.361-0.507,0.276-1.194,0.184-1.728c-0.396-0.558-1.262-1.076-2.236-1.898"/>
	<path fill="none" stroke="#000000" stroke-width="1.1402" stroke-linecap="round" d="M295.681,360.467
		c-0.798,1.75-0.035,3.284,1.436,4.394c0.71,0.122,1.52,0.146,2.312,0.188"/>
	<path fill="none" stroke="#000000" stroke-width="1.7773" stroke-linecap="round" d="M299.428,365.047
		c0.25-0.535,1.029-1.017,1.666-1.665"/>
	<path fill="none" stroke="#000000" stroke-width="1.3809" stroke-linecap="round" d="M301.094,363.382
		c0.714-1.169,1.513-2.807,0.833-4.164"/>
	<path fill="none" stroke="#000000" stroke-width="2.3917" stroke-linecap="round" d="M301.926,359.218c-0.276,0-0.555,0-0.833,0"/>
	<path fill="none" stroke="#000000" stroke-width="1.4423" stroke-linecap="round" d="M309.004,354.638
		c0.489,0.007,1.182,0.314,2.082,0.417"/>
	<path fill="none" stroke="#000000" stroke-width="1.6354" stroke-linecap="round" d="M309.004,354.638
		c-0.507,0.734-0.218,1.86,0.416,2.915"/>
	<path fill="none" stroke="#000000" stroke-width="1.3166" stroke-linecap="round" d="M306.367,353.112
		c0.096,0.898,1.813,0.999,2.637,1.526"/>
	<path fill="none" stroke="#000000" stroke-width="2.5665" stroke-linecap="round" d="M226.984,362.549
		c0.139,0.046,0.278,0.093,0.417,0.139"/>
	<path fill="none" stroke="#000000" stroke-width="2.1855" stroke-linecap="round" d="M227.401,362.688
		c1.586,0.047,2.481-1.466,4.023-1.526"/>
	
		<line fill="none" stroke="#000000" stroke-width="2.3552" stroke-linecap="round" x1="224.903" y1="365.463" x2="224.903" y2="365.463"/>
	<path fill="none" stroke="#000000" stroke-width="1.3239" stroke-linecap="round" d="M224.903,365.463
		c-0.048,1.13-0.122,1.991-0.079,2.909c2.41,1.544,5.754,2.114,8.57,1.412c0.414-1.755,1.518-2.275,3.166-2.655"/>
	<path fill="none" stroke="#000000" stroke-width="1.5917" stroke-linecap="round" d="M236.56,367.129
		c-0.323-1.46-1.623-3.727-0.235-4.913c1.858,0.825,2.909,2.841,3.982,4.496"/>
	<path fill="none" stroke="#000000" stroke-width="1.2257" stroke-linecap="round" d="M231.98,355.887
		c-0.202,0.517-0.352,0.867-0.497,1.21c-1.865,0.385-3.525,1.173-5.118,2.335c-0.319,0.923-0.044,2.034,0.619,3.117"/>
	<path fill="none" stroke="#000000" stroke-width="1.3466" stroke-linecap="round" d="M316.082,359.218
		c-2.375-0.335-4.277-1.729-6.662-1.665"/>
	<path fill="none" stroke="#000000" stroke-width="1.29" stroke-linecap="round" d="M309.42,357.553
		c1.816,2.56,4.98,6.208,8.327,5.829"/>
	<path fill="none" stroke="#000000" stroke-width="1.8729" stroke-linecap="round" d="M282.244,375.418
		c0.858,2.829,3.734,4.237,5.942,5.865"/>
	<path fill="none" stroke="#000000" stroke-width="1.1966" stroke-linecap="round" d="M288.187,381.283
		c1.444-2.592,2.173-5.519,4.272-7.51c0.476-0.327,1.101-0.421,1.662-0.464c2.378,2.14,0.977,6.785,5.686,8.838
		c3.642,1.588,8.298,4.349,13.892,5.266c8.248,1.353,15.865-0.319,19.836-6.119c0.104-0.051,0.207-0.1,0.312-0.148"/>
	<path fill="none" stroke="#000000" stroke-width="1.3396" stroke-linecap="round" d="M333.846,381.146
		c0.245-5.402-4.313-10.288-9.021-12.352"/>
	<path fill="none" stroke="#000000" stroke-width="1.3096" stroke-linecap="round" d="M324.825,368.794
		c-0.905,1.206,0.164,2.978-0.877,4.118c-5.866,1.907-13.065,1.442-18.457-1.444c-0.31-0.543-0.507-0.964-0.651-1.425"/>
	<path fill="none" stroke="#000000" stroke-width="1.8619" stroke-linecap="round" d="M244.262,365.463
		c-0.273,0.421-0.654,0.732-1.041,1.041"/>
	<path fill="none" stroke="#000000" stroke-width="1.808" stroke-linecap="round" d="M243.221,366.504
		c0.41,1.612-1.271,2.607-2.638,2.706"/>
	<path fill="none" stroke="#000000" stroke-width="1.2067" stroke-linecap="round" d="M261.124,378.369
		c-0.333-5.991,1.359-12.318-1.35-17.814c-3.064,0.731-4.797,5.395-8.513,4.355c-2.325-1.88-4.7,0.246-6.999,0.553"/>
	<path fill="none" stroke="#000000" stroke-width="1.4119" stroke-linecap="round" d="M236.56,367.129
		c1.225,0.834,1.962,2.108,3.747,1.665"/>
	<path fill="none" stroke="#000000" stroke-width="1.0569" stroke-linecap="round" d="M324.825,368.794
		c-2.179-2.342-3.323-6.231-6.938-6.661"/>
	<path fill="none" stroke="#000000" stroke-width="2.5889" stroke-linecap="round" d="M317.886,362.133
		c-0.076,0.327-0.108,0.783-0.14,1.249"/>
	<path fill="none" stroke="#000000" stroke-width="1.2589" stroke-linecap="round" d="M224.903,365.463
		c0.729-0.104,1.292-0.372,1.861-0.634c0.298-0.521,0.497-1.299,0.637-2.143"/>
	<path fill="none" stroke="#000000" stroke-width="1.2977" stroke-linecap="round" d="M226.984,362.549
		c-1.438,0.854-1.811,1.709-2.082,2.914"/>
	<path fill="none" stroke="#000000" stroke-width="1.5945" stroke-linecap="round" d="M299.428,365.047
		c0.522,0.928,1.363,1.097,2.497,1.665"/>
	<path fill="none" stroke="#000000" stroke-width="1.3934" stroke-linecap="round" d="M301.926,366.712
		c0.123-0.845-0.14-2.125-0.833-3.33"/>
	<path fill="none" stroke="#000000" stroke-width="1.3264" stroke-linecap="round" d="M218.865,369.627
		c0.616,1.729-0.642,4.321,1.565,5.251c6.921-0.34,17.126,2.421,20.153-5.668"/>
	<path fill="none" stroke="#000000" stroke-width="3.0023" stroke-linecap="round" d="M240.585,369.21
		c-0.092-0.14-0.185-0.277-0.276-0.416"/>
	<path fill="none" stroke="#000000" stroke-width="1.4572" stroke-linecap="round" d="M224.903,365.463
		c-2.776,0.205-4.604,1.972-6.037,4.164"/>
	<path fill="none" stroke="#000000" stroke-width="1.7859" stroke-linecap="round" d="M243.221,366.504
		c-0.735-0.253-1.861-0.108-2.914,0.208"/>
	<path fill="none" stroke="#000000" stroke-width="2.5439" stroke-linecap="round" d="M240.307,366.712c0,0.604,0,1.341,0,2.082"/>
	<path fill="none" stroke="#000000" stroke-width="1.3891" stroke-linecap="round" d="M288.187,381.283
		c0.098,0.181,0.194,0.36,0.293,0.54c1.203,0.723,1.452,2.086,3.015,2.682c3.121,1.188,5.376,3.988,10.176,5.777
		c0.751,0.28,1.428,0.978,2.102,1.23c5.441,2.047,14.275,3.188,20.508,1.715c3.502-0.828,7.767-2.555,9.072-4.251
		c1.339-1.74,3.25-5.007,0.495-7.832"/>
	<path fill="none" stroke="#000000" stroke-width="1.2263" stroke-linecap="round" d="M253.63,383.365
		c-0.637-2.755-1.48-5.386-2.947-7.752c-0.918-0.249-1.83-0.013-2.655,0.492c-2.05,4.268-4.365,7.864-9.555,9.588
		c-2.948,0.979-7.279,1.75-9.563,2.096c-5.776,0.877-18.933,2.957-22.687-5.148c-0.158-0.174-0.315-0.349-0.474-0.523"/>
</g>
</svg>
