<?xml version="1.0" encoding="utf-8"?>
<!-- Generator: Adobe Illustrator 14.0.0, SVG Export Plug-In . SVG Version: 6.00 Build 43363)  -->
<!DOCTYPE svg PUBLIC "-//W3C//DTD SVG 1.1//EN" "http://www.w3.org/Graphics/SVG/1.1/DTD/svg11.dtd">
<svg version="1.1" id="图层_1" xmlns="http://www.w3.org/2000/svg" xmlns:xlink="http://www.w3.org/1999/xlink" x="0px" y="0px"
	 width="848px" height="480px" viewBox="0 0 848 480" enable-background="new 0 0 848 480" xml:space="preserve">
<g>
	<path fill="none" stroke="#000000" stroke-width="0.7186" stroke-linecap="round" d="M233.328,85.996c0.479,0,0.958,0,1.438,0
		c0.131,0.598-0.279,0.694-0.72,0.719c-0.238,0.012-0.479-0.01-0.718,0c-0.259-0.18-1.245,0.235-1.438,0
		c-0.023-0.029-0.023-0.7,0-0.719C232.182,85.762,232.992,86.176,233.328,85.996z"/>
	<path fill="none" stroke="#000000" stroke-width="0.7186" stroke-linecap="round" d="M236.202,86.715
		c-0.372-0.372,0.521-0.917,0.718-0.719C237.293,86.368,236.401,86.914,236.202,86.715z"/>
	<path fill="none" stroke="#000000" stroke-width="1.219" stroke-linecap="round" d="M213.925,130.551
		c-1.28-0.972-1.806-2.815-3.589-2.977c-8.587-10.282-13.266-22.708-14.734-36.188"/>
	<path fill="none" stroke="#000000" stroke-width="1.0008" stroke-linecap="round" d="M317.766,125.88
		c3.717,0.515,7.53,1.744,11.498,1.438"/>
	<path fill="none" stroke="#000000" stroke-width="0.7186" stroke-linecap="round" d="M253.449,175.825
		c-0.372-0.372,0.521-0.917,0.718-0.72C254.539,175.478,253.648,176.024,253.449,175.825z"/>
	<path fill="none" stroke="#000000" stroke-width="0.8934" stroke-linecap="round" d="M254.527,345.062
		c1.097-0.101,1.692-0.703,2.875-0.719"/>
	<path fill="none" stroke="#000000" stroke-width="0.7186" stroke-linecap="round" d="M260.635,344.701
		c-0.372-0.372,0.52-0.918,0.719-0.719C261.726,344.356,260.834,344.901,260.635,344.701z"/>
	<path fill="none" stroke="#000000" stroke-width="1.3369" stroke-linecap="round" d="M227.938,391.773
		c-1.514,2.09,0.012,5.738,0.392,8.231c1.856,0.786,4.311-0.185,5.857-1.118c0.363-3.487,0.528-8.241-2.002-10.63
		C230.635,389.142,228.661,390.044,227.938,391.773"/>
	
		<line fill="none" stroke="#000000" stroke-width="2.215" stroke-linecap="round" x1="220.752" y1="398.957" x2="220.752" y2="398.957"/>
	<path fill="none" stroke="#000000" stroke-width="0.9877" stroke-linecap="round" d="M220.752,398.957
		c1.312,0.757,3.438,2.746,4.684,0.712c-0.47-1.998-0.179-4.234-0.59-6.241C221.176,392.435,221.83,396.997,220.752,398.957"/>
	<path fill="none" stroke="#000000" stroke-width="1.0163" stroke-linecap="round" d="M220.752,398.957
		c-1.386-0.786,0.189-3.271-1.514-3.521c-1.457,0.28-3.033,1.467-3.467,2.86c0.123,2.069,3.031,2.688,4.473,1.704
		C220.367,399.736,220.558,399.35,220.752,398.957"/>
	<path fill="none" stroke="#000000" stroke-width="0.9507" stroke-linecap="round" d="M262.432,81.684
		c1.227,1.215,2.676,2.521,4.312,3.234"/>
	<path fill="none" stroke="#000000" stroke-width="0.9294" stroke-linecap="round" d="M213.206,75.217
		c0.156,0.324,0.349,0.605,0.542,0.885c4.344,1.413,7.821,4.579,11.315,7.379"/>
	<path fill="none" stroke="#000000" stroke-width="1.0779" stroke-linecap="round" d="M213.206,75.217
		c-0.283-0.197-0.678-0.281-1.078-0.359"/>
	<path fill="none" stroke="#000000" stroke-width="1.0328" stroke-linecap="round" d="M213.206,75.217
		c0.156-0.084,0.312-0.168,0.467-0.252c8.821-0.171,17.771-1.314,26.257-0.602c0.134,0.012,0.236,0.33,0.37,0.349
		c7.897,1.026,15.334,2.884,22.133,6.972"/>
	<path fill="none" stroke="#000000" stroke-width="0.9174" stroke-linecap="round" d="M262.432,81.684
		c-0.551-4.076-3.479-7.243-5.749-10.42"/>
	<path fill="none" stroke="#000000" stroke-width="1.6069" stroke-linecap="round" d="M256.683,71.264
		c-0.359-0.359-0.719-0.719-1.078-1.078"/>
	<path fill="none" stroke="#000000" stroke-width="1.014" stroke-linecap="round" d="M256.683,71.264
		c0.239-0.166,0.479-0.332,0.719-0.497c4.667,1.262,9.523,2.615,13.101,6.081c6.859,2.454,11.319,9.463,15.042,14.959
		c0.109,0.161,0.476,0.148,0.603,0.297"/>
	<path fill="none" stroke="#000000" stroke-width="1.2447" stroke-linecap="round" d="M286.147,92.105
		c1.259-3.354-0.654-7.166,0.458-10.334c0.438-0.077,0.853-0.008,1.146,0.085c2.649,4.74,3.371,10.765,4.863,15.998"/>
	<path fill="none" stroke="#000000" stroke-width="1.3761" stroke-linecap="round" d="M292.615,97.854
		c2.032-0.732,0.865-3.476,3.234-3.953"/>
	<path fill="none" stroke="#000000" stroke-width="1.8639" stroke-linecap="round" d="M295.848,93.901
		c0.512-1.306,0.667-2.513,0.358-3.951"/>
	<path fill="none" stroke="#000000" stroke-width="1.0447" stroke-linecap="round" d="M295.848,93.901
		c1.66,2.873-0.134,6.39,0.229,9.483c0.866,0.192,1.471,0.114,2.056-0.013c5.266-1.66,11.184-1.393,16.645-0.374
		c0.58,0.305,1.477,0.651,1.841,1.394c-5.406,1.245-11.581,2.825-15.859,6.637"/>
	<path fill="none" stroke="#000000" stroke-width="0.9713" stroke-linecap="round" d="M300.759,111.029
		c5.658,1.052,11.646,0.43,16.792,2.852c2.294,1.079,7.57,2.688,10.277,4.813"/>
	<path fill="none" stroke="#000000" stroke-width="1.2147" stroke-linecap="round" d="M300.759,111.029
		c-0.488,0.146-1.395,1.035-2.396,1.198"/>
	<path fill="none" stroke="#000000" stroke-width="0.8801" stroke-linecap="round" d="M292.615,97.854c0,0.479,0,0.958,0,1.438"/>
	<path fill="none" stroke="#000000" stroke-width="1.416" stroke-linecap="round" d="M286.147,92.105
		c0.647,2.156,0.107,4.353-0.359,6.468"/>
	<path fill="none" stroke="#000000" stroke-width="0.9476" stroke-linecap="round" d="M199.193,90.667
		c5.894,2.688,12.031,5.172,18.684,5.03"/>
	<path fill="none" stroke="#000000" stroke-width="1.1244" stroke-linecap="round" d="M217.877,95.698
		c-1.021-1.722-2.786-3.058-4.477-4.146c-1.4-0.901-3.988-0.982-4.377-2.676c0.387-0.247,0.763-0.578,1.107-0.928
		c5.91-2.092,12.493-1.855,18.886-1.951"/>
	<path fill="none" stroke="#000000" stroke-width="2.0641" stroke-linecap="round" d="M217.877,95.698
		c0.24,0.12,0.479,0.239,0.72,0.359"/>
	<path fill="none" stroke="#000000" stroke-width="0.9669" stroke-linecap="round" d="M313.095,124.802
		c6.214-1.381,13.901-0.97,19.043-3.952"/>
	<path fill="none" stroke="#000000" stroke-width="0.9688" stroke-linecap="round" d="M314.892,152.469
		c0.639-0.319,1.123-0.794,1.606-1.268c4.437-1.482,6.514-5.996,10.416-8.27c2.838-5.095,7.073-9.769,8.994-15.228
		c-0.346-0.271-1.019-0.298-1.613-0.389"/>
	<path fill="none" stroke="#000000" stroke-width="1.5244" stroke-linecap="round" d="M206.739,132.887
		c-0.24-0.099-0.479-0.141-0.719-0.18"/>
	<path fill="none" stroke="#000000" stroke-width="1.0865" stroke-linecap="round" d="M206.739,132.887
		c4.206-0.122,8.082,1.847,12.189,1.367c0.117-0.015,0.267,0.244,0.387,0.25"/>
	<path fill="none" stroke="#000000" stroke-width="0.9613" stroke-linecap="round" d="M218.596,141.69
		c2.721-0.274,4.899,1.536,7.545,1.797"/>
	<path fill="none" stroke="#000000" stroke-width="1.1504" stroke-linecap="round" d="M226.141,143.487
		c1.777,0.101,4.038-0.311,5.749,0.72"/>
	<path fill="none" stroke="#000000" stroke-width="1.0163" stroke-linecap="round" d="M236.202,144.205
		c0.467-0.252,1.163-0.274,1.796-0.359"/>
	<path fill="none" stroke="#000000" stroke-width="1.5244" stroke-linecap="round" d="M229.016,151.212
		c0.239,0.098,0.479,0.141,0.719,0.18"/>
	<path fill="none" stroke="#000000" stroke-width="1.0977" stroke-linecap="round" d="M229.735,151.391
		c1.818-0.794,3.679-1.435,5.749-1.437"/>
	<path fill="none" stroke="#000000" stroke-width="1.0163" stroke-linecap="round" d="M235.484,149.954
		c0.69-0.268,1.545-0.371,2.156-0.72"/>
	<path fill="none" stroke="#000000" stroke-width="0.8899" stroke-linecap="round" d="M237.639,149.236
		c3.45-1.253,8.019-1.801,10.061,2.156"/>
	<path fill="none" stroke="#000000" stroke-width="1.0977" stroke-linecap="round" d="M247.7,151.391
		c0.282-0.196,0.677-0.281,1.078-0.358"/>
	<path fill="none" stroke="#000000" stroke-width="0.9992" stroke-linecap="round" d="M247.7,151.391
		c-0.795,1.405-2.006,2.615-3.593,3.054"/>
	<path fill="none" stroke="#000000" stroke-width="1.1735" stroke-linecap="round" d="M268.181,168.279
		c1.296-0.682,1.29-1.748,1.797-2.515"/>
	<path fill="none" stroke="#000000" stroke-width="1.1362" stroke-linecap="round" d="M288.302,166.842
		c3.306,1.721,6.926,2.827,9.508,5.583c0.63,0.088,1.143,0.294,1.63,0.525"/>
	<path fill="none" stroke="#000000" stroke-width="0.8159" stroke-linecap="round" d="M299.441,172.95
		c0.855-2.658-2.449-4.616-2.874-7.188"/>
	<path fill="none" stroke="#000000" stroke-width="1.0163" stroke-linecap="round" d="M296.567,165.764
		c-0.509-0.21-0.835-0.602-1.078-1.078"/>
	<path fill="none" stroke="#000000" stroke-width="0.9817" stroke-linecap="round" d="M296.567,165.764
		c8.829-1.12,17.679-2.958,25.311-7.027c0.627-0.75,1.693-1.218,1.803-2.297c-4.176-0.979-8.854,0.168-13.101-0.736"/>
	<path fill="none" stroke="#000000" stroke-width="1.1735" stroke-linecap="round" d="M299.441,172.95
		c0.437,0.436,0.76,0.759,1.078,1.077"/>
	<path fill="none" stroke="#000000" stroke-width="1.0592" stroke-linecap="round" d="M266.025,194.15
		c0.238,0.002,0.475,0.004,0.713,0.006c3.847,1.089,5.096,5.347,5.509,8.934c0.748,0.322,0.912,1.491,1.186,2.338
		c1.982,6.162,4.666,13.654,5.302,20.125c-0.585,0.387-1.096,0.893-1.57,1.295"/>
	<path fill="none" stroke="#000000" stroke-width="0.8801" stroke-linecap="round" d="M277.164,226.847
		c0.197,0.282,0.281,0.677,0.359,1.078"/>
	<path fill="none" stroke="#000000" stroke-width="1.1086" stroke-linecap="round" d="M285.787,256.311
		c1.272,0.854,3.058-0.204,4.273,0.758c1.896,3.224,0.684,7.883-1.713,10.428c-0.824,0.834-0.369,1.629-0.29,2.437
		c0.02,0.2,0.73,0.352,0.802,0.582c0.368,1.202-0.397,1.103-2.114,2.359c0.033,0.301,0.178,0.581,0.328,0.86
		c0.583,0.354,1.189,0.705,1.76,1.091c1.563,6.669,1.742,13.655,1.516,20.544c-1.436,2.481-4.116,3.472-5.639,5.855"/>
	<path fill="none" stroke="#000000" stroke-width="1.0879" stroke-linecap="round" d="M284.71,301.225
		c-2.734,1.293-6.097,0.947-8.982,1.797"/>
	<path fill="none" stroke="#000000" stroke-width="1.1588" stroke-linecap="round" d="M275.727,303.022
		c0.737,4.68,2.623,8.655,4.476,12.736c-0.008-0.018,1.712,2.708,2.249,4.254c0.672,1.935,0.923,4.179,1.647,6.261
		c0.721,2.075,1.772,7.314,1.809,10.405"/>
	<path fill="none" stroke="#000000" stroke-width="1.1362" stroke-linecap="round" d="M285.907,336.678
		c0.583-0.049,0.913,0.813,0.958,1.916"/>
	<path fill="none" stroke="#000000" stroke-width="1.0712" stroke-linecap="round" d="M286.865,338.594
		c3.245,0.038,6.25,1.756,8.993,3.326c0.814,1.118,0.874,2.557,0.265,3.785c-1.634,1.714-4.797,3.521-4.003,6.323
		c0.738,1.268,2.117,2.239,2.278,3.829c-0.694,1.656-1.58,3.079-2.582,4.582c-0.086,2.086,4.477,1.693,1.518,6.18"/>
	<path fill="none" stroke="#000000" stroke-width="1.1643" stroke-linecap="round" d="M293.333,366.619
		c0.902,3.781,4.11,6.857,3.234,11.14"/>
	<path fill="none" stroke="#000000" stroke-width="1.2233" stroke-linecap="round" d="M296.567,377.759
		c2.135,5.464,4.189,12.226,2.036,18.086"/>
	<path fill="none" stroke="#000000" stroke-width="1.0669" stroke-linecap="round" d="M298.603,395.845
		c0.455,2.655,1.472,5.597-0.425,7.959c-8.712,1.979-17.848,1.981-26.765,1.263"/>
	<path fill="none" stroke="#000000" stroke-width="1.1403" stroke-linecap="round" d="M271.415,405.067
		c-0.296,0.662-0.277,1.639-0.57,2.304c-0.243,0.236-0.458,0.5-0.673,0.766c-8.153,1.457-17.031,2.131-25.346,1.962"/>
	<path fill="none" stroke="#000000" stroke-width="0.8899" stroke-linecap="round" d="M244.826,410.097
		c-1.765,0.528-3.993,0.619-5.749,0"/>
	<path fill="none" stroke="#000000" stroke-width="0.9039" stroke-linecap="round" d="M239.077,410.097
		c-7.745,0.593-15.979,0.604-23.715,0"/>
	<path fill="none" stroke="#000000" stroke-width="1.1332" stroke-linecap="round" d="M215.362,410.097
		c-0.85,0.578-2.118,0.128-2.835,0.072c-3.79-0.297-7.453,0.014-10.818-1.51"/>
	<path fill="none" stroke="#000000" stroke-width="1.0003" stroke-linecap="round" d="M201.708,408.659
		c-5.26,1.263-13.724-2.145-11.751-8.885c0.294-0.309,0.581-0.406,0.853-0.577"/>
	<path fill="none" stroke="#000000" stroke-width="0.9725" stroke-linecap="round" d="M190.809,399.198
		c0.89-5.945,7.106-6.885,11.407-9.433c2.733,0.271,4.934-1.194,7.396-1.946"/>
	<path fill="none" stroke="#000000" stroke-width="0.9286" stroke-linecap="round" d="M239.077,309.49
		c-4.285-0.961-8.959,0.159-13.296-0.583c-0.651-0.813-0.9-1.392-1.042-1.919c0.646-2.325,0.184-4.809,0.325-7.199"/>
	<path fill="none" stroke="#000000" stroke-width="0.9395" stroke-linecap="round" d="M225.063,299.787
		c-0.764,0.044-1.388-0.051-1.935-0.223c-0.487-0.71-0.895-1.501-1.504-2.089c0.085-5.146-0.958-10.81,0.564-15.654"/>
	<path fill="none" stroke="#000000" stroke-width="1.1877" stroke-linecap="round" d="M222.189,281.823
		c0.217-1.28,0.566-2.626,0.252-3.919c-0.833-0.313-1.875-0.525-2.001-1.115c0.614-2.699,1.491-5.189,1.749-7.9"/>
	<path fill="none" stroke="#000000" stroke-width="1.0163" stroke-linecap="round" d="M222.189,281.823
		c1.283,2.854,0.458,6.318,1.437,9.343"/>
	<path fill="none" stroke="#000000" stroke-width="0.9255" stroke-linecap="round" d="M225.063,299.787
		c4.452-0.354,9.657,0.646,13.869-0.396c0.07-0.019,0.079-0.287,0.145-0.322"/>
	<path fill="none" stroke="#000000" stroke-width="1.5462" stroke-linecap="round" d="M239.077,299.07
		c0.3-3.385-0.637-7.032,0.539-10.239"/>
	<path fill="none" stroke="#000000" stroke-width="1.7373" stroke-linecap="round" d="M239.615,288.829
		c-0.775-5.519,1.526-11.572-0.659-16.828"/>
	<path fill="none" stroke="#000000" stroke-width="1.0372" stroke-linecap="round" d="M238.957,272.001
		c-1.712,1.175-1.383,4.053-1.895,6.01c-1.734,0.191-3.438,0.438-5.171,0.577"/>
	<path fill="none" stroke="#000000" stroke-width="1.0006" stroke-linecap="round" d="M231.89,278.588
		c-0.521,5.712-0.834,11.995,0.358,17.605"/>
	<path fill="none" stroke="#000000" stroke-width="0.8934" stroke-linecap="round" d="M231.89,278.588
		c-1.19-0.647-2.652-0.229-3.952-0.359"/>
	<path fill="none" stroke="#000000" stroke-width="0.9471" stroke-linecap="round" d="M238.957,272.001
		c-0.701-1.731,0.483-3.429,0.251-5.062c-0.371-0.12-0.797-0.154-1.226-0.187c-1.841,1.271-4.317,0.466-6.451,0.694"/>
	<path fill="none" stroke="#000000" stroke-width="0.8503" stroke-linecap="round" d="M256.863,272.839
		c-4.659-0.913-8.703-3.22-13.115-4.671"/>
	<path fill="none" stroke="#000000" stroke-width="0.9277" stroke-linecap="round" d="M223.986,263.497
		c-0.197,0.281-0.281,0.678-0.359,1.078"/>
	<path fill="none" stroke="#000000" stroke-width="1.0312" stroke-linecap="round" d="M160.387,242.298
		c-3.759,0.155-7.463,0.424-10.964,1.952c-0.471,1.078-0.355,2.298-0.063,3.394c1.555,1.302,3.073,2.824,5.278,2.56"/>
	<path fill="none" stroke="#000000" stroke-width="0.9486" stroke-linecap="round" d="M154.638,250.202
		c0.069-0.171,0.14-0.34,0.209-0.51c0.244-0.233,0.463-0.496,0.68-0.758c3.029-0.903,6.687-2.505,10.056-4.318
		c2.646-1.426,5.107-3.32,7.774-4.44c0.198-0.083,0.479,0.034,0.684-0.035"/>
	<path fill="none" stroke="#000000" stroke-width="0.8801" stroke-linecap="round" d="M154.638,250.202
		c-0.03,1.228-0.048,2.442,0.358,3.233"/>
	<path fill="none" stroke="#000000" stroke-width="0.9151" stroke-linecap="round" d="M154.997,253.437
		c3.462,1.979,7.025,1.434,10.779,1.078"/>
	<path fill="none" stroke="#000000" stroke-width="0.984" stroke-linecap="round" d="M165.777,254.515
		c0.943-1.305,2.666-2.142,4.312-2.156"/>
	<path fill="none" stroke="#000000" stroke-width="1.0816" stroke-linecap="round" d="M170.089,252.359
		c0.241-0.245,0.565-0.572,0.826-0.873c4.529-1.383,5.77-7.03,10.313-8.469"/>
	<path fill="none" stroke="#000000" stroke-width="0.984" stroke-linecap="round" d="M166.855,255.233
		c0.009,0.729-0.302,1.137-0.573,1.583c-0.139,1.031-0.239,2.37,0.075,3.229c0.26,0.219,0.408,0.551,0.549,0.888
		c0.597,0.626,1.509,0.96,2.093,1.098c5.222-0.043,7.926-4.487,11.307-7.702c0.229-0.22,0.982-0.304,1.453-0.722
		c1.024-0.91,1.238-2.652,2.688-2.848c0.329,0.06,0.621,0.212,0.911,0.368c0.259,0.474,0.417,0.832,0.508,1.224
		c-0.105,0.344-0.239,0.907-0.303,1.479c-1.899,4.002-3.344,8.201-6.327,11.504c0.307,3.385,3.902,5.571,7.565,2.665
		c0.494-0.393,1.05-1.77,1.41-2.173c2.271-2.552,3.428-6.883,4.723-8.943c1.204-0.479,2.631,0.179,3.746-0.57"/>
	<path fill="none" stroke="#000000" stroke-width="1.0186" stroke-linecap="round" d="M196.677,256.311
		c2.037-1.992,5.909-3.355,5.39-6.827"/>
	<path fill="none" stroke="#000000" stroke-width="0.973" stroke-linecap="round" d="M196.677,256.311
		c3.934,2.909,11.23,2.484,13.501-2.309c0.583-0.375,1.189-0.728,1.766-1.108c1.258-3.52,0.909-7.272,0.543-10.955"/>
	<path fill="none" stroke="#000000" stroke-width="0.9591" stroke-linecap="round" d="M212.488,241.939
		c-2.966-3.483-6.138-7.279-10.779-8.624"/>
	<path fill="none" stroke="#000000" stroke-width="0.9568" stroke-linecap="round" d="M201.708,233.315
		c-4.413-1.15-9.875,0.171-12.217,4.313"/>
	<path fill="none" stroke="#000000" stroke-width="0.8723" stroke-linecap="round" d="M189.491,237.627
		c3.933,0.717,8.273,0.733,11.139,3.953"/>
	<path fill="none" stroke="#000000" stroke-width="0.8896" stroke-linecap="round" d="M189.491,237.627
		c-6.914,1.667-15.293-1.837-21.35,2.365c-1.355-0.214-2.125,1.033-3.443,0.868"/>
	<path fill="none" stroke="#000000" stroke-width="0.9812" stroke-linecap="round" d="M201.708,233.315
		c1.116-1.822,3.354-2.04,5.189-3.434c0.665-0.504,1.133-1.313,1.796-1.787c1.059-0.757,2.421-1.175,3.255-1.793
		c1.001-0.742,1.656-1.78,2.499-2.528c0.542-0.479,1.209-0.355,1.513-0.638"/>
	<path fill="none" stroke="#000000" stroke-width="1.3761" stroke-linecap="round" d="M215.961,223.135
		c0.042-0.254,0.419-0.792,0.838-1.318"/>
	<path fill="none" stroke="#000000" stroke-width="0.9008" stroke-linecap="round" d="M216.799,221.817
		c-0.42-0.837-0.367-2.122,0-2.874"/>
	<path fill="none" stroke="#000000" stroke-width="0.9845" stroke-linecap="round" d="M216.799,218.943
		c-0.131-0.203-0.262-0.405-0.393-0.608c0.215-1.266-0.29-2.659,0.258-3.842c3.104-1.039,4.072-4.383,6.962-5.61"/>
	<path fill="none" stroke="#000000" stroke-width="1.4304" stroke-linecap="round" d="M223.626,208.882
		c2.111-1.799,4.333-3.554,6.108-5.749"/>
	<path fill="none" stroke="#000000" stroke-width="0.9891" stroke-linecap="round" d="M229.735,203.133
		c1.32-2.017,2.396-4.209,3.616-6.316c3.001-2.416,6.651-2.905,10.038-4.463"/>
	<path fill="none" stroke="#000000" stroke-width="0.9641" stroke-linecap="round" d="M243.388,192.353
		c0.679-1.681-0.162-3.547,0.572-5.184c1.402-1.51,3.569-0.407,5.177-1.284"/>
	<path fill="none" stroke="#000000" stroke-width="0.9702" stroke-linecap="round" d="M249.137,185.885
		c0-0.157,0.001-0.314,0.001-0.471c-5.614-1.811-11.089-4.246-15.977-7.987c-2.206-5.034-1.479-10.94-2.35-16.334"/>
	<path fill="none" stroke="#000000" stroke-width="2.0184" stroke-linecap="round" d="M230.812,161.093
		c-0.158-1.455-0.815-2.825-0.718-4.313"/>
	<path fill="none" stroke="#000000" stroke-width="1.2308" stroke-linecap="round" d="M230.094,156.781
		c-0.446-0.173-0.746-0.304-1.039-0.434c-0.901-1.42-1.601-3.128-1.356-4.836"/>
	<path fill="none" stroke="#000000" stroke-width="1.8221" stroke-linecap="round" d="M227.698,151.511
		c-1.044-0.702-1.536-1.466-2.635-1.916"/>
	<path fill="none" stroke="#000000" stroke-width="1.1735" stroke-linecap="round" d="M225.063,149.595
		c-3.892-0.054-5.696-4.639-6.467-7.905"/>
	<path fill="none" stroke="#000000" stroke-width="1.0028" stroke-linecap="round" d="M218.596,141.69
		c-3.732-3.152-9.061-4.433-11.771-8.296c-0.089-0.127-0.009-0.372-0.086-0.507"/>
	<path fill="none" stroke="#000000" stroke-width="0.8968" stroke-linecap="round" d="M246.622,162.53
		c3.354,0.53,6.221,2.938,9.488,4.162c1.557,0.583,3.036,0.522,4.662,1.092c1.012,0.354,1.769,0.952,3.097,1.215"/>
	<path fill="none" stroke="#000000" stroke-width="0.8667" stroke-linecap="round" d="M246.982,165.764
		c2.401,1.717,3.756,4.53,5.39,6.827"/>
	<path fill="none" stroke="#000000" stroke-width="0.8841" stroke-linecap="round" d="M249.137,185.885
		c4.295,0.813,8.886,0.138,13.294,0.359"/>
	<path fill="none" stroke="#000000" stroke-width="0.8801" stroke-linecap="round" d="M262.432,186.245
		c-0.076-0.996,0.082-1.875,0.479-2.636"/>
	<path fill="none" stroke="#000000" stroke-width="1.5524" stroke-linecap="round" d="M262.911,183.61
		c-0.063-0.383-0.255-1.07-0.479-1.677"/>
	<path fill="none" stroke="#000000" stroke-width="1.4373" stroke-linecap="round" d="M262.432,181.933
		c-0.479-0.393-0.958-0.561-1.438-0.718"/>
	<path fill="none" stroke="#000000" stroke-width="0.9134" stroke-linecap="round" d="M260.995,181.215
		c-0.524,0.046-0.871-0.087-1.208-0.23c-0.686-0.943-0.637-2.403-1.667-3.004"/>
	<path fill="none" stroke="#000000" stroke-width="1.5413" stroke-linecap="round" d="M258.12,177.981
		c-0.803,0.102-1.268,0.022-1.796,0"/>
	<path fill="none" stroke="#000000" stroke-width="0.9277" stroke-linecap="round" d="M256.324,177.981
		c-0.283,0.196-0.678,0.281-1.078,0.359"/>
	<path fill="none" stroke="#000000" stroke-width="1.3761" stroke-linecap="round" d="M262.911,180.256
		c0.275-0.063,0.627-0.255,0.958-0.479"/>
	<path fill="none" stroke="#000000" stroke-width="0.9379" stroke-linecap="round" d="M262.911,183.61
		c0.09,0.027,0.18,0.055,0.271,0.081c2.972-0.909,4.75-3.618,7.314-5.19c3.214-0.403,5.936-2.083,8.614-3.604
		c2.629-0.089,4.277-2.479,5.648-4.411c0.104-0.137,0.206-0.272,0.31-0.409"/>
	<path fill="none" stroke="#000000" stroke-width="0.9492" stroke-linecap="round" d="M285.069,170.076
		c-4.083-1.206-9.516,0.37-14.732-0.351c-1.04-0.144-1.818-0.493-2.155-1.447"/>
	<path fill="none" stroke="#000000" stroke-width="1.0163" stroke-linecap="round" d="M268.181,168.279
		c-0.75-1.228-0.596-2.442-1.078-3.233"/>
	<path fill="none" stroke="#000000" stroke-width="0.9739" stroke-linecap="round" d="M267.103,165.045
		c-6.329-1.149-11.912-3.69-17.247-7.187"/>
	<path fill="none" stroke="#000000" stroke-width="0.9421" stroke-linecap="round" d="M267.103,165.045
		c0.084-0.155,0.167-0.312,0.251-0.467c0.259-1.377-0.105-2.833-0.804-4.021c-4.742-0.438-8.846-3.341-12.742-5.529
		c-3.793,0.229-7.188,1.618-10.78,2.473"/>
	<path fill="none" stroke="#000000" stroke-width="1.1065" stroke-linecap="round" d="M237.041,162.77
		c0.093,0.025,0.188,0.051,0.28,0.077c1.004,1.781,1.491,4.676,1.065,6.855c0.217,0.576,0.255,1.807,0.722,2.499
		c1.813,1.242,3.728-0.365,4.28-2.125"/>
	<path fill="none" stroke="#000000" stroke-width="1.0247" stroke-linecap="round" d="M243.388,170.076
		c-0.743-2.112-0.089-4.229-0.586-5.887c-0.072-0.237-0.653-0.331-0.726-0.595c-0.182-0.666-0.053-1.546-0.242-2.102
		c-0.08-0.237-0.659-0.339-0.79-0.58c-0.391-0.719-0.788-3.082-0.531-3.773"/>
	<path fill="none" stroke="#000000" stroke-width="0.8148" stroke-linecap="round" d="M240.514,157.14
		c-1.087-0.385-1.269-1.646-1.797-2.515"/>
	<path fill="none" stroke="#000000" stroke-width="0.9793" stroke-linecap="round" d="M240.514,157.14
		c0.634,0.324,1.605,0.311,2.515,0.359"/>
	
		<line fill="none" stroke="#000000" stroke-width="1.0163" stroke-linecap="round" x1="243.029" y1="157.5" x2="243.029" y2="157.5"/>
	<path fill="none" stroke="#000000" stroke-width="0.9582" stroke-linecap="round" d="M243.029,157.5
		c-0.269-1.217,1.122-1.858,1.078-3.055"/>
	<path fill="none" stroke="#000000" stroke-width="0.8801" stroke-linecap="round" d="M235.484,149.954
		c0.21,0.509,0.602,0.835,1.078,1.077"/>
	<path fill="none" stroke="#000000" stroke-width="0.9409" stroke-linecap="round" d="M230.812,153.188
		c1.218-0.268,1.857,1.122,3.054,1.078"/>
	<path fill="none" stroke="#000000" stroke-width="1.4373" stroke-linecap="round" d="M233.866,154.266
		c0.356-0.552,0.801-0.683,1.258-1.078"/>
	<path fill="none" stroke="#000000" stroke-width="0.973" stroke-linecap="round" d="M243.388,170.076
		c1.89-0.835,1.875-3.392,3.593-4.313"/>
	<path fill="none" stroke="#000000" stroke-width="1.2675" stroke-linecap="round" d="M246.982,165.764
		c0.175-1.121-0.513-2.106-0.359-3.234"/>
	<path fill="none" stroke="#000000" stroke-width="0.9461" stroke-linecap="round" d="M246.622,162.53
		c-0.98-1.897-3.339-2.938-3.593-5.029"/>
	<path fill="none" stroke="#000000" stroke-width="1.0163" stroke-linecap="round" d="M225.063,149.595
		c-0.376-1.264-0.022-2.809,0.221-4.09c0.337-0.173,0.658-0.436,0.978-0.701"/>
	<path fill="none" stroke="#000000" stroke-width="1.5244" stroke-linecap="round" d="M226.261,144.804
		c-0.083-0.404-0.092-0.908-0.12-1.317"/>
	<path fill="none" stroke="#000000" stroke-width="1.0713" stroke-linecap="round" d="M231.172,147.798
		c0.707-0.431,1.372-0.929,2.517-1.796"/>
	<path fill="none" stroke="#000000" stroke-width="0.8801" stroke-linecap="round" d="M233.687,146.002
		c-1.004-0.603-1.313-1.225-1.797-1.796"/>
	<path fill="none" stroke="#000000" stroke-width="1.5244" stroke-linecap="round" d="M233.687,146.002
		c1.014-0.381,2.092-0.706,2.515-1.796"/>
	<path fill="none" stroke="#000000" stroke-width="0.969" stroke-linecap="round" d="M236.202,144.205
		c-1.209-0.656-3.032-0.525-4.312,0"/>
	<path fill="none" stroke="#000000" stroke-width="1.5524" stroke-linecap="round" d="M227.698,151.511
		c0.404-0.073,0.908-0.173,1.317-0.299"/>
	<path fill="none" stroke="#000000" stroke-width="0.9507" stroke-linecap="round" d="M229.016,151.212
		c0.088-1.502,1.62-2.148,2.155-3.414"/>
	<path fill="none" stroke="#000000" stroke-width="0.9559" stroke-linecap="round" d="M231.172,147.798
		c-1.674-1.093-2.763-2.783-4.91-2.994"/>
	<path fill="none" stroke="#000000" stroke-width="1.4026" stroke-linecap="round" d="M237.639,149.236
		c0.422,1.509,2.746,1.336,2.603,3.141c1.077,1.087,2.825,0.908,3.865,2.069"/>
	<path fill="none" stroke="#000000" stroke-width="1.4373" stroke-linecap="round" d="M230.094,156.781
		c0.399-1.163,0.368-2.414,0.718-3.593"/>
	<path fill="none" stroke="#000000" stroke-width="0.8034" stroke-linecap="round" d="M230.812,153.188
		c-0.356-0.601-0.692-1.224-1.078-1.796"/>
	<path fill="none" stroke="#000000" stroke-width="0.9421" stroke-linecap="round" d="M230.812,161.093
		c1.417,0.634,1.713,2.163,2.363,3.385c0.955,0.552,1.927,1.011,2.153,2.169c0.336,0.19,0.6,0.276,0.858,0.356
		c0.902-1.212-0.22-3.042,0.854-4.234"/>
	<path fill="none" stroke="#000000" stroke-width="1.2537" stroke-linecap="round" d="M237.041,162.77
		c0.21-3.386-3.104-5.278-3.174-8.504"/>
	<path fill="none" stroke="#000000" stroke-width="0.9137" stroke-linecap="round" d="M229.735,203.133
		c2.47,0.894,3.558-3.3,6.184-2.401c0.15,1.042-0.427,2.267,0.145,3.262c0.764,0.192,1.725,0.189,2.654,0.218"/>
	<path fill="none" stroke="#000000" stroke-width="0.9362" stroke-linecap="round" d="M223.626,208.882
		c-0.046,0.723,0.087,1.144,0.229,1.55c2.723-0.288,7.434-3.479,9.166,2.351c0.542,0.497,1.152,0.493,1.747,0.313
		c0.388-1.499,0.895-2.856,1.299-4.349c1.591-0.807,3.173-1.713,4.806-2.38"/>
	<path fill="none" stroke="#000000" stroke-width="1.4959" stroke-linecap="round" d="M216.799,218.943c0.305,0,0.777,0,1.259,0"/>
	<path fill="none" stroke="#000000" stroke-width="0.8801" stroke-linecap="round" d="M220.392,214.99c-0.359,0-0.72,0-1.078,0"/>
	<path fill="none" stroke="#000000" stroke-width="1.0331" stroke-linecap="round" d="M233.687,230.8
		c0.183-0.21,0.554-0.278,0.723-0.499c2.711-3.553,5.221-7.517,7.409-11.376c1.192-2.104,1.742-4.373,3.252-6.204
		c0.581-4.271-0.558-8.431-0.825-12.602c-0.813-0.639-0.797-2.158-1.936-2.376"/>
	<path fill="none" stroke="#000000" stroke-width="1.0476" stroke-linecap="round" d="M225.423,231.159
		c-2.605,8.227-4.161,16.622-5.56,25.108c0.384,0.239,0.686,0.637,0.889,1.121"/>
	<path fill="none" stroke="#000000" stroke-width="0.937" stroke-linecap="round" d="M220.752,257.389
		c3.916,0.085,7.627-0.164,11.383,0.114c0.291,0.021,0.596,0.479,0.934,0.505c9.167,0.661,16.888,0.851,25.657-0.015
		c0.294-0.029,0.591-0.492,0.933-0.506c4.688-0.182,8.819-0.587,13.483-0.675c0.181-0.003,0.369,0.316,0.551,0.336"/>
	<path fill="none" stroke="#000000" stroke-width="1.6069" stroke-linecap="round" d="M273.691,257.15
		c0.16-0.08,0.319-0.16,0.479-0.239"/>
	<path fill="none" stroke="#000000" stroke-width="1.125" stroke-linecap="round" d="M274.17,256.909
		c-0.06-1.052,1.494-0.694,1.513-1.68c-0.915-4.894-1.857-9.184-3.704-13.802c-0.058-0.143-0.481-0.13-0.582-0.296
		c-1.505-2.481-2.401-5.763-2.856-8.896"/>
	<path fill="none" stroke="#000000" stroke-width="1.2447" stroke-linecap="round" d="M268.54,232.237
		c0.005-0.745,0.271-1.33,0.359-2.155"/>
	<path fill="none" stroke="#000000" stroke-width="0.9599" stroke-linecap="round" d="M268.9,230.081
		c-0.431-6.415,1.997-12.366,2.156-18.686"/>
	<path fill="none" stroke="#000000" stroke-width="0.8972" stroke-linecap="round" d="M268.9,230.081
		c3.103-0.251,5.414-2.354,8.264-3.234"/>
	<path fill="none" stroke="#000000" stroke-width="0.9198" stroke-linecap="round" d="M243.388,192.353
		c4.982,1.022,10.324,1.427,15.55,2.416c2.111,0.4,4.675,0.441,7.087-0.619"/>
	<path fill="none" stroke="#000000" stroke-width="1.0378" stroke-linecap="round" d="M266.025,194.15
		c0.293-2.27,2.036-4.119,2.487-6.462c-0.199-0.521-0.72-0.972-1.145-1.307c-1.633-0.244-3.292-0.091-4.937-0.136"/>
	<path fill="none" stroke="#000000" stroke-width="1.3306" stroke-linecap="round" d="M258.12,177.981
		c0.044-0.711-0.083-1.14-0.219-1.554c-0.375-0.298-0.809-0.44-1.245-0.574c-0.506,0.479-0.501,1.114-0.565,1.672
		c0.078,0.152,0.155,0.305,0.232,0.456"/>
	<path fill="none" stroke="#000000" stroke-width="1.6853" stroke-linecap="round" d="M262.432,181.933
		c0.245-0.747,0.329-1.218,0.479-1.677"/>
	<path fill="none" stroke="#000000" stroke-width="0.984" stroke-linecap="round" d="M262.911,180.256
		c-0.233-0.162-0.469-0.325-0.703-0.487c-0.394-0.024-0.708,0.096-1.018,0.225c-0.096,0.371-0.147,0.796-0.196,1.222"/>
	<path fill="none" stroke="#000000" stroke-width="1.0218" stroke-linecap="round" d="M285.907,336.678
		c-5.334,1.462-11.195,0.829-16.648,1.557"/>
	<path fill="none" stroke="#000000" stroke-width="0.909" stroke-linecap="round" d="M269.259,338.235
		c-0.252,0.467-0.273,1.163-0.358,1.797"/>
	<path fill="none" stroke="#000000" stroke-width="0.8801" stroke-linecap="round" d="M268.9,340.031c0,0.72,0,1.438,0,2.155"/>
	<path fill="none" stroke="#000000" stroke-width="1.2124" stroke-linecap="round" d="M268.9,342.187
		c0.821,1.263,1.876,2.508,3.063,3.387c0.42,1.023,0.431,2.223,0.009,3.231c-0.966,0.466-1.38,1.549-1.993,2.365"/>
	<path fill="none" stroke="#000000" stroke-width="0.8947" stroke-linecap="round" d="M269.978,351.17
		c4.647,3.017,10.789,1.374,16.169,1.796"/>
	<path fill="none" stroke="#000000" stroke-width="0.9641" stroke-linecap="round" d="M269.978,351.17
		c-0.993,0.426-1.646,1.259-2.156,2.154"/>
	<path fill="none" stroke="#000000" stroke-width="0.7568" stroke-linecap="round" d="M267.822,353.324
		c0.839,1.743,3.004,2.583,3.233,4.671"/>
	<path fill="none" stroke="#000000" stroke-width="0.9261" stroke-linecap="round" d="M271.055,357.995
		c3.185-0.166,6.07,1.05,8.624,2.875"/>
	<path fill="none" stroke="#000000" stroke-width="1.0367" stroke-linecap="round" d="M271.055,357.995
		c-0.492,0.919-1.08,1.775-1.625,2.688c-3.387,1.392-0.471,5.252-2.688,7.374"/>
	<path fill="none" stroke="#000000" stroke-width="1.0899" stroke-linecap="round" d="M266.744,368.058
		c0.931,1.06,1.055,2.913,2.515,3.413"/>
	<path fill="none" stroke="#000000" stroke-width="0.9402" stroke-linecap="round" d="M269.259,371.471
		c2.462-2.065,5.182-4.095,7.706-6.128c2.594-0.515,5.022-1.511,7.745-1.599"/>
	<path fill="none" stroke="#000000" stroke-width="0.998" stroke-linecap="round" d="M269.259,371.471
		c-0.984,1.813,0.333,3.423,0.359,5.21"/>
	<path fill="none" stroke="#000000" stroke-width="0.7682" stroke-linecap="round" d="M293.333,366.619
		c-1.069-0.362-1.537-1.759-2.875-1.438"/>
	<path fill="none" stroke="#000000" stroke-width="1.0163" stroke-linecap="round" d="M286.865,338.594
		c-0.049,1.068,0.336,1.514,0.698,1.785c0.414,0.414,0.379,0.977,0.278,1.448c-4.73,1.025-9.686,1.258-14.631,1.077"/>
	<path fill="none" stroke="#000000" stroke-width="1.0311" stroke-linecap="round" d="M267.822,353.324
		c-5.995,1.043-12.444,0.601-18.325-0.358"/>
	<path fill="none" stroke="#000000" stroke-width="0.909" stroke-linecap="round" d="M263.869,338.594
		c-3.205,2.571-7.676,1.013-11.498,1.438"/>
	<path fill="none" stroke="#000000" stroke-width="1.0779" stroke-linecap="round" d="M255.246,306.974
		c-2.534,0.146-5.093,0.604-7.545,1.078"/>
	<path fill="none" stroke="#000000" stroke-width="0.9277" stroke-linecap="round" d="M247.7,308.052
		c0.196,0.283,0.28,0.678,0.359,1.078"/>
	<path fill="none" stroke="#000000" stroke-width="0.9752" stroke-linecap="round" d="M247.7,308.052
		c-2.76,1.081-6.316-0.777-8.624,1.438"/>
	<path fill="none" stroke="#000000" stroke-width="1.1368" stroke-linecap="round" d="M239.077,309.49
		c1.192,2.335,2.408,4.657,3.613,6.556c1.467,7.777,2.659,15.926,2.987,23.765c-0.622,0.354-0.77,0.842-1.03,1.3"/>
	<path fill="none" stroke="#000000" stroke-width="1.2348" stroke-linecap="round" d="M244.646,341.109
		c0.396,1.149-0.04,2.408,0.286,3.562c1.107,0.726,2.59,0.239,3.846,0.393"/>
	<path fill="none" stroke="#000000" stroke-width="1.0438" stroke-linecap="round" d="M244.646,341.109
		c-0.646-0.317-2.914,1.024-3.938,1.632c-4.522,2.687-5.092,6.504,0.009,10.382c0.146,0.658,0.067,1.264-0.068,1.784
		c-1.207,1.979-4.583,3.671-3.157,6.479c0.443,0.801,1.703,0.906,1.586,2.003"/>
	<path fill="none" stroke="#000000" stroke-width="1.1362" stroke-linecap="round" d="M239.077,363.387
		c0.133,0.204,0.266,0.409,0.398,0.613c0.174,1.451-1.676,2.608-0.759,4.058"/>
	<path fill="none" stroke="#000000" stroke-width="1.1084" stroke-linecap="round" d="M238.718,368.058
		c2.182,1.878,4.999,2.595,6.468,5.03"/>
	<path fill="none" stroke="#000000" stroke-width="1.3026" stroke-linecap="round" d="M238.718,368.058
		c-1.278,1.671-0.202,3.599-0.538,5.39"/>
	<path fill="none" stroke="#000000" stroke-width="1.0343" stroke-linecap="round" d="M238.178,373.448
		c0.144,0.444,0.39,1.055,0.732,1.611c5.013,2.084,12.017,1.826,15.787-2.52c2.265-1.232,5.329-1.873,7.016-3.764"/>
	<path fill="none" stroke="#000000" stroke-width="0.8686" stroke-linecap="round" d="M261.714,368.777
		c-0.069-0.17-0.14-0.34-0.209-0.51c-0.246-0.233-0.461-0.497-0.674-0.763c-5.507,0.014-10.572-1.478-15.645-3.04"/>
	<path fill="none" stroke="#000000" stroke-width="1.3444" stroke-linecap="round" d="M220.392,214.99
		c0.341,2.05-2.66,1.875-2.335,3.953"/>
	<path fill="none" stroke="#000000" stroke-width="0.9667" stroke-linecap="round" d="M227.698,228.884
		c0.897,0.333,1.986,0.808,2.888,0.248c0.554-0.879,0.648-2.238,1.663-2.644"/>
	<path fill="none" stroke="#000000" stroke-width="0.9629" stroke-linecap="round" d="M232.25,226.488
		c-0.451-5.686-6.14-11.915-11.856-11.498"/>
	<path fill="none" stroke="#000000" stroke-width="0.8667" stroke-linecap="round" d="M233.687,230.8
		c-1.507-1.045,0.235-3.614-1.438-4.313"/>
	<path fill="none" stroke="#000000" stroke-width="1.0163" stroke-linecap="round" d="M225.063,230.8
		c0.12,0.12,0.24,0.24,0.358,0.359"/>
	<path fill="none" stroke="#000000" stroke-width="0.9971" stroke-linecap="round" d="M225.423,231.159
		c2.855-0.935,5.981,2.504,8.266-0.359"/>
	<path fill="none" stroke="#000000" stroke-width="0.9764" stroke-linecap="round" d="M220.752,257.389
		c0.466,1.917-1.275,3.696-0.498,5.533c1.197,0.489,2.622-0.175,3.731,0.575"/>
	<path fill="none" stroke="#000000" stroke-width="1.1061" stroke-linecap="round" d="M223.986,263.497
		c12.281,0.086,24.753-0.063,37.009-1.078"/>
	<path fill="none" stroke="#000000" stroke-width="1.1055" stroke-linecap="round" d="M260.995,262.419
		c3.652,0.215,7.091-1.173,10.779-0.719"/>
	<path fill="none" stroke="#000000" stroke-width="0.9154" stroke-linecap="round" d="M212.488,241.939
		c4.256-2.716,8.662-6.101,10.779-10.779"/>
	<path fill="none" stroke="#000000" stroke-width="0.9168" stroke-linecap="round" d="M223.267,231.159
		c-0.175-2.942-1.123-5.98-4.033-7.411c-1.132-0.106-2.354-0.059-3.273-0.614"/>
	<path fill="none" stroke="#000000" stroke-width="1.0163" stroke-linecap="round" d="M223.267,231.159
		c0.467-0.251,1.163-0.274,1.796-0.359"/>
	<path fill="none" stroke="#000000" stroke-width="0.8801" stroke-linecap="round" d="M225.063,230.8
		c-0.044-0.523,0.083-0.875,0.22-1.218c0.801-0.119,1.685-0.272,2.416-0.698"/>
	<path fill="none" stroke="#000000" stroke-width="0.9953" stroke-linecap="round" d="M227.698,228.884
		c-0.249-1.407,0.708-2.32,1.568-3.233c-0.138-4.158-4.601-6.955-8.415-6.958c-0.765,0.64-1.25,1.707-2.437,1.688"/>
	<path fill="none" stroke="#000000" stroke-width="1.2447" stroke-linecap="round" d="M216.799,221.817
		c0.972-0.325,1.345-0.85,1.617-1.437"/>
	<path fill="none" stroke="#000000" stroke-width="1.5524" stroke-linecap="round" d="M218.416,220.38
		c-0.116-0.488-0.219-0.999-0.358-1.438"/>
	<path fill="none" stroke="#000000" stroke-width="1.3159" stroke-linecap="round" d="M273.691,257.15
		c-0.539,1.222,0.801,2.298,0.484,3.475c-0.534,0.208-1.507,0.432-2.4,1.077"/>
	<path fill="none" stroke="#000000" stroke-width="1.6257" stroke-linecap="round" d="M271.774,261.7
		c0.846,1.533-0.267,3.527,0.87,4.925c0.635,0.32,1.154,0.356,1.645,0.465"/>
	<path fill="none" stroke="#000000" stroke-width="0.886" stroke-linecap="round" d="M274.289,267.09
		c2.859-0.784,6.011-0.156,8.983-0.359"/>
	<path fill="none" stroke="#000000" stroke-width="1.0659" stroke-linecap="round" d="M274.289,267.09
		c0.926,2.452-0.837,5.337,1.078,7.546"/>
	<path fill="none" stroke="#000000" stroke-width="0.8683" stroke-linecap="round" d="M275.367,274.636
		c1.823-1.087,4.333-0.943,5.749-2.156"/>
	<path fill="none" stroke="#000000" stroke-width="1.0307" stroke-linecap="round" d="M275.367,274.636
		c1.295,4.082,2.688,8.608,4.671,12.217"/>
	<path fill="none" stroke="#000000" stroke-width="0.9307" stroke-linecap="round" d="M280.038,286.853
		c2.325-0.368,4.446,0.585,5.947,2.316c1.264,1.748-1.43,4.976,0.88,5.589"/>
	<path fill="none" stroke="#000000" stroke-width="1.0506" stroke-linecap="round" d="M285.787,256.311
		c-1.665-9.511-5.474-17.627-9.178-26.055c-0.595-0.125-0.984,0.167-1.394,0.403c-2.307,0.392-4.352,1.309-6.676,1.577"/>
	<path fill="none" stroke="#000000" stroke-width="0.8773" stroke-linecap="round" d="M274.17,256.909
		c3.697,0.929,7.8-0.542,11.618-0.6"/>
	<path fill="none" stroke="#000000" stroke-width="1.2619" stroke-linecap="round" d="M257.761,273.558
		c1.006,1.421,0.897,3.423-0.359,4.671"/>
	<path fill="none" stroke="#000000" stroke-width="0.8887" stroke-linecap="round" d="M257.402,278.229
		c2.306,1.271,3.977,2.73,5.03,5.031"/>
	<path fill="none" stroke="#000000" stroke-width="1.1457" stroke-linecap="round" d="M257.402,278.229
		c-0.943,1.229-0.063,2.697,0.166,3.338c1.045,2.938,1.547,6.354,2.215,9.373c0.653,2.954,1.749,9.399,2.291,13.521"/>
	<path fill="none" stroke="#000000" stroke-width="0.9277" stroke-linecap="round" d="M262.073,304.459
		c0.282-0.196,0.677-0.281,1.078-0.359"/>
	<path fill="none" stroke="#000000" stroke-width="1.5244" stroke-linecap="round" d="M262.073,304.459
		c0.01,0.486-0.082,0.998-0.18,1.438"/>
	<path fill="none" stroke="#000000" stroke-width="1.331" stroke-linecap="round" d="M261.893,305.897
		c3.636,10.534,3.604,21.831,7.365,32.338"/>
	<path fill="none" stroke="#000000" stroke-width="0.9231" stroke-linecap="round" d="M275.727,303.022
		c-2.143,0.752-4.573,0.177-6.827,0.359"/>
	<path fill="none" stroke="#000000" stroke-width="1.2025" stroke-linecap="round" d="M284.71,301.225
		c-1.657-3.997-2.437-8.428-3.99-12.428c-0.546-0.058-0.637-0.838-0.681-1.944"/>
	<path fill="none" stroke="#000000" stroke-width="0.9949" stroke-linecap="round" d="M260.995,262.419
		c-0.513,3.838-1.919,7.409-4.132,10.42"/>
	<path fill="none" stroke="#000000" stroke-width="1.5524" stroke-linecap="round" d="M256.863,272.839
		c0.275,0.463,0.58,0.551,0.898,0.719"/>
	<path fill="none" stroke="#000000" stroke-width="0.886" stroke-linecap="round" d="M257.761,273.558
		c2.325-0.372,4.591-1.635,6.107-3.232"/>
	<path fill="none" stroke="#000000" stroke-width="1.1247" stroke-linecap="round" d="M255.246,306.974
		c0.471,2.231,1.173,4.511,1.963,6.622c0.048,0.129,0.51,0.131,0.572,0.292c3.136,7.972,5.629,15.513,6.088,24.706"/>
	<path fill="none" stroke="#000000" stroke-width="1.2634" stroke-linecap="round" d="M263.869,338.594
		c0.204,0.034,0.409,0.067,0.613,0.103c0.371,1.301,1.265,2.01,2.621,2.412"/>
	<path fill="none" stroke="#000000" stroke-width="1.3444" stroke-linecap="round" d="M261.893,305.897
		c-2.199,0.489-4.415,0.717-6.647,1.077"/>
	<path fill="none" stroke="#000000" stroke-width="0.8503" stroke-linecap="round" d="M267.103,341.109
		c0.155,0.323,0.349,0.61,0.542,0.896c0.39,0.089,0.82,0.137,1.254,0.183"/>
	<path fill="none" stroke="#000000" stroke-width="0.8801" stroke-linecap="round" d="M268.9,340.031
		c-0.52-0.04-0.871,0.087-1.215,0.223c-0.157,0.32-0.368,0.59-0.581,0.854"/>
	<path fill="none" stroke="#000000" stroke-width="0.9017" stroke-linecap="round" d="M154.997,253.437
		c-0.084,0.155-0.167,0.313-0.251,0.467c-0.123,0.892-0.126,1.854,0.108,2.554c2.898,3.286,8.571,1.384,10.922-1.583"/>
	<path fill="none" stroke="#000000" stroke-width="1.4373" stroke-linecap="round" d="M165.777,254.873c0-0.119,0-0.239,0-0.358"/>
	<path fill="none" stroke="#000000" stroke-width="0.8801" stroke-linecap="round" d="M165.777,254.873
		c0.283,0.196,0.678,0.28,1.078,0.358"/>
	<path fill="none" stroke="#000000" stroke-width="0.9335" stroke-linecap="round" d="M166.855,255.233
		c1.562,0.077,2.831-1.494,3.233-2.874"/>
	<path fill="none" stroke="#000000" stroke-width="1.2086" stroke-linecap="round" d="M239.077,299.07
		c1.356,0.061,2.192-0.052,2.726-0.394c1.015-1.259-0.58-2.825-0.59-2.927c-0.251-2.689,0.248-5.28-1.597-6.92"/>
	<path fill="none" stroke="#000000" stroke-width="1.2002" stroke-linecap="round" d="M269.978,380.634
		c-0.568,2.27-0.519,4.715-0.838,7.065"/>
	<path fill="none" stroke="#000000" stroke-width="1.0297" stroke-linecap="round" d="M271.894,397.881
		c3.91-1.323,7.701-2.33,11.591-3.613c0.436-2.926-0.09-5.898-0.432-8.744c-4.014-0.23-6.114-3.805-9.283-5.818
		c-1.305-0.208-2.648,0.357-3.792,0.93"/>
	<path fill="none" stroke="#000000" stroke-width="1.1362" stroke-linecap="round" d="M224.105,384.824
		c-0.916,0.905-1.644,1.102-2.275,1.559"/>
	<path fill="none" stroke="#000000" stroke-width="0.984" stroke-linecap="round" d="M217.158,388.898
		c-1.229,0.916-2.517,1.849-3.234,3.234"/>
	<path fill="none" stroke="#000000" stroke-width="1.3086" stroke-linecap="round" d="M213.925,392.132
		c-0.437,0.876-0.63,1.588-0.875,1.984c-0.573,0.191-1.397,0.154-1.854-0.11c-0.753-1.217,1.042-1.569,1.293-2.594"/>
	<path fill="none" stroke="#000000" stroke-width="1.8321" stroke-linecap="round" d="M270.697,400.035
		c0.554-0.59,0.914-1.476,1.198-2.154"/>
	<path fill="none" stroke="#000000" stroke-width="1.9013" stroke-linecap="round" d="M271.894,397.881
		c-0.438-0.604-0.878-1.054-1.318-1.559"/>
	<path fill="none" stroke="#000000" stroke-width="1.3167" stroke-linecap="round" d="M270.576,396.323
		c-0.126,0.031-0.253,0.063-0.38,0.094c-0.535,0.051-1.011-0.3-1.468-0.653c-0.142-2.448-0.608-4.849-0.61-7.302
		c0.417-0.442,0.707-0.545,1.021-0.762"/>
	<path fill="none" stroke="#000000" stroke-width="0.8801" stroke-linecap="round" d="M269.978,380.634
		c-0.648-1.19-0.23-2.652-0.359-3.953"/>
	<path fill="none" stroke="#000000" stroke-width="0.8801" stroke-linecap="round" d="M269.618,376.681
		c-0.74-0.021-1.272,0.164-1.796,0.358"/>
	<path fill="none" stroke="#000000" stroke-width="1.1345" stroke-linecap="round" d="M267.822,377.039
		c-0.107,1.801,1.156,4.002-0.208,5.542c-0.897,0.854-2.926,0.809-3.963,0.171c0.16-2.985,1.234-6.025,2.771-8.344
		C267.974,374.363,267.044,376.276,267.822,377.039"/>
	<path fill="none" stroke="#000000" stroke-width="0.9349" stroke-linecap="round" d="M266.744,368.058
		c-1.834-0.442-3.282,0.695-5.03,0.719"/>
	<path fill="none" stroke="#000000" stroke-width="1.4373" stroke-linecap="round" d="M231.89,372.729
		c0.004,0.753-0.896,1.355-1.317,1.557"/>
	<path fill="none" stroke="#000000" stroke-width="1.1133" stroke-linecap="round" d="M230.573,374.284
		c-0.223,1.096-1.049,1.824-1.557,2.755"/>
	<path fill="none" stroke="#000000" stroke-width="1.0865" stroke-linecap="round" d="M229.016,377.039
		c-0.966,3.112-4.605,4.443-4.911,7.785"/>
	<path fill="none" stroke="#000000" stroke-width="1.1068" stroke-linecap="round" d="M224.105,384.824
		c2.87-0.077,4.765-2.745,7.042-3.99c0.307,0.085,0.718,0.114,1.134,0.144c3.03,1.704,5.712,4.049,8.74,5.615
		c4.579,0.985,8.123-2.907,12.673-2.606c1.63,1.169,3.781,1.33,5.311,2.593c1.722,0.572,3.141,1.878,4.906,2.503
		c1.189,1.995,0.678,4.781,0.458,7.009c-2.69,1.722-6.381,1.578-9.892,3.537c-2.31,1.286-8.194,2.669-11.226,3.864
		c-0.697,0.275-3.589,0.408-5.856,0.611c-0.293,0.026-0.592,0.479-0.934,0.505c-2.397,0.182-5.041,0.284-7.405,0.386
		c-4.168,0.18-8.516,0.76-12.41-0.495c-3.09-1.895-6.242-5.504-10.055-5.321c-3.057,2.419-6.223,4.423-8.836,7.283
		c-3.904-0.446-6.168-3.754-6.946-7.263"/>
	<path fill="none" stroke="#000000" stroke-width="1.0163" stroke-linecap="round" d="M271.415,405.067
		c-0.239-0.239-0.479-0.479-0.718-0.719"/>
	<path fill="none" stroke="#000000" stroke-width="0.943" stroke-linecap="round" d="M270.697,404.348
		c-5.583,1.953-12.138,2.018-18.116,1.567c0.109-1.897,1.708-3.02,3.534-3.933c0.543-0.271,1.399,0.052,2.007-0.148
		c1.851-0.612,8.818-2.899,12.575-1.799"/>
	<path fill="none" stroke="#000000" stroke-width="1.5179" stroke-linecap="round" d="M270.697,404.348c0-1.438,0-2.874,0-4.313"/>
	<path fill="none" stroke="#000000" stroke-width="1.2675" stroke-linecap="round" d="M209.613,387.82
		c0.373,1.229,1.744,1.534,2.875,1.438"/>
	<path fill="none" stroke="#000000" stroke-width="0.9425" stroke-linecap="round" d="M213.566,386.024
		c-1.319,0.675-2.995,0.474-3.953,1.796"/>
	<path fill="none" stroke="#000000" stroke-width="1.0971" stroke-linecap="round" d="M230.573,374.284
		c-0.185-0.113-0.369-0.229-0.553-0.343c-0.396-0.147-0.687-0.229-0.972-0.307c-4.453,1.624-8.54,5.091-11.09,8.833
		c-0.113,0.167,0.015,0.5-0.083,0.68"/>
	<path fill="none" stroke="#000000" stroke-width="1.5744" stroke-linecap="round" d="M217.877,383.149
		c0.461,0.818,1.019,1.055,1.796,1.797"/>
	<path fill="none" stroke="#000000" stroke-width="0.973" stroke-linecap="round" d="M219.674,384.946
		c0.737,0.461,1.419,0.978,2.156,1.438"/>
	<path fill="none" stroke="#000000" stroke-width="0.9127" stroke-linecap="round" d="M229.016,377.039
		c-0.159-0.087-0.318-0.175-0.478-0.262c-2.788,0.251-4.779,3.113-6.35,4.934"/>
	<path fill="none" stroke="#000000" stroke-width="1.1504" stroke-linecap="round" d="M231.89,372.729
		c2.211-1.359,4.313-0.307,6.288,0.719"/>
	<path fill="none" stroke="#000000" stroke-width="1.0671" stroke-linecap="round" d="M239.077,363.387
		c-2.116,0.269-3.993,1.018-5.921,1.993c-0.646,2.338-2.005,4.925-1.265,7.349"/>
	<path fill="none" stroke="#000000" stroke-width="1.2398" stroke-linecap="round" d="M296.567,377.759
		c-4.142,1.055-4.602,6.532-8.55,7.98c-0.083,2.902-0.331,6.112,1.169,8.688c3.214,0.315,6.263,0.771,9.417,1.417"/>
	<path fill="none" stroke="#000000" stroke-width="1.1977" stroke-linecap="round" d="M215.362,384.586
		c0.152,1.1-0.448,2.092-1.438,2.515"/>
	<path fill="none" stroke="#000000" stroke-width="0.9008" stroke-linecap="round" d="M213.925,387.101
		c-0.19,1.007-0.723,1.673-1.437,2.156"/>
	<path fill="none" stroke="#000000" stroke-width="0.909" stroke-linecap="round" d="M212.488,389.257
		c0.38,0.69,0.249,1.545,0,2.155"/>
	<path fill="none" stroke="#000000" stroke-width="1.3306" stroke-linecap="round" d="M217.877,383.149
		c-0.67,0.771-1.854,0.715-2.515,1.438"/>
	<path fill="none" stroke="#000000" stroke-width="0.8801" stroke-linecap="round" d="M213.566,386.024
		c0.043,0.437,0.198,0.76,0.358,1.077"/>
	<path fill="none" stroke="#000000" stroke-width="0.8801" stroke-linecap="round" d="M215.362,384.586
		c-0.725-0.046-1.14,0.083-1.54,0.22c-0.132,0.369-0.196,0.792-0.257,1.218"/>
	<path fill="none" stroke="#000000" stroke-width="0.8801" stroke-linecap="round" d="M217.158,388.898
		c1.865,0.136,3.824-0.804,4.671-2.515"/>
	<path fill="none" stroke="#000000" stroke-width="1.052" stroke-linecap="round" d="M219.674,384.946
		c-0.738,1.456-2.518,2.174-2.515,3.952"/>
	<path fill="none" stroke="#000000" stroke-width="1.2356" stroke-linecap="round" d="M270.576,396.323
		c-0.046-2.86-0.092-6.02-1.437-8.623"/>
	<path fill="none" stroke="#000000" stroke-width="0.9277" stroke-linecap="round" d="M213.925,392.132
		c-0.487-0.231-0.999-0.438-1.437-0.72"/>
	<path fill="none" stroke="#000000" stroke-width="1.0506" stroke-linecap="round" d="M215.362,410.097
		c-1.546-2.919-4.688-3.976-6.295-6.646c-0.342-0.154-0.609-0.306-0.872-0.456c-2.806,0.654-4.715,3.623-6.487,5.664"/>
	<path fill="none" stroke="#000000" stroke-width="1.1064" stroke-linecap="round" d="M244.826,410.097
		c-0.038-1.13-0.683-2.121-1.266-3.051c-0.485-0.261-0.845-0.417-1.239-0.509c-1.827,0.26-2.511,2.142-3.244,3.56"/>
	<path fill="none" stroke="#000000" stroke-width="1.0306" stroke-linecap="round" d="M286.506,166.483
		c-0.084-0.154-0.168-0.311-0.252-0.466c-0.723-1.016-2.071-1.282-3.083-1.947c-4.142,0.545-7.943-1.524-11.896-1.314
		c-0.619,0.897-1.268,1.877-1.297,3.009"/>
	<path fill="none" stroke="#000000" stroke-width="1.2286" stroke-linecap="round" d="M285.069,170.076
		c1.613-0.395,2.971-1.497,3.233-3.234"/>
	<path fill="none" stroke="#000000" stroke-width="1.5244" stroke-linecap="round" d="M288.302,166.842
		c-0.739-0.252-1.273-0.274-1.797-0.359"/>
	<path fill="none" stroke="#000000" stroke-width="0.976" stroke-linecap="round" d="M286.506,166.483
		c-5.448,1.087-11.133-0.253-16.527-0.719"/>
	<path fill="none" stroke="#000000" stroke-width="0.9496" stroke-linecap="round" d="M275.367,402.552
		c-0.63-0.105-0.833-0.446-1.086-0.729c0.18-2.543,3.42-3.008,6.847-3.571c1.759-0.29,6.718-1.319,10.769-0.729
		c2.86,0.416,6.992-0.411,5.355,3.206c-0.748,1.726-3.225,1.063-4.522,1.218C290.017,402.269,280.99,402.933,275.367,402.552"/>
	<path fill="none" stroke="#000000" stroke-width="1.0301" stroke-linecap="round" d="M281.116,378.117
		c-0.463-0.032-0.702-0.212-0.931-0.397c0.323-1.997,2.003-5.8,4.515-7.113c2.12,1.255,3.573,3.821,4.313,6.098
		C287.039,378.323,283.75,378.142,281.116,378.117"/>
</g>
</svg>
