<?xml version="1.0" encoding="utf-8"?>
<!-- Generator: Adobe Illustrator 14.0.0, SVG Export Plug-In . SVG Version: 6.00 Build 43363)  -->
<!DOCTYPE svg PUBLIC "-//W3C//DTD SVG 1.1//EN" "http://www.w3.org/Graphics/SVG/1.1/DTD/svg11.dtd">
<svg version="1.1" id="图层_1" xmlns="http://www.w3.org/2000/svg" xmlns:xlink="http://www.w3.org/1999/xlink" x="0px" y="0px"
	 width="848px" height="480px" viewBox="0 0 848 480" enable-background="new 0 0 848 480" xml:space="preserve">
<g>
	<path fill="none" stroke="#000000" stroke-width="1.0476" stroke-linecap="round" d="M399.331,153.547
		c0.996,0.415,1.655,1.468,1.796,2.516"/>
	<path fill="none" stroke="#000000" stroke-width="1.0163" stroke-linecap="round" d="M399.331,153.547
		c-0.24,0.24-0.479,0.479-0.719,0.719"/>
	<path fill="none" stroke="#000000" stroke-width="0.8801" stroke-linecap="round" d="M398.612,154.266
		c0.325,0.786,0.3,1.757,0.359,2.515"/>
	<path fill="none" stroke="#000000" stroke-width="1.1103" stroke-linecap="round" d="M388.91,156.063
		c0.071-4.75,5.469-6.257,8.983-3.953"/>
	<path fill="none" stroke="#000000" stroke-width="1.0163" stroke-linecap="round" d="M397.893,152.11
		c0.681,0.278,1.002,0.914,1.438,1.438"/>
	<path fill="none" stroke="#000000" stroke-width="1.0977" stroke-linecap="round" d="M397.534,153.906
		c0.437,0.044,0.76,0.199,1.078,0.359"/>
	<path fill="none" stroke="#000000" stroke-width="0.8801" stroke-linecap="round" d="M397.893,152.11
		c-0.252,0.468-0.274,1.163-0.359,1.796"/>
	<path fill="none" stroke="#000000" stroke-width="1.3" stroke-linecap="round" d="M395.378,158.219
		c0.763,0.029,1.871,0.043,2.631-0.22c0.216-0.369,0.586-0.792,0.963-1.219"/>
	<path fill="none" stroke="#000000" stroke-width="1.3761" stroke-linecap="round" d="M397.534,153.906
		c-0.617,0.355-1.247,0.687-1.665,1.099c-0.059,0.787-0.343,2.057-0.491,3.214"/>
	<path fill="none" stroke="#000000" stroke-width="1.3569" stroke-linecap="round" d="M395.378,158.219
		c-0.113,2.592,0.479,5.168,2.329,7.034c0.432,0.114,0.75,0.02,1.063-0.085c1.269-2.474,1.438-5.94,0.202-8.387"/>
	<path fill="none" stroke="#000000" stroke-width="0.7186" stroke-linecap="round" d="M410.829,167.201
		c0.351,0.756-0.564,0.487-0.719,0.718c-0.332,0.498,0.265,1.614,0,2.156c-0.884-0.314-1.477-0.921-1.438-2.156
		c0.611,0.132,0.679-0.28,0.72-0.718C409.87,167.201,410.349,167.201,410.829,167.201z"/>
	<path fill="none" stroke="#000000" stroke-width="0.7186" stroke-linecap="round" d="M420.889,208.163
		c-0.474,2.151-1.536-0.688-2.875,0c0-0.719,0-1.438,0-2.156c0.719,0,1.438,0,2.155,0c-0.132,0.611,0.28,0.678,0.72,0.719
		c0.448,0.674-0.694,0.595-0.72,0.719C420.048,208.057,420.444,208.121,420.889,208.163z"/>
	<path fill="none" stroke="#000000" stroke-width="0.7186" stroke-linecap="round" d="M424.123,210.678
		c0.086,0.393,0.397,0.562,0.719,0.719"/>
	<path fill="none" stroke="#000000" stroke-width="0.8298" stroke-linecap="round" d="M424.123,210.678
		c0.234-0.996-0.868-2.635-1.963-1.911C421.706,209.909,423.069,210.889,424.123,210.678"/>
	<path fill="none" stroke="#000000" stroke-width="1.1949" stroke-linecap="round" d="M411.906,213.552
		c-0.819-0.213-1.044-0.902-1.145-1.463c0.558-0.529,1.162-0.476,1.658-0.451C412.923,212.311,412.696,213.212,411.906,213.552"/>
	<path fill="none" stroke="#000000" stroke-width="0.7186" stroke-linecap="round" d="M375.616,251.999
		c-0.372-0.372,0.521-0.917,0.719-0.72C376.706,251.653,375.815,252.198,375.616,251.999z"/>
	<path fill="none" stroke="#000000" stroke-width="0.8207" stroke-linecap="round" d="M414.062,283.26
		c2.994,1.226,5.86,4.112,7.905,6.467"/>
	<path fill="none" stroke="#000000" stroke-width="0.7186" stroke-linecap="round" d="M432.747,313.442c0,0.24,0,0.479,0,0.719"/>
	<path fill="none" stroke="#000000" stroke-width="0.7186" stroke-linecap="round" d="M404.002,314.879c0,0.238,0,0.479,0,0.719"/>
	<path fill="none" stroke="#000000" stroke-width="1.3916" stroke-linecap="round" d="M382.802,387.101
		c0.504,0.611,0.549,0.993,0.719,1.438"/>
	<path fill="none" stroke="#000000" stroke-width="1.2855" stroke-linecap="round" d="M381.006,387.46
		c0.804-0.206,1.269-0.315,1.797-0.359"/>
	<path fill="none" stroke="#000000" stroke-width="1.6522" stroke-linecap="round" d="M382.802,387.101
		c0.21-0.467,0.603-1.163,1.077-1.796"/>
	<path fill="none" stroke="#000000" stroke-width="1.086" stroke-linecap="round" d="M446.043,397.881
		c-1.632-2.509,1.005-6.146,2.854-7.82c1.131-0.128,2.146,0.618,3.064,1.183c0.121,0.618,0.299,1.116,0.476,1.575
		c0.082,2.171-1.396,3.934-1.934,5.932C448.949,399.149,447.582,398.121,446.043,397.881"/>
	<path fill="none" stroke="#000000" stroke-width="0.7186" stroke-linecap="round" d="M380.646,389.976
		c0.576,2.73-3.398,0.914-5.03,1.438c-0.132-0.61,0.28-0.679,0.719-0.719c0.145-0.096,0.6,0.119,0.719,0
		c0.072-0.072-0.087-0.685,0-0.719C378.086,389.563,379.573,390.287,380.646,389.976z"/>
	<path fill="none" stroke="#000000" stroke-width="0.9859" stroke-linecap="round" d="M404.361,397.881
		c-0.188-0.301-0.317-0.654-0.444-1.012c0.519-1.172,1.43-3.221,3.015-3.599c1.376,0.922,2.616,4.289,2.432,6.391
		c-0.081,0.917-0.495,2.178-1.214,2.726c-0.889,0.205-1.738,0.087-2.2-0.232C405.393,400.701,404.799,399.345,404.361,397.881"/>
	<path fill="none" stroke="#000000" stroke-width="1.0296" stroke-linecap="round" d="M397.893,402.91
		c-0.212-0.29-0.27-0.697-0.318-1.11c0.736-1.207,1.786-2.561,3.178-3.011c2.105,0.514,3.097,3.077,3.014,4.98
		c-1.565,0.225-2.735,1.157-4.394,1.106C398.865,404.342,398.358,403.63,397.893,402.91"/>
	<path fill="none" stroke="#000000" stroke-width="1.2447" stroke-linecap="round" d="M358.728,98.931
		c0.238,0.043,0.479,0.199,0.719,0.359"/>
	<path fill="none" stroke="#000000" stroke-width="1.0779" stroke-linecap="round" d="M351.901,132.707
		c0.283,0.195,0.678,0.279,1.078,0.358"/>
	<path fill="none" stroke="#000000" stroke-width="0.9512" stroke-linecap="round" d="M351.901,132.707
		c-3.253,0.915-6.402-1.623-9.127-3.084c-0.665-0.145-1.433-0.066-2.088,0.077c-0.662,1.007,0.56,1.768,0.845,2.6
		c1.751,1.896,4.061,5.54,6.583,7.789c1.691,1.508,3.877,3.095,5.755,4.306c2.099,1.353,4.309,1.993,6.457,3.593
		c2.507,0.781,4.966,1.47,7.539,1.824c0.214,0.303,0.239,0.628,0.254,0.954c-2.773,2.739-5.916,4.759-7.808,8.337
		c-0.117,0.439-0.015,0.761,0.099,1.078c0.558,0.138,0.948-0.15,1.355-0.375c3.104-1.132,6.007-3.071,9.54-3.023"/>
	<path fill="none" stroke="#000000" stroke-width="1.0779" stroke-linecap="round" d="M371.304,156.781
		c0.035-0.119,0.07-0.24,0.105-0.36c0.543-0.32,1.514-0.31,2.41-0.357"/>
	<path fill="none" stroke="#000000" stroke-width="0.909" stroke-linecap="round" d="M373.82,156.063
		c-0.021-0.74,0.164-1.272,0.359-1.797"/>
	<path fill="none" stroke="#000000" stroke-width="2.0446" stroke-linecap="round" d="M374.178,154.266
		c-1.824-2.388-0.64-5.461-1.283-8.162"/>
	<path fill="none" stroke="#000000" stroke-width="1.7145" stroke-linecap="round" d="M372.895,146.104
		c-0.726-1.684-1.407-3.531-1.711-5.373"/>
	<path fill="none" stroke="#000000" stroke-width="1.2634" stroke-linecap="round" d="M371.184,140.732
		c-0.094-0.024-0.188-0.051-0.28-0.077c-1.209-2.829-1.386-9.172,1.766-10.894"/>
	<path fill="none" stroke="#000000" stroke-width="1.6308" stroke-linecap="round" d="M372.67,129.761
		c0.605-2.651,1.546-5.228,2.229-7.833"/>
	<path fill="none" stroke="#000000" stroke-width="1.0779" stroke-linecap="round" d="M374.897,121.927
		c0.23-0.488,0.438-0.999,0.719-1.438"/>
	<path fill="none" stroke="#000000" stroke-width="0.9641" stroke-linecap="round" d="M375.616,120.49
		c0.797-1.926,1.771-4.604,4.132-5.029"/>
	<path fill="none" stroke="#000000" stroke-width="1.0098" stroke-linecap="round" d="M401.367,111.268
		c4.467-1.804,9.733-2.403,14.492-1.557"/>
	<path fill="none" stroke="#000000" stroke-width="1.0163" stroke-linecap="round" d="M415.859,109.711
		c4.996-1.015,11.229-3.553,15.45,0.358"/>
	<path fill="none" stroke="#000000" stroke-width="0.8034" stroke-linecap="round" d="M431.309,110.071
		c0.761-0.042,1.109,0.328,1.438,0.719"/>
	<path fill="none" stroke="#000000" stroke-width="0.8034" stroke-linecap="round" d="M432.747,110.789
		c1.128-0.224,2.634,0.177,2.874,1.438"/>
	<path fill="none" stroke="#000000" stroke-width="0.7945" stroke-linecap="round" d="M435.621,112.226
		c1.54-0.151,2.5,1.419,3.234,2.516"/>
	<path fill="none" stroke="#000000" stroke-width="1.0578" stroke-linecap="round" d="M445.323,126.24
		c0.157,0.083,0.313,0.165,0.472,0.248c1.086,1.463,1.476,5.154,1.972,7.398c0.338,1.528,0.549,3.652-1.005,4.571"/>
	<path fill="none" stroke="#000000" stroke-width="1.0751" stroke-linecap="round" d="M446.161,143.606
		c-0.082,2.225,2.265,5.211,0.24,7.066"/>
	<path fill="none" stroke="#000000" stroke-width="0.9661" stroke-linecap="round" d="M446.881,154.385
		c3.221,0.063,5.689,1.921,8.472,3.279c0.448-0.562,0.179-1.276-0.175-1.763c-0.042-0.433-0.195-0.757-0.354-1.076
		c-0.675-0.522-1.065-1.329-1.44-2.151c-0.385-0.384-0.52-0.88-0.675-1.259c5.617-2.695,12.351-2.691,18.237-3.661
		c-0.021-0.301-0.171-0.574-0.326-0.845c-0.579-0.121-0.971-0.446-1.384-0.747c-0.619-0.099-1.01-0.428-1.426-0.729
		c-1.238,0.041-1.856-0.538-2.365-1.228"/>
	<path fill="none" stroke="#000000" stroke-width="1.2096" stroke-linecap="round" d="M465.444,144.205
		c-0.876,0.017-2.091-0.017-2.635-0.755c0.027-0.305,0.176-0.581,0.329-0.856c1.037-0.248,1.678-0.519,2.306-0.544"/>
	<path fill="none" stroke="#000000" stroke-width="0.9963" stroke-linecap="round" d="M465.444,142.049
		c0.084-0.155,0.169-0.312,0.253-0.466c3.734-3.902,9.629-5.779,12.853-10.146c0.422-0.572,0.738-1.739,2.164-2.151
		c0.171-0.348,0.313-0.613,0.456-0.875c-0.462-0.352-1.561-0.349-2.314-0.259c-3.114,1.268-6.702,1.692-9.97,1.808
		c0.41-2.288,2.373-3.46,3.611-5.178c0.159-0.222,1.8-1.663,2.196-2.833c1.144-3.368,3.567-7.457,5.286-12.036
		c0.049-0.129,0.509-0.127,0.576-0.289c1.288-3.14,1.936-6.526,1.374-9.726c-8.235,4.672-18.212,5.166-27.402,3.482
		c-0.157-0.322-0.368-0.59-0.581-0.856"/>
	<path fill="none" stroke="#000000" stroke-width="1.3916" stroke-linecap="round" d="M453.946,102.525
		c-0.358-0.021-0.719,0.164-1.078,0.359"/>
	<path fill="none" stroke="#000000" stroke-width="0.955" stroke-linecap="round" d="M453.946,102.525
		c1.953-1.693,4.907-3.124,8.364-3.852c1.705-0.359,3.564,0.235,5.535-0.215c0.638-0.146,1.289-0.761,1.911-0.963"/>
	<path fill="none" stroke="#000000" stroke-width="0.9161" stroke-linecap="round" d="M469.758,97.494
		c-0.083-0.157-0.165-0.314-0.248-0.472c-6.69-4.168-14.935-4.662-22.748-5.277"/>
	<path fill="none" stroke="#000000" stroke-width="0.9818" stroke-linecap="round" d="M446.76,91.745
		c-1.288,1.112-2.919,1.891-4.672,1.796"/>
	<path fill="none" stroke="#000000" stroke-width="0.9565" stroke-linecap="round" d="M446.76,91.745
		c1.247-2.587,4.833-2.197,6.587-4.433"/>
	<path fill="none" stroke="#000000" stroke-width="0.9334" stroke-linecap="round" d="M453.347,87.314
		c-0.081-0.124-0.161-0.248-0.242-0.372c-4.339-0.229-8.691,0.697-12.609,2.153c-0.443,0.111-0.769,0.007-1.087-0.107
		c-0.484-1.108,0.906-1.694,1.404-2.47c2.838-0.808,5.521-3.165,7.188-5.533c-5.767-0.545-10.92,3.055-15.614,6.449"/>
	<path fill="none" stroke="#000000" stroke-width="0.909" stroke-linecap="round" d="M432.387,87.433
		c-0.21,0.509-0.604,0.835-1.078,1.078"/>
	<path fill="none" stroke="#000000" stroke-width="0.9277" stroke-linecap="round" d="M432.387,87.433
		c-0.225-0.479-0.493-1.053-0.838-1.557"/>
	<path fill="none" stroke="#000000" stroke-width="1.0659" stroke-linecap="round" d="M431.551,85.877
		c-0.128,0.029-0.256,0.061-0.383,0.091c-0.344,0.068-0.603,0.025-0.856-0.023c-1.075-1.729-1.766-6.185-3.5-8.024
		c-0.462-0.489-1.321-0.604-1.776-1.088c-1.026-1.094-1.215-2.789-3.426-3.053"/>
	<path fill="none" stroke="#000000" stroke-width="0.9886" stroke-linecap="round" d="M421.608,73.78
		c0.482,3.501,3.235,7.008,2.568,10.642c-2.319,0.105-1.794-2.137-4.628-3.957c-1.552-0.998-4.848-2.754-7.079-4.732
		c-2.845-0.174-5.006-2.013-7.896-2.883c-0.8-0.241-1.831-0.065-2.615-0.26c-0.992-0.244-2.032-0.986-3.088-1.225
		c-1.486-0.334-2.802-0.248-4.93-0.673c-3.252-0.647-6.317-0.637-9.104,1.053"/>
	<path fill="none" stroke="#000000" stroke-width="0.9451" stroke-linecap="round" d="M384.838,71.743
		c0.026,0.094,0.052,0.187,0.077,0.28c4.057,2.072,9.459,3.809,12.259,7.864"/>
	<path fill="none" stroke="#000000" stroke-width="1.1236" stroke-linecap="round" d="M397.175,79.888
		c1.037,0.544,1.97,1.519,3.234,1.438"/>
	<path fill="none" stroke="#000000" stroke-width="0.9195" stroke-linecap="round" d="M397.175,79.888
		c-2.197,0.503-5.376-1.046-6.972-1.292c-1.93-0.296-3.527,0.009-5.378-0.371c-9.574-1.964-22.025,1.747-31.991,5.11
		c-1.154,0.493-3.23-0.542-3.782,0.895c3.86,4.076,8.151,8.026,13.271,10.03"/>
	<path fill="none" stroke="#000000" stroke-width="1.2214" stroke-linecap="round" d="M384.838,71.743
		c-1.063-0.066-2.024-0.594-3.113-0.479"/>
	<path fill="none" stroke="#000000" stroke-width="1.7811" stroke-linecap="round" d="M421.608,73.78
		c-1.074-0.643-1.271-1.148-2.156-2.155"/>
	<path fill="none" stroke="#000000" stroke-width="1.5686" stroke-linecap="round" d="M431.551,85.877
		c0.538-2.189-0.093-4.464,0.119-6.708"/>
	<path fill="none" stroke="#000000" stroke-width="1.2025" stroke-linecap="round" d="M453.347,87.314
		c0.313,0.104,0.916-0.168,1.677-0.238"/>
	<path fill="none" stroke="#000000" stroke-width="1.1839" stroke-linecap="round" d="M469.758,97.494
		c0.483,0.05,1.375,0.352,2.515,0.358"/>
	<path fill="none" stroke="#000000" stroke-width="1.2675" stroke-linecap="round" d="M467.6,143.487
		c1.12-0.175,2.106,0.514,3.233,0.359"/>
	<path fill="none" stroke="#000000" stroke-width="1.2447" stroke-linecap="round" d="M447.478,160.734
		c0.696,0.959,0.867,1.472,1.078,2.516"/>
	<path fill="none" stroke="#000000" stroke-width="0.9277" stroke-linecap="round" d="M417.296,180.855
		c0.231,0.488,0.438,0.999,0.72,1.438"/>
	<path fill="none" stroke="#000000" stroke-width="0.937" stroke-linecap="round" d="M418.015,182.292
		c0.896,0.868,2.84-0.396,3.233,1.078"/>
	<path fill="none" stroke="#000000" stroke-width="1.2227" stroke-linecap="round" d="M421.249,183.37c0.239,0,0.479,0,0.719,0.001
		c2.031,1.227,0.476,4.309,1.797,6.106"/>
	<path fill="none" stroke="#000000" stroke-width="1.1427" stroke-linecap="round" d="M423.764,189.479
		c6.586,2.58,12.715,7.721,12.576,15.45"/>
	<path fill="none" stroke="#000000" stroke-width="0.8731" stroke-linecap="round" d="M436.341,204.929
		c2.939,1.72,3.263,5.288,5.029,7.905"/>
	<path fill="none" stroke="#000000" stroke-width="1.0713" stroke-linecap="round" d="M441.37,212.834
		c0.525,0.355,0.873,0.615,1.214,0.869c1.34,3.397,3.702,6.754,3.599,10.418c-0.236,0.237-0.456,0.496-0.676,0.754
		c-0.644,0.075-0.972,0.466-1.262,0.894"/>
	<path fill="none" stroke="#000000" stroke-width="0.8899" stroke-linecap="round" d="M444.245,225.769
		c0.115,1.214,0.242,1.927-0.209,2.679c-0.901,0.28-1.551,0.832-2.307,1.273"/>
	<path fill="none" stroke="#000000" stroke-width="1.1033" stroke-linecap="round" d="M441.729,229.722
		c0.895,2.952,2.186,6.297,2.516,9.701"/>
	<path fill="none" stroke="#000000" stroke-width="1.1199" stroke-linecap="round" d="M444.245,239.423
		c0.166,0.074,0.332,0.146,0.498,0.221c1.794,4.913,3.065,10.107,4.212,15.081c1.444,0.802,0.226,3.018,0.801,4.341"/>
	<path fill="none" stroke="#000000" stroke-width="1.1538" stroke-linecap="round" d="M449.756,259.066
		c1.876,0.651,3.941,0.608,5.777,1.411c0.407,0.33,0.858,0.55,1.161,0.884c-0.998,2.854-0.907,7.27-4.348,8.452
		c-0.183,0.324-0.271,0.591-0.356,0.854c0.799,0.722-0.174,1.703-0.01,2.859c0.27,1.891,0.989,3.836,1.175,7.178
		c0.502,9.028,1.159,16.616-4.524,20.589c-0.146,0.098-0.288,0.193-0.434,0.291"/>
	<path fill="none" stroke="#000000" stroke-width="0.9445" stroke-linecap="round" d="M448.197,301.584
		c0.29,1.396,1.176,3.134,0.175,4.446c-2.463,1.526-5.477,0.444-8.079,1.302"/>
	<path fill="none" stroke="#000000" stroke-width="1.2775" stroke-linecap="round" d="M440.294,307.332
		c0.596,3.078,1.156,6.239,1.681,9.396c3.822,5.593,4.438,12.72,6.344,19.229"/>
	<path fill="none" stroke="#000000" stroke-width="1.4959" stroke-linecap="round" d="M448.317,335.959
		c0.425,0.063,0.836,0.15,1.125,0.286c0.034,0.862,0.564,1.27,1.271,1.63"/>
	<path fill="none" stroke="#000000" stroke-width="0.8518" stroke-linecap="round" d="M450.714,337.875
		c3.443,0.879,6.746,1.676,9.182,4.473c0.167,0.847,0.174,1.809-0.062,2.494c-0.74,0.77-1.031,1.834-1.574,2.733"/>
	<path fill="none" stroke="#000000" stroke-width="1.0007" stroke-linecap="round" d="M458.26,347.575
		c0.681,1.224,1.691,2.327,3.025,2.724c0.528,0.82,1.11,1.667,1.254,2.654c-0.451,2.395-2.279,4.12-3.37,6.105
		c0.412,1.51,2.341,2.536,1.427,4.301c1.822,0.637,3.958,0.255,5.722,1.311c0.233,0.245,0.496,0.463,0.76,0.678
		c0.57,1.69-0.851,3.045-0.654,4.757c-0.396,0.367-1.143,0.737-1.695,1.187"/>
	<path fill="none" stroke="#000000" stroke-width="2.9043" stroke-linecap="round" d="M464.725,371.29c0,0.239,0,0.479,0,0.72"/>
	<path fill="none" stroke="#000000" stroke-width="1.6069" stroke-linecap="round" d="M464.725,372.01
		c0.283,0.282,0.678,0.678,1.078,1.078"/>
	<path fill="none" stroke="#000000" stroke-width="0.8516" stroke-linecap="round" d="M465.803,373.088
		c4.757,0.334,8.827,3.485,12.771,5.913c0.171,0.843,0.178,1.806-0.058,2.49c-0.328,0.39-0.541,0.896-0.856,1.297"/>
	<path fill="none" stroke="#000000" stroke-width="0.8503" stroke-linecap="round" d="M477.661,382.788
		c0.461,0.737,0.978,1.419,1.438,2.156"/>
	<path fill="none" stroke="#000000" stroke-width="1.1465" stroke-linecap="round" d="M479.098,384.946
		c1.414,0.16,2.944,0.836,3.593,2.155"/>
	<path fill="none" stroke="#000000" stroke-width="1.1808" stroke-linecap="round" d="M430.231,381.352
		c-0.503,3.691-0.931,7.52-1.077,11.139"/>
	<path fill="none" stroke="#000000" stroke-width="0.9441" stroke-linecap="round" d="M429.154,392.49
		c1.966,0.929,1.678,3.462,2.925,4.98c2.039,1.396,4.943,2.535,8.001,3.497c0.83,0.261,1.813,0.037,2.504,0.371
		c0.591,0.283,3.727,1.369,5.4,1.784c1.027,0.255,2.344,0.039,3.222,0.371c0.79,0.3,1.978,0.332,2.986,0.607
		c3.105,0.845,5.534,2.088,8.531,1.113c0.438-0.145,0.678-0.875,1.084-1.067c0.821-0.389,2.241-0.057,2.88-1.433
		c0.634-0.125,1.133-0.253,1.605-0.345c0.337,0.068,0.624,0.222,0.91,0.377c0.631,1.221,1.925,2.101,2.35,3.396"/>
	<path fill="none" stroke="#000000" stroke-width="1.108" stroke-linecap="round" d="M429.154,392.49
		c-0.276,3.256,1.255,6.48,0.935,9.848c2.608,2.074,6.243,2.817,9.485,3.447"/>
	<path fill="none" stroke="#000000" stroke-width="0.9667" stroke-linecap="round" d="M439.574,405.784
		c0.501-1.005,1.349-1.966,2.505-2.122c1.409,0.376,2.99,1.617,2.886,3.2"/>
	<path fill="none" stroke="#000000" stroke-width="1.0279" stroke-linecap="round" d="M444.965,406.864
		c5.483,1.782,11.622,2.617,17.485,3.114"/>
	<path fill="none" stroke="#000000" stroke-width="1.0378" stroke-linecap="round" d="M462.45,409.978
		c1.116-1.519,3.245-3.137,5.143-3.349c0.911,1.971,2.782,3.258,3.602,5.265"/>
	<path fill="none" stroke="#000000" stroke-width="0.9843" stroke-linecap="round" d="M471.193,411.894
		c0.035,0.12,0.07,0.241,0.106,0.361c6.85,1.507,25.754,5.331,33.239-0.433c2.371-1.825,5.53-5.604,4.022-9.631"/>
	<path fill="none" stroke="#000000" stroke-width="0.9488" stroke-linecap="round" d="M508.562,402.193
		c-3.253,1.905-6.143,4.129-9.153,5.938c-0.739,0.444-2.021,1.163-2.854,1.457c-0.972,0.343-2.354,0.048-3.218,0.375
		c-3.643,1.375-13.057,0.271-17.979-1.156c-0.11-0.032-0.109-0.446-0.212-0.506"/>
	<path fill="none" stroke="#000000" stroke-width="1.0819" stroke-linecap="round" d="M508.562,402.193
		c0.34-3.604-3.339-5.822-6.987-7.388c-3.854-1.653-7.736-2.542-10.619-3.751"/>
	<path fill="none" stroke="#000000" stroke-width="1.0336" stroke-linecap="round" d="M425.921,308.052
		c-2.103-0.818-4.518-0.037-6.716-0.464c-2.09-1.594-1.274-4.332-2.492-6.857c-0.7-1.456-0.969-5.684-2.009-8.055
		c-0.147-0.339-0.934-0.448-1.359-0.793"/>
	<path fill="none" stroke="#000000" stroke-width="1.076" stroke-linecap="round" d="M413.344,291.883
		c-0.575,4.915,1.807,9.951,1.212,14.868c-0.799,0.157-1.368,0.547-2.032,0.841c-1.653,0.063-3.312-0.048-4.57,1.179"/>
	<path fill="none" stroke="#000000" stroke-width="1.1603" stroke-linecap="round" d="M407.954,308.771
		c-0.597,3.083,0.791,5.843,1.694,8.366c0.323,0.902,0.221,1.68,0.5,2.265c0.071,0.15,0.46,0.141,0.516,0.3
		c2.17,6.267,3.523,12.268,3.398,19.252"/>
	<path fill="none" stroke="#000000" stroke-width="1.1572" stroke-linecap="round" d="M414.062,338.952
		c0.349,0.219,0.282,1.501,0.526,1.956c2.174,0.385,4.1,1.589,5.894,2.764c0.623,0.6,0.957,1.512,1.094,2.096
		c0.404,2.933-3.803,4.003-2.745,6.799c0.941,0.989,2.198,1.061,2.962,2.012c2.211,2.756,1.207,6.648-1.313,9.118
		c-0.104,0.138-0.207,0.272-0.312,0.408"/>
	<path fill="none" stroke="#000000" stroke-width="1.0066" stroke-linecap="round" d="M420.171,364.105
		c0.244,0.783,1.495,1.373,2.303,1.957c0.883,1.902-0.685,3.438-0.864,5.229"/>
	<path fill="none" stroke="#000000" stroke-width="1.3691" stroke-linecap="round" d="M421.608,371.29
		c1.834,2.895,1.514,6.744,1.257,10.062"/>
	<path fill="none" stroke="#000000" stroke-width="1.3298" stroke-linecap="round" d="M422.865,381.352
		c1.143,3.896,1.935,7.995,1.498,12.098"/>
	<path fill="none" stroke="#000000" stroke-width="1.6447" stroke-linecap="round" d="M424.363,393.448
		c0.879,2.634,1.885,5.675,0.479,8.384"/>
	<path fill="none" stroke="#000000" stroke-width="1.0422" stroke-linecap="round" d="M424.843,401.832
		c-0.162,3.783-4.469,4.788-7.546,5.391"/>
	<path fill="none" stroke="#000000" stroke-width="0.9277" stroke-linecap="round" d="M417.296,407.223
		c-0.281,0.196-0.677,0.28-1.078,0.358"/>
	<path fill="none" stroke="#000000" stroke-width="0.9531" stroke-linecap="round" d="M417.296,407.223
		c-0.375-0.854-0.954-2.342-2.142-2.021c-1.274,1.281-1.405,3.104-2.698,4.367c-7.375,2.002-14.293,4.684-21.402,7.341
		c-0.208,0.077-0.492-0.048-0.705,0.016"/>
	<path fill="none" stroke="#000000" stroke-width="0.9411" stroke-linecap="round" d="M346.871,410.816
		c-0.085-0.157-0.171-0.313-0.257-0.472c0.713-4.934,5.38-7.01,9.388-9.081c0.53-0.274,1.305-0.148,1.787-0.369
		c2.987-1.364,6.144-4.009,9.204-4.091"/>
	<path fill="none" stroke="#000000" stroke-width="1.1826" stroke-linecap="round" d="M366.992,396.803
		c1.014-2.462,3.063-3.608,5.39-4.313"/>
	<path fill="none" stroke="#000000" stroke-width="1.3026" stroke-linecap="round" d="M372.382,392.49
		c0.03-1.409,1.779-1.226,1.977-2.515"/>
	<path fill="none" stroke="#000000" stroke-width="0.8894" stroke-linecap="round" d="M393.222,310.568
		c-3.028-0.146-6.171,0.291-9.127-0.216c-0.238-0.24-0.504-0.455-0.77-0.669c-0.296-2.549,0.195-5.229-0.525-7.739"/>
	<path fill="none" stroke="#000000" stroke-width="1.1114" stroke-linecap="round" d="M382.802,301.944
		c-1.23,0.112-2.442-0.062-3.594-0.458c-1.926-7.714-0.64-16.157-1.078-23.975"/>
	
		<line fill="none" stroke="#000000" stroke-width="2.1559" stroke-linecap="round" x1="378.131" y1="277.511" x2="378.131" y2="277.511"/>
	<path fill="none" stroke="#000000" stroke-width="0.9238" stroke-linecap="round" d="M369.508,278.229
		c-3.649,0.386-6.654-2.222-9.171-4.481c-0.104-0.613-0.435-1.002-0.739-1.416c-0.142-0.661-0.064-1.27,0.069-1.795
		c0.441-0.51,0.932-0.979,1.39-1.479c1.412-0.68,2.889-1.053,4.5-1.249"/>
	<path fill="none" stroke="#000000" stroke-width="0.8715" stroke-linecap="round" d="M365.555,267.809
		c0.315-0.642,0.813-1.103,1.24-1.634c0.41-0.092,0.849-0.119,1.287-0.145c0.657,0.487,1.723,0.614,2.623,1.18"/>
	<path fill="none" stroke="#000000" stroke-width="0.998" stroke-linecap="round" d="M370.705,267.21
		c0.093-0.025,0.188-0.051,0.28-0.077c1.118-1.506-0.842-8.014,0.074-12.504c0.429-0.529,0.525-1.392,0.604-2.271"/>
	<path fill="none" stroke="#000000" stroke-width="0.8669" stroke-linecap="round" d="M368.429,243.375
		c-5.236-5.196-10.282-10.354-14.731-16.168"/>
	<path fill="none" stroke="#000000" stroke-width="0.7981" stroke-linecap="round" d="M378.49,236.908
		c-3.524-3.429-7.834-6.084-10.779-10.062"/>
	<path fill="none" stroke="#000000" stroke-width="1.0163" stroke-linecap="round" d="M367.711,226.847
		c-0.509-0.21-0.835-0.603-1.078-1.078"/>
	<path fill="none" stroke="#000000" stroke-width="0.8878" stroke-linecap="round" d="M367.711,226.847
		c0.865-1.714,2.742-2.609,3.594-4.312"/>
	<path fill="none" stroke="#000000" stroke-width="0.7714" stroke-linecap="round" d="M371.304,222.535
		c-1.813-2.938-3.612-5.918-6.468-7.905"/>
	<path fill="none" stroke="#000000" stroke-width="0.9" stroke-linecap="round" d="M364.837,214.631
		c-3.382,3.104-7.512,5.488-10.42,8.982"/>
	<path fill="none" stroke="#000000" stroke-width="1.0841" stroke-linecap="round" d="M366.274,213.194
		c-0.012-0.695-0.027-1.542,0.105-2.129c2.438-1.629,3.864-4.965,7.08-5.057"/>
	<path fill="none" stroke="#000000" stroke-width="0.9906" stroke-linecap="round" d="M373.46,206.007
		c2.186-2.062,4.507-4.727,7.726-5.03"/>
	<path fill="none" stroke="#000000" stroke-width="0.9793" stroke-linecap="round" d="M381.185,200.977
		c1.994-2.61,3.992-5.259,6.443-7.39c4.012-0.852,7.27-3.759,11.343-4.468"/>
	<path fill="none" stroke="#000000" stroke-width="0.9461" stroke-linecap="round" d="M398.971,189.119
		c0.239-1.654-0.614-3.709,0.719-5.03"/>
	<path fill="none" stroke="#000000" stroke-width="0.7537" stroke-linecap="round" d="M398.971,189.119
		c0.981,1.558,2.415,3.183,4.312,3.593"/>
	<path fill="none" stroke="#000000" stroke-width="1.1133" stroke-linecap="round" d="M384.958,221.817
		c0.965-2.272,0.767-4.87,1.438-7.186"/>
	<path fill="none" stroke="#000000" stroke-width="0.9277" stroke-linecap="round" d="M386.395,214.631
		c0.23-0.488,0.438-0.999,0.719-1.438"/>
	<path fill="none" stroke="#000000" stroke-width="1.3049" stroke-linecap="round" d="M387.114,213.194
		c-0.448-1.111-0.868-3.171,0.554-3.744c0.15-2.769,0.643-5.993,1.961-8.113"/>
	<path fill="none" stroke="#000000" stroke-width="1.0163" stroke-linecap="round" d="M389.989,212.834
		c0.12-0.688,0.702-1.372,1.242-1.993c0.4-0.077,0.836-0.121,1.272-0.163"/>
	<path fill="none" stroke="#000000" stroke-width="0.9066" stroke-linecap="round" d="M392.504,210.678
		c1.274-2.219,4.218-2.972,6.469-3.593"/>
	<path fill="none" stroke="#000000" stroke-width="0.8688" stroke-linecap="round" d="M398.971,207.085
		c0.255-0.556,0.85-0.497,1.248-0.471c0.269,0.84-0.5,1.034-1.248,1.188"/>
	<path fill="none" stroke="#000000" stroke-width="0.8721" stroke-linecap="round" d="M398.971,207.803
		c-0.072,0.241-0.145,0.482-0.217,0.723c-0.882,0.527-1.605,0.74-1.939,1.435"/>
	<path fill="none" stroke="#000000" stroke-width="0.7186" stroke-linecap="round" d="M392.504,210.678c0,0.24,0,0.479,0,0.719"/>
	<path fill="none" stroke="#000000" stroke-width="1.4373" stroke-linecap="round" d="M379.569,259.545
		c0.718-0.504,1.437-0.549,2.156-0.719"/>
	<path fill="none" stroke="#000000" stroke-width="0.9913" stroke-linecap="round" d="M437.058,257.389
		c-6.689,1.025-13.161,1.147-20.007,1.552c-0.287,0.018-0.599,0.477-0.934,0.505c-9.024,0.782-18.129-0.47-27.208-0.618"/>
	<path fill="none" stroke="#000000" stroke-width="1.4373" stroke-linecap="round" d="M434.303,228.284
		c-1.264-4.515-1.438-9.174-2.635-13.654"/>
	<path fill="none" stroke="#000000" stroke-width="0.9461" stroke-linecap="round" d="M431.67,214.631
		c-0.489,0.27-0.988,0.397-1.417,0.534c-1.257-0.447-2.677-1.573-2.535-3.049"/>
	<path fill="none" stroke="#000000" stroke-width="0.7186" stroke-linecap="round" d="M427.718,212.115
		c-0.086-0.393-0.397-0.561-0.72-0.719"/>
	<path fill="none" stroke="#000000" stroke-width="0.8034" stroke-linecap="round" d="M427.718,212.115
		c0.761-0.042,1.108,0.328,1.438,0.72"/>
	<path fill="none" stroke="#000000" stroke-width="1.0779" stroke-linecap="round" d="M431.309,209.241
		c0.156-2.45-0.148-4.836-0.719-7.188"/>
	<path fill="none" stroke="#000000" stroke-width="0.9008" stroke-linecap="round" d="M423.764,189.479
		c-4.071,3.313-9.371,4.048-14.373,5.03"/>
	<path fill="none" stroke="#000000" stroke-width="1.6069" stroke-linecap="round" d="M409.391,194.509
		c-0.114,0.837,0.177,2.122,0.719,2.875"/>
	
		<line fill="none" stroke="#000000" stroke-width="2.8745" stroke-linecap="round" x1="410.11" y1="197.384" x2="410.11" y2="197.384"/>
	<path fill="none" stroke="#000000" stroke-width="1.1308" stroke-linecap="round" d="M410.11,197.384
		c0.674-1.097,3.159-1.76,3.396-0.009C413.339,199.176,410.824,198.44,410.11,197.384"/>
	<path fill="none" stroke="#000000" stroke-width="1.4146" stroke-linecap="round" d="M410.11,197.384
		c-0.751,0.892-0.784,2.153-1.078,3.234"/>
	<path fill="none" stroke="#000000" stroke-width="0.8801" stroke-linecap="round" d="M409.391,194.509
		c-0.468-0.252-1.163-0.274-1.796-0.359"/>
	<path fill="none" stroke="#000000" stroke-width="1.0779" stroke-linecap="round" d="M405.08,185.167
		c-0.283-0.196-0.678-0.28-1.078-0.359"/>
	<path fill="none" stroke="#000000" stroke-width="0.8801" stroke-linecap="round" d="M405.439,182.652c-0.24,0-0.479,0-0.719,0"/>
	<path fill="none" stroke="#000000" stroke-width="0.9662" stroke-linecap="round" d="M371.304,156.781
		c-0.505,2.09-2.771,3.521-2.401,5.825c0.581,0.198,1.174-0.54,2.042-0.794"/>
	<path fill="none" stroke="#000000" stroke-width="0.9884" stroke-linecap="round" d="M351.901,132.707
		c-0.086-0.154-0.172-0.309-0.257-0.461c-0.642-1.534-2.52-1.95-3.503-2.955c-2.166-2.213-3.77-5.665-5.415-8.254
		c-0.172-0.271-0.604-0.308-0.751-0.566c-5.151-8.984-5.364-20.13-5.419-30.588c7.034,3.401,14.128,8.04,22.173,9.048"/>
	<path fill="none" stroke="#000000" stroke-width="0.8766" stroke-linecap="round" d="M358.728,98.931
		c0.001-0.321,0.002-0.643,0.004-0.964c-2.127-3.021-5.885-4.302-8.269-6.941"/>
	<path fill="none" stroke="#000000" stroke-width="1.2447" stroke-linecap="round" d="M350.464,91.027
		c-0.686-0.329-1.273-0.582-1.797-0.719"/>
	<path fill="none" stroke="#000000" stroke-width="0.8589" stroke-linecap="round" d="M350.464,91.027
		c0.867-0.449,2.169-0.416,2.516,0.359"/>
	<path fill="none" stroke="#000000" stroke-width="1.1544" stroke-linecap="round" d="M449.756,259.066
		c-3.55,1.767-7.886,0.566-11.618,1.558"/>
	<path fill="none" stroke="#000000" stroke-width="1.1917" stroke-linecap="round" d="M438.136,260.622
		c0.276,0.489,0.249,1.146,0.237,1.698c-0.406,0.372-0.722,0.526-0.956,0.816"/>
	<path fill="none" stroke="#000000" stroke-width="1.5244" stroke-linecap="round" d="M437.419,263.138
		c-0.02,1.034,0.021,1.835,0.119,2.396"/>
	<path fill="none" stroke="#000000" stroke-width="1.2177" stroke-linecap="round" d="M437.538,265.533
		c1.907,0.922,1.962,3.595,3.832,4.79"/>
	<path fill="none" stroke="#000000" stroke-width="0.9461" stroke-linecap="round" d="M441.37,270.324
		c1.616-1.256,3.857-0.508,5.749-0.72"/>
	<path fill="none" stroke="#000000" stroke-width="1.1808" stroke-linecap="round" d="M441.37,270.324
		c0.107,1.677,1.46,2.371,1.798,3.951"/>
	<path fill="none" stroke="#000000" stroke-width="0.8721" stroke-linecap="round" d="M443.168,274.277
		c1.199-0.746,2.515-1.23,3.951-1.077"/>
	<path fill="none" stroke="#000000" stroke-width="0.8624" stroke-linecap="round" d="M447.478,291.524
		c0.509-0.467,0.835-1.163,1.078-1.797"/>
	<path fill="none" stroke="#000000" stroke-width="0.8298" stroke-linecap="round" d="M447.839,294.758c0.479,0,0.959,0,1.438,0"/>
	<path fill="none" stroke="#000000" stroke-width="1.4892" stroke-linecap="round" d="M437.538,265.533
		c-1.719,1.705,0.383,4.173,0.239,6.229"/>
	<path fill="none" stroke="#000000" stroke-width="1.0163" stroke-linecap="round" d="M438.975,274.875
		c0.406,0.021,0.753,0.535,1.141,1.024c0.798,0.151,1.757,0.15,2.691,0.173"/>
	<path fill="none" stroke="#000000" stroke-width="1.4373" stroke-linecap="round" d="M442.807,276.073
		c0.324-0.483,0.311-1.229,0.358-1.797"/>
	<path fill="none" stroke="#000000" stroke-width="0.8976" stroke-linecap="round" d="M448.317,335.959
		c-1.271,3.186-12.624,1.796-16.647,1.557"/>
	<path fill="none" stroke="#000000" stroke-width="1.3221" stroke-linecap="round" d="M431.67,337.516
		c-0.777,0.959-0.595,2.153-0.887,2.673c-2.184,0.267-3.28,2.517-4.354,4.169c-0.109,2.506,1.73,4.867,3.802,6.094"/>
	<path fill="none" stroke="#000000" stroke-width="1.0578" stroke-linecap="round" d="M430.231,350.45
		c1.484-0.051,2.515,1.102,3.953,1.078"/>
	<path fill="none" stroke="#000000" stroke-width="1.1133" stroke-linecap="round" d="M430.231,350.45
		c-2.489,3.452-1.961,6.604,0.549,9.517c0.83,0.964,1.843,1.186,1.479,1.974c-2.713,1.669-2.117,4.932-0.471,7.075"/>
	<path fill="none" stroke="#000000" stroke-width="1.0963" stroke-linecap="round" d="M431.789,369.016
		c0.932,3.777,4.156,6.187,7.507,8.25c1.1,0.132,2.428,0.226,3.298-0.082c0.923-1.358,3.005-1.251,3.567-2.898"/>
	<path fill="none" stroke="#000000" stroke-width="0.9877" stroke-linecap="round" d="M446.161,374.284
		c-1.174-2.354-3.903-2.743-6.228-3.354"/>
	<path fill="none" stroke="#000000" stroke-width="1.4373" stroke-linecap="round" d="M446.161,374.284
		c1.087-0.557,2.615-0.257,3.234-1.557"/>
	<path fill="none" stroke="#000000" stroke-width="1.4192" stroke-linecap="round" d="M449.395,372.729
		c-0.431-1.825,1.688-2.209,1.317-3.952"/>
	<path fill="none" stroke="#000000" stroke-width="0.8801" stroke-linecap="round" d="M450.714,368.777
		c-5.182,0.636-9.786-1.309-14.373-2.875"/>
	<path fill="none" stroke="#000000" stroke-width="0.9595" stroke-linecap="round" d="M450.714,368.777
		c1.461-1.574,3.553-2.967,5.029-4.313"/>
	<path fill="none" stroke="#000000" stroke-width="1.2286" stroke-linecap="round" d="M458.26,347.575
		c-1.54-0.398-1.841,1.644-3.234,1.797"/>
	<path fill="none" stroke="#000000" stroke-width="0.9221" stroke-linecap="round" d="M450.714,337.875
		c0.024,0.955,0.044,1.927-0.22,2.881c-4.77,1.546-10.444,3.263-15.591,1.431"/>
	<path fill="none" stroke="#000000" stroke-width="1.1808" stroke-linecap="round" d="M448.197,301.584
		c-0.695-1.11-0.725-2.497-1.437-3.593"/>
	<path fill="none" stroke="#000000" stroke-width="1.125" stroke-linecap="round" d="M446.76,297.991
		c-0.156,0.084-0.313,0.167-0.468,0.251c-0.692,0.119-1.308,0.036-1.827-0.12c-1.358-7.904-5.235-14.888-5.817-22.705
		c-0.013-0.172,0.315-0.368,0.327-0.542"/>
	<path fill="none" stroke="#000000" stroke-width="1.5244" stroke-linecap="round" d="M438.975,274.875
		c-0.066-0.174-0.094-0.386-0.12-0.6"/>
	<path fill="none" stroke="#000000" stroke-width="0.8503" stroke-linecap="round" d="M438.855,274.277
		c-0.323-0.146-0.609-0.341-0.895-0.538c-0.117-0.813-0.133-1.345-0.185-1.977"/>
	<path fill="none" stroke="#000000" stroke-width="0.9335" stroke-linecap="round" d="M437.419,263.138
		c-8.927,1.453-18.308,2.047-27.668,2.156"/>
	<path fill="none" stroke="#000000" stroke-width="1.1461" stroke-linecap="round" d="M409.751,265.294
		c0.144,5.769-0.473,11.65,0.72,17.247"/>
	<path fill="none" stroke="#000000" stroke-width="1.0713" stroke-linecap="round" d="M414.062,338.952
		c-5.414,0.821-11.074,1.651-16.528,1.078"/>
	<path fill="none" stroke="#000000" stroke-width="1.515" stroke-linecap="round" d="M397.534,340.031
		c-0.461,0.215-0.876,0.89-1.437,1.438"/>
	<path fill="none" stroke="#000000" stroke-width="1.3724" stroke-linecap="round" d="M396.097,341.468
		c-0.324,1.029-0.37,1.833-0.309,2.424c3.189,1.425,6.985,0.786,10.369,0.451"/>
	<path fill="none" stroke="#000000" stroke-width="1.0592" stroke-linecap="round" d="M396.097,341.468
		c-2.156,0.082-6.585,1.737-8.124,3.97c-0.827,1.199-1.915,3.258-0.82,4.864c0.863,1.509,2.449,2.585,3.554,4.102"/>
	<path fill="none" stroke="#000000" stroke-width="0.8034" stroke-linecap="round" d="M390.707,354.404
		c1.013-0.042,1.383,0.328,1.796,0.719"/>
	<path fill="none" stroke="#000000" stroke-width="1.0588" stroke-linecap="round" d="M390.707,354.404
		c-2.096,3.506-1.862,7.901,2.362,9.516c0.199,1.419-1.281,2.436-1.645,3.779"/>
	<path fill="none" stroke="#000000" stroke-width="0.9277" stroke-linecap="round" d="M391.426,367.698
		c4.218,0.78,9.344,3.055,8.983,8.265"/>
	<path fill="none" stroke="#000000" stroke-width="0.9277" stroke-linecap="round" d="M409.751,377.4c0-0.239,0-0.479,0-0.719"/>
	<path fill="none" stroke="#000000" stroke-width="0.7664" stroke-linecap="round" d="M409.751,376.681
		c-1.164-2.13-4.368-2.498-5.749-4.313"/>
	<path fill="none" stroke="#000000" stroke-width="0.9157" stroke-linecap="round" d="M420.171,364.105
		c-3.373,2.515-5.889,4.056-10.923,4.887c-0.097,0.017-0.124,0.457-0.215,0.503"/>
	<path fill="none" stroke="#000000" stroke-width="0.984" stroke-linecap="round" d="M400.408,375.962
		c-1.498,1.268-3.285,2.823-5.39,3.233"/>
	<path fill="none" stroke="#000000" stroke-width="0.9629" stroke-linecap="round" d="M421.608,371.29
		c-1.247,0.499-1.374,1.997-2.004,3.026c-2.007,1.035-3.421,2.796-4.988,4.363c-0.783,0.195-1.787,0.035-2.35-0.563"/>
	<path fill="none" stroke="#000000" stroke-width="0.8298" stroke-linecap="round" d="M412.266,378.117
		c-1.396,0.113-2.104-0.122-2.516-0.719"/>
	<path fill="none" stroke="#000000" stroke-width="0.9769" stroke-linecap="round" d="M409.751,377.4
		c-3.063-0.68-6.043-3.974-9.342-1.438"/>
	<path fill="none" stroke="#000000" stroke-width="0.9347" stroke-linecap="round" d="M424.363,393.448
		c-0.177,0.04-0.395,0.126-0.615,0.214c-1.018,2.574-1.554,4.81-3.382,6.569c-0.874,0.841-2.023,1.271-3.595,2.156
		c-2.933,1.653-7.356,2.943-11.363,4.443c-1.496,0.561-2.862,0.858-4.313,1.444c-1.323,0.533-2.422,1.547-3.71,2.029
		c-0.762,0.284-1.828,0.169-2.5,0.374c-1.241,0.378-1.733,1.396-3.109,1.193c-2.186-0.928-4.303-2.266-6.787-2.319
		c-3.183,2.146-5.857,5.271-9.162,7.219c-1.932,0.237-3.351,0.055-4.655,0.376c-1.848,0.454-6.42,0.741-8.993-0.08
		c-2.143-0.684-4.733-1.436-6.835-2.507c-2.365-1.205-4.216-4.405-8.471-3.747"/>
	<path fill="none" stroke="#000000" stroke-width="1.0144" stroke-linecap="round" d="M346.871,410.816
		c-0.373,4.28,4.002,6.179,6.978,8.114c9.153,1.824,19.15,2.72,28.235-0.209"/>
	<path fill="none" stroke="#000000" stroke-width="1.1199" stroke-linecap="round" d="M382.084,418.721
		c0.495-2.069,2.599-3.26,3.423-5.211c0.849-0.151,1.429,0.104,1.922,0.192c1.133,0.899,2.452,1.8,2.92,3.222"/>
	<path fill="none" stroke="#000000" stroke-width="0.9877" stroke-linecap="round" d="M424.843,401.832
		c-0.728,0.039-1.299,0.103-1.874,0.069c-0.318-0.394-0.209-0.931-0.282-1.507"/>
	<path fill="none" stroke="#000000" stroke-width="0.9687" stroke-linecap="round" d="M422.865,381.352
		c-0.649-0.172-1.38-0.411-1.955-0.536c-0.34,0.062-0.624,0.222-0.905,0.387c-1.729,2.771-4.519,5.238-6.156,8.2
		c-0.581,0.137-0.972,0.469-1.381,0.786c-3.418-0.299-5.64-3.818-8.548-5.469c-0.886-0.118-1.856-0.128-2.791-0.129
		c-1.104,0.594-2.217,1.015-3.236,1.792"/>
	<path fill="none" stroke="#000000" stroke-width="1.3409" stroke-linecap="round" d="M397.893,386.383
		c0.098,1.759-0.143,3.514-0.579,5.175c-0.319,0.175-0.58,0.328-0.838,0.48c-0.862,0.1-2.14,0.084-2.896,0.094"/>
	<path fill="none" stroke="#000000" stroke-width="1.2111" stroke-linecap="round" d="M393.582,392.132
		c-0.993,2.993,0.799,6.371,0,9.342"/>
	<path fill="none" stroke="#000000" stroke-width="0.9277" stroke-linecap="round" d="M393.582,401.474
		c0.23,0.487,0.438,0.999,0.718,1.438"/>
	<path fill="none" stroke="#000000" stroke-width="1.1011" stroke-linecap="round" d="M393.582,401.474
		c-0.159,0.087-0.317,0.175-0.478,0.262c-0.463,0.095-0.787-0.017-1.105-0.137c-0.751-2.306-0.624-4.962-2.729-6.593"/>
	<path fill="none" stroke="#000000" stroke-width="1.0075" stroke-linecap="round" d="M394.3,402.91
		c-1.572,1.146-3.33,2.507-4.116,4.293c2.043,0.851,4.458-0.552,6.455-1.256C397.063,404.445,395.397,403.552,394.3,402.91"/>
	<path fill="none" stroke="#000000" stroke-width="0.8934" stroke-linecap="round" d="M374.178,388.537
		c1.463-0.456,1.674-1.836,2.275-2.993"/>
	<path fill="none" stroke="#000000" stroke-width="1.0163" stroke-linecap="round" d="M376.454,385.544
		c-0.04-0.508,0.224-1.028,0.428-1.481c0.435-0.097,1.018-0.146,1.608-0.195"/>
	<path fill="none" stroke="#000000" stroke-width="0.882" stroke-linecap="round" d="M384.599,378.837
		c-5.111-0.087-9.315,3.194-13.486,5.917c-0.127,0.631-0.256,1.13-0.347,1.604c0.155,0.667,0.656,1.124,1.062,1.659
		c0.873,0.084,1.712,0.203,2.352,0.521"/>
	<path fill="none" stroke="#000000" stroke-width="0.9896" stroke-linecap="round" d="M369.508,278.229
		c0.728,0.5,1.137,0.847,1.588,1.269c2.711,1.419,4.797-0.942,7.035-1.985"/>
	<path fill="none" stroke="#000000" stroke-width="0.933" stroke-linecap="round" d="M377.053,274.277
		c-2.26,1.863-5.341,1.952-7.546,3.952"/>
	<path fill="none" stroke="#000000" stroke-width="1.0303" stroke-linecap="round" d="M381.365,264.216
		c-0.66-0.299-1.65-0.267-2.299-0.575c-0.259-1.338-0.574-3.012,0.503-4.096"/>
	<path fill="none" stroke="#000000" stroke-width="1.1362" stroke-linecap="round" d="M379.569,259.545
		c-1.566-1.749-1.832-2.425-1.325-4.919c0.239-1.175,0.685-2.668,1.004-3.197c0.091-0.15,0.464-0.134,0.517-0.3
		c0.307-0.995,0.068-2.391,0.332-3.232c0.038-0.125,0.522-0.142,0.57-0.296c0.717-2.311,0.646-3.558,1.958-6.299
		c0.666-1.389,0.841-3.083,0.178-5.112"/>
	<path fill="none" stroke="#000000" stroke-width="0.9818" stroke-linecap="round" d="M382.802,236.19
		c-1.398-0.655-2.841,0.544-4.313,0.719"/>
	<path fill="none" stroke="#000000" stroke-width="0.9837" stroke-linecap="round" d="M378.49,236.908
		c-2.626,2.88-6.931,3.863-10.061,6.467"/>
	<path fill="none" stroke="#000000" stroke-width="0.914" stroke-linecap="round" d="M368.429,243.375
		c-0.645,1.462-2.279,2.133-2.85,3.63c0.005,1.529,0.779,2.788,1.934,3.755c1.026,0.17,2.249,0.146,3.432,0.161"/>
	<path fill="none" stroke="#000000" stroke-width="0.8887" stroke-linecap="round" d="M370.945,250.921
		c0.072-0.168,0.144-0.335,0.215-0.503c1.541,0.063,2.641-0.834,4.096-0.936"/>
	<path fill="none" stroke="#000000" stroke-width="0.7422" stroke-linecap="round" d="M370.945,250.921
		c0.086,0.479,0.396,0.958,0.718,1.438"/>
	<path fill="none" stroke="#000000" stroke-width="0.909" stroke-linecap="round" d="M371.663,252.359c0.479,0,0.958,0,1.438,0"/>
	<path fill="none" stroke="#000000" stroke-width="1.2447" stroke-linecap="round" d="M366.274,213.194
		c-0.986,0.326-1.368,0.851-1.438,1.438"/>
	<path fill="none" stroke="#000000" stroke-width="0.8867" stroke-linecap="round" d="M376.335,223.973
		c-2.875-4.008-6.793-7.117-10.061-10.779"/>
	<path fill="none" stroke="#000000" stroke-width="1.0012" stroke-linecap="round" d="M376.335,223.973
		c-0.279,0.703-0.922,1.052-1.411,1.231c-0.857-1.33-2.243-2.018-3.619-2.668"/>
	<path fill="none" stroke="#000000" stroke-width="1.1037" stroke-linecap="round" d="M382.802,236.19
		c0.204-0.203,0.408-0.405,0.612-0.608c0.301-4.509,1.769-9.317,1.543-13.765"/>
	<path fill="none" stroke="#000000" stroke-width="0.921" stroke-linecap="round" d="M384.958,221.817
		c-2.255,1.157-3.01,4.628-5.896,4.439c-0.924-0.774-1.645-1.739-2.728-2.283"/>
	<path fill="none" stroke="#000000" stroke-width="1.0479" stroke-linecap="round" d="M438.136,241.22
		c0.586,3.526,1.365,6.85,2.909,9.916c-0.116-0.23,2.386,2.534,1.534,4.594c-0.433,0.282-0.839,0.596-1.315,0.835
		c-1.486-0.062-2.837,0.34-4.206,0.824"/>
	<path fill="none" stroke="#000000" stroke-width="0.9277" stroke-linecap="round" d="M437.058,257.389
		c0.026,1.174,0.749,2.111,1.078,3.233"/>
	<path fill="none" stroke="#000000" stroke-width="0.8755" stroke-linecap="round" d="M444.245,239.423
		c-2.217-0.241-4.364,0.527-6.107,1.797"/>
	<path fill="none" stroke="#000000" stroke-width="0.8871" stroke-linecap="round" d="M441.729,229.722
		c-2.237-0.891-4.328,0.87-6.467,1.438"/>
	<path fill="none" stroke="#000000" stroke-width="1.1199" stroke-linecap="round" d="M435.262,231.159
		c0.214,3.529,1.23,7.045,2.874,10.061"/>
	<path fill="none" stroke="#000000" stroke-width="1.0049" stroke-linecap="round" d="M413.823,136.42
		c0.881,5.405,4.052,10.708,2.755,16.409"/>
	<path fill="none" stroke="#000000" stroke-width="1.5244" stroke-linecap="round" d="M416.578,152.829
		c0.043,0.281,0.198,0.677,0.359,1.077"/>
	<path fill="none" stroke="#000000" stroke-width="1.3518" stroke-linecap="round" d="M416.937,153.906
		c3.43-1.703,5.453-5.271,8.863-6.946"/>
	<path fill="none" stroke="#000000" stroke-width="1.2447" stroke-linecap="round" d="M425.802,146.96
		c-0.02-0.553,0.859-0.866,1.557-1.317"/>
	<path fill="none" stroke="#000000" stroke-width="1.9844" stroke-linecap="round" d="M416.937,153.906
		c0.245,1.051,0.776,1.7,1.148,2.114c0.438-0.099,0.945-0.245,1.366-0.316"/>
	<path fill="none" stroke="#000000" stroke-width="0.984" stroke-linecap="round" d="M419.452,155.703
		c0.209-0.51,0.322-1.116,0.571-1.591c0.465-0.27,0.828-0.44,1.225-0.565"/>
	<path fill="none" stroke="#000000" stroke-width="1.6069" stroke-linecap="round" d="M421.249,153.547
		c0.12-0.061,0.24-0.12,0.359-0.18"/>
	<path fill="none" stroke="#000000" stroke-width="1.009" stroke-linecap="round" d="M421.608,153.367
		c0.033-0.164,0.066-0.329,0.101-0.493c1.885-3.484,8.809-3.555,9.602,1.031"/>
	<path fill="none" stroke="#000000" stroke-width="1.4915" stroke-linecap="round" d="M421.608,153.367
		c0.651,0.054,1.376,0.285,1.967,0.857c0.211,0.889,0.188,2.174,0.069,2.795"/>
	<path fill="none" stroke="#000000" stroke-width="0.9793" stroke-linecap="round" d="M416.578,152.829
		c-1.352-0.121-0.636-1.876-1.797-2.156"/>
	<path fill="none" stroke="#000000" stroke-width="1.6853" stroke-linecap="round" d="M414.781,150.673
		c-0.479,0.043-0.958,0.199-1.437,0.358"/>
	<path fill="none" stroke="#000000" stroke-width="1.445" stroke-linecap="round" d="M413.344,151.031
		c0.563,3.114,0.308,6.235,0,9.343"/>
	<path fill="none" stroke="#000000" stroke-width="1.1259" stroke-linecap="round" d="M413.344,151.031
		c-1.205-1.03-0.236-2.774-1.078-3.951"/>
	<path fill="none" stroke="#000000" stroke-width="0.8801" stroke-linecap="round" d="M414.781,150.673c0-0.359,0-0.718,0-1.078"/>
	<path fill="none" stroke="#000000" stroke-width="1.0283" stroke-linecap="round" d="M403.642,137.019
		c1.18,4.896,0.108,11.265,3.593,15.091"/>
	<path fill="none" stroke="#000000" stroke-width="1.5244" stroke-linecap="round" d="M407.236,152.11
		c0.283-0.043,0.677-0.198,1.078-0.358"/>
	<path fill="none" stroke="#000000" stroke-width="1.4373" stroke-linecap="round" d="M408.313,151.751
		c-0.442-1.994-1.223-3.674-1.438-5.749"/>
	<path fill="none" stroke="#000000" stroke-width="1.968" stroke-linecap="round" d="M408.313,151.751
		c0.16,0.318,0.319,0.639,0.479,0.958"/>
	<path fill="none" stroke="#000000" stroke-width="1.3202" stroke-linecap="round" d="M409.751,155.344
		c0.204,0.034,0.409,0.068,0.613,0.103c0.472,0.54,0.37,1.457,0.825,2.054"/>
	<path fill="none" stroke="#000000" stroke-width="1.1346" stroke-linecap="round" d="M388.551,142.768
		c1.161,0.87,2.669,1.108,3.037,2.704c4.208,1.95,7.879,5.146,10.977,8.435"/>
	<path fill="none" stroke="#000000" stroke-width="0.909" stroke-linecap="round" d="M384.838,144.804
		c0.552,0.336,1.254,0.366,1.917,0.479"/>
	<path fill="none" stroke="#000000" stroke-width="0.8843" stroke-linecap="round" d="M388.91,171.872
		c2.94,7.012,11.018,6.911,16.888,9.701"/>
	<path fill="none" stroke="#000000" stroke-width="1.2328" stroke-linecap="round" d="M405.798,181.574
		c3.931,0.85,7.829,0.906,11.498-0.72"/>
	<path fill="none" stroke="#000000" stroke-width="0.9723" stroke-linecap="round" d="M417.296,180.855
		c2.242-1.734,5.557-1.62,7.701-3.798c3.229-0.11,7.346-4.968,8.441-7.689c0.027-0.068,0.227-0.067,0.267-0.131"/>
	<path fill="none" stroke="#000000" stroke-width="1.6492" stroke-linecap="round" d="M433.705,169.238
		c-0.021-1.951,1.355-3.465,1.916-5.27"/>
	<path fill="none" stroke="#000000" stroke-width="1.7603" stroke-linecap="round" d="M435.621,163.968
		c0.272-1.015,0.644-1.855,1.078-2.515"/>
	<path fill="none" stroke="#000000" stroke-width="1.4711" stroke-linecap="round" d="M436.699,161.452
		c-0.529-5.44,1.363-10.599,2.156-15.811"/>
	<path fill="none" stroke="#000000" stroke-width="1.4234" stroke-linecap="round" d="M438.855,145.642
		c2.055,0.925,3.218,2.373,4.313,4.313"/>
	<path fill="none" stroke="#000000" stroke-width="1.0163" stroke-linecap="round" d="M443.168,149.954
		c1.187-1.012,2.078,0.617,3.233,0.718"/>
	<path fill="none" stroke="#000000" stroke-width="1.0163" stroke-linecap="round" d="M374.178,154.266
		c0.467-0.252,1.162-0.273,1.797-0.358"/>
	<path fill="none" stroke="#000000" stroke-width="1.301" stroke-linecap="round" d="M379.748,149.236
		c0.336-2.569,3.396-2.942,5.09-4.432"/>
	<path fill="none" stroke="#000000" stroke-width="1.1772" stroke-linecap="round" d="M384.838,144.804
		c0.343-1.67,2.361-1.754,3.714-2.036"/>
	<path fill="none" stroke="#000000" stroke-width="0.9916" stroke-linecap="round" d="M388.551,142.768
		c4.002-3.641,9.716-5.053,15.092-5.749"/>
	<path fill="none" stroke="#000000" stroke-width="1.0299" stroke-linecap="round" d="M403.642,137.019
		c0.947-0.25,0.914-1.48,1.288-2.305c0.45-0.507,0.94-0.976,1.388-1.486c2.925-0.282,6.068,0.28,7.504,3.193"/>
	<path fill="none" stroke="#000000" stroke-width="0.9485" stroke-linecap="round" d="M413.823,136.42
		c0.09-0.027,0.18-0.054,0.271-0.081c6.578,0.9,13.398,2.116,18.804,5.919c2.263,0.326,4.589,1.531,5.958,3.384"/>
	<path fill="none" stroke="#000000" stroke-width="1.3916" stroke-linecap="round" d="M405.798,124.443
		c0.348-2.529-0.531-5.175,0-7.546"/>
	<path fill="none" stroke="#000000" stroke-width="1.2214" stroke-linecap="round" d="M405.798,116.897
		c-1.345-2.135-2.646-4.048-4.431-5.629"/>
	<path fill="none" stroke="#000000" stroke-width="0.994" stroke-linecap="round" d="M401.367,111.268
		c-7.007-3.374-16.497-1.881-21.619,4.192"/>
	<path fill="none" stroke="#000000" stroke-width="1.6069" stroke-linecap="round" d="M379.748,115.46
		c0.181,0.358,0.359,0.718,0.539,1.078"/>
	<path fill="none" stroke="#000000" stroke-width="0.9566" stroke-linecap="round" d="M380.287,116.538
		c4.822-3.288,12.506-6.917,17.606-2.516"/>
	<path fill="none" stroke="#000000" stroke-width="0.9874" stroke-linecap="round" d="M377.053,138.456
		c5.468,1.495,11.592,1.608,16.314-1.638c5.879-1.39,10.829-6.688,12.43-12.376"/>
	<path fill="none" stroke="#000000" stroke-width="1.0823" stroke-linecap="round" d="M381.365,132.707
		c0.156,0.083,0.313,0.167,0.467,0.251c4.876,1.127,9.84-3.25,13.884-5.189c2.59-1.242,6.28-6.333,5.065-11.152
		c-0.531-1.194-1.76-2.088-2.888-2.595"/>
	<path fill="none" stroke="#000000" stroke-width="0.8801" stroke-linecap="round" d="M373.82,156.063
		c-0.852,8.354,6.391,16.902,15.091,15.811"/>
	<path fill="none" stroke="#000000" stroke-width="1.1695" stroke-linecap="round" d="M388.91,171.872
		c0.031-1.002-0.627-1.313-0.947-1.813c-0.574-1.03-0.875-1.968-1.417-2.995c-0.312-0.59-1.209-0.925-1.448-1.679
		c-1.151-3.625-2.485-9.315-4.489-13.848c-0.213-0.078-0.367-0.188-0.518-0.298c-0.118-0.558-0.173-1.413-0.345-2.004"/>
	<path fill="none" stroke="#000000" stroke-width="1.0414" stroke-linecap="round" d="M379.748,149.236
		c-0.547-0.028-0.876,0.042-1.194,0.117c-1.038,1.418-2.837,2.544-2.578,4.554"/>
	<path fill="none" stroke="#000000" stroke-width="0.9582" stroke-linecap="round" d="M375.975,153.906
		c0.507,1.25,0.917,2.534,0.719,3.953"/>
	<path fill="none" stroke="#000000" stroke-width="1.0163" stroke-linecap="round" d="M376.694,157.859
		c0.53,0.104,0.625,0.98,0.718,1.796"/>
	<path fill="none" stroke="#000000" stroke-width="1.0163" stroke-linecap="round" d="M377.412,159.656
		c1.832,1.492,2.755,3.989,5.031,5.03"/>
	<path fill="none" stroke="#000000" stroke-width="1.0359" stroke-linecap="round" d="M411.188,124.443
		c4.388,9.063,17.271,15.725,27.8,12c0.735-0.26,1.596-0.566,2.382-0.503"/>
	<path fill="none" stroke="#000000" stroke-width="1.3531" stroke-linecap="round" d="M441.37,135.941
		c0.174-1.539,1.352-2.409,2.517-3.232"/>
	<path fill="none" stroke="#000000" stroke-width="1.0035" stroke-linecap="round" d="M443.885,132.707
		c0.648-2.166,1.08-4.228,1.438-6.469"/>
	<path fill="none" stroke="#000000" stroke-width="1.0458" stroke-linecap="round" d="M445.323,126.24
		c-0.253-2.034-0.901-3.805-1.438-5.748"/>
	<path fill="none" stroke="#000000" stroke-width="0.9277" stroke-linecap="round" d="M443.885,120.49
		c-0.487,0.231-0.999,0.438-1.438,0.72"/>
	<path fill="none" stroke="#000000" stroke-width="1.0163" stroke-linecap="round" d="M442.448,121.209
		c0.575,1.151,0.373,2.595,0.255,3.841c-0.268,0.304-0.801,0.525-1.333,0.83"/>
	<path fill="none" stroke="#000000" stroke-width="1.2653" stroke-linecap="round" d="M441.37,125.88
		c-0.95,1.991-2.477,4.501-5.029,4.312"/>
	<path fill="none" stroke="#000000" stroke-width="1.0779" stroke-linecap="round" d="M405.798,116.897
		c1.464-0.716,3.263-0.356,4.672,0.359"/>
	<path fill="none" stroke="#000000" stroke-width="1.0592" stroke-linecap="round" d="M410.469,117.257
		c1.748-2.458,3.215-5.264,5.39-7.545"/>
	<path fill="none" stroke="#000000" stroke-width="1.5413" stroke-linecap="round" d="M442.448,121.209
		c-0.578,0.063-0.653-0.77-0.838-1.318"/>
	<path fill="none" stroke="#000000" stroke-width="1.1362" stroke-linecap="round" d="M441.61,119.891
		c-0.583,0.048-0.913-0.813-0.958-1.916"/>
	<path fill="none" stroke="#000000" stroke-width="1.0163" stroke-linecap="round" d="M430.95,111.148
		c-3.749-1.194-7.967-1.757-11.755-0.264c-0.298,0.275-0.52,0.809-0.821,1.342"/>
	<path fill="none" stroke="#000000" stroke-width="1.0632" stroke-linecap="round" d="M418.374,112.226
		c6.232-0.766,12.404,0.332,17.783,3.781c0.369,0.636,0.476,1.104,0.542,1.609"/>
	<path fill="none" stroke="#000000" stroke-width="1.0779" stroke-linecap="round" d="M430.95,111.148
		c0.488,0.231,0.999,0.438,1.438,0.72"/>
	<path fill="none" stroke="#000000" stroke-width="0.9277" stroke-linecap="round" d="M431.309,110.071
		c-0.043,0.437-0.198,0.76-0.359,1.078"/>
	<path fill="none" stroke="#000000" stroke-width="0.9277" stroke-linecap="round" d="M432.747,110.789
		c-0.043,0.436-0.197,0.76-0.358,1.078"/>
	<path fill="none" stroke="#000000" stroke-width="0.969" stroke-linecap="round" d="M432.387,111.867
		c0.951,0.303,2.657,1.971,3.232,0.358"/>
	<path fill="none" stroke="#000000" stroke-width="0.8963" stroke-linecap="round" d="M376.335,122.646
		c-0.497,1.063-0.572,2.538,0,3.593"/>
	<path fill="none" stroke="#000000" stroke-width="1.2081" stroke-linecap="round" d="M376.335,126.24
		c2.206-1.177,1.476-5.196,4.671-5.39"/>
	<path fill="none" stroke="#000000" stroke-width="0.9715" stroke-linecap="round" d="M381.006,120.85
		c2.561-6.951,10.875-6.282,16.889-6.827"/>
	<path fill="none" stroke="#000000" stroke-width="1.0986" stroke-linecap="round" d="M418.374,112.226
		c-5.161,2.525-3.151,10.684,1.069,12.685c3.579,5.054,10.935,6.923,16.681,5.784c0.102-0.02,0.12-0.453,0.216-0.503"/>
	<path fill="none" stroke="#000000" stroke-width="1.1692" stroke-linecap="round" d="M436.341,130.192
		c-0.557-4.165-0.284-8.479,0.358-12.575"/>
	<path fill="none" stroke="#000000" stroke-width="1.0659" stroke-linecap="round" d="M441.849,117.496
		c-0.582-1.186-1.934-1.974-2.994-2.755"/>
	<path fill="none" stroke="#000000" stroke-width="0.8034" stroke-linecap="round" d="M438.855,114.741
		c-0.135,0.205-0.27,0.412-0.403,0.618c0.068,1.166,1.199,2.216,2.2,2.615"/>
	<path fill="none" stroke="#000000" stroke-width="0.9277" stroke-linecap="round" d="M375.616,120.49
		c0.488,0.231,0.999,0.438,1.438,0.72"/>
	<path fill="none" stroke="#000000" stroke-width="1.1561" stroke-linecap="round" d="M377.053,121.209
		c0.461-2.062,2.488-2.879,3.233-4.671"/>
	<path fill="none" stroke="#000000" stroke-width="1.2286" stroke-linecap="round" d="M405.798,124.443
		c1.848-0.376,3.52-0.126,5.391,0"/>
	<path fill="none" stroke="#000000" stroke-width="2.0951" stroke-linecap="round" d="M411.188,124.443
		c-0.626-2.352-0.851-4.75-0.719-7.187"/>
	<path fill="none" stroke="#000000" stroke-width="1.1362" stroke-linecap="round" d="M441.37,125.88
		c-2.375-2.187-1.143-6.829-4.671-8.264"/>
	<path fill="none" stroke="#000000" stroke-width="1.2025" stroke-linecap="round" d="M443.168,119.053
		c-0.337-0.976-0.866-1.352-1.317-1.557"/>
	<path fill="none" stroke="#000000" stroke-width="0.9277" stroke-linecap="round" d="M441.849,117.496
		c-0.348,0.262-0.771,0.374-1.197,0.479"/>
	<path fill="none" stroke="#000000" stroke-width="1.0779" stroke-linecap="round" d="M443.885,120.49
		c-0.23-0.487-0.438-0.998-0.72-1.438"/>
	<path fill="none" stroke="#000000" stroke-width="0.9277" stroke-linecap="round" d="M443.168,119.053
		c-0.48,0.224-1.055,0.493-1.558,0.838"/>
	<path fill="none" stroke="#000000" stroke-width="0.9277" stroke-linecap="round" d="M374.897,121.927
		c0.488,0.231,0.999,0.438,1.438,0.719"/>
	<path fill="none" stroke="#000000" stroke-width="1.0779" stroke-linecap="round" d="M376.335,122.646
		c0.23-0.487,0.438-0.999,0.719-1.437"/>
	<path fill="none" stroke="#000000" stroke-width="1.2917" stroke-linecap="round" d="M376.335,126.24
		c-0.882,3.343,1.379,6.951,5.03,6.469"/>
	<path fill="none" stroke="#000000" stroke-width="1.443" stroke-linecap="round" d="M381.365,132.707
		c0.082-3.751,0.242-8.02-0.359-11.857"/>
	<path fill="none" stroke="#000000" stroke-width="0.9161" stroke-linecap="round" d="M443.885,132.707
		c1.875,1.197,2.011,3.803,2.875,5.749"/>
	<path fill="none" stroke="#000000" stroke-width="1.301" stroke-linecap="round" d="M371.184,140.732
		c1.801-1.629,1.539-4.17,3.354-5.509"/>
	<path fill="none" stroke="#000000" stroke-width="1.1097" stroke-linecap="round" d="M374.538,135.222
		c-0.015-1.931-0.825-3.811-1.868-5.461"/>
	<path fill="none" stroke="#000000" stroke-width="1.0163" stroke-linecap="round" d="M441.37,135.941
		c1.867,2.407,2.912,5.236,4.791,7.666"/>
	<path fill="none" stroke="#000000" stroke-width="1.2052" stroke-linecap="round" d="M446.161,143.606
		c2.008-0.8,0.383-3.541,0.601-5.149"/>
	<path fill="none" stroke="#000000" stroke-width="1.0273" stroke-linecap="round" d="M372.895,146.104
		c0.56-0.23,0.898-0.378,1.229-0.521c0.848-2.437,2.071-4.722,2.93-7.127"/>
	<path fill="none" stroke="#000000" stroke-width="0.7945" stroke-linecap="round" d="M377.053,138.456
		c-0.978-1.009-0.996-2.839-2.516-3.234"/>
	<path fill="none" stroke="#000000" stroke-width="1.1917" stroke-linecap="round" d="M436.699,161.452
		c1.339,0.889,1.018,2.584,1.078,3.951"/>
	<path fill="none" stroke="#000000" stroke-width="1.2533" stroke-linecap="round" d="M437.777,165.405
		c2.804-1.823,2.59-5.54,5.086-7.567c0.931-2.537-0.919-5.364,0.305-7.882"/>
	<path fill="none" stroke="#000000" stroke-width="1.0367" stroke-linecap="round" d="M437.058,168.279
		c4.342-0.895,6.451-5.246,8.982-8.264"/>
	<path fill="none" stroke="#000000" stroke-width="1.5365" stroke-linecap="round" d="M446.043,160.015
		c-0.078-0.955-0.006-1.83,0.719-2.335"/>
	<path fill="none" stroke="#000000" stroke-width="1.5244" stroke-linecap="round" d="M446.76,157.679
		c-0.011-1.433-0.018-2.619,0.119-3.294"/>
	<path fill="none" stroke="#000000" stroke-width="0.8801" stroke-linecap="round" d="M446.881,154.385
		c-0.521-0.908-0.429-2.134-0.479-3.713"/>
	<path fill="none" stroke="#000000" stroke-width="1.1048" stroke-linecap="round" d="M376.694,157.859
		c-0.121,0.035-0.241,0.07-0.361,0.105c-0.381,0.631-0.258,1.496,0.04,1.796c0.265-0.063,0.649-0.085,1.04-0.105"/>
	<path fill="none" stroke="#000000" stroke-width="1.0779" stroke-linecap="round" d="M446.043,160.015
		c0.486,0.231,0.998,0.438,1.437,0.719"/>
	<path fill="none" stroke="#000000" stroke-width="1.0713" stroke-linecap="round" d="M447.478,160.734
		c0.337-0.646,0.333-1.634,0.247-2.41c-0.283-0.311-0.631-0.438-0.965-0.645"/>
	<path fill="none" stroke="#000000" stroke-width="1.1362" stroke-linecap="round" d="M435.621,163.968
		c0.72,0.461,1.438,0.876,2.156,1.437"/>
	
		<line fill="none" stroke="#000000" stroke-width="2.2725" stroke-linecap="round" x1="437.777" y1="165.405" x2="437.777" y2="165.405"/>
	<path fill="none" stroke="#000000" stroke-width="0.8913" stroke-linecap="round" d="M433.705,169.238
		c1.027,0.871,2.826,0.005,3.354-0.958"/>
	<path fill="none" stroke="#000000" stroke-width="1.1362" stroke-linecap="round" d="M437.058,168.279
		c0.021-1.231,0.305-1.818,0.719-2.875"/>
	<path fill="none" stroke="#000000" stroke-width="0.9277" stroke-linecap="round" d="M405.798,181.574
		c-0.195,0.281-0.279,0.677-0.358,1.077"/>
	<path fill="none" stroke="#000000" stroke-width="0.8801" stroke-linecap="round" d="M405.439,182.652
		c0.057,1.016-0.063,1.855-0.359,2.516"/>
	<path fill="none" stroke="#000000" stroke-width="0.9793" stroke-linecap="round" d="M405.08,185.167
		c4.052,1.996,8.759,0.828,12.936,0"/>
	<path fill="none" stroke="#000000" stroke-width="1.052" stroke-linecap="round" d="M418.015,185.167
		c1.209-0.188,2.919-0.359,3.233-1.796"/>
	<path fill="none" stroke="#000000" stroke-width="0.9008" stroke-linecap="round" d="M418.015,182.292
		c-0.42,0.837-0.369,2.122,0,2.875"/>
	<path fill="none" stroke="#000000" stroke-width="1.2855" stroke-linecap="round" d="M436.341,204.929
		c-0.246,1.998-2.281,2.591-2.874,4.313"/>
	<path fill="none" stroke="#000000" stroke-width="0.9251" stroke-linecap="round" d="M441.37,212.834
		c-0.723,0.927-0.797,2.348-1.824,2.999c-0.309-0.03-0.59-0.178-0.868-0.329c-0.507-1.83-0.522-3.906-1.783-5.379
		c-1.022-0.115-2.245-0.056-3.428-0.884"/>
	<path fill="none" stroke="#000000" stroke-width="1.5524" stroke-linecap="round" d="M433.467,209.241c-0.563,0-1.296,0-2.156,0"/>
	<path fill="none" stroke="#000000" stroke-width="1.1438" stroke-linecap="round" d="M431.309,209.241
		c-0.165,1.812,1.219,3.665,0.359,5.39"/>
	<path fill="none" stroke="#000000" stroke-width="1.2447" stroke-linecap="round" d="M434.303,228.284
		c0.386,0.837,0.541,2.121,0.959,2.875"/>
	<path fill="none" stroke="#000000" stroke-width="0.9549" stroke-linecap="round" d="M444.245,225.769
		c-3.617,0.063-6.379,2.393-9.94,2.516"/>
	<path fill="none" stroke="#000000" stroke-width="0.9409" stroke-linecap="round" d="M386.395,214.631
		c1.469,1.041,3.377-0.171,3.593-1.796"/>
	<path fill="none" stroke="#000000" stroke-width="1.1839" stroke-linecap="round" d="M389.989,212.834
		c-1.652,0.05-2.188,0.352-2.875,0.358"/>
	<path fill="none" stroke="#000000" stroke-width="1.3008" stroke-linecap="round" d="M393.222,310.568
		c-0.176,1.834,0.225,3.724,1.289,5.179c1.508,8.016,2.596,16.181,3.021,24.285"/>
	<path fill="none" stroke="#000000" stroke-width="0.9376" stroke-linecap="round" d="M407.954,308.771
		c-4.827-0.04-9.722,1.441-14.731,1.797"/>
	<path fill="none" stroke="#000000" stroke-width="1.682" stroke-linecap="round" d="M413.344,291.883
		c0.146-3.566-0.373-6.807-2.875-9.342"/>
	<path fill="none" stroke="#000000" stroke-width="1.0163" stroke-linecap="round" d="M410.469,282.541
		c-1.963,0.495-2.878-1.319-3.953-2.517"/>
	<path fill="none" stroke="#000000" stroke-width="0.8997" stroke-linecap="round" d="M406.517,280.026
		c-3.2-3.646-5.619-8.313-8.983-11.856"/>
	<path fill="none" stroke="#000000" stroke-width="1.0125" stroke-linecap="round" d="M405.439,265.294
		c-4.451-0.977-9.227-0.767-13.979-1.006c-3.415-0.174-6.956-1.045-10.096-0.072"/>
	<path fill="none" stroke="#000000" stroke-width="0.9008" stroke-linecap="round" d="M381.365,264.216
		c-0.42,0.837-0.369,2.122,0,2.874"/>
	<path fill="none" stroke="#000000" stroke-width="1.1165" stroke-linecap="round" d="M381.365,267.09
		c0.157,0.083,0.314,0.165,0.471,0.248c0.897,1.883-0.054,5.063-0.397,7.622c-0.087,0.645-0.08,1.379-0.792,2.19"/>
	<path fill="none" stroke="#000000" stroke-width="0.8801" stroke-linecap="round" d="M409.751,265.294c-1.438,0-2.875,0-4.312,0"/>
	<path fill="none" stroke="#000000" stroke-width="1.0414" stroke-linecap="round" d="M405.439,265.294
		c0.245,4.926,1.432,9.981,1.078,14.73"/>
	<path fill="none" stroke="#000000" stroke-width="0.9008" stroke-linecap="round" d="M377.053,274.277
		c0.33,0.809,0.227,2.074,1.077,3.234"/>
	<path fill="none" stroke="#000000" stroke-width="1.0578" stroke-linecap="round" d="M381.365,267.09
		c-3.47,0.925-1.982,5.372-4.312,7.187"/>
	<path fill="none" stroke="#000000" stroke-width="0.8801" stroke-linecap="round" d="M438.855,274.277
		c0.619-0.977-0.034-1.624-1.078-2.515"/>
	<path fill="none" stroke="#000000" stroke-width="0.8934" stroke-linecap="round" d="M446.76,297.991
		c0.321-0.156,0.608-0.35,0.895-0.542c0.16-0.799,0.159-1.758,0.184-2.691"/>
	<path fill="none" stroke="#000000" stroke-width="1.3968" stroke-linecap="round" d="M447.839,294.758
		c-0.334-1.047-0.404-2.131-0.359-3.234"/>
	<path fill="none" stroke="#000000" stroke-width="0.998" stroke-linecap="round" d="M447.478,291.524
		c-0.204-0.203-0.408-0.405-0.612-0.607c-0.945-5.037-2.896-9.847-4.059-14.843"/>
	<path fill="none" stroke="#000000" stroke-width="1.1862" stroke-linecap="round" d="M382.802,301.944
		c-1.182-8.189-0.58-16.706-2.156-24.792"/>
	<path fill="none" stroke="#000000" stroke-width="1.6069" stroke-linecap="round" d="M380.646,277.152
		c-0.634-0.058-1.606,0.062-2.516,0.359"/>
	<path fill="none" stroke="#000000" stroke-width="1.0598" stroke-linecap="round" d="M440.294,307.332
		c-4.733,0.597-9.705-0.036-14.373,0.72"/>
	<path fill="none" stroke="#000000" stroke-width="1.1127" stroke-linecap="round" d="M425.921,308.052
		c-0.07,0.951,0.217,1.271,0.737,1.523c3.738,8.784,2.321,18.974,5.012,27.939"/>
	<path fill="none" stroke="#000000" stroke-width="1.5244" stroke-linecap="round" d="M385.078,377.879
		c0.174-0.065,0.386-0.095,0.6-0.12"/>
	<path fill="none" stroke="#000000" stroke-width="0.9641" stroke-linecap="round" d="M385.677,377.759
		c0.526-1.222,0.22-2.722,1.267-3.771c3.808-2.659,7.8,1.446,8.076,5.207"/>
	<path fill="none" stroke="#000000" stroke-width="1.1718" stroke-linecap="round" d="M391.426,367.698
		c-1.978,0.399-3.943,0.734-5.896,1.29c-0.238,0.241-0.499,0.46-0.761,0.677c-0.628,2.616-1.144,5.789,0.309,8.215"/>
	<path fill="none" stroke="#000000" stroke-width="1.1199" stroke-linecap="round" d="M385.677,377.759
		c0.76,0.482,2.086,0.127,2.275,1.316"/>
	<path fill="none" stroke="#000000" stroke-width="1.5244" stroke-linecap="round" d="M387.952,379.075
		c0.174,0.065,0.385,0.095,0.599,0.12"/>
	<path fill="none" stroke="#000000" stroke-width="0.9008" stroke-linecap="round" d="M393.582,381.352
		c0.461-0.736,0.978-1.418,1.438-2.155"/>
	<path fill="none" stroke="#000000" stroke-width="0.9507" stroke-linecap="round" d="M412.266,378.117
		c-0.087-0.378-0.318-0.847-0.552-1.255c-0.59-0.122-1.286-0.143-1.964-0.183"/>
	<path fill="none" stroke="#000000" stroke-width="0.8589" stroke-linecap="round" d="M384.599,378.837c0,0.958,0,1.916,0,2.874"/>
	<path fill="none" stroke="#000000" stroke-width="0.8801" stroke-linecap="round" d="M384.599,381.711c0.719,0,1.437,0,2.155,0"/>
	<path fill="none" stroke="#000000" stroke-width="1.3761" stroke-linecap="round" d="M385.078,377.879
		c-0.063,0.274-0.255,0.627-0.479,0.958"/>
	<path fill="none" stroke="#000000" stroke-width="0.909" stroke-linecap="round" d="M390.707,379.197
		c-0.69-0.381-1.545-0.249-2.156,0"/>
	<path fill="none" stroke="#000000" stroke-width="1.0163" stroke-linecap="round" d="M388.551,379.197
		c0.278,0.682,0.914,1.002,1.438,1.438"/>
	<path fill="none" stroke="#000000" stroke-width="1.22" stroke-linecap="round" d="M397.893,386.383
		c-1.653-1.41-3.627-2.813-4.313-5.031"/>
	<path fill="none" stroke="#000000" stroke-width="1.0441" stroke-linecap="round" d="M393.582,381.352
		c-1.121-0.565-1.538-1.846-2.875-2.155"/>
	<path fill="none" stroke="#000000" stroke-width="0.9277" stroke-linecap="round" d="M390.707,379.197
		c-0.23,0.487-0.438,0.999-0.719,1.438"/>
	<path fill="none" stroke="#000000" stroke-width="0.8801" stroke-linecap="round" d="M389.989,380.634
		c1.352,2.424,2.759,4.822,3.234,7.545"/>
	<path fill="none" stroke="#000000" stroke-width="0.8801" stroke-linecap="round" d="M387.952,379.075
		c-0.39,0.225-0.698,0.438-1.003,0.649c-0.131,0.605-0.152,1.304-0.195,1.984"/>
	<path fill="none" stroke="#000000" stroke-width="1.5244" stroke-linecap="round" d="M374.178,388.537
		c-0.011,0.488,0.082,0.999,0.18,1.438"/>
	<path fill="none" stroke="#000000" stroke-width="0.9211" stroke-linecap="round" d="M374.358,389.976
		c3.313-2.089,6.63-4.832,9.163-7.905"/>
	<path fill="none" stroke="#000000" stroke-width="1.1692" stroke-linecap="round" d="M383.521,382.071
		c-1.95-0.874-3.389,1.178-5.03,1.797"/>
	<path fill="none" stroke="#000000" stroke-width="0.9699" stroke-linecap="round" d="M372.382,392.49
		c3.43-0.443,6.571,1.551,9.849,1.221c1.596-2.061,4.128-3.951,6.859-4.453"/>
	<path fill="none" stroke="#000000" stroke-width="1.5567" stroke-linecap="round" d="M389.27,386.383
		c-0.668-1.45-0.916-4.055-2.516-4.672"/>
	<path fill="none" stroke="#000000" stroke-width="1.0779" stroke-linecap="round" d="M384.599,381.711
		c-0.437,0.043-0.761,0.198-1.078,0.358"/>
	<path fill="none" stroke="#000000" stroke-width="1.1643" stroke-linecap="round" d="M376.454,385.544
		c0.336,0.126,0.95-0.132,1.498-0.437c0.25-0.478,0.42-0.84,0.539-1.241"/>
	<path fill="none" stroke="#000000" stroke-width="0.8801" stroke-linecap="round" d="M390.707,387.82
		c-0.277-0.681-0.914-1.002-1.438-1.437"/>
	<path fill="none" stroke="#000000" stroke-width="0.909" stroke-linecap="round" d="M389.27,386.383
		c-0.38,0.689-0.249,1.545,0,2.154"/>
	<path fill="none" stroke="#000000" stroke-width="0.909" stroke-linecap="round" d="M393.582,392.132
		c-0.513-0.207-1.117-0.32-1.578-0.579c-0.754-1.17-0.832-2.438-1.297-3.733"/>
	<path fill="none" stroke="#000000" stroke-width="0.9277" stroke-linecap="round" d="M390.707,387.82
		c-0.487,0.231-0.999,0.438-1.438,0.719"/>
	<path fill="none" stroke="#000000" stroke-width="1.5244" stroke-linecap="round" d="M389.27,388.537
		c-0.021,0.239-0.1,0.479-0.181,0.72"/>
	<path fill="none" stroke="#000000" stroke-width="0.937" stroke-linecap="round" d="M366.992,396.803c0,0.24,0,0.48-0.001,0.723
		c0.999,1.684,2.989,0.189,4.053,0.095c3.321-0.296,6.411-0.223,9.736-0.323c-0.561,0.017,2.82-0.233,3.815-0.497
		c0.822-0.218,1.589-1.01,2.309-1.284c0.797-0.304,1.792-0.016,2.365-0.509"/>
	<path fill="none" stroke="#000000" stroke-width="1.0977" stroke-linecap="round" d="M389.27,395.006
		c0.795-1.82,0.211-3.895-0.181-5.749"/>
	<path fill="none" stroke="#000000" stroke-width="0.7186" stroke-linecap="round" d="M398.971,207.085c0,0.239,0,0.479,0,0.718"/>
	<path fill="none" stroke="#000000" stroke-width="1.064" stroke-linecap="round" d="M373.46,206.007
		c0.498,0.79,0.099,2.188,0.239,3.026c1.78,0.542,2.696-1.583,3.874-2.507c1.689-0.209,3.431-0.125,5.034-0.687
		c0.701-1.846-1.631-2.979-1.422-4.863"/>
	<path fill="none" stroke="#000000" stroke-width="0.9892" stroke-linecap="round" d="M365.555,267.809
		c1.191,0.743,2.274,1.458,3.577,1.967c0.335-0.058,0.621-0.214,0.904-0.375c0.242-1.052,0.506-1.696,0.668-2.189"/>
	<path fill="none" stroke="#000000" stroke-width="0.9174" stroke-linecap="round" d="M382.084,418.721
		c2.392,0.839,6.459-0.784,8.265-1.797"/>
	<path fill="none" stroke="#000000" stroke-width="0.8983" stroke-linecap="round" d="M455.385,374.885
		c-1.196-0.306-0.981-1.734-1.961-2.353c-1.354-0.412-2.691,0.042-4.027,0.195"/>
	<path fill="none" stroke="#000000" stroke-width="1.0449" stroke-linecap="round" d="M431.789,369.016
		c-0.39,0.224-0.697,0.437-1.003,0.648c-0.334,3.854-1.609,7.862-0.555,11.688"/>
	<path fill="none" stroke="#000000" stroke-width="0.979" stroke-linecap="round" d="M430.231,381.352
		c3.808-3.156,6.291,3.362,9.149,5.234c4.057,0.062,6.311-4.058,9.336-6.151c0.637-0.13,1.289-0.101,1.887-0.041
		c1.146,0.53,1.969,1.5,3.224,1.797"/>
	<path fill="none" stroke="#000000" stroke-width="1.1236" stroke-linecap="round" d="M455.385,374.885
		c0.104,1.346,0.468,2.604,1.797,3.232"/>
	<path fill="none" stroke="#000000" stroke-width="1.0843" stroke-linecap="round" d="M464.725,371.29
		c-0.362-0.494-0.563-0.992-0.788-1.402c-0.421-0.272-1.11-0.607-1.739-0.952c-0.974,0.252-1.938,0.462-2.646,0.762
		c-1.438,1.798-2.615,3.527-4.168,5.188"/>
	<path fill="none" stroke="#000000" stroke-width="1.0928" stroke-linecap="round" d="M457.18,378.117
		c-0.937,1.498-1.693,3.149-3.354,4.072"/>
	<path fill="none" stroke="#000000" stroke-width="1.1323" stroke-linecap="round" d="M453.827,382.191
		c0.048,1.145-0.639,2.474-0.023,3.618c0.24,0.238,0.455,0.502,0.669,0.768c1.965,0.239,4.14,1.111,5.941-0.192"/>
	<path fill="none" stroke="#000000" stroke-width="1.1303" stroke-linecap="round" d="M460.414,386.383
		c1.327-2.028,0.813-5.173,2.756-6.588"/>
	<path fill="none" stroke="#000000" stroke-width="0.9223" stroke-linecap="round" d="M463.648,377.4
		c0.047-0.763-0.048-1.394-0.229-1.947c-2.644,0.443-4.183,4.11-5.521,6.26"/>
	<path fill="none" stroke="#000000" stroke-width="1.1433" stroke-linecap="round" d="M464.725,372.01
		c-3.009,1.524-5.335,3.595-7.545,6.107"/>
	<path fill="none" stroke="#000000" stroke-width="1.0779" stroke-linecap="round" d="M470.474,377.4
		c0.149,0.484,0.377,1.229,0.719,1.797"/>
	<path fill="none" stroke="#000000" stroke-width="1.0163" stroke-linecap="round" d="M471.193,379.197
		c0.825,0.373,1.603,0.794,2.33,1.264c0.091,0.389,0.14,0.818,0.186,1.252"/>
	<path fill="none" stroke="#000000" stroke-width="0.7872" stroke-linecap="round" d="M465.803,373.088
		c0.011,0.946,0.543,1.373,0.719,2.154"/>
	<path fill="none" stroke="#000000" stroke-width="1.2257" stroke-linecap="round" d="M466.522,375.242
		c1.475,0.153,2.919,1.058,3.952,2.156"/>
	<path fill="none" stroke="#000000" stroke-width="0.9277" stroke-linecap="round" d="M470.474,377.4
		c1.594-0.426,2.689,0.938,3.953,1.438"/>
	<path fill="none" stroke="#000000" stroke-width="1.1051" stroke-linecap="round" d="M464.128,389.137
		c0.09,0.028,0.181,0.059,0.271,0.087c1.917,1.052,3.449,2.511,5.159,3.826c5.826,1.887,12.416,0.196,18.199-0.705
		c-0.022-1.396-0.436-2.816-1.285-3.938c-0.61-0.148-1.002-0.479-1.419-0.791c-1.099-0.217-1.727-0.494-2.36-0.517"/>
	<path fill="none" stroke="#000000" stroke-width="0.9101" stroke-linecap="round" d="M482.691,387.101
		c-0.082,0.157-0.165,0.313-0.247,0.472c-1.617,0.279-3.797,1.378-5.645,1.531c-0.404,0.033-1.027,0.857-1.679,0.856
		c-0.951-0.003-1.921-1.142-2.466-1.447c-1.243-0.698-3.637-1.662-4.877-3.746c-1.07-0.108-1.976-0.389-3.293-0.54"/>
	<path fill="none" stroke="#000000" stroke-width="0.8801" stroke-linecap="round" d="M466.522,375.242
		c-0.39,0.569-0.59,1.327-0.923,1.951c-0.581,0.139-1.277,0.16-1.951,0.205"/>
	<path fill="none" stroke="#000000" stroke-width="1.3026" stroke-linecap="round" d="M463.648,377.4
		c-0.263,0.915-0.332,1.76-0.479,2.396"/>
	<path fill="none" stroke="#000000" stroke-width="1.2619" stroke-linecap="round" d="M463.17,379.795
		c0.848,1.349,0.078,3.188,1.316,4.432"/>
	<path fill="none" stroke="#000000" stroke-width="1.0163" stroke-linecap="round" d="M479.098,384.946
		c-0.12,0.119-0.239,0.239-0.359,0.359"/>
	<path fill="none" stroke="#000000" stroke-width="0.9049" stroke-linecap="round" d="M478.739,385.305
		c-0.071,0.24-0.144,0.48-0.216,0.723c-0.828,0.589-1.676,0.713-2.268,0.999c-0.353-0.458-0.338-1.546-0.393-2.439"/>
	<path fill="none" stroke="#000000" stroke-width="0.9277" stroke-linecap="round" d="M471.193,379.197
		c-0.282,0.196-0.678,0.28-1.078,0.359"/>
	<path fill="none" stroke="#000000" stroke-width="0.8427" stroke-linecap="round" d="M478.739,385.305
		c-1.098-0.102-1.691-0.703-2.875-0.719"/>
	<path fill="none" stroke="#000000" stroke-width="0.8503" stroke-linecap="round" d="M470.115,379.556
		c-0.567-0.441-1.326-0.679-1.95-0.486c-0.186,0.605-0.112,1.212,0.021,1.711c0.61,0.19,1.218,0.119,1.718-0.013
		C470.01,380.402,470.063,379.98,470.115,379.556"/>
	<path fill="none" stroke="#000000" stroke-width="1.2163" stroke-linecap="round" d="M460.414,386.383
		c0.748,2.402,1.426,4.841,2.01,7.346c0.624,0.189,1.233-0.193,1.728-0.599c-0.202-1.282-1.017-2.802-0.022-3.993"/>
	<path fill="none" stroke="#000000" stroke-width="1.9731" stroke-linecap="round" d="M464.128,389.137
		c-0.225-1.627,0.34-3.267,0.358-4.91"/>
	<path fill="none" stroke="#000000" stroke-width="0.7186" stroke-linecap="round" d="M475.146,382.43
		c-0.462-0.257-0.877-0.562-1.438-0.719"/>
	<path fill="none" stroke="#000000" stroke-width="0.9144" stroke-linecap="round" d="M473.71,381.711
		c-0.766-0.047-1.393,0.046-1.938,0.22c-0.194,0.614-0.123,1.222,0.007,1.724c0.985,0.198,2.239,0.146,3.009,0.572"/>
	<path fill="none" stroke="#000000" stroke-width="0.984" stroke-linecap="round" d="M477.661,382.788
		c-0.635-0.322-1.605-0.31-2.515-0.358"/>
	<path fill="none" stroke="#000000" stroke-width="0.8801" stroke-linecap="round" d="M475.146,382.43
		c0.021,0.74-0.164,1.272-0.359,1.797"/>
	<path fill="none" stroke="#000000" stroke-width="0.8801" stroke-linecap="round" d="M474.787,384.227
		c0.282,0.196,0.678,0.28,1.077,0.359"/>
	<path fill="none" stroke="#000000" stroke-width="1.052" stroke-linecap="round" d="M439.574,405.784
		c1.649,0.903,3.514,1.222,5.391,1.078"/>
	<path fill="none" stroke="#000000" stroke-width="1.0278" stroke-linecap="round" d="M462.45,409.978
		c2.737,1.298,5.718,1.9,8.743,1.916"/>
	<path fill="none" stroke="#000000" stroke-width="0.909" stroke-linecap="round" d="M465.444,144.205
		c0.691-0.268,1.546-0.371,2.156-0.72"/>
	<path fill="none" stroke="#000000" stroke-width="0.8801" stroke-linecap="round" d="M467.6,143.487
		c-0.155-0.323-0.352-0.607-0.547-0.891c-0.614-0.104-1.127-0.311-1.609-0.547"/>
	<path fill="none" stroke="#000000" stroke-width="0.9277" stroke-linecap="round" d="M427.718,146.72
		c1.607-0.837,4.061-0.216,5.349-1.586c-0.93-2.719-4.195-0.516-5.708,0.508"/>
	<path fill="none" stroke="#000000" stroke-width="0.9008" stroke-linecap="round" d="M425.802,146.96
		c0.854,0.545,1.587,0.292,1.916-0.239"/>
	<path fill="none" stroke="#000000" stroke-width="0.8801" stroke-linecap="round" d="M427.718,146.72
		c-0.043-0.436-0.198-0.76-0.359-1.078"/>
	<path fill="none" stroke="#000000" stroke-width="0.9277" stroke-linecap="round" d="M407.954,154.266
		c0.225-0.48,0.493-1.054,0.838-1.557"/>
	<path fill="none" stroke="#000000" stroke-width="0.8801" stroke-linecap="round" d="M407.236,152.11
		c-0.298,0.51-0.222,1.115-0.128,1.585c0.315,0.152,0.583,0.36,0.847,0.571"/>
	<path fill="none" stroke="#000000" stroke-width="1.2147" stroke-linecap="round" d="M407.954,154.266
		c-0.033,0.399,0.32,0.819,0.682,1.144c0.299-0.049,0.704-0.059,1.115-0.065"/>
	<path fill="none" stroke="#000000" stroke-width="1.0779" stroke-linecap="round" d="M409.751,155.344
		c0.023-0.743-0.022-1.419-0.11-2.048c-0.291-0.316-0.577-0.414-0.848-0.587"/>
	<path fill="none" stroke="#000000" stroke-width="0.9277" stroke-linecap="round" d="M419.452,155.703
		c0.488,0.229,0.999,0.438,1.438,0.718"/>
	<path fill="none" stroke="#000000" stroke-width="0.8801" stroke-linecap="round" d="M420.889,156.422
		c0.323-0.578,0.31-1.667,0.358-2.875"/>
	<path fill="none" stroke="#000000" stroke-width="1.5074" stroke-linecap="round" d="M420.889,156.422c0,0.467,0,1.163,0,1.797"/>
	<path fill="none" stroke="#000000" stroke-width="1.0779" stroke-linecap="round" d="M420.889,158.219
		c1.373,0.566,1.667-0.962,2.755-1.198"/>
	<path fill="none" stroke="#000000" stroke-width="1.2007" stroke-linecap="round" d="M420.889,158.219
		c0.08,2.403,0.108,4.918,1.293,6.992c0.774,0.179,1.226-0.334,1.777-0.691c0.216-2.422,1.447-5.422-0.315-7.498"/>
	<path fill="none" stroke="#000000" stroke-width="0.8647" stroke-linecap="round" d="M404.72,172.591
		c5.255,0.082,10.049-2.467,15.091-3.593"/>
	<path fill="none" stroke="#000000" stroke-width="0.9404" stroke-linecap="round" d="M411.906,205.648
		c-0.634-0.112-0.833-0.435-1.076-0.687c0.134-1.218,1.696-1.689,2.355-0.57C413.07,205.031,412.422,205.359,411.906,205.648"/>
	<path fill="none" stroke="#000000" stroke-width="0.967" stroke-linecap="round" d="M452.15,398.24
		c1.607-0.788,1.063-3.747,2.93-4.233c1.114,0.81,2.867,0.438,3.657,1.743c-0.022,1.855-1.913,2.578-2.018,4.27
		C455.289,400.743,452.035,400.257,452.15,398.24"/>
	<path fill="none" stroke="#000000" stroke-width="0.8872" stroke-linecap="round" d="M460.054,401.115
		c-1.706-0.118-0.482-3.445,0.773-3.517c0.925,0.497,2.251,1.323,2.154,2.535C462.386,401.08,461.212,401.035,460.054,401.115"/>
</g>
</svg>
