<?xml version="1.0" encoding="utf-8"?>
<!-- Generator: Adobe Illustrator 14.0.0, SVG Export Plug-In . SVG Version: 6.00 Build 43363)  -->
<!DOCTYPE svg PUBLIC "-//W3C//DTD SVG 1.1//EN" "http://www.w3.org/Graphics/SVG/1.1/DTD/svg11.dtd">
<svg version="1.1" id="图层_1" xmlns="http://www.w3.org/2000/svg" xmlns:xlink="http://www.w3.org/1999/xlink" x="0px" y="0px"
	 width="848px" height="480px" viewBox="0 0 848 480" enable-background="new 0 0 848 480" xml:space="preserve">
<g>
	<path fill="none" stroke="#000000" stroke-width="1.2376" stroke-linecap="round" d="M325.023,132.625
		c4.188-2.57-1.512-9.132,4.097-11.259c0.132-0.117,0.266-0.234,0.397-0.353"/>
	<path fill="none" stroke="#000000" stroke-width="0.7491" stroke-linecap="round" d="M275.209,135.621
		c-0.19,0.308,0.25,1.249,0,1.498c-0.059,0.059-1.439,0.059-1.498,0c-0.546-0.547,0.69-0.69,0.749-0.749
		C274.71,136.121,274.455,135.367,275.209,135.621z"/>
	<path fill="none" stroke="#000000" stroke-width="1.0937" stroke-linecap="round" d="M277.082,138.992
		c4.831,0.146,9.378-1.736,14.232-1.499"/>
	<path fill="none" stroke="#000000" stroke-width="1.0395" stroke-linecap="round" d="M267.344,231.129
		c3.761-1.304,7.212-3.368,11.021-4.709c7.232-5.953,15.084-11.154,24.185-13.27"/>
	<path fill="none" stroke="#000000" stroke-width="1.0484" stroke-linecap="round" d="M256.857,220.642
		c0.073,0.177,0.146,0.354,0.218,0.531c1.65,1.956,4.246,2.408,6.511,3.556c8.882-2.511,16.968-6.898,25.481-10.08"/>
	<path fill="none" stroke="#000000" stroke-width="1.2309" stroke-linecap="round" d="M266.595,391.433
		c-0.755-1.32-1.819-2.44-2.622-3.745"/>
	<path fill="none" stroke="#000000" stroke-width="1.4081" stroke-linecap="round" d="M307.045,400.422
		c1.738-0.188,3.457-0.538,5.244-0.375"/>
	<path fill="none" stroke="#000000" stroke-width="0.962" stroke-linecap="round" d="M302.551,403.418
		c6.469-1.139,15.635-1.678,20.976,1.497"/>
	<path fill="none" stroke="#000000" stroke-width="1.2278" stroke-linecap="round" d="M222.212,407.537
		c-0.698-1.722,0.42-6.531,1.767-8.537c0.548-0.818,3.234-2.861,5.12-4.204c7.978-5.684,20.259-7.481,27.385-8.981"/>
	<path fill="none" stroke="#000000" stroke-width="1.2644" stroke-linecap="round" d="M256.482,385.815
		c6.616-1.563,11.658-6.256,17.239-9.834c0.23-0.446,0.449-0.966,0.738-1.402"/>
	<path fill="none" stroke="#000000" stroke-width="1.4982" stroke-linecap="round" d="M274.46,374.577
		c0.089-0.677,0.708-1.614,0.937-2.247"/>
	<path fill="none" stroke="#000000" stroke-width="1.5876" stroke-linecap="round" d="M275.396,372.33
		c-0.283-1.604-2.375-1.187-3.375-2.075c-0.176-0.348-0.267-0.626-0.353-0.902c0.078-0.332,0.171-0.698,0.267-1.065
		c1.054-0.382,2.453-3.682,3.734-5.993c0.195-0.354,0.766-0.343,0.859-0.607c1.009-2.83,0.144-5.072,0.347-8.607
		c0.437-0.142,1.747-1.353,2.078-2.096"/>
	<path fill="none" stroke="#000000" stroke-width="1.37" stroke-linecap="round" d="M278.955,350.983
		c-1.136-1.472-4.313-1.199-4.46-3.735c0.448-1.267,0.77-2.891,2.035-3.54c1.655-3.002-1.992-4.212-2.039-6.942
		c0.354-1.733,1.396-3.563,3.34-3.76"/>
	<path fill="none" stroke="#000000" stroke-width="1.1298" stroke-linecap="round" d="M277.831,333.004
		c0.037-0.632-0.052-1.279-0.231-1.938c-1.959-1.055-3.689-2.226-5.569-3.498c-0.233-0.908-0.106-1.792,0.226-2.274
		c1.067-1.171,1.892-2.905,3.328-3.899"/>
	<path fill="none" stroke="#000000" stroke-width="1.3108" stroke-linecap="round" d="M275.584,321.394
		c0.237-2.352-1.397-4.354-3.376-5.345c-0.472-0.663-1.01-1.392-1.519-2.12c-1.45-7.214-3.823-13.688-6.885-20.049
		c-0.066-0.138-0.494-0.125-0.596-0.3c-1.309-2.261-1.922-6.313-3.558-7.553c-0.181-0.707-0.11-2.133-0.346-2.62
		c-1.718-2.139-2.722-5.029-3.74-7.505c-0.048-0.116-0.551-0.139-0.602-0.295c-1.064-3.359-1.758-8.018-3.553-9.805
		c-0.18-0.707-0.113-2.136-0.341-2.616c-0.236-0.112-0.79-0.514-1.329-0.972"/>
	<path fill="none" stroke="#000000" stroke-width="1.2449" stroke-linecap="round" d="M249.74,262.216
		c-1.161,0.712-2.76,1.135-3.924,0.171c-0.791-1.084-1.224-2.468-1.194-3.791"/>
	<path fill="none" stroke="#000000" stroke-width="1.2163" stroke-linecap="round" d="M244.622,258.596
		c-0.832-1.712-2.297-2.744-2.747-4.62"/>
	<path fill="none" stroke="#000000" stroke-width="2.7009" stroke-linecap="round" d="M241.875,253.976
		c-0.083-0.124-0.167-0.249-0.25-0.374"/>
	<path fill="none" stroke="#000000" stroke-width="1.2974" stroke-linecap="round" d="M241.625,253.602
		c-1.184-0.36-1.854-1.145-2.372-1.873"/>
	<path fill="none" stroke="#000000" stroke-width="1.4982" stroke-linecap="round" d="M239.253,251.729
		c-0.306-0.709-0.969-1.04-1.376-1.505c-0.307-0.813,0.018-1.826,0.252-2.615"/>
	<path fill="none" stroke="#000000" stroke-width="1.2171" stroke-linecap="round" d="M239.253,238.245
		c-0.809-3.477,0.873-5.962,2.818-8.402c1.505-1.887,3.546-4.255,5.983-4.333"/>
	<path fill="none" stroke="#000000" stroke-width="1.4305" stroke-linecap="round" d="M248.055,225.511
		c0.023-2.413,0.488-5.313,3.184-6.18"/>
	<path fill="none" stroke="#000000" stroke-width="1.4453" stroke-linecap="round" d="M251.239,219.331
		c-0.025-1.258,0.01-2.092,0.174-2.589c0.16-0.094,0.374-0.204,0.59-0.315c0.642-1.203,1.194-2.424,1.938-3.568
		c-1.897-4.312,1.542-12.033,3.207-18.032c2.056-7.403,4.172-14.871,6.451-21.375"/>
	<path fill="none" stroke="#000000" stroke-width="1.2549" stroke-linecap="round" d="M263.598,173.45
		c-0.855-1.087-1.386-3.594,0.202-4.277c0.069-2.338,2.404-4.681,4.916-4.337"/>
	<path fill="none" stroke="#000000" stroke-width="1.2092" stroke-linecap="round" d="M268.717,164.836
		c1.198-1.691,1.682-3.951,3.244-5.261c0.134-1.202-0.711-1.951-1.161-2.956c-0.093-0.486,0.171-1.119,0.494-1.703
		c0.348-0.146,0.623-0.367,0.896-0.592c1.274,0.21,1.834-1.256,2.815-1.678c3.177-1.361,7.457-1.146,10.589-1.694
		c0.194-0.034,0.287-0.648,0.476-0.725"/>
	<path fill="none" stroke="#000000" stroke-width="1.3812" stroke-linecap="round" d="M286.071,150.228
		c-6.59-3.66-13.843-6.232-19.309-11.404c-1.258-4.485,0.316-9.493-2.041-13.689"/>
	<path fill="none" stroke="#000000" stroke-width="1.4888" stroke-linecap="round" d="M264.722,125.134
		c-2.937-1.723-3.594-5.628-5.743-8.24"/>
	<path fill="none" stroke="#000000" stroke-width="1.1707" stroke-linecap="round" d="M258.979,116.894
		c-3.629-0.298-5.156-4.779-8.937-4.347c-0.276-1.167-0.293-2.104-0.726-2.329c-1.647,0.463-2.802,1.942-4.561,2.271
		c-1.541-2.053,1.229-4.569,1.487-6.832"/>
	<path fill="none" stroke="#000000" stroke-width="1.3213" stroke-linecap="round" d="M246.245,105.658
		c-0.587,0.058-1.201-0.077-1.835-0.353c-0.244-1.342,0.132-1.963-0.101-2.645"/>
	<path fill="none" stroke="#000000" stroke-width="1.0994" stroke-linecap="round" d="M244.309,102.662
		c-1.936,0.112-3.054,1.942-4.869,2.247"/>
	<path fill="none" stroke="#000000" stroke-width="1.2974" stroke-linecap="round" d="M239.441,104.909
		c-0.174,0.439-0.445,1.063-0.563,1.872"/>
	<path fill="none" stroke="#000000" stroke-width="1.2866" stroke-linecap="round" d="M239.441,104.909
		c-0.045-0.163-0.091-0.326-0.137-0.489c0.839-3.564,1.291-6.851,3.061-9.967c0.374-0.658,2.278-3.452,3.451-4.706
		c1.58-1.689,4.458-2.473,5.359-5.01c-0.911-0.947-2.641,0.184-3.424-0.85c0.029-0.308,0.179-0.598,0.333-0.888
		c1.899-1.419,4.367-1.493,6.325-2.651c1.118-1.896-0.265-4.195-0.841-6.128c-0.827-4.001-1.842-8.065-3.373-11.754
		c-0.729-1.725,0.473-3.315,0.952-5.875c0.334-1.789-0.034-3.368,0.38-4.49c0.375-1.017,1.157-1.5,1.583-2.251"/>
	<path fill="none" stroke="#000000" stroke-width="2.3088" stroke-linecap="round" d="M253.111,49.851c0-0.25,0-0.499,0-0.749"/>
	<path fill="none" stroke="#000000" stroke-width="1.3028" stroke-linecap="round" d="M253.111,49.851
		c1.574,2.063,0.516,5.625,2.451,7.274c0.877,2.643,1.228,5.966,3.542,7.708"/>
	<path fill="none" stroke="#000000" stroke-width="1.1142" stroke-linecap="round" d="M259.104,64.833
		c0.904-3.834,2.985-8.376,4.978-10.856c0.597-0.741,1.545-1.036,2.342-2.049c0.445-0.565,0.622-1.366,1.115-1.881
		c0.724-0.753,1.89-1.125,2.628-1.866c0.535-0.536,1.11-1.879,1.837-2.602c1.004-0.998,2.605-2.174,3.75-3.053
		c0.728-0.558,1.928-0.627,2.64-1.109c1.479-1.004,3.285-3.714,6.179-4.299"/>
	<path fill="none" stroke="#000000" stroke-width="1.2974" stroke-linecap="round" d="M284.573,37.117
		c0.25-0.205,0.5-0.292,0.75-0.375"/>
	<path fill="none" stroke="#000000" stroke-width="1.1782" stroke-linecap="round" d="M284.573,37.117
		c-0.127,4.899-4.962,7.646-4.682,12.359"/>
	<path fill="none" stroke="#000000" stroke-width="1.6066" stroke-linecap="round" d="M317.907,50.413
		c0.486-0.132,1.212-0.144,1.873-0.188"/>
	<path fill="none" stroke="#000000" stroke-width="2.3088" stroke-linecap="round" d="M355.174,53.035
		c0.83-0.168,1.837-0.162,2.81-0.188"/>
	<path fill="none" stroke="#000000" stroke-width="1.589" stroke-linecap="round" d="M341.128,62.96c0.487,0,1.212,0,1.873,0"/>
	<path fill="none" stroke="#000000" stroke-width="1.589" stroke-linecap="round" d="M365.848,78.129
		c0.25-0.104,0.5-0.146,0.75-0.188"/>
	<path fill="none" stroke="#000000" stroke-width="1.8421" stroke-linecap="round" d="M343.251,378.448
		c0.593,8.378,5.137,16.777,1.249,24.971"/>
	<path fill="none" stroke="#000000" stroke-width="1.3578" stroke-linecap="round" d="M344.499,403.418
		c0.646,1.126,0.216,2.528-0.5,3.494"/>
	<path fill="none" stroke="#000000" stroke-width="1.4892" stroke-linecap="round" d="M344,406.912
		c-0.295,2.893-1.258,5.806-2.497,8.49"/>
	<path fill="none" stroke="#000000" stroke-width="1.1535" stroke-linecap="round" d="M339.63,421.771
		c-0.015,1.904-0.622,3.739-1.211,5.543c-4.585,4.809-10.192,8.142-16.767,9.438"/>
	<path fill="none" stroke="#000000" stroke-width="1.2012" stroke-linecap="round" d="M321.652,436.752
		c-1.633,0.016-3.197,0.598-4.869,0.374"/>
	<path fill="none" stroke="#000000" stroke-width="1.2181" stroke-linecap="round" d="M285.322,425.891
		c-0.246,0.141-0.492,0.28-0.738,0.421c-1.524,6.66,6.371,9.299,11.6,10.44"/>
	<path fill="none" stroke="#000000" stroke-width="1.0758" stroke-linecap="round" d="M296.183,436.752
		c1.812,0.487,3.732,0.371,5.618,0.374"/>
	<path fill="none" stroke="#000000" stroke-width="2.1187" stroke-linecap="round" d="M298.056,46.106
		c-0.25,0.125-0.5,0.25-0.75,0.375"/>
	<path fill="none" stroke="#000000" stroke-width="1.0685" stroke-linecap="round" d="M298.056,46.106
		c4.25-7.287,10.167-7.839,12.176-12.938c-3.802,1.354-8.523,3.054-12.739,5.643c-0.426,0.262-0.672,0.892-1.105,1.137
		c-2.553,1.45-5.467,2.568-7.876,4.113c-0.122,0.078-0.14,0.396-0.236,0.506c-1.257,1.43-2.581,1.405-4.238,2.501
		c-0.722,0.479-1.162,1.407-1.883,1.867c-0.588,0.375-1.276,0.462-2.264,0.54"/>
	<path fill="none" stroke="#000000" stroke-width="1.1217" stroke-linecap="round" d="M279.891,49.477
		c-2.365,3.338-6.287,5.471-8.803,8.615"/>
	<path fill="none" stroke="#000000" stroke-width="1.589" stroke-linecap="round" d="M259.104,64.833
		c0.263,0.749,0.286,1.498,0.375,2.247"/>
	<path fill="none" stroke="#000000" stroke-width="1.1674" stroke-linecap="round" d="M244.309,102.662
		c0.193-0.567,0.435-1.533,1.311-1.873"/>
	<path fill="none" stroke="#000000" stroke-width="1.9819" stroke-linecap="round" d="M246.245,105.658
		c0.251-0.612,0.6-1.122,0.874-1.498"/>
	<path fill="none" stroke="#000000" stroke-width="1.5214" stroke-linecap="round" d="M258.979,116.894
		c-0.348-1.188-1.189-2.246-0.999-3.558"/>
	<path fill="none" stroke="#000000" stroke-width="1.8176" stroke-linecap="round" d="M257.98,113.336
		c-0.157-0.099-0.313-0.195-0.47-0.293c-2.189-5.214-2.127-12.035,0.488-16.992c1.433-0.392,2.654,1.027,4.108,0.679
		c1.313-1.605,1.442-3.78,3.489-4.681"/>
	<path fill="none" stroke="#000000" stroke-width="1.129" stroke-linecap="round" d="M265.596,92.05
		c-0.03-0.094-0.062-0.188-0.091-0.282c-0.116-0.371-0.362-0.853-0.611-1.273c-1.694-1.906-3.611-0.201-3.762,1.833
		c-0.833-0.213-1.854-0.422-2.552-0.742c-0.167-1.768-1.075-3.265-1.319-5.015c0.16-0.486,0.27-1.391,0.562-2.048
		c0.878-0.87,1.919-1.478,2.155-2.836"/>
	<path fill="none" stroke="#000000" stroke-width="1.0863" stroke-linecap="round" d="M259.978,81.687
		c-0.34-2.776,1.795-6.569,3.82-9.153c0.492-0.628,1.548-2.577,3.717-4.533c0.525-0.476,1.329-0.676,1.888-1.108
		c1.11-0.857,1.691-2.035,2.603-2.641c0.455-0.302,1.412-0.171,1.861-0.388c1.71-0.821,2.923-2.274,4.886-3.355
		c1.411-0.776,2.511-1.441,3.745-2.245c0.781-0.509,1.549-1.108,2.242-1.503c0.541-0.31,1.362-0.106,1.861-0.386
		c3.662-2.055,8.036-5.95,13.329-6.522"/>
	<path fill="none" stroke="#000000" stroke-width="1.4746" stroke-linecap="round" d="M299.929,49.851
		c0.885-0.554,1.626-1.452,2.621-1.873"/>
	<path fill="none" stroke="#000000" stroke-width="1.08" stroke-linecap="round" d="M299.929,49.851
		c-0.035,0.128-0.069,0.255-0.104,0.383c-2.921,2.853-7.241,6.64-9.737,8.989c-1.157,1.09-2.302,2.206-3.438,3.191
		c-0.542,0.47-1.37,0.616-1.889,1.107c-0.486,0.46-0.908,1.148-0.938,2.435"/>
	<path fill="none" stroke="#000000" stroke-width="0.9463" stroke-linecap="round" d="M283.823,65.957
		c5.556-0.976,10.379-4.665,16.105-4.869"/>
	<path fill="none" stroke="#000000" stroke-width="1.333" stroke-linecap="round" d="M299.929,61.088
		c0.549-0.668,1.613-0.552,2.246-1.124"/>
	<path fill="none" stroke="#000000" stroke-width="1.0525" stroke-linecap="round" d="M299.929,61.088
		c-0.7,2.403-4.225,2.141-5.247,4.467c0.048,0.385,0.655,0.597,1.166,0.729c1.336-0.903,3.342-0.99,4.829-0.326"/>
	<path fill="none" stroke="#000000" stroke-width="1.4982" stroke-linecap="round" d="M300.678,65.957
		c0.842-0.676,1.604-0.646,2.246-0.749"/>
	<path fill="none" stroke="#000000" stroke-width="1.4982" stroke-linecap="round" d="M330.641,85.245
		c0.646,0.309,1.564,0.899,2.622,0.937"/>
	<path fill="none" stroke="#000000" stroke-width="1.7656" stroke-linecap="round" d="M332.139,101.538
		c0.729,0.961,2.681,0.703,2.622,2.247"/>
	<path fill="none" stroke="#000000" stroke-width="1.7656" stroke-linecap="round" d="M310.791,97.793
		c1.155,0.624,1.94,1.651,2.996,2.247"/>
	<path fill="none" stroke="#000000" stroke-width="1.0853" stroke-linecap="round" d="M333.388,127.382
		c5.843-1.991,9.604-7.705,15.897-9.083c0.104-1.453-1.921-1.514-2.771-2.183c-0.188-0.367-0.106-0.816,0.012-1.215
		c1.544-1.423,5.304-0.444,5.709-2.503c-0.659-0.285-1.157-0.67-1.371-1.097c0.171-0.437,0.858-0.844,1.295-1.355
		c2.991-1.09,6.706-0.988,9.17-2.447c-0.186-0.425-0.834-0.791-1.265-1.306c-3.021-1.002-6.646-1.459-9.175-3.188
		c1.864-2.235,5.133-2.964,7.254-5.051c2.002-0.296,4.523-1.921,5.394-3.479c-1.625-1.086-5.6,0.327-5.802-2.303
		c0.727-0.384,1.543-0.833,2.309-1.319c0.188-0.36,0.273-0.638,0.355-0.911c-1.197-1.079-3.021,0.271-4.171-0.341
		c1.591-4.898,8.234-6.428,9.619-11.474"/>
	<path fill="none" stroke="#000000" stroke-width="1.2079" stroke-linecap="round" d="M365.848,78.129
		c-3.22,0.274-6.805,0.159-9.863,1.436"/>
	<path fill="none" stroke="#000000" stroke-width="1.2974" stroke-linecap="round" d="M355.985,79.565
		c0.261,0.846,0.669,1.644,0.874,2.497"/>
	<path fill="none" stroke="#000000" stroke-width="1.6182" stroke-linecap="round" d="M356.859,82.062
		c0.155,0.22,0.461,0.288,0.749,0.375"/>
	<path fill="none" stroke="#000000" stroke-width="1.0021" stroke-linecap="round" d="M356.859,82.062
		c-2.616,0.211-4.984-0.75-7.491-1.124"/>
	<path fill="none" stroke="#000000" stroke-width="1.0278" stroke-linecap="round" d="M355.985,79.565
		c-1.549-0.128-3.998-2.026-6.047-3.69c-4.436-3.602-8.647-7.834-14.221-9.771c-0.153-0.427-0.06-0.745,0.047-1.057
		c0.813-0.147,1.408-0.554,2.099-0.857c1.226-0.141,2.758,0.243,3.265-1.229"/>
	<path fill="none" stroke="#000000" stroke-width="1.1269" stroke-linecap="round" d="M341.128,62.96
		c-1.773-0.878-4.131-0.525-5.735-1.541c0.025-0.314,0.176-0.604,0.332-0.895c1.388-0.007,2.655-0.43,4.065-1.15
		c3.248-1.661,6.535-2.896,10.107-4.125c1.883-0.648,3.944-0.439,5.275-2.214"/>
	<path fill="none" stroke="#000000" stroke-width="1.3362" stroke-linecap="round" d="M355.174,53.035
		c-0.118-0.12-0.236-0.24-0.354-0.36c-11.985-1.49-24.826-0.623-36.911-0.951"/>
	<path fill="none" stroke="#000000" stroke-width="1.4344" stroke-linecap="round" d="M317.907,51.724
		c-0.455,0.41-0.792,0.585-1.124,0.749"/>
	<path fill="none" stroke="#000000" stroke-width="1.5593" stroke-linecap="round" d="M317.907,51.724c0-0.317,0-0.81,0-1.311"/>
	<path fill="none" stroke="#000000" stroke-width="1.1473" stroke-linecap="round" d="M317.907,50.413
		c-5.005-0.646-10.337,2.505-15.026,1.526c0.006-0.378,0.08-0.658,0.158-0.934c3.892-3.336,8.868-5.371,12.269-9.092
		c-5.981-0.292-11.325,3.728-17.25,4.191"/>
	<path fill="none" stroke="#000000" stroke-width="1.0021" stroke-linecap="round" d="M259.978,81.687
		c2.404-0.162,3.694-2.672,5.868-3.371"/>
	<path fill="none" stroke="#000000" stroke-width="1.1759" stroke-linecap="round" d="M265.596,92.05
		c0.098,0.027,0.194,0.054,0.292,0.08c2.706,3.025,4.834,5.79,6.36,9.632c0.055,0.136,0.46,0.188,0.53,0.307
		c1.04,1.751,2.133,3.955,3.21,5.691c0.31,0.5,1.134,1.147,1.482,1.74c1.056,1.8,1.83,4.187,2.833,6.049
		c0.763,1.417,2.088,3.349,3.893,5.091"/>
	<path fill="none" stroke="#000000" stroke-width="1.589" stroke-linecap="round" d="M284.198,120.64
		c0.295-0.045,0.707-0.207,1.124-0.375"/>
	<path fill="none" stroke="#000000" stroke-width="1.0427" stroke-linecap="round" d="M285.322,120.265
		c-1.621-4.203-1.872-8.819-3.621-13.109"/>
	<path fill="none" stroke="#000000" stroke-width="1.4474" stroke-linecap="round" d="M281.701,107.156
		c-0.668-2.033-1.799-3.535-2.372-5.617"/>
	<path fill="none" stroke="#000000" stroke-width="1.1236" stroke-linecap="round" d="M281.701,107.156
		c1.067,0.157,1.82,0.394,2.497,0.75"/>
	<path fill="none" stroke="#000000" stroke-width="1.1733" stroke-linecap="round" d="M284.198,107.906
		c0.779-3.154-2.138-6.424-1.631-9.631c1.108-0.354,1.823,0.71,2.701,1.074c3.952,3.928,7.688,7.698,11.86,11.356
		c0.042,0.446,0.217,0.776,0.397,1.101c0.884,0.592,1.336,1.465,1.729,2.017"/>
	<path fill="none" stroke="#000000" stroke-width="1.804" stroke-linecap="round" d="M299.255,113.823
		c0.621,0.315,1.656,0.917,2.317,1.37c0.134,0.658,0.351,1.193,0.604,1.702"/>
	<path fill="none" stroke="#000000" stroke-width="1.5291" stroke-linecap="round" d="M302.925,109.778
		c-2.043-1.596-2.225-4.654-4.493-5.992"/>
	<path fill="none" stroke="#000000" stroke-width="1.334" stroke-linecap="round" d="M314.161,110.902
		c-1.625-4.3-4.204-7.742-5.244-12.547"/>
	<path fill="none" stroke="#000000" stroke-width="1.2596" stroke-linecap="round" d="M308.918,98.355
		c-3.455-2.963-5.871-6.686-8.988-9.926"/>
	<path fill="none" stroke="#000000" stroke-width="1.6182" stroke-linecap="round" d="M308.918,98.355
		c0.487-0.108,1.212-0.313,1.873-0.562"/>
	<path fill="none" stroke="#000000" stroke-width="1.1068" stroke-linecap="round" d="M310.791,97.793
		c-0.354-1.625-1.866-3.06-1.689-4.697c5.271,0.51,9.844,3.245,14.581,5.29c0.587,0.253,1.398,0.061,1.976,0.271
		c1.974,0.718,2.951,2.496,6.482,2.882"/>
	<path fill="none" stroke="#000000" stroke-width="1.3637" stroke-linecap="round" d="M332.139,101.538
		c0.015-2.316-1.927-3.885-3.159-5.44c-2.103-2.653-4.792-5.005-6.768-7.669"/>
	<path fill="none" stroke="#000000" stroke-width="1.1844" stroke-linecap="round" d="M322.214,88.429
		c-0.88-0.165-1.781-0.547-2.435-1.124"/>
	<path fill="none" stroke="#000000" stroke-width="1.1701" stroke-linecap="round" d="M322.214,88.429
		c0.457-2.956-3.88-3.164-4.106-5.965c4.229-0.699,8.199,3.215,12.535,2.782"/>
	<path fill="none" stroke="#000000" stroke-width="1.0525" stroke-linecap="round" d="M330.641,85.245
		c-0.035-0.171-0.069-0.344-0.104-0.515c-2.103-2.224-5.071-3.789-8.677-5.5c-3.988-1.892-8.806-4.003-12.722-5.256
		c-0.862-0.274-1.889-0.041-2.608-0.388c-1.816-0.875-6.441-1.801-9.327-2.659c-0.873-0.259-2.067,0.008-2.432-0.93
		c1.706-1.81,4.394-2.288,5.906-4.042"/>
	<path fill="none" stroke="#000000" stroke-width="1.3812" stroke-linecap="round" d="M283.823,65.957
		c-0.508,0.246-1.041,0.755-1.498,1.124"/>
	<path fill="none" stroke="#000000" stroke-width="2.5949" stroke-linecap="round" d="M269.217,124.01
		c0.548,0.072,1.378,1.366,1.873,2.247"/>
	<path fill="none" stroke="#000000" stroke-width="2.0417" stroke-linecap="round" d="M286.071,150.228
		c0.749,0.241,1.498,0.457,2.247,0.749"/>
	<path fill="none" stroke="#000000" stroke-width="1.1214" stroke-linecap="round" d="M302.801,147.732
		c1.813-1.749,4.158-2.014,6.278-2.964c0.458-0.205,0.699-0.882,1.135-1.108c2.271-1.187,4.34-1.445,6.489-3.243
		c3.154-2.638,6.911-2.348,10.354-3.889c0.457-0.203,0.69-0.9,1.129-1.114c1.001-0.488,2.155-0.159,2.646-1.1
		c0.957-2.23,1.861-4.518,2.556-6.933"/>
	<path fill="none" stroke="#000000" stroke-width="1.4213" stroke-linecap="round" d="M333.388,127.382
		c0.572-3.503,1.136-8.279-2.342-10.416c-1.136,0.492-2.443,0.015-3.553,0.527c-1.128,0.896-1.974,2.43-3.594,2.397"/>
	<path fill="none" stroke="#000000" stroke-width="0.9312" stroke-linecap="round" d="M323.9,119.89
		c-0.373,0.981-0.602,2.422-1.873,2.622"/>
	<path fill="none" stroke="#000000" stroke-width="1.2847" stroke-linecap="round" d="M323.9,119.89
		c-0.501-1.075-1.188-2.023-1.217-3.262c-1.561-2.31-2.453,1.777-4.169-0.301c-1.035-2.156-1.696-4.729-4.353-5.427"/>
	<path fill="none" stroke="#000000" stroke-width="1.4704" stroke-linecap="round" d="M314.161,110.902
		c-0.617,4.798,4.609,9.449,2.622,14.607"/>
	<path fill="none" stroke="#000000" stroke-width="1.4982" stroke-linecap="round" d="M316.783,125.509
		c0.278,1.053,0.387,1.651,0.749,2.248"/>
	<path fill="none" stroke="#000000" stroke-width="1.4315" stroke-linecap="round" d="M316.783,125.509
		c-3.594-0.824-3.271-5.63-6.742-6.742"/>
	<path fill="none" stroke="#000000" stroke-width="1.4825" stroke-linecap="round" d="M310.042,118.767
		c-0.666,1.624-0.401,3.646-1.873,4.869"/>
	<path fill="none" stroke="#000000" stroke-width="2.8524" stroke-linecap="round" d="M308.169,123.636
		c-0.09,0.237-0.414,0.767-0.749,1.311"/>
	<path fill="none" stroke="#000000" stroke-width="1.418" stroke-linecap="round" d="M307.42,124.947
		c-0.308,1.705-1.657,2.947-2.794,4.146c-2.919,0.791-5.996-2.951-3.946-5.456"/>
	<path fill="none" stroke="#000000" stroke-width="3.0274" stroke-linecap="round" d="M300.678,123.636c0-0.25,0-0.5,0-0.749"/>
	<path fill="none" stroke="#000000" stroke-width="1.6443" stroke-linecap="round" d="M300.678,122.887
		c-1.124-1.214-0.622-3.003-0.749-4.495"/>
	<path fill="none" stroke="#000000" stroke-width="1.2776" stroke-linecap="round" d="M299.929,118.392
		c-2.059-1.087-4.007,0.763-5.618,1.873"/>
	<path fill="none" stroke="#000000" stroke-width="1.2974" stroke-linecap="round" d="M294.311,120.265
		c-1.413,1.81-1.991,4.084-1.873,6.367"/>
	<path fill="none" stroke="#000000" stroke-width="0.9174" stroke-linecap="round" d="M294.311,120.265c-0.5,0-0.999,0-1.498,0"/>
	<path fill="none" stroke="#000000" stroke-width="1.1111" stroke-linecap="round" d="M299.929,118.392
		c0.842-0.831,1.604-1.039,2.246-1.498"/>
	<path fill="none" stroke="#000000" stroke-width="2.1187" stroke-linecap="round" d="M299.255,113.823
		c-0.149,0.15-0.299,0.301-0.448,0.45"/>
	<path fill="none" stroke="#000000" stroke-width="1.1844" stroke-linecap="round" d="M298.805,114.273
		c-0.185,0.464-0.313,0.779-0.438,1.088c-0.769,0.37-1.778,0.344-2.56,0.41"/>
	<path fill="none" stroke="#000000" stroke-width="2.2782" stroke-linecap="round" d="M295.809,115.771c-0.25,0-0.5,0-0.749,0"/>
	<path fill="none" stroke="#000000" stroke-width="1.1442" stroke-linecap="round" d="M295.06,115.771
		c-0.822,1.88-3.235,3.018-5.244,2.996"/>
	<path fill="none" stroke="#000000" stroke-width="1.8349" stroke-linecap="round" d="M289.816,118.767
		c-0.637,0.241-1.035,0.457-1.498,0.749"/>
	<path fill="none" stroke="#000000" stroke-width="1.675" stroke-linecap="round" d="M284.198,107.906
		c0.628,1.494,2.106,2.617,2.622,4.12"/>
	<path fill="none" stroke="#000000" stroke-width="1.675" stroke-linecap="round" d="M285.322,123.261
		c0.805,1.255,1.736,2.601,1.873,4.12"/>
	<path fill="none" stroke="#000000" stroke-width="1.4278" stroke-linecap="round" d="M257.98,113.336
		c4.081-0.256,8.139,1.781,11.36,4.182"/>
	<path fill="none" stroke="#000000" stroke-width="1.2974" stroke-linecap="round" d="M269.342,117.518
		c0.572,0.09,1.554,0.98,1.748,1.998"/>
	<path fill="none" stroke="#000000" stroke-width="1.4125" stroke-linecap="round" d="M268.093,119.516
		c0.466,0.181,0.778,0.317,1.083,0.453c1.059,1.183,0.789,2.767,0.041,4.042"/>
	<path fill="none" stroke="#000000" stroke-width="1.4712" stroke-linecap="round" d="M305.173,112.213
		c-0.115-0.504-0.307-1.052-0.456-1.604c-0.435-0.414-1.211-0.679-1.792-0.832"/>
	<path fill="none" stroke="#000000" stroke-width="1.2974" stroke-linecap="round" d="M302.925,109.778
		c-0.023,0.583,0.021,1.167,0.115,1.753c0.426,0.319,1.008,0.606,1.508,0.993"/>
	<path fill="none" stroke="#000000" stroke-width="1.2683" stroke-linecap="round" d="M309.292,117.643
		c-0.042-2.416-2.295-4.133-4.12-5.431"/>
	<path fill="none" stroke="#000000" stroke-width="1.675" stroke-linecap="round" d="M305.173,112.213
		c-0.208,0.104-0.417,0.208-0.625,0.312"/>
	<path fill="none" stroke="#000000" stroke-width="1.3504" stroke-linecap="round" d="M304.548,112.525
		c-0.3,1.912,0.91,3.723,0.625,5.682"/>
	<path fill="none" stroke="#000000" stroke-width="1.605" stroke-linecap="round" d="M264.722,125.134
		c1.794-1.668-1.202-3.73-0.139-5.627c0.789-0.69,1.792-0.682,2.763-0.509c0.249,0.173,0.499,0.346,0.747,0.518"/>
	
		<line fill="none" stroke="#000000" stroke-width="2.2885" stroke-linecap="round" x1="268.093" y1="119.516" x2="268.093" y2="119.516"/>
	<path fill="none" stroke="#000000" stroke-width="0.9671" stroke-linecap="round" d="M268.093,119.516
		c0.496-0.764,0.8-1.384,1.249-1.998"/>
	<path fill="none" stroke="#000000" stroke-width="1.1844" stroke-linecap="round" d="M298.805,114.273
		c-0.619-0.02-1.311,0.022-2.055,0.109c-0.374,0.279-0.607,0.835-0.941,1.389"/>
	<path fill="none" stroke="#000000" stroke-width="1.1199" stroke-linecap="round" d="M295.06,115.771
		c-0.21-0.086-0.421-0.173-0.631-0.259c-2.02,0.042-3.848,1.449-4.612,3.255"/>
	<path fill="none" stroke="#000000" stroke-width="2.7009" stroke-linecap="round" d="M305.547,118.767
		c-0.125-0.187-0.25-0.375-0.375-0.562"/>
	<path fill="none" stroke="#000000" stroke-width="1.6182" stroke-linecap="round" d="M305.173,118.205
		c-1.18-0.146-1.964-0.957-2.997-1.312"/>
	<path fill="none" stroke="#000000" stroke-width="1.675" stroke-linecap="round" d="M310.042,118.767
		c-0.303-0.561-0.527-0.849-0.75-1.124"/>
	<path fill="none" stroke="#000000" stroke-width="1.9098" stroke-linecap="round" d="M309.292,117.643
		c-0.999-0.113-1.998,0.41-2.996,1.124"/>
	<path fill="none" stroke="#000000" stroke-width="3.7827" stroke-linecap="round" d="M268.842,124.01c0.125,0,0.25,0,0.375,0"/>
	<path fill="none" stroke="#000000" stroke-width="1.2756" stroke-linecap="round" d="M268.093,119.516
		c-1.363,1.354-0.657,3.484,0.749,4.495"/>
	<path fill="none" stroke="#000000" stroke-width="2.4273" stroke-linecap="round" d="M307.045,121.014
		c-0.06-0.75-0.423-1.499-0.749-2.248"/>
	<path fill="none" stroke="#000000" stroke-width="3.7827" stroke-linecap="round" d="M306.296,118.767c-0.25,0-0.5,0-0.749,0"/>
	<path fill="none" stroke="#000000" stroke-width="2.4844" stroke-linecap="round" d="M305.547,118.767
		c-0.47,0.529-0.86,1.137-1.249,1.748"/>
	<path fill="none" stroke="#000000" stroke-width="1.7299" stroke-linecap="round" d="M285.322,123.261
		c0.396-0.999,0.259-1.998,0-2.997"/>
	<path fill="none" stroke="#000000" stroke-width="1.2012" stroke-linecap="round" d="M284.198,120.64
		c-0.645,1.019,0.035,1.693,1.124,2.622"/>
	<path fill="none" stroke="#000000" stroke-width="0.9671" stroke-linecap="round" d="M305.173,122.138
		c-0.232-0.501-0.514-1.099-0.874-1.623"/>
	<path fill="none" stroke="#000000" stroke-width="1.5168" stroke-linecap="round" d="M304.299,120.515
		c-1.497,0.193-2.288,1.617-3.62,2.372"/>
	<path fill="none" stroke="#000000" stroke-width="1.7568" stroke-linecap="round" d="M308.169,123.636
		c-0.494-0.661-0.716-1.674-1.124-2.622"/>
	<path fill="none" stroke="#000000" stroke-width="1.1844" stroke-linecap="round" d="M307.045,121.014
		c-0.771,0.503-1.326,0.743-1.873,1.124"/>
	<path fill="none" stroke="#000000" stroke-width="1.5713" stroke-linecap="round" d="M305.173,122.138c0,0.508,0,1.041,0,1.498"/>
	<path fill="none" stroke="#000000" stroke-width="1.1844" stroke-linecap="round" d="M307.42,124.947
		c-0.721-0.541-1.61-0.883-2.247-1.311"/>
	<path fill="none" stroke="#000000" stroke-width="1.228" stroke-linecap="round" d="M305.173,123.636
		c-0.218,0.53-0.336,1.163-0.596,1.657c-0.487,0.29-0.861,0.455-1.268,0.555c-0.397-0.064-0.882-0.305-1.316-0.545
		c-0.378-0.632-0.904-1.166-1.314-1.667"/>
	<path fill="none" stroke="#000000" stroke-width="1.1844" stroke-linecap="round" d="M269.217,127.382
		c0.487-0.219,1.213-0.628,1.873-1.124"/>
	<path fill="none" stroke="#000000" stroke-width="2.017" stroke-linecap="round" d="M268.842,124.01
		c-0.178,0.959-0.817,2.551,0.056,3.301c0.105,0.023,0.213,0.046,0.319,0.07"/>
	<path fill="none" stroke="#000000" stroke-width="0.9988" stroke-linecap="round" d="M269.217,127.382
		c0.249,1.001,0.699,1.788,1.307,2.46c0.454,0.125,0.782,0.026,1.104-0.083c0.485-1.19-0.046-2.419-0.538-3.501"/>
	<path fill="none" stroke="#000000" stroke-width="1.6066" stroke-linecap="round" d="M302.551,150.228
		c0.357-1.078,0.303-1.913,0.25-2.497"/>
	<path fill="none" stroke="#000000" stroke-width="1.2739" stroke-linecap="round" d="M302.801,147.732
		c-4.903,0.485-9.505,2.664-14.481,3.246"/>
	<path fill="none" stroke="#000000" stroke-width="1.1844" stroke-linecap="round" d="M305.297,150.728
		c-0.107,1.373-1.819,0.856-2.747,0.999"/>
	<path fill="none" stroke="#000000" stroke-width="1.1844" stroke-linecap="round" d="M302.551,151.727
		c-0.758,0.521-1.183,0.882-1.648,1.326c-4.44,0.521-8.257,3.079-12.833,2.669"/>
	<path fill="none" stroke="#000000" stroke-width="1.0688" stroke-linecap="round" d="M288.069,155.721
		c-3.549,1.519-7.319-0.508-10.987-0.25"/>
	<path fill="none" stroke="#000000" stroke-width="1.2163" stroke-linecap="round" d="M288.069,155.721
		c-0.11-1.543,0.888-3.229,0.25-4.744"/>
	<path fill="none" stroke="#000000" stroke-width="1.2883" stroke-linecap="round" d="M317.158,161.09
		c0.175-0.213,0.35-0.427,0.524-0.64c0.518-1.88-0.472-3.717-1.254-5.385c0.322-2.266,2.715-4.041,2.049-6.507
		c-4.396,0.028-8.616,2.498-13.181,2.169"/>
	<path fill="none" stroke="#000000" stroke-width="0.9174" stroke-linecap="round" d="M305.297,150.728
		c-0.932-0.452-1.936-0.417-2.747-0.5"/>
	<path fill="none" stroke="#000000" stroke-width="2.2472" stroke-linecap="round" d="M302.551,150.228c0,0.5,0,0.999,0,1.499"/>
	<path fill="none" stroke="#000000" stroke-width="1.3676" stroke-linecap="round" d="M305.048,164.96
		c-0.732,3.349-2.65,6.544-3.178,10.091c-0.043,1.164,0.854,2.479,1.135,3.222c3.052,2.47,5.708,5.498,9.285,7.162"/>
	<path fill="none" stroke="#000000" stroke-width="1.4982" stroke-linecap="round" d="M314.286,181.94
		c-0.336-1.425-1.884-1.869-2.747-2.872"/>
	<path fill="none" stroke="#000000" stroke-width="1.1333" stroke-linecap="round" d="M330.267,216.897
		c3.783-4.527,8.57-8.648,12.374-13.208c0.331-0.63,0.603-1.244,0.701-1.762c-0.203-1.564-0.914-2.667-1.635-3.929
		c-2.17-3.802-5.152-7.195-7.893-10.853c-3.434-4.582-6.438-9.551-10.104-13.892c-1.52-3.001-1.265-7.047-4.473-8.986
		c-0.147-1.376-1.612-1.96-2.08-3.178"/>
	<path fill="none" stroke="#000000" stroke-width="1.277" stroke-linecap="round" d="M317.158,161.09
		c-4.226,0.263-8.699,1.363-12.11,3.87"/>
	<path fill="none" stroke="#000000" stroke-width="1.1041" stroke-linecap="round" d="M263.598,173.45
		c2.405-2.208,3.202-5.704,5.243-8.24"/>
	<path fill="none" stroke="#000000" stroke-width="2.3688" stroke-linecap="round" d="M268.842,165.21
		c-0.042-0.125-0.083-0.25-0.125-0.375"/>
	<path fill="none" stroke="#000000" stroke-width="1.1753" stroke-linecap="round" d="M251.239,219.331
		c1.749,0.56,1.098,3.244,2.622,4.307"/>
	<path fill="none" stroke="#000000" stroke-width="1.1236" stroke-linecap="round" d="M248.617,227.384
		c1.728,3.375,2.408,7.661,6.102,9.629c2.803,0.455,5.822-0.418,8.506,0.483"/>
	<path fill="none" stroke="#000000" stroke-width="1.188" stroke-linecap="round" d="M298.68,221.766
		c2.142-3.26,6.347-5.384,10.236-5.618"/>
	<path fill="none" stroke="#000000" stroke-width="1.4344" stroke-linecap="round" d="M308.918,216.148
		c0.104-0.31,0.483-0.774,0.874-1.249"/>
	<path fill="none" stroke="#000000" stroke-width="1.2899" stroke-linecap="round" d="M309.792,214.899
		c-0.19-1.032-0.747-1.874-1.899-1.839c-1.295-0.99-0.063-2.71-0.596-3.983c-3.479-2.307-2.156-7.299-0.587-10.381
		c0.161-0.314,1.294-1.237,1.48-1.741c1.128-3.063,1.303-5.617,2.662-8.467c0.11-0.232,1.643-0.831,1.438-3.053"/>
	<path fill="none" stroke="#000000" stroke-width="1.1656" stroke-linecap="round" d="M305.048,164.96
		c-0.135-0.029-0.27-0.059-0.404-0.087c-10.469,2.661-19.272,8.635-29.595,3.865c-0.454-0.21-0.694-0.892-1.135-1.108
		c-1.696-0.839-3.04-1.285-5.072-2.419"/>
	<path fill="none" stroke="#000000" stroke-width="1.1311" stroke-linecap="round" d="M323.026,206.909
		c1.959-0.395,5.147-4.471,5.469-7.255c0.2-1.737-3.174-5.734-3.955-7.098c-0.567-0.99-1.595-1.835-2.341-2.799
		c-0.227-0.293-0.187-0.831-0.381-1.117c-0.686-1.007-1.783-0.982-2.593-1.902c-1.416-1.607-2.04-3.747-3.688-4.471
		c-0.433-0.131-0.891-0.214-1.251-0.328"/>
	<path fill="none" stroke="#000000" stroke-width="1.2974" stroke-linecap="round" d="M314.286,181.94
		c-1.171,1.101-1.044,2.246-1.998,3.496"/>
	<path fill="none" stroke="#000000" stroke-width="1.3762" stroke-linecap="round" d="M308.918,216.148
		c-0.088,1.284,0.234,1.896,0.375,2.996"/>
	<path fill="none" stroke="#000000" stroke-width="1.3566" stroke-linecap="round" d="M312.289,240.867
		c1.419-2.958,5.491-3.976,5.618-7.491"/>
	<path fill="none" stroke="#000000" stroke-width="1.1674" stroke-linecap="round" d="M317.907,233.376
		c-0.535-3.279-4.238-4.291-4.869-7.491"/>
	<path fill="none" stroke="#000000" stroke-width="1.3575" stroke-linecap="round" d="M317.907,233.376
		c6.981,0.538,13.062-1.979,19.068-4.87c0.64-0.799,0.412-2.291,0.236-2.777c-2.203-2.847-4.932-5.656-6.944-8.833"/>
	<path fill="none" stroke="#000000" stroke-width="1.3654" stroke-linecap="round" d="M330.267,216.897
		c-2.478-0.139-3.443-3.699-4.575-5.916c-0.185-0.36-0.708-0.383-0.866-0.612c-0.9-1.313-1.945-1.941-1.8-3.459"/>
	<path fill="none" stroke="#000000" stroke-width="1.1379" stroke-linecap="round" d="M323.026,206.909
		c-0.423-0.021-0.785-0.558-1.195-1.073c-2.092-0.406-3.64,1.697-4.697,3.171c-2.748,0.819-4.188,3.28-4.504,5.865
		c-0.847,0.175-2.196,0.152-2.837,0.026"/>
	<path fill="none" stroke="#000000" stroke-width="1.3391" stroke-linecap="round" d="M304.798,332.255
		c5.05,3.899,11.158,2.054,16.479,0"/>
	<path fill="none" stroke="#000000" stroke-width="1.9098" stroke-linecap="round" d="M342.252,353.23
		c-0.25-0.5-0.5-0.999-0.75-1.498"/>
	<path fill="none" stroke="#000000" stroke-width="1.675" stroke-linecap="round" d="M341.503,351.732
		c-0.637,0.24-1.035,0.456-1.498,0.749"/>
	<path fill="none" stroke="#000000" stroke-width="1.4753" stroke-linecap="round" d="M341.503,351.732
		c3.525-3.592,3.277-9.27-1.498-11.236"/>
	<path fill="none" stroke="#000000" stroke-width="1.1651" stroke-linecap="round" d="M340.005,340.494
		c-0.178,4.047-4.347,5.545-5.243,8.989"/>
	<path fill="none" stroke="#000000" stroke-width="1.5645" stroke-linecap="round" d="M340.005,340.494
		c-1.039-4.844-2.107-9.627-4.085-14.217c0.603-2.306,2.613-4.62,1.369-7.086c-1.998-2.182-5.552-2.446-6.834-5.29"/>
	<path fill="none" stroke="#000000" stroke-width="1.1866" stroke-linecap="round" d="M330.454,313.903
		c-2.028-0.326-4.171-1.277-5.619-3.154c-0.961-1.244-3.131-5.171-4.843-7.902c-1.291-2.062-2.769-3.496-3.208-5.797"/>
	<path fill="none" stroke="#000000" stroke-width="1.3322" stroke-linecap="round" d="M330.454,313.903
		c1.543-2.331-0.017-7.073-1.481-11.767c-0.042-0.136-0.54-0.145-0.599-0.31c-1.178-3.318-1.833-7.222-3.014-10.244
		c-0.057-0.146-0.479-0.158-0.54-0.311c-0.229-0.569-0.183-1.461-0.345-1.876c-0.053-0.134-0.528-0.136-0.597-0.305
		c-1.162-2.887-2.176-6.714-3.524-9.021c-1.873-3.203-2.507-6.906-3.984-10.211c-0.067-0.151-0.472-0.153-0.539-0.311
		c-0.241-0.557-0.181-1.467-0.345-1.876c-0.052-0.13-0.534-0.138-0.597-0.304c-1.099-2.913-1.675-5.611-2.772-7.518
		c-1.613-2.799-2.344-7.388-1.243-10.661c0.522-1.553,1.021-2.69,0.415-4.579"/>
	<path fill="none" stroke="#000000" stroke-width="1.7299" stroke-linecap="round" d="M311.29,244.613
		c-0.362,0.091-0.804,0.414-1.248,0.749"/>
	<path fill="none" stroke="#000000" stroke-width="2.339" stroke-linecap="round" d="M311.29,244.613
		c0.84-1.248,0.948-2.496,0.999-3.744"/>
	<path fill="none" stroke="#000000" stroke-width="1.197" stroke-linecap="round" d="M312.289,240.867
		c-1.969-1.442-3.548-3.691-5.031-5.44c-1.325-1.564-3.062-3.244-4.153-4.834c-1.944-2.83-2.939-5.661-4.423-8.827"/>
	<path fill="none" stroke="#000000" stroke-width="1.1799" stroke-linecap="round" d="M298.68,221.766
		c-1.641,0.302-3.335,1.246-4.109,2.038c-1.994,2.038-3.946,2.899-5.135,4.056c-0.938,0.914-1.222,1.808-2.038,2.355
		c-3.214,2.152-8.751,4.793-12.899,5.706c-2.798,0.615-6.872,0.123-11.274,1.576"/>
	<path fill="none" stroke="#000000" stroke-width="1.2712" stroke-linecap="round" d="M263.224,237.496
		c0.282,2.515,2.489,3.841,2.964,6.354c-0.613,2.451-1.79,4.612-2.984,6.471c-0.271,0.451-0.244,1.124-0.228,1.684
		c2.699,3.384,8.271,4.992,8.487,10.023"/>
	<path fill="none" stroke="#000000" stroke-width="1.3562" stroke-linecap="round" d="M277.831,271.579
		c2.261,0.971,2.484,3.824,3.746,5.617"/>
	<path fill="none" stroke="#000000" stroke-width="1.5085" stroke-linecap="round" d="M248.117,247.859
		c2.288-5.997-2.99-12.12-1.199-18.384c0.492-0.052,0.809-0.931,1.698-2.09"/>
	<path fill="none" stroke="#000000" stroke-width="1.6182" stroke-linecap="round" d="M248.617,227.384
		c-0.251-0.771-0.372-1.327-0.562-1.873"/>
	<path fill="none" stroke="#000000" stroke-width="1.2296" stroke-linecap="round" d="M275.584,321.394
		c1.752-0.171,3.5,0.897,5.195-0.013c2.524-1.599,3.985-4.514,6.79-5.605"/>
	<path fill="none" stroke="#000000" stroke-width="1.393" stroke-linecap="round" d="M277.831,333.004
		c0.572,1.017,1.069,1.759,1.798,2.422c2.153,0.469,4.5-0.003,6.442-0.924"/>
	<path fill="none" stroke="#000000" stroke-width="1.0257" stroke-linecap="round" d="M278.955,350.983
		c3.381,0.447,6.491,2.169,10.112,1.498"/>
	<path fill="none" stroke="#000000" stroke-width="0.9326" stroke-linecap="round" d="M289.067,352.481
		c-1.878-2.357-5.312-2.66-7.865-4.12"/>
	<path fill="none" stroke="#000000" stroke-width="1.4859" stroke-linecap="round" d="M289.067,352.481
		c5.584,1.69,11.369-0.86,16.854-0.375"/>
	<path fill="none" stroke="#000000" stroke-width="1.2974" stroke-linecap="round" d="M305.922,352.106
		c0.64-1.154,1.791-1.789,2.436-2.996"/>
	<path fill="none" stroke="#000000" stroke-width="1.5304" stroke-linecap="round" d="M308.356,349.11
		c-0.074-1.329-1.664-1.217-2.131-2.206c0.923-2.271,1.184-5.226-1.803-6.034"/>
	<path fill="none" stroke="#000000" stroke-width="1.1478" stroke-linecap="round" d="M304.424,340.868
		c-2.721,1.586-4.521,4.851-7.893,5.571c-2.313-1.066-5.132-0.93-7.464-2.2"/>
	<path fill="none" stroke="#000000" stroke-width="1.3937" stroke-linecap="round" d="M304.424,340.868
		c-0.172-1.384-1.453-1.487-2.434-2.074c-0.269-0.501-0.433-0.875-0.527-1.285c0.339-2.255,2.376-3.375,3.336-5.254"/>
	<path fill="none" stroke="#000000" stroke-width="1.3658" stroke-linecap="round" d="M304.798,332.255
		c-1.117-0.955-2.207-1.859-3.559-2.449c-1.671-3.196,1.414-6.808-0.295-10.184c-0.309-0.321-0.607-0.424-0.89-0.602"/>
	<path fill="none" stroke="#000000" stroke-width="1.1844" stroke-linecap="round" d="M300.054,319.022
		c-1.645,2.59-3.596,4.94-5.533,7.442c-2.965,0.636-5.646,1.661-8.45,2.795"/>
	<path fill="none" stroke="#000000" stroke-width="1.2256" stroke-linecap="round" d="M300.054,319.022
		c-0.043-2.688-1.896-3.479-3.147-5.845c-0.495-0.936-1.33-1.491-2.038-2.432c-0.583-0.771-2.431-3.975-3.959-6.437
		c-0.314-0.508-1.072-1.177-1.477-1.745c-1.088-1.528-1.974-3.842-2.833-5.3c-0.524-0.889-1.076-1.84-1.672-2.181
		c-1.429-8.117-6.263-15.377-7.097-23.505"/>
	<path fill="none" stroke="#000000" stroke-width="1.6205" stroke-linecap="round" d="M277.831,271.579
		c-1.679-2.961-3.228-6.414-5.041-9.163c-0.392-0.129-0.909-0.239-1.327-0.389"/>
	<path fill="none" stroke="#000000" stroke-width="1.3977" stroke-linecap="round" d="M271.464,262.029
		c-0.752,0.01-1.005,0.963-1.231,1.954c-1.158,2.574-3.289,4.71-3.636,7.598"/>
	<path fill="none" stroke="#000000" stroke-width="1.0832" stroke-linecap="round" d="M248.367,252.353
		c0.002-1.418,0.783-3.181-0.25-4.494"/>
	<path fill="none" stroke="#000000" stroke-width="1.2811" stroke-linecap="round" d="M248.117,247.859
		c-1.14,0.021-2.152,0.614-3.233,0.843c-0.404-0.067-0.89-0.31-1.31-0.555c-0.146-0.857-0.829-1.178-1.191-1.677
		c-0.004-3.082-1.974-5.33-3.129-8.225"/>
	<path fill="none" stroke="#000000" stroke-width="1.1712" stroke-linecap="round" d="M239.253,238.245
		c-1.888,0.683-3.354,2.476-3.552,4.463c0.193,2.084,2.131,2.927,2.429,4.899"/>
	<path fill="none" stroke="#000000" stroke-width="0.9671" stroke-linecap="round" d="M239.253,251.729
		c0.51-0.24,1.042-0.457,1.498-0.749"/>
	<path fill="none" stroke="#000000" stroke-width="1.34" stroke-linecap="round" d="M240.751,250.98
		c-0.77-1.229-0.94-3.035-2.622-3.371"/>
	<path fill="none" stroke="#000000" stroke-width="1.4602" stroke-linecap="round" d="M241.625,253.602
		c-0.146-1.059-0.506-1.934-0.874-2.622"/>
	<path fill="none" stroke="#000000" stroke-width="1.3578" stroke-linecap="round" d="M248.991,257.722
		c1.161-1.607,0.822-4.113-0.625-5.369"/>
	<path fill="none" stroke="#000000" stroke-width="1.0257" stroke-linecap="round" d="M248.367,252.353
		c-2.058,1.237-3.975,2.654-6.492,1.623"/>
	<path fill="none" stroke="#000000" stroke-width="1.1516" stroke-linecap="round" d="M249.74,262.216
		c0.786-1.43-0.171-3.155-0.749-4.494"/>
	<path fill="none" stroke="#000000" stroke-width="1.4506" stroke-linecap="round" d="M248.991,257.722
		c-1.292,0.961-2.895,0.611-4.37,0.874"/>
	<path fill="none" stroke="#000000" stroke-width="1.2562" stroke-linecap="round" d="M307.794,355.477
		c5.695,2.894,12.236,5.235,18.728,4.494"/>
	<path fill="none" stroke="#000000" stroke-width="0.9364" stroke-linecap="round" d="M326.521,359.971
		c-1.519-1.842-3.21-2.022-5.396-2.843c-2.432-0.913-4.646-1.907-6.516-3.223c-1.756-1.234-2.813-2.991-4.735-4.257
		c-0.471-0.311-1.023-0.369-1.518-0.54"/>
	<path fill="none" stroke="#000000" stroke-width="1.1228" stroke-linecap="round" d="M275.396,372.33
		c3.191-0.161,5.452,1.964,8.532,2.519c6.26,1.126,13.055-0.746,19.371,0.104"/>
	<path fill="none" stroke="#000000" stroke-width="1.5699" stroke-linecap="round" d="M303.3,374.952
		c1.396-1.156,2.07-4.512,2.599-6.733c0.548-2.311,1.341-3.342,1.148-5.294c-0.159-1.618-1.999-2.684-1.262-4.981
		c0.267-0.229,0.422-0.566,0.573-0.912c0.427-0.227,0.873-0.637,1.438-1.555"/>
	<path fill="none" stroke="#000000" stroke-width="1.3213" stroke-linecap="round" d="M307.794,355.477
		c-0.232-1.395-2.068-1.788-1.873-3.371"/>
	<path fill="none" stroke="#000000" stroke-width="1.3578" stroke-linecap="round" d="M309.043,379.198
		c11.237,2.738,22.993,0.756,34.208-0.749"/>
	<path fill="none" stroke="#000000" stroke-width="1.7027" stroke-linecap="round" d="M343.251,378.448
		c1.011-0.523,1.666-0.939,2.789-1.439c1.969-3.196-1.272-5.715-1.762-8.334c-0.563-3.024,2.099-7.374,2.46-12.455
		c-0.745-1.633-1.81-2.114-2.394-2.821c-0.87-0.104-1.425-0.12-2.093-0.168"/>
	<path fill="none" stroke="#000000" stroke-width="1.4221" stroke-linecap="round" d="M342.252,353.23
		c-0.191,1.089-0.342,1.93-0.537,2.398c-4.361,3.115-10.092,4.079-15.193,4.343"/>
	<path fill="none" stroke="#000000" stroke-width="0.9312" stroke-linecap="round" d="M256.482,385.815
		c1.04,1.455,2.007,2.745,2.996,4.12"/>
	<path fill="none" stroke="#000000" stroke-width="1.2083" stroke-linecap="round" d="M222.212,407.537
		c1.118,0.35,2.312,0.299,3.288,1.021c8.119,0.929,17.375,1.926,27.195,1.303c9.524-0.604,18.936-2.705,28.465-3.745
		c4.341-0.474,9.458-1.324,13.337-0.263"/>
	<path fill="none" stroke="#000000" stroke-width="1.4885" stroke-linecap="round" d="M294.498,405.853
		c3.675-1.046,5.921-5.293,7.709-8.656c0.145-0.271,0.635-1.024,0.889-1.439c2.773-4.563,6.974-9.735,5.209-14.942
		c0.432-0.813,0.518-1.162,0.738-1.616"/>
	<path fill="none" stroke="#000000" stroke-width="1.0855" stroke-linecap="round" d="M309.043,379.198
		c-1.177-0.88-2.555-1.109-3.87-1.623"/>
	<path fill="none" stroke="#000000" stroke-width="1.1633" stroke-linecap="round" d="M305.173,377.573
		c-1.933,1.259-4.26,0.894-6.366,1.498"/>
	<path fill="none" stroke="#000000" stroke-width="1.5291" stroke-linecap="round" d="M305.173,377.573
		c-0.336-0.735-1.536-1.429-1.873-2.621"/>
	<path fill="none" stroke="#000000" stroke-width="0.9515" stroke-linecap="round" d="M274.46,374.577
		c1.988,1.094,4.195,1.461,6.367,1.873"/>
	<path fill="none" stroke="#000000" stroke-width="1.5309" stroke-linecap="round" d="M288.693,411.471
		c-0.439,4.845-5.348,9.61-3.371,14.42"/>
	<path fill="none" stroke="#000000" stroke-width="1.2456" stroke-linecap="round" d="M285.322,425.891
		c2.128,1.968,4.896,3.49,7.643,4.342c1.043,0.323,2.446,0.042,3.358,0.387c0.917,0.349,5.065,0.647,8.058,0.813
		c10.909,0.604,22.527,0.653,29.995-5.268c0.889-2.11,2.894-3.303,3.381-5.52"/>
	<path fill="none" stroke="#000000" stroke-width="1.1026" stroke-linecap="round" d="M337.758,420.647
		c0.616-1.058,0.71-1.934,1.124-2.622"/>
	<path fill="none" stroke="#000000" stroke-width="1.1605" stroke-linecap="round" d="M338.881,418.025
		c0.391-1.212,0.139-2.602,0.749-3.745"/>
	<path fill="none" stroke="#000000" stroke-width="1.348" stroke-linecap="round" d="M339.63,414.28
		c0.221-2.714,0.758-5.892,2.997-7.678"/>
	<path fill="none" stroke="#000000" stroke-width="1.6182" stroke-linecap="round" d="M342.627,406.602
		c0.517,0.124,0.984,0.199,1.373,0.312"/>
	<path fill="none" stroke="#000000" stroke-width="1.2756" stroke-linecap="round" d="M344.499,403.418
		c-1.42,0.479-1.578,1.936-1.873,3.184"/>
	<path fill="none" stroke="#000000" stroke-width="1.3474" stroke-linecap="round" d="M222.212,407.537
		c0.201,0.201-0.837,2.12-0.438,3.27c1.121,3.226,14.48,3.945,17.438,4.146c6.078,0.412,14.461,0.4,22.124-0.646
		c6.175-0.845,14.166-2.407,20.574-2.946c2.688-0.226,5.963-0.095,6.783,0.111"/>
	<path fill="none" stroke="#000000" stroke-width="1.4409" stroke-linecap="round" d="M288.693,411.471
		c2.864-0.524,4.113-3.569,5.805-5.618"/>
	<path fill="none" stroke="#000000" stroke-width="1.1844" stroke-linecap="round" d="M339.63,414.28
		c0.487,0.219,1.212,0.628,1.873,1.124"/>
	<path fill="none" stroke="#000000" stroke-width="0.9671" stroke-linecap="round" d="M338.881,418.025
		c0.509,0.241,1.042,0.457,1.498,0.75"/>
	<path fill="none" stroke="#000000" stroke-width="1.7962" stroke-linecap="round" d="M340.379,418.775
		c0.513-0.842,1.068-2.163,1.124-3.371"/>
	<path fill="none" stroke="#000000" stroke-width="0.9671" stroke-linecap="round" d="M337.758,420.647
		c0.771,0.503,1.327,0.743,1.873,1.124"/>
	<path fill="none" stroke="#000000" stroke-width="1.3762" stroke-linecap="round" d="M339.63,421.771
		c0.541-0.911,0.839-1.93,0.749-2.996"/>
</g>
</svg>
