<?xml version="1.0" encoding="utf-8"?>
<!-- Generator: Adobe Illustrator 14.0.0, SVG Export Plug-In . SVG Version: 6.00 Build 43363)  -->
<!DOCTYPE svg PUBLIC "-//W3C//DTD SVG 1.1//EN" "http://www.w3.org/Graphics/SVG/1.1/DTD/svg11.dtd">
<svg version="1.1" id="图层_1" xmlns="http://www.w3.org/2000/svg" xmlns:xlink="http://www.w3.org/1999/xlink" x="0px" y="0px"
	 width="848px" height="480px" viewBox="0 0 848 480" enable-background="new 0 0 848 480" xml:space="preserve">
<g>
	<path fill-rule="evenodd" clip-rule="evenodd" fill="none" stroke="#000000" stroke-width="1.3946" stroke-linecap="round" d="
		M241.861,106.334c-0.179-5.73,0.506-11.578-0.701-17.169"/>
	<path fill-rule="evenodd" clip-rule="evenodd" fill="none" stroke="#000000" stroke-width="1.5469" stroke-linecap="round" d="
		M241.861,106.334c0.775,0.399,2.125,0.198,2.945,0.563c1.727,2.872,2.056,6.697,1.173,9.906c-1.178,0.941-2.259,1.881-3.417,2.846"
		/>
	<path fill-rule="evenodd" clip-rule="evenodd" fill="none" stroke="#000000" stroke-width="1.3538" stroke-linecap="round" d="
		M242.562,119.65c-0.396,9.495,0.662,18.997,0,28.383"/>
	<path fill-rule="evenodd" clip-rule="evenodd" fill="none" stroke="#000000" stroke-width="1.2634" stroke-linecap="round" d="
		M241.861,106.334c-0.69,0.258-1.532,0.354-1.963,0.73c-0.316,2.744-1.219,5.293-1.513,8.015c0.067,0.378,0.293,0.833,0.514,1.235
		c1.867,0.547,2.301,2.354,3.664,3.334"/>
	<path fill-rule="evenodd" clip-rule="evenodd" fill="none" stroke="#000000" stroke-width="1.3183" stroke-linecap="round" d="
		M276.551,125.957c-1.023,0.318-1.651-0.405-2.462-0.791c-0.805-2.024-3.439-4.636-1.042-6.568"/>
	<path fill-rule="evenodd" clip-rule="evenodd" fill="none" stroke="#000000" stroke-width="1.6621" stroke-linecap="round" d="
		M273.047,118.598c0.4-1.003,0.008-2.298,0.701-3.153"/>
	<path fill-rule="evenodd" clip-rule="evenodd" fill="none" stroke="#000000" stroke-width="1.3033" stroke-linecap="round" d="
		M273.748,115.445c-0.122-3.053,2.427-5.36,3.154-8.41"/>
	<path fill-rule="evenodd" clip-rule="evenodd" fill="none" stroke="#000000" stroke-width="1.0921" stroke-linecap="round" d="
		M276.902,107.035c0.471-0.741,0.124-2.034,1.285-2.219"/>
	<path fill-rule="evenodd" clip-rule="evenodd" fill="none" stroke="#000000" stroke-width="1.4016" stroke-linecap="round" d="
		M278.186,104.816c0.123-0.608,0.979-1.218,1.402-1.402"/>
	<path fill-rule="evenodd" clip-rule="evenodd" fill="none" stroke="#000000" stroke-width="1.8159" stroke-linecap="round" d="
		M279.588,103.414c-0.041-0.543,0.348-1.073,1.168-1.635"/>
	<path fill-rule="evenodd" clip-rule="evenodd" fill="none" stroke="#000000" stroke-width="1.0395" stroke-linecap="round" d="
		M280.756,101.779c0.849-0.798,0.883-2.465,2.102-2.803"/>
	<path fill-rule="evenodd" clip-rule="evenodd" fill="none" stroke="#000000" stroke-width="1.0512" stroke-linecap="round" d="
		M279.588,103.414c0.746,0.426,1.373,0.668,2.044,0.818"/>
	<path fill-rule="evenodd" clip-rule="evenodd" fill="none" stroke="#000000" stroke-width="1.1727" stroke-linecap="round" d="
		M281.632,104.232c0.199-0.473-0.094-1.341-0.876-2.453"/>
	<path fill-rule="evenodd" clip-rule="evenodd" fill="none" stroke="#000000" stroke-width="1.3795" stroke-linecap="round" d="
		M282.157,107.385c0.627-1.037-0.259-2.143-0.525-3.153"/>
	<path fill-rule="evenodd" clip-rule="evenodd" fill="none" stroke="#000000" stroke-width="1.3856" stroke-linecap="round" d="
		M278.186,104.816c1.341,0.894,2.189,2.366,3.971,2.569"/>
	<path fill-rule="evenodd" clip-rule="evenodd" fill="none" stroke="#000000" stroke-width="1.1653" stroke-linecap="round" d="
		M279.004,125.781c2.207,0.749,3.548-1.725,4.38-3.329"/>
	<path fill-rule="evenodd" clip-rule="evenodd" fill="none" stroke="#000000" stroke-width="1.3111" stroke-linecap="round" d="
		M283.384,122.453c-0.429-1.094,0.158-2.332,0.876-3.154"/>
	<path fill-rule="evenodd" clip-rule="evenodd" fill="none" stroke="#000000" stroke-width="1.593" stroke-linecap="round" d="
		M284.26,119.299c0.29-4.054-0.462-8.126-2.103-11.914"/>
	<path fill-rule="evenodd" clip-rule="evenodd" fill="none" stroke="#000000" stroke-width="0.8965" stroke-linecap="round" d="
		M273.748,115.445c1.721-0.471,3.667-0.115,4.742-1.913c0.081-0.609,0.342-1.169,0.631-1.708"/>
	<path fill-rule="evenodd" clip-rule="evenodd" fill="none" stroke="#000000" stroke-width="1.0259" stroke-linecap="round" d="
		M279.121,111.824c-0.689-1.639-0.198-3.986-2.219-4.789"/>
	<path fill-rule="evenodd" clip-rule="evenodd" fill="none" stroke="#000000" stroke-width="0.955" stroke-linecap="round" d="
		M276.902,121.752c0.619-0.316,1.566-0.302,2.453-0.351"/>
	<path fill-rule="evenodd" clip-rule="evenodd" fill="none" stroke="#000000" stroke-width="1.4256" stroke-linecap="round" d="
		M279.354,121.402c2.28-2.515,2.18-6.203,0.887-9.26c-0.371-0.134-0.794-0.208-1.121-0.317"/>
	<path fill-rule="evenodd" clip-rule="evenodd" fill="none" stroke="#000000" stroke-width="0.8741" stroke-linecap="round" d="
		M276.551,125.957c0.002-1.399-0.418-2.922,0.351-4.205"/>
	<path fill-rule="evenodd" clip-rule="evenodd" fill="none" stroke="#000000" stroke-width="0.9911" stroke-linecap="round" d="
		M276.902,121.752c-1.35-1.007-2.993-1.616-3.854-3.154"/>
	<path fill-rule="evenodd" clip-rule="evenodd" fill="none" stroke="#000000" stroke-width="1.2795" stroke-linecap="round" d="
		M283.384,122.453c0.987-0.027,1.826-0.766,1.902-1.744c-0.3-0.563-0.677-0.956-1.026-1.41"/>
	<path fill-rule="evenodd" clip-rule="evenodd" fill="none" stroke="#000000" stroke-width="1.9998" stroke-linecap="round" d="
		M276.551,125.957c0.68,0.276,1.562,0.028,2.453-0.175"/>
	<path fill-rule="evenodd" clip-rule="evenodd" fill="none" stroke="#000000" stroke-width="0.9402" stroke-linecap="round" d="
		M279.004,125.781c0.491-1.436,0.519-2.893,0.35-4.38"/>
	<path fill-rule="evenodd" clip-rule="evenodd" fill="none" stroke="#000000" stroke-width="1.1264" stroke-linecap="round" d="
		M204.806,104.933c1.048,0.086,1.551,0.315,2.158,0.541c1.302,2.204,2.714,4.51,2.66,7.168"/>
	<path fill-rule="evenodd" clip-rule="evenodd" fill="none" stroke="#000000" stroke-width="1.4965" stroke-linecap="round" d="
		M209.624,112.642c1.478,2.288,2.657,4.444,2.755,7.244c-0.584,0.536-0.898,1.301-1.12,1.867"/>
	<path fill-rule="evenodd" clip-rule="evenodd" fill="none" stroke="#000000" stroke-width="1.567" stroke-linecap="round" d="
		M202.266,120.701c0.938-3.017-0.381-6.393,0.876-9.286"/>
	<path fill-rule="evenodd" clip-rule="evenodd" fill="none" stroke="#000000" stroke-width="2.16" stroke-linecap="round" d="
		M203.142,111.415c-0.042-2.266,0.85-4.403,1.664-6.482"/>
	<path fill-rule="evenodd" clip-rule="evenodd" fill="none" stroke="#000000" stroke-width="1.7493" stroke-linecap="round" d="
		M204.806,104.933c-0.14-2.063-1.474-3.719-2.54-5.256"/>
	<path fill-rule="evenodd" clip-rule="evenodd" fill="none" stroke="#000000" stroke-width="1.5193" stroke-linecap="round" d="
		M203.142,111.415c1.827,0.145,1.208,2.391,2.978,2.628"/>
	<path fill-rule="evenodd" clip-rule="evenodd" fill="none" stroke="#000000" stroke-width="1.1622" stroke-linecap="round" d="
		M206.12,114.043c1.412,0.296,2.432-0.742,3.504-1.401"/>
	<path fill-rule="evenodd" clip-rule="evenodd" fill="none" stroke="#000000" stroke-width="1.0447" stroke-linecap="round" d="
		M202.266,120.701c0.767,1.167,1.647,2.356,1.401,3.854"/>
	<path fill-rule="evenodd" clip-rule="evenodd" fill="none" stroke="#000000" stroke-width="1.44" stroke-linecap="round" d="
		M203.667,124.555c1.28-0.211,1.342,1.85,2.803,1.401"/>
	<path fill-rule="evenodd" clip-rule="evenodd" fill="none" stroke="#000000" stroke-width="0.8583" stroke-linecap="round" d="
		M206.47,125.957c0.016-1.533-0.11-2.76,0.216-3.638c0.314-0.154,0.576-0.359,0.835-0.567"/>
	<path fill-rule="evenodd" clip-rule="evenodd" fill="none" stroke="#000000" stroke-width="0.9786" stroke-linecap="round" d="
		M206.12,114.043c-1.009,2.54-0.321,5.645,1.402,7.709"/>
	<path fill-rule="evenodd" clip-rule="evenodd" fill="none" stroke="#000000" stroke-width="1.0512" stroke-linecap="round" d="
		M207.522,121.752c0.476,0.225,0.974,0.427,1.402,0.701"/>
	<path fill-rule="evenodd" clip-rule="evenodd" fill="none" stroke="#000000" stroke-width="1.0512" stroke-linecap="round" d="
		M208.924,122.453c0.576-0.321,1.341-0.567,2.336-0.701"/>
	<path fill-rule="evenodd" clip-rule="evenodd" fill="none" stroke="#000000" stroke-width="1.1883" stroke-linecap="round" d="
		M202.266,120.701c-0.746,1.153-0.738,2.445-0.483,3.292c0.532,0.391,1.107,0.492,1.884,0.562"/>
	<path fill-rule="evenodd" clip-rule="evenodd" fill="none" stroke="#000000" stroke-width="1.5071" stroke-linecap="round" d="
		M206.47,125.957c0.627,0.406,1.325,0.638,1.987,0.656c0.241-0.16,0.528-0.577,0.816-1.006"/>
	<path fill-rule="evenodd" clip-rule="evenodd" fill="none" stroke="#000000" stroke-width="1.4866" stroke-linecap="round" d="
		M209.274,125.607c-0.38-1.197-0.313-2.382-0.35-3.154"/>
	<path fill-rule="evenodd" clip-rule="evenodd" fill="none" stroke="#000000" stroke-width="1.7036" stroke-linecap="round" d="
		M209.274,125.607c1.783-0.3,2.132-2.362,1.986-3.854"/>
	<path fill-rule="evenodd" clip-rule="evenodd" fill="none" stroke="#000000" stroke-width="1.5425" stroke-linecap="round" d="
		M218.384,118.598c0.161-0.073,0.321-0.146,0.481-0.22c3.141-4.146,3.131-9.466,3.374-14.497"/>
	<path fill-rule="evenodd" clip-rule="evenodd" fill="none" stroke="#000000" stroke-width="1.0975" stroke-linecap="round" d="
		M261.484,103.882c-0.679,4.809-1.352,10.409,2.453,14.016"/>
	<path fill-rule="evenodd" clip-rule="evenodd" fill="none" stroke="#000000" stroke-width="1.0995" stroke-linecap="round" d="
		M242.562,115.094c-0.161-1.391-0.495-2.769-0.351-4.205"/>
	<path fill-rule="evenodd" clip-rule="evenodd" fill="none" stroke="#000000" stroke-width="1.0705" stroke-linecap="round" d="
		M284.961,239.137c0.45-0.427,0.804-1.282,1.033-2.014c-0.458-0.424-1.321-0.051-2.435-0.088"/>
	<path fill-rule="evenodd" clip-rule="evenodd" fill="none" stroke="#000000" stroke-width="1.0195" stroke-linecap="round" d="
		M139.193,238.436c0.271,1.42,1.363,2.496,2.466,3.246c1.484,4.313,6.126,5.511,10.148,5.865"/>
	<path fill-rule="evenodd" clip-rule="evenodd" fill="none" stroke="#000000" stroke-width="1.0646" stroke-linecap="round" d="
		M212.077,239.838c-0.022-0.164-0.044-0.327-0.066-0.491c1.248-0.225,2.39-0.19,3.57-0.21"/>
	<path fill-rule="evenodd" clip-rule="evenodd" fill="none" stroke="#000000" stroke-width="0.9632" stroke-linecap="round" d="
		M186.147,241.24c0.853-0.314,1.654-0.682,2.803-0.701"/>
	<path fill-rule="evenodd" clip-rule="evenodd" fill="none" stroke="#000000" stroke-width="0.8692" stroke-linecap="round" d="
		M273.047,241.24c1.401,0,2.803,0,4.205,0"/>
	<path fill-rule="evenodd" clip-rule="evenodd" fill="none" stroke="#000000" stroke-width="1.4199" stroke-linecap="round" d="
		M190.352,328.14c0.571-1.82,1.329-2.805,1.995-5.004c1.633-5.388-0.91-9.512-0.243-15.32"/>
	<path fill-rule="evenodd" clip-rule="evenodd" fill="none" stroke="#000000" stroke-width="1.3547" stroke-linecap="round" d="
		M318.599,327.439c-1.531-0.908-2.243-2.519-4.024-2.993c-2.257-4.867-0.845-10.713-1.933-15.929"/>
	<path fill-rule="evenodd" clip-rule="evenodd" fill="none" stroke="#000000" stroke-width="1.1515" stroke-linecap="round" d="
		M289.516,107.035c-0.472,1.161-1.363,2.199-1.401,3.504"/>
	<path fill-rule="evenodd" clip-rule="evenodd" fill="none" stroke="#000000" stroke-width="1.0357" stroke-linecap="round" d="
		M288.115,110.539c1.633,3.465,6.029,3.442,7.919,6.732c0.001,1.648,0.556,3.186,0.491,4.831"/>
	<path fill-rule="evenodd" clip-rule="evenodd" fill="none" stroke="#000000" stroke-width="0.9911" stroke-linecap="round" d="
		M296.524,122.102c0.143,0.489,0.364,1.224,0.729,1.615c2.507,1.272,5.512,4.831,6.813,6.597c2.099,2.849,3.786,6.229,4.78,9.748
		c-2.224,2.228-6.118,0.038-8.819,1.313"/>
	<path fill-rule="evenodd" clip-rule="evenodd" fill="none" stroke="#000000" stroke-width="1.2424" stroke-linecap="round" d="
		M300.028,141.375c0.209,4.162-0.007,8.245-1.157,12.162c-2.303,1.666-3.833,4.168-4.8,6.76"/>
	<path fill-rule="evenodd" clip-rule="evenodd" fill="none" stroke="#000000" stroke-width="1.2326" stroke-linecap="round" d="
		M294.071,160.297c-0.294,3.364-0.296,6.698-1.908,10.308c-0.214,0.479-3.157,5.314-4.574,6.673
		c-0.418,0.401-1.466,0.578-1.746,1.071c-1.146,2.024-2.003,4.594-1.233,7.176"/>
	<path fill-rule="evenodd" clip-rule="evenodd" fill="none" stroke="#000000" stroke-width="1.3111" stroke-linecap="round" d="
		M284.611,185.526c1.16,1.283,1.098,2.996,1.752,4.555"/>
	<path fill-rule="evenodd" clip-rule="evenodd" fill="none" stroke="#000000" stroke-width="1.0216" stroke-linecap="round" d="
		M286.363,190.081c1.369,0.513,1.771,2.058,3.037,2.569"/>
	<path fill-rule="evenodd" clip-rule="evenodd" fill="none" stroke="#000000" stroke-width="0.9609" stroke-linecap="round" d="
		M289.399,192.65c1.782-2.471,3.635-4.488,5.84-6.541"/>
	<path fill-rule="evenodd" clip-rule="evenodd" fill="none" stroke="#000000" stroke-width="1.3111" stroke-linecap="round" d="
		M295.24,186.11c-0.026-0.088-0.053-0.176-0.079-0.264c0.101-1.972,2.494-1.91,3.116-3.474"/>
	<path fill-rule="evenodd" clip-rule="evenodd" fill="none" stroke="#000000" stroke-width="1.0155" stroke-linecap="round" d="
		M298.276,182.372c1.572-3.004,4.872-4.17,7.508-5.807c1.196-0.742,1.986-1.798,3.16-2.447c0.507-0.28,1.271-0.121,1.741-0.361
		c0.68-0.348,1.195-1.248,2.459-1.746c2.928-1.153,5.537-2.712,8.97-3.645c1.122-0.305,2.276-1.386,3.649-1.958
		c0.839-0.349,2.433-0.505,3.354-0.851c3.752-1.409,7.644-3.686,11.697-3.292c0.277,0.448,0.432,0.797,0.528,1.175
		c-0.072,0.687-0.711,1.293-1.072,2.061c-1.241,0.185-3.852,4.666-7.414,7.214c-0.983,0.704-3.616,3.772-5.602,5.603
		c-1.319,1.215-3.561,3.259-5.324,5.248c-3.013,3.399-5.123,7.46-8.938,10.018"/>
	<path fill-rule="evenodd" clip-rule="evenodd" fill="none" stroke="#000000" stroke-width="1.1407" stroke-linecap="round" d="
		M307.386,205.498c0.686,3.446,0.67,6.976,1.592,10.329c2.3,1.333,4.31,3.134,5.788,5.307c0.413,0.103,1.016,0.338,1.543,0.68
		c1.581,3.023,2.989,6.024,4.042,9.265"/>
	<path fill-rule="evenodd" clip-rule="evenodd" fill="none" stroke="#000000" stroke-width="0.9985" stroke-linecap="round" d="
		M320.351,231.078c7.095-0.104,14.91-0.027,19.913-5.325c0.111-0.118,0.294-0.168,0.411-0.281"/>
	<path fill-rule="evenodd" clip-rule="evenodd" fill="none" stroke="#000000" stroke-width="1.0652" stroke-linecap="round" d="
		M340.675,225.471c-0.053-5.046,2.509-9.517,6.115-12.807c4.098-1.529,5.667-0.224,10.148,1.449
		c3.737,4.673,8.814,2.773,12.307-0.027c3.331-2.67,7.945-5.216,12.911-3.464c1.904,0.672,6.273,1.461,8.844,4.355
		c0.979,5.789,2.967,10.494,0.795,15.956c-0.056,0.14-0.452,0.144-0.502,0.292c-0.18,0.525-0.047,1.418-0.272,1.917
		c-0.593,1.309-2.301,2.312-2.341,4.594"/>
	<path fill-rule="evenodd" clip-rule="evenodd" fill="none" stroke="#000000" stroke-width="1.2027" stroke-linecap="round" d="
		M388.68,237.736c0.494,0.096,2.15,2.434,2.555,3.148c0.344,0.607,1.118,1.177,1.224,2.073c0.521,4.435-0.482,10.543-4.83,10.896"/>
	<path fill-rule="evenodd" clip-rule="evenodd" fill="none" stroke="#000000" stroke-width="0.955" stroke-linecap="round" d="
		M319.651,273.827c1.725,1.102,3.603,2.076,4.205,4.204"/>
	<path fill-rule="evenodd" clip-rule="evenodd" fill="none" stroke="#000000" stroke-width="1.116" stroke-linecap="round" d="
		M323.856,278.031c1.039,1.56,2.168,3.08,2.835,4.762c1.489,0.839,2.75,2.581,2.596,4.349"/>
	<path fill-rule="evenodd" clip-rule="evenodd" fill="none" stroke="#000000" stroke-width="1.2138" stroke-linecap="round" d="
		M329.287,287.142c1.231,1.86,3.282,3.003,4.029,5.257"/>
	<path fill-rule="evenodd" clip-rule="evenodd" fill="none" stroke="#000000" stroke-width="1.2272" stroke-linecap="round" d="
		M333.316,292.399c2.321,2.206,3.884,5.944,5.286,8.624c0.077,0.146,0.444,0.13,0.51,0.284c0.229,0.527,0.147,1.369,0.323,1.754
		c-0.037-0.081,2.301,2.886,0.889,4.755"/>
	<path fill-rule="evenodd" clip-rule="evenodd" fill="none" stroke="#000000" stroke-width="1.3848" stroke-linecap="round" d="
		M340.324,307.816c3.389,7.769,0.733,16.05-3.329,22.776"/>
	<path fill-rule="evenodd" clip-rule="evenodd" fill="none" stroke="#000000" stroke-width="1.3629" stroke-linecap="round" d="
		M336.996,330.592c0.347,5.104-2.704,10.37-0.668,15.563c1.063,0.928,0.812,2.447,0.843,3.71"/>
	<path fill-rule="evenodd" clip-rule="evenodd" fill="none" stroke="#000000" stroke-width="1.1444" stroke-linecap="round" d="
		M218.151,315.058c-2.535,1.362-4.512,3.433-6.891,5.022"/>
	<path fill-rule="evenodd" clip-rule="evenodd" fill="none" stroke="#000000" stroke-width="1.2459" stroke-linecap="round" d="
		M211.26,320.08c0.146,1.059-0.371,5.231,2.89,10.893c1.874,3.254,3.631,11.383,4.618,15.007c1.395,5.126,12.826,11.063,8.138,20.11
		c-0.453,0.873-1.99,4.248-3.79,6.012c-0.479,0.47-1.275,0.604-1.746,1.071c-4.364,4.335-9.341,10.024-17.313,10.774
		c-1.444,2.893-4.324,5.445-7.749,4.111"/>
	<path fill-rule="evenodd" clip-rule="evenodd" fill="none" stroke="#000000" stroke-width="1.4866" stroke-linecap="round" d="
		M196.309,388.059c-1.591,1.804-3.99,2.518-5.889,3.922c-4.091,3.024-7.048,7.419-11.604,9.905
		c-0.525-0.092-0.963-0.289-1.291-0.544c-1.805-5.244-2.588-10.946-1.189-16.438"/>
	<path fill-rule="evenodd" clip-rule="evenodd" fill="none" stroke="#000000" stroke-width="1.1727" stroke-linecap="round" d="
		M176.336,384.905c-0.762,0.052-1.729-0.059-2.453-0.351"/>
	<path fill-rule="evenodd" clip-rule="evenodd" fill="none" stroke="#000000" stroke-width="1.0941" stroke-linecap="round" d="
		M173.883,384.554c-2.488,2.802-6.813,5.222-10.629,4.089"/>
	<path fill-rule="evenodd" clip-rule="evenodd" fill="none" stroke="#000000" stroke-width="0.9456" stroke-linecap="round" d="
		M109.76,223.369c0.002-0.313,0.004-0.627,0.006-0.94c0.413-1.231,1.997-2.111,2.958-2.753c1.342-0.896,4.74-3.851,8.838-2.854
		c0.973,0.237,7.471,0.369,9.002,0.811c3.618,1.043,6.795,3.678,9.486,5.931c2.05,0.518,4.034,1.028,6.151,1.558"/>
	<path fill-rule="evenodd" clip-rule="evenodd" fill="none" stroke="#000000" stroke-width="1.1157" stroke-linecap="round" d="
		M146.201,225.121c0.231-0.817,0.725-1.137,1.221-1.586c1.486-4.926,7.213-6.749,11.879-5.908c2.353,1.174,3.931,3.404,5.49,5.126
		c1.675,4.005-1.741,6.888-2.939,10.31"/>
	<path fill-rule="evenodd" clip-rule="evenodd" fill="none" stroke="#000000" stroke-width="1.1222" stroke-linecap="round" d="
		M161.853,233.063c1.12,0.569,2.581,0.611,3.421,1.718c3.508,0.63,6.846-0.854,10.361-0.55"/>
	<path fill-rule="evenodd" clip-rule="evenodd" fill="none" stroke="#000000" stroke-width="1.1491" stroke-linecap="round" d="
		M175.635,234.232c0.311-1.309,0.527-1.551,1.065-1.842c1.108-1.833,1.384-3.069,2.635-4.971c0.829-1.261,2.122-1.39,3.121-2.475
		c1.468-1.594,2.696-3.822,4.612-5.102c0.208-7.814,0.811-14.268,6.263-19.045c3.412-2.99,9.185-3.111,11.037-7.913"/>
	<path fill-rule="evenodd" clip-rule="evenodd" fill="none" stroke="#000000" stroke-width="1.5572" stroke-linecap="round" d="
		M204.368,192.884c-0.162-2.531,0.841-4.375,2.57-6.074"/>
	<path fill-rule="evenodd" clip-rule="evenodd" fill="none" stroke="#000000" stroke-width="1.0644" stroke-linecap="round" d="
		M206.938,186.81c-0.198-1.932-0.443-3.773-1.553-5.349c-0.109-0.156-0.413-0.14-0.501-0.292c-1.691-2.909-4.158-5.101-5.643-7.575
		c-2.078-3.463-3.489-6.638-4.334-11.546"/>
	<path fill-rule="evenodd" clip-rule="evenodd" fill="none" stroke="#000000" stroke-width="1.3111" stroke-linecap="round" d="
		M194.907,162.049c-0.346-0.973-1.464-1.238-2.251-1.6c-4.62-4.315-5.448-11.526-5.458-17.673"/>
	<path fill-rule="evenodd" clip-rule="evenodd" fill="none" stroke="#000000" stroke-width="1.0654" stroke-linecap="round" d="
		M187.198,142.776c-2.467-0.687-5.18,1.222-7.846,0.137c-0.179-2.875-0.007-5.67,1.27-8.127c0.18-0.345,0.677-0.327,0.799-0.566
		c1.524-2.992,3.399-5.325,5.603-7.709c0.982-1.063,2.951-1.777,2.978-3.708"/>
	<path fill-rule="evenodd" clip-rule="evenodd" fill="none" stroke="#000000" stroke-width="1.1131" stroke-linecap="round" d="
		M190.002,122.803c-0.992-5.204,2.999-7.947,6.502-10.672c0.319-0.661,0.463-1.078,0.622-1.475"/>
	<path fill-rule="evenodd" clip-rule="evenodd" fill="none" stroke="#000000" stroke-width="0.9166" stroke-linecap="round" d="
		M197.126,110.656c-4.547-1.918-9.676-3.115-13.432-6.074"/>
	<path fill-rule="evenodd" clip-rule="evenodd" fill="none" stroke="#000000" stroke-width="0.9632" stroke-linecap="round" d="
		M183.694,104.582c-2.724,0.265-4.602-1.803-7.008-2.453"/>
	<path fill-rule="evenodd" clip-rule="evenodd" fill="none" stroke="#000000" stroke-width="0.9676" stroke-linecap="round" d="
		M176.686,102.13c-7.499-3.167-15.152-6.152-22.426-9.812"/>
	<path fill-rule="evenodd" clip-rule="evenodd" fill="none" stroke="#000000" stroke-width="1.0883" stroke-linecap="round" d="
		M154.26,92.318c-2.094-0.05-4.045-1.425-5.606-2.453"/>
	<path fill-rule="evenodd" clip-rule="evenodd" fill="none" stroke="#000000" stroke-width="1.2463" stroke-linecap="round" d="
		M148.654,89.865c-0.316,0-0.632,0.001-0.948,0.002c-1.845-0.642-3.856-1.063-5.169-2.645c-1.718,0.06-2.891-1.353-4.203-2.1
		c-1.251-0.713-2.258-1.05-3.102-1.719c-2.833-2.247-4.109-5.736-4.798-10.956c-0.528-4.003-2.078-7.366-2.729-10.926
		c-0.757-4.143-0.845-6.888-0.426-9.5"/>
	<path fill-rule="evenodd" clip-rule="evenodd" fill="none" stroke="#000000" stroke-width="1.5139" stroke-linecap="round" d="
		M127.28,52.022c-0.192-0.467-0.274-0.934-0.351-1.401"/>
	<path fill-rule="evenodd" clip-rule="evenodd" fill="none" stroke="#000000" stroke-width="1.0304" stroke-linecap="round" d="
		M196.134,90.917c0.478-1.727,0.896-3.61,2.801-4.349c1.668-1.871,4.075-3.558,6.623-3.922c5.571-4,11.247,1.468,16.678,2.748
		c0.463-0.152,1.44-0.318,2.255-0.636c3.906-3.136,9.009-4.184,13.69-5.754"/>
	<path fill-rule="evenodd" clip-rule="evenodd" fill="none" stroke="#000000" stroke-width="1.306" stroke-linecap="round" d="
		M238.182,79.003c0.483-1.313,0.713-2.645,1.454-3.855c0.421-1.797,0.442-5.312,2.231-5.84c0.777,2.986,1.455,6.139,2.213,9.111"/>
	<path fill-rule="evenodd" clip-rule="evenodd" fill="none" stroke="#000000" stroke-width="1.0755" stroke-linecap="round" d="
		M244.08,78.419c0.088-0.026,0.176-0.053,0.264-0.079c5.382,0.103,9.788,3.546,14.842,5.767c1.925,0.846,2.559,1.9,3.967,1.886
		c0.917-0.009,3.467-1.157,4.449-2.274c5.457-2.862,12.864-2.502,17.521,1.78c1.332-0.033,2.074,1.183,3.148,1.744
		c0.278,0.905,0.815,1.533,1.246,2.271"/>
	<path fill-rule="evenodd" clip-rule="evenodd" fill="none" stroke="#000000" stroke-width="0.8583" stroke-linecap="round" d="
		M289.516,89.515c1.895-0.644,3.577-1.613,5.606-1.752"/>
	<path fill-rule="evenodd" clip-rule="evenodd" fill="none" stroke="#000000" stroke-width="1.01" stroke-linecap="round" d="
		M295.122,87.763c0.035-0.117,0.069-0.235,0.103-0.353c2.617-0.947,5.198-2.029,7.957-2.801"/>
	<path fill-rule="evenodd" clip-rule="evenodd" fill="none" stroke="#000000" stroke-width="0.9522" stroke-linecap="round" d="
		M303.182,84.61c7.269-2.376,13.881-5.737,21.375-7.709"/>
	<path fill-rule="evenodd" clip-rule="evenodd" fill="none" stroke="#000000" stroke-width="1.0352" stroke-linecap="round" d="
		M324.556,76.901c1.93-1.124,4.089-1.697,6.307-2.103"/>
	<path fill-rule="evenodd" clip-rule="evenodd" fill="none" stroke="#000000" stroke-width="1.1288" stroke-linecap="round" d="
		M330.864,74.798c0.081-0.153,0.161-0.306,0.242-0.459c2.868-1.417,6.092-2.357,9.15-3.464c4.191-4.192,7.392-9.146,10.389-14.107
		c0.073-0.12,0.468-0.118,0.556-0.281c1.175-2.176,2.002-5.873,4.476-6.972c0.893,1.557-0.508,3.393-0.905,4.924
		c-1.495,5.764-2.874,14.737-6.934,23.317c-1.275,1.383-2.574,2.867-4.509,3.2c-1.778,1.992-4.231,3.146-6.858,3.654"/>
	<path fill-rule="evenodd" clip-rule="evenodd" fill="none" stroke="#000000" stroke-width="1.1312" stroke-linecap="round" d="
		M303.182,84.61c-0.474,1.409,1.349,2.995,1.761,3.599c2.16,3.169,1.672,6.12,3.495,9.716"/>
	<path fill-rule="evenodd" clip-rule="evenodd" fill="none" stroke="#000000" stroke-width="0.9593" stroke-linecap="round" d="
		M308.438,97.925c0.774-0.394,2.127-0.209,2.939-0.564c4.9-2.889,10.261-4.618,15.077-7.338c1.527-0.346,3.357-0.953,3.884-2.609"/>
	<path fill-rule="evenodd" clip-rule="evenodd" fill="none" stroke="#000000" stroke-width="1.2138" stroke-linecap="round" d="
		M353.465,229.676c2.082-0.225,3.876-1.091,5.081-2.803"/>
	<path fill-rule="evenodd" clip-rule="evenodd" fill="none" stroke="#000000" stroke-width="1.0372" stroke-linecap="round" d="
		M358.546,226.873c0.182-2.758,0.278-5.304,0-8.059"/>
	<path fill-rule="evenodd" clip-rule="evenodd" fill="none" stroke="#000000" stroke-width="0.9911" stroke-linecap="round" d="
		M358.546,226.873c0.528-0.091,1.139-0.427,1.401-1.051"/>
	<path fill-rule="evenodd" clip-rule="evenodd" fill="none" stroke="#000000" stroke-width="0.9755" stroke-linecap="round" d="
		M353.289,239.137c5.229,1.118,11.76-1.437,12.965-7.008"/>
	<path fill-rule="evenodd" clip-rule="evenodd" fill="none" stroke="#000000" stroke-width="0.9805" stroke-linecap="round" d="
		M320.351,231.078c-3.219,1.852-6.225,4.102-7.737,7.576c-1.201-0.26-1.512,0.882-2.425,1.185"/>
	<path fill-rule="evenodd" clip-rule="evenodd" fill="none" stroke="#000000" stroke-width="1.1911" stroke-linecap="round" d="
		M286.363,190.081c-1.081,1.768-0.915,4.534-2.803,5.606"/>
	<path fill-rule="evenodd" clip-rule="evenodd" fill="none" stroke="#000000" stroke-width="0.9911" stroke-linecap="round" d="
		M284.611,185.526c-1.405,0.549-1.181,2.438-2.103,3.504"/>
	<path fill-rule="evenodd" clip-rule="evenodd" fill="none" stroke="#000000" stroke-width="0.9911" stroke-linecap="round" d="
		M294.071,160.297c-1.361,0.202-2.334,1.266-3.504,1.752"/>
	<path fill-rule="evenodd" clip-rule="evenodd" fill="none" stroke="#000000" stroke-width="0.9371" stroke-linecap="round" d="
		M300.028,141.375c-3.386-0.547-8.541-0.938-11.213,1.401"/>
	<path fill-rule="evenodd" clip-rule="evenodd" fill="none" stroke="#000000" stroke-width="0.9911" stroke-linecap="round" d="
		M288.815,142.776c0.347,0.821,0.875,1.461,1.051,2.453"/>
	<path fill-rule="evenodd" clip-rule="evenodd" fill="none" stroke="#000000" stroke-width="1.3906" stroke-linecap="round" d="
		M288.815,142.776c-0.492,0.023-1.456,0.28-1.97,0.727c-0.172,1.138-0.253,2.355,0.042,3.479"/>
	<path fill-rule="evenodd" clip-rule="evenodd" fill="none" stroke="#000000" stroke-width="1.0259" stroke-linecap="round" d="
		M286.888,146.981c0.493,0.084,0.958,0.312,1.39,0.542c0.205,1.353,1.673,2.777,0.187,4.013"/>
	<path fill-rule="evenodd" clip-rule="evenodd" fill="none" stroke="#000000" stroke-width="1.1727" stroke-linecap="round" d="
		M206.938,186.81c0.173,0.039,0.385,0.124,0.598,0.21c0.181,0.233,0.261,0.592,0.336,0.958"/>
	<path fill-rule="evenodd" clip-rule="evenodd" fill="none" stroke="#000000" stroke-width="0.9911" stroke-linecap="round" d="
		M204.368,192.884c1.799,0.452,1.137,3.003,2.803,3.504"/>
	<path fill-rule="evenodd" clip-rule="evenodd" fill="none" stroke="#000000" stroke-width="0.8446" stroke-linecap="round" d="
		M175.635,234.232c2.641,1.425,5.664,2.871,7.205,5.41c1.979,0.857,3.488-0.697,5.41-0.504"/>
	<path fill-rule="evenodd" clip-rule="evenodd" fill="none" stroke="#000000" stroke-width="1.567" stroke-linecap="round" d="
		M161.853,233.063c-0.291,0.198-0.526,0.505-0.759,0.818"/>
	<path fill-rule="evenodd" clip-rule="evenodd" fill="none" stroke="#000000" stroke-width="0.9911" stroke-linecap="round" d="
		M161.094,233.881c2.332,4.865,1.899,11.266-2.979,14.366"/>
	<path fill-rule="evenodd" clip-rule="evenodd" fill="none" stroke="#000000" stroke-width="1.3639" stroke-linecap="round" d="
		M109.76,223.369c3.946,0.789,10.28,4.64,7.708,9.461"/>
	<path fill-rule="evenodd" clip-rule="evenodd" fill="none" stroke="#000000" stroke-width="0.9202" stroke-linecap="round" d="
		M117.468,232.83c2.727,1.756,5.565-0.751,8.06-1.752"/>
	<path fill-rule="evenodd" clip-rule="evenodd" fill="none" stroke="#000000" stroke-width="1.067" stroke-linecap="round" d="
		M125.528,231.078c1.421-1.825,2.791-3.861,2.803-6.307"/>
	<path fill-rule="evenodd" clip-rule="evenodd" fill="none" stroke="#000000" stroke-width="0.8092" stroke-linecap="round" d="
		M125.528,231.078c0.496,0.205,0.814,0.587,1.051,1.051"/>
	<path fill-rule="evenodd" clip-rule="evenodd" fill="none" stroke="#000000" stroke-width="0.931" stroke-linecap="round" d="
		M126.579,232.129c3.449,0.367,7.573-0.031,9.11-3.504"/>
	<path fill-rule="evenodd" clip-rule="evenodd" fill="none" stroke="#000000" stroke-width="1.0469" stroke-linecap="round" d="
		M126.579,232.129c-0.323,2.312-1.499,5.122-3.839,6.051c-4.271,4.559-10.449,9.349-9.133,16.408
		c0.002,0.223,0.004,0.445,0.006,0.668"/>
	<path fill-rule="evenodd" clip-rule="evenodd" fill="none" stroke="#000000" stroke-width="1.1425" stroke-linecap="round" d="
		M113.614,255.256c3.8,0.335,7.779,0.39,11.385,1.592c0.457,0.647,0.5,1.482,0.529,2.612"/>
	<path fill-rule="evenodd" clip-rule="evenodd" fill="none" stroke="#000000" stroke-width="1.0265" stroke-linecap="round" d="
		M125.528,259.46c3.599,0.403,5.129-3.075,5.606-5.957"/>
	<path fill-rule="evenodd" clip-rule="evenodd" fill="none" stroke="#000000" stroke-width="1.4774" stroke-linecap="round" d="
		M131.134,253.503c0-0.816,0-2.068,0-2.803"/>
	<path fill-rule="evenodd" clip-rule="evenodd" fill="none" stroke="#000000" stroke-width="0.9365" stroke-linecap="round" d="
		M131.134,250.7c-0.725-2.052-2.751-2.846-3.854-4.556"/>
	<path fill-rule="evenodd" clip-rule="evenodd" fill="none" stroke="#000000" stroke-width="1.0478" stroke-linecap="round" d="
		M131.134,250.7c1.482-0.882,1.959-2.867,2.102-4.556"/>
	<path fill-rule="evenodd" clip-rule="evenodd" fill="none" stroke="#000000" stroke-width="0.9961" stroke-linecap="round" d="
		M131.134,253.503c5.932,1.288,10.448,4.829,17.403,2.22"/>
	<path fill-rule="evenodd" clip-rule="evenodd" fill="none" stroke="#000000" stroke-width="0.8692" stroke-linecap="round" d="
		M148.537,255.723c0.61-1.176,1.991-1.776,3.271-1.869"/>
	<path fill-rule="evenodd" clip-rule="evenodd" fill="none" stroke="#000000" stroke-width="0.9705" stroke-linecap="round" d="
		M148.537,255.723c0.025,0.091,0.05,0.183,0.075,0.273c1.449,1.167,4.383,0.895,6.096,0.057c11.902,1.735,23.776-0.889,34.035-6.611
		c1.917-3.448,4.509-6.562,8.267-7.852"/>
	<path fill-rule="evenodd" clip-rule="evenodd" fill="none" stroke="#000000" stroke-width="2.1024" stroke-linecap="round" d="
		M197.01,241.59c0.117-0.117,0.234-0.233,0.351-0.351"/>
	<path fill-rule="evenodd" clip-rule="evenodd" fill="none" stroke="#000000" stroke-width="1.4553" stroke-linecap="round" d="
		M197.36,241.24c0.96-1.77,1.979-3.702,3.737-4.672"/>
	<path fill-rule="evenodd" clip-rule="evenodd" fill="none" stroke="#000000" stroke-width="1.0638" stroke-linecap="round" d="
		M201.097,236.568c0.7-2.527,1.431-5.556,3.738-7.008"/>
	<path fill-rule="evenodd" clip-rule="evenodd" fill="none" stroke="#000000" stroke-width="1.6683" stroke-linecap="round" d="
		M204.835,229.559c-0.391-2.646-0.037-5.31,0.234-7.942"/>
	<path fill-rule="evenodd" clip-rule="evenodd" fill="none" stroke="#000000" stroke-width="1.4076" stroke-linecap="round" d="
		M205.069,221.617c-0.385-3.784-0.855-7.64-2.103-11.213"/>
	<path fill-rule="evenodd" clip-rule="evenodd" fill="none" stroke="#000000" stroke-width="1.1139" stroke-linecap="round" d="
		M205.069,221.617c0.434-0.17,0.729-0.295,1.018-0.418c2.039-3.897,1.112-8.332,0.734-12.546"/>
	<path fill-rule="evenodd" clip-rule="evenodd" fill="none" stroke="#000000" stroke-width="0.9665" stroke-linecap="round" d="
		M204.835,229.559c0.173,0.039,0.385,0.123,0.599,0.208c0.398,1.868,1.005,3.723,2.595,4.998c6.632,1.283,11.276,3.75,17.152,1.358
		c1.858-0.756,4.826-1.181,7.268-2.543c1.738-0.97,4.589-1.034,6.404-2.706c2.372,0.107,4.349-1.332,6.729-1.233
		c0.495-0.432,0.957-0.592,1.535-1.016"/>
	<path fill-rule="evenodd" clip-rule="evenodd" fill="none" stroke="#000000" stroke-width="0.8173" stroke-linecap="round" d="
		M201.097,236.568c2.695,1.488,5.162,3.285,7.476,5.373"/>
	<path fill-rule="evenodd" clip-rule="evenodd" fill="none" stroke="#000000" stroke-width="0.9632" stroke-linecap="round" d="
		M197.36,241.24c0.744,0.229,1.17,0.323,1.553,0.501c0.043,2.718,2.975,4.24,4.901,5.66c1.001,0.142,2.305,0.235,3.148-0.064
		c5.237-3.688,11.799-5.378,18.431-4.695"/>
	<path fill-rule="evenodd" clip-rule="evenodd" fill="none" stroke="#000000" stroke-width="1.9614" stroke-linecap="round" d="
		M225.392,242.641c0.721-0.125,1.242-0.273,1.752-0.351"/>
	<path fill-rule="evenodd" clip-rule="evenodd" fill="none" stroke="#000000" stroke-width="1.47" stroke-linecap="round" d="
		M195.491,247.781c-0.091,0.024-0.183,0.05-0.274,0.075c-2.928,4.116-3.166,10.179-3.289,15.459"/>
	<path fill-rule="evenodd" clip-rule="evenodd" fill="none" stroke="#000000" stroke-width="1.2057" stroke-linecap="round" d="
		M191.929,263.315c0.286,0.977,0.317,2.48,0.912,3.361c0.301,0.446,1.596,2.893,2.391,4.337c0.038,0.069,0.211,0.063,0.259,0.128"/>
	<path fill-rule="evenodd" clip-rule="evenodd" fill="none" stroke="#000000" stroke-width="0.8761" stroke-linecap="round" d="
		M195.491,271.141c2.416-4.097,7.175-5.043,11.121-6.632c0.592-0.238,1.241-0.102,1.745-0.349c1.965-0.964,3.835-2.588,6.172-2.598"
		/>
	<path fill-rule="evenodd" clip-rule="evenodd" fill="none" stroke="#000000" stroke-width="1.5274" stroke-linecap="round" d="
		M214.53,261.563c0.375-0.293,0.599-0.643,0.701-1.051"/>
	<path fill-rule="evenodd" clip-rule="evenodd" fill="none" stroke="#000000" stroke-width="0.9335" stroke-linecap="round" d="
		M197.36,275.579c1.317,3.127,5.065,6.499,4.737,9.697c-0.005,0.056-0.492,0.062-0.532,0.113"/>
	<path fill-rule="evenodd" clip-rule="evenodd" fill="none" stroke="#000000" stroke-width="1.2264" stroke-linecap="round" d="
		M201.565,285.39c0.493,2.294,2.167,4.332,3.504,6.308"/>
	<path fill-rule="evenodd" clip-rule="evenodd" fill="none" stroke="#000000" stroke-width="1.295" stroke-linecap="round" d="
		M205.069,291.698c3.615,2.004,3.169,7.549,5.796,10.31c0.176,1.229,0.543,2.446,0.511,3.707"/>
	<path fill-rule="evenodd" clip-rule="evenodd" fill="none" stroke="#000000" stroke-width="1.1119" stroke-linecap="round" d="
		M211.376,305.714c1.8,1.125,2.13,3.572,3.009,5.4c0.715,1.846,3.134,2.014,3.766,3.943"/>
	<path fill-rule="evenodd" clip-rule="evenodd" fill="none" stroke="#000000" stroke-width="1.0322" stroke-linecap="round" d="
		M218.151,315.058c3.167,1.409,9.531,5.256,15.048,6.677c1.312,0.338,3.066,0.424,4.209,0.696
		c15.289,3.642,32.507,0.235,44.21-6.747c1.343-0.802,2.015-1.362,2.875-2.027"/>
	<path fill-rule="evenodd" clip-rule="evenodd" fill="none" stroke="#000000" stroke-width="1.3389" stroke-linecap="round" d="
		M284.493,313.656c1.689-6.776,5.193-13.217,7.981-19.316c0.35-0.112,1.014-0.306,1.596-0.54"/>
	<path fill-rule="evenodd" clip-rule="evenodd" fill="none" stroke="#000000" stroke-width="1.1782" stroke-linecap="round" d="
		M294.071,293.8c1.065-2.903,2.313-5.496,4.013-7.869c0.176-0.245,2.92-3.889,4.552-5.287c0.627-0.538,1.837-0.581,2.472-1.036
		c1.138-0.818,2.123-2.233,3.832-3.177c3.532-1.641,7.735,0.09,10.711-2.604"/>
	<path fill-rule="evenodd" clip-rule="evenodd" fill="none" stroke="#000000" stroke-width="1.0537" stroke-linecap="round" d="
		M319.651,273.827c-0.001-0.115-0.002-0.23-0.003-0.346c-1.277-2.76-4.658-3.586-7.005-5.261"/>
	<path fill-rule="evenodd" clip-rule="evenodd" fill="none" stroke="#000000" stroke-width="0.945" stroke-linecap="round" d="
		M312.643,268.221c-0.92,0.929-0.869,2.215-1.752,3.153"/>
	<path fill-rule="evenodd" clip-rule="evenodd" fill="none" stroke="#000000" stroke-width="1.1081" stroke-linecap="round" d="
		M312.643,268.221c-0.068-1.33-1.01-2.379-1.25-3.652c-0.426-0.264-1.08-0.431-1.787-0.553"/>
	<path fill-rule="evenodd" clip-rule="evenodd" fill="none" stroke="#000000" stroke-width="1.0814" stroke-linecap="round" d="
		M309.606,264.016c-1.41,3.913-2.969,8.396-6.774,10.512"/>
	<path fill-rule="evenodd" clip-rule="evenodd" fill="none" stroke="#000000" stroke-width="1.0065" stroke-linecap="round" d="
		M302.831,274.528c-1.076,1.06-1.088,3.278-2.803,3.504"/>
	<path fill-rule="evenodd" clip-rule="evenodd" fill="none" stroke="#000000" stroke-width="1.0295" stroke-linecap="round" d="
		M300.028,278.031c-0.326,2.264-2.279,3.459-3.154,5.257"/>
	<path fill-rule="evenodd" clip-rule="evenodd" fill="none" stroke="#000000" stroke-width="1.2846" stroke-linecap="round" d="
		M309.606,264.016c-0.776-6.193-2.584-12.198-3.796-18.221"/>
	<path fill-rule="evenodd" clip-rule="evenodd" fill="none" stroke="#000000" stroke-width="2.141" stroke-linecap="round" d="
		M305.81,245.795c-0.603-0.81-1.076-1.07-1.507-1.472"/>
	<path fill-rule="evenodd" clip-rule="evenodd" fill="none" stroke="#000000" stroke-width="0.9198" stroke-linecap="round" d="
		M304.303,244.323c-1.635,1.654-1.148,4.556-3.391,5.859c-0.598,0.103-0.977,0.425-1.381,0.722
		c-2.809,0.637-5.382-0.386-8.054-0.764c-1.126-1.436-2.649-2.438-3.87-3.839c-6.233-2.498-13.207-2.95-20.167-2.96"/>
	<path fill-rule="evenodd" clip-rule="evenodd" fill="none" stroke="#000000" stroke-width="1.7047" stroke-linecap="round" d="
		M304.303,244.323c-0.232-0.693-0.736-2.078-1.286-2.866c-0.612-0.128-1.113-0.33-1.587-0.568"/>
	<path fill-rule="evenodd" clip-rule="evenodd" fill="none" stroke="#000000" stroke-width="0.9124" stroke-linecap="round" d="
		M301.43,240.889c-0.305,0.632-0.275,1.582-0.456,2.351c-0.612,0.728-1.052,1.433-1.473,2.015
		c-3.564,1.829-7.765,0.937-10.482-1.766c-1.909-0.282-3.756-0.779-5.46-1.548"/>
	<path fill-rule="evenodd" clip-rule="evenodd" fill="none" stroke="#000000" stroke-width="1.0259" stroke-linecap="round" d="
		M301.43,240.889c0.002-0.118,0.004-0.236,0.007-0.355c-1.736-2.08-4.25-3.574-6.197-5.368"/>
	<path fill-rule="evenodd" clip-rule="evenodd" fill="none" stroke="#000000" stroke-width="0.9357" stroke-linecap="round" d="
		M295.24,235.166c-0.927,2.436-4.296,2.706-4.672,5.373"/>
	<path fill-rule="evenodd" clip-rule="evenodd" fill="none" stroke="#000000" stroke-width="1.0134" stroke-linecap="round" d="
		M295.24,235.166c-0.923-2.699-1.865-5.609-4.438-7.008"/>
	<path fill-rule="evenodd" clip-rule="evenodd" fill="none" stroke="#000000" stroke-width="1.0081" stroke-linecap="round" d="
		M290.801,228.158c-0.091,0.025-0.183,0.05-0.274,0.075c-0.939,0.054-0.766,2.978-2.226,3.738c-1.396,0.726-3.433,1.802-4.203,2.1
		c-2.844,1.102-7.506,2.367-11.542,0.651c-1.921-0.816-3.95-1.842-5.962-2.449c-1.349-0.407-2.937-0.367-4.092-0.822
		c-2.915-1.148-9.316-1.27-12.582-2.125"/>
	<path fill-rule="evenodd" clip-rule="evenodd" fill="none" stroke="#000000" stroke-width="1.1354" stroke-linecap="round" d="
		M290.801,228.158c0.096-3.35,1.276-5.93-0.087-8.791c-0.7-1.47-1.18-4.082-1.315-5.692"/>
	<path fill-rule="evenodd" clip-rule="evenodd" fill="none" stroke="#000000" stroke-width="1.2703" stroke-linecap="round" d="
		M289.399,213.675c-1.926-0.679-0.739-3.526-2.336-4.672"/>
	<path fill-rule="evenodd" clip-rule="evenodd" fill="none" stroke="#000000" stroke-width="0.9681" stroke-linecap="round" d="
		M287.063,209.002c-1.813,0.819-2.351,2.738-3.672,4.037c-7.777,3.673-15.773,6.167-24.081,8.173
		c-0.488,0.429-0.943,0.646-1.681,0.756"/>
	<path fill-rule="evenodd" clip-rule="evenodd" fill="none" stroke="#000000" stroke-width="1.4096" stroke-linecap="round" d="
		M287.063,209.002c0.016-2.886,1.89-5.294,2.453-8.059"/>
	<path fill-rule="evenodd" clip-rule="evenodd" fill="none" stroke="#000000" stroke-width="0.9047" stroke-linecap="round" d="
		M289.516,200.943c-0.476-0.225-0.974-0.427-1.401-0.701"/>
	<path fill-rule="evenodd" clip-rule="evenodd" fill="none" stroke="#000000" stroke-width="1.1636" stroke-linecap="round" d="
		M288.115,200.242c-3.996,2.086-3.235,7.683-7.358,9.461"/>
	<path fill-rule="evenodd" clip-rule="evenodd" fill="none" stroke="#000000" stroke-width="1.1081" stroke-linecap="round" d="
		M280.756,209.703c-0.17,0.434-0.295,0.729-0.418,1.018c-0.413,0.268-1.08,0.293-1.684,0.383"/>
	<path fill-rule="evenodd" clip-rule="evenodd" fill="none" stroke="#000000" stroke-width="0.8856" stroke-linecap="round" d="
		M278.654,211.105c-1.482,1.153-2.738,0.663-4.7,1.607c-1.473,0.708-2.281,1.681-3.856,2.451c-0.348,0.171-0.876,0.026-1.266,0.136
		c-1.146,0.322-1.92,1.524-2.949,1.957c-1.37,0.577-3.313,0.14-4.049,1.558"/>
	<path fill-rule="evenodd" clip-rule="evenodd" fill="none" stroke="#000000" stroke-width="0.8818" stroke-linecap="round" d="
		M278.654,209.703c-2.933-0.538-6-0.84-8.877-1.869"/>
	<path fill-rule="evenodd" clip-rule="evenodd" fill="none" stroke="#000000" stroke-width="1.1001" stroke-linecap="round" d="
		M269.777,207.834c-3.347,0.439-6.658,1.034-10.045,1.168"/>
	<path fill-rule="evenodd" clip-rule="evenodd" fill="none" stroke="#000000" stroke-width="1.0295" stroke-linecap="round" d="
		M259.732,209.002c-1.766,0.963-4.037,2.21-5.957,1.752"/>
	<path fill-rule="evenodd" clip-rule="evenodd" fill="none" stroke="#000000" stroke-width="1.1118" stroke-linecap="round" d="
		M253.775,210.755c-1.599,1.612-3.945,2.347-5.987,3.116c-3.68-1.794-7.306-3.912-11.663-3.687c-0.889-0.856-2.44-0.438-3.375-1.182
		"/>
	<path fill-rule="evenodd" clip-rule="evenodd" fill="none" stroke="#000000" stroke-width="0.8917" stroke-linecap="round" d="
		M232.751,209.002c-2.545,0.224-5.282-0.448-7.709,0.351"/>
	<path fill-rule="evenodd" clip-rule="evenodd" fill="none" stroke="#000000" stroke-width="0.8692" stroke-linecap="round" d="
		M225.042,209.353c-1.383,0.663-2.736,0.968-4.205,1.402"/>
	<path fill-rule="evenodd" clip-rule="evenodd" fill="none" stroke="#000000" stroke-width="0.9014" stroke-linecap="round" d="
		M220.837,210.755c0.152,0.314,0.339,0.595,0.528,0.873c1.894-0.211,3.902,1.256,5.58,2.129c0.903,0.47,1.742,0.463,2.476,1.028
		c0.613,0.472,1.938,1.835,3.141,2.466c1.173,0.615,2.578,0.514,3.832,1.074c1.265,0.565,2.563,2.138,4.209,2.103
		c0.184,0.321,0.329,0.575,0.472,0.826c-0.433,0.326-1.508,0.326-2.363,0.357c-2.293-1.227-8.767-1.922-11.041-3.674
		c-1.504-1.159-5.206-3.149-7.985-3.929c-0.392-0.11-0.92,0.058-1.307-0.093c-0.938-0.367-1.881-1.025-1.747-1.758"/>
	<path fill-rule="evenodd" clip-rule="evenodd" fill="none" stroke="#000000" stroke-width="1.0451" stroke-linecap="round" d="
		M216.632,212.156c-3.053-0.308-4.519-3.589-5.765-6.117c0.106,0.215-2.426-2.803-1.203-4.15c4.039,1.65,6.02,5.954,9.07,8.866"/>
	<path fill-rule="evenodd" clip-rule="evenodd" fill="none" stroke="#000000" stroke-width="0.9381" stroke-linecap="round" d="
		M225.042,209.353c-0.923-1.831-3.053-3.319-4.721-4.389c-1.07-0.687-2.144-1.441-3.338-1.568"/>
	<path fill-rule="evenodd" clip-rule="evenodd" fill="none" stroke="#000000" stroke-width="0.9454" stroke-linecap="round" d="
		M232.751,209.002c-1.477-2.915-6.233-6.241-9.621-8.95c-0.517-0.413-1.313-0.565-1.755-1.039c-2.165-2.319-2.89-5.148-4.89-7.706
		c-0.479-0.075-0.771-0.939-1.605-1.227"/>
	<path fill-rule="evenodd" clip-rule="evenodd" fill="none" stroke="#000000" stroke-width="0.9047" stroke-linecap="round" d="
		M253.775,210.755c0.191-0.276,0.273-0.661,0.35-1.051"/>
	<path fill-rule="evenodd" clip-rule="evenodd" fill="none" stroke="#000000" stroke-width="0.9709" stroke-linecap="round" d="
		M259.732,209.002c0.002-0.231,0.004-0.463,0.006-0.695c2.896-3.306,6.384-6.668,10.294-8.618c2.459-3.574,5.063-6.759,7.22-10.31"
		/>
	<path fill-rule="evenodd" clip-rule="evenodd" fill="none" stroke="#000000" stroke-width="1.0204" stroke-linecap="round" d="
		M269.777,207.834c1.383-2.253,3.213-4.311,5.373-5.84"/>
	<path fill-rule="evenodd" clip-rule="evenodd" fill="none" stroke="#000000" stroke-width="1.0935" stroke-linecap="round" d="
		M289.399,213.675c0.949-2.695,0.591-5.804,1.519-8.526"/>
	<path fill-rule="evenodd" clip-rule="evenodd" fill="none" stroke="#000000" stroke-width="1.0807" stroke-linecap="round" d="
		M305.81,245.795c1.41,0.129,2.202,1.408,3.135,2.296c4.016,0.079,8.286,2.172,12.082,3.23c9.965,2.776,22.21,0.978,32.226-1.139
		c1.648,0.192,3.476,0.38,5.078-0.048c0.218-0.253,0.538-0.4,0.862-0.542c0.27-0.322,0.363-0.604,0.521-0.878"/>
	<path fill-rule="evenodd" clip-rule="evenodd" fill="none" stroke="#000000" stroke-width="1.0447" stroke-linecap="round" d="
		M359.714,248.715c-1.495-1.933-3.049-3.834-3.621-6.074"/>
	<path fill-rule="evenodd" clip-rule="evenodd" fill="none" stroke="#000000" stroke-width="0.9815" stroke-linecap="round" d="
		M359.714,248.715c4.107,0.513,9.086,1.981,12.303-1.713c1.333-0.257,2.701-0.116,4.049-0.156"/>
	<path fill-rule="evenodd" clip-rule="evenodd" fill="none" stroke="#000000" stroke-width="0.9047" stroke-linecap="round" d="
		M376.066,246.846c0.042-0.425,0.193-0.741,0.35-1.051"/>
	<path fill-rule="evenodd" clip-rule="evenodd" fill="none" stroke="#000000" stroke-width="1.1662" stroke-linecap="round" d="
		M376.416,245.795c-2.831-1.71-0.903-5.682-0.35-8.06"/>
	<path fill-rule="evenodd" clip-rule="evenodd" fill="none" stroke="#000000" stroke-width="0.9683" stroke-linecap="round" d="
		M376.416,245.795c1.275-1.709,2.153-4.214,4.556-4.556"/>
	<path fill-rule="evenodd" clip-rule="evenodd" fill="none" stroke="#000000" stroke-width="0.9596" stroke-linecap="round" d="
		M376.066,246.846c-0.141,1.25,0.126,2.117,1.051,3.153"/>
	<path fill-rule="evenodd" clip-rule="evenodd" fill="none" stroke="#000000" stroke-width="0.9417" stroke-linecap="round" d="
		M377.117,249.999c0.461-0.238,0.841-0.56,1.203-0.899c3.282-0.58,5.631,2.324,8.756,2.859c0.382,0.542,0.484,1.116,0.553,1.895"/>
	<path fill-rule="evenodd" clip-rule="evenodd" fill="none" stroke="#000000" stroke-width="1.1939" stroke-linecap="round" d="
		M388.68,237.736c-1.093,0.426-1.751,1.501-2.474,2.32c-0.475,0.145-1.384,0.523-2.059,0.651c-0.798-2.256,1.037-5.411-0.724-7.527"
		/>
	<path fill-rule="evenodd" clip-rule="evenodd" fill="none" stroke="#000000" stroke-width="1.1341" stroke-linecap="round" d="
		M383.424,233.18c-2.508-0.676-5.429-3.478-4.205-6.308"/>
	<path fill-rule="evenodd" clip-rule="evenodd" fill="none" stroke="#000000" stroke-width="0.9911" stroke-linecap="round" d="
		M379.219,226.873c-1.497-0.21-2.7-0.916-4.088-1.518"/>
	<path fill-rule="evenodd" clip-rule="evenodd" fill="none" stroke="#000000" stroke-width="1.001" stroke-linecap="round" d="
		M375.131,225.355c-1.953,1.056-4.399,0.369-5.908-1.1c0.316-1.347-1.442-1.399-1.217-2.638"/>
	<path fill-rule="evenodd" clip-rule="evenodd" fill="none" stroke="#000000" stroke-width="1.2446" stroke-linecap="round" d="
		M375.131,225.355c-1.306-2.798-2.047-5.649-1.405-8.952c1.161-0.479,0.908-2.335,2.34-2.495"/>
	<path fill-rule="evenodd" clip-rule="evenodd" fill="none" stroke="#000000" stroke-width="0.9129" stroke-linecap="round" d="
		M380.971,226.873c-0.531-3.423,0.709-8.617,4.905-8.76"/>
	<path fill-rule="evenodd" clip-rule="evenodd" fill="none" stroke="#000000" stroke-width="0.9047" stroke-linecap="round" d="
		M340.675,225.471c0.476,0.225,0.974,0.427,1.401,0.701"/>
	<path fill-rule="evenodd" clip-rule="evenodd" fill="none" stroke="#000000" stroke-width="1.0923" stroke-linecap="round" d="
		M342.076,226.172c0.249-1.549,0.951-2.97,1.046-4.561c0.128-0.339,0.339-0.595,0.554-0.848c0.032-0.435,0.189-0.745,0.352-1.05
		c5.326-0.938,9.572,4.956,9.437,9.962"/>
	<path fill-rule="evenodd" clip-rule="evenodd" fill="none" stroke="#000000" stroke-width="1.196" stroke-linecap="round" d="
		M342.076,226.172c0.796,2.317,0.872,4.901,1.834,7.289c0.134,0.334,0.684,0.347,0.807,0.575c1.601,2.97,3.555,6.558,7.455,6.847
		c0.777-0.295,0.976-0.994,1.118-1.746"/>
	<path fill-rule="evenodd" clip-rule="evenodd" fill="none" stroke="#000000" stroke-width="1.3675" stroke-linecap="round" d="
		M353.289,239.137c-1.09-2.98-1.111-6.529,0.175-9.461"/>
	<path fill-rule="evenodd" clip-rule="evenodd" fill="none" stroke="#000000" stroke-width="0.9047" stroke-linecap="round" d="
		M272.113,187.044c-0.307-0.558-0.516-1.063-0.817-1.518"/>
	<path fill-rule="evenodd" clip-rule="evenodd" fill="none" stroke="#000000" stroke-width="1.2708" stroke-linecap="round" d="
		M271.295,185.526c-5.813,1.825-11.917,0.34-17.871,0"/>
	<path fill-rule="evenodd" clip-rule="evenodd" fill="none" stroke="#000000" stroke-width="1.0512" stroke-linecap="round" d="
		M271.295,185.526c1.64-1.095,2.847-3.262,5.139-2.803"/>
	<path fill-rule="evenodd" clip-rule="evenodd" fill="none" stroke="#000000" stroke-width="1.9404" stroke-linecap="round" d="
		M276.434,182.722c0.12-0.304,0.349-0.79,0.584-1.285"/>
	<path fill-rule="evenodd" clip-rule="evenodd" fill="none" stroke="#000000" stroke-width="0.8785" stroke-linecap="round" d="
		M277.018,181.437c-0.374-0.579-0.305-1.176-0.238-1.659c0.307-0.15,0.566-0.354,0.822-0.56"/>
	<path fill-rule="evenodd" clip-rule="evenodd" fill="none" stroke="#000000" stroke-width="1.4866" stroke-linecap="round" d="
		M277.602,179.218c0.042-0.275,0.194-0.661,0.351-1.051"/>
	<path fill-rule="evenodd" clip-rule="evenodd" fill="none" stroke="#000000" stroke-width="1.1622" stroke-linecap="round" d="
		M277.953,178.167c-1.695-0.768-2.406-2.78-3.504-4.205"/>
	<path fill-rule="evenodd" clip-rule="evenodd" fill="none" stroke="#000000" stroke-width="1.3215" stroke-linecap="round" d="
		M274.448,173.962c-1.75,1.009-3.271,2.336-4.905,3.504"/>
	<path fill-rule="evenodd" clip-rule="evenodd" fill="none" stroke="#000000" stroke-width="1.348" stroke-linecap="round" d="
		M214.53,174.313c-1.499,0.982-1.055,2.967-2.103,4.205"/>
	<path fill-rule="evenodd" clip-rule="evenodd" fill="none" stroke="#000000" stroke-width="0.9651" stroke-linecap="round" d="
		M216.632,184.474c3.375,0.681,6.048,2.825,9.447,3.125c2.593,0.229,7.14-1.14,9.922-1.627c3.846-0.673,8.228,0.353,11.817-0.798"/>
	<path fill-rule="evenodd" clip-rule="evenodd" fill="none" stroke="#000000" stroke-width="0.987" stroke-linecap="round" d="
		M216.457,185.526c0.039,0.118,0.077,0.237,0.116,0.355c2.922,2.476,5.694,6.442,10.367,8.258c0.849,0.33,2.346,0.297,2.972,0.421
		c3.226,0.64,10.014,1.263,16.115,1.297c5.452,0.031,11.521,0.32,15.705-0.975c4.025-1.246,8.111-4.435,10.38-7.838"/>
	<path fill-rule="evenodd" clip-rule="evenodd" fill="none" stroke="#000000" stroke-width="1.1493" stroke-linecap="round" d="
		M330.864,74.798c1.755,3.404,4.134,6.068,5.606,9.812"/>
	<path fill-rule="evenodd" clip-rule="evenodd" fill="none" stroke="#000000" stroke-width="1.1606" stroke-linecap="round" d="
		M148.654,89.865c1.539-3.783,3.321-7.468,4.555-11.213"/>
	<path fill-rule="evenodd" clip-rule="evenodd" fill="none" stroke="#000000" stroke-width="1.0937" stroke-linecap="round" d="
		M153.209,78.653c-4.506-2.483-9.478-3.752-13.835-6.497c-4.169-6.27-7.396-12.85-10.499-19.593
		c-0.35-0.113-1.014-0.306-1.596-0.541"/>
	<path fill-rule="evenodd" clip-rule="evenodd" fill="none" stroke="#000000" stroke-width="1.4749" stroke-linecap="round" d="
		M238.182,79.003c0.042,0.152,0.085,0.305,0.128,0.457c-1.722,8.586-1.673,17.018-2.757,27.116
		c-0.126,1.176-0.787,2.568-0.907,3.614c-0.832,7.221-0.361,14.447-0.948,21.727c-0.047,0.579-0.486,0.977-0.518,1.496
		c-0.209,3.332-0.124,6.913-0.429,10.305c2.383,4.045,6.229,7.22,10.85,8.141c4.225-0.095,5.623-4.558,8.789-6.363
		c0.545-1.208,1.007-4.278,0.685-7.162c-0.133-1.184-0.775-2.315-0.907-3.617c-0.443-4.347-0.2-8.355-0.846-11.913
		c-0.186-1.023-0.872-1.78-0.963-2.414c-0.118-0.813,0.077-2.147-0.086-3.082c-0.1-0.571-0.559-1.282-0.622-1.833
		c-0.4-3.499-0.225-6.692-0.78-10.083c-0.569-3.478-1.704-11.083-3.149-17.629c-0.226-1.022-0.854-1.779-0.97-2.414
		c-0.395-2.163-0.463-5.165-0.669-6.93"/>
	<path fill-rule="evenodd" clip-rule="evenodd" fill="none" stroke="#000000" stroke-width="1.0901" stroke-linecap="round" d="
		M324.556,76.901c2.357,3.378,4.452,6.4,5.782,10.512"/>
	<path fill-rule="evenodd" clip-rule="evenodd" fill="none" stroke="#000000" stroke-width="1.0156" stroke-linecap="round" d="
		M330.338,87.413c2.366-0.105,4.353-1.405,6.132-2.803"/>
	<path fill-rule="evenodd" clip-rule="evenodd" fill="none" stroke="#000000" stroke-width="1.1218" stroke-linecap="round" d="
		M154.26,92.318c1.92-3.755,2.548-8.046,4.555-11.563"/>
	<path fill-rule="evenodd" clip-rule="evenodd" fill="none" stroke="#000000" stroke-width="1.1753" stroke-linecap="round" d="
		M158.816,80.755c-1.642-1.317-3.385-2.433-5.606-2.103"/>
	<path fill-rule="evenodd" clip-rule="evenodd" fill="none" stroke="#000000" stroke-width="1.4447" stroke-linecap="round" d="
		M198.761,110.189c0.265,1.018,1.095,1.216,1.402,2.103"/>
	<path fill-rule="evenodd" clip-rule="evenodd" fill="none" stroke="#000000" stroke-width="0.9375" stroke-linecap="round" d="
		M190.002,122.803c1.958-0.088,3.683-1.75,4.905-3.154"/>
	<path fill-rule="evenodd" clip-rule="evenodd" fill="none" stroke="#000000" stroke-width="1.0148" stroke-linecap="round" d="
		M187.198,142.776c3.554-1.417,7.666-1.427,11.213,0"/>
	<path fill-rule="evenodd" clip-rule="evenodd" fill="none" stroke="#000000" stroke-width="1.3223" stroke-linecap="round" d="
		M198.411,142.776c1.088-0.043,1.906,0.832,2.67,1.423c1.055,2.016,0.007,4.179,0.133,6.286"/>
	<path fill-rule="evenodd" clip-rule="evenodd" fill="none" stroke="#000000" stroke-width="1.1408" stroke-linecap="round" d="
		M201.215,150.485c1.597,2.072,6.321,2.055,5.431,5.606"/>
	<path fill-rule="evenodd" clip-rule="evenodd" fill="none" stroke="#000000" stroke-width="1.4984" stroke-linecap="round" d="
		M206.646,156.092c0.181,0.826,0.141,2.084,0.292,2.687"/>
	<path fill-rule="evenodd" clip-rule="evenodd" fill="none" stroke="#000000" stroke-width="1.1911" stroke-linecap="round" d="
		M206.938,158.778c1.658,1.621,0.927,4.455,1.986,6.424"/>
	<path fill-rule="evenodd" clip-rule="evenodd" fill="none" stroke="#000000" stroke-width="0.9911" stroke-linecap="round" d="
		M208.924,165.202c0.616,1.501,0.802,3.195,1.752,4.555"/>
	<path fill-rule="evenodd" clip-rule="evenodd" fill="none" stroke="#000000" stroke-width="1.2512" stroke-linecap="round" d="
		M210.676,169.757c1.767,0.915,3.271,2.653,3.854,4.556"/>
	<path fill-rule="evenodd" clip-rule="evenodd" fill="none" stroke="#000000" stroke-width="1.2823" stroke-linecap="round" d="
		M214.53,174.313c2.755,0.7,4.633,3.406,7.358,4.555"/>
	<path fill-rule="evenodd" clip-rule="evenodd" fill="none" stroke="#000000" stroke-width="1.3111" stroke-linecap="round" d="
		M221.888,178.868c1.454-1.22,3.43-0.087,5.139-0.234"/>
	<path fill-rule="evenodd" clip-rule="evenodd" fill="none" stroke="#000000" stroke-width="1.2003" stroke-linecap="round" d="
		M227.028,178.634c1.537-1.003,3.942-1.452,5.723-0.817"/>
	<path fill-rule="evenodd" clip-rule="evenodd" fill="none" stroke="#000000" stroke-width="1.0883" stroke-linecap="round" d="
		M232.751,177.817c1.915-0.8,4.292-1.5,6.307-0.701"/>
	<path fill-rule="evenodd" clip-rule="evenodd" fill="none" stroke="#000000" stroke-width="0.9588" stroke-linecap="round" d="
		M239.058,177.116c4.484-0.636,9.112-0.245,13.666-0.351"/>
	<path fill-rule="evenodd" clip-rule="evenodd" fill="none" stroke="#000000" stroke-width="0.8667" stroke-linecap="round" d="
		M252.724,176.765c1.999,0.238,4.25-0.522,6.074,0.467"/>
	<path fill-rule="evenodd" clip-rule="evenodd" fill="none" stroke="#000000" stroke-width="1.5056" stroke-linecap="round" d="
		M258.798,177.233c1.512-0.281,3.269-0.207,4.438,0.935"/>
	<path fill-rule="evenodd" clip-rule="evenodd" fill="none" stroke="#000000" stroke-width="1.1489" stroke-linecap="round" d="
		M263.236,178.167c1.777-1.573,4.25-0.675,6.308-0.701"/>
	<path fill-rule="evenodd" clip-rule="evenodd" fill="none" stroke="#000000" stroke-width="1.3936" stroke-linecap="round" d="
		M280.406,167.538c0.008-3.008,1.476-5.771,2.103-8.644"/>
	<path fill-rule="evenodd" clip-rule="evenodd" fill="none" stroke="#000000" stroke-width="1.5495" stroke-linecap="round" d="
		M282.508,158.895c-0.029-0.788-0.046-2.023,0.35-3.154"/>
	<path fill-rule="evenodd" clip-rule="evenodd" fill="none" stroke="#000000" stroke-width="1.1846" stroke-linecap="round" d="
		M282.858,155.741c-1.306-2.901,2.31-4.201,3.504-6.307"/>
	<path fill-rule="evenodd" clip-rule="evenodd" fill="none" stroke="#000000" stroke-width="0.931" stroke-linecap="round" d="
		M296.524,122.102c-2.414-0.461-4.559-2.252-6.658-3.504"/>
	<path fill-rule="evenodd" clip-rule="evenodd" fill="none" stroke="#000000" stroke-width="1.1846" stroke-linecap="round" d="
		M288.115,110.539c-1.021,0.181-1.339,0.941-1.752,1.752"/>
	<path fill-rule="evenodd" clip-rule="evenodd" fill="none" stroke="#000000" stroke-width="0.939" stroke-linecap="round" d="
		M176.686,102.13c2.314-4.602,2.743-9.62,4.555-14.367"/>
	<path fill-rule="evenodd" clip-rule="evenodd" fill="none" stroke="#000000" stroke-width="1.0558" stroke-linecap="round" d="
		M181.241,87.763c-5.476-2.956-12.036-4.09-18.253-6.284c-0.419-0.148-2.383-1.198-4.173-0.724"/>
	<path fill-rule="evenodd" clip-rule="evenodd" fill="none" stroke="#000000" stroke-width="1.0395" stroke-linecap="round" d="
		M295.122,87.763c0.863,1.358,0.927,2.91,1.808,4.152c0.403,0.568,1.239,0.513,1.873,1.639c1.336,2.375,1.673,5.059,2.627,7.875"/>
	<path fill-rule="evenodd" clip-rule="evenodd" fill="none" stroke="#000000" stroke-width="1.0023" stroke-linecap="round" d="
		M301.43,101.429c2.28-1.378,5.178-1.355,7.008-3.504"/>
	<path fill-rule="evenodd" clip-rule="evenodd" fill="none" stroke="#000000" stroke-width="1.2138" stroke-linecap="round" d="
		M183.694,104.582c0.829-2.553,1.239-5.712,3.343-7.506c0.472-2.584,1.82-4.856,2.38-7.444"/>
	<path fill-rule="evenodd" clip-rule="evenodd" fill="none" stroke="#000000" stroke-width="1.1796" stroke-linecap="round" d="
		M189.418,89.632c-2.679-0.773-5.36-2.379-8.176-1.869"/>
	<path fill-rule="evenodd" clip-rule="evenodd" fill="none" stroke="#000000" stroke-width="1.3733" stroke-linecap="round" d="
		M289.516,89.515c0.299,5.842-0.452,11.85,0,17.521"/>
	<path fill-rule="evenodd" clip-rule="evenodd" fill="none" stroke="#000000" stroke-width="0.915" stroke-linecap="round" d="
		M289.516,107.035c2.556-1.1,5.428-1.7,7.514-3.699c1.61-0.25,3.188-0.75,4.4-1.908"/>
	<path fill-rule="evenodd" clip-rule="evenodd" fill="none" stroke="#000000" stroke-width="1.5139" stroke-linecap="round" d="
		M197.126,110.656c0.374-0.062,1.045-0.249,1.635-0.467"/>
	<path fill-rule="evenodd" clip-rule="evenodd" fill="none" stroke="#000000" stroke-width="1.1868" stroke-linecap="round" d="
		M198.761,110.189c-2.829-5.971-1.319-12.925-2.628-19.272"/>
	<path fill-rule="evenodd" clip-rule="evenodd" fill="none" stroke="#000000" stroke-width="1.1081" stroke-linecap="round" d="
		M196.134,90.917c-2.238-0.451-4.451-1.226-6.716-1.285"/>
	<path fill-rule="evenodd" clip-rule="evenodd" fill="none" stroke="#000000" stroke-width="0.8029" stroke-linecap="round" d="
		M194.907,162.049c1.866-0.48,1.967,1.888,3.311,2.646c0.854,0.192,1.672,0.078,2.295-0.193"/>
	<path fill-rule="evenodd" clip-rule="evenodd" fill="none" stroke="#000000" stroke-width="1.3111" stroke-linecap="round" d="
		M200.513,164.501c-0.265-1.389-0.891-2.775-0.934-4.205"/>
	<path fill-rule="evenodd" clip-rule="evenodd" fill="none" stroke="#000000" stroke-width="2.3147" stroke-linecap="round" d="
		M199.579,160.297c-0.217-3.39-1.116-7.086,1.635-9.812"/>
	<path fill-rule="evenodd" clip-rule="evenodd" fill="none" stroke="#000000" stroke-width="0.8785" stroke-linecap="round" d="
		M198.411,142.776c-0.326,0.608-0.832,1.037-1.051,1.752"/>
	<path fill-rule="evenodd" clip-rule="evenodd" fill="none" stroke="#000000" stroke-width="1.832" stroke-linecap="round" d="
		M286.888,146.981c-0.163,0.619-0.416,1.566-0.525,2.453"/>
	<path fill-rule="evenodd" clip-rule="evenodd" fill="none" stroke="#000000" stroke-width="1.4305" stroke-linecap="round" d="
		M286.363,149.434c0.924,0.531,1.339,1.253,2.102,2.103"/>
	<path fill-rule="evenodd" clip-rule="evenodd" fill="none" stroke="#000000" stroke-width="0.9911" stroke-linecap="round" d="
		M282.858,155.741c1.765,0.952,2.72,2.495,3.504,4.205"/>
	<path fill-rule="evenodd" clip-rule="evenodd" fill="none" stroke="#000000" stroke-width="1.2769" stroke-linecap="round" d="
		M288.115,160.997c2.055-2.553,0.361-6.429,0.35-9.461"/>
	<path fill-rule="evenodd" clip-rule="evenodd" fill="none" stroke="#000000" stroke-width="1.4588" stroke-linecap="round" d="
		M199.579,160.297c0.745,0,1.197,0,1.635,0"/>
	<path fill-rule="evenodd" clip-rule="evenodd" fill="none" stroke="#000000" stroke-width="1.0316" stroke-linecap="round" d="
		M201.215,160.297c1.077-2.146,3.032-3.757,5.431-4.205"/>
	<path fill-rule="evenodd" clip-rule="evenodd" fill="none" stroke="#000000" stroke-width="1.2634" stroke-linecap="round" d="
		M201.915,165.903c0.391,1.903,0.287,4.354,2.278,5.431"/>
	<path fill-rule="evenodd" clip-rule="evenodd" fill="none" stroke="#000000" stroke-width="1.567" stroke-linecap="round" d="
		M204.193,171.334c0.815-0.935,0.276-2.259,0.701-3.329"/>
	<path fill-rule="evenodd" clip-rule="evenodd" fill="none" stroke="#000000" stroke-width="1.632" stroke-linecap="round" d="
		M204.894,168.005c-0.997-3.199-0.605-7.229,2.044-9.227"/>
	
		<line fill-rule="evenodd" clip-rule="evenodd" fill="none" stroke="#000000" stroke-width="1.567" stroke-linecap="round" x1="284.961" y1="164.852" x2="284.961" y2="164.852"/>
	<path fill-rule="evenodd" clip-rule="evenodd" fill="none" stroke="#000000" stroke-width="0.9489" stroke-linecap="round" d="
		M284.961,164.852c1.398-1.333-0.062-3.595,1.402-4.906"/>
	<path fill-rule="evenodd" clip-rule="evenodd" fill="none" stroke="#000000" stroke-width="1.13" stroke-linecap="round" d="
		M204.894,168.005c0.63-0.146,1.35-0.367,1.927-0.701"/>
	<path fill-rule="evenodd" clip-rule="evenodd" fill="none" stroke="#000000" stroke-width="1.1846" stroke-linecap="round" d="
		M206.821,167.304c0.572-0.92,0.968-1.775,2.103-2.103"/>
	<path fill-rule="evenodd" clip-rule="evenodd" fill="none" stroke="#000000" stroke-width="0.9489" stroke-linecap="round" d="
		M281.457,168.005c0.991,0.169,1.597,0.982,2.453,1.402"/>
	<path fill-rule="evenodd" clip-rule="evenodd" fill="none" stroke="#000000" stroke-width="0.9489" stroke-linecap="round" d="
		M283.909,169.407c0.854-1.387-0.314-3.346,1.051-4.555"/>
	<path fill-rule="evenodd" clip-rule="evenodd" fill="none" stroke="#000000" stroke-width="0.9104" stroke-linecap="round" d="
		M284.961,164.852c-1.25-1.771-0.273-4.782-2.453-5.957"/>
	<path fill-rule="evenodd" clip-rule="evenodd" fill="none" stroke="#000000" stroke-width="1.0236" stroke-linecap="round" d="
		M201.915,165.903c0.862-1.812-0.291-3.839-0.701-5.606"/>
	<path fill-rule="evenodd" clip-rule="evenodd" fill="none" stroke="#000000" stroke-width="0.9911" stroke-linecap="round" d="
		M200.513,164.501c0.271,0.664,0.892,0.978,1.402,1.402"/>
	<path fill-rule="evenodd" clip-rule="evenodd" fill="none" stroke="#000000" stroke-width="1.3571" stroke-linecap="round" d="
		M287.764,164.852c0.425-1.239,0.356-2.554,0.351-3.854"/>
	<path fill-rule="evenodd" clip-rule="evenodd" fill="none" stroke="#000000" stroke-width="1.6435" stroke-linecap="round" d="
		M288.115,160.997c-0.456-0.205-1.134-0.587-1.752-1.051"/>
	<path fill-rule="evenodd" clip-rule="evenodd" fill="none" stroke="#000000" stroke-width="0.9962" stroke-linecap="round" d="
		M298.276,182.372c1.583,1.15,3.149,0.458,4.686,0.92c4.935,1.483,8.56,5.64,10.031,10.292"/>
	<path fill-rule="evenodd" clip-rule="evenodd" fill="none" stroke="#000000" stroke-width="1.4508" stroke-linecap="round" d="
		M286.538,167.129c0.876-0.461,1.069-1.415,1.226-2.277"/>
	<path fill-rule="evenodd" clip-rule="evenodd" fill="none" stroke="#000000" stroke-width="0.8292" stroke-linecap="round" d="
		M287.764,164.852c-1.083,0-2.006,0-2.803,0"/>
	<path fill-rule="evenodd" clip-rule="evenodd" fill="none" stroke="#000000" stroke-width="1.5407" stroke-linecap="round" d="
		M212.077,182.021c-0.168-1.583-0.564-2.705-0.28-3.434"/>
	<path fill-rule="evenodd" clip-rule="evenodd" fill="none" stroke="#000000" stroke-width="1.7637" stroke-linecap="round" d="
		M206.237,174.429c1.614,2.624,1.939,7.425,5.84,7.592"/>
	<path fill-rule="evenodd" clip-rule="evenodd" fill="none" stroke="#000000" stroke-width="1.5539" stroke-linecap="round" d="
		M284.26,171.159c0.434-0.17,0.729-0.295,1.018-0.418c0.449-1.17,0.921-2.375,1.26-3.611"/>
	<path fill-rule="evenodd" clip-rule="evenodd" fill="none" stroke="#000000" stroke-width="1.3297" stroke-linecap="round" d="
		M286.538,167.129c-0.451-0.461-0.886-1.415-1.577-2.277"/>
	
		<line fill-rule="evenodd" clip-rule="evenodd" fill="none" stroke="#000000" stroke-width="2.141" stroke-linecap="round" x1="284.961" y1="164.852" x2="284.961" y2="164.852"/>
	<path fill-rule="evenodd" clip-rule="evenodd" fill="none" stroke="#000000" stroke-width="2.3765" stroke-linecap="round" d="
		M204.193,171.334c0.237,0.691,0.383,1.055,0.525,1.401"/>
	<path fill-rule="evenodd" clip-rule="evenodd" fill="none" stroke="#000000" stroke-width="1.1727" stroke-linecap="round" d="
		M204.719,172.736c0.674-0.506,1.507-0.826,2.103-1.226"/>
	<path fill-rule="evenodd" clip-rule="evenodd" fill="none" stroke="#000000" stroke-width="0.8712" stroke-linecap="round" d="
		M206.821,171.51c0.495-1.262,0.585-2.951,0-4.205"/>
	<path fill-rule="evenodd" clip-rule="evenodd" fill="none" stroke="#000000" stroke-width="1.2501" stroke-linecap="round" d="
		M276.668,183.423c2.797-0.487,4.261-3.231,5.256-5.49"/>
	<path fill-rule="evenodd" clip-rule="evenodd" fill="none" stroke="#000000" stroke-width="0.8865" stroke-linecap="round" d="
		M281.924,177.933c-0.495-0.761-0.324-1.627,0-2.336"/>
	<path fill-rule="evenodd" clip-rule="evenodd" fill="none" stroke="#000000" stroke-width="0.9786" stroke-linecap="round" d="
		M281.924,175.597c0.837-2.587-0.842-4.939-0.467-7.592"/>
	<path fill-rule="evenodd" clip-rule="evenodd" fill="none" stroke="#000000" stroke-width="1.9822" stroke-linecap="round" d="
		M281.457,168.005c-0.425-0.206-0.741-0.338-1.051-0.467"/>
	<path fill-rule="evenodd" clip-rule="evenodd" fill="none" stroke="#000000" stroke-width="1.5139" stroke-linecap="round" d="
		M280.406,167.538c-0.482,0.188-0.97,0.373-1.374,0.546c-0.45,0.777-0.666,1.45-0.846,1.907"/>
	<path fill-rule="evenodd" clip-rule="evenodd" fill="none" stroke="#000000" stroke-width="1.6805" stroke-linecap="round" d="
		M283.092,175.831c0.881-1.377,1.102-3.064,1.168-4.672"/>
	<path fill-rule="evenodd" clip-rule="evenodd" fill="none" stroke="#000000" stroke-width="1.4866" stroke-linecap="round" d="
		M284.26,171.159c-0.246-0.721-0.268-1.242-0.351-1.752"/>
	<path fill-rule="evenodd" clip-rule="evenodd" fill="none" stroke="#000000" stroke-width="2.8467" stroke-linecap="round" d="
		M211.797,178.588c0.195-0.039,0.413-0.055,0.631-0.07"/>
	<path fill-rule="evenodd" clip-rule="evenodd" fill="none" stroke="#000000" stroke-width="1.1264" stroke-linecap="round" d="
		M210.676,169.757c-1.527,2.948-0.758,6.371,1.121,8.831"/>
	<path fill-rule="evenodd" clip-rule="evenodd" fill="none" stroke="#000000" stroke-width="1.0837" stroke-linecap="round" d="
		M277.953,178.167c1.125-2.413,1.053-5.671,0.233-8.176"/>
	<path fill-rule="evenodd" clip-rule="evenodd" fill="none" stroke="#000000" stroke-width="1.1203" stroke-linecap="round" d="
		M278.186,169.991c-1.31,1.125-2.936,2.357-3.738,3.971"/>
	<path fill-rule="evenodd" clip-rule="evenodd" fill="none" stroke="#000000" stroke-width="2.7442" stroke-linecap="round" d="
		M204.719,172.736c0.232,0.648,0.943,1.255,1.519,1.694"/>
	<path fill-rule="evenodd" clip-rule="evenodd" fill="none" stroke="#000000" stroke-width="1.0316" stroke-linecap="round" d="
		M206.237,174.429c0.814-0.943,0.933-2.174,0.584-2.92"/>
	<path fill-rule="evenodd" clip-rule="evenodd" fill="none" stroke="#000000" stroke-width="1.2703" stroke-linecap="round" d="
		M281.924,177.933c0.906-0.117,1.273-1.324,1.168-2.103"/>
	<path fill-rule="evenodd" clip-rule="evenodd" fill="none" stroke="#000000" stroke-width="1.5139" stroke-linecap="round" d="
		M283.092,175.831c-0.401-0.075-0.832-0.142-1.168-0.233"/>
	<path fill-rule="evenodd" clip-rule="evenodd" fill="none" stroke="#000000" stroke-width="1.0175" stroke-linecap="round" d="
		M232.751,177.817c0.211,2.008,1.536,4.206,3.598,4.608c1.356-1.459,1.866-3.503,2.709-5.309"/>
	<path fill-rule="evenodd" clip-rule="evenodd" fill="none" stroke="#000000" stroke-width="1.1181" stroke-linecap="round" d="
		M252.724,176.765c0.47,1.723,1.142,4.818,3.148,5.131c1.158-1.485,3.011-2.452,2.925-4.664"/>
	<path fill-rule="evenodd" clip-rule="evenodd" fill="none" stroke="#000000" stroke-width="1.2138" stroke-linecap="round" d="
		M263.236,178.167c0.577,1.652,1.685,3.28,2.813,4.514c1.881-1.22,2.599-3.303,3.495-5.215"/>
	<path fill-rule="evenodd" clip-rule="evenodd" fill="none" stroke="#000000" stroke-width="1.1758" stroke-linecap="round" d="
		M221.888,178.868c0.292,1.018,0.312,1.805,0.511,2.249c1.093,0.413,1.317,2.257,2.737,2.009c1.318-0.974,1.654-2.703,1.946-4.213
		c-0.018-0.093-0.037-0.185-0.055-0.278"/>
	<path fill-rule="evenodd" clip-rule="evenodd" fill="none" stroke="#000000" stroke-width="1.5139" stroke-linecap="round" d="
		M216.457,185.526c0.096-0.276,0.137-0.661,0.175-1.051"/>
	<path fill-rule="evenodd" clip-rule="evenodd" fill="none" stroke="#000000" stroke-width="1.0615" stroke-linecap="round" d="
		M216.632,184.474c-1.444-1.815-2.762-3.962-4.205-5.957"/>
	<path fill-rule="evenodd" clip-rule="evenodd" fill="none" stroke="#000000" stroke-width="1.2446" stroke-linecap="round" d="
		M212.077,182.021c1.072,1.493,2.38,3.269,4.38,3.504"/>
	<path fill-rule="evenodd" clip-rule="evenodd" fill="none" stroke="#000000" stroke-width="1.0921" stroke-linecap="round" d="
		M277.018,181.437c1.089-0.048,1.108-1.547,0.584-2.219"/>
	<path fill-rule="evenodd" clip-rule="evenodd" fill="none" stroke="#000000" stroke-width="1.5445" stroke-linecap="round" d="
		M272.113,187.044c1.484-1.305,3.682-1.826,4.555-3.621"/>
	<path fill-rule="evenodd" clip-rule="evenodd" fill="none" stroke="#000000" stroke-width="2.2161" stroke-linecap="round" d="
		M276.668,183.423c-0.078-0.234-0.155-0.467-0.233-0.701"/>
	<path fill-rule="evenodd" clip-rule="evenodd" fill="none" stroke="#000000" stroke-width="1.0665" stroke-linecap="round" d="
		M289.399,192.65c0.025,0.091,0.05,0.183,0.075,0.274c5.059,1.982,13.658,3.679,17.913,12.574"/>
	<path fill-rule="evenodd" clip-rule="evenodd" fill="none" stroke="#000000" stroke-width="1.2922" stroke-linecap="round" d="
		M307.386,205.498c1.298-2.059,2.063-5.528,3.326-7.192c0.639-0.844,1.322-2.375,1.405-3.845"/>
	<path fill-rule="evenodd" clip-rule="evenodd" fill="none" stroke="#000000" stroke-width="1.9822" stroke-linecap="round" d="
		M312.117,194.461c0.292-0.292,0.584-0.584,0.876-0.876"/>
	<path fill-rule="evenodd" clip-rule="evenodd" fill="none" stroke="#000000" stroke-width="1.0017" stroke-linecap="round" d="
		M295.24,186.11c7.184-1.646,13.009,3.097,16.877,8.351"/>
	<path fill-rule="evenodd" clip-rule="evenodd" fill="none" stroke="#000000" stroke-width="0.9911" stroke-linecap="round" d="
		M158.115,234.232c0.998,0.077,2.137-0.218,2.979-0.351"/>
	<path fill-rule="evenodd" clip-rule="evenodd" fill="none" stroke="#000000" stroke-width="1.5768" stroke-linecap="round" d="
		M146.201,225.121c0.073,2.198,0.466,4.738,2.453,5.957"/>
	<path fill-rule="evenodd" clip-rule="evenodd" fill="none" stroke="#000000" stroke-width="1.1126" stroke-linecap="round" d="
		M148.654,231.078c2.02-3.692,6.564-8.679,11.189-6.281c0.319,0.87,0.572,1.833,0.696,2.413c-0.271,2.529-1.579,4.675-2.424,7.022"
		/>
	<path fill-rule="evenodd" clip-rule="evenodd" fill="none" stroke="#000000" stroke-width="1.1364" stroke-linecap="round" d="
		M148.654,231.078c-0.69,3.416-1.759,6.856-1.937,10.308c0.791,0.531,1.901,0.791,2.781,0.342c2.87-2.523,5.761-5.116,8.617-7.496"
		/>
	<path fill-rule="evenodd" clip-rule="evenodd" fill="none" stroke="#000000" stroke-width="1.2138" stroke-linecap="round" d="
		M109.76,223.369c-0.116,0.036-0.232,0.072-0.348,0.108c-1.283,2.612-2.87,4.503-3.667,6.707c-0.044,0.122-0.501,0.124-0.56,0.279
		c-0.931,2.469-1.173,5.016,0.058,8.18c0.054,0.137,0.446,0.149,0.502,0.292c0.212,0.542,0.155,1.364,0.322,1.755
		c0.055,0.128,0.485,0.123,0.558,0.284c0.8,1.75,1.281,3.423,2.616,4.999c0.329,0.165,0.592,0.249,0.852,0.33
		c0.312-0.074,0.652-0.158,0.994-0.242c2.267-4.288,1.887-10.143,6.381-13.231"/>
	<path fill-rule="evenodd" clip-rule="evenodd" fill="none" stroke="#000000" stroke-width="1.1734" stroke-linecap="round" d="
		M113.614,255.256c0.6,4.264,0.322,9.517,3.208,13.265c1.243,1.614,6.403,6.442,11.163,5.442c0.119-2.49-1.272-4.803-1.682-7.809
		c-0.163-1.19,0.135-2.533-0.075-3.779c-0.153-0.912-0.727-1.551-0.699-2.915"/>
	<path fill-rule="evenodd" clip-rule="evenodd" fill="none" stroke="#000000" stroke-width="1.2138" stroke-linecap="round" d="
		M197.01,241.59c-0.147,2.19-1.612,3.955-1.518,6.19"/>
	<path fill-rule="evenodd" clip-rule="evenodd" fill="none" stroke="#000000" stroke-width="0.9746" stroke-linecap="round" d="
		M195.491,247.781c1.039,0.493,1.763,1.306,2.072,2.366c1.212-0.123,1.838,1.124,2.751,1.454c4.599,1.661,7.596-1.536,12.625-3.896
		c1.419-0.666,3.18-0.917,4.776-1.537c1.244-0.483,3.661-2.358,6.867-2.227c0.297-0.262,0.513-0.782,0.81-1.301"/>
	<path fill-rule="evenodd" clip-rule="evenodd" fill="none" stroke="#000000" stroke-width="1.1334" stroke-linecap="round" d="
		M195.491,271.141c0.305,1.541,0.732,3.501,1.869,4.438"/>
	<path fill-rule="evenodd" clip-rule="evenodd" fill="none" stroke="#000000" stroke-width="0.9422" stroke-linecap="round" d="
		M197.36,275.579c1.906-2.519,4.54-6.021,8.571-8.249c2.642-1.461,5.925-2.598,8.515-5.396c0.075-0.081,0.019-0.282,0.084-0.372"/>
	<path fill-rule="evenodd" clip-rule="evenodd" fill="none" stroke="#000000" stroke-width="0.896" stroke-linecap="round" d="
		M302.831,274.528c-2.807-3.425-5.533-7.094-9.607-9.314c-4.689-0.122-8.532-2.825-12.708-4.076
		c-0.088,0.539-0.073,1.022-0.003,1.441c5.757,3.725,13.524,5.151,16.563,12.098c0.569,0.366,1.162,0.708,1.712,1.092
		c0.271,0.896,0.811,1.526,1.24,2.264"/>
	<path fill-rule="evenodd" clip-rule="evenodd" fill="none" stroke="#000000" stroke-width="1.0595" stroke-linecap="round" d="
		M220.837,210.755c-0.674,0.371-1.507,0.243-2.103,0"/>
	<path fill-rule="evenodd" clip-rule="evenodd" fill="none" stroke="#000000" stroke-width="0.9911" stroke-linecap="round" d="
		M289.516,200.943c0.375-0.704,0.254-1.547-0.045-1.863c-0.622,0.056-0.938,0.683-1.356,1.162"/>
	<path fill-rule="evenodd" clip-rule="evenodd" fill="none" stroke="#000000" stroke-width="0.8785" stroke-linecap="round" d="
		M216.632,212.156c0.981-0.187,1.63-0.706,2.103-1.401"/>
	<path fill-rule="evenodd" clip-rule="evenodd" fill="none" stroke="#000000" stroke-width="0.8583" stroke-linecap="round" d="
		M280.756,209.703c-0.548,0-1.264,0-2.103,0"/>
	<path fill-rule="evenodd" clip-rule="evenodd" fill="none" stroke="#000000" stroke-width="0.8092" stroke-linecap="round" d="
		M278.654,209.703c0,0.467,0,0.934,0,1.401"/>
	<path fill-rule="evenodd" clip-rule="evenodd" fill="none" stroke="#000000" stroke-width="0.8583" stroke-linecap="round" d="
		M383.424,233.18c0.837-2.237-0.963-4.801-2.453-6.308"/>
	<path fill-rule="evenodd" clip-rule="evenodd" fill="none" stroke="#000000" stroke-width="1.4866" stroke-linecap="round" d="
		M380.971,226.873c-0.722,0-1.242,0-1.752,0"/>
	<path fill-rule="evenodd" clip-rule="evenodd" fill="none" stroke="#000000" stroke-width="0.9599" stroke-linecap="round" d="
		M377.117,249.999c-1.377,4.982-6.667,7.735-8.991,11.914c2.707,1.337,6.299,0.466,8.785-0.907c3.929-0.187,6.43-3.107,9.478-5.239
		c0.218-0.979,1.076-1.306,1.24-1.913"/>
	<path fill-rule="evenodd" clip-rule="evenodd" fill="none" stroke="#000000" stroke-width="1.5139" stroke-linecap="round" d="
		M184.279,275.112c-1.634,0.995-2.95,2.648-3.037,4.672"/>
	<path fill-rule="evenodd" clip-rule="evenodd" fill="none" stroke="#000000" stroke-width="1.0811" stroke-linecap="round" d="
		M181.241,279.783c0.08,0.2,0.159,0.4,0.238,0.601c1.433,1.56,3.606,0.544,5.368,0.805c2.759,0.408,4.113,1.557,5.766,2.646
		c0.422,0.278,0.969,0.248,1.239,0.473c1.6,1.331,2.755,2.938,3.709,5.091c2.858,1.65,5.43,4.392,6.314,7.701
		c0.584,0.422,1.071,0.819,1.518,1.024c1.184-0.89,0.527-2.798-0.011-3.83c-1.095-0.316-0.604-1.854-0.314-2.596"/>
	<path fill-rule="evenodd" clip-rule="evenodd" fill="none" stroke="#000000" stroke-width="1.1558" stroke-linecap="round" d="
		M181.241,279.783c-0.435,0.169-0.728,0.297-1.013,0.424c-1.68,2.717-2.213,5.985-3.893,8.688"/>
	<path fill-rule="evenodd" clip-rule="evenodd" fill="none" stroke="#000000" stroke-width="0.9055" stroke-linecap="round" d="
		M176.336,288.895c1.526,0.613,3.145-0.434,4.351-1.256c6.681-1.355,13.259,1.772,16.836,7.398c1.014,0.155,1.722,0.615,2.457,1.049
		c1.499,2.363,3.983,5.521,2.639,8.289c-1.558-0.65-1.985-2.334-3.482-3.24c-1.12-0.679-2.893-1.511-4.371-2.638
		c-0.761-1.528-4.615-4.382-6.662-5.252c-0.543-0.23-1.344-0.01-1.957-0.146c-1.075-0.237-2.329-1.183-2.945-1.26
		c-2.651-0.331-6.94,1.259-9.201,1.492"/>
	<path fill-rule="evenodd" clip-rule="evenodd" fill="none" stroke="#000000" stroke-width="1.3207" stroke-linecap="round" d="
		M174,293.332c-2.22,2.943-5.112,6.689-4.322,10.629"/>
	<path fill-rule="evenodd" clip-rule="evenodd" fill="none" stroke="#000000" stroke-width="1.415" stroke-linecap="round" d="
		M169.678,303.961c1.867-0.542,2.022-2.564,3.154-3.854"/>
	<path fill-rule="evenodd" clip-rule="evenodd" fill="none" stroke="#000000" stroke-width="1.327" stroke-linecap="round" d="
		M169.678,303.961c-0.117,0.152-0.235,0.304-0.352,0.456c-0.14,2.659-2.048,4.739-2.373,7.224
		c-0.524,4.013,0.916,9.276,2.762,13.202c0.128,0.274,0.886,0.775,0.818,1.35c1.082,0.349,1.458,1.41,1.948,2.297"/>
	<path fill-rule="evenodd" clip-rule="evenodd" fill="none" stroke="#000000" stroke-width="1.1042" stroke-linecap="round" d="
		M172.481,328.49c3.729,0.677,6.875,3.074,8.06,6.658"/>
	<path fill-rule="evenodd" clip-rule="evenodd" fill="none" stroke="#000000" stroke-width="1.1007" stroke-linecap="round" d="
		M172.481,328.49c-1.537,5.811,1.749,11.163,2.625,16.788c-0.285,1.604-1.259,3.361-0.523,4.938"/>
	<path fill-rule="evenodd" clip-rule="evenodd" fill="none" stroke="#000000" stroke-width="1.0277" stroke-linecap="round" d="
		M174.584,350.215c4.017-0.437,6.939-1.196,10.643-0.832c3.568,0.352,10.024,3.216,14.586,3.635"/>
	<path fill-rule="evenodd" clip-rule="evenodd" fill="none" stroke="#000000" stroke-width="1.0455" stroke-linecap="round" d="
		M174.584,350.215c-6.86,4.019-10.371,8.057-18.013,10.02c-0.999,0.256-2.016,0.631-2.758,0.745
		c-5.509,0.854-9.395-1.479-13.81-0.494c-2.406,0.538-5.847,2.073-8.168,5.146"/>
	<path fill-rule="evenodd" clip-rule="evenodd" fill="none" stroke="#000000" stroke-width="1.1901" stroke-linecap="round" d="
		M131.835,365.632c6.569,0.712,5.769,8.825,6.658,13.666"/>
	<path fill-rule="evenodd" clip-rule="evenodd" fill="none" stroke="#000000" stroke-width="1.2023" stroke-linecap="round" d="
		M138.492,379.298c5.476-2.927,9.933-7.272,14.717-11.213"/>
	<path fill-rule="evenodd" clip-rule="evenodd" fill="none" stroke="#000000" stroke-width="1.1915" stroke-linecap="round" d="
		M153.209,368.085c0.753-1.908,2.261-3.315,3.666-4.744c4.219-1.06,6.88-0.042,10.173-1.046c0.398-0.121,0.674-0.854,1.044-1.052
		c1.554-0.834,2.313-1.187,4.039-2.269"/>
	<path fill-rule="evenodd" clip-rule="evenodd" fill="none" stroke="#000000" stroke-width="0.9047" stroke-linecap="round" d="
		M173.883,384.554c0.191-0.275,0.273-0.66,0.351-1.051"/>
	<path fill-rule="evenodd" clip-rule="evenodd" fill="none" stroke="#000000" stroke-width="1.0992" stroke-linecap="round" d="
		M183.694,371.589c0.401-5.502,6.437-6.59,10.675-7.895c0.484-0.785,1.414-1.61,1.589-2.617"/>
	<path fill-rule="evenodd" clip-rule="evenodd" fill="none" stroke="#000000" stroke-width="0.8538" stroke-linecap="round" d="
		M211.26,320.08c-2.685-0.56-5.103-1.412-7.592-2.453"/>
	<path fill-rule="evenodd" clip-rule="evenodd" fill="none" stroke="#000000" stroke-width="1.3419" stroke-linecap="round" d="
		M211.376,305.714c-0.763,0.926-1.419,1.787-2.103,2.803"/>
	<path fill-rule="evenodd" clip-rule="evenodd" fill="none" stroke="#000000" stroke-width="1.3598" stroke-linecap="round" d="
		M176.336,288.895c-1.015,1.327-2.578,2.545-2.336,4.438"/>
	<path fill-rule="evenodd" clip-rule="evenodd" fill="none" stroke="#000000" stroke-width="0.9786" stroke-linecap="round" d="
		M191.929,263.315c-3.236,0.457-1.578,4.44-3.329,6.308"/>
	<path fill-rule="evenodd" clip-rule="evenodd" fill="none" stroke="#000000" stroke-width="1.2138" stroke-linecap="round" d="
		M188.6,269.622c0.234,0.233,0.467,0.467,0.701,0.7"/>
	<path fill-rule="evenodd" clip-rule="evenodd" fill="none" stroke="#000000" stroke-width="1.0512" stroke-linecap="round" d="
		M188.6,269.622c-1.869,1.283-3.881,3.016-4.321,5.489"/>
	<path fill-rule="evenodd" clip-rule="evenodd" fill="none" stroke="#000000" stroke-width="1.017" stroke-linecap="round" d="
		M184.279,275.112c0.283,0.582,0.4,1.179,0.677,1.652c5.743,2.305,12.105,4.188,16.609,8.626"/>
	<path fill-rule="evenodd" clip-rule="evenodd" fill="none" stroke="#000000" stroke-width="1.0063" stroke-linecap="round" d="
		M294.071,293.8c0.213,0.425,0.214,0.722,0.205,1.012c-0.209,0.614-0.221,1.829,0.021,2.631c0.388-0.061,0.686-0.196,0.979-0.337
		c0.146-0.321,0.356-0.578,0.568-0.832c1.862-5.06,4.657-8.899,9.264-12.461c1.07-0.827,1.639-1.961,2.445-2.461
		c4.652-2.88,10.134-2.949,16.303-3.32"/>
	<path fill-rule="evenodd" clip-rule="evenodd" fill="none" stroke="#000000" stroke-width="1.0512" stroke-linecap="round" d="
		M284.493,313.656c2.382,2.618,5.554,4.278,8.001,6.424"/>
	<path fill-rule="evenodd" clip-rule="evenodd" fill="none" stroke="#000000" stroke-width="1.0551" stroke-linecap="round" d="
		M292.494,320.08c1.763-0.572,3.663-0.174,5.431-0.701"/>
	<path fill-rule="evenodd" clip-rule="evenodd" fill="none" stroke="#000000" stroke-width="1.298" stroke-linecap="round" d="
		M292.494,320.08c-0.045,0.148-0.09,0.297-0.135,0.445c-0.841,2.063,1.844,3.328,1.353,5.403c-1.17,3.366-2.607,5.887-3.417,9.54
		c-1.261,5.688,0.615,12.021-2.583,15.748c-0.417,0.486-2.238,1.993-3.991,4.401c-4.61,6.332-4.267,11.978,2.105,17.213
		c4.872,4.002,9.24,11.999,17.992,13.116c0.35,0.377,0.704,0.581,1.121,0.804c1.944,4.793,7.167,6.056,11.909,5.337"/>
	<path fill-rule="evenodd" clip-rule="evenodd" fill="none" stroke="#000000" stroke-width="1.2607" stroke-linecap="round" d="
		M316.847,392.088c-1.277-1.892-0.794-5.845,0.45-9.189c0.223-0.601,0.954-1.036,1.167-1.581c0.998-2.554,3.117-5.97,4.521-6.758
		c2.968-1.849,5.401,1.215,7.527,2.636"/>
	<path fill-rule="evenodd" clip-rule="evenodd" fill="none" stroke="#000000" stroke-width="1.0652" stroke-linecap="round" d="
		M330.513,377.196c0.029-0.237,0.235-0.464,0.25-0.702c0.302-4.756-3.281-6.097-6.714-8.252c-0.876-0.551-2.331-0.578-3.147-1.058
		c-1.952-1.146-3.569-3.308-4.406-6.106"/>
	<path fill-rule="evenodd" clip-rule="evenodd" fill="none" stroke="#000000" stroke-width="1.3517" stroke-linecap="round" d="
		M338.222,387.007c3.252,1.167,4.245,4.266,8.76,2.979"/>
	<path fill-rule="evenodd" clip-rule="evenodd" fill="none" stroke="#000000" stroke-width="1.1387" stroke-linecap="round" d="
		M346.982,389.986c-0.4-3.815,1.097-8.265,4.22-10.422c1.58-3.034,2.802-6.458,4.978-9.044c1.46-0.752,3.194-0.118,4.702-0.099"/>
	<path fill-rule="evenodd" clip-rule="evenodd" fill="none" stroke="#000000" stroke-width="0.921" stroke-linecap="round" d="
		M360.882,370.421c0.026-0.088,0.052-0.176,0.079-0.264c-1.16-8.014-10.635-4.961-15.186-8.924c-2.46-0.113-4.11-2.641-5.45-4.361"
		/>
	<path fill-rule="evenodd" clip-rule="evenodd" fill="none" stroke="#000000" stroke-width="1.1173" stroke-linecap="round" d="
		M360.882,370.421c0.382,0.816,0.723,1.297,1.138,1.513c2.138,1.109,4.741,3.563,6.688,4.211"/>
	<path fill-rule="evenodd" clip-rule="evenodd" fill="none" stroke="#000000" stroke-width="1.0647" stroke-linecap="round" d="
		M377.117,367.735c-0.001-0.115-0.002-0.229-0.003-0.345c-3.61-7.835-14.139-6.247-21.364-5.987
		c-5.214-2.495-9.908-6.606-14.876-9.284c-1.468-0.792-3.075-0.791-3.703-2.254"/>
	<path fill-rule="evenodd" clip-rule="evenodd" fill="none" stroke="#000000" stroke-width="0.9632" stroke-linecap="round" d="
		M337.171,349.865c-2.92-0.228-5.141-1.058-8.044-1.023c-3.42,0.041-7.595,1.158-11.011,1.941c-4.151,0.951-8.014,2.471-12.13,2.586
		"/>
	<path fill-rule="evenodd" clip-rule="evenodd" fill="none" stroke="#000000" stroke-width="1.1354" stroke-linecap="round" d="
		M336.996,330.592c-2.585,0.875-5.755,2.336-6.483,5.256"/>
	<path fill-rule="evenodd" clip-rule="evenodd" fill="none" stroke="#000000" stroke-width="1.0107" stroke-linecap="round" d="
		M340.324,307.816c-3.312-1.276-4.282-5.659-7.008-7.708"/>
	<path fill-rule="evenodd" clip-rule="evenodd" fill="none" stroke="#000000" stroke-width="2.2161" stroke-linecap="round" d="
		M298.393,302.56c-0.105,0.317-0.211,0.634-0.317,0.951"/>
	<path fill-rule="evenodd" clip-rule="evenodd" fill="none" stroke="#000000" stroke-width="0.9255" stroke-linecap="round" d="
		M298.393,302.56c3.027-0.866,5.07-3.695,8.084-4.764c0.447-2.198,3.238-2.986,4.94-4.18c0.635-0.445,1.154-1.26,2.428-1.768
		c1.348-0.537,2.902-0.866,4.103-1.504c2.4-1.274,10.235-1.806,12.712,1.896c0.957,0.137,1.881,0.134,2.656,0.157"/>
	<path fill-rule="evenodd" clip-rule="evenodd" fill="none" stroke="#000000" stroke-width="0.9456" stroke-linecap="round" d="
		M329.287,287.142c-1.694,0.188-3.238-1.249-5.179-1.653c-4.045-0.843-9.271,0.526-12.315,2.205
		c-4.955,2.731-8.401,8.284-12.649,12.57c-0.174,0.854-0.655,1.673-0.75,2.296"/>
	<path fill-rule="evenodd" clip-rule="evenodd" fill="none" stroke="#000000" stroke-width="1.3204" stroke-linecap="round" d="
		M133.119,385.372c1.202-2.604,4.302-3.379,5.373-6.074"/>
	<path fill-rule="evenodd" clip-rule="evenodd" fill="none" stroke="#000000" stroke-width="1.1326" stroke-linecap="round" d="
		M131.835,365.632c-0.827,0.74-1.406,1.069-1.901,1.598c-0.405,0.065-0.833,0.105-1.264,0.144
		c-3.922,1.768-9.368,4.702-13.459,8.256c-1.05,0.912-1.867,1.835-2.82,2.778c-0.951,0.941-2.137,1.53-3.178,3.147
		c-1.628,2.53-3.928,6.315-2.298,9.171c8.621-2.126,16.978-5.967,26.205-5.354"/>
	<path fill-rule="evenodd" clip-rule="evenodd" fill="none" stroke="#000000" stroke-width="1.2321" stroke-linecap="round" d="
		M133.119,385.372c-0.231,4.51-2.495,9.49-0.744,14.075c0.324,0.166,0.585,0.251,0.844,0.332c2.697-0.512,4.877-2.657,7.699-3.927
		c6.502-2.926,14.405-6.302,22.335-7.21"/>
	<path fill-rule="evenodd" clip-rule="evenodd" fill="none" stroke="#000000" stroke-width="1.1966" stroke-linecap="round" d="
		M163.254,388.643c0.11-0.628,0.972-1.179,1.512-1.377c0.494-0.995,1.192-1.934,1.377-3.05c-2.245-5.391-3.067-12.552-8.13-16.029
		c-1.396-0.171-2.807-0.072-4.208-0.102c-0.199,0-0.397,0-0.596,0"/>
	<path fill-rule="evenodd" clip-rule="evenodd" fill="none" stroke="#000000" stroke-width="1.0672" stroke-linecap="round" d="
		M377.292,388.759c5.732,1.103,10.614,4.193,15.738,6.514c0.648,0.138,1.242,0.063,1.75-0.077c0.169-0.307,0.319-0.561,0.467-0.811
		c-0.147-4.577-1.13-9.085-3.251-12.801c-0.262-0.458-0.729-0.899-0.965-1.229c-2.168-3.024-4.675-5.646-7.437-7.873
		c-2.071-1.67-4.025-2.275-6.477-4.747"/>
	<path fill-rule="evenodd" clip-rule="evenodd" fill="none" stroke="#000000" stroke-width="0.9911" stroke-linecap="round" d="
		M377.117,367.735c-4.559,0.354-6.78,4.594-8.41,8.41"/>
	<path fill-rule="evenodd" clip-rule="evenodd" fill="none" stroke="#000000" stroke-width="1.1831" stroke-linecap="round" d="
		M183.694,371.589c-2.936,3.97-5.357,8.551-7.358,13.315"/>
	<path fill-rule="evenodd" clip-rule="evenodd" fill="none" stroke="#000000" stroke-width="1.0882" stroke-linecap="round" d="
		M196.309,388.059c4.278-6.474-1.415-13.561-6.109-17.719c-2.434-0.905-4.307,1.161-6.506,1.249"/>
	<path fill-rule="evenodd" clip-rule="evenodd" fill="none" stroke="#000000" stroke-width="1.1772" stroke-linecap="round" d="
		M346.982,389.986c2.235-0.298,5.676,1.482,8.204,2.483c0.566,0.225,1.303,0.052,1.851,0.252c1.076,0.392,1.602,0.962,3.396,1.51
		c4.469,1.363,11.729,5.506,16.49,8.738c0.638,0.148,1.229,0.077,1.741-0.062c2.768-4.616-1.292-9.493-1.372-14.148"/>
	<path fill-rule="evenodd" clip-rule="evenodd" fill="none" stroke="#000000" stroke-width="1.0684" stroke-linecap="round" d="
		M377.292,388.759c-1.367-1.977-2.407-4.148-3.824-6.13c-1.538-2.15-3.905-3.922-4.761-6.484"/>
	<path fill-rule="evenodd" clip-rule="evenodd" fill="none" stroke="#000000" stroke-width="1.2911" stroke-linecap="round" d="
		M316.847,392.088c3.123,1.93,6.952,2.65,9.617,5.275c4.276,1.219,7.773,4.882,12.353,4.957c0.788-0.849,1.289-1.96,1.775-3.011
		c-1.041-2.796-0.877-5.96-1.48-8.945c-1.127-0.507-1.299-2.313-0.89-3.357"/>
	<path fill-rule="evenodd" clip-rule="evenodd" fill="none" stroke="#000000" stroke-width="1.3111" stroke-linecap="round" d="
		M338.222,387.007c-2.133-1.906-3.122-4.603-5.366-6.464c-0.294-0.244-2.068-1.652-2.343-3.348"/>
</g>
</svg>
