<?xml version="1.0" encoding="utf-8"?>
<!-- Generator: Adobe Illustrator 14.0.0, SVG Export Plug-In . SVG Version: 6.00 Build 43363)  -->
<!DOCTYPE svg PUBLIC "-//W3C//DTD SVG 1.1//EN" "http://www.w3.org/Graphics/SVG/1.1/DTD/svg11.dtd">
<svg version="1.1" id="图层_1" xmlns="http://www.w3.org/2000/svg" xmlns:xlink="http://www.w3.org/1999/xlink" x="0px" y="0px"
	 width="848px" height="480px" viewBox="0 0 848 480" enable-background="new 0 0 848 480" xml:space="preserve">
<g>
	<path fill="none" stroke="#000000" stroke-width="2.0087" stroke-linecap="round" d="M189.557,135.809
		c2.393,0.521,3.084,3.812,1.355,5.425"/>
	<path fill="none" stroke="#000000" stroke-width="1.3452" stroke-linecap="round" d="M188.491,159.799
		c-0.116,1.081-0.431,1.751-0.75,2.471c-1.504,0.684-3.006,0.305-4.578,0.273"/>
	<path fill="none" stroke="#000000" stroke-width="1.7901" stroke-linecap="round" d="M188.007,159.639
		c-0.272,0.11-0.545,0.223-0.817,0.335c-1.762-0.039-3.141-1.04-4.524-1.912c-2.938-6.188-4.401-14.3-1.438-20.703"/>
	<path fill="none" stroke="#000000" stroke-width="2.4355" stroke-linecap="round" d="M181.227,137.359
		c0.143-2.996,2.312-5.607,4.757-7.128c0.57,0.021,1.203,0.33,1.779,0.613c0.76,1.598,1.135,3.314,1.794,4.965"/>
	<path fill="none" stroke="#000000" stroke-width="1.5729" stroke-linecap="round" d="M181.227,137.359
		c0.805,2.188,1.614,3.858,2.906,5.813"/>
	<path fill="none" stroke="#000000" stroke-width="1.4007" stroke-linecap="round" d="M184.132,143.17
		c0.816,0.047,1.653-0.066,2.506-0.3c0.832-0.895,1.236-2.081,1.853-3.09"/>
	<path fill="none" stroke="#000000" stroke-width="2.1661" stroke-linecap="round" d="M189.557,135.809
		c-0.999,1.233-0.988,2.946-1.065,3.972"/>
	<path fill="none" stroke="#000000" stroke-width="1.6465" stroke-linecap="round" d="M188.007,159.639
		c-0.966-1.601-1.199-3.481-0.323-5.168"/>
	<path fill="none" stroke="#000000" stroke-width="2.2811" stroke-linecap="round" d="M187.685,154.471
		c-2.993-2.538-3.833-7.343-3.552-11.301"/>
	<path fill="none" stroke="#000000" stroke-width="2.6529" stroke-linecap="round" d="M187.685,154.471
		c0.914-0.174,2.233-0.703,3.229-1.13"/>
	<path fill="none" stroke="#000000" stroke-width="3.901" stroke-linecap="round" d="M190.913,153.341
		c0.712-3.896,0.861-8.221,0-12.107"/>
	<path fill="none" stroke="#000000" stroke-width="1.838" stroke-linecap="round" d="M190.913,141.234
		c-0.997-0.65-1.716-0.96-2.422-1.453"/>
	<path fill="none" stroke="#000000" stroke-width="3.0633" stroke-linecap="round" d="M188.007,159.639
		c0.16,0.054,0.322,0.106,0.483,0.16"/>
	<path fill="none" stroke="#000000" stroke-width="3.4362" stroke-linecap="round" d="M188.491,159.799
		c2.606-0.594,3.509-4.226,2.422-6.458"/>
	<path fill="none" stroke="#000000" stroke-width="1.8669" stroke-linecap="round" d="M204.959,134.452
		c-0.483-1.531,1.82-1.359,1.453-2.906"/>
	<path fill="none" stroke="#000000" stroke-width="1.9374" stroke-linecap="round" d="M244.676,133.968
		c0.076-0.925-0.083-1.717-0.484-2.422"/>
	<path fill="none" stroke="#000000" stroke-width="2.3759" stroke-linecap="round" d="M262.435,132.031
		c0.137-0.162,0.272-0.325,0.41-0.487c0.542-0.277,1.051-0.364,1.559-0.44c4.259,1.97,4.814,7.164,5.396,11.258
		c0.758,0.047,1.52,5.659,1.021,8.41c-0.106,0.591-0.902,1.208-1.138,2.011c-1.102,3.745-0.834,6.54-5.636,7.341"/>
	<path fill="none" stroke="#000000" stroke-width="1.4309" stroke-linecap="round" d="M258.722,159.639
		c-0.678,2.738,1.768,4.116,3.875,4.843"/>
	<path fill="none" stroke="#000000" stroke-width="4.8916" stroke-linecap="round" d="M256.783,147.045c0-0.588,0-1.023,0-1.453"/>
	<path fill="none" stroke="#000000" stroke-width="2.0873" stroke-linecap="round" d="M256.783,145.592
		c0.044-4.275,0.736-9.05,3.148-12.831c0.612-0.34,1.519-0.569,2.503-0.729"/>
	<path fill="none" stroke="#000000" stroke-width="1.9171" stroke-linecap="round" d="M264.049,142.445
		c0.204,0.125,0.409,0.25,0.614,0.375c0.541,3.772,0.881,8.118-0.775,11.651"/>
	<path fill="none" stroke="#000000" stroke-width="2.0549" stroke-linecap="round" d="M263.888,154.471
		c0.326,1.857,0.077,3.773,0.161,5.65"/>
	<path fill="none" stroke="#000000" stroke-width="2.0204" stroke-linecap="round" d="M262.435,132.031
		c2.489,2.942,1.367,6.911,1.614,10.414"/>
	<path fill="none" stroke="#000000" stroke-width="1.8004" stroke-linecap="round" d="M256.783,145.592
		c2.563-0.824,5.042-1.618,7.266-3.147"/>
	<path fill="none" stroke="#000000" stroke-width="1.5959" stroke-linecap="round" d="M256.783,147.045
		c2.669,1.921,0.556,6.658,3.875,7.75"/>
	<path fill="none" stroke="#000000" stroke-width="1.7559" stroke-linecap="round" d="M260.658,154.794
		c1.233-0.381,2.372-0.49,3.229-0.322"/>
	<path fill="none" stroke="#000000" stroke-width="3.0118" stroke-linecap="round" d="M258.722,159.639c0.322,0,0.646,0,0.969,0"/>
	<path fill="none" stroke="#000000" stroke-width="2.5867" stroke-linecap="round" d="M256.783,147.045
		c-3.364,3.917-1.768,9.516,1.938,12.594"/>
	<path fill="none" stroke="#000000" stroke-width="2.1661" stroke-linecap="round" d="M259.691,159.639
		c1.215,0.436,2.666,0.417,4.359,0.483"/>
	<path fill="none" stroke="#000000" stroke-width="1.6778" stroke-linecap="round" d="M260.658,154.794
		c-0.021,1.653-0.47,3.276-0.969,4.845"/>
	<path fill="none" stroke="#000000" stroke-width="1.5443" stroke-linecap="round" d="M198.662,166.419
		c1.186-1.67,0.659-3.73,1.258-5.522c0.324-0.322,0.617-0.674,0.909-1.028c1.417-0.312,2.244-0.682,3.646-0.714"/>
	<path fill="none" stroke="#000000" stroke-width="1.8428" stroke-linecap="round" d="M251.456,167.387
		c-0.239-2.153,0.622-4.634-0.75-6.523c-1.416-0.342-2.274-0.706-3.125-0.741"/>
	<path fill="none" stroke="#000000" stroke-width="1.5486" stroke-linecap="round" d="M240.801,169.324
		c0.574-1.248,2.018-1.716,2.422-2.906"/>
	<path fill="none" stroke="#000000" stroke-width="1.4645" stroke-linecap="round" d="M206.897,166.904
		c1.105,0.507,1.609,1.62,2.421,2.421"/>
	<path fill="none" stroke="#000000" stroke-width="1.9025" stroke-linecap="round" d="M187.038,184.824
		c-0.88,1.361-1.202,2.135-1.453,2.906"/>
	<path fill="none" stroke="#000000" stroke-width="1.823" stroke-linecap="round" d="M180.258,178.043
		c0.098-0.228,0.194-0.455,0.293-0.682c4.733-3.095,6.542,4.003,6.487,7.463"/>
	<path fill="none" stroke="#000000" stroke-width="1.7749" stroke-linecap="round" d="M187.038,184.824
		c1.115,1.708,1.28,2.575,1.669,3.161c1.447,0.306,3.052,0.554,4.144,1.683"/>
	<path fill="none" stroke="#000000" stroke-width="2.0087" stroke-linecap="round" d="M192.851,189.667
		c1.769,0.717,2.471,2.435,2.583,4.198"/>
	<path fill="none" stroke="#000000" stroke-width="2.3728" stroke-linecap="round" d="M195.434,193.865
		c0.659,0.271,1.88,1.028,3.229,1.614"/>
	<path fill="none" stroke="#000000" stroke-width="1.8648" stroke-linecap="round" d="M198.662,195.48
		c0.619-1.032,1.77-2.711,3.162-2.188c0.247,0.838,0.205,2.586,0.229,4.126"/>
	<path fill="none" stroke="#000000" stroke-width="1.9852" stroke-linecap="round" d="M202.053,197.417
		c0.606,1.045,1.68,2.085,2.422,2.906"/>
	<path fill="none" stroke="#000000" stroke-width="1.8549" stroke-linecap="round" d="M204.475,200.323
		c1.22-0.499,2.351-0.023,3.39,0.484"/>
	<path fill="none" stroke="#000000" stroke-width="1.9728" stroke-linecap="round" d="M207.865,200.808
		c11.252,2.552,22.913-0.122,34.396,1.412c1.163-0.7,1.731-1.188,2.409-1.532c0.843-1.285,1.896-2.362,2.588-3.755"/>
	<path fill="none" stroke="#000000" stroke-width="2.19" stroke-linecap="round" d="M247.259,196.933
		c-0.19-1.006,0.395-2.302,0.836-2.752c0.629,0.063,1.632,0.373,2.393,0.813"/>
	<path fill="none" stroke="#000000" stroke-width="1.3699" stroke-linecap="round" d="M250.488,194.995
		c0.375-0.917,1.232-1.351,1.938-1.938"/>
	<path fill="none" stroke="#000000" stroke-width="1.6342" stroke-linecap="round" d="M252.425,193.058
		c-0.023-0.599,0.308-1.43,0.75-2.169c1.376-0.338,2.212-0.702,3.608-0.737"/>
	<path fill="none" stroke="#000000" stroke-width="1.444" stroke-linecap="round" d="M256.783,190.153
		c0.927-0.995,2.045-1.441,3.392-1.938"/>
	<path fill="none" stroke="#000000" stroke-width="1.6778" stroke-linecap="round" d="M260.175,188.214
		c0.43-1.443,0.028-3.699,1.938-4.116"/>
	<path fill="none" stroke="#000000" stroke-width="1.8489" stroke-linecap="round" d="M262.112,184.098
		c-0.017-1.593-0.038-2.725,0.15-3.579c0.907-0.562,2.26-1.526,3.239-0.539"/>
	<path fill="none" stroke="#000000" stroke-width="1.5044" stroke-linecap="round" d="M260.175,188.214
		c1.171,0.577,2.09,0.998,2.906,0.815c0.511-0.91,0.514-2.743,0.334-4.061c-0.384-0.421-0.853-0.595-1.304-0.871"/>
	<path fill="none" stroke="#000000" stroke-width="1.7203" stroke-linecap="round" d="M192.851,189.667
		c-0.745,1.612-0.27,3.706,0.521,5.15c0.42,0.187,1.235-0.378,2.063-0.953"/>
	<path fill="none" stroke="#000000" stroke-width="1.3699" stroke-linecap="round" d="M252.425,193.058
		c0.933,0.44,1.725,0.791,2.354,0.976c0.502-0.071,1.192-0.432,1.749-0.736c0.17-0.777,0.199-1.967,0.254-3.146"/>
	<path fill="none" stroke="#000000" stroke-width="1.1462" stroke-linecap="round" d="M198.662,195.48
		c0.476,0.706,0.822,1.179,1.163,1.641c0.618,0.149,1.418,0.225,2.229,0.297"/>
	<path fill="none" stroke="#000000" stroke-width="1.6778" stroke-linecap="round" d="M247.259,196.933
		c1.053,0.037,1.601-0.054,2.125-0.15c0.407-0.558,0.695-1.229,1.104-1.787"/>
	<path fill="none" stroke="#000000" stroke-width="1.5486" stroke-linecap="round" d="M204.475,200.323
		c0.295,0.878,0.801,1.474,1.399,2.024c0.961-0.023,1.397-0.888,1.99-1.541"/>
	<path fill="none" stroke="#000000" stroke-width="1.3952" stroke-linecap="round" d="M246.128,217.759
		c-1.122,1.228-2.325,1.844-3.119,2.688c-4.015,0.69-7.342,2.479-11.127,3.413c-1.415,0.348-2.195,1.717-3.634,1.872
		c-2.867,0.309-8.986-1.18-12.354-2.924c-1.841-0.954-4.151-0.606-5.607-1.175c-3.091-1.205-5.104-3.607-6.781-5.811"/>
	<path fill="none" stroke="#000000" stroke-width="1.3699" stroke-linecap="round" d="M257.752,304.942
		c0.286,1.006,0.792,1.792,0.97,2.906"/>
	<path fill="none" stroke="#000000" stroke-width="1.1185" stroke-linecap="round" d="M196.726,308.817c0-0.646,0-1.292,0-1.938"/>
	<path fill="none" stroke="#000000" stroke-width="1.3699" stroke-linecap="round" d="M151.681,329.644
		c0.953-0.582,1.849-1.253,3.391-2.423"/>
	<path fill="none" stroke="#000000" stroke-width="1.7807" stroke-linecap="round" d="M155.072,327.221
		c-2.468-4.323-4.295-9.467-4.359-14.772"/>
	<path fill="none" stroke="#000000" stroke-width="1.7804" stroke-linecap="round" d="M150.712,312.449
		c-0.163-0.053-0.327-0.106-0.49-0.16c-0.358-0.346-1.854-1.886-2.241-3.478c-1.633-6.712-1.044-22.229,1.42-28.914
		c2.173-5.895,1.81-16.16,5.396-23.594c0.094-0.19,0.63-0.181,0.777-0.405c2.284-3.454,3.693-7.57,6.229-11.071
		c2.271-3.135,4.199-6.754,6.765-9.703c0.659-0.758,0.97-0.941,1.531-1.517c3.855-3.948,3.37-8.379,5.42-12.845
		c0.208-0.454,0.922-0.517,1.113-0.785c3.596-5.068,7.404-6.281,12.061-8.316c1.939-0.848,3.394-2.556,4.925-4.775
		c0.735-1.85-1.347-2.885-1.977-4.375c-4.699-2.593-10.601-3.615-13.833-8.304c-0.572-0.14-1.396-0.476-2.144-0.93
		c-1.807-2.769-2.96-5.854-3.539-8.891c-1.027-5.392,0.414-11.42,0.77-17.434c0.263-4.456,0.013-9.114,0.16-12.979
		c0.011-0.297,0.636-0.514,0.654-0.777c0.382-5.305,0.117-11.627,1.676-15.889c2.027-5.55,2.121-7.913,1.03-12.547
		c-0.949-4.035-2.382-6.38-0.858-10.521c0.768-0.573,1.363-1.368,2.295-1.71c5.711-10.819,16.422-9.735,25.138-4.021
		c13.347-3.979,29.083-4.715,42.125,1.154c2.3-0.518,4.538-1.295,6.311-2.855c3.396-1.227,9.137-2.262,13.938-0.306
		c7.086,2.887,9.974,8.326,7.604,18.629c-1.487,6.459,0.896,12.592,1.643,19.438c0.813,7.466-0.716,19.642,0.725,27.51
		c2.154,11.763,0.012,18.999-5.491,24.662c-0.411,0.423-1.813,0.711-2.359,1.077c-1.071,0.716-2.839,2.695-4.252,3.657
		c-0.602,0.408-1.602,0.509-2.462,0.899c-3.183,1.445-3.496,3.212-6.061,4.581c-0.574,0.198-1.185,0.65-1.796,1.115"/>
	<path fill="none" stroke="#000000" stroke-width="1.4959" stroke-linecap="round" d="M252.909,208.073
		c3.062,5.309,10.124,4.436,13.812,8.469c4.959,0.988,7.221,6.386,7.938,10.888c1.507,3.03,5.177,3.6,8.129,4.417
		c2.819,1.954,6.296,3.187,8.626,5.771"/>
	<path fill="none" stroke="#000000" stroke-width="1.4125" stroke-linecap="round" d="M291.414,237.617
		c2.375,0.384,3.863-1.701,5.308-3.169c9.313-5.596,18.359-10.931,27.11-17.449c1.911-0.065,3.721-0.538,5.604-0.692"/>
	<path fill="none" stroke="#000000" stroke-width="1.6052" stroke-linecap="round" d="M329.436,216.307
		c9.866-2.037,20.407-5.265,30.514-2.906"/>
	<path fill="none" stroke="#000000" stroke-width="1.5997" stroke-linecap="round" d="M359.949,213.401
		c0.21-0.113,0.421-0.227,0.631-0.339c5.97-0.61,12.197-1.249,18.134-0.004c0.792,0.566,1.21,1.222,1.491,1.767
		c-3.66,3.842-8.966,4.931-13.676,7.098c-4.528,2.083-8.072,4.501-12.876,6.01"/>
	<path fill="none" stroke="#000000" stroke-width="1.4075" stroke-linecap="round" d="M353.654,227.931
		c0.479,2.078-1.278,3.604-1.453,5.569"/>
	<path fill="none" stroke="#000000" stroke-width="1.8549" stroke-linecap="round" d="M352.2,233.5
		c0.456,0.113,1.189,0.627,1.938,1.211"/>
	<path fill="none" stroke="#000000" stroke-width="1.6404" stroke-linecap="round" d="M354.138,234.711
		c2.563,0.392,8.911-0.699,13.508-0.871c3.951-0.146,8.827-0.864,12.249,0.832c-0.073,0.897-0.749,1.521-1.284,2.234
		c-7.725,4.334-16.181,6.559-23.987,10.882"/>
	<path fill="none" stroke="#000000" stroke-width="1.4997" stroke-linecap="round" d="M354.623,247.789
		c-0.981,0.672-1.531,1.142-2.135,1.714c-20.996,4.028-41.934,10.417-63.584,11.692c-5.436-1.623-9.429-5.605-14.434-7.857
		c-2.093-2.604-4.724-5.322-8.242-6.033"/>
	<path fill="none" stroke="#000000" stroke-width="1.7328" stroke-linecap="round" d="M266.229,247.304
		c-0.055,0.159-0.11,0.318-0.166,0.479c3.573,10.464,7.784,22.921,0.935,32.925c0.824,1.865,1.36,4.262,2.882,5.469
		c2.305,4.495,2.325,9.814,5.172,14.061c0.293,2.083,0.099,4.461-0.018,6.489c-0.021,0.384-0.691,0.808-0.688,1.264
		c0.04,4.134,0.498,7.353-0.127,11.483"/>
	<path fill="none" stroke="#000000" stroke-width="1.2996" stroke-linecap="round" d="M139.089,331.58
		c2.546-4.143,8.704-4.421,12.593-1.937"/>
	<path fill="none" stroke="#000000" stroke-width="1.4872" stroke-linecap="round" d="M150.712,312.449
		c4.702-2.226,9.343,0.596,14.047,0.727"/>
	<path fill="none" stroke="#000000" stroke-width="1.6064" stroke-linecap="round" d="M164.759,313.175
		c0.123-2.563-1-4.942-1.938-7.265"/>
	<path fill="none" stroke="#000000" stroke-width="1.8252" stroke-linecap="round" d="M162.821,305.91
		c-0.851-0.297-1.508-0.798-2.163-1.387c-0.94-5.591-1.512-11.146-3.165-16.534"/>
	<path fill="none" stroke="#000000" stroke-width="1.3699" stroke-linecap="round" d="M162.821,305.91
		c0.789-0.713,1.506-1.779,2.169-2.62c0.825-0.183,1.352-0.629,1.908-1.051c4.192-1.015,7.711,0.904,11.745,1.411"/>
	<path fill="none" stroke="#000000" stroke-width="1.8266" stroke-linecap="round" d="M178.643,303.651
		c1.228-1.438,0.971-3.305,1.373-5.005"/>
	<path fill="none" stroke="#000000" stroke-width="1.7223" stroke-linecap="round" d="M180.016,298.646
		c0.453-5.199-2.048-9.849-1.695-15.016"/>
	<path fill="none" stroke="#000000" stroke-width="1.4291" stroke-linecap="round" d="M180.016,298.646
		c3.196-0.766,6.538-0.432,9.768-0.97"/>
	<path fill="none" stroke="#000000" stroke-width="2.0729" stroke-linecap="round" d="M189.782,297.676
		c2.948-4.841-0.172-10.464-1.633-15.154c-0.961-3.083-1.67-6.718-3.162-9.45c-0.254-0.465-0.973-0.438-1.118-0.785
		c-0.307-0.738-0.206-1.89-0.445-2.425c-0.08-0.178-0.665-0.17-0.771-0.395c-1.582-3.308-1.746-6.846-1.426-10.054"/>
	<path fill="none" stroke="#000000" stroke-width="1.5316" stroke-linecap="round" d="M181.227,259.413
		c-0.603-0.232-1.006-0.411-1.401-0.585c-0.398-0.596-0.578-1.254-0.77-1.813c0.417-0.966,1.002-1.999,1.483-3.145
		c0.807-0.534,1.496-0.965,2.141-1.239"/>
	<path fill="none" stroke="#000000" stroke-width="1.8626" stroke-linecap="round" d="M182.68,252.632
		c1.793-4.262,3.654-8.713,6.509-12.374c0.802-0.144,1.992-0.172,3.178-0.22"/>
	<path fill="none" stroke="#000000" stroke-width="2.2427" stroke-linecap="round" d="M192.365,240.039
		c-1.473-4.409-2.183-9.067-3.39-13.562"/>
	<path fill="none" stroke="#000000" stroke-width="1.4033" stroke-linecap="round" d="M192.365,240.039
		c2.962,13.116,20.637,8.478,29.545,5.813"/>
	<path fill="none" stroke="#000000" stroke-width="2.6796" stroke-linecap="round" d="M189.782,297.676
		c2.015,7.916,1.679,16.516-1.453,24.057"/>
	<path fill="none" stroke="#000000" stroke-width="1.4368" stroke-linecap="round" d="M188.329,321.733
		c1.07,0.513,1.856,1.005,2.583,1.613"/>
	<path fill="none" stroke="#000000" stroke-width="1.4309" stroke-linecap="round" d="M180.741,327.706
		c3.413-1.346,7.099-0.124,10.171,1.453"/>
	<path fill="none" stroke="#000000" stroke-width="1.5807" stroke-linecap="round" d="M185.424,350.793
		c0.247,0.15,0.494,0.302,0.741,0.452c2.632,0.838,5.475-0.14,7.793-0.635c9.119-1.943,19.614,0.603,25.353-4.525
		c0.699-3.362,0.646-6.372-0.047-9.379c-0.04-0.175-0.701-0.188-0.771-0.397c-1.582-4.809-3.756-9.812-5.834-14.218
		c-0.044-0.093-1.353-1.072-1.144-2.826c-2.416-3.503-7.525-7.897-4.271-12.52c-0.064-2.215,0.362-4.309,1.588-6.163"/>
	<path fill="none" stroke="#000000" stroke-width="1.358" stroke-linecap="round" d="M208.833,300.582
		c-2.729-3.727-5.396-7.479-9.202-10.171"/>
	<path fill="none" stroke="#000000" stroke-width="1.4695" stroke-linecap="round" d="M208.833,300.582
		c0.64,0.33,1.164,0.774,1.663,1.244c10.916,2.944,22.306,2.052,33.21-0.275"/>
	<path fill="none" stroke="#000000" stroke-width="1.307" stroke-linecap="round" d="M243.706,301.551
		c1.641-5.526,7.479-8.147,10.171-13.077"/>
	<path fill="none" stroke="#000000" stroke-width="1.6312" stroke-linecap="round" d="M243.706,301.551
		c4.575,5.42,0.012,14.034-2.684,17.642c-1.551,5.313-3.843,10.979-6.084,15.098c-0.108,0.198-0.641,0.179-0.697,0.4
		c-0.491,1.916-0.755,5.099,0.003,7.264c-0.029-0.086,2.551,4.505,4.349,5.402c4.688,2.34,14.157,1.981,21,1.951
		c0.248-0.001,0.493-0.422,0.742-0.452"/>
	<path fill="none" stroke="#000000" stroke-width="1.6418" stroke-linecap="round" d="M260.336,348.856
		c-3.771-7.985,0.297-20.719,10.494-19.696"/>
	<path fill="none" stroke="#000000" stroke-width="1.3361" stroke-linecap="round" d="M270.83,329.159
		c-3.443-5.911-11.768-5.647-16.952-1.938"/>
	<path fill="none" stroke="#000000" stroke-width="1.453" stroke-linecap="round" d="M270.83,329.159
		c0.2,0.253,0.604,0.395,0.98,0.62c1.56,2.27,3.609,4.141,6.033,5.444c0.971,1.35,1.215,3.288,3.157,3.621"/>
	<path fill="none" stroke="#000000" stroke-width="1.7826" stroke-linecap="round" d="M281.001,338.845
		c0.864-4.171,2.865-7.678,6.036-10.432c2.768-1.097,5.661-0.617,8.494-0.224"/>
	<path fill="none" stroke="#000000" stroke-width="1.1185" stroke-linecap="round" d="M295.531,328.191c0-0.704,0-1.561,0-2.422"/>
	<path fill="none" stroke="#000000" stroke-width="1.7108" stroke-linecap="round" d="M295.531,325.769
		c-4.412-5.257-11.468-2.943-17.148-4.646c-1.09-1.051-2.726-1.348-4.162-1.652"/>
	<path fill="none" stroke="#000000" stroke-width="1.7587" stroke-linecap="round" d="M274.221,319.471
		c-4.11,1.044-8.732-0.07-12.594,1.938"/>
	<path fill="none" stroke="#000000" stroke-width="1.4972" stroke-linecap="round" d="M266.229,247.304
		c-1.397-3.415-4.571-5.57-7.83-6.941"/>
	<path fill="none" stroke="#000000" stroke-width="1.5155" stroke-linecap="round" d="M258.399,240.363
		c-1.557,1.447-1.396,3.072-2.143,3.835c-2.727,0.194-3.435,3.435-6.702,3.958c-5.757,0.921-11.517-2.365-19.408-2.789"/>
	<path fill="none" stroke="#000000" stroke-width="1.772" stroke-linecap="round" d="M258.399,240.363
		c-0.4-4.423,2.247-8.476,2.26-12.916"/>
	<path fill="none" stroke="#000000" stroke-width="1.4038" stroke-linecap="round" d="M352.2,233.5
		c-1.672,0.256-2.576,1.984-4.358,1.695"/>
	<path fill="none" stroke="#000000" stroke-width="1.6465" stroke-linecap="round" d="M334.28,228.415
		c-0.396,3.382-4.317,4.33-5.57,7.266"/>
	<path fill="none" stroke="#000000" stroke-width="1.6209" stroke-linecap="round" d="M328.709,235.681
		c0.211,0.568-0.156,1.373-0.241,2.422"/>
	<path fill="none" stroke="#000000" stroke-width="1.7559" stroke-linecap="round" d="M328.709,235.681
		c-2.389-0.282-4.792,1.646-6.054,3.391"/>
	<path fill="none" stroke="#000000" stroke-width="1.8549" stroke-linecap="round" d="M291.414,237.617
		c-0.142,0.484-0.405,0.969-0.727,1.453"/>
	
		<line fill="none" stroke="#000000" stroke-width="2.9061" stroke-linecap="round" x1="252.909" y1="208.073" x2="252.909" y2="208.073"/>
	<path fill="none" stroke="#000000" stroke-width="1.5843" stroke-linecap="round" d="M252.909,208.073
		c-3.226,1.769-5.96,5.045-9.889,6.579c-0.978,0.381-2.521,0.164-3.521,0.354c-8.286,1.586-19.792,2.577-29.063-0.304
		c-4.293-1.334-9.138-3.227-11.065-7.346c-1.075-0.617-1.158-1.352-1.678-1.705"/>
	<path fill="none" stroke="#000000" stroke-width="1.6778" stroke-linecap="round" d="M252.909,208.073
		c-0.429-1.005-0.052-1.792,0-2.906"/>
	<path fill="none" stroke="#000000" stroke-width="1.689" stroke-linecap="round" d="M329.436,216.307
		c-1.178,4.615-0.594,10.618,4.844,12.108"/>
	<path fill="none" stroke="#000000" stroke-width="1.6691" stroke-linecap="round" d="M334.28,228.415
		c4.029-2.946,8.747-6.117,13.697-7.08c0.249-0.048,0.578,0.317,0.833,0.299"/>
	<path fill="none" stroke="#000000" stroke-width="1.3894" stroke-linecap="round" d="M359.949,213.401
		c-2.193,4.742-8.45,4.21-11.14,8.233"/>
	<path fill="none" stroke="#000000" stroke-width="1.8549" stroke-linecap="round" d="M348.81,221.634
		c0.155,1.594,0.805,3.383,1.249,4.544c1.097,0.771,2.267,1.467,3.595,1.753"/>
	<path fill="none" stroke="#000000" stroke-width="1.5854" stroke-linecap="round" d="M354.138,234.711
		c-1.821,2.946-4.053,6.438-2.317,10.076c0.839,0.686,1.626,1.466,2.803,3.001"/>
	<path fill="none" stroke="#000000" stroke-width="1.8004" stroke-linecap="round" d="M181.227,259.413
		c0.636-2.223,1.193-4.475,1.453-6.781"/>
	<path fill="none" stroke="#000000" stroke-width="2.7908" stroke-linecap="round" d="M178.643,303.651
		c0.664,3.809,1.783,7.574,2.099,11.463"/>
	<path fill="none" stroke="#000000" stroke-width="2.2718" stroke-linecap="round" d="M180.741,315.114
		c1.238,1.245,2.133,1.708,2.661,2.126c0.151,0.887,0.523,2.626,0.729,4.17"/>
	<path fill="none" stroke="#000000" stroke-width="2.1968" stroke-linecap="round" d="M184.132,321.409
		c1.313,0.608,2.814,0.734,4.197,0.323"/>
	<path fill="none" stroke="#000000" stroke-width="2.3728" stroke-linecap="round" d="M164.759,313.175
		c0.358,0.248,0.748,1.884,0.969,3.391"/>
	<path fill="none" stroke="#000000" stroke-width="1.6342" stroke-linecap="round" d="M171.217,323.67
		c2.035,1.294,3.426,3.787,4.843,5.813"/>
	<path fill="none" stroke="#000000" stroke-width="1.8702" stroke-linecap="round" d="M176.06,329.482
		c0.947,0.159,2.746,0.232,3.663,0.012c0.346-0.559,0.631-1.229,1.02-1.787"/>
	<path fill="none" stroke="#000000" stroke-width="1.2042" stroke-linecap="round" d="M180.741,327.706
		c-0.685-1.744-0.809-4.078,0-5.813"/>
	<path fill="none" stroke="#000000" stroke-width="1.6434" stroke-linecap="round" d="M155.072,327.221
		c3.374,2.772,6.226,7.156,11.141,7.111c1.414-2.338-0.563-4.967,0.16-7.435"/>
	<path fill="none" stroke="#000000" stroke-width="1.9069" stroke-linecap="round" d="M166.372,326.899
		c-0.889-1.313-1.55-3.014-0.646-4.521"/>
	<path fill="none" stroke="#000000" stroke-width="2.1443" stroke-linecap="round" d="M165.728,322.378
		c-0.651-1.827-0.731-3.991,0-5.813"/>
	<path fill="none" stroke="#000000" stroke-width="2.0549" stroke-linecap="round" d="M180.741,321.894
		c0.855,0.076,2.165-0.082,3.391-0.484"/>
	<path fill="none" stroke="#000000" stroke-width="1.8337" stroke-linecap="round" d="M180.741,315.114
		c-1.67,1.907-0.75,4.717,0,6.781"/>
	<path fill="none" stroke="#000000" stroke-width="2.3156" stroke-linecap="round" d="M165.728,322.378
		c1.292-0.358,2.583-0.5,3.875-0.969"/>
	<path fill="none" stroke="#000000" stroke-width="1.8633" stroke-linecap="round" d="M169.602,321.409
		c-0.554-2.1-1.822-3.966-3.875-4.844"/>
	<path fill="none" stroke="#000000" stroke-width="2.0549" stroke-linecap="round" d="M166.372,326.899
		c0.235-0.088,0.521-0.126,0.809-0.161"/>
	<path fill="none" stroke="#000000" stroke-width="1.3313" stroke-linecap="round" d="M167.181,326.738
		c0.616-1.795,2.691-2.048,4.036-3.067"/>
	<path fill="none" stroke="#000000" stroke-width="2.1661" stroke-linecap="round" d="M171.217,323.67
		c-0.188-0.617-0.988-1.536-1.615-2.261"/>
	<path fill="none" stroke="#000000" stroke-width="1.2506" stroke-linecap="round" d="M167.181,326.738
		c0.657,0.311,1.346,0.591,1.937,0.969"/>
	<path fill="none" stroke="#000000" stroke-width="2.0319" stroke-linecap="round" d="M151.681,329.644c0,0.656,0,1.347,0,1.937"/>
	<path fill="none" stroke="#000000" stroke-width="1.5939" stroke-linecap="round" d="M151.681,331.58
		c7.963,1.512,8.69,11.53,8.718,18.163"/>
	<path fill="none" stroke="#000000" stroke-width="2.0549" stroke-linecap="round" d="M160.4,349.743
		c1.57,0.429,3.234,0.161,4.844,0.242"/>
	<path fill="none" stroke="#000000" stroke-width="1.6634" stroke-linecap="round" d="M165.242,349.986
		c1.176-6.753,5.007-11.461,8.718-16.952"/>
	<path fill="none" stroke="#000000" stroke-width="1.5695" stroke-linecap="round" d="M173.961,333.033
		c-0.249-1.603,0.758-2.878,2.1-3.552"/>
	<path fill="none" stroke="#000000" stroke-width="1.6362" stroke-linecap="round" d="M311.999,328.191
		c-0.823-1.417-2.033-2.472-3.129-3.651c-4.419-1.579-9.114-0.333-13.338,1.229"/>
	<path fill="none" stroke="#000000" stroke-width="1.3699" stroke-linecap="round" d="M139.089,331.58
		c2.271,2.012,2.825,4.792,4.843,6.781"/>
	<path fill="none" stroke="#000000" stroke-width="1.3854" stroke-linecap="round" d="M143.932,338.362
		c2.167-2.789,4.96-4.734,7.75-6.781"/>
	<path fill="none" stroke="#000000" stroke-width="1.8533" stroke-linecap="round" d="M281.648,346.918
		c8.014,0.846,17.538,2.414,25.121-0.032c0.339-0.108,0.543-0.636,0.873-0.773"/>
	<path fill="none" stroke="#000000" stroke-width="1.9055" stroke-linecap="round" d="M307.641,346.112
		c-0.064-4.293-3.003-6.908-3.633-10.898"/>
	<path fill="none" stroke="#000000" stroke-width="1.6331" stroke-linecap="round" d="M304.008,335.213
		c-3.239-2.078-5.781-4.531-8.477-7.021"/>
	<path fill="none" stroke="#000000" stroke-width="1.3623" stroke-linecap="round" d="M260.336,348.856
		c6.56,0.813,13.682,1.16,20.126,0.11c0.34-0.613,0.708-1.381,1.186-2.049"/>
	<path fill="none" stroke="#000000" stroke-width="1.8209" stroke-linecap="round" d="M281.648,346.918
		c-0.199-2.694-1.904-5.391-0.646-8.071"/>
	<path fill="none" stroke="#000000" stroke-width="1.7216" stroke-linecap="round" d="M307.641,346.112
		c5.648,2.255,12.04,0.004,17.929,0.188c1.505-1.153,0.683-3.287,0.259-4.75c-3.076-5.459-8.026-10.407-13.83-13.358"/>
	<path fill="none" stroke="#000000" stroke-width="1.7559" stroke-linecap="round" d="M311.999,328.191
		c-3.691,0.795-6.804,3.575-7.991,7.021"/>
	<path fill="none" stroke="#000000" stroke-width="1.5732" stroke-linecap="round" d="M139.089,331.58
		c-7.044,3.426-14.159,11.05-12.485,19.329c4.516,1.542,9.362-0.119,13.938-0.439"/>
	<path fill="none" stroke="#000000" stroke-width="1.9996" stroke-linecap="round" d="M143.932,338.362
		c-0.846,4.194-5.26,7.316-3.391,12.107"/>
	<path fill="none" stroke="#000000" stroke-width="1.5939" stroke-linecap="round" d="M140.541,350.47
		c6.304,2.471,13.313-0.483,19.858-0.727"/>
	<path fill="none" stroke="#000000" stroke-width="1.671" stroke-linecap="round" d="M165.242,349.986
		c0.669,0.706,1.23,1.18,1.785,1.642c6.098,0.45,12.313-0.207,18.396-0.834"/>
	<path fill="none" stroke="#000000" stroke-width="1.3772" stroke-linecap="round" d="M185.424,350.793
		c2.201-6.362,0.085-13.656-5.384-17.543c-2.003-0.375-4.056-0.146-6.08-0.217"/>
</g>
</svg>
