<?xml version="1.0" encoding="utf-8"?>
<!-- Generator: Adobe Illustrator 14.0.0, SVG Export Plug-In . SVG Version: 6.00 Build 43363)  -->
<!DOCTYPE svg PUBLIC "-//W3C//DTD SVG 1.1//EN" "http://www.w3.org/Graphics/SVG/1.1/DTD/svg11.dtd">
<svg version="1.1" id="图层_1" xmlns="http://www.w3.org/2000/svg" xmlns:xlink="http://www.w3.org/1999/xlink" x="0px" y="0px"
	 width="848px" height="480px" viewBox="0 0 848 480" enable-background="new 0 0 848 480" xml:space="preserve">
<g>
	<path fill="none" stroke="#000000" stroke-width="1.334" stroke-linecap="round" d="M198.226,142.763
		c0.48,0.706,0.827,1.179,1.165,1.642c4.183,0.888,8.678,2.122,12.882,0.78"/>
	<path fill="none" stroke="#000000" stroke-width="2.3935" stroke-linecap="round" d="M198.226,142.763
		c-2.125-1.523-4.519-2.556-6.989-3.433c0.45-4.335-3.439-9.305,0.209-13.035"/>
	<path fill="none" stroke="#000000" stroke-width="2.2832" stroke-linecap="round" d="M191.446,126.296
		c-0.305-5.059,3.222-8.291,7.749-9.688"/>
	<path fill="none" stroke="#000000" stroke-width="1.6778" stroke-linecap="round" d="M199.195,116.609
		c1.715,1.891,2.816,3.706,3.875,5.813"/>
	<path fill="none" stroke="#000000" stroke-width="1.7328" stroke-linecap="round" d="M214.21,139.373
		c1.32-0.447,1.797-1.205,2.146-1.708c2.139-0.104,5.451-9.599,2.909-14.271c-0.649-1.194-2.894-2.713-3.327-3.166
		c-4.422-4.589-10.76-6.747-16.743-3.62"/>
	<path fill="none" stroke="#000000" stroke-width="1.7686" stroke-linecap="round" d="M191.446,126.296
		c1.686,1.328,3.857,1.682,5.813,2.422"/>
	<path fill="none" stroke="#000000" stroke-width="1.6331" stroke-linecap="round" d="M197.26,128.718
		c2.133-0.363,3.538-2.088,5.348-3.023c0.415-0.755,0.4-2.063,0.464-3.271"/>
	<path fill="none" stroke="#000000" stroke-width="2.2718" stroke-linecap="round" d="M208.885,136.951
		c0.538-0.965,0.966-1.112,1.451-1.453"/>
	<path fill="none" stroke="#000000" stroke-width="1.4596" stroke-linecap="round" d="M210.336,135.498
		c2.313-3.199,2.603-7.635,0.23-10.888c-2.331-1.319-4.678-2.548-7.496-2.189"/>
	<path fill="none" stroke="#000000" stroke-width="1.5997" stroke-linecap="round" d="M198.226,142.763
		c3.723-0.624,8.489,1.144,11.786-1.453"/>
	<path fill="none" stroke="#000000" stroke-width="2.8829" stroke-linecap="round" d="M210.014,141.311
		c-0.703-1.413-0.99-3.016-1.13-4.357"/>
	<path fill="none" stroke="#000000" stroke-width="1.4556" stroke-linecap="round" d="M208.885,136.951
		c-3.592-1.631-9.266,0.803-11.411-4.082c-0.188-1.036-0.188-2.485-0.213-4.152"/>
	<path fill="none" stroke="#000000" stroke-width="1.8123" stroke-linecap="round" d="M210.014,141.311
		c1.738,0.139,2.854-0.896,4.195-1.938"/>
	<path fill="none" stroke="#000000" stroke-width="1.2996" stroke-linecap="round" d="M214.21,139.373
		c-0.503-1.111-1.065-2.161-1.708-3.137c-0.824-0.143-1.517-0.421-2.166-0.738"/>
	<path fill="none" stroke="#000000" stroke-width="1.2302" stroke-linecap="round" d="M253.442,114.672
		c5.219,0.034,11.922,3.367,10.655,9.687"/>
	<path fill="none" stroke="#000000" stroke-width="0.9687" stroke-linecap="round" d="M253.928,125.811
		c-0.851-0.28-2.09,0.353-2.906,0c-0.122-0.052,0.102-0.867,0-0.968c-0.646-0.646-3.078,0.495-3.875,0
		c-0.178-0.824,0.378-0.914,0.969-0.969c0.824,0.178,0.914-0.378,0.969-0.971c0.352-0.241,1.681,0.316,1.938,0
		c0.158-0.191-0.127-0.75,0-0.969c0.646,0,1.292,0,1.938,0c-0.179,0.824,0.378,0.914,0.971,0.969
		C253.928,123.874,253.928,124.843,253.928,125.811z"/>
	<path fill="none" stroke="#000000" stroke-width="1.6778" stroke-linecap="round" d="M118.309,159.716
		c0.528-0.588,0.757-1.024,0.969-1.453"/>
	<path fill="none" stroke="#000000" stroke-width="1.5436" stroke-linecap="round" d="M200.164,192.167
		c14.563,2.358,39.841,2.779,40.201-16.952"/>
	<path fill="none" stroke="#000000" stroke-width="1.1864" stroke-linecap="round" d="M261.191,182.48
		c-2.872-0.668-5.011,1.069-7.749,0.969"/>
	<path fill="none" stroke="#000000" stroke-width="1.5316" stroke-linecap="round" d="M266.035,252.71
		c1.063-1.204,2.003-2.204,2.422-3.875"/>
	<path fill="none" stroke="#000000" stroke-width="1.4368" stroke-linecap="round" d="M260.224,292.91
		c0.513-0.456,0.747-1.189,0.968-1.938"/>
	<path fill="none" stroke="#000000" stroke-width="1.2506" stroke-linecap="round" d="M282.018,318.581
		c0.381-0.268,0.913-0.379,1.453-0.484"/>
	<path fill="none" stroke="#000000" stroke-width="1.4643" stroke-linecap="round" d="M119.278,185.87
		c-5.801,0.254-9.139-4.532-9.696-9.977c-3.923-6.909-3.473-15.747-1.146-23.159c1.688-3.042,6.46-5.428,14.083-7.218
		c3.313-0.779,6.803-2.926,10.061-4.474c3.117-1.481,6.749-3.072,10.637-4.861c0.777-0.359,1.729-0.14,2.411-0.493
		c3.198-1.649,6.563-4.158,10.67-5.799c3.938-1.573,6.508-3.909,9.205-5.326c0.735-0.387,1.75-0.12,2.412-0.493
		c1.338-0.751,1.399-2.021,4.967-2.138"/>
	<path fill="none" stroke="#000000" stroke-width="1.5693" stroke-linecap="round" d="M172.88,121.937
		c0.535-1.133,0.559-2.94,0.868-3.594c0.209-0.119,0.485-0.261,0.768-0.405c2.121-8.208,10.852-13.057,19.07-16.626
		c0.759-0.329,1.812-0.079,2.558-0.35c0.889-0.323,1.519-1.283,2.301-1.574c1.936-0.72,3.846-1.281,5.797-1.954
		c2.601-0.896,7.188-1.999,10.896-2.513c6.218-0.862,10.423-0.337,15.515,2.673c0.926,0.547,2.401,2.222,4.315,3.041
		c1.691,0.724,3.569,0.242,5.581,0.778c12.724,3.396,24.223,4.874,32.208,16.226c0.445,0.635,0.711,1.21,2.391,2.308
		c1.571,3.295,3.029,6.174,4.305,10.358c0.811,2.654,1.373,6.535,2.081,9.552c0.325,1.385,1.243,2.478,1.341,3.336
		c0.752,6.6-0.626,12.497-2.045,19.146c-3.698,5.502-4.367,10-12.076,15.634c-0.307,1.24-0.277,2.998-0.293,4.362
		c1.8,6.565,8.397,5.765,12.359,9.562c3.665,3.515,3.829,8.723,7.227,13.117c2.037,2.638,4.643,4.616,7.766,6.772
		c3.31,5.338,8.003,9.346,12.101,14.066c10.647,0.704,20.849-4.577,31.459-3.368c0.314,0.331,0.677,0.619,1.038,0.906
		c0.195,0.471,0.393,0.834,0.586,1.193c0.055,4.292,0.385,8.829-1.445,13.011c-0.208,0.476-0.982,0.443-1.117,0.788
		c-0.292,0.747-0.219,1.885-0.446,2.425c-0.075,0.18-0.654,0.175-0.765,0.4c-1.978,4.046-3.997,9.03-6.964,13.193
		c-3.087,4.332-9.812,10.263-14.462,15.753c-0.78,0.925-2.194,1.864-3.027,2.625c-0.502,0.458-0.865,1.486-1.593,2.102
		c-1.009,0.85-2.331,1.059-3.235,1.804c-1.801,1.486-2.467,3.007-4.574,3.99c-4.582,2.138-11.231,6.414-18.434,4.969"/>
	<path fill="none" stroke="#000000" stroke-width="1.6006" stroke-linecap="round" d="M284.927,285.645
		c-1.081,1.187-2.59,1.865-3.697,2.933c-0.192,0.947-0.144,2.054,0.05,2.604c2.108,2.444,6.337,5.743,7.542,8.152
		c1.563,3.124,2.056,7.521,4.414,10.943c0.61,0.887,4.423,3.64,6.249,7.31c0.963,1.936,2.126,2.257,2.645,3.131
		c0.361,0.609,0.279,1.969,0.458,2.432c0.071,0.188,0.655,0.17,0.771,0.396c1.469,2.835,1.166,5.888,0.344,8.983
		c-0.967,0.326-0.907,1.1-1.474,1.565c-6.617,5.466-24.396,3.25-33.716,3.765c-6.854,0.379-15.245,1.298-23.248,1.165
		c-6.116-0.103-11.901-0.839-16.986-0.132c-4.92,0.687-12.616,2.695-18.425-1.42"/>
	<path fill="none" stroke="#000000" stroke-width="1.663" stroke-linecap="round" d="M209.851,337.47
		c-0.323,0.227-0.646,0.452-0.969,0.679c-5.1,0.658-10.232,1.271-15.361,1.108c-0.781-0.56-1.232-1.229-1.591-1.787"/>
	<path fill="none" stroke="#000000" stroke-width="1.5361" stroke-linecap="round" d="M191.932,337.47
		c-2.337-0.699-5.571,0.358-7.348-1.406c2.476-7.734,9.938-13.393,17.519-16.027"/>
	<path fill="none" stroke="#000000" stroke-width="1.329" stroke-linecap="round" d="M202.101,320.032
		c4.653-6.061,14.362-9.058,21.312-4.844"/>
	<path fill="none" stroke="#000000" stroke-width="3.714" stroke-linecap="round" d="M228.741,316.644
		c1.468-0.014,2.986,0.173,4.358-0.482"/>
	<path fill="none" stroke="#000000" stroke-width="1.4368" stroke-linecap="round" d="M233.099,316.157
		c0.969-0.679,1.938-0.737,2.905-0.969"/>
	<path fill="none" stroke="#000000" stroke-width="1.3488" stroke-linecap="round" d="M236.008,315.191
		c6.694-2.379,14.294-2.667,19.856-7.266"/>
	<path fill="none" stroke="#000000" stroke-width="1.8359" stroke-linecap="round" d="M255.864,307.925
		c-0.003-5.01-0.594-10.002-2.947-14.342c-0.02-0.036-4.448-5.612-1.412-9.393"/>
	<path fill="none" stroke="#000000" stroke-width="2.9969" stroke-linecap="round" d="M172.88,121.937
		c0.146,0.855,0.141,2.165,0.161,3.393"/>
	<path fill="none" stroke="#000000" stroke-width="1.1864" stroke-linecap="round" d="M119.278,185.87
		c0.211-0.437,0.47-0.822,0.731-1.207c0.523-0.12,1.104-0.187,1.688-0.247"/>
	<path fill="none" stroke="#000000" stroke-width="1.4007" stroke-linecap="round" d="M121.7,184.417
		c0.099-0.228,0.193-0.452,0.291-0.68c1.328-0.064,2.604-0.768,3.907-0.611"/>
	<path fill="none" stroke="#000000" stroke-width="1.8549" stroke-linecap="round" d="M125.898,183.126
		c0.676-0.618,1.15-0.883,1.614-1.13"/>
	<path fill="none" stroke="#000000" stroke-width="1.6952" stroke-linecap="round" d="M127.514,181.995
		c-0.456-1.731,0.704-4.15,2.75-3.8c0.538,0.44,1.029,0.729,1.622,1.019c0.299,0.577,0.581,1.248,0.956,1.813"/>
	<path fill="none" stroke="#000000" stroke-width="1.4617" stroke-linecap="round" d="M132.843,181.027
		c7.519,1.429,13.634,1.126,20.531-1.746c1.179-0.488,2.306-1.91,3.415-2.396c1.597-0.696,2.72-0.572,4.146-0.7"/>
	<path fill="none" stroke="#000000" stroke-width="1.5729" stroke-linecap="round" d="M160.933,176.183
		c0.21-0.436,0.472-0.819,0.735-1.2c1.525-0.292,3.069-1.241,4.592-0.253"/>
	<path fill="none" stroke="#000000" stroke-width="1.3951" stroke-linecap="round" d="M166.261,174.73
		c4.968-2.053,10.335-0.413,15.345-1.123c3.35-0.475,6.948-2.578,10.326-2.267"/>
	<path fill="none" stroke="#000000" stroke-width="1.7597" stroke-linecap="round" d="M191.932,171.34
		c1.329-1.667,3.548-2.118,5.567-1.938"/>
	<path fill="none" stroke="#000000" stroke-width="1.4917" stroke-linecap="round" d="M197.5,169.403
		c1.179-4.008,5.901-4.766,7.058-8.686c1.63-1.203,3.534,0.063,5.296-0.032"/>
	<path fill="none" stroke="#000000" stroke-width="1.5652" stroke-linecap="round" d="M119.278,185.87
		c0.318,5.833,8.706,13.994,20.289,14.432c9.091,0.342,19.883-0.524,29.578-0.832c1.477-0.047,2.861,0.121,4.327,0.059
		c9.549-0.405,18.133-0.258,23.545,3.546c0.476,0.337,0.905,1.237,1.43,1.466c5.064,2.188,9.953,2.468,14.989,3.416
		c2.702,2.3,6.077,3.662,8.685,6.168"/>
	<path fill="none" stroke="#000000" stroke-width="1.5819" stroke-linecap="round" d="M222.121,214.124
		c3.759-1.166,5.743-5.813,7.104-9.364"/>
	<path fill="none" stroke="#000000" stroke-width="1.5729" stroke-linecap="round" d="M222.121,214.124
		c-2.104,7.849-0.509,16,5.651,21.148"/>
	<path fill="none" stroke="#000000" stroke-width="1.5277" stroke-linecap="round" d="M227.772,235.274
		c6.088-1.737,12.834,0.826,19.131-0.969"/>
	<path fill="none" stroke="#000000" stroke-width="1.7761" stroke-linecap="round" d="M246.903,234.305
		c0.056-0.159,0.11-0.318,0.166-0.478c-0.813-3.727-1.102-7.854-2.961-11.153c-3.814-2.165-4.773-6.874-4.711-10.993
		c-0.001-0.208-0.001-0.417-0.001-0.625"/>
	<path fill="none" stroke="#000000" stroke-width="1.8759" stroke-linecap="round" d="M246.903,234.305
		c-0.044,2.198,1.125,4.138,1.211,6.296"/>
	<path fill="none" stroke="#000000" stroke-width="1.4216" stroke-linecap="round" d="M248.114,240.601
		c2.296-0.089,4.565-0.037,6.781,0.484"/>
	<path fill="none" stroke="#000000" stroke-width="1.3574" stroke-linecap="round" d="M225.835,248.351
		c-0.048,0.163-0.096,0.325-0.143,0.487c-8.139,2.762-16.477,6.664-22.843,12.858c-6.377,2.157-10.841,7.216-15.999,11.118
		c-0.166,0.805-0.193,1.743-0.248,2.658"/>
	<path fill="none" stroke="#000000" stroke-width="1.3116" stroke-linecap="round" d="M186.602,275.474
		c4.417,1.534,5.566,7.82,11.14,7.507"/>
	<path fill="none" stroke="#000000" stroke-width="1.4797" stroke-linecap="round" d="M197.742,282.982
		c2.274-1.305,2.392-3.667,4.079-5.812c2.015-2.561,5.136-4.792,7.315-7.233c0.061-0.535,0.729-1.028,1.684-1.243"/>
	<path fill="none" stroke="#000000" stroke-width="2.0926" stroke-linecap="round" d="M197.5,285.645
		c0.161,0.667,0.261,1.273,0.404,1.776"/>
	<path fill="none" stroke="#000000" stroke-width="1.525" stroke-linecap="round" d="M197.904,287.421
		c2.955,3.063,6.85,4.992,10.979,6.458"/>
	<path fill="none" stroke="#000000" stroke-width="1.4976" stroke-linecap="round" d="M208.885,293.879
		c7.396,0.13,9.319-10.059,16.788-9.041"/>
	<path fill="none" stroke="#000000" stroke-width="1.4672" stroke-linecap="round" d="M225.673,284.838
		c2.823-1.796,5.745-3.6,8.17-5.704c1.88-1.634,1.988-3.611,4.587-3.176"/>
	<path fill="none" stroke="#000000" stroke-width="1.6283" stroke-linecap="round" d="M238.429,275.959
		c3.133-3.413,10.453-5.692,15.706-8.513c0.581-0.312,0.905-1.113,1.475-1.431c5.195-2.893,10.604-4.997,14.559-9.659
		c1.771-0.253,2.418-2.256,4.116-2.803c0.323-0.581,0.563-1.233,0.845-1.776c0.313-4.628-2.521-8.539-3.658-13.544
		c-0.436-1.905-0.619-4.78-0.975-6.792c-0.843-4.793-2.667-8.265-1.312-14.814"/>
	<path fill="none" stroke="#000000" stroke-width="1.824" stroke-linecap="round" d="M269.183,216.626
		c-0.728-3.944-1.037-7.054-2.884-10.151c-1.185-1.985-3.557-2.965-4.142-5.59"/>
	<path fill="none" stroke="#000000" stroke-width="2.0926" stroke-linecap="round" d="M269.183,216.626
		c1.895-0.868,2.33-3.21,2.18-5.085"/>
	<path fill="none" stroke="#000000" stroke-width="1.3589" stroke-linecap="round" d="M238.429,275.959
		c3.072,4.559,8.79,5.342,13.075,8.232"/>
	<path fill="none" stroke="#000000" stroke-width="1.4069" stroke-linecap="round" d="M251.505,284.193
		c2.938-2.585,3.718-7.11,5.916-10.557c0.302-0.47,0.901-0.467,1.12-0.792c3.813-5.686,7.94-12.115,16.214-11.9"/>
	<path fill="none" stroke="#000000" stroke-width="1.1185" stroke-linecap="round" d="M255.864,307.925
		c1.137,1.6,3.588,0.757,4.359,2.422"/>
	<path fill="none" stroke="#000000" stroke-width="1.6262" stroke-linecap="round" d="M284.927,285.645
		c2.541-2.377,5.597-4.354,7.266-7.75"/>
	<path fill="none" stroke="#000000" stroke-width="1.1864" stroke-linecap="round" d="M292.19,277.896c0-0.482,0-0.969,0-1.453"/>
	<path fill="none" stroke="#000000" stroke-width="1.5079" stroke-linecap="round" d="M292.19,277.896
		c4.934-1.256,5.976-7.415,10.655-9.202"/>
	<path fill="none" stroke="#000000" stroke-width="1.453" stroke-linecap="round" d="M191.932,171.34
		c0.21,0.436,0.472,0.817,0.735,1.2c1.561-0.134,2.761,1.928,4.303,0.905c0.372-1.312,0.777-2.225,0.689-3.461
		c-0.054-0.192-0.104-0.389-0.16-0.583"/>
	<path fill="none" stroke="#000000" stroke-width="1.5748" stroke-linecap="round" d="M160.933,176.183
		c0.665,1.098,1.511,2.73,3.036,2.495c1.051-0.805,1.821-2.389,2.291-3.948"/>
	<path fill="none" stroke="#000000" stroke-width="1.9852" stroke-linecap="round" d="M127.514,181.995
		c1.783-0.208,3.975,0.649,5.328-0.971"/>
	<path fill="none" stroke="#000000" stroke-width="1.6992" stroke-linecap="round" d="M121.7,184.417
		c0.1,0.228,0.195,0.455,0.293,0.682c0.899,0.659,2.111,0.817,3.061,0.617c0.487-0.796,0.831-1.594,0.919-2.211
		c-0.024-0.126-0.049-0.253-0.072-0.379"/>
	<path fill="none" stroke="#000000" stroke-width="1.772" stroke-linecap="round" d="M227.772,235.274
		c-1.072,4.236-2.002,8.629-1.938,13.077"/>
	<path fill="none" stroke="#000000" stroke-width="1.3423" stroke-linecap="round" d="M225.835,248.351
		c6.153-1.285,12.36-3.057,18.12-5.612c1.617-0.05,3.624-0.28,4.159-2.137"/>
	<path fill="none" stroke="#000000" stroke-width="2.0549" stroke-linecap="round" d="M197.5,285.645
		c0.17-0.615,0.188-1.678,0.242-2.664"/>
	<path fill="none" stroke="#000000" stroke-width="1.524" stroke-linecap="round" d="M186.602,275.474
		c-2.589,1.297-4.55,4.369-6.506,7.035c-0.116,0.158-0.623,0.134-0.778,0.356c-1.84,2.66-3.705,6.826-4.865,9.371
		c-0.09,0.197-0.622,0.188-0.705,0.395c-0.192,0.483,0.001,1.471-0.269,2.04c-1.298,2.737-3.61,6.833-0.468,9.288
		c0.499-0.084,1.194-0.325,1.875-0.499c5.995-6.646,13.554-11.78,20.149-17.591c0.479-0.154,1.522-0.173,2.462-0.225"/>
	<path fill="none" stroke="#000000" stroke-width="1.6654" stroke-linecap="round" d="M208.559,296.785
		c0.685,1.954,0.153,4.61,1.354,6.21c6.88-4.021,11.574-11.497,15.829-17.78c0.051-0.076-0.104-0.292-0.07-0.378"/>
	<path fill="none" stroke="#000000" stroke-width="3.0937" stroke-linecap="round" d="M208.559,296.785
		c0.227-0.971,0.246-1.938,0.322-2.906"/>
	<path fill="none" stroke="#000000" stroke-width="1.6855" stroke-linecap="round" d="M197.904,287.421
		c-6.089,5.482-7.329,14.214-9.286,21.958c0.454,1.326,0.733,2.633,1.172,3.588c0.437,0.255,0.798,0.384,1.157,0.507
		c7.039-4.095,10.278-13.072,17.612-16.688"/>
	<path fill="none" stroke="#000000" stroke-width="1.4132" stroke-linecap="round" d="M207.268,323.586
		c4.064-4.675,10.004-6.731,16.145-7.427"/>
	<path fill="none" stroke="#000000" stroke-width="2.9857" stroke-linecap="round" d="M223.413,316.157c0-0.321,0-0.646,0-0.969"/>
	<path fill="none" stroke="#000000" stroke-width="1.8123" stroke-linecap="round" d="M228.741,316.644
		c-1.199-1.804-3.484-1.37-5.328-1.453"/>
	<path fill="none" stroke="#000000" stroke-width="1.8123" stroke-linecap="round" d="M223.413,316.157
		c1.428,1.094,3.899,0.932,5.328,0.484"/>
	<path fill="none" stroke="#000000" stroke-width="1.1864" stroke-linecap="round" d="M233.099,316.157
		c1.03,0.746,1.876,0.674,2.608,0.646c0.148-0.482,0.227-1.047,0.297-1.614"/>
	<path fill="none" stroke="#000000" stroke-width="1.4741" stroke-linecap="round" d="M191.932,337.47
		c0.669-1.608,1.018-3.723,2.67-4.563c2.19-2.926,4.337-6.592,8.185-7.349c0.205-0.439,0.485-0.807,0.771-1.168"/>
	<path fill="none" stroke="#000000" stroke-width="1.5096" stroke-linecap="round" d="M203.556,324.393
		c-0.616-1.386-0.636-3.01-1.453-4.356"/>
	<path fill="none" stroke="#000000" stroke-width="2.1661" stroke-linecap="round" d="M209.851,337.47
		c-0.99-4.667-3.005-8.995-2.583-13.884"/>
	<path fill="none" stroke="#000000" stroke-width="1.5695" stroke-linecap="round" d="M207.268,323.586
		c-1.193,0.018-2.611,0.217-3.714,0.807"/>
</g>
</svg>
