<?xml version="1.0" encoding="utf-8"?>
<!-- Generator: Adobe Illustrator 14.0.0, SVG Export Plug-In . SVG Version: 6.00 Build 43363)  -->
<!DOCTYPE svg PUBLIC "-//W3C//DTD SVG 1.1//EN" "http://www.w3.org/Graphics/SVG/1.1/DTD/svg11.dtd">
<svg version="1.1" id="图层_1" xmlns="http://www.w3.org/2000/svg" xmlns:xlink="http://www.w3.org/1999/xlink" x="0px" y="0px"
	 width="848px" height="480px" viewBox="0 0 848 480" enable-background="new 0 0 848 480" xml:space="preserve">
<g>
	<path fill="none" stroke="#000000" stroke-width="1.7812" stroke-linecap="round" d="M202.57,127.709
		c3.405-0.74,7.649,1.074,9.364,4.198"/>
	<path fill="none" stroke="#000000" stroke-width="2.1796" stroke-linecap="round" d="M211.934,131.906
		c0.125,0.036,0.25,0.074,0.375,0.112c4.433,3.971,4.799,11.362,3.574,16.842c-2.188,1.403-4.011,3.249-6.532,4.032"/>
	<path fill="none" stroke="#000000" stroke-width="1.9717" stroke-linecap="round" d="M209.351,152.895
		c-1.416,0.597-2.607,1.546-4.198,1.615"/>
	<path fill="none" stroke="#000000" stroke-width="1.4104" stroke-linecap="round" d="M205.153,154.509
		c-0.034,0.126-0.066,0.252-0.104,0.378c-2.991,1.949-7.721,0.813-11.197-0.055"/>
	<path fill="none" stroke="#000000" stroke-width="1.5007" stroke-linecap="round" d="M204.023,153.379
		c-0.197-1.567-1.034-3.357,0-4.843"/>
	<path fill="none" stroke="#000000" stroke-width="1.6744" stroke-linecap="round" d="M202.57,127.709
		c-5.521-1.826-10.228,3.241-12.407,7.748c0.363,5.234-0.119,11.25,3.915,15.272c3.464,0.354,6.324,4.462,9.945,2.648"/>
	<path fill="none" stroke="#000000" stroke-width="1.7581" stroke-linecap="round" d="M202.57,127.709
		c-1.836,2.288-2.717,4.957-2.583,8.073"/>
	<path fill="none" stroke="#000000" stroke-width="1.498" stroke-linecap="round" d="M199.987,135.781
		c0.916,2.226,3.417,2.563,5.472,3.026c1.688-0.17,2.586-2.059,4.379-1.896"/>
	<path fill="none" stroke="#000000" stroke-width="1.4664" stroke-linecap="round" d="M209.838,136.911
		c3.428,3.358,0.545,8.608-2.906,10.654"/>
	<path fill="none" stroke="#000000" stroke-width="1.3313" stroke-linecap="round" d="M211.934,131.906
		c-0.724,1.641-1.084,3.458-2.099,5.005"/>
	<path fill="none" stroke="#000000" stroke-width="1.4075" stroke-linecap="round" d="M204.023,148.536
		c0.21-0.436,0.472-0.825,0.737-1.214c0.828-0.188,1.519,0.032,2.169,0.243"/>
	<path fill="none" stroke="#000000" stroke-width="1.5736" stroke-linecap="round" d="M199.987,135.781
		c-0.453,0.12-1.289,0.446-2.01,0.908c-0.983,2.925-1.113,6.27,0.039,9.137c0.968,0.644,2.031,1.193,2.825,2.015
		c1.188,0.105,2.316,0.265,3.182,0.694"/>
	<path fill="none" stroke="#000000" stroke-width="1.3699" stroke-linecap="round" d="M204.023,153.379
		c0.377,0.377,0.754,0.753,1.13,1.13"/>
	<path fill="none" stroke="#000000" stroke-width="1.7597" stroke-linecap="round" d="M209.351,152.895
		c-0.19-2.238-0.896-3.762-2.422-5.328"/>
	<path fill="none" stroke="#000000" stroke-width="0.9687" stroke-linecap="round" d="M169.15,132.068c0,0.646,0,1.292,0,1.938
		c-1.407,0.53-5.007-1.132-4.844,0.969c-0.823,0.178-0.913-0.377-0.968-0.969C162.423,130.505,167.153,132.655,169.15,132.068z"/>
	<path fill="none" stroke="#000000" stroke-width="1.7056" stroke-linecap="round" d="M274.738,159.191
		c-0.696,0.189-1.196,0.816-1.958,1.086c-0.32,0.556-0.354,1.477-0.464,2.306"/>
	<path fill="none" stroke="#000000" stroke-width="2.2271" stroke-linecap="round" d="M279.096,164.519
		c1.112-0.87,3.087,0.188,3.391,1.453"/>
	<path fill="none" stroke="#000000" stroke-width="1.3352" stroke-linecap="round" d="M207.416,200.361
		c-9.98,0.421-21.174,0.35-26.463-7.299c-0.321-0.469-0.2-1.29-0.397-1.636c-0.095-0.166-0.662-0.164-0.774-0.386
		c-1.376-2.731-1.056-6.089-1.908-9.569"/>
	<path fill="none" stroke="#000000" stroke-width="1.1344" stroke-linecap="round" d="M207.416,219.735
		c-0.104-0.222-0.203-0.441-0.307-0.665c-5.07-3.346-12.1-3.646-16.163-8.054"/>
	<path fill="none" stroke="#000000" stroke-width="0.9687" stroke-linecap="round" d="M142.027,246.373
		c2.14,0.119,0.411,4.107,0.969,5.813c-0.646,0-1.292,0-1.938,0c0-1.614,0-3.229,0-4.844
		C141.883,247.52,141.972,246.964,142.027,246.373z"/>
	<path fill="none" stroke="#000000" stroke-width="1.3699" stroke-linecap="round" d="M163.823,303.042
		c0.285,1.005,0.791,1.791,0.97,2.903"/>
	<path fill="none" stroke="#000000" stroke-width="1.2253" stroke-linecap="round" d="M154.135,323.384
		c4.647-0.313,9.562,0.63,14.046-0.484"/>
	<path fill="none" stroke="#000000" stroke-width="1.6031" stroke-linecap="round" d="M144.449,236.2
		c2.917-4.672,4.852-10.381,8.253-14.171c2.358-4.046,1.553-9,4.61-12.682c1.779-2.142,7.575-6.205,10.533-7.566
		c-1.099-5.02,3.872-8.771,1.647-13.874c-4.296-2.854-7.638-6.592-11.246-10.078c-5.684-8.194-3.907-23.715-0.728-36.459
		c0.299-1.199,1.442-2.357,1.802-3.984c0.74-3.345,0.271-5.411,1.381-8.715c0.516-1.527,0.601-2.659,1.437-3.614
		c1.813-1.747,4.378-0.968,6.622-1.363c3.506-5.488,9.85-7.526,15.139-10.752c7.354-10.89,21.771-9.01,32.232-3.637"/>
	<path fill="none" stroke="#000000" stroke-width="1.4631" stroke-linecap="round" d="M216.133,109.304
		c4.982-2.724,10.604,0.79,15.82,0.323"/>
	<path fill="none" stroke="#000000" stroke-width="1.5191" stroke-linecap="round" d="M231.954,109.627
		c0.034-0.126,0.069-0.252,0.104-0.378c7.396-5.36,18.593,2.465,25.938,6.627c0.685,0.387,1.774,0.178,2.413,0.493
		c2.476,1.217,4.729,4.489,6.596,5.168c2.401,3.122,2.004,7.1,1.875,10.82c-0.037,0.174-0.075,0.346-0.112,0.519"/>
	<path fill="none" stroke="#000000" stroke-width="1.5775" stroke-linecap="round" d="M268.764,132.875
		c3.063,4.006,10.684,7.614,15.389,10.12c3.278,1.746,6.753,3.126,9.689,5.81c6.731,1.691,11.381,7.474,15.545,12.53
		c0.798,2.242-0.215,4.669-1.776,6.291c-0.228,8.666-0.184,17.982-4.55,25.701c-0.896,0.718-2.129,1.101-3.489,1.354
		c-0.206,0.117-0.411,0.234-0.617,0.354"/>
	<path fill="none" stroke="#000000" stroke-width="1.6811" stroke-linecap="round" d="M298.955,195.032
		c0.19,3.563-2.627,6.262-4.01,7.762c-2.871,3.117-8.164,6.24-14.342,6.671c-5.13,0.357-10.966,0.577-16.852,0.096
		c-0.944-0.077-2.522-0.799-3.494-0.863c-2.697-0.186-5.519,0.099-8.13-0.104c-5.335-0.413-8.937-1.661-13.709,0.93
		c-2.241,1.219-4.041,2.463-6.034,4.188c-1.428,0.187-3.1,0.131-4.146,0.699"/>
	<path fill="none" stroke="#000000" stroke-width="2.0886" stroke-linecap="round" d="M228.24,214.406
		c0.396,0.916,1.266,1.344,1.766,1.96c1.254,5.29,0.883,11.643-3.7,14.748"/>
	<path fill="none" stroke="#000000" stroke-width="2.137" stroke-linecap="round" d="M226.303,231.115
		c0.063,2.914-0.016,5.847-0.242,8.721"/>
	<path fill="none" stroke="#000000" stroke-width="1.4354" stroke-linecap="round" d="M226.061,239.835
		c2.429,0.727,1.017,3.331,1.809,4.988c9.757,7.342,24.281,15.096,35.665,24.375c0.527,0.431,0.752,1.218,1.279,1.636
		c0.751,0.597,1.662,0.424,2.162,0.871c2.668,2.383,4.708,5.104,7.002,7.372c3.721,3.681,9.364,6.913,9.235,12.822"/>
	<path fill="none" stroke="#000000" stroke-width="2.0806" stroke-linecap="round" d="M283.216,291.902
		c2.438,9.874,6.92,19.673,3.604,29.871c-0.491-0.008-1.114-0.313-1.661-0.593c-1.063-3.198-4.274-6.894-5.595-9.063
		c-1.368-2.251-3.003-6.762-4.842-8.416c-0.47-0.422-1.94-0.411-3.052-0.657"/>
	<path fill="none" stroke="#000000" stroke-width="1.8484" stroke-linecap="round" d="M271.672,303.042
		c-0.553,6.156,2.563,13.965-1.775,18.889"/>
	<path fill="none" stroke="#000000" stroke-width="1.7872" stroke-linecap="round" d="M269.894,321.931
		c0.099,2.48-0.97,4.729-1.74,6.985c-0.857,0.561-1.446,0.665-1.898,0.529c-1.483-5.458-3.897-11.135-3.625-16.719"/>
	<path fill="none" stroke="#000000" stroke-width="1.7492" stroke-linecap="round" d="M228.24,278.34
		c-2.063,4.06-4.69,7.358-7.91,10.494"/>
	<path fill="none" stroke="#000000" stroke-width="1.6036" stroke-linecap="round" d="M142.511,283.668
		c-14.004-9.369-22.622-27.114-20.193-44.416c5.663-5.864,14.849-1.406,22.131-3.052"/>
	<path fill="none" stroke="#000000" stroke-width="2.1661" stroke-linecap="round" d="M142.511,283.668
		c0.437-1.292,0.418-2.583,0.482-3.875"/>
	<path fill="none" stroke="#000000" stroke-width="1.7405" stroke-linecap="round" d="M142.511,283.668
		c0.638,2.063,3,2.597,2.646,5.052c2.177,1.996,2.364,5.646,4.501,7.991c1.053,4.948-3.842,11.396-5.713,14.688
		c-2.055,3.614-1.36,6.621-2.869,9.941c-0.712,1.565-2.313,2.247-2.685,2.729c-0.301,0.396-0.256,1.146-0.452,1.464
		c-0.15,0.244-1.132,0.585-1.63,1.188c-2.027,2.443-3.604,5.854-4.979,8.583c0.115-0.229-2.017,3.771-2.754,6.393
		c0.068,0.548,0.313,1.249,0.489,1.934c1.087,1.236,1.134,0.844,3.486,2.313c0.947,0.592,2.065,1.994,4.281,2.493
		c3.23,0.729,8.243,0.983,12.89,1.49c9.417,1.028,18.879,2.765,22.333,2.036"/>
	<path fill="none" stroke="#000000" stroke-width="1.804" stroke-linecap="round" d="M172.056,351.961
		c1.421-6.473,3.551-16.13,11.463-16.63"/>
	<path fill="none" stroke="#000000" stroke-width="1.3546" stroke-linecap="round" d="M183.519,335.331
		c0.036-0.121,0.072-0.243,0.109-0.364c-0.685-3.136-4.334-3.829-6.446-5.568c-4.265-1.261-7.835,2.104-11.896,2.053
		c-0.289-0.572-0.821-0.992-1.466-1.284"/>
	<path fill="none" stroke="#000000" stroke-width="1.7258" stroke-linecap="round" d="M183.519,335.331
		c3.943,2.546,5.337,7.254,8.396,10.333"/>
	<path fill="none" stroke="#000000" stroke-width="1.6434" stroke-linecap="round" d="M191.917,345.664
		c1.824-4.477,4.303-8.342,7.96-11.414c2.041-0.643,4.117,0.21,6.086,0.03"/>
	<path fill="none" stroke="#000000" stroke-width="1.5959" stroke-linecap="round" d="M205.963,334.281
		c-0.068-1.44-0.476-2.503-0.484-4.115"/>
	<path fill="none" stroke="#000000" stroke-width="1.3469" stroke-linecap="round" d="M268.764,132.875
		c-0.122,0.036-0.243,0.073-0.365,0.107c-2.492-0.706-5.742-2.38-5.771-5.273"/>
	<path fill="none" stroke="#000000" stroke-width="1.4368" stroke-linecap="round" d="M231.954,109.627
		c0.908,0.965,1.685,1.24,2.583,1.614"/>
	<path fill="none" stroke="#000000" stroke-width="1.5214" stroke-linecap="round" d="M216.133,109.304
		c6.153,5.148,17.605,5.535,18.403,15.499"/>
	<path fill="none" stroke="#000000" stroke-width="1.5708" stroke-linecap="round" d="M144.449,236.2
		c-2.084,4.136-3.001,9-6.074,12.313c-0.557,5.307,3.138,10.896,4.961,15.923c0.883,2.428,0.908,2.137,1.817,3.952
		c0.077,0.153,0.694,0.171,0.775,0.381c1.211,3.136,1.801,4.676,3.492,7.997c0.597,1.167,1.726,1.354,2.057,1.778
		c0.318,0.406,0.2,1.141,0.449,1.461c2.066,2.656,5.004,4.609,7.292,7.25c2.328,2.685,4.822,5.859,6.801,8.73
		c2.901,4.212,4.313,10.236,10.265,10.095c0.205,0.114,0.41,0.23,0.616,0.349"/>
	<path fill="none" stroke="#000000" stroke-width="1.2542" stroke-linecap="round" d="M176.9,306.432
		c2.908-3.971,7.333-7.595,12.593-6.296"/>
	<path fill="none" stroke="#000000" stroke-width="2.1223" stroke-linecap="round" d="M189.493,300.136
		c0.431-0.766,0.959-1.313,1.453-1.938"/>
	<path fill="none" stroke="#000000" stroke-width="1.5534" stroke-linecap="round" d="M190.946,298.197
		c0.508-8.429-9.604-11.808-8.719-20.343"/>
	<path fill="none" stroke="#000000" stroke-width="2.5629" stroke-linecap="round" d="M190.946,298.197
		c0.484,0.242,0.971,0.484,1.453,0.729"/>
	<path fill="none" stroke="#000000" stroke-width="2.0675" stroke-linecap="round" d="M192.399,298.925
		c1.513-0.351,3.152-0.338,4.684-0.081"/>
	<path fill="none" stroke="#000000" stroke-width="1.2143" stroke-linecap="round" d="M197.083,298.844
		c0.984-0.596,1.571-1.289,2.583-1.614"/>
	<path fill="none" stroke="#000000" stroke-width="1.8123" stroke-linecap="round" d="M197.083,298.844
		c0.475,2.057,2.567,3.386,2.422,5.649"/>
	<path fill="none" stroke="#000000" stroke-width="1.5154" stroke-linecap="round" d="M201.601,306.916
		c1.036,0.411,1.84,0.733,2.652,1.229c2.977,5.292,7.696,9.105,10.972,14.199c0.603,0.425,1.603,0.93,2.359,1.522"/>
	<path fill="none" stroke="#000000" stroke-width="2.1661" stroke-linecap="round" d="M217.587,323.866
		c2.066-3.848,0.813-8.639-0.323-12.593"/>
	<path fill="none" stroke="#000000" stroke-width="1.8154" stroke-linecap="round" d="M217.261,311.276
		c-2.785-7.275-4.223-16.066-10.332-21.312"/>
	<path fill="none" stroke="#000000" stroke-width="1.5695" stroke-linecap="round" d="M206.929,289.964
		c-1.063,0.326-2.387,1.447-3.391,2.422"/>
	<path fill="none" stroke="#000000" stroke-width="1.2143" stroke-linecap="round" d="M206.929,289.964
		c0.445-1.088,0.305-2.796,1.453-4.358"/>
	<path fill="none" stroke="#000000" stroke-width="2.2718" stroke-linecap="round" d="M208.383,285.606
		c-2.257-1.421-2.29-4.509-4.359-6.297"/>
	<path fill="none" stroke="#000000" stroke-width="1.7086" stroke-linecap="round" d="M204.023,279.309
		c-1.616,0.262-3.757-0.482-3.782-2.367c0.022-0.126,0.046-0.252,0.069-0.377"/>
	<path fill="none" stroke="#000000" stroke-width="1.511" stroke-linecap="round" d="M200.31,276.565
		c-4.021-3.991-8.373-7.23-11.539-12.015c-1.885-0.171-3.408-2.331-5.798-3.907c-1.088-0.719-2.42-0.75-3.407-1.438
		c-1.93-1.341-5.794-4.974-9.202-8.215c-0.267-0.254-1.875-2.043-2.89-2.939c-3.416-3.026-4.419-1.733-2.167-6.316
		c0.337-0.685,2.751-3.494,3.358-4.078"/>
	<path fill="none" stroke="#000000" stroke-width="1.3883" stroke-linecap="round" d="M168.668,237.654
		c-1.055-6.722,6.409-9.729,7.266-15.499"/>
	<path fill="none" stroke="#000000" stroke-width="1.4296" stroke-linecap="round" d="M168.668,237.654
		c2.004,1.016,2.604,3.473,4.109,5.071c9.63,3.815,19.982-0.13,29.793-0.713"/>
	<path fill="none" stroke="#000000" stroke-width="1.4797" stroke-linecap="round" d="M213.874,291.095
		c2.315-0.547,4.354-1.12,6.456-2.261"/>
	<path fill="none" stroke="#000000" stroke-width="1.3699" stroke-linecap="round" d="M223.155,243.467
		c-0.795-0.278-1.947-0.425-3.146-0.484"/>
	<path fill="none" stroke="#000000" stroke-width="1.5748" stroke-linecap="round" d="M226.303,231.115
		c-0.205-0.127-0.41-0.255-0.615-0.383c-0.761-1.954-0.949-4.051-0.838-6.155"/>
	<path fill="none" stroke="#000000" stroke-width="1.4343" stroke-linecap="round" d="M228.24,214.406
		c-3.885,1.688-8.271,1.473-12.106,3.391"/>
	<path fill="none" stroke="#000000" stroke-width="1.7193" stroke-linecap="round" d="M298.955,195.032
		c-6.338-0.522-12.953,0.311-19.372-0.971"/>
	<path fill="none" stroke="#000000" stroke-width="1.5044" stroke-linecap="round" d="M279.583,194.064
		c-0.633,1.146-1.474,2.449-2.875,2.64c-0.622-0.836-0.968-1.856-0.94-2.978c0.034-0.155,0.068-0.313,0.104-0.469"/>
	<path fill="none" stroke="#000000" stroke-width="1.263" stroke-linecap="round" d="M275.868,193.257
		c-1.626-0.871-4.182-0.525-5.005-2.583"/>
	<path fill="none" stroke="#000000" stroke-width="1.1864" stroke-linecap="round" d="M270.863,190.674
		c-2.141,0.08-3.662,0.128-5.328-0.969"/>
	<path fill="none" stroke="#000000" stroke-width="1.6562" stroke-linecap="round" d="M265.535,189.705
		c-4.983-0.419-9.619,0.099-14.244-2.224c-1.401-0.701-2.474-2.704-4.481-2.299"/>
	<path fill="none" stroke="#000000" stroke-width="1.4104" stroke-linecap="round" d="M246.807,185.185
		c-1.182,1.064-3.205,0.658-3.795,2.366c-3.164,1.32-2.866-3.578-2.52-5.45c0.113-0.21,0.228-0.42,0.341-0.63"/>
	<path fill="none" stroke="#000000" stroke-width="1.3841" stroke-linecap="round" d="M240.836,181.471
		c-7.674-2.458-15.927-3.321-23.978-2.906"/>
	<path fill="none" stroke="#000000" stroke-width="1.5176" stroke-linecap="round" d="M216.858,178.565
		c-0.565,1.493-2.72,3.441-4.354,2.152c-0.077-1.57-0.757-3.003-0.731-4.573"/>
	<path fill="none" stroke="#000000" stroke-width="1.3699" stroke-linecap="round" d="M211.773,176.144
		c-0.117-0.511-0.431-1.141-0.751-1.686c-2.961-0.385-4.756-2.948-6.738-4.872c-2.486-1.188-4.937-0.177-7.524-0.226"/>
	<path fill="none" stroke="#000000" stroke-width="1.3775" stroke-linecap="round" d="M216.858,178.565
		c-0.099-0.329-0.229-0.648-0.358-0.973c-0.927-0.291-2.624-1.036-4.727-1.448"/>
	<path fill="none" stroke="#000000" stroke-width="1.5105" stroke-linecap="round" d="M270.863,190.674
		c-0.393-0.697-0.311-2.479-0.774-3.598c-1.438-0.313-3.563,0.358-4.149,1.813c-0.134,0.272-0.268,0.544-0.4,0.816"/>
	<path fill="none" stroke="#000000" stroke-width="1.3699" stroke-linecap="round" d="M246.807,185.185
		c-0.123-0.452-0.449-1.289-0.904-2.017c-1.892-0.11-3.317-1.142-5.067-1.697"/>
	<path fill="none" stroke="#000000" stroke-width="1.5096" stroke-linecap="round" d="M279.583,194.064
		c-1.16-0.397-2.474-0.916-3.715-0.807"/>
	<path fill="none" stroke="#000000" stroke-width="1.7686" stroke-linecap="round" d="M226.061,239.835
		c-0.752,1.48-2.386,2.057-2.906,3.632"/>
	<path fill="none" stroke="#000000" stroke-width="2.0319" stroke-linecap="round" d="M223.155,243.467
		c5.863,9.933,9.307,22.622,5.099,34.289c-0.063,0.174,0.039,0.404-0.014,0.584"/>
	<path fill="none" stroke="#000000" stroke-width="1.3626" stroke-linecap="round" d="M228.24,278.34
		c8.302,4.438,13.733,13.078,21,18.31c0.243,0.175,0.774-0.051,1.038,0.097"/>
	<path fill="none" stroke="#000000" stroke-width="1.6064" stroke-linecap="round" d="M250.278,296.743
		c0.058-0.157,0.11-0.316,0.165-0.478c-2.436-7.408-11.201-10.445-13-18.412"/>
	<path fill="none" stroke="#000000" stroke-width="2.5011" stroke-linecap="round" d="M250.278,296.743
		c1.271,1.513,2.958,2.718,4.924,3.067"/>
	<path fill="none" stroke="#000000" stroke-width="1.6364" stroke-linecap="round" d="M267.959,293.355
		c1.291-7.822-7.881-11.967-10.173-18.405"/>
	<path fill="none" stroke="#000000" stroke-width="1.8123" stroke-linecap="round" d="M255.202,299.813
		c3.064,4.075,5.979,7.813,7.429,12.916"/>
	<path fill="none" stroke="#000000" stroke-width="1.7559" stroke-linecap="round" d="M269.733,296.905
		c-1.178-0.727-1.296-2.364-1.774-3.552"/>
	<path fill="none" stroke="#000000" stroke-width="1.2133" stroke-linecap="round" d="M267.959,293.355
		c-4.729,0.313-9.672,3.026-12.757,6.458"/>
	<path fill="none" stroke="#000000" stroke-width="2.412" stroke-linecap="round" d="M269.733,296.905
		c-0.212,2.33,1.761,3.839,1.938,6.138"/>
	<path fill="none" stroke="#000000" stroke-width="1.3948" stroke-linecap="round" d="M283.216,291.902
		c-4.955,0.038-9.517,2.237-13.48,5.005"/>
	<path fill="none" stroke="#000000" stroke-width="1.7086" stroke-linecap="round" d="M204.023,279.309
		c0.148-1.99-1.896-3.377-3.713-2.744"/>
	<path fill="none" stroke="#000000" stroke-width="1.8436" stroke-linecap="round" d="M217.261,311.276
		c1.009,0.03,2.254-0.007,2.932-0.222c1.07-7.463-3.966-13.627-6.319-19.959"/>
	<path fill="none" stroke="#000000" stroke-width="1.9187" stroke-linecap="round" d="M213.874,291.095
		c-1.77-1.883-2.68-4.742-5.489-5.489"/>
	<path fill="none" stroke="#000000" stroke-width="1.6778" stroke-linecap="round" d="M217.587,323.866
		c-0.855,0.994-2.165,1.271-3.393,1.453"/>
	<path fill="none" stroke="#000000" stroke-width="2.021" stroke-linecap="round" d="M193.852,317.571
		c-1.104,2.929-2.063,6.006-1.211,9.202"/>
	<path fill="none" stroke="#000000" stroke-width="1.4104" stroke-linecap="round" d="M192.641,326.775
		c4.63-0.101,8.839,1.432,12.835,3.393"/>
	<path fill="none" stroke="#000000" stroke-width="1.5389" stroke-linecap="round" d="M229.693,349.539
		c3.581,1.312,7.758,1.443,11.143-0.484"/>
	<path fill="none" stroke="#000000" stroke-width="1.6277" stroke-linecap="round" d="M240.836,349.055
		c-0.206-5.708,3.019-11.287,8.718-12.593"/>
	<path fill="none" stroke="#000000" stroke-width="1.4797" stroke-linecap="round" d="M249.552,336.462
		c-1.901-8.056-12.021-4.586-17.921-4.359"/>
	<path fill="none" stroke="#000000" stroke-width="2.1033" stroke-linecap="round" d="M249.552,336.462
		c1.135,0.553,2.02,0.843,3.391,1.452"/>
	<path fill="none" stroke="#000000" stroke-width="1.4731" stroke-linecap="round" d="M252.942,337.914
		c0.655-2.319,2.313-4.188,4.359-5.327"/>
	<path fill="none" stroke="#000000" stroke-width="1.6778" stroke-linecap="round" d="M257.302,332.587
		c-0.027-0.693-0.41-1.918-0.969-2.906"/>
	<path fill="none" stroke="#000000" stroke-width="1.7038" stroke-linecap="round" d="M256.335,329.681
		c-0.159-0.001-0.318-0.003-0.479-0.004c-0.713-0.147-1.53-0.637-2.154-1.244c-7.431-2.261-15.609,2.634-22.268-1.945
		c-2.087-0.123-4.089-0.899-5.905-1.689c-0.806-4.602,1.841-10.621,2.604-14.455c0.965-4.844,4.117-6.822-0.626-12.86
		c-2.02-2.564-3.601-6.648-7.179-8.646"/>
	<path fill="none" stroke="#000000" stroke-width="1.5819" stroke-linecap="round" d="M199.179,310.307
		c0.581-0.953,1.253-1.848,2.422-3.391"/>
	<path fill="none" stroke="#000000" stroke-width="2.7399" stroke-linecap="round" d="M201.601,306.916
		c-0.684-0.997-1.585-1.718-2.099-2.423"/>
	<path fill="none" stroke="#000000" stroke-width="1.6937" stroke-linecap="round" d="M189.493,300.136
		c1.739,5.144,1.282,12.023,3.421,16.833c0.127,0.284,0.774,0.336,0.938,0.604"/>
	<path fill="none" stroke="#000000" stroke-width="1.9239" stroke-linecap="round" d="M193.852,317.571
		c2.944-1.355,4.091-4.526,5.327-7.266"/>
	<path fill="none" stroke="#000000" stroke-width="1.453" stroke-linecap="round" d="M199.179,310.307
		c-1.531-0.146-2.22-1.223-3.391-1.938"/>
	<path fill="none" stroke="#000000" stroke-width="1.3452" stroke-linecap="round" d="M192.399,298.925
		c0.729,3.107,4.259,4.914,7.104,5.568"/>
	<path fill="none" stroke="#000000" stroke-width="2.0549" stroke-linecap="round" d="M176.9,306.432
		c-0.077,0.854,0.082,2.166,0.484,3.391"/>
	<path fill="none" stroke="#000000" stroke-width="1.6496" stroke-linecap="round" d="M177.385,309.821
		c2.254,2.438,5.188,4.541,5.327,8.234"/>
	<path fill="none" stroke="#000000" stroke-width="1.7524" stroke-linecap="round" d="M187.071,326.29
		c1.24,1.428,2.259,2.879,3.168,4.607c0.563,0.171,0.988,0.049,1.406-0.089c1.051-1.135,0.506-2.703,0.996-4.036"/>
	<path fill="none" stroke="#000000" stroke-width="1.4731" stroke-linecap="round" d="M187.071,326.29
		c-1.46-2.688-2.096-5.979-4.357-8.233"/>
	<path fill="none" stroke="#000000" stroke-width="1.1864" stroke-linecap="round" d="M182.714,318.057
		c-0.381,0.265-0.913,0.378-1.453,0.484"/>
	<path fill="none" stroke="#000000" stroke-width="1.6945" stroke-linecap="round" d="M177.385,309.821
		c-1.206,3.87-3.952,7.791-3.233,12.05c0.531,0.373,1.044,0.817,1.523,1.288c3.688,1.19,7.282,4.263,11.396,3.132"/>
	<path fill="none" stroke="#000000" stroke-width="1.6651" stroke-linecap="round" d="M269.894,321.931
		c-2.505-3.231-4.09-6.962-7.266-9.202"/>
	<path fill="none" stroke="#000000" stroke-width="1.5198" stroke-linecap="round" d="M262.386,332.587
		c-0.78-2.166-3.85-4.095-6.054-2.906"/>
	<path fill="none" stroke="#000000" stroke-width="1.444" stroke-linecap="round" d="M210.804,337.43
		c1.298-0.771,2.355-1.805,3.874-2.179"/>
	<path fill="none" stroke="#000000" stroke-width="1.5035" stroke-linecap="round" d="M214.678,335.251
		c-0.256-4.269-5.771-4.97-9.202-5.086"/>
	<path fill="none" stroke="#000000" stroke-width="1.6656" stroke-linecap="round" d="M263.113,349.055
		c3.404,0.279,7.735,2.186,10.656-0.484"/>
	<path fill="none" stroke="#000000" stroke-width="1.4766" stroke-linecap="round" d="M273.769,348.57
		c-1.053-6.532-7.598-10.465-11.867-15.015"/>
	<path fill="none" stroke="#000000" stroke-width="1.7796" stroke-linecap="round" d="M261.902,333.556
		c-1.581,0.132-3.259-0.084-4.601-0.969"/>
	<path fill="none" stroke="#000000" stroke-width="1.3417" stroke-linecap="round" d="M273.769,348.57
		c1.783-0.057,4.304,0.285,5.42-1.402c-2.424-7.26-9.873-12.317-16.803-14.579"/>
	<path fill="none" stroke="#000000" stroke-width="2.1661" stroke-linecap="round" d="M262.386,332.587
		c-0.161,0.32-0.322,0.646-0.484,0.969"/>
	<path fill="none" stroke="#000000" stroke-width="1.5744" stroke-linecap="round" d="M193.529,351.153
		c7.223,0.16,15.414,2.055,22.582,1.737c0.944-0.041,2.167-0.771,2.442-1.414"/>
	<path fill="none" stroke="#000000" stroke-width="1.727" stroke-linecap="round" d="M218.553,351.477
		c-0.485-5.853-4.841-9.32-7.749-14.047"/>
	<path fill="none" stroke="#000000" stroke-width="1.5316" stroke-linecap="round" d="M210.804,337.43
		c-0.891-0.4-2.217-0.365-3.104-0.779c-0.572-1.059-0.723-1.689-1.739-2.368"/>
	<path fill="none" stroke="#000000" stroke-width="1.5414" stroke-linecap="round" d="M172.056,351.961
		c6.563,1.526,13.529,1.804,20.291,1.787c0.637-1.028,0.932-1.971,1.182-2.597"/>
	<path fill="none" stroke="#000000" stroke-width="1.5695" stroke-linecap="round" d="M193.529,351.153
		c-1.508-1.412-1.678-3.547-1.612-5.487"/>
	<path fill="none" stroke="#000000" stroke-width="1.8066" stroke-linecap="round" d="M218.553,351.477
		c3.327,0.391,6.743,0.884,10.034-0.132c0.399-0.368,0.697-1.087,1.104-1.806"/>
	<path fill="none" stroke="#000000" stroke-width="1.5714" stroke-linecap="round" d="M229.693,349.539
		c-1.513-7.614-7.997-12.399-15.015-14.288"/>
	<path fill="none" stroke="#000000" stroke-width="1.6897" stroke-linecap="round" d="M240.836,349.055
		c0.273,0.226,0.552,0.452,0.825,0.678c2.748,1.184,9.65-0.269,14.321,0.677c1.118,0.229,3.984,0.757,5.68,0.102
		c0.67-0.258,0.94-1.029,1.451-1.454"/>
	<path fill="none" stroke="#000000" stroke-width="1.4121" stroke-linecap="round" d="M263.113,349.055
		c-1.938-4.849-6.396-7.716-10.171-11.141"/>
	<path fill="none" stroke="#000000" stroke-width="0.9687" stroke-linecap="round" d="M156.557,240.562
		c2.334-0.396,2.104,1.771,4.844,0.968c0,0.646,0,1.292,0,1.938c-1.021,0.473-0.658-0.761-0.969-0.969
		c-0.396-0.264-1.611,0.325-1.938,0c-0.092-0.094,0.109-0.93,0-0.971c-0.528-0.191-1.449,0.273-1.938,0
		c-0.107-0.06-1.647-0.425-0.971-0.968C155.785,240.403,156.337,240.688,156.557,240.562z"/>
</g>
</svg>
