<?xml version="1.0" encoding="utf-8"?>
<!-- Generator: Adobe Illustrator 14.0.0, SVG Export Plug-In . SVG Version: 6.00 Build 43363)  -->
<!DOCTYPE svg PUBLIC "-//W3C//DTD SVG 1.1//EN" "http://www.w3.org/Graphics/SVG/1.1/DTD/svg11.dtd">
<svg version="1.1" id="图层_1" xmlns="http://www.w3.org/2000/svg" xmlns:xlink="http://www.w3.org/1999/xlink" x="0px" y="0px"
	 width="848px" height="480px" viewBox="0 0 848 480" enable-background="new 0 0 848 480" xml:space="preserve">
<g>
	<path fill-rule="evenodd" clip-rule="evenodd" fill="none" stroke="#000000" stroke-width="1.3699" stroke-linecap="round" d="
		M450.035,139.903c2.77-1.492,6.368-1.273,8.719,0.969"/>
	<path fill-rule="evenodd" clip-rule="evenodd" fill="none" stroke="#000000" stroke-width="1.2253" stroke-linecap="round" d="
		M476.189,164.119c0.997,0.028,1.717-0.221,2.422-0.484"/>
	<path fill-rule="evenodd" clip-rule="evenodd" fill="none" stroke="#000000" stroke-width="1.2506" stroke-linecap="round" d="
		M478.611,163.635c-0.311-0.657-0.59-1.346-0.969-1.937"/>
	<path fill-rule="evenodd" clip-rule="evenodd" fill="none" stroke="#000000" stroke-width="1.9674" stroke-linecap="round" d="
		M477.642,161.698c-1.065-1.302-0.887-2.846-0.807-3.714"/>
	<path fill-rule="evenodd" clip-rule="evenodd" fill="none" stroke="#000000" stroke-width="1.5145" stroke-linecap="round" d="
		M476.836,157.985c-1.301-2.203-0.133-5.025-1.045-7.359c0.318-0.483,1.014-1.178,1.852-1.763"/>
	<path fill-rule="evenodd" clip-rule="evenodd" fill="none" stroke="#000000" stroke-width="2.0926" stroke-linecap="round" d="
		M477.642,148.863c0.688,0.146,1.25,0.266,1.672,0.464c0.172,0.507,0.314,1.176,0.508,1.716"/>
	<path fill-rule="evenodd" clip-rule="evenodd" fill="none" stroke="#000000" stroke-width="1.9512" stroke-linecap="round" d="
		M483.455,151.527c0.202-3.144,0.113-6.537-1.979-9.021c-0.391-0.122-0.824-0.125-1.26-0.122c-1.832,1.604-2.885,4.04-2.574,6.479"
		/>
	<path fill-rule="evenodd" clip-rule="evenodd" fill="none" stroke="#000000" stroke-width="2.0926" stroke-linecap="round" d="
		M476.836,157.985c0.516-0.085,1.444-0.345,2.26-0.646"/>
	<path fill-rule="evenodd" clip-rule="evenodd" fill="none" stroke="#000000" stroke-width="2.5488" stroke-linecap="round" d="
		M481.76,160.488c1.811-2.566,1.823-5.898,1.695-8.961"/>
	<path fill-rule="evenodd" clip-rule="evenodd" fill="none" stroke="#000000" stroke-width="1.3699" stroke-linecap="round" d="
		M483.455,151.527c-1.76-0.007-2.594-0.366-3.633-0.484"/>
	<path fill-rule="evenodd" clip-rule="evenodd" fill="none" stroke="#000000" stroke-width="2.7683" stroke-linecap="round" d="
		M479.822,151.042c-0.699,2.032-0.794,4.165-0.727,6.297"/>
	<path fill-rule="evenodd" clip-rule="evenodd" fill="none" stroke="#000000" stroke-width="1.838" stroke-linecap="round" d="
		M477.642,161.698c0.629-0.283,1.568-0.813,2.422-1.453"/>
	<path fill-rule="evenodd" clip-rule="evenodd" fill="none" stroke="#000000" stroke-width="2.0926" stroke-linecap="round" d="
		M480.064,160.245c-0.311-0.969-0.591-1.938-0.969-2.906"/>
	<path fill-rule="evenodd" clip-rule="evenodd" fill="none" stroke="#000000" stroke-width="2.209" stroke-linecap="round" d="
		M478.611,163.635c1.881,0.556,3.55-1.333,3.148-3.147"/>
	<path fill-rule="evenodd" clip-rule="evenodd" fill="none" stroke="#000000" stroke-width="2.9857" stroke-linecap="round" d="
		M481.76,160.488c-0.514-0.133-1.103-0.189-1.695-0.242"/>
	<path fill-rule="evenodd" clip-rule="evenodd" fill="none" stroke="#000000" stroke-width="2.0776" stroke-linecap="round" d="
		M455.524,147.975c-0.113-0.516-0.123-1.444-0.161-2.26"/>
	<path fill-rule="evenodd" clip-rule="evenodd" fill="none" stroke="#000000" stroke-width="1.4755" stroke-linecap="round" d="
		M455.363,185.431c-0.639,4.047-1.457,8.309-0.197,12.307c2.549,3.429,6.666,5.089,10.853,5.614"/>
	<path fill-rule="evenodd" clip-rule="evenodd" fill="none" stroke="#000000" stroke-width="0.9687" stroke-linecap="round" d="
		M452.457,245.974c0.898,0.421,1.684,0.862,1.938,1.938c0.216,0.918-0.173,1.979,0,2.906c-0.899-0.421-1.685-0.862-1.938-1.938
		C452.24,247.962,452.63,246.903,452.457,245.974z"/>
	<path fill-rule="evenodd" clip-rule="evenodd" fill="none" stroke="#000000" stroke-width="1.2945" stroke-linecap="round" d="
		M422.911,262.926c1.776,1.69,3.918,4.072,3.875,6.781"/>
	<path fill-rule="evenodd" clip-rule="evenodd" fill="none" stroke="#000000" stroke-width="0.9687" stroke-linecap="round" d="
		M418.552,283.753c0.194,0.129,0.807-0.161,0.969,0c0.101,0.101-0.121,0.917,0,0.969c1.095,0.464,2.734-0.355,3.875,0
		c0.177,0.806-0.376,0.938-0.969,0.969c-0.322,0.017-0.646-0.014-0.968,0c0,0.969,0,1.938,0,2.906
		c-0.824,0.178-0.914-0.378-0.969-0.969c-0.824-0.179-0.914,0.378-0.969,0.969C417.421,288.76,419.082,285.16,418.552,283.753z"/>
	<path fill-rule="evenodd" clip-rule="evenodd" fill="none" stroke="#000000" stroke-width="0.9687" stroke-linecap="round" d="
		M469.893,283.753c0.823-0.179,0.913,0.378,0.968,0.969c1.021,0.472,0.658-0.762,0.969-0.969c0.672-0.447,2.176,0.357,2.906,0
		c0.123,1.737-1.186,2.043-0.969,3.875c-1.613,0-3.229,0-4.843,0c0.185-0.785,0.972-0.966,0.969-1.938
		C469.893,285.044,469.893,284.399,469.893,283.753z"/>
	<path fill-rule="evenodd" clip-rule="evenodd" fill="none" stroke="#000000" stroke-width="1.2253" stroke-linecap="round" d="
		M492.658,260.02c2.207-0.602,4.357,1.154,4.358,3.391"/>
	<path fill-rule="evenodd" clip-rule="evenodd" fill="none" stroke="#000000" stroke-width="1.492" stroke-linecap="round" d="
		M390.702,271.16c-0.053-0.164-0.106-0.328-0.16-0.491c-1.405-1.178-6.104-5.378-8.556-7.491c-0.547-0.472-1.291-0.409-1.642-0.744
		c-3.154-3.013-5.309-5.757-7.361-9.491c-0.111-0.202-0.592-0.192-0.699-0.393c-3.071-5.75-4.14-12.387-4.823-19.115
		c0.102-1.66,0.537-3.528,2.294-4.219c6.072-2.186,12.741-0.486,18.955-1.46c0.524-0.444,1.207-0.729,1.75-1.156"/>
	<path fill-rule="evenodd" clip-rule="evenodd" fill="none" stroke="#000000" stroke-width="1.6924" stroke-linecap="round" d="
		M390.46,226.6c1.157-2.071,2.74-3.879,4.857-4.967c3.063-4.504,2.283-8.686,4.423-12.881c0.112-0.219,3.825-3.896,8.12-6.398
		c0.992-0.579,2.429-0.854,3.182-1.677c1.251-1.367,1.056-3.82,2.557-5.045c0.12-0.627-0.21-1.456-0.647-2.192
		c-4.937-3.172-9.254-6.62-11.969-9.474c-10.008-10.517-5.417-22.223-1.025-35.059c0.224-0.653,1.245-1.07,1.53-2.275
		c0.536-2.262-0.543-6.938,2.282-8.43c3.301-2.069,8.118-0.164,10.641-3.896c0.886-0.081,1.702-0.236,2.397-0.516
		c0.346-0.646,0.827-0.884,1.262-1.153"/>
	<path fill-rule="evenodd" clip-rule="evenodd" fill="none" stroke="#000000" stroke-width="1.5662" stroke-linecap="round" d="
		M418.068,132.637c1.485-6.966,12.365-7.737,17.634-4.557c5.431-0.737,16.028,1.298,21.546,1.552
		c1.934,0.09,3.232-0.287,5.122-0.653c0.176-0.034,0.296-0.468,0.474-0.488c4.328-0.5,7.85-1.899,11.105-0.877
		c5.604,1.76,9.258,7.395,12.155,12.924c0.714,6.138,1.728,11.023,7.388,13.061c1.899,0.684,3.283,2.283,5.207,3.512
		c2.771,1.769,5.561,2.566,7.319,5.287c-0.364,6.369,2.204,13.532-1.058,19.849c-2.046,1.754-4.594,0.703-6.976,0.764"/>
	<path fill-rule="evenodd" clip-rule="evenodd" fill="none" stroke="#000000" stroke-width="1.2996" stroke-linecap="round" d="
		M497.985,183.009c-0.376,0.946-1.24,1.416-1.915,1.68c-0.354-0.432-0.388-1.586-0.507-2.648"/>
	<path fill-rule="evenodd" clip-rule="evenodd" fill="none" stroke="#000000" stroke-width="1.7824" stroke-linecap="round" d="
		M495.563,182.04c-3.123-3.094-7.346-0.986-11.198-1.327c-1.684-1.816-3.476-3.598-4.912-5.472
		c-1.049-0.578-2.022-0.954-2.557-0.714c0.728,4.005-0.84,6.949,0.414,10.753c0.375,1.143,1.718,2.229,2.402,3.236
		c1.439,2.12,2.93,4.867,6.164,5.633"/>
	<path fill-rule="evenodd" clip-rule="evenodd" fill="none" stroke="#000000" stroke-width="1.3062" stroke-linecap="round" d="
		M485.877,194.15c1.03-0.746,1.875-0.673,2.611-0.647c0.338,1.082,0.174,2.221-0.189,3.068"/>
	<path fill-rule="evenodd" clip-rule="evenodd" fill="none" stroke="#000000" stroke-width="1.3966" stroke-linecap="round" d="
		M488.299,196.571c0.436,0.21,0.818,0.473,1.199,0.737c2.699,3.469-2.668,9.448-5.781,11.148
		c-4.916,2.685-11.916,1.426-18.032,0.072c-3.063-0.678-5.2-2.056-7.657,0.636"/>
	<path fill-rule="evenodd" clip-rule="evenodd" fill="none" stroke="#000000" stroke-width="1.5488" stroke-linecap="round" d="
		M458.027,209.164c0.053,0.163,0.105,0.327,0.16,0.49c0.225,0.456,0.83,0.797,1.297,1.212c4.318,6.108,2.113,13.846,3.297,20.908
		c0.607,3.619,2.666,6.526,2.425,10.266c8.259,7.271,18.972,11.495,27.452,17.979"/>
	<path fill-rule="evenodd" clip-rule="evenodd" fill="none" stroke="#000000" stroke-width="1.2903" stroke-linecap="round" d="
		M444.222,202.867c-2.959-5.384-9.909-6.078-15.014-8.234"/>
	<path fill-rule="evenodd" clip-rule="evenodd" fill="none" stroke="#000000" stroke-width="1.3699" stroke-linecap="round" d="
		M418.068,132.637c0.577-0.278,1.74-0.425,2.906-0.484"/>
	<path fill-rule="evenodd" clip-rule="evenodd" fill="none" stroke="#000000" stroke-width="1.246" stroke-linecap="round" d="
		M390.46,226.6c1.296,2.183,4.023,0.806,5.813,1.938"/>
	<path fill-rule="evenodd" clip-rule="evenodd" fill="none" stroke="#000000" stroke-width="1.2143" stroke-linecap="round" d="
		M396.273,228.537c0.21-0.435,0.47-0.821,0.731-1.206c0.525-0.12,1.107-0.185,1.69-0.247"/>
	<path fill-rule="evenodd" clip-rule="evenodd" fill="none" stroke="#000000" stroke-width="1.3116" stroke-linecap="round" d="
		M398.694,227.084c0.72-2.644,3.805-3.527,4.844-5.812"/>
	<path fill-rule="evenodd" clip-rule="evenodd" fill="none" stroke="#000000" stroke-width="1.2253" stroke-linecap="round" d="
		M398.694,227.084c2.52,1.22,4.919,1.792,6.551,4.105c0.311,0.44,0.149,1.06,0.502,1.422c1.571,1.61,3.931,2.286,4.572,5.129"/>
	<path fill-rule="evenodd" clip-rule="evenodd" fill="none" stroke="#000000" stroke-width="1.083" stroke-linecap="round" d="
		M396.273,228.537c1.44,0.952,2.82,1.755,4.359,2.422"/>
	<path fill-rule="evenodd" clip-rule="evenodd" fill="none" stroke="#000000" stroke-width="1.2584" stroke-linecap="round" d="
		M390.702,271.16c2.747,1.217,6.533,1.547,7.992,4.358"/>
	<path fill-rule="evenodd" clip-rule="evenodd" fill="none" stroke="#000000" stroke-width="1.5316" stroke-linecap="round" d="
		M398.694,275.519c1.835-0.086,2.245,0.714,2.664,1.453"/>
	<path fill-rule="evenodd" clip-rule="evenodd" fill="none" stroke="#000000" stroke-width="1.6342" stroke-linecap="round" d="
		M401.358,276.972c2.45-0.87,5.459,0.657,7.023,2.422"/>
	<path fill-rule="evenodd" clip-rule="evenodd" fill="none" stroke="#000000" stroke-width="1.3847" stroke-linecap="round" d="
		M408.381,279.394c3.159-1.702,6.166,0.394,9.667,0.446c4.024,0.061,9.164-0.667,13.259-2.061"/>
	<path fill-rule="evenodd" clip-rule="evenodd" fill="none" stroke="#000000" stroke-width="1.5007" stroke-linecap="round" d="
		M431.306,277.78c-0.866-4.785,2.705-8.851,5.651-11.947"/>
	<path fill-rule="evenodd" clip-rule="evenodd" fill="none" stroke="#000000" stroke-width="1.6401" stroke-linecap="round" d="
		M435.02,282.3c2.79-0.222,5.509,1.111,8.233,0"/>
	<path fill-rule="evenodd" clip-rule="evenodd" fill="none" stroke="#000000" stroke-width="1.5536" stroke-linecap="round" d="
		M416.131,309.423c0.654,0.999,0.763,1.908,1.083,2.766c1.433,2.521,7.104,3.09,10.972,3.433c13.178,1.17,29.264-1.915,42.041,0.426
		c1.699-1.364,4.053-0.409,5.943-1.258c3.623,0.915,7.652,0.77,10.676-1.491"/>
	<path fill-rule="evenodd" clip-rule="evenodd" fill="none" stroke="#000000" stroke-width="1.9041" stroke-linecap="round" d="
		M486.845,313.298c1.998-3.589,1.982-8.03,0-11.624"/>
	<path fill-rule="evenodd" clip-rule="evenodd" fill="none" stroke="#000000" stroke-width="2.1163" stroke-linecap="round" d="
		M486.845,301.674c-1.994-3.404-6.127-4.229-9.688-4.844"/>
	<path fill-rule="evenodd" clip-rule="evenodd" fill="none" stroke="#000000" stroke-width="1.4368" stroke-linecap="round" d="
		M477.158,296.83c-0.969,0.679-1.938,0.739-2.906,0.969"/>
	<path fill-rule="evenodd" clip-rule="evenodd" fill="none" stroke="#000000" stroke-width="1.7953" stroke-linecap="round" d="
		M477.158,296.83c-3.035-3.356-8.852-5.757-12.725-2.365c-2.628-0.409-5.8-0.285-8.02-1.572c0.496-4.347,1.909-7.901,2.843-9.264
		c1.522-2.22,2.604-5.143,0.353-8.982c-0.27-0.459-0.967-0.44-1.111-0.785c-0.802-1.911-1.842-3.699-1.682-6.092"/>
	<path fill-rule="evenodd" clip-rule="evenodd" fill="none" stroke="#000000" stroke-width="2.7112" stroke-linecap="round" d="
		M456.816,267.77c-1.123-1.666-1.894-3.487-2.664-5.328"/>
	<path fill-rule="evenodd" clip-rule="evenodd" fill="none" stroke="#000000" stroke-width="1.4797" stroke-linecap="round" d="
		M454.152,262.442c-0.626-0.173-1.375-0.378-2.18-0.484"/>
	<path fill-rule="evenodd" clip-rule="evenodd" fill="none" stroke="#000000" stroke-width="1.7533" stroke-linecap="round" d="
		M454.152,262.442c0.055-0.159,0.109-0.318,0.165-0.478c-0.108-2.323-1.756-3.255-2.604-4.579c-0.564-0.882-3.934-5.197-4.957-8.464
		c-0.522-1.666-0.857-6.173-0.981-8.705c-0.268-5.43,1.716-10.47-1.798-16.624c-0.53-0.472-2.276-1.131-2.564-2.399
		c-0.031-0.297-0.063-0.593-0.096-0.889"/>
	<path fill-rule="evenodd" clip-rule="evenodd" fill="none" stroke="#000000" stroke-width="2.0711" stroke-linecap="round" d="
		M495.886,288.435c0.154-0.953,0.112-2.716,0.403-3.713"/>
	<path fill-rule="evenodd" clip-rule="evenodd" fill="none" stroke="#000000" stroke-width="2.0549" stroke-linecap="round" d="
		M496.29,284.722c-0.218-0.932-0.209-2.083-0.242-2.906"/>
	<path fill-rule="evenodd" clip-rule="evenodd" fill="none" stroke="#000000" stroke-width="1.8966" stroke-linecap="round" d="
		M496.048,281.816c-0.447-1.323-1.202-1.789-1.714-2.143c-0.229-0.923-0.18-2.696-0.385-3.508"/>
	<path fill-rule="evenodd" clip-rule="evenodd" fill="none" stroke="#000000" stroke-width="1.6209" stroke-linecap="round" d="
		M503.959,276.811c-0.148-0.519,0.266-1.773,0.807-2.745"/>
	<path fill-rule="evenodd" clip-rule="evenodd" fill="none" stroke="#000000" stroke-width="1.485" stroke-linecap="round" d="
		M504.765,274.066c-1.313-4.262-5.648-6.14-7.265-10.171"/>
	<path fill-rule="evenodd" clip-rule="evenodd" fill="none" stroke="#000000" stroke-width="2.9061" stroke-linecap="round" d="
		M497.501,263.895c-0.161-0.161-0.323-0.323-0.484-0.484"/>
	<path fill-rule="evenodd" clip-rule="evenodd" fill="none" stroke="#000000" stroke-width="1.4415" stroke-linecap="round" d="
		M458.027,209.164c-4.396-2.809-9.791-3.039-13.805-6.297"/>
	<path fill-rule="evenodd" clip-rule="evenodd" fill="none" stroke="#000000" stroke-width="1.9374" stroke-linecap="round" d="
		M444.222,202.867c-0.646,0-1.291,0-1.938,0"/>
	<path fill-rule="evenodd" clip-rule="evenodd" fill="none" stroke="#000000" stroke-width="1.6209" stroke-linecap="round" d="
		M497.985,183.009c-0.925-0.443-1.717-0.783-2.422-0.969"/>
	<path fill-rule="evenodd" clip-rule="evenodd" fill="none" stroke="#000000" stroke-width="1.6778" stroke-linecap="round" d="
		M485.877,194.15c0.326,1.446,1.449,1.744,2.422,2.421"/>
	<path fill-rule="evenodd" clip-rule="evenodd" fill="none" stroke="#000000" stroke-width="1.3699" stroke-linecap="round" d="
		M492.658,260.02c-0.346,2.301,2.605,3.08,4.358,3.391"/>
	<path fill-rule="evenodd" clip-rule="evenodd" fill="none" stroke="#000000" stroke-width="1.6305" stroke-linecap="round" d="
		M504.765,274.066c1.777,0.64,3.552,2.462,5.551,1.706c-0.163-4.913-5.078-8.952-9.189-11.607c-0.33-1.737-2.752-1.358-3.626-0.27"
		/>
	<path fill-rule="evenodd" clip-rule="evenodd" fill="none" stroke="#000000" stroke-width="1.5486" stroke-linecap="round" d="
		M486.845,301.674c1.816-0.326,3.595,0.485,5.328,0.242"/>
	<path fill-rule="evenodd" clip-rule="evenodd" fill="none" stroke="#000000" stroke-width="1.2506" stroke-linecap="round" d="
		M492.174,301.916c-1.357-3.526-3.293-6.661-5.328-9.93"/>
	<path fill-rule="evenodd" clip-rule="evenodd" fill="none" stroke="#000000" stroke-width="1.5717" stroke-linecap="round" d="
		M486.845,291.987c-5.436-2.242-8.271-7.781-12.814-11.41c-5.602-2.572-11.359-6.215-14.374-11.764
		c-0.523-0.504-1.683-0.85-2.841-1.043"/>
	<path fill-rule="evenodd" clip-rule="evenodd" fill="none" stroke="#000000" stroke-width="1.6064" stroke-linecap="round" d="
		M416.131,309.423c0.977-4.556,3.662-8.498,6.458-11.947"/>
	<path fill-rule="evenodd" clip-rule="evenodd" fill="none" stroke="#000000" stroke-width="2.1102" stroke-linecap="round" d="
		M422.589,297.476c-3.05-3.342-7.229-5.115-11.73-3.325c-0.24-0.309-0.51-0.634-0.781-0.959c-0.867-0.085-1.69-0.651-2.383-1.297
		c-0.226-4.142,1.116-8.286,0.688-12.501"/>
	<path fill-rule="evenodd" clip-rule="evenodd" fill="none" stroke="#000000" stroke-width="1.9374" stroke-linecap="round" d="
		M398.21,276.972c-0.925,0.077-1.717-0.082-2.422-0.484"/>
	<path fill-rule="evenodd" clip-rule="evenodd" fill="none" stroke="#000000" stroke-width="1.4724" stroke-linecap="round" d="
		M390.702,271.16c0.205,2.474-0.307,4.796-2.434,7.494c-0.71,0.901-1.22,2.319-1.824,3.154c-0.219,0.303-0.875,0.385-1.074,0.741
		c-2.214,3.958-2.582,8.019-4.373,12.089c-0.3,0.682-1.789,1.199-2.187,1.828c-0.749,1.186-1.891,4.023-2.252,5.352
		c-0.781,2.87-0.964,5.562,0.136,8.296c2.236,2.194,4.419,2.591,9.253,3.337c0.406,0.063,0.789,0.63,1.256,0.682
		c3.998,0.437,9.316,0.118,12.593-0.701c1.406-0.352,3.209,0.02,4.555-0.288c3.977-0.909,7.159-3.352,11.778-3.721"/>
	<path fill-rule="evenodd" clip-rule="evenodd" fill="none" stroke="#000000" stroke-width="1.4368" stroke-linecap="round" d="
		M398.21,276.972c0.977,0.514,2.407,0.336,3.148,0"/>
	<path fill-rule="evenodd" clip-rule="evenodd" fill="none" stroke="#000000" stroke-width="1.2506" stroke-linecap="round" d="
		M398.694,275.519c-0.058,0.588-0.267,1.024-0.484,1.453"/>
	<path fill-rule="evenodd" clip-rule="evenodd" fill="none" stroke="#000000" stroke-width="1.8319" stroke-linecap="round" d="
		M496.29,284.722c5.233,1.016,7.337,7.354,12.25,8.532c0.962-2.503,0.518-5.809-0.124-8.25c-0.046-0.175-0.699-0.188-0.771-0.399
		c-0.754-2.226-1.479-6.521-3.687-7.794"/>
	<path fill-rule="evenodd" clip-rule="evenodd" fill="none" stroke="#000000" stroke-width="1.3535" stroke-linecap="round" d="
		M503.959,276.811c-1.437,3.241-4.797,4.241-7.911,5.005"/>
	<path fill-rule="evenodd" clip-rule="evenodd" fill="none" stroke="#000000" stroke-width="1.645" stroke-linecap="round" d="
		M422.589,297.476c6.635-2.517,9.319-9.403,12.432-15.176"/>
	<path fill-rule="evenodd" clip-rule="evenodd" fill="none" stroke="#000000" stroke-width="1.5455" stroke-linecap="round" d="
		M435.02,282.3c-1.614-1.11-1.872-3.683-3.714-4.521"/>
	<path fill-rule="evenodd" clip-rule="evenodd" fill="none" stroke="#000000" stroke-width="1.7197" stroke-linecap="round" d="
		M497.016,305.065c1.721-5.307,1.308-11.609-1.13-16.63"/>
	<path fill-rule="evenodd" clip-rule="evenodd" fill="none" stroke="#000000" stroke-width="1.8054" stroke-linecap="round" d="
		M495.886,288.435c-3.113,0.95-5.511,3.574-9.041,3.552"/>
	<path fill-rule="evenodd" clip-rule="evenodd" fill="none" stroke="#000000" stroke-width="1.5113" stroke-linecap="round" d="
		M486.845,313.298c4.936,1.564,10.898-0.515,16.172-0.295c0.234-0.8,0.197-1.677,0.133-2.465c-0.378-0.58-0.64-1.291-0.91-1.983
		c-1.62-1.319-3.289-2.619-5.224-3.49"/>
	<path fill-rule="evenodd" clip-rule="evenodd" fill="none" stroke="#000000" stroke-width="1.6778" stroke-linecap="round" d="
		M497.016,305.065c-1.564-1.192-3.339-1.871-4.843-3.148"/>
</g>
</svg>
