<?xml version="1.0" encoding="utf-8"?>
<!-- Generator: Adobe Illustrator 14.0.0, SVG Export Plug-In . SVG Version: 6.00 Build 43363)  -->
<!DOCTYPE svg PUBLIC "-//W3C//DTD SVG 1.1//EN" "http://www.w3.org/Graphics/SVG/1.1/DTD/svg11.dtd">
<svg version="1.1" id="图层_1" xmlns="http://www.w3.org/2000/svg" xmlns:xlink="http://www.w3.org/1999/xlink" x="0px" y="0px"
	 width="848px" height="480px" viewBox="0 0 848 480" enable-background="new 0 0 848 480" xml:space="preserve">
<g>
	<path fill="none" stroke="#000000" stroke-width="1.8036" stroke-linecap="round" d="M554.076,165.183
		c0.479-1.372,0.924-2.514,1.479-3.346c0.833-0.477,2.144-0.457,3.365-0.529"/>
	<path fill="none" stroke="#000000" stroke-width="2.1796" stroke-linecap="round" d="M597.667,162.278
		c2.563,0.496,5.915,1.66,5.812,4.844"/>
	<path fill="none" stroke="#000000" stroke-width="1.2815" stroke-linecap="round" d="M596.699,181.652
		c-2.179,1.689-5.2,0.683-7.749,0.969"/>
	<path fill="none" stroke="#000000" stroke-width="1.5547" stroke-linecap="round" d="M591.855,180.199
		c-1.409-0.833-3.139-0.051-4.538-0.776c-4.089-3.479-3.729-8.557-2.88-13.133c3.818-2.492,8.476-6.885,13.229-4.012"/>
	<path fill="none" stroke="#000000" stroke-width="1.1864" stroke-linecap="round" d="M591.855,180.199
		c-0.028-1.337,0.222-2.086,0.483-2.906"/>
	<path fill="none" stroke="#000000" stroke-width="1.6252" stroke-linecap="round" d="M592.339,177.293
		c-0.504-1.354-1.753-2.065-2.726-2.938c-0.353-1.47-0.396-3.094,0.036-4.527c1.974-1.2,3.535-3.172,6.079-2.706"/>
	<path fill="none" stroke="#000000" stroke-width="1.838" stroke-linecap="round" d="M595.729,167.122
		c-0.099,2.135,1.764,4.032,3.875,3.874"/>
	<path fill="none" stroke="#000000" stroke-width="2.3284" stroke-linecap="round" d="M597.667,162.278
		c-1.403,1.191-1.694,3.119-1.938,4.844"/>
	<path fill="none" stroke="#000000" stroke-width="2.0549" stroke-linecap="round" d="M592.339,177.293
		c0.667-0.01,1.272,0.073,1.776,0.161"/>
	<path fill="none" stroke="#000000" stroke-width="1.2443" stroke-linecap="round" d="M594.116,177.454
		c3.26-0.247,6.208-2.84,5.488-6.458"/>
	<path fill="none" stroke="#000000" stroke-width="1.2253" stroke-linecap="round" d="M593.307,180.199
		c0.855,0.283,2.165,0.582,3.392,1.453"/>
	<path fill="none" stroke="#000000" stroke-width="2.0492" stroke-linecap="round" d="M596.699,181.652
		c3.947-2.821,9.479-2.406,9.197-9.533c-0.033-0.885-0.647-2.543-0.616-3.883c-0.364-0.407-1.083-0.706-1.802-1.114"/>
	<path fill="none" stroke="#000000" stroke-width="1.6305" stroke-linecap="round" d="M603.478,167.122
		c-0.405,2.027-2.594,2.548-3.874,3.874"/>
	<path fill="none" stroke="#000000" stroke-width="2.0165" stroke-linecap="round" d="M591.855,180.199c0.587,0,1.023,0,1.452,0"/>
	<path fill="none" stroke="#000000" stroke-width="1.6209" stroke-linecap="round" d="M593.307,180.199
		c0.607-1.188,0.93-2.104,0.809-2.745"/>
	<path fill="none" stroke="#000000" stroke-width="0.9687" stroke-linecap="round" d="M558.435,164.7c0.97,0,1.938,0,2.905,0
		c0.784,0.184,0.966,0.972,1.938,0.969c0.298,1.004-0.534,0.679-0.97,0.969c-0.487,0.325-1.171-0.009-0.969,0.97
		C558.825,168.185,557.855,167.217,558.435,164.7z"/>
	<path fill="none" stroke="#000000" stroke-width="0.9687" stroke-linecap="round" d="M645.618,186.01
		c-0.178-0.822,0.378-0.913,0.969-0.969c0.35,0.243,1.678-0.315,1.938,0c0.158,0.194-0.127,0.75,0,0.969
		c-0.178,0.824,0.378,0.914,0.97,0.97c0.177,0.806-0.377,0.938-0.97,0.969c-0.321,0.018-0.646-0.015-0.969,0
		c-0.248-0.398,0.322-1.614,0-1.938C647.231,185.688,646.015,186.259,645.618,186.01z"/>
	<path fill="none" stroke="#000000" stroke-width="1.4726" stroke-linecap="round" d="M573.45,205.869
		c1.662,0.309,1.286,1.89,1.678,3.114c2.975,5.817,10.391,7.328,16.729,7.542"/>
	<path fill="none" stroke="#000000" stroke-width="0.9687" stroke-linecap="round" d="M583.621,261.569
		c1.697,0.885,3.365,1.801,2.906,4.844c-0.646,0-1.292,0-1.938,0C585.39,263.674,583.224,263.903,583.621,261.569z"/>
	<path fill="none" stroke="#000000" stroke-width="1.453" stroke-linecap="round" d="M646.101,204.9
		c-0.712,0.761-1.776,0.916-2.633,0.669c-0.135-0.497-0.205-1.065-0.272-1.639"/>
	<path fill="none" stroke="#000000" stroke-width="1.4685" stroke-linecap="round" d="M643.196,203.931
		c-5.736,0.549-10.873-4.336-16.408-2.043c-4.359-2.325-8.297-4.945-13.137-5.706"/>
	<path fill="none" stroke="#000000" stroke-width="2.0984" stroke-linecap="round" d="M613.651,196.182
		c-0.113,0.508-0.427,1.146-0.752,1.705c-1.938,0.418-2.504-1.216-2.64-2.674"/>
	<path fill="none" stroke="#000000" stroke-width="1.418" stroke-linecap="round" d="M610.26,195.214
		c-2.373-1.959-5.772-0.245-8.422-1.266c-1.867-0.671-2.725-4.031-5.14-2.609"/>
	<path fill="none" stroke="#000000" stroke-width="1.8443" stroke-linecap="round" d="M596.699,191.339
		c0.337,1.857,1.595,3.24,2.422,4.844"/>
	<path fill="none" stroke="#000000" stroke-width="1.2362" stroke-linecap="round" d="M599.12,196.182
		c3.685,1.624,7.681,4.561,7.265,9.202"/>
	<path fill="none" stroke="#000000" stroke-width="1.7463" stroke-linecap="round" d="M606.385,205.385
		c4.447,4.532,10.297,7.521,15.984,10.656"/>
	<path fill="none" stroke="#000000" stroke-width="2.1661" stroke-linecap="round" d="M622.369,216.041
		c0.198-1.032,1.582-1.335,2.924-1.129c0.244,0.504,0.313,1,0.373,1.496c-0.022,0.2-0.045,0.399-0.068,0.601"/>
	<path fill="none" stroke="#000000" stroke-width="1.4537" stroke-linecap="round" d="M625.597,217.009
		c0.981,1.787,2.965,2.605,4.351,3.904c-4.688,10.923-13.229,7.798-21.821,5.495c-1.763-0.473-3.976-0.572-5.623-1.157
		c-3.525-1.252-7.075-4.724-11.359-2.646c-0.98,0.476-4.622,1.44-6.716,3.282"/>
	<path fill="none" stroke="#000000" stroke-width="1.9055" stroke-linecap="round" d="M584.427,225.888
		c1.011,3.697,1.193,7.471,1.292,11.303"/>
	<path fill="none" stroke="#000000" stroke-width="1.7742" stroke-linecap="round" d="M585.719,237.19
		c0.126,0.033,0.252,0.068,0.378,0.104c1.354,1.66,1.849,4.06,3.545,5.64c7.781,4.338,16.554,3.961,24.402,7.957
		c2.559,1.305,4.613,2.955,7.354,4.865"/>
	<path fill="none" stroke="#000000" stroke-width="1.913" stroke-linecap="round" d="M621.401,255.756
		c2.19,0.307,4.475,1.896,4.357,4.359"/>
	<path fill="none" stroke="#000000" stroke-width="2.4933" stroke-linecap="round" d="M625.759,260.115
		c3.692,4.172,9.907,7.84,10.01,13.885"/>
	<path fill="none" stroke="#000000" stroke-width="1.96" stroke-linecap="round" d="M635.768,274
		c1.575,1.727,3.044,4.695,2.165,7.01c-0.998-0.107-2.151-0.561-2.916-1.08c-1.18-2.57-4.673-3.309-4.898-6.252"/>
	<path fill="none" stroke="#000000" stroke-width="1.8784" stroke-linecap="round" d="M589.433,265.444
		c-1.858,3.988-3.822,7.982-4.037,12.432"/>
	<path fill="none" stroke="#000000" stroke-width="1.2878" stroke-linecap="round" d="M490.627,248.975
		c0.541-3.975,4.183-4.463,7.949-6.58c1.229-0.689,2.335-1.828,3.398-2.413c0.72-0.396,1.76-0.126,2.413-0.493
		c1.006-0.563,2.688-2.415,4.381-3.368c7.027-3.953,14.886-6.127,21.291-10.676c6.562,0.036,13.063-3.085,18.513-5.562
		c0.104-0.049,0.08-0.385,0.176-0.454"/>
	<path fill="none" stroke="#000000" stroke-width="1.5917" stroke-linecap="round" d="M548.748,219.43
		c1.572-3.297-1.355-7.06,0.969-10.171"/>
	<path fill="none" stroke="#000000" stroke-width="1.5633" stroke-linecap="round" d="M549.717,209.26
		c-3.476-4.137-7.506-8.174-11.645-11.74c-3.634-7.146-3.722-17.55,1.983-23.25c1.791-6.571,8.064-9.762,12.299-14.681
		c3.601-0.825,7.156-3.656,11.545-4.923c3.33-0.961,6.777-1.018,11.497-1.354c2.204-0.157,2.628-1.258,4.079-1.477
		c5.214-0.785,8.39-1.955,13.206-0.066c3.766,1.475,11.771,2.947,15.575,5.731c2.252,1.648,4.115,4.753,5.426,7.672
		c9.697,4.317,18.656,8.558,29.215,12.903c3.003,1.235,5.25,2.866,7.984,4.607c3.67,5.951,3.854,15.729-1.031,21.064
		c-1.183,0.012-2.475,0.324-3.75,1.152"/>
	<path fill="none" stroke="#000000" stroke-width="1.5942" stroke-linecap="round" d="M599.12,196.182
		c0.232,4.213,2.802,8.458,7.265,9.202"/>
	<path fill="none" stroke="#000000" stroke-width="1.3764" stroke-linecap="round" d="M551.815,276.26
		c7.865-0.516,12.238-8.42,19.696-9.363"/>
	<path fill="none" stroke="#000000" stroke-width="1.7463" stroke-linecap="round" d="M547.942,279.166
		c-0.145,0.48-0.605,1.703-1.424,3.244c-0.349,3.877,3.134,6.777,5.62,8.703"/>
	<path fill="none" stroke="#000000" stroke-width="1.4259" stroke-linecap="round" d="M552.138,291.114
		c3.379-0.063,6.521,1.512,9.202,3.391"/>
	<path fill="none" stroke="#000000" stroke-width="1.557" stroke-linecap="round" d="M561.341,294.504
		c2.452-1.074,5.13,0.334,7.266,1.453"/>
	<path fill="none" stroke="#000000" stroke-width="1.5895" stroke-linecap="round" d="M588.707,303.949
		c4.6-0.109,8.575,5.053,13.803,2.664"/>
	<path fill="none" stroke="#000000" stroke-width="2.0294" stroke-linecap="round" d="M602.51,306.614
		c1.445-3.004,2.71-6.143,4.844-8.719"/>
	<path fill="none" stroke="#000000" stroke-width="1.2652" stroke-linecap="round" d="M607.353,297.895
		c-1.399-3.529-4.291-5.768-7.749-6.781"/>
	
		<line fill="none" stroke="#000000" stroke-width="2.9857" stroke-linecap="round" x1="607.353" y1="297.895" x2="607.353" y2="297.895"/>
	<path fill="none" stroke="#000000" stroke-width="1.3699" stroke-linecap="round" d="M609.049,295.473
		c-1.32-7.527-8.168-7.6-14.979-11.418c-0.975-0.545-1.522-1.791-2.437-2.414c-2.191-1.494-4.825-1.762-6.237-3.766"/>
	<path fill="none" stroke="#000000" stroke-width="1.8702" stroke-linecap="round" d="M585.396,277.875
		c-1.737,0.195-3.48,0.123-5.166,0.646"/>
	<path fill="none" stroke="#000000" stroke-width="1.4038" stroke-linecap="round" d="M586.043,258.178
		c-4.202-1.094-12.945-2.336-19.805-2.322c-4.867,0.008-8.69,0.195-11.193,4.262"/>
	<path fill="none" stroke="#000000" stroke-width="1.3527" stroke-linecap="round" d="M584.427,225.888
		c-3.807-1.114-6.531-3.929-9.041-6.458"/>
	<path fill="none" stroke="#000000" stroke-width="2.6529" stroke-linecap="round" d="M596.699,191.339
		c-0.622-0.997-1.183-1.716-1.938-2.422"/>
	<path fill="none" stroke="#000000" stroke-width="1.3264" stroke-linecap="round" d="M549.717,209.26
		c0.855-0.437,2.165-0.418,3.392-0.483"/>
	<path fill="none" stroke="#000000" stroke-width="1.4327" stroke-linecap="round" d="M548.748,219.43
		c7.563-1.68,16.13-6.399,21.715,1.05c0.152,0.201-0.046,0.668,0.08,0.889"/>
	<path fill="none" stroke="#000000" stroke-width="1.2312" stroke-linecap="round" d="M490.627,248.975
		c1.098,2.467,2.084,4.752,3.875,6.781"/>
	<path fill="none" stroke="#000000" stroke-width="2.0549" stroke-linecap="round" d="M494.502,255.756
		c1.557,0.074,3.147-0.172,4.682,0.162"/>
	<path fill="none" stroke="#000000" stroke-width="1.2405" stroke-linecap="round" d="M499.183,255.918
		c2.357-2.268,5.91-3.502,7.427-6.459"/>
	<path fill="none" stroke="#000000" stroke-width="1.6778" stroke-linecap="round" d="M499.183,255.918
		c0.108,1.549-0.713,3.104-0.808,4.684"/>
	<path fill="none" stroke="#000000" stroke-width="1.3469" stroke-linecap="round" d="M498.376,260.6
		c1.099,3.371,5.136,3.236,6.78,5.813"/>
	<path fill="none" stroke="#000000" stroke-width="1.418" stroke-linecap="round" d="M505.157,266.412
		c2.304,0.129,4.051-2.447,6.297-1.453"/>
	<path fill="none" stroke="#000000" stroke-width="2.9594" stroke-linecap="round" d="M511.453,264.959
		c0.323-0.322,0.646-0.646,0.969-0.969"/>
	<path fill="none" stroke="#000000" stroke-width="1.5124" stroke-linecap="round" d="M512.422,263.99
		c0.95-2.777,2.695-5.447,4.844-7.266"/>
	<path fill="none" stroke="#000000" stroke-width="1.3264" stroke-linecap="round" d="M520.657,267.381
		c1.266-0.6,2.114-1.895,3.633-1.938"/>
	<path fill="none" stroke="#000000" stroke-width="1.4701" stroke-linecap="round" d="M524.289,265.444
		c0.053-0.164,0.104-0.328,0.16-0.49c4.531-3.529,4.69-10.586,8.818-14.166c4.319-13.287,18.676-16.36,30.979-18.279"/>
	<path fill="none" stroke="#000000" stroke-width="1.1864" stroke-linecap="round" d="M564.247,232.509
		c0.519-1.466,2.219-1.71,3.391-2.422"/>
	<path fill="none" stroke="#000000" stroke-width="1.3096" stroke-linecap="round" d="M564.247,232.509
		c2.383,2.791,6.148,3.95,8.457,7.042c1.673,0.053,2.854,1.565,4.62,1.192"/>
	<path fill="none" stroke="#000000" stroke-width="1.474" stroke-linecap="round" d="M524.289,265.444
		c2.88,4.426,8.616,6.141,11.744,9.658c0.104,0.113,0.03,0.387,0.121,0.514"/>
	<path fill="none" stroke="#000000" stroke-width="1.3062" stroke-linecap="round" d="M536.155,275.615
		c4.217-0.016,8.098,1.727,11.787,3.551"/>
	<path fill="none" stroke="#000000" stroke-width="1.9069" stroke-linecap="round" d="M547.942,279.166
		c1.414-0.711,2.815-1.74,3.873-2.906"/>
	<path fill="none" stroke="#000000" stroke-width="1.3601" stroke-linecap="round" d="M551.815,276.26
		c-5.017-2.59-7.502-7.35-11.785-10.816"/>
	<path fill="none" stroke="#000000" stroke-width="1.6778" stroke-linecap="round" d="M613.651,196.182
		c-0.425-1.19-2.32-1.678-3.392-0.969"/>
	<path fill="none" stroke="#000000" stroke-width="1.2253" stroke-linecap="round" d="M646.101,204.9
		c-0.969-0.68-1.938-0.739-2.905-0.97"/>
	<path fill="none" stroke="#000000" stroke-width="1.8759" stroke-linecap="round" d="M622.369,216.041
		c0.748,0.679,1.928,0.739,3.229,0.968"/>
	<path fill="none" stroke="#000000" stroke-width="1.6977" stroke-linecap="round" d="M586.043,258.178
		c0.856,1.336,1.772,2.803,3.167,3.598c0.2,0.598,0.192,2.068,0.224,3.668"/>
	<path fill="none" stroke="#000000" stroke-width="1.2725" stroke-linecap="round" d="M589.433,265.444
		c2.291,0.248,3.574,2.322,5.529,3.188c4.987,1.227,10.633,1.154,14.531,4.844c1.671,0.502,3.596-0.301,5.125,0.688"/>
	<path fill="none" stroke="#000000" stroke-width="1.3313" stroke-linecap="round" d="M614.619,274.162
		c1.56-2.152,5.232-2.291,6.297-5.328"/>
	<path fill="none" stroke="#000000" stroke-width="1.2996" stroke-linecap="round" d="M617.041,264.959
		c-2.695,1.361-7.894,2.004-9.688-0.969"/>
	<path fill="none" stroke="#000000" stroke-width="1.625" stroke-linecap="round" d="M585.719,237.19
		c-1.212,1.222-2.323,2.839-2.531,4.562c3.43,4.627,4.034,10.84,2.854,16.426"/>
	<path fill="none" stroke="#000000" stroke-width="1.4246" stroke-linecap="round" d="M490.627,248.975
		c-0.893,0.4-2.209,0.375-3.105,0.771c-3.326,4.674-9.799,8.188-9.342,14.695c0.318,0.303,0.837,0.387,1.365,0.461
		c4.754-3.459,10.943-4.984,14.957-9.146"/>
	<path fill="none" stroke="#000000" stroke-width="1.6145" stroke-linecap="round" d="M621.401,257.694
		c0.762,1.533,2.48,3.555,4.357,2.422"/>
	<path fill="none" stroke="#000000" stroke-width="2.0165" stroke-linecap="round" d="M621.401,255.756c0,0.854,0,1.402,0,1.939"/>
	<path fill="none" stroke="#000000" stroke-width="1.6465" stroke-linecap="round" d="M617.041,264.959
		c0.233,0.602,0.408,1.008,0.578,1.408c1.336,0.58,3.055,0.568,3.297,2.467"/>
	<path fill="none" stroke="#000000" stroke-width="2.3728" stroke-linecap="round" d="M620.916,268.834
		c0.785,0.273,1.633,0.885,2.582,1.613"/>
	<path fill="none" stroke="#000000" stroke-width="1.8123" stroke-linecap="round" d="M623.498,270.448
		c2.752-0.736,4.608,1.904,6.62,3.229"/>
	<path fill="none" stroke="#000000" stroke-width="1.8988" stroke-linecap="round" d="M621.401,257.694
		c-2.756,1.588-4.466,3.957-4.359,7.266"/>
	<path fill="none" stroke="#000000" stroke-width="1.5545" stroke-linecap="round" d="M498.376,260.6
		c-2.66,0.6-7.044,5.945-8.083,10.309c-0.473,1.99-1.758,4.35,0.759,5.053c5.055-2.367,9.999-5.832,14.104-9.549"/>
	<path fill="none" stroke="#000000" stroke-width="1.6174" stroke-linecap="round" d="M511.453,264.959
		c-0.604,4.326-4.956,7.754-5.017,12.252c5.841,1.275,12.757-6.188,14.22-9.83"/>
	<path fill="none" stroke="#000000" stroke-width="1.453" stroke-linecap="round" d="M520.657,267.381
		c-2.732-1.361-5.767-1.588-8.234-3.391"/>
	<path fill="none" stroke="#000000" stroke-width="1.6299" stroke-linecap="round" d="M614.619,274.162
		c0.16,0.15,0.176,0.482,0.348,0.621c4.788,3.844,8.361,10.516,13.955,12.701c-0.236-4.48-1.815-9.322-3.867-13.061
		c-1.516-0.521-1.444-2.654-1.557-3.977"/>
	<path fill="none" stroke="#000000" stroke-width="1.5917" stroke-linecap="round" d="M635.768,274
		c-1.876,0.357-3.706-0.729-5.649-0.322"/>
	<path fill="none" stroke="#000000" stroke-width="1.4921" stroke-linecap="round" d="M536.155,275.615
		c-0.056,1.992-2.105,5.186-4.077,7.996c-0.156,0.223-1.11,0.586-1.633,1.16c-1.813,1.99-4.565,6.441-5.686,8.004
		c-2.345,3.275-4.147,6.072-5.669,8.896c0.048-0.09-4.441,4.357-2.256,8.129c0.286,0.115,0.488,0.262,0.687,0.41
		c0.089,0.217,0.222,0.496,0.356,0.779c6.405,3.393,19.467,2.107,30.365,2.854c6.152,0.42,11.333,1.162,17.304,0.672
		c3.812,1.48,8.793,1.279,12.424-0.801"/>
	<path fill="none" stroke="#000000" stroke-width="1.9501" stroke-linecap="round" d="M577.97,313.717
		c0.195-3.068,1.148-6.148,0.97-9.363"/>
	<path fill="none" stroke="#000000" stroke-width="1.0463" stroke-linecap="round" d="M578.94,304.352
		c-0.492-1.475-2.265-2.07-2.584-3.553"/>
	<path fill="none" stroke="#000000" stroke-width="1.1864" stroke-linecap="round" d="M576.355,300.801c-2.583,0-5.166,0-7.75,0"/>
	<path fill="none" stroke="#000000" stroke-width="1.2506" stroke-linecap="round" d="M576.355,300.801
		c0.06-0.588,0.269-1.023,0.484-1.453"/>
	<path fill="none" stroke="#000000" stroke-width="1.7538" stroke-linecap="round" d="M576.84,299.348
		c-2.964-0.713-5.252-2.602-8.234-3.391"/>
	<path fill="none" stroke="#000000" stroke-width="1.374" stroke-linecap="round" d="M551.655,294.02
		c-1.229,2.633-4.865,2.117-7.267,2.904"/>
	<path fill="none" stroke="#000000" stroke-width="1.3496" stroke-linecap="round" d="M551.655,294.02
		c3.587-0.814,6.057,3.535,9.687,1.453"/>
	<path fill="none" stroke="#000000" stroke-width="1.6778" stroke-linecap="round" d="M552.138,291.114
		c-0.278,1.006-0.426,1.793-0.483,2.906"/>
	<path fill="none" stroke="#000000" stroke-width="1.8307" stroke-linecap="round" d="M561.341,295.473
		c1.773,2.191,5.251,2.596,7.266,0.484"/>
	<path fill="none" stroke="#000000" stroke-width="3.9149" stroke-linecap="round" d="M561.341,294.504c0,0.322,0,0.646,0,0.969"/>
	<path fill="none" stroke="#000000" stroke-width="1.6305" stroke-linecap="round" d="M612.681,306.614
		c0.97,0.053,1.533-0.119,2.078-0.301c2.238-3.891-0.979-10.846-5.711-10.84"/>
	<path fill="none" stroke="#000000" stroke-width="1.9374" stroke-linecap="round" d="M609.049,295.473
		c-0.262,0.764-1.055,1.672-1.695,2.422"/>
	<path fill="none" stroke="#000000" stroke-width="1.7618" stroke-linecap="round" d="M602.51,306.614
		c2.963,1.553,6.52,2.693,9.9,2.199c0.188-0.479,0.209-1.396,0.271-2.199"/>
	<path fill="none" stroke="#000000" stroke-width="1.8046" stroke-linecap="round" d="M612.681,306.614
		c0.576-3.936-3.12-6.018-5.328-8.719"/>
	<path fill="none" stroke="#000000" stroke-width="2.0926" stroke-linecap="round" d="M578.94,304.352
		c0.516-0.086,1.442-0.344,2.26-0.646"/>
	<path fill="none" stroke="#000000" stroke-width="2.9857" stroke-linecap="round" d="M581.2,303.707c0-0.646,0-1.293,0-1.938"/>
	<path fill="none" stroke="#000000" stroke-width="1.5486" stroke-linecap="round" d="M581.2,301.77
		c-1.349-1.012-2.9-1.629-4.359-2.424"/>
	<path fill="none" stroke="#000000" stroke-width="1.9925" stroke-linecap="round" d="M589.918,313.393
		c1.391-0.479,2.535-0.924,3.193-1.484c0.665-3.336-2.732-5.586-4.404-7.959"/>
	<path fill="none" stroke="#000000" stroke-width="1.9374" stroke-linecap="round" d="M588.707,303.949
		c-2.563-0.746-4.72-2.566-7.508-2.18"/>
	<path fill="none" stroke="#000000" stroke-width="1.7905" stroke-linecap="round" d="M577.97,313.717
		c3.972-0.498,8.381,1.777,11.947-0.322"/>
	<path fill="none" stroke="#000000" stroke-width="1.6064" stroke-linecap="round" d="M589.918,313.393
		c-1.039-4.453-7.076-5.512-8.719-9.688"/>
</g>
</svg>
