<?xml version="1.0" encoding="utf-8"?>
<!-- Generator: Adobe Illustrator 14.0.0, SVG Export Plug-In . SVG Version: 6.00 Build 43363)  -->
<!DOCTYPE svg PUBLIC "-//W3C//DTD SVG 1.1//EN" "http://www.w3.org/Graphics/SVG/1.1/DTD/svg11.dtd">
<svg version="1.1" id="图层_1" xmlns="http://www.w3.org/2000/svg" xmlns:xlink="http://www.w3.org/1999/xlink" x="0px" y="0px"
	 width="848px" height="480px" viewBox="0 0 848 480" enable-background="new 0 0 848 480" xml:space="preserve">
<g>
	<path fill="none" stroke="#5E7B38" stroke-width="1.8716" stroke-linecap="round" d="M71.02,58.499
		c8.705-7.443,24.469-15.714,34.997-9.877c2.936,1.627,4.214,4.393,6.655,7.776c3.201,4.437,5.992,9.252,10.14,14.984"/>
	<path fill="none" stroke="#5E7B38" stroke-width="3.3256" stroke-linecap="round" d="M122.812,71.382
		c9.927-1.188,19.813-0.172,29.632,0.515"/>
	<path fill="none" stroke="#5E7B38" stroke-width="1.9671" stroke-linecap="round" d="M96.787,66.744
		c-0.333,0.191-0.667,0.384-1,0.575c-2.509,2.633-2.835,6.572-5.633,8.945c-8.052,5.243-15.935,8.979-23.107,11.247
		c-3.136,0.992-5.671,2.409-9.013,1.995c-2.917-0.361-5.929-2.193-8.567-3.672c-4.582-2.568-9.59-6.53-13.009-13.771
		c-1.62-3.43-6.286-14.164-8.002-21.173c-0.69-2.824-0.731-4.978-1.291-7.644c-0.073-0.35-0.649-0.563-0.71-0.871
		c-0.471-2.417-1.701-6.813-0.567-9.495c4.524-0.862,8.352,2.382,12.06,4.464c3.255,1.829,6.845,4.058,10.307,6.184
		c7.689,4.722,15.091,10.768,22.768,14.97"/>
	<path fill="none" stroke="#5E7B38" stroke-width="1.8707" stroke-linecap="round" d="M96.787,66.744
		c0.519-3.947,3.273-6.836,5.669-9.792"/>
	<path fill="none" stroke="#5E7B38" stroke-width="2.1456" stroke-linecap="round" d="M96.787,66.744
		c4.433,1.869,6.912,6.082,10.308,9.275"/>
	<path fill="none" stroke="#5E7B38" stroke-width="2.3276" stroke-linecap="round" d="M107.094,76.021
		c5.489-0.695,10.454-2.893,15.718-4.638"/>
	<path fill="none" stroke="#5E7B38" stroke-width="2.1057" stroke-linecap="round" d="M71.02,58.499
		c3.476,3.526,6.997,7.189,11.337,9.792"/>
	<path fill="none" stroke="#5E7B38" stroke-width="2.0962" stroke-linecap="round" d="M152.444,71.897
		c4.15,1.654,8.226,2.453,12.626,2.577"/>
	<path fill="none" stroke="#5E7B38" stroke-width="1.9672" stroke-linecap="round" d="M183.623,66.229
		c0.734-2.912-2.004-5.324-3.865-7.215"/>
	<path fill="none" stroke="#5E7B38" stroke-width="2.1221" stroke-linecap="round" d="M194.703,92.511
		c9.361-3.17,17.472,3.406,26.584,2.524c3.292-2.751,6.199-5.953,9.736-8.397c1.196-2.494,4.148-5.541,6.141-8.179
		c0.584-0.773,0.807-2.314,1.375-3.299c0.371-0.643,1.374-1.198,1.727-1.856c1.331-2.489,2.099-6.075,3.373-8.531
		c0.899-1.734,2.153-3.562,3.092-5.152c2.269-3.853,5.236-7.319,5.965-11.663c-9.45-0.434-17.746,4.44-25.692,8.716
		c-6.23,3.353-11.169,6.61-17.87,10.07"/>
	<path fill="none" stroke="#5E7B38" stroke-width="1.9227" stroke-linecap="round" d="M209.132,66.744
		c-3.285,3.853-6.942,8.068-10.821,11.853"/>
	<path fill="none" stroke="#5E7B38" stroke-width="1.8795" stroke-linecap="round" d="M209.132,66.744
		c-0.34-4.239-3.945-6.978-5.875-10.555c-2.975-1.79-6.032-3.006-8.519-4.311c-9.204-4.832-14.029-9.691-23.636-1.155
		c-3.09,2.745-12.398,11.096-17.858,18.754c-0.165,0.564-0.456,1.547-0.801,2.42"/>
	<path fill="none" stroke="#5E7B38" stroke-width="2.2484" stroke-linecap="round" d="M185.684,82.72
		c-0.498-5.251-1.042-10.991-2.063-16.491"/>
	<path fill="none" stroke="#5E7B38" stroke-width="2.1096" stroke-linecap="round" d="M183.623,66.229
		c-6.96,0.063-14.19,3.232-18.552,8.246"/>
	<path fill="none" stroke="#5E7B38" stroke-width="2.3054" stroke-linecap="round" d="M107.094,76.021
		c-0.395,0.788-0.785,1.106-1.203,1.355c-12.107,7.208-25.245,17.374-32.023,33.333c-1.583,3.727-1.919,7.479-3.408,11.534
		c-2.646,7.208-7.804,13.414-9.99,19.38c-4.754,12.964-0.465,27.27,7.147,35.652c5.133,5.653,21.03,16.385,34.985,20.611
		c1.311,0.397,2.9,0.73,4.124,1.032c19.068,4.706,43.442,4.274,64.063,1.246c0.378-0.057,3.187-1.298,4.993-1.737
		c5.436-1.32,9.617-2.175,14.709-5.399c1.076-0.681,3.745-2.406,5.926-3.867c21.465-14.385,37.833-38.933,12.501-66.393
		c-4.391-10.262-8.521-20.483-14.214-30.256"/>
	<path fill="none" stroke="#5E7B38" stroke-width="2.0275" stroke-linecap="round" d="M194.703,92.511
		c-0.192-0.338-0.387-0.676-0.581-1.015c-4.728-0.24-6.553-5.117-8.438-8.777"/>
	<path fill="none" stroke="#5E7B38" stroke-width="2.001" stroke-linecap="round" d="M185.684,82.72
		c-4.031-0.34-6.563-3.452-10.207-4.877c-3.248-1.271-7.36-0.977-10.407-3.368"/>
</g>
</svg>
