<?xml version="1.0" encoding="utf-8"?>
<!-- Generator: Adobe Illustrator 14.0.0, SVG Export Plug-In . SVG Version: 6.00 Build 43363)  -->
<!DOCTYPE svg PUBLIC "-//W3C//DTD SVG 1.1//EN" "http://www.w3.org/Graphics/SVG/1.1/DTD/svg11.dtd">
<svg version="1.1" id="图层_1" xmlns="http://www.w3.org/2000/svg" xmlns:xlink="http://www.w3.org/1999/xlink" x="0px" y="0px"
	 width="848px" height="480px" viewBox="0 0 848 480" enable-background="new 0 0 848 480" xml:space="preserve">
<g>
	<path fill="none" stroke="#EE9CB0" stroke-width="1.8282" stroke-linecap="round" d="M297.772,116.732
		c3.668-0.431,3.972,3.441,7.094,4.096c0.796,0.167,2.921-1.007,3.375,0.094c-0.107,0.632-0.55,1.188-0.973,1.711
		c-0.966,2.866-2.235,5.648-3.828,8.186"/>
	<path fill="none" stroke="#EE9CB0" stroke-width="2.2266" stroke-linecap="round" d="M303.44,130.819
		c-0.045,2.056-0.907,2.928-1.546,3.951"/>
	<path fill="none" stroke="#EE9CB0" stroke-width="3.6384" stroke-linecap="round" d="M281.796,139.408
		c0.68-2.462-0.19-5.592,1.719-7.559"/>
	<path fill="none" stroke="#EE9CB0" stroke-width="3.5159" stroke-linecap="round" d="M283.514,131.85
		c0.535-5.199,2.128-10.845,6.527-14.086"/>
	<path fill="none" stroke="#EE9CB0" stroke-width="3.6108" stroke-linecap="round" d="M290.042,117.763
		c2.036-1.918,5.298-2.815,7.73-1.031"/>
	<path fill="none" stroke="#EE9CB0" stroke-width="2.3667" stroke-linecap="round" d="M293.907,125.236
		c2.408,0.522,4.224,2.535,4.638,4.896"/>
	<path fill="none" stroke="#EE9CB0" stroke-width="2.1456" stroke-linecap="round" d="M298.545,130.132c0.891,0,1.86,0,2.834,0"/>
	<path fill="none" stroke="#EE9CB0" stroke-width="2.0415" stroke-linecap="round" d="M290.042,117.763
		c2.331,1.958,2.756,4.793,3.865,7.473"/>
	<path fill="none" stroke="#EE9CB0" stroke-width="2.9152" stroke-linecap="round" d="M301.379,130.132
		c0.171,0.172,0.344,0.343,0.516,0.515"/>
	<path fill="none" stroke="#EE9CB0" stroke-width="1.958" stroke-linecap="round" d="M297.772,116.732
		c1.61,4.354,4.626,8.358,3.606,13.399"/>
	<path fill="none" stroke="#EE9CB0" stroke-width="2.4638" stroke-linecap="round" d="M283.514,131.85
		c1.53,1.281,3.281,1.198,4.981,1.89"/>
	<path fill="none" stroke="#EE9CB0" stroke-width="1.8768" stroke-linecap="round" d="M288.496,133.739
		c3.968-1.083,4.116-5.389,5.411-8.503"/>
	<path fill="none" stroke="#EE9CB0" stroke-width="2.0614" stroke-linecap="round" d="M288.496,133.739
		c0.317,1.688,1.105,3,1.546,4.123"/>
	<path fill="none" stroke="#EE9CB0" stroke-width="1.7092" stroke-linecap="round" d="M290.042,137.862
		c2.254-0.021,4.064,0.16,5.342-0.311c1.782-2.143,3.059-4.589,3.162-7.419"/>
	<path fill="none" stroke="#EE9CB0" stroke-width="3.8565" stroke-linecap="round" d="M289.583,143.817
		c0.868,0.434,1.922,0.313,3.035,0.229"/>
	<path fill="none" stroke="#EE9CB0" stroke-width="1.7247" stroke-linecap="round" d="M292.618,144.046
		c1.285-0.937,2.447-1.278,4.123-1.546"/>
	<path fill="none" stroke="#EE9CB0" stroke-width="3.4883" stroke-linecap="round" d="M296.741,142.5
		c2.299-2.125,3.836-4.933,5.153-7.73"/>
	<path fill="none" stroke="#EE9CB0" stroke-width="3.1768" stroke-linecap="round" d="M303.44,130.819
		c-0.405-0.094-0.972-0.134-1.546-0.172"/>
	<path fill="none" stroke="#EE9CB0" stroke-width="1.5171" stroke-linecap="round" d="M301.895,130.647
		c-1.092,1.375-0.714,2.749,0,4.123"/>
	<path fill="none" stroke="#EE9CB0" stroke-width="1.9085" stroke-linecap="round" d="M281.796,139.408
		c1.403,1.406,1.977,3.39,3.607,4.638"/>
	<path fill="none" stroke="#EE9CB0" stroke-width="4.2497" stroke-linecap="round" d="M285.403,144.046
		c1.343,0.666,3.461,0.068,4.18-0.229"/>
	<path fill="none" stroke="#EE9CB0" stroke-width="2.799" stroke-linecap="round" d="M289.583,143.817
		c0.155-2.491,0.42-4.174,0.458-5.955"/>
	<path fill="none" stroke="#EE9CB0" stroke-width="1.8683" stroke-linecap="round" d="M281.796,139.408
		c-0.9,1.073-1.479,2.763-0.876,4.108c1.243,1.207,3.028,2.284,4.484,0.529"/>
	<path fill="none" stroke="#EE9CB0" stroke-width="1.8581" stroke-linecap="round" d="M292.618,144.046
		c1.067,0.76,2.034,0.75,2.934,0.853c0.611-0.537,0.974-1.607,1.189-2.397"/>
	<path fill="none" stroke="#EE9CB0" stroke-width="1.8479" stroke-linecap="round" d="M401.7,51.799
		c5.136-4.415,15.936-10.325,20.528-2.062"/>
	<path fill="none" stroke="#EE9CB0" stroke-width="1.9573" stroke-linecap="round" d="M422.228,49.738
		c4.353,0.337,8.37-1.578,12.605-2.021c10.739,0.888,16.88,11.307,25.835,15.641c5.824-1.673,11.837-2.569,18.298-3.369
		c0.353-0.043,0.563-0.656,0.87-0.705c1.594-0.256,3.55,0.079,5.313-0.325c0.32-0.073,0.589-0.674,0.87-0.706
		c5.571-0.645,15.166-1.596,21.441-0.381c1.073,0.208,2.298,0.472,2.653,1.282c-1.976,4.556-6.629,7.638-10.591,10.391
		c-1.903,4.254-10.894,10.914-16.909,14.956c-0.806,0.541-1.717,0.908-3.063,2.029c-8.204,6.842-14.847,0.31-25.631-1.063"/>
	<path fill="none" stroke="#EE9CB0" stroke-width="3.7162" stroke-linecap="round" d="M313.232,84.781
		c0.499-0.492,1.085-1.131,1.546-1.546"/>
	<path fill="none" stroke="#EE9CB0" stroke-width="1.7473" stroke-linecap="round" d="M314.778,83.235
		c0.05-0.414,0.1-0.828,0.15-1.241c4.287-7.192,11.787-15.573,19.464-22.785c8.567-8.051,18.582-19.905,30.767-11.614
		c0.213,0.199,0.426,0.398,0.638,0.597"/>
	<path fill="none" stroke="#EE9CB0" stroke-width="1.7992" stroke-linecap="round" d="M365.797,48.191
		c1.646-0.513,3.311-0.88,5.003-1.184c10.303-6.041,20.952,2.261,30.9,4.792"/>
	<path fill="none" stroke="#EE9CB0" stroke-width="4.1655" stroke-linecap="round" d="M263.244,164.145c0.343,0,0.688,0,1.031,0"/>
	<path fill="none" stroke="#EE9CB0" stroke-width="2.2815" stroke-linecap="round" d="M264.274,164.145
		c1.816-1.476,4.609-1.238,6.699-0.515"/>
	<path fill="none" stroke="#EE9CB0" stroke-width="3.2229" stroke-linecap="round" d="M270.974,163.629
		c1.668,0.317,3.337,0.945,4.638,2.061"/>
	<path fill="none" stroke="#EE9CB0" stroke-width="3.1768" stroke-linecap="round" d="M275.612,165.69
		c2.32-0.014,3.964-0.021,5.154,0.172"/>
	<path fill="none" stroke="#EE9CB0" stroke-width="2.1729" stroke-linecap="round" d="M280.766,165.862
		c3.217-1.284,5.822-2.947,9.275-4.036"/>
	<path fill="none" stroke="#EE9CB0" stroke-width="1.7129" stroke-linecap="round" d="M290.042,161.826
		c0.518-1.903,1.713-4.017,3.575-4.805c1.651,0.334,2.328,2.21,2.565,3.66c0.015,0.295,0.028,0.591,0.044,0.887"/>
	<path fill="none" stroke="#EE9CB0" stroke-width="1.9511" stroke-linecap="round" d="M296.226,161.568
		c1.35,1.788,4.553,1.188,5.325,3.437"/>
	<path fill="none" stroke="#EE9CB0" stroke-width="1.9508" stroke-linecap="round" d="M263.244,164.145
		c-0.561,0.697-0.792,1.633-0.973,2.438c4.094,8.444,7.937,11.342,13.371,16.084c4.685,4.088,8.84,7.888,13.081,10.621
		c1.032,0.665,2.974,1.2,3.856,1.689c3.408,1.891,6.497,3.992,10.5,5.604c2.861,1.151,7.956,2.845,10.816,3.491
		c1.684,0.382,3.386,0.018,5.356,0.273c0.998,0.129,2.686,0.838,3.719,0.92c4.492,0.359,10.677,0.104,16.028,0.107
		c6.48,0.005,12.307,0.472,16.883-0.822c2.005-0.567,3.916,0.07,5.583-0.264c0.349-0.069,0.563-0.648,0.871-0.706
		c24.511-4.639,48.25-17.914,55.237-40.621c1.455-4.728,3.481-10.752,2.333-19.78c-0.11-0.87-0.786-1.867-0.914-2.697
		c-1.473-9.57-3.485-18.122-11.023-28.266c-3.243-4.364-8.32-11.804-13.54-16.371c-8.296-7.258-19.757-12.517-29.295-14.917
		c-5.172-1.302-10.489-2.282-18.923-2.488c-0.633-0.277-1.143-0.626-1.646-0.977"/>
	<path fill="none" stroke="#EE9CB0" stroke-width="2.3154" stroke-linecap="round" d="M344.565,77.463
		c-8.62,0.66-15.413,6.238-22.572,10.41"/>
	<path fill="none" stroke="#EE9CB0" stroke-width="2.0276" stroke-linecap="round" d="M344.565,77.463
		c2.773-3.361,6.438-4.472,8.33-5.52c5.974-3.309,13.904-5.765,19.958-7.423c0.896-0.246,1.851-1.192,2.691-1.268
		c5.664-0.505,10.422,1.328,15.957,5.047c3.244,2.18,8.575,8.193,12.903,9.146c3.299,0.728,8.72-0.437,13.958-1.428"/>
	<path fill="none" stroke="#EE9CB0" stroke-width="2.1811" stroke-linecap="round" d="M418.363,76.021
		c6.083-1.49,12.26-5.802,18.55-4.508c5.013,5.327,11.45,9.271,17.01,13.956"/>
	<path fill="none" stroke="#EE9CB0" stroke-width="2.727" stroke-linecap="round" d="M313.232,84.781
		c-0.063,0.405-0.285,0.973-0.517,1.547"/>
	<path fill="none" stroke="#EE9CB0" stroke-width="1.9565" stroke-linecap="round" d="M313.232,84.781
		c-8.875,0.795-27.059,13.373-34.235,22.829c-6.724,8.857-8.831,17.136-12.625,28.184c-0.992,2.886-5.069,9.291-7.282,13.238
		c-1.31,2.338-2.476,10.23,1.1,13.881c0.958,0.107,2.184,0.652,3.055,1.232"/>
	<path fill="none" stroke="#EE9CB0" stroke-width="1.7143" stroke-linecap="round" d="M314.778,83.235
		c6.403-1.218,10.251-7.514,15.86-10.4c9.315-11.032,23.372-16.788,35.158-24.644"/>
	<path fill="none" stroke="#EE9CB0" stroke-width="1.822" stroke-linecap="round" d="M401.7,51.799
		c1.867,2.01,4.736,3.211,7.324,4.025c3.848-3.037,9.635-2.766,13.204-6.087"/>
	<path fill="none" stroke="#EE9CB0" stroke-width="1.8429" stroke-linecap="round" d="M418.363,76.021
		c2.59,7.246,12.858,8.921,19.281,12.67c9.825,5.735,12.86,14.104,20.875,21.755c0.49-0.083,0.908-0.475,1.322-0.88
		c0.273-1.188,0.277-3.131,0.21-4.478c-1.644-6.548-4.698-12.969-6.129-19.62"/>
	<path fill="none" stroke="#EE9CB0" stroke-width="1.8723" stroke-linecap="round" d="M290.042,161.826
		c2.082,0.822,4.071-0.561,6.185-0.259"/>
	<path fill="none" stroke="#EE9CB0" stroke-width="1.9499" stroke-linecap="round" d="M264.274,164.145
		c0.907,1.487,1.873,2.919,2.828,4.383c3.068,1.45,3.36-3,3.871-4.897"/>
	<path fill="none" stroke="#EE9CB0" stroke-width="1.9454" stroke-linecap="round" d="M275.612,165.69
		c-0.447,2.523,2.602,6.471,4.859,3.696c0.196-0.805,0.228-1.954,0.279-2.73c0.005-0.265,0.01-0.528,0.015-0.793"/>
</g>
</svg>
