<?xml version="1.0" encoding="utf-8"?>
<!-- Generator: Adobe Illustrator 14.0.0, SVG Export Plug-In . SVG Version: 6.00 Build 43363)  -->
<!DOCTYPE svg PUBLIC "-//W3C//DTD SVG 1.1//EN" "http://www.w3.org/Graphics/SVG/1.1/DTD/svg11.dtd">
<svg version="1.1" id="图层_1" xmlns="http://www.w3.org/2000/svg" xmlns:xlink="http://www.w3.org/1999/xlink" x="0px" y="0px"
	 width="848px" height="480px" viewBox="0 0 848 480" enable-background="new 0 0 848 480" xml:space="preserve">
<g>
	<path fill="none" stroke="#A967AA" stroke-width="1.9556" stroke-linecap="round" d="M196.764,339.878
		c1.967-0.339,2.02-1.912,2.549-2.983c4.785-9.695,15.489-16.336,26.198-22.887c0.799-0.488,1.638-1.833,2.538-2.171
		c6.952-2.604,19.263-1.666,27.464,0.212"/>
	<path fill="none" stroke="#A967AA" stroke-width="2.0034" stroke-linecap="round" d="M255.513,312.049
		c3.22-7.51,7.442-13.854,15.095-16.735c2.35-0.884,4.684-0.736,7.371-1.353c0.336-0.077,0.573-0.661,0.871-0.71
		c5.935-0.966,12.057-1.11,17.071,3.124c5.736,0.441,11.324,0.381,16.07,0.784c0.319,0.025,0.61,0.703,0.878,0.706
		c11.149,0.063,17.564,1.158,21.525,12.985c0.113,0.34,0.594,0.509,0.725,0.832c0.327,0.805,0.032,2.218,0.274,3.309
		c0.282,1.273,1.462,3.136,1.848,4.667c1.722,6.827,3.748,18.302,6.203,27.227c0.072,0.263,0.361,0.465,0.449,0.724"/>
	<path fill="none" stroke="#A967AA" stroke-width="2.1002" stroke-linecap="round" d="M343.896,347.608
		c6.202,1.063,10.464,4.649,14.934,9.48c5.218,5.639,11.699,15.431,15.442,21.589c1.393,2.292,1.763,4.45,3.088,6.188
		c8.664,11.371,18.295,22.388,10.868,42.26c-1.168,3.126-2.783,6.524-4.42,9.496c-1.667,3.025-4.773,5.994-7.164,9.327
		c-4.617,6.438-11.931,16.478-23.729,23.279"/>
	<path fill="none" stroke="#A967AA" stroke-width="2.1456" stroke-linecap="round" d="M352.914,469.229c-0.344,0-0.688,0-1.031,0"/>
	<path fill="none" stroke="#A967AA" stroke-width="2.2882" stroke-linecap="round" d="M343.896,347.608
		c-0.333,2.519-0.608,5.285,0.257,7.729"/>
	<path fill="none" stroke="#A967AA" stroke-width="1.8683" stroke-linecap="round" d="M255.513,312.049
		c5.214,3.312,10.542,6.434,15.46,10.307"/>
	<path fill="none" stroke="#A967AA" stroke-width="1.9731" stroke-linecap="round" d="M270.974,322.355
		c3.088-4.96,5.664-10.398,9.935-14.639c1.947-1.572,4.103-0.259,5.998,0.606c12.638,1.401,23.635-3.396,31.413,5.853
		c3.783,4.498,9.413,18.345,12.931,27.884c0.127,0.345-0.083,0.813,0.021,1.168"/>
	<path fill="none" stroke="#A967AA" stroke-width="2.0614" stroke-linecap="round" d="M331.27,343.228
		c2.101,2.842,3.935,6.381,4.123,10.049"/>
	<path fill="none" stroke="#A967AA" stroke-width="2.2256" stroke-linecap="round" d="M331.27,343.228
		c-13.803-3.125-29.111-5.73-43.461-2.663"/>
	<path fill="none" stroke="#A967AA" stroke-width="1.7852" stroke-linecap="round" d="M287.809,340.564
		c2.05,4.863,6.167,7.74,9.308,12.158c0.132,0.186,2.173,4.087,4.063,5.212c0.078,0.471,0.627,1.251,1.23,2.042"/>
	<path fill="none" stroke="#A967AA" stroke-width="1.4576" stroke-linecap="round" d="M196.764,339.878
		c0.075,1.119-0.087,2.543-0.516,3.606"/>
	<path fill="none" stroke="#A967AA" stroke-width="1.9791" stroke-linecap="round" d="M196.764,339.878
		c-5.126-2.276-7.532-6.873-12.247-6.678c-3.502,0.146-7.568,2.792-12.892,4.882c-3.595,1.412-7.333,2.424-10.893,4.284
		c-1.328,0.694-2.804,2.381-4.397,2.387c-3.384,7.808-8.164,15.482-9.979,23.838c2.989,1.439,5.212-1.967,7.511-3.194
		c6.937-3.706,15.524-8.748,24.186-10.508c0.594,0.759,2.565,0.984,4.951,1.726c11.766,3.651,17.28,4.399,24.994,1.314
		c9.822-3.929,12.437-11.904,17.088-20.021c2.225-3.881,5.242-7.503,7.753-12.46"/>
	<path fill="none" stroke="#A967AA" stroke-width="2.2166" stroke-linecap="round" d="M232.838,325.448
		c-1.63-0.647-3.432-0.665-5.152-0.516"/>
	<path fill="none" stroke="#A967AA" stroke-width="2.2947" stroke-linecap="round" d="M232.838,325.448
		c3.806-0.667,8.941-1.515,12.369,1.03"/>
	<path fill="none" stroke="#A967AA" stroke-width="2.0531" stroke-linecap="round" d="M245.207,326.479
		c5.489,1.865,11.269,4.723,15.203,8.761"/>
	<path fill="none" stroke="#A967AA" stroke-width="1.7476" stroke-linecap="round" d="M260.409,335.239
		c4.491,1.421,9.243,4.465,12.282,8.074"/>
	<path fill="none" stroke="#A967AA" stroke-width="1.6651" stroke-linecap="round" d="M272.691,343.313
		c8.304,3.197,12.518,11.727,19.412,16.663"/>
	<path fill="none" stroke="#A967AA" stroke-width="2.1556" stroke-linecap="round" d="M272.691,343.313
		c-5.961,3.43-14.169,4.05-17.825,10.493c-11.508,7.212-23.095,23.938-26.39,30.04c-0.83,1.538-1.279,3.405-2.063,5.147
		c-2.086,4.638-4.208,9.879-5.157,13.387c-3.452,12.77-3.986,23.059,2.543,34.033c2,3.362,4.932,6.631,8.243,10.307
		c0.592,0.657,0.774,1.873,1.455,2.615c1.125,1.227,2.248,1.313,3.712,2.577c4.145,3.581,8.518,5.841,14.391,9.285
		c0.291,0.171,0.638,1.169,1.283,1.589c3.236,2.104,8.576,3.688,12.595,6.271"/>
	<path fill="none" stroke="#A967AA" stroke-width="2.1864" stroke-linecap="round" d="M265.477,469.058
		c0.837,0.155,2.067,0.147,2.92,0.172"/>
	<path fill="none" stroke="#A967AA" stroke-width="1.7774" stroke-linecap="round" d="M270.974,322.355
		c4.241,6.576,10.286,11.763,15.173,17.798c0.554,0.156,1.178,0.264,1.662,0.411"/>
	<path fill="none" stroke="#A967AA" stroke-width="2.0378" stroke-linecap="round" d="M245.207,326.479
		c-1.776,4.978-4.98,9.836-6.429,15.093c-0.753,2.736-2.224,6.279-0.599,9.105c0.626,0.008,1.152-0.009,1.676-0.026
		c6.148-5.9,13.497-10.186,20.311-14.905c0.134-0.093,0.121-0.396,0.244-0.506"/>
	<path fill="none" stroke="#A967AA" stroke-width="4.0742" stroke-linecap="round" d="M367,408.074
		c-1.04,2.703-4.482,3.903-7.152,3.202c-1.315-2.142-0.698-5.081-0.491-7.497"/>
	<path fill="none" stroke="#A967AA" stroke-width="3.2918" stroke-linecap="round" d="M359.355,403.78
		c-1.516-3.763-0.854-8.003,0.772-11.595"/>
	<path fill="none" stroke="#A967AA" stroke-width="3.6905" stroke-linecap="round" d="M360.129,392.186
		c0.116-2.971,1.32-5.845,2.328-8.604c1.652-1.895,4.507-1.688,6.533-0.575c1.379,2.998,1.58,6.233,1.732,9.494"/>
	<path fill="none" stroke="#A967AA" stroke-width="1.9864" stroke-linecap="round" d="M360.129,392.186
		c2.063,0.474,3.203,2.429,5.153,3.092"/>
	<path fill="none" stroke="#A967AA" stroke-width="2.5247" stroke-linecap="round" d="M363.736,403.78
		c0.54-0.834,1.295-1.452,2.061-2.061"/>
	<path fill="none" stroke="#A967AA" stroke-width="2.1864" stroke-linecap="round" d="M365.797,401.72
		c-0.846-2.033-0.379-4.306-0.515-6.442"/>
	<path fill="none" stroke="#A967AA" stroke-width="3.8737" stroke-linecap="round" d="M369.92,403.094
		c1.697-2.974,2.116-7.281,0.803-10.594"/>
	<path fill="none" stroke="#A967AA" stroke-width="2.6133" stroke-linecap="round" d="M370.722,392.5
		c-1.917,0.724-3.559,1.993-5.44,2.776"/>
	<path fill="none" stroke="#A967AA" stroke-width="3.8761" stroke-linecap="round" d="M367,408.074
		c2.182-0.64,3.007-2.904,2.92-4.98"/>
	<path fill="none" stroke="#A967AA" stroke-width="2.8092" stroke-linecap="round" d="M369.92,403.094
		c-1.375-0.524-2.749-0.837-4.123-1.374"/>
	<path fill="none" stroke="#A967AA" stroke-width="3.3557" stroke-linecap="round" d="M367,408.074
		c-1.26-1.234-2.315-2.746-3.264-4.295"/>
	<path fill="none" stroke="#A967AA" stroke-width="3.16" stroke-linecap="round" d="M363.736,403.78c-1.602,0-3.104,0-4.381,0"/>
	<path fill="none" stroke="#A967AA" stroke-width="2.727" stroke-linecap="round" d="M301.122,392.186
		c5.084,1.113,7.311,6.218,7.829,10.961"/>
	<path fill="none" stroke="#A967AA" stroke-width="4.9669" stroke-linecap="round" d="M308.951,403.146
		c0.965,1.745,1.303,3.8,1.189,5.788"/>
	<path fill="none" stroke="#A967AA" stroke-width="2.5247" stroke-linecap="round" d="M310.14,408.935
		c2.466,1.529,2.513,5.011,2.497,7.592c-2.58,1.26-5.78,2.782-8.682,1.685"/>
	<path fill="none" stroke="#A967AA" stroke-width="3.9919" stroke-linecap="round" d="M303.956,418.21
		c-1.117,0.504-2.47,0.474-3.865,0.516"/>
	<path fill="none" stroke="#A967AA" stroke-width="3.4363" stroke-linecap="round" d="M300.091,418.726
		c-5.319,1.703-11.801,1.021-16.232-2.576"/>
	<path fill="none" stroke="#A967AA" stroke-width="3.4613" stroke-linecap="round" d="M278.876,392.443
		c5.567-5.853,16.596-5.94,22.246-0.258"/>
	<path fill="none" stroke="#A967AA" stroke-width="2.1412" stroke-linecap="round" d="M278.876,392.443
		c-0.43,3.578-1.81,7.048-1.203,10.822"/>
	<path fill="none" stroke="#A967AA" stroke-width="2.0614" stroke-linecap="round" d="M277.673,403.266
		c1.27,1.381,0.535,3.146,0.173,4.294"/>
	<path fill="none" stroke="#A967AA" stroke-width="4.3729" stroke-linecap="round" d="M277.845,407.56
		c0.458,0.458,0.916,0.916,1.374,1.375"/>
	<path fill="none" stroke="#A967AA" stroke-width="1.3306" stroke-linecap="round" d="M275.44,404.468
		c0.82-0.451,1.563-0.761,2.232-1.202"/>
	<path fill="none" stroke="#A967AA" stroke-width="1.992" stroke-linecap="round" d="M278.876,392.443
		c-2.294,0.835-4.721-0.355-7.021-0.325c-0.498,0.767-0.326,2.181-0.313,3.214c1.937,2.713,2.604,6.313,3.898,9.137"/>
	<path fill="none" stroke="#A967AA" stroke-width="2.1305" stroke-linecap="round" d="M296.226,396.737
		c0.039,1.935-0.083,3.872,0.055,5.802c1.269,2.751,3.679,4.105,6.645,4.334"/>
	<path fill="none" stroke="#A967AA" stroke-width="2.241" stroke-linecap="round" d="M301.122,392.186
		c-0.722,2.349-3.244,2.928-4.896,4.552"/>
	<path fill="none" stroke="#A967AA" stroke-width="2.1022" stroke-linecap="round" d="M289.354,404.296
		c0.461,4.952,5.201,7.961,9.963,7.215"/>
	<path fill="none" stroke="#A967AA" stroke-width="2.3646" stroke-linecap="round" d="M296.226,396.737
		c-4.319-0.321-6.387,3.978-6.871,7.56"/>
	<path fill="none" stroke="#A967AA" stroke-width="3.0921" stroke-linecap="round" d="M275.44,404.468
		c-0.025,1.504,1.054,2.624,2.405,3.092"/>
	<path fill="none" stroke="#A967AA" stroke-width="4.6094" stroke-linecap="round" d="M279.219,408.935
		c0.101,0.731,0.608,2.253,1.03,3.092"/>
	<path fill="none" stroke="#A967AA" stroke-width="3.1488" stroke-linecap="round" d="M280.25,412.026c0.688,0,1.374,0,2.063,0"/>
	<path fill="none" stroke="#A967AA" stroke-width="1.9683" stroke-linecap="round" d="M282.312,412.026
		c0.834-1.536,1.341-2.189,2.221-2.523c1.106-0.11,2.007,0.812,2.325,1.479c-0.47,1.337-1.995,1.436-3,1.816"/>
	<path fill="none" stroke="#A967AA" stroke-width="2.1149" stroke-linecap="round" d="M289.354,404.296
		c-4.044-0.562-7.977,1.189-10.135,4.639"/>
	<path fill="none" stroke="#A967AA" stroke-width="2.0898" stroke-linecap="round" d="M302.925,406.872
		c-0.154,1.072-0.418,1.816-0.636,2.521c-0.799,0.358-1.809,1.058-2.971,2.116"/>
	<path fill="none" stroke="#A967AA" stroke-width="1.6735" stroke-linecap="round" d="M299.318,411.511
		c1.896,2.188-0.104,4.748,0.772,7.215"/>
	<path fill="none" stroke="#A967AA" stroke-width="2.3951" stroke-linecap="round" d="M308.951,403.146
		c-2.061,1.182-4.31,2.045-6.025,3.727"/>
	<path fill="none" stroke="#A967AA" stroke-width="2.3047" stroke-linecap="round" d="M282.312,412.026
		c0.515,0.258,1.031,0.516,1.546,0.772"/>
	<path fill="none" stroke="#A967AA" stroke-width="2.3047" stroke-linecap="round" d="M310.14,408.935
		c-1.718,3.366-4.259,6.043-6.185,9.275"/>
	<path fill="none" stroke="#A967AA" stroke-width="2.1456" stroke-linecap="round" d="M283.857,416.149c0-0.82,0-1.967,0-3.351"/>
	<path fill="none" stroke="#A967AA" stroke-width="2.4014" stroke-linecap="round" d="M280.25,412.026
		c-0.094,2.128,1.488,3.951,3.607,4.123"/>
	<path fill="none" stroke="#A967AA" stroke-width="2.0415" stroke-linecap="round" d="M285.919,434.872
		c2.821,0.119,5.5,1.238,7.73,2.922"/>
	<path fill="none" stroke="#A967AA" stroke-width="2.1207" stroke-linecap="round" d="M293.649,437.794
		c4.91,1.021,9.613,2.771,14.43,4.122"/>
	<path fill="none" stroke="#A967AA" stroke-width="2.1305" stroke-linecap="round" d="M308.079,441.915
		c2.259-1.165,4.325,0.969,6.7,0.773"/>
	<path fill="none" stroke="#A967AA" stroke-width="2.2732" stroke-linecap="round" d="M314.778,442.689
		c10.28,0.066,20.477-0.968,30.405-0.773"/>
	<path fill="none" stroke="#A967AA" stroke-width="2.18" stroke-linecap="round" d="M345.184,441.915
		c2.791-2.179,6.797-3.389,10.307-2.061"/>
	<path fill="none" stroke="#A967AA" stroke-width="2.7568" stroke-linecap="round" d="M355.491,439.855
		c0.193-0.339,0.387-0.677,0.58-1.016c1.969-0.726,4.256-1.317,6.377-0.789"/>
	<path fill="none" stroke="#A967AA" stroke-width="3.4953" stroke-linecap="round" d="M367.859,436.246
		c0.279-0.187,1.03-0.477,1.804-0.771"/>
	<path fill="none" stroke="#A967AA" stroke-width="2.5626" stroke-linecap="round" d="M369.663,435.475
		c1.217-2.12,3.301-4.044,5.927-3.865"/>
	<path fill="none" stroke="#A967AA" stroke-width="2.2624" stroke-linecap="round" d="M375.589,431.609
		c1.071-4.47,5.069-7.431,6.356-11.681"/>
	<path fill="none" stroke="#A967AA" stroke-width="2.2646" stroke-linecap="round" d="M293.477,454.8
		c0.92-2.431,3.695-4.075,6.258-4.113c1.336,0.742,1.627,1.656,2.396,2.211c0.34,1.812,0.411,3.689,0.793,5.51"/>
	<path fill="none" stroke="#A967AA" stroke-width="2.2224" stroke-linecap="round" d="M302.925,458.406
		c2.331,2.591,5.617,1.812,10.144,2.579c0.831,0.143,1.896,0.843,2.697,0.914c6.11,0.549,13.881,0.623,19.978,0.112
		c0.872-0.073,1.869-0.805,2.697-0.914c3.576-0.475,7.774-0.337,9.466-1.905c0.807-0.235,2.213-0.207,3.259-0.313
		c0.863-0.889,1.364-2.14,1.748-2.79"/>
	<path fill="none" stroke="#A967AA" stroke-width="4.1655" stroke-linecap="round" d="M352.914,456.089c0-0.485,0-0.89,0-1.289"/>
	<path fill="none" stroke="#A967AA" stroke-width="1.9983" stroke-linecap="round" d="M285.919,434.872
		c-3.28-3.245-8.005-5.797-12.673-5.785c-0.466,0.251-1.03,0.845-1.618,1.445c-0.345,2.396-0.271,5.07,0.095,7.47
		c7.682,5.288,11.983,14.977,21.755,16.798"/>
	<path fill="none" stroke="#A967AA" stroke-width="2.1392" stroke-linecap="round" d="M369.663,435.475
		c2.736,2.255,6.703-0.521,5.927-3.865"/>
	<path fill="none" stroke="#A967AA" stroke-width="1.9435" stroke-linecap="round" d="M285.919,434.872
		c-0.465,2.316,0.487,5.154,3.08,5.602c1.888-0.202,3.411-1.298,4.65-2.68"/>
	<path fill="none" stroke="#A967AA" stroke-width="2.1191" stroke-linecap="round" d="M345.184,441.915
		c2.726,4.229,5.616,8.353,7.729,12.885"/>
	<path fill="none" stroke="#A967AA" stroke-width="2.5096" stroke-linecap="round" d="M360.902,451.449
		c4.754-3,5.177-10.144,6.957-15.203"/>
	<path fill="none" stroke="#A967AA" stroke-width="2.3374" stroke-linecap="round" d="M367.859,436.246
		c-2.092-0.396-3.88,0.434-5.411,1.805"/>
	<path fill="none" stroke="#A967AA" stroke-width="2.1456" stroke-linecap="round" d="M355.491,439.855
		c0.447,1.908,2.164,3.313,4.055,3.511c1.625-1.195,3.078-3.21,2.902-5.314"/>
	<path fill="none" stroke="#A967AA" stroke-width="2.3764" stroke-linecap="round" d="M308.079,441.915
		c0.56,1.991,1.082,4.813,3.563,5.177c1.646-0.169,2.804-1.802,3.056-3.31c0.027-0.363,0.054-0.729,0.081-1.094"/>
	<path fill="none" stroke="#A967AA" stroke-width="2.2715" stroke-linecap="round" d="M352.914,456.089
		c1,0.444,1.688,0.581,2.361,0.701c2.262-1.185,4.813-2.688,5.626-5.341"/>
	<path fill="none" stroke="#A967AA" stroke-width="2.4365" stroke-linecap="round" d="M360.902,451.449
		c-0.594-0.394-1.472-1.073-2.235-1.648c-3.173-0.331-2.974,4.181-5.753,4.999"/>
	<path fill="none" stroke="#A967AA" stroke-width="2.0033" stroke-linecap="round" d="M293.477,454.8
		c2.043,2.557,6.146,4.592,9.447,3.606"/>
</g>
</svg>
