<?xml version="1.0" encoding="utf-8"?>
<!-- Generator: Adobe Illustrator 14.0.0, SVG Export Plug-In . SVG Version: 6.00 Build 43363)  -->
<!DOCTYPE svg PUBLIC "-//W3C//DTD SVG 1.1//EN" "http://www.w3.org/Graphics/SVG/1.1/DTD/svg11.dtd">
<svg version="1.1" id="图层_1" xmlns="http://www.w3.org/2000/svg" xmlns:xlink="http://www.w3.org/1999/xlink" x="0px" y="0px"
	 width="848px" height="480px" viewBox="0 0 848 480" enable-background="new 0 0 848 480" xml:space="preserve">
<g>
	<path fill-rule="evenodd" clip-rule="evenodd" fill="none" stroke="#3A4A9F" stroke-width="2.0461" stroke-linecap="round" d="
		M494.634,205.888c10.013-3.898,20.081-10.918,31.224-9.397c0.25,0.608,0.156,1.325,0.164,2.022
		c-0.186,0.308-0.439,0.567-0.697,0.823c-5.203,9.492-14.077,22.252-23.923,30.501c-2.471,2.07-5.972,4.227-8.45,6.144
		c-0.853,0.66-2.135,1.658-3.117,2.09c-8.049,3.542-15.115-3.153-24.265-9.879c-2.42-7.543,0.754-15.322,0.463-22.82"/>
	<path fill-rule="evenodd" clip-rule="evenodd" fill="none" stroke="#3A4A9F" stroke-width="1.9853" stroke-linecap="round" d="
		M466.032,205.372c-0.354,0.003-0.707,0.006-1.061,0.009c-11.607,4.84-14.759,16.546-18.299,25.076
		c-2.574,6.203-7.225,17.382-8.212,25.935"/>
	<path fill-rule="evenodd" clip-rule="evenodd" fill="none" stroke="#3A4A9F" stroke-width="2.0983" stroke-linecap="round" d="
		M506.487,258.969c0.373,0.512,0.745,1.062,1.116,1.612c16.458,7.284,24.864,16.819,31.573,26.37
		c4.176,5.943,7.039,12.653,10.577,19.851c0.147,0.3,0.642,0.464,0.777,0.773c4.885,11.199,6.726,21.847,3.639,31.934
		c-4.271,13.955-13.824,26.174-30.318,32.564c-3.085,1.195-6.535,2.243-10.296,3.094c-5.692,1.287-14.002,1.275-20.777,2.385
		c-0.341,0.057-0.57,0.666-0.867,0.707c-19.904,2.726-41.259,2.563-59.599-3.738c-2.292-0.787-7.331-1.719-10.819-3.128
		c-4.424-1.787-10.444-5.023-14.11-7.022c-0.774-0.422-2.496-0.739-3.357-1.279c-5.932-3.726-11.83-9.34-14.76-14.616
		c-1.942-3.497-2.258-7.24-3.414-10.498c-0.107-0.304-0.641-0.528-0.716-0.826c-0.874-3.443-1.917-10.136-0.222-15.627
		c1.406-4.555,5.377-8.57,8.951-15.309c1.372-2.586,1.983-5.716,3.346-8.502c3.721-7.605,8.022-17.93,20.367-28.642
		c3.041-2.639,6.215-6.296,11.607-7.269"/>
	<path fill-rule="evenodd" clip-rule="evenodd" fill="none" stroke="#3A4A9F" stroke-width="2.0624" stroke-linecap="round" d="
		M429.186,261.803c0.628-9.166-0.834-23.248,0.055-36.123c0.023-0.343,0.682-0.58,0.706-0.871c0.227-2.682-0.055-5.591,0.324-8.405
		c0.048-0.35,0.661-0.567,0.706-0.871c0.265-1.772-0.061-3.635,0.325-5.313c0.077-0.339,0.652-0.569,0.706-0.871
		c1.501-8.438,1.447-9.607,10.995-16.318c0.59-0.415,1.137-1.38,1.789-1.79c2.665-1.674,7.283-3.463,11.699-5.415
		c4.587-2.027,8.632-3.467,13.2-4.212c0.318-0.052,0.597-0.692,0.868-0.708c3.778-0.218,8.679,0.778,12.587,2.461
		c3.979,1.713,8.47,3.675,10.755,8.494c0.75,4.641-0.41,9.484,0.732,14.027"/>
	<path fill-rule="evenodd" clip-rule="evenodd" fill="none" stroke="#3A4A9F" stroke-width="2.2266" stroke-linecap="round" d="
		M429.186,261.803c0.218,0.133,0.436,0.267,0.653,0.399c0.257,0.573,0.292,1.56,0.377,2.435"/>
	<path fill-rule="evenodd" clip-rule="evenodd" fill="none" stroke="#3A4A9F" stroke-width="2.12" stroke-linecap="round" d="
		M506.487,258.969c-6.947,1.819-12.848,5.942-19.068,9.275"/>
	<path fill-rule="evenodd" clip-rule="evenodd" fill="none" stroke="#3A4A9F" stroke-width="1.9986" stroke-linecap="round" d="
		M506.487,258.969c1.736-2.505,4.114-3.277,8.131-4.906c9.647-3.913,21.876-7.493,31.551-5.916"/>
	<path fill-rule="evenodd" clip-rule="evenodd" fill="none" stroke="#3A4A9F" stroke-width="1.7552" stroke-linecap="round" d="
		M546.169,248.146c3.562-0.922,7.828,0.216,10.307,3.092"/>
	<path fill-rule="evenodd" clip-rule="evenodd" fill="none" stroke="#3A4A9F" stroke-width="2.0971" stroke-linecap="round" d="
		M546.169,248.146c-1.065,5.781,3.518,9.818,6.973,13.626c4.337,7.149,6.925,10.566,12.052,11.511
		c6.64,1.223,15.426-4.613,23.645-7.916c5.036-2.023,8.9-3.239,14.836-4.396c0.423-0.083,0.78-1.01,1.365-1.196
		c4.115-1.312,8.099-0.146,12.089,1.188c1.92-0.769,3.477-2.007,3.698-3.405c-9.99-20.413-35.831-16.787-54.043-13.534"/>
	<path fill-rule="evenodd" clip-rule="evenodd" fill="none" stroke="#3A4A9F" stroke-width="2.3047" stroke-linecap="round" d="
		M566.783,244.023c0.172,0.344,0.343,0.687,0.515,1.03"/>
	<path fill-rule="evenodd" clip-rule="evenodd" fill="none" stroke="#3A4A9F" stroke-width="1.9963" stroke-linecap="round" d="
		M566.783,244.023c-4.925-7.009-5.462-16.245-10.959-22.877c-0.413-0.204-1.138-0.674-1.82-1.127
		c-8.25-1.405-16.021-2.061-23.256,0.735c-3.198,1.236-6.779,3.848-10.3,6.166c-5.716,3.763-13.469,9.987-17.207,13.204
		c-5.854,5.038-9.951,10.086-15.822,14.207"/>
	<path fill-rule="evenodd" clip-rule="evenodd" fill="none" stroke="#3A4A9F" stroke-width="1.7852" stroke-linecap="round" d="
		M487.419,254.33c-2.746,4.642-6.228,8.828-9.791,12.884"/>
	<path fill-rule="evenodd" clip-rule="evenodd" fill="none" stroke="#3A4A9F" stroke-width="2.1744" stroke-linecap="round" d="
		M487.419,254.33c-1.444-1.018-3.655,0.267-4.784-1.275c-9.976-0.45-20.348-0.671-30.05-0.216c-0.355,0.017-0.566,0.659-0.871,0.706
		c-4.67,0.722-8.684,2.151-13.253,2.847"/>
	<path fill-rule="evenodd" clip-rule="evenodd" fill="none" stroke="#3A4A9F" stroke-width="2.0979" stroke-linecap="round" d="
		M438.461,256.392c-0.203,0.22-0.478,0.45-0.756,0.681c-0.504,2.147-0.038,4.423-0.79,6.534"/>
	<path fill-rule="evenodd" clip-rule="evenodd" fill="none" stroke="#3A4A9F" stroke-width="2.0112" stroke-linecap="round" d="
		M466.032,205.372c3.672-3.079,8.74-4.717,13.142-6.699"/>
	<path fill-rule="evenodd" clip-rule="evenodd" fill="none" stroke="#3A4A9F" stroke-width="1.9959" stroke-linecap="round" d="
		M479.174,198.673c0.301-0.847,0.863-1.659,1.546-2.577"/>
	<path fill-rule="evenodd" clip-rule="evenodd" fill="none" stroke="#3A4A9F" stroke-width="1.6297" stroke-linecap="round" d="
		M479.174,198.673c0.688,0.563,1.374,0.805,2.062,1.031"/>
	<path fill-rule="evenodd" clip-rule="evenodd" fill="none" stroke="#3A4A9F" stroke-width="2.266" stroke-linecap="round" d="
		M494.634,205.888c-0.825,1.949-0.392,4.13-0.515,6.184"/>
	<path fill-rule="evenodd" clip-rule="evenodd" fill="none" stroke="#3A4A9F" stroke-width="2.5046" stroke-linecap="round" d="
		M423.001,296.073c1.528,3.439,1.936,8.712-0.515,11.853"/>
	<path fill-rule="evenodd" clip-rule="evenodd" fill="none" stroke="#3A4A9F" stroke-width="3.1022" stroke-linecap="round" d="
		M405.995,306.896c-1.876-1.802-2.276-5.568-0.499-7.522c0.421-0.119,0.93-0.136,1.443-0.146c0.216,0.026,0.432,0.053,0.648,0.079"
		/>
	<path fill-rule="evenodd" clip-rule="evenodd" fill="none" stroke="#3A4A9F" stroke-width="4.4332" stroke-linecap="round" d="
		M407.587,299.306c1.423-1.271,1.86-3.526,3.904-4.091"/>
	<path fill-rule="evenodd" clip-rule="evenodd" fill="none" stroke="#3A4A9F" stroke-width="3.1915" stroke-linecap="round" d="
		M411.492,295.215c0.677-2.782,2.324-5.064,4.424-7.073c5.268-1.955,6.882,3.931,7.085,7.932"/>
	<path fill-rule="evenodd" clip-rule="evenodd" fill="none" stroke="#3A4A9F" stroke-width="1.8683" stroke-linecap="round" d="
		M411.492,295.215c0.972,1.948,1.736,3.981,2.491,6.012"/>
	<path fill-rule="evenodd" clip-rule="evenodd" fill="none" stroke="#3A4A9F" stroke-width="2.4172" stroke-linecap="round" d="
		M413.982,301.227c1.998,0.043,3.666,0.068,5.411-0.516"/>
	<path fill-rule="evenodd" clip-rule="evenodd" fill="none" stroke="#3A4A9F" stroke-width="4.0638" stroke-linecap="round" d="
		M405.995,306.896c-1.5,6.606,2.672,17.291,10.822,13.914"/>
	<path fill-rule="evenodd" clip-rule="evenodd" fill="none" stroke="#3A4A9F" stroke-width="4.2746" stroke-linecap="round" d="
		M416.817,320.81c-0.015-0.669,0.118-1.668,0.258-2.576"/>
	<path fill-rule="evenodd" clip-rule="evenodd" fill="none" stroke="#3A4A9F" stroke-width="4.1867" stroke-linecap="round" d="
		M417.075,318.233c-0.181-1.061-0.197-1.826-0.258-2.577"/>
	<path fill-rule="evenodd" clip-rule="evenodd" fill="none" stroke="#3A4A9F" stroke-width="1.9736" stroke-linecap="round" d="
		M416.817,315.656c-0.992-0.976-2.216-1.438-3.092-2.062"/>
	<path fill-rule="evenodd" clip-rule="evenodd" fill="none" stroke="#3A4A9F" stroke-width="4.9609" stroke-linecap="round" d="
		M422.044,310.724c0.314-0.805,0.385-1.652,0.442-2.798"/>
	<path fill-rule="evenodd" clip-rule="evenodd" fill="none" stroke="#3A4A9F" stroke-width="1.9736" stroke-linecap="round" d="
		M413.982,301.227c-0.15,0.516-0.432,1.031-0.773,1.546"/>
	<path fill-rule="evenodd" clip-rule="evenodd" fill="none" stroke="#3A4A9F" stroke-width="2.2106" stroke-linecap="round" d="
		M419.394,300.711c1.81,2.171,0.972,5.254,3.092,7.215"/>
	<path fill-rule="evenodd" clip-rule="evenodd" fill="none" stroke="#3A4A9F" stroke-width="1.9624" stroke-linecap="round" d="
		M423.001,296.073c-1.719,1.477-2.324,2.97-3.607,4.638"/>
	<path fill-rule="evenodd" clip-rule="evenodd" fill="none" stroke="#3A4A9F" stroke-width="2.447" stroke-linecap="round" d="
		M405.995,306.896c1.775-2.056,3.301-5.011,1.593-7.59"/>
	<path fill-rule="evenodd" clip-rule="evenodd" fill="none" stroke="#3A4A9F" stroke-width="3.3662" stroke-linecap="round" d="
		M421.97,316.945c0.569-2.009,0.771-4.201,0.074-6.222"/>
	<path fill-rule="evenodd" clip-rule="evenodd" fill="none" stroke="#3A4A9F" stroke-width="1.9736" stroke-linecap="round" d="
		M422.044,310.724c-2.758,0.444-3.069,3.548-5.227,4.933"/>
	<path fill-rule="evenodd" clip-rule="evenodd" fill="none" stroke="#3A4A9F" stroke-width="2.4998" stroke-linecap="round" d="
		M416.817,320.81c1.499,0.753,3.057,2.566,4.872,1.819c0.292-1.849,1.169-3.849,0.282-5.684"/>
	<path fill-rule="evenodd" clip-rule="evenodd" fill="none" stroke="#3A4A9F" stroke-width="2.4715" stroke-linecap="round" d="
		M421.97,316.945c-1.798,0.704-3.237,1.056-4.896,1.288"/>
	<path fill-rule="evenodd" clip-rule="evenodd" fill="none" stroke="#3A4A9F" stroke-width="1.911" stroke-linecap="round" d="
		M469.897,332.147c-1.356,0.01-3.618,0.124-4.417-0.436c0.033-1.937,1.797-3.256,2.871-4.718"/>
	<path fill-rule="evenodd" clip-rule="evenodd" fill="none" stroke="#3A4A9F" stroke-width="4.1228" stroke-linecap="round" d="
		M468.352,326.994c-0.269-1.042,0.706-3.265,1.159-4.123"/>
	<path fill-rule="evenodd" clip-rule="evenodd" fill="none" stroke="#3A4A9F" stroke-width="3.8565" stroke-linecap="round" d="
		M469.511,322.871c-0.314-2.937,0.885-6.209,2.86-8.349"/>
	<path fill-rule="evenodd" clip-rule="evenodd" fill="none" stroke="#3A4A9F" stroke-width="2.5402" stroke-linecap="round" d="
		M472.371,314.522c0.72-5.807,5.623-11.283,11.612-11.75"/>
	<path fill-rule="evenodd" clip-rule="evenodd" fill="none" stroke="#3A4A9F" stroke-width="2.7724" stroke-linecap="round" d="
		M483.983,302.772c1.587,3.224,2.833,6.612,2.405,10.308"/>
	<path fill-rule="evenodd" clip-rule="evenodd" fill="none" stroke="#3A4A9F" stroke-width="2.6479" stroke-linecap="round" d="
		M498.413,325.104c0.55-0.091,1.537-0.366,2.405-0.688"/>
	<path fill-rule="evenodd" clip-rule="evenodd" fill="none" stroke="#3A4A9F" stroke-width="3.2382" stroke-linecap="round" d="
		M503.321,308.662c-4.598-5.037-12.823-10.969-19.338-5.89"/>
	<path fill-rule="evenodd" clip-rule="evenodd" fill="none" stroke="#3A4A9F" stroke-width="1.9283" stroke-linecap="round" d="
		M472.371,314.522c1.104,1.803,3.071,2.672,3.711,4.741"/>
	<path fill-rule="evenodd" clip-rule="evenodd" fill="none" stroke="#3A4A9F" stroke-width="1.8723" stroke-linecap="round" d="
		M476.082,319.264c4.215-0.739,7.502-2.984,10.307-6.184"/>
	<path fill-rule="evenodd" clip-rule="evenodd" fill="none" stroke="#3A4A9F" stroke-width="2.3783" stroke-linecap="round" d="
		M502.88,325.448c3.334-4.09,6.114-9.581,6.856-14.783c-1.98-1.033-4.431-0.858-6.415-2.003"/>
	<path fill-rule="evenodd" clip-rule="evenodd" fill="none" stroke="#3A4A9F" stroke-width="2.1296" stroke-linecap="round" d="
		M503.321,308.662c0.614,5.476-0.509,10.735-2.503,15.755"/>
	<path fill-rule="evenodd" clip-rule="evenodd" fill="none" stroke="#3A4A9F" stroke-width="2.2193" stroke-linecap="round" d="
		M475.309,322.871c2.815,7.299,13.818,5.892,17.265,0.516"/>
	<path fill-rule="evenodd" clip-rule="evenodd" fill="none" stroke="#3A4A9F" stroke-width="2.2803" stroke-linecap="round" d="
		M492.573,323.387c-0.526-4.076-1.745-8.855-6.185-10.307"/>
	<path fill-rule="evenodd" clip-rule="evenodd" fill="none" stroke="#3A4A9F" stroke-width="2.169" stroke-linecap="round" d="
		M469.511,322.871c1.577,0,3.762,0,5.798,0"/>
	<path fill-rule="evenodd" clip-rule="evenodd" fill="none" stroke="#3A4A9F" stroke-width="2.3428" stroke-linecap="round" d="
		M475.309,322.871c0.15-0.91,0.31-2.304,0.773-3.607"/>
	<path fill-rule="evenodd" clip-rule="evenodd" fill="none" stroke="#3A4A9F" stroke-width="4.0134" stroke-linecap="round" d="
		M469.897,332.147c6.779,3.148,15.139,2.58,22.207,0.891"/>
	<path fill-rule="evenodd" clip-rule="evenodd" fill="none" stroke="#3A4A9F" stroke-width="2.0614" stroke-linecap="round" d="
		M492.104,333.038c1.219-3.432,5.943-4.063,6.309-7.934"/>
	<path fill-rule="evenodd" clip-rule="evenodd" fill="none" stroke="#3A4A9F" stroke-width="1.9085" stroke-linecap="round" d="
		M498.413,325.104c-1.688-1.2-3.593-2.996-5.84-1.718"/>
	<path fill-rule="evenodd" clip-rule="evenodd" fill="none" stroke="#3A4A9F" stroke-width="2.0614" stroke-linecap="round" d="
		M492.104,333.038c4.804,0.688,8.688-3.75,10.775-7.59"/>
	<path fill-rule="evenodd" clip-rule="evenodd" fill="none" stroke="#3A4A9F" stroke-width="2.3047" stroke-linecap="round" d="
		M502.88,325.448c-0.688-0.344-1.374-0.688-2.062-1.031"/>
	<path fill-rule="evenodd" clip-rule="evenodd" fill="none" stroke="#3A4A9F" stroke-width="2.4638" stroke-linecap="round" d="
		M469.897,332.147c-0.635-1.698-0.182-3.745-1.546-5.153"/>
	<path fill-rule="evenodd" clip-rule="evenodd" fill="none" stroke="#3A4A9F" stroke-width="2.3047" stroke-linecap="round" d="
		M414.755,350.442c0.552,0.399,1.05,1.095,1.546,1.804"/>
	<path fill-rule="evenodd" clip-rule="evenodd" fill="none" stroke="#3A4A9F" stroke-width="2.0811" stroke-linecap="round" d="
		M416.302,352.246c1.701-0.769,3.53-1.081,4.994-0.875c0.437,0.38,0.754,1.145,1.19,1.905"/>
	<path fill-rule="evenodd" clip-rule="evenodd" fill="none" stroke="#3A4A9F" stroke-width="2.0644" stroke-linecap="round" d="
		M422.486,353.276c3.245-0.353,6.706-1.428,11.014-2.383c4.145-0.918,8.476-1.614,12.486-2.309c0.33-0.058,0.58-0.677,0.867-0.707
		c5.206-0.554,10.583-1.039,14.679,0.731c1.601,0.691,2.485,2.266,3.212,3.637"/>
	<path fill-rule="evenodd" clip-rule="evenodd" fill="none" stroke="#3A4A9F" stroke-width="2.2509" stroke-linecap="round" d="
		M464.744,352.246c2.886,0.456,4.078,3.77,7.215,4.123"/>
	<path fill-rule="evenodd" clip-rule="evenodd" fill="none" stroke="#3A4A9F" stroke-width="3.005" stroke-linecap="round" d="
		M471.959,356.369c1.32-0.305,2.111-0.681,3.092-1.031"/>
	<path fill-rule="evenodd" clip-rule="evenodd" fill="none" stroke="#3A4A9F" stroke-width="2.3971" stroke-linecap="round" d="
		M475.051,355.338c-0.257-2.323,0.938-4.912,3.222-5.728c0.775-0.025,1.411,0.463,2.04,0.976c0.393,1.273,0.301,3.08,0.923,4.752"/>
	<path fill-rule="evenodd" clip-rule="evenodd" fill="none" stroke="#3A4A9F" stroke-width="2.5247" stroke-linecap="round" d="
		M481.235,355.338c1.456,0.424,2.661,0.488,3.607,0.773"/>
	<path fill-rule="evenodd" clip-rule="evenodd" fill="none" stroke="#3A4A9F" stroke-width="2.8693" stroke-linecap="round" d="
		M399.295,350.185c0.256,1.966,1.189,1.979,2.577,2.062"/>
	<path fill-rule="evenodd" clip-rule="evenodd" fill="none" stroke="#3A4A9F" stroke-width="2.0429" stroke-linecap="round" d="
		M401.872,352.246c1.65-2.389,3.673-6.163,7.215-4.123"/>
	<path fill-rule="evenodd" clip-rule="evenodd" fill="none" stroke="#3A4A9F" stroke-width="3.1768" stroke-linecap="round" d="
		M409.087,348.123c0.343,0,0.687,0,1.03,0"/>
	<path fill-rule="evenodd" clip-rule="evenodd" fill="none" stroke="#3A4A9F" stroke-width="2.2611" stroke-linecap="round" d="
		M410.117,348.123c1.074-1.208,2.699-2.616,4.004-2.641c0.683,1.213,0.569,2.994,0.634,4.96"/>
	<path fill-rule="evenodd" clip-rule="evenodd" fill="none" stroke="#3A4A9F" stroke-width="1.7422" stroke-linecap="round" d="
		M410.117,348.123c1.167,1.215,2.827,2.808,4.638,2.319"/>
	<path fill-rule="evenodd" clip-rule="evenodd" fill="none" stroke="#3A4A9F" stroke-width="1.9864" stroke-linecap="round" d="
		M401.872,352.246c0.955,1.381,2.066,4.462,4.276,3.399c1.617-2.239,1.935-4.973,2.939-7.522"/>
	<path fill-rule="evenodd" clip-rule="evenodd" fill="none" stroke="#3A4A9F" stroke-width="2.1999" stroke-linecap="round" d="
		M475.051,355.338c1.944,0.692,4.247,0.778,6.185,0"/>
	<path fill-rule="evenodd" clip-rule="evenodd" fill="none" stroke="#3A4A9F" stroke-width="2.2335" stroke-linecap="round" d="
		M416.302,352.246c-0.367,1.063-0.406,2.021-0.518,2.923c0.713,1.845,3.125,2.898,4.062,2.586c0.781-1.556,2.056-2.795,2.64-4.479"
		/>
	<path fill-rule="evenodd" clip-rule="evenodd" fill="none" stroke="#3A4A9F" stroke-width="2.0004" stroke-linecap="round" d="
		M464.744,352.246c-1.277,2.845,0.034,5.922,0.906,8.562c0.813,0.28,1.883,0.209,2.651,0.034c1.085-1.624,3.219-2.313,3.657-4.473"
		/>
	<path fill-rule="evenodd" clip-rule="evenodd" fill="none" stroke="#3A4A9F" stroke-width="2.1551" stroke-linecap="round" d="
		M484.843,356.111c1.101,2.765-2.768,5.429-0.059,7.728c2.165-0.181,4.427-1.501,6.58-2.271c0.208-0.779-0.31-2.693-0.56-3.349
		C489.049,356.947,487.251,355.048,484.843,356.111"/>
	<path fill-rule="evenodd" clip-rule="evenodd" fill="none" stroke="#3A4A9F" stroke-width="1.6422" stroke-linecap="round" d="
		M500.818,364.099c-1.272,1.648-3.604,1.435-5.153,2.577"/>
</g>
</svg>
