<?xml version="1.0" encoding="utf-8"?>
<!-- Generator: Adobe Illustrator 14.0.0, SVG Export Plug-In . SVG Version: 6.00 Build 43363)  -->
<!DOCTYPE svg PUBLIC "-//W3C//DTD SVG 1.1//EN" "http://www.w3.org/Graphics/SVG/1.1/DTD/svg11.dtd">
<svg version="1.1" id="图层_1" xmlns="http://www.w3.org/2000/svg" xmlns:xlink="http://www.w3.org/1999/xlink" x="0px" y="0px"
	 width="848px" height="480px" viewBox="0 0 848 480" enable-background="new 0 0 848 480" xml:space="preserve">
<g>
	<path fill-rule="evenodd" clip-rule="evenodd" fill="none" stroke="#000000" stroke-width="1.7857" stroke-linecap="round" d="
		M775.17,300.939c4.628,4.606,8.027,6.585,13.654,14.862c2.115,3.111,4.921,7.813,5.902,10.107c1.887,4.41,2.376,8.809,3.43,13.244
		c0.445,1.877-0.015,4.364,0.174,6.29c0.044,0.439,0.584,0.814,0.668,1.288c0.947,5.366,0.586,11.267,0.125,15.508
		c-0.031,0.294-0.528,0.457-0.576,0.712c-1.108,5.844-2.91,9.468-5.878,13.479c-6.198,8.381-13.789,13.208-24.783,16.494
		c-1.73,0.518-7.889,2.061-12.084,2.631c-10.249,1.392-21.76,0.899-31.702-2.189c-3.92-1.217-8.288-3.659-12.627-5.052
		c-5.669-1.82-10.214-4.344-16.009-7.576c-4.795-2.675-12.957-8.396-17.68-11.774c-5.714-4.088-12.017-10.818-13.967-18.044
		c-0.823-3.053-0.848-7.129-0.177-10.232c0.06-0.275,0.538-0.468,0.577-0.711c0.415-2.599,0.356-4.855,1.097-6.867
		c1.124-3.054,5.808-9.866,8.162-14.197c0.144-0.264,0.071-0.716,0.247-1.017c5.696-9.793,12.169-16.87,19.471-22.19
		c4.913-3.579,10.676-6.213,16.004-8.437c1.344-0.416,2.982,0.09,4.079-1.064"/>
	<path fill-rule="evenodd" clip-rule="evenodd" fill="none" stroke="#000000" stroke-width="1.6802" stroke-linecap="round" d="
		M713.277,286.203c-0.277-1.531-1.42-2.632-2.41-3.741c-0.229-0.918-0.083-1.682-0.087-2.402c1.088-1.819,1.876-4.07,4.146-4.835
		c0.426-0.782,0.731-1.476,0.797-2.023c-1.851-5.146-6.649-9.285-6.622-15.077c0.154-0.252,0.363-0.463,0.575-0.672
		c3.894-4.291,10.124-5.919,14.304-10.108c2.03-5.156-4.794-13.111-6.271-17.688c-1.325-4.107-1.94-7.756-0.442-12.628
		c1.979-6.435,11.465-16.818,21.053-25.303c2.362-2.091,4.706-5.044,7.468-6.814c0.894-0.572,2.53-1,3.245-1.368
		c2.034-1.045,3.703-2.239,5.883-2.523c0.582,0.382,0.454,1.65,0.421,2.711c-2.164,3.737-4.104,8.045-5.63,12.491
		c-2.171,6.326-7.296,17.521-10.104,24.423c-0.247,0.801-0.163,2.407-0.259,3.493c-0.201,0.31-0.706,0.661-1.226,1.014"/>
	<path fill-rule="evenodd" clip-rule="evenodd" fill="none" stroke="#000000" stroke-width="1.7743" stroke-linecap="round" d="
		M713.277,286.203c3.399,2.481,5.571,6.486,7.579,10.104"/>
	<path fill-rule="evenodd" clip-rule="evenodd" fill="none" stroke="#000000" stroke-width="1.6105" stroke-linecap="round" d="
		M775.17,300.939c-5.718,0.654-10.813,4.143-15.579,7.158"/>
	<path fill-rule="evenodd" clip-rule="evenodd" fill="none" stroke="#000000" stroke-width="1.7496" stroke-linecap="round" d="
		M775.17,300.939c1.214-1.017,2.313-2.097,3.896-2.36c0.585-0.734,0.859-1.126,1.348-1.564c1.013-4.897-1.634-9.407-1.401-14.43
		c3.03-4.859,9.054-6.263,13.18-9.973c0.526-2.524,0.122-5.193,0.165-7.751c8.392-4.196,17.411-7.311,25.666-12.079
		c0.38-1.063,0.668-1.582,1.131-2.065c0.187-5.213,0.539-10.933,0.18-16.129c-0.02-0.287-0.547-0.467-0.577-0.712
		c-0.646-5.307-1.69-10.232-3.367-15.157c-3.364-9.881-8.269-19.694-16.063-26.855c-0.085-0.257-0.209-0.44-0.335-0.619
		c-0.687-0.201-1.649-0.163-2.114,0c0.014,2.947,0.313,5.797,0.612,8.521c0.047,0.427,0.615,0.827,0.668,1.289
		c0.647,5.715,0.517,11.514,0.125,17.192c-0.02,0.278-0.561,0.477-0.577,0.711c-0.488,6.88-1.053,13.531-1.949,20.34
		c-2.009,3.711-7.835,5.969-14.402,9.623c-6.45,3.589-12.882,6.284-13.962,11.3c-0.544,2.527-0.46,6.562,3.783,9.318
		c2.743,3.204,0.182,7.354-2.433,9.684c-2.127,0.232-4.58,0.7-5.808,2.616c-0.26,0.082-0.442,0.209-0.622,0.339
		c-0.23,4.314,6.295,7.14,4.618,11.696c-0.561,0.517-0.912,0.637-1.304,0.891"/>
	<path fill-rule="evenodd" clip-rule="evenodd" fill="none" stroke="#000000" stroke-width="1.6958" stroke-linecap="round" d="
		M765.626,294.764c-1.532,3.102-5.083,4.469-7.017,7.298"/>
	<path fill-rule="evenodd" clip-rule="evenodd" fill="none" stroke="#000000" stroke-width="1.6062" stroke-linecap="round" d="
		M765.626,294.764c-4.658-2.639-11.455-4.465-17.788-5.941c-7.84-1.827-15.977-2.753-23.052-2.619"/>
	<path fill-rule="evenodd" clip-rule="evenodd" fill="none" stroke="#000000" stroke-width="2.2925" stroke-linecap="round" d="
		M724.786,286.203c-0.281,2.671,0.675,5.316,0.701,7.999"/>
	<path fill-rule="evenodd" clip-rule="evenodd" fill="none" stroke="#000000" stroke-width="1.7175" stroke-linecap="round" d="
		M724.786,286.203c-0.252-1.431-0.255-3.016,0.504-4.306c0.874-0.693,1.396-1.344,2.06-1.815c4.895-3.485,4.322-5.095,1.748-10.51
		c-0.74-1.558-3.662-2.862-2.216-5.222c7.184-3.581,13.698-8.788,18.172-15.323c0.954-8.682-3.997-15.903-6.935-23.874"/>
	<path fill-rule="evenodd" clip-rule="evenodd" fill="none" stroke="#000000" stroke-width="2.3316" stroke-linecap="round" d="
		M738.119,225.154c-0.281-0.141-0.562-0.281-0.843-0.421"/>
	<path fill-rule="evenodd" clip-rule="evenodd" fill="none" stroke="#000000" stroke-width="2.2279" stroke-linecap="round" d="
		M706.962,304.939c1.316,0.058,2.89-0.211,4.078-0.212c2.772,1.016,3.869,4.172,3.22,6.878"/>
	<path fill-rule="evenodd" clip-rule="evenodd" fill="none" stroke="#000000" stroke-width="3.4538" stroke-linecap="round" d="
		M714.26,311.605c1.246,2.41,0.807,5.666,0.281,8.28"/>
	<path fill-rule="evenodd" clip-rule="evenodd" fill="none" stroke="#000000" stroke-width="3.8804" stroke-linecap="round" d="
		M714.541,319.885c-0.531,3.465-1.31,7.41-3.85,10.045"/>
	<path fill-rule="evenodd" clip-rule="evenodd" fill="none" stroke="#000000" stroke-width="2.0338" stroke-linecap="round" d="
		M693.369,318.442c-0.441-3.279-0.906-7.786,0.455-10.775c1.439,1.061,3.089,1.811,4.928,1.693"/>
	<path fill-rule="evenodd" clip-rule="evenodd" fill="none" stroke="#000000" stroke-width="3.0527" stroke-linecap="round" d="
		M698.752,309.36c1.768-2.532,4.98-4.905,8.21-4.421"/>
	<path fill-rule="evenodd" clip-rule="evenodd" fill="none" stroke="#000000" stroke-width="3.5393" stroke-linecap="round" d="
		M704.014,312.939c0.063,0.719,0.261,1.331,0.422,1.895"/>
	<path fill-rule="evenodd" clip-rule="evenodd" fill="none" stroke="#000000" stroke-width="2.7928" stroke-linecap="round" d="
		M704.436,314.833c1.62-0.035,3.224,0.775,4.842,0.21"/>
	<path fill-rule="evenodd" clip-rule="evenodd" fill="none" stroke="#000000" stroke-width="1.936" stroke-linecap="round" d="
		M699.047,311.381c1.861-0.261,3.348,0.869,4.968,1.558"/>
	<path fill-rule="evenodd" clip-rule="evenodd" fill="none" stroke="#000000" stroke-width="2.1586" stroke-linecap="round" d="
		M704.014,312.939c0.194-2.951,2.398-5.125,2.947-8"/>
	<path fill-rule="evenodd" clip-rule="evenodd" fill="none" stroke="#000000" stroke-width="2.0396" stroke-linecap="round" d="
		M693.369,318.442c2.619-1.811,3.78-4.648,5.678-7.061"/>
	<path fill-rule="evenodd" clip-rule="evenodd" fill="none" stroke="#000000" stroke-width="3.4377" stroke-linecap="round" d="
		M699.047,311.381c-0.047-0.488-0.16-1.299-0.295-2.021"/>
	<path fill-rule="evenodd" clip-rule="evenodd" fill="none" stroke="#000000" stroke-width="4.2772" stroke-linecap="round" d="
		M698.241,337.087c2.715,0.391,5.347,0.023,7.879-0.781"/>
	<path fill-rule="evenodd" clip-rule="evenodd" fill="none" stroke="#000000" stroke-width="2.4653" stroke-linecap="round" d="
		M706.12,336.306c0.657-1.795,1.883-3.285,3.789-3.789"/>
	<path fill-rule="evenodd" clip-rule="evenodd" fill="none" stroke="#000000" stroke-width="4.2103" stroke-linecap="round" d="
		M709.909,332.517c0.352-0.938,0.523-1.814,0.782-2.587"/>
	<path fill-rule="evenodd" clip-rule="evenodd" fill="none" stroke="#000000" stroke-width="2.3442" stroke-linecap="round" d="
		M710.691,329.93c-1.076-1.738-3.21-1.371-4.812-2.165"/>
	<path fill-rule="evenodd" clip-rule="evenodd" fill="none" stroke="#000000" stroke-width="1.5977" stroke-linecap="round" d="
		M701.489,328.306c-0.246,0.547-0.706,1.363-1.264,2.105"/>
	<path fill-rule="evenodd" clip-rule="evenodd" fill="none" stroke="#000000" stroke-width="4.1941" stroke-linecap="round" d="
		M693.369,318.442c-1.048,4.529-1.466,9.658,0.12,14.075"/>
	<path fill-rule="evenodd" clip-rule="evenodd" fill="none" stroke="#000000" stroke-width="2.1468" stroke-linecap="round" d="
		M693.489,332.517c2.219,0.678,3.946,2.41,4.752,4.57"/>
	<path fill-rule="evenodd" clip-rule="evenodd" fill="none" stroke="#000000" stroke-width="1.9063" stroke-linecap="round" d="
		M709.278,315.043c1.142,1.129,1.544,2.442,1.684,4"/>
	<path fill-rule="evenodd" clip-rule="evenodd" fill="none" stroke="#000000" stroke-width="1.864" stroke-linecap="round" d="
		M714.26,311.605c-1.754,0.998-4.021,1.469-4.981,3.438"/>
	<path fill-rule="evenodd" clip-rule="evenodd" fill="none" stroke="#000000" stroke-width="1.6841" stroke-linecap="round" d="
		M700.646,325.149c1.757,0.6,2.277,1.484,3.158,3.157"/>
	<path fill-rule="evenodd" clip-rule="evenodd" fill="none" stroke="#000000" stroke-width="3.3152" stroke-linecap="round" d="
		M703.804,328.306c0.621,0.032,1.346-0.247,2.075-0.541"/>
	<path fill-rule="evenodd" clip-rule="evenodd" fill="none" stroke="#000000" stroke-width="3.4032" stroke-linecap="round" d="
		M704.436,314.833c-2.664,2.797-4.633,6.318-3.79,10.315"/>
	<path fill-rule="evenodd" clip-rule="evenodd" fill="none" stroke="#000000" stroke-width="1.7863" stroke-linecap="round" d="
		M714.541,319.885c-0.822-0.446-2.185-0.697-3.579-0.842"/>
	<path fill-rule="evenodd" clip-rule="evenodd" fill="none" stroke="#000000" stroke-width="1.6952" stroke-linecap="round" d="
		M710.962,319.043c0.233,3.808-3.238,5.86-5.082,8.722"/>
	<path fill-rule="evenodd" clip-rule="evenodd" fill="none" stroke="#000000" stroke-width="2.1468" stroke-linecap="round" d="
		M701.489,328.306c0.85,0,1.557,0,2.315,0"/>
	<path fill-rule="evenodd" clip-rule="evenodd" fill="none" stroke="#000000" stroke-width="2.1958" stroke-linecap="round" d="
		M700.646,325.149c-0.376,0.816-0.096,1.979,0.843,3.157"/>
	<path fill-rule="evenodd" clip-rule="evenodd" fill="none" stroke="#000000" stroke-width="2.4616" stroke-linecap="round" d="
		M693.489,332.517c-0.265,2.69,2.229,4.669,4.752,4.57"/>
	<path fill-rule="evenodd" clip-rule="evenodd" fill="none" stroke="#000000" stroke-width="2.422" stroke-linecap="round" d="
		M706.12,336.306c1.174,0.646,2.234,0.801,3.012,0.941c1.128-1.201,1.338-3.195,0.777-4.73"/>
	<path fill-rule="evenodd" clip-rule="evenodd" fill="none" stroke="#000000" stroke-width="1.9954" stroke-linecap="round" d="
		M750.75,351.884c-1.414,0.104-3.082,0.124-3.828-1.359c-0.007-0.449,0.137-0.856,0.286-1.263c0.704-0.589,1.612-1.058,2.419-1.729"
		/>
	<path fill-rule="evenodd" clip-rule="evenodd" fill="none" stroke="#000000" stroke-width="3.5142" stroke-linecap="round" d="
		M749.627,347.533c1.384-2.764,2.13-5.89,3.789-8.562"/>
	<path fill-rule="evenodd" clip-rule="evenodd" fill="none" stroke="#000000" stroke-width="2.3484" stroke-linecap="round" d="
		M753.416,338.972c-1.378-1.753-0.094-4.136,1.85-4.733"/>
	<path fill-rule="evenodd" clip-rule="evenodd" fill="none" stroke="#000000" stroke-width="2.0692" stroke-linecap="round" d="
		M755.265,334.239c0.814-4.399,4.215-8.057,8.957-8.037"/>
	<path fill-rule="evenodd" clip-rule="evenodd" fill="none" stroke="#000000" stroke-width="1.5374" stroke-linecap="round" d="
		M764.222,326.201c1.358-1.248,4.418-1.359,5.263,0.631"/>
	<path fill-rule="evenodd" clip-rule="evenodd" fill="none" stroke="#000000" stroke-width="1.8829" stroke-linecap="round" d="
		M764.222,326.201c0.374,0.647,0.748,1.031,1.123,1.403"/>
	<path fill-rule="evenodd" clip-rule="evenodd" fill="none" stroke="#000000" stroke-width="2.868" stroke-linecap="round" d="
		M755.265,334.239c0.392,0.792,0.764,2.638,0.957,4.341"/>
	<path fill-rule="evenodd" clip-rule="evenodd" fill="none" stroke="#000000" stroke-width="4.91" stroke-linecap="round" d="
		M756.222,338.579c0.281,0.168,0.562,0.337,0.843,0.505"/>
	<path fill-rule="evenodd" clip-rule="evenodd" fill="none" stroke="#000000" stroke-width="2.5262" stroke-linecap="round" d="
		M757.065,339.084c2.684-1.201,5.54-1.814,7.999-3.62"/>
	<path fill-rule="evenodd" clip-rule="evenodd" fill="none" stroke="#000000" stroke-width="1.8829" stroke-linecap="round" d="
		M765.064,335.464c0.552-2.565,0.544-5.261,0.281-7.859"/>
	<path fill-rule="evenodd" clip-rule="evenodd" fill="none" stroke="#000000" stroke-width="3.3683" stroke-linecap="round" d="
		M776.011,332.938c-0.444-3.198-3.692-5.231-6.526-6.105"/>
	<path fill-rule="evenodd" clip-rule="evenodd" fill="none" stroke="#000000" stroke-width="1.3964" stroke-linecap="round" d="
		M769.485,326.832c-1.38,0.183-3.094,0.114-4.14,0.772"/>
	<path fill-rule="evenodd" clip-rule="evenodd" fill="none" stroke="#000000" stroke-width="1.8991" stroke-linecap="round" d="
		M769.275,355.393c0.279,0.026,0.559,0.053,0.838,0.079c4.471-1.951,6.03-5.544,7.782-9.604c0.91-2.108,0.025-5.611,3.094-6.57
		c0.676-0.714,0.854-1.957,0.646-2.868c-2.304-0.346-3.874-2.014-5.624-3.492"/>
	<path fill-rule="evenodd" clip-rule="evenodd" fill="none" stroke="#000000" stroke-width="2.1429" stroke-linecap="round" d="
		M776.011,332.938c-0.907,3.969,0.331,8.302-1.895,11.999"/>
	<path fill-rule="evenodd" clip-rule="evenodd" fill="none" stroke="#000000" stroke-width="4.2661" stroke-linecap="round" d="
		M753.416,338.972c0.719-0.083,1.77-0.222,2.807-0.393"/>
	<path fill-rule="evenodd" clip-rule="evenodd" fill="none" stroke="#000000" stroke-width="2.7769" stroke-linecap="round" d="
		M762.398,350.761c2.635-1.472,6.229-3.068,6.57-6.494"/>
	<path fill-rule="evenodd" clip-rule="evenodd" fill="none" stroke="#000000" stroke-width="1.8718" stroke-linecap="round" d="
		M768.969,344.267c0.005-3.241-0.405-7.45-3.904-8.803"/>
	<path fill-rule="evenodd" clip-rule="evenodd" fill="none" stroke="#000000" stroke-width="2.9538" stroke-linecap="round" d="
		M750.75,351.884c2.566,3.675,7.752,5.52,12.041,4.21"/>
	<path fill-rule="evenodd" clip-rule="evenodd" fill="none" stroke="#000000" stroke-width="4.2626" stroke-linecap="round" d="
		M762.791,356.094c-0.473-1.754-0.092-3.565-0.393-5.333"/>
	<path fill-rule="evenodd" clip-rule="evenodd" fill="none" stroke="#000000" stroke-width="3.2196" stroke-linecap="round" d="
		M762.398,350.761c-6.27-0.438-6.793-6.944-5.333-11.677"/>
	<path fill-rule="evenodd" clip-rule="evenodd" fill="none" stroke="#000000" stroke-width="3.2722" stroke-linecap="round" d="
		M762.791,356.094c2.188-0.029,4.442,0.283,6.484-0.701"/>
	<path fill-rule="evenodd" clip-rule="evenodd" fill="none" stroke="#000000" stroke-width="1.8919" stroke-linecap="round" d="
		M769.275,355.393c0.77-3.995,4.845-6.298,4.842-10.456"/>
	<path fill-rule="evenodd" clip-rule="evenodd" fill="none" stroke="#000000" stroke-width="2.5262" stroke-linecap="round" d="
		M774.117,344.937c-1.583-0.793-3.408-1.377-5.148-0.67"/>
	<path fill-rule="evenodd" clip-rule="evenodd" fill="none" stroke="#000000" stroke-width="1.9447" stroke-linecap="round" d="
		M750.75,351.884c-0.43-1.445-0.368-3.001-1.123-4.351"/>
	<path fill-rule="evenodd" clip-rule="evenodd" fill="none" stroke="#000000" stroke-width="1.9005" stroke-linecap="round" d="
		M686.963,353.358c0.23-0.011,0.461-0.021,0.691-0.031c2.823,0.415,9.094,6.768,12.472,6.959c2.242,0.127,5.193-1.866,9.748-2.414
		c1.505-0.181,3.267-0.229,5.338-0.048c0.296,0.025,0.456,0.522,0.712,0.576c4.63,0.977,8.521,3.922,12.642,5.892
		c0.257,0.123,0.736,0.069,1.018,0.246c8.631,5.401,16.971,2.696,26.89,4.232c0.287,0.044,0.462,0.535,0.712,0.577
		c2.98,0.498,5.055,0.72,7.579,1.684c0.426,0.162,1.378-0.003,1.832,0.255c0.562,0.319,0.811,1.344,1.206,1.86"/>
	<path fill-rule="evenodd" clip-rule="evenodd" fill="none" stroke="#000000" stroke-width="2.0782" stroke-linecap="round" d="
		M767.802,373.146c2.299,0.463,2.841,2.459,3.157,4.421"/>
	<path fill-rule="evenodd" clip-rule="evenodd" fill="none" stroke="#000000" stroke-width="2.6628" stroke-linecap="round" d="
		M767.802,373.146c-1.302,1.645-2.743,3.949-5.053,4"/>
	<path fill-rule="evenodd" clip-rule="evenodd" fill="none" stroke="#000000" stroke-width="1.6981" stroke-linecap="round" d="
		M681.138,355.112c0.811-1.765,2.876-2.796,4.724-3.146c0.265,0.214,0.537,0.61,0.81,1.017c0.098,0.125,0.194,0.25,0.291,0.376"/>
	<path fill-rule="evenodd" clip-rule="evenodd" fill="none" stroke="#000000" stroke-width="1.9042" stroke-linecap="round" d="
		M689.616,362.915c3.372,7.338,20.641,5.957,30.648,7.539c0.243,0.038,2.741,1.135,4.08,1.419c6.667,1.415,12.05,3.03,17.684,5.052
		c4.74,1.7,9.192,4.067,13.603,4.377c0.057,0.004,2.449-0.991,3.239-1.409c1.852,0.048,3.466-0.749,3.879-2.747"/>
	<path fill-rule="evenodd" clip-rule="evenodd" fill="none" stroke="#000000" stroke-width="1.7558" stroke-linecap="round" d="
		M762.749,377.146c-2.737-1.348-5.688-3.934-8.334-1.064c-3.486,0.908-6.289-3.532-11.244-3.146"/>
	<path fill-rule="evenodd" clip-rule="evenodd" fill="none" stroke="#000000" stroke-width="2.6554" stroke-linecap="round" d="
		M686.963,353.358c-1.847,3.357-1.197,8.118,2.653,9.558"/>
	<path fill-rule="evenodd" clip-rule="evenodd" fill="none" stroke="#000000" stroke-width="1.8175" stroke-linecap="round" d="
		M689.616,362.915c0.64-0.501,1.393-0.707,2.027-0.926c0.27-0.174,0.489-0.393,0.707-0.613c2.215-1.742,4.12,0.603,5.641,2.045
		c3.298,0.213,6.506,0.908,9.813,1.094"/>
</g>
</svg>
