<?xml version="1.0" encoding="utf-8"?>
<!-- Generator: Adobe Illustrator 14.0.0, SVG Export Plug-In . SVG Version: 6.00 Build 43363)  -->
<!DOCTYPE svg PUBLIC "-//W3C//DTD SVG 1.1//EN" "http://www.w3.org/Graphics/SVG/1.1/DTD/svg11.dtd">
<svg version="1.1" id="图层_1" xmlns="http://www.w3.org/2000/svg" xmlns:xlink="http://www.w3.org/1999/xlink" x="0px" y="0px"
	 width="848px" height="480px" viewBox="0 0 848 480" enable-background="new 0 0 848 480" xml:space="preserve">
<g>
	<path fill="none" stroke="#000000" stroke-width="1.0423" stroke-linecap="round" d="M443.242,100.232
		c0.097,0.026,0.189,0.053,0.285,0.078c1.322,1.277,0.648,4.327,2.854,5.094c0.489-0.119,1.371-0.229,2.016-0.509
		c0.518-0.666,1.207-1.178,2.768-1.25"/>
	<path fill="none" stroke="#000000" stroke-width="1.5798" stroke-linecap="round" d="M451.164,103.645
		c0.152-0.214,0.451-0.281,0.732-0.365"/>
	<path fill="none" stroke="#000000" stroke-width="1.0206" stroke-linecap="round" d="M451.164,103.645
		c-0.229,0.571-0.364,1.825-0.657,2.529c1.317,0.57,3.504,0.809,4.682-0.334"/>
	<path fill="none" stroke="#000000" stroke-width="1.4095" stroke-linecap="round" d="M442.023,102.914
		c0.326-0.62,0.215-1.513,1.219-2.683"/>
	<path fill="none" stroke="#000000" stroke-width="1.5798" stroke-linecap="round" d="M443.242,100.232
		c-0.065-0.221-0.096-0.594-0.121-0.975"/>
	<path fill="none" stroke="#000000" stroke-width="1.1943" stroke-linecap="round" d="M402.166,154.472
		c0.025-0.513,0.29-1.519,0.765-2.056c1.718-0.566,3.364,1.043,3.989,2.421"/>
	<path fill="none" stroke="#000000" stroke-width="2.7209" stroke-linecap="round" d="M406.188,167.271
		c-0.027-2.825-1.362-5.246-1.829-8.045"/>
	<path fill="none" stroke="#000000" stroke-width="1.097" stroke-linecap="round" d="M436.173,172.39
		c0.797-2.342,0.118-4.67-2.031-6.018c-0.762-1.113-0.709-2.779,0.404-3.658c0.336-1.119,0.983-2.671,2.358-2.757"/>
	<path fill="none" stroke="#000000" stroke-width="0.9846" stroke-linecap="round" d="M423.74,304.76
		c4.63,1.395,11.445,2.565,17.553,2.192"/>
	<path fill="none" stroke="#000000" stroke-width="1.2486" stroke-linecap="round" d="M424.471,342.788
		c5.563,0.521,11.022,2.451,16.822,1.828"/>
	<path fill="none" stroke="#000000" stroke-width="1.746" stroke-linecap="round" d="M414.964,374.967
		c-1.194,0.754-2.112,1.795-3.291,2.561"/>
	<path fill="none" stroke="#000000" stroke-width="1.0626" stroke-linecap="round" d="M414.964,374.967
		c0.083-0.209,0.166-0.418,0.249-0.627c1.208-1.429,2.74-2.851,4.661-3.238c3.158-2.859,6.952-5.695,10.642-7.295
		c0.197,0.623,0.111,2.018,0.229,3.01c3.226,1.295,4.881-4.271,8.354-3.551"/>
	<path fill="none" stroke="#000000" stroke-width="1.893" stroke-linecap="round" d="M439.097,363.266
		c1.521-1.082,1.668-1.543,2.195-2.193"/>
	<path fill="none" stroke="#000000" stroke-width="1.1434" stroke-linecap="round" d="M414.964,374.967
		c4.216,0.211,7.913-5.217,11.875-3.33c0.207,0.897,0.075,2.229,0.479,2.813c1.258,0.025,3.543-1.795,5.549-3.604
		c2.396-2.16,4.652-4.974,6.232-7.58"/>
	<path fill="none" stroke="#000000" stroke-width="1.4627" stroke-linecap="round" d="M494.312,148.256
		c0.199,0.231,0.658,0.379,1.098,0.73"/>
	<path fill="none" stroke="#000000" stroke-width="1.3145" stroke-linecap="round" d="M433.734,380.329
		c-0.188,0.113-0.377,0.226-0.563,0.336c-13.693,1.125-28.201,3.511-41.934,2.785c-9.018-0.475-19.596,1.144-27.272-2.096
		c-0.661-2.15-1.029-4.723,0.173-6.754"/>
	<path fill="none" stroke="#000000" stroke-width="1.0963" stroke-linecap="round" d="M364.137,374.602
		c0.001-6.283,5.312-10.154,9.305-14.098c5.069-1.484,9.72-3.466,14.829-4.916"/>
	<path fill="none" stroke="#000000" stroke-width="1.1145" stroke-linecap="round" d="M388.271,355.588
		c0.001-0.121,0.002-0.24,0.003-0.361c0.089-0.387,0.326-0.861,0.562-1.283c6.064-2.184,12.331-6.926,19.061-4.815"/>
	<path fill="none" stroke="#000000" stroke-width="1.0014" stroke-linecap="round" d="M407.895,349.127
		c2.392-3.47,5.923-7.892,10.604-6.703"/>
	<path fill="none" stroke="#000000" stroke-width="1.1907" stroke-linecap="round" d="M418.498,342.424
		c0.313-1.658-0.988-2.357-1.502-3.636c0.623-0.403,1.441-0.825,2.174-1.313c0.115-0.416,0.086-0.797,0.052-1.178
		c-1.337-1.707-3.393-3.726-3.05-6.283c3.015-0.892,5.665-2.654,8.908-2.951"/>
	<path fill="none" stroke="#000000" stroke-width="1.8136" stroke-linecap="round" d="M425.08,327.065
		c0.597-2.725-0.613-5.219-0.974-7.861"/>
	<path fill="none" stroke="#000000" stroke-width="1.1901" stroke-linecap="round" d="M424.106,319.202
		c-8.012-0.512-16.091-1.512-23.55-3.69c-0.174-0.607-0.146-1.271-0.097-1.865c0.532-0.654,0.635-1.918,0.489-2.922
		c-0.059-0.266-0.548-0.633-0.516-0.951c0.49-4.883,0.75-9.824-0.386-14.848c-0.501-2.221-0.233-5.484-2.824-6.77
		c-0.131-0.572-0.185-1.443-0.36-2.046"/>
	<path fill="none" stroke="#000000" stroke-width="1.4239" stroke-linecap="round" d="M396.864,286.112
		c-0.66,0.175-1.417,0.433-1.98,0.537c-1.357-3.901-2.773-11.451-3.612-17.317c-0.606-4.244-1.457-9.568-0.806-13.021"/>
	<path fill="none" stroke="#000000" stroke-width="2.486" stroke-linecap="round" d="M390.465,256.309
		c-0.287-1.358,0.691-2.42,0.854-3.717"/>
	<path fill="none" stroke="#000000" stroke-width="1.2615" stroke-linecap="round" d="M391.318,252.592
		c-1.188-4.785,2.085-9.49,2.544-14.283c0.301-0.313,0.593-0.413,0.869-0.588"/>
	<path fill="none" stroke="#000000" stroke-width="1.7699" stroke-linecap="round" d="M394.731,237.721
		c0.052-0.535,0.167-1.529,0.486-2.438"/>
	<path fill="none" stroke="#000000" stroke-width="1.0934" stroke-linecap="round" d="M395.218,235.284
		c-0.27-2.576,0.998-4.658,1.994-6.749c0.063-0.129,0.506-0.121,0.585-0.288c0.696-1.471,0.516-3.327,2.175-4.3"/>
	<path fill="none" stroke="#000000" stroke-width="1.5685" stroke-linecap="round" d="M399.972,223.948
		c-0.238-1.255,1.175-1.945,0.73-3.291"/>
	<path fill="none" stroke="#000000" stroke-width="1.0661" stroke-linecap="round" d="M400.703,220.656
		c1.176-2.553,1.367-5.906,3.488-7.838c1.294-1.971,1.136-6.26,4.556-6.057"/>
	<path fill="none" stroke="#000000" stroke-width="1.0575" stroke-linecap="round" d="M423.74,193.233
		c0.005-1.669,0.619-3.337,1.462-4.753"/>
	<path fill="none" stroke="#000000" stroke-width="1.0343" stroke-linecap="round" d="M425.203,188.479
		c-2.901-1.651-6.292,0.771-9.503-0.004c-4.923-1.923-8.753-6.044-11.461-10.479"/>
	<path fill="none" stroke="#000000" stroke-width="1.1163" stroke-linecap="round" d="M404.238,177.997
		c-1.251-0.854-2.968-0.003-4.123-0.892c0.693-1.636-0.793-2.81-0.759-4.352c1.254-0.321,2.625-1.098,2.774-2.548
		c-1.508-4.459-2.4-8.989-4.21-12.958c-0.119-0.263-0.633-0.326-0.746-0.597c-0.263-0.629-0.155-1.566-0.298-1.97
		c-0.047-0.132-0.518-0.134-0.582-0.298c-0.76-1.937-0.5-3.816-1.441-5.762"/>
	<path fill="none" stroke="#000000" stroke-width="1.1067" stroke-linecap="round" d="M394.853,148.622
		c-1.558,0.074-2.24,1.637-3.639,1.996c-0.912-0.868,0.266-2.013-0.083-3.021c-1.357-1.137-3.201,0.528-3.431,1.917
		c-0.431,0.568-1.075,0.93-1.605,1.104c-1.233-3.01,1.36-6.182,0.529-9.311"/>
	<path fill="none" stroke="#000000" stroke-width="1.0626" stroke-linecap="round" d="M386.625,141.308
		c-1.426,0.104-2.178,1.682-3.718,1.463"/>
	<path fill="none" stroke="#000000" stroke-width="2.025" stroke-linecap="round" d="M382.907,142.771
		c-0.11,0.287-0.297,0.689-0.487,1.098"/>
	<path fill="none" stroke="#000000" stroke-width="1.0343" stroke-linecap="round" d="M382.907,142.771
		c0.281-2.662,3.204-4.704,2.438-7.313"/>
	<path fill="none" stroke="#000000" stroke-width="1.4627" stroke-linecap="round" d="M370.719,136.555
		c-0.141,0.174-0.721,0.441-1.463,1.097"/>
	<path fill="none" stroke="#000000" stroke-width="2.0685" stroke-linecap="round" d="M432.638,89.384
		c-0.111-0.288-0.297-0.689-0.488-1.097"/>
	<path fill="none" stroke="#000000" stroke-width="1.0785" stroke-linecap="round" d="M432.638,89.384
		c-0.096,1.36,0.877,2.642,0.889,4.016c-1.52,1.162-2.897-0.793-4.104-1.288c-2.465-1.01-5.427-2.227-8.026-2.943
		c-3.011-0.83-5.839-1.349-8.738-1.204c-0.011,1.596,2.231,2.521,1.761,4.179c-6.431-0.798-12.966-4.511-19.307-4.184
		c0.053,0.275,0.075,0.684,0.095,1.098c0.259,0.455,0.585,0.861,0.8,1.371c1.782,1.614,2.902,3.906,4.173,6.063
		c0.22,1.122,0.552,1.801,0.349,2.229c-1.737,0.688-3.888-1.031-5.413,0.207c0.027,0.498,0.121,1.111,0.327,1.577
		c0.998,0.213,1.744,0.682,2.52,1.14c0.184,0.354,0.268,0.623,0.348,0.89c-3.634,0.916-7.829,0.653-11.417,1.575
		c-0.195,0.542,0.643,0.951,1.179,1.569c1.183,0.148,2.157,0.84,3.287,1.118c0.149,0.417,0.059,0.727-0.045,1.031
		c-5.144,2.036-10.234,4.608-14.542,8.09c-1.3-0.399-1.961,0.851-2.936,1.453c-1.896,1.172-4.19,2.475-5.25,4.141
		c5.271,0.458,11.458-1.47,16.693-0.264c-0.464,1.805-2.203,3.071-3.886,3.679c-2.873,4.555-9.16,6.442-10.676,11.631"/>
	<path fill="none" stroke="#000000" stroke-width="0.8902" stroke-linecap="round" d="M370.719,136.555
		c4.599-0.392,8.854-3.332,13.42-3.542c0.153-0.007,0.319,0.24,0.475,0.251"/>
	<path fill="none" stroke="#000000" stroke-width="1.1563" stroke-linecap="round" d="M384.614,133.264
		c0.822-0.506,1.567-0.248,2.194,0"/>
	<path fill="none" stroke="#000000" stroke-width="0.9575" stroke-linecap="round" d="M386.808,133.264
		c0.719-1.087,1.324-2.129,1.828-3.291"/>
	<path fill="none" stroke="#000000" stroke-width="1.4525" stroke-linecap="round" d="M386.625,141.308
		c0.371-1.418,1.493-3.071,3.15-2.785c1.005,1.228-0.94,3.206,0.484,4.172c1.661-0.22,1.89-2.19,3.496-2.483"/>
	<path fill="none" stroke="#000000" stroke-width="1.1429" stroke-linecap="round" d="M471.033,159.469
		c0.129,0.031,0.261,0.063,0.39,0.093c0.348,0.069,0.612,0.025,0.871-0.022c1.079-1.883,0.678-4.459,1.581-6.272
		c3.044,0.146,5.484,2.198,6.382,5.023c0.366,0.532,1.139,1.027,2.014,1.279c1.459-2.905,0.684-6.976,1.85-9.965
		c1.257,0.06,1.601,1.687,2.863,1.744c1.01-1.803-0.627-3.71-0.645-5.62c0.569-0.457,1.42-0.183,1.905,0.177
		c2.441,0.019,3.773,2.386,6.068,2.35"/>
	<path fill="none" stroke="#000000" stroke-width="1.1142" stroke-linecap="round" d="M494.312,148.256
		c-1.252-3.448-2.334-7.324-4.951-10.033c-0.141-0.393-0.108-0.891-0.055-1.284c1.701-1.4,3.936,1.169,5.488-0.065
		c-1.279-1.61-1.691-2.982-4.072-4.991c-1.418-1.199-5.619-2.733-4.779-5.109c0.979,0.183,2.826,0.802,3.228-0.488
		c-0.263-0.222-2.22-2.45-3.441-3.452c-2.313-1.897-5.566-3.048-6.643-5.653c0.944-1.242,2.389-0.907,3.68-1.334
		c0.154-0.412,0.068-0.723-0.031-1.029c-1.686-0.323-3.207-0.97-4.697-1.862c-0.131-0.427-0.038-0.744,0.064-1.057
		c1.646-1.277,3.447-2.003,5.4-2.619c0.188-0.325,0.282-0.6,0.375-0.869c-0.058-0.338-0.212-0.631-0.373-0.922
		c-5.754-0.894-11.752-1.636-17.568-2.053c-0.191-3.118,4.816-3.232,5.029-6.115c-4.125-0.973-8.363,1.715-12.371,1.448
		c-0.209-1.399,1.1-2.26,1.098-3.498c-0.586-0.119-1.074-0.154-1.557-0.185c-0.371,0.118-0.644,0.333-0.91,0.551
		c-1.576,0.296-2.689,1.578-4.238,1.955c-0.342-0.084-0.574-0.369-0.801-0.664c0.275-1.539,1.738-3.783,0.117-5.006
		c-2.564,0.106-3.365,4.356-6.226,3.41c-1.108-3.982-2.76-7.865-4.27-11.756c-0.455-0.782-0.998-1.38-1.91-1.368
		c-0.818,3.073-0.068,6.689-1.984,9.483c-2.53-0.284-2.356-4.598-5.274-4.309"/>
	<path fill="none" stroke="#000000" stroke-width="1.1129" stroke-linecap="round" d="M420.449,139.846
		c2.23,3.228,3.671,6.563,5.285,10.04c0.063,0.133,0.488,0.123,0.58,0.293c1.535,2.858,2.018,6.572,2.91,10.144"/>
	<path fill="none" stroke="#000000" stroke-width="1.0053" stroke-linecap="round" d="M441.779,181.409
		c1.162-0.211,1.521,0.678,2.105,1.345c4.742-3.893,11.451-4.349,15.854-8.738c4.197-0.481,5.017-5.861,8.078-8.002
		c0.836-2.163,2.096-4.3,3.217-6.544"/>
	<path fill="none" stroke="#000000" stroke-width="1.1335" stroke-linecap="round" d="M471.033,159.469
		c0.033-2.987-1.967-5.241-3.203-7.744c-0.396-0.148-0.895-0.118-1.286-0.064c-1.13,2.147-0.05,5.495-1.919,7.112
		c-0.452-0.43-0.809-0.806-1.221-1.175c-0.42-1.82-1.514-3.452-2.037-5.171c-0.219-0.084-0.373-0.195-0.521-0.306
		c-0.066-0.164-0.168-0.375-0.271-0.588c-0.438-0.267-0.938-0.402-1.346-0.525c-0.861,0.913-0.029,2.184-0.156,3.203
		c-0.43,0.216-1.03-0.128-1.475-0.3c-0.078-0.424-0.248-0.744-0.424-1.061c-3.354-4.788-6.898-9.131-10.554-13.558
		c-0.491-0.284-1.446-0.948-2.036-0.787c-0.662,1.033-0.341,3.711-2.197,3.41c-1.072-1.385-0.933-3.613-2.904-4.18
		c-0.473-0.092-1.098,0.158-1.652,0.487c-2,3.653-3.645,7.335-4.686,11.395c-0.498,0.561-1.133,0.544-1.73,0.367
		c-1.424-4.135-1.604-8.984-3.62-12.773c-0.345,0.007-0.64,0.148-0.931,0.299c0.047,1.09-1.196,1.229-1.459,2.166
		c-0.385,0.15-0.848,0.154-1.222,0.117c-1.044-1.109,0.217-3.079-0.854-4.081c-0.301,0.028-0.584,0.174-0.866,0.325
		c-0.556,1.351-2.004,2.258-2.015,3.81"/>
	<path fill="none" stroke="#000000" stroke-width="1.0368" stroke-linecap="round" d="M439.097,177.509
		c0.084-0.209,0.166-0.418,0.25-0.627c0.676-0.887,3.195-2.802,4.026-4.604c2.322-5.027-0.639-16.489-7.209-16.695
		c-2.569,1.1-4.629,3.151-6.94,4.739"/>
	<path fill="none" stroke="#000000" stroke-width="1.3082" stroke-linecap="round" d="M429.224,160.323
		c-0.006,0.431-0.275,1.037-0.365,1.828"/>
	<path fill="none" stroke="#000000" stroke-width="1.0414" stroke-linecap="round" d="M420.449,139.846
		c-1.666,1.271-3.159,2.661-4.213,4.573c-0.354,0.183-0.624,0.267-0.891,0.346c-1.042-3.326,0.093-7.367-0.328-10.629
		c-2.276,0.845-4.205,2.876-5.904,4.612"/>
	<path fill="none" stroke="#000000" stroke-width="1.0839" stroke-linecap="round" d="M409.114,138.749
		c0.82,1.484,1.299,3.112,2.58,4.11c0.276,0.843,0.593,1.858,0.626,2.466c-2.316,1.188-3.581-2.236-5.553-2.768
		c-3.912-1.117-4.477,3.791-7.16,4.966"/>
	<path fill="none" stroke="#000000" stroke-width="1.7579" stroke-linecap="round" d="M399.606,147.525
		c-0.277,1.25-0.354,2.486-0.366,3.291"/>
	<path fill="none" stroke="#000000" stroke-width="1.1622" stroke-linecap="round" d="M408.016,136.921
		c0.913-2.185,1.24-5.021,1.146-7.197c-3.557,1.265-5.197,5.293-8.44,7c-1.015-1.159,0.745-2.864-0.328-4.042
		c-2.825,1.476-6,4.054-6.639,7.531"/>
	<path fill="none" stroke="#000000" stroke-width="0.9044" stroke-linecap="round" d="M404.238,177.997
		c1.825-0.702,3.389-1.692,5.241-2.316"/>
	<path fill="none" stroke="#000000" stroke-width="1.9624" stroke-linecap="round" d="M425.203,188.479
		c0.199-0.443,0.285-0.772,0.365-1.097"/>
	<path fill="none" stroke="#000000" stroke-width="1.1659" stroke-linecap="round" d="M438.732,188.844
		c-0.377-2.655,1.559-5.029,3.047-7.435"/>
	<path fill="none" stroke="#000000" stroke-width="0.9702" stroke-linecap="round" d="M441.779,181.409
		c-0.004-0.858,0.101-1.99,0.836-2.6c0.111-0.45,0.013-0.78-0.098-1.104c-0.963-0.048-2.225,0.634-3.42-0.198"/>
	<path fill="none" stroke="#000000" stroke-width="1.3485" stroke-linecap="round" d="M439.097,177.509
		c-0.244-0.168-0.486-0.337-0.73-0.506c-0.731,0.114-1.463,0.393-2.194,0.506"/>
	<path fill="none" stroke="#000000" stroke-width="1.379" stroke-linecap="round" d="M384.614,133.264
		c-0.451,0.892-0.739,1.617-0.551,2.021c0.373,0.119,0.877,0.133,1.283,0.173"/>
	<path fill="none" stroke="#000000" stroke-width="0.9168" stroke-linecap="round" d="M385.345,135.458
		c0.328-0.158,0.618-0.356,0.905-0.558c0.106-0.625,0.316-1.146,0.558-1.637"/>
	<path fill="none" stroke="#000000" stroke-width="1.7151" stroke-linecap="round" d="M409.114,138.749
		c-0.491-0.753-0.725-1.296-1.097-1.828"/>
	<path fill="none" stroke="#000000" stroke-width="0.9601" stroke-linecap="round" d="M408.016,136.921
		c-0.48-0.248-0.88-0.587-1.266-0.95c-5.055,0.929-6.92,7.012-7.145,11.554"/>
	<path fill="none" stroke="#000000" stroke-width="1.323" stroke-linecap="round" d="M394.853,148.622
		c-0.341-2.8-0.508-5.647-1.098-8.411"/>
	<path fill="none" stroke="#000000" stroke-width="1.1563" stroke-linecap="round" d="M410.21,205.482
		c0.546,0.188,1.535,0.407,1.767,1.35c-0.947,1.145-1.944,3.293-3.792,3.043c-0.125-0.992,0.339-2.104,0.563-3.112"/>
	<path fill="none" stroke="#000000" stroke-width="0.98" stroke-linecap="round" d="M396.864,286.112
		c0.041-0.123,0.081-0.248,0.121-0.37c1.597-2.421,5.051-3.83,8.288-6.029c0.7-0.476,1.108-1.383,1.8-1.851
		c0.949-0.643,2.001-0.704,2.772-0.893"/>
	<path fill="none" stroke="#000000" stroke-width="2.1478" stroke-linecap="round" d="M409.845,276.969
		c2.068-1.277,3.861-2.998,5.851-4.387"/>
	<path fill="none" stroke="#000000" stroke-width="1.6353" stroke-linecap="round" d="M415.696,272.582
		c0.162-0.326,0.325-0.65,0.487-0.978"/>
	<path fill="none" stroke="#000000" stroke-width="1.5435" stroke-linecap="round" d="M421.18,263.44c0-1.219,0-2.438,0-3.655"/>
	<path fill="none" stroke="#000000" stroke-width="1.4679" stroke-linecap="round" d="M416.061,238.575
		c3.048-8.165,4.34-17.205,4.021-25.963"/>
	<path fill="none" stroke="#000000" stroke-width="1.3682" stroke-linecap="round" d="M420.083,212.613
		c-0.243-0.243-0.486-0.487-0.73-0.73"/>
	<path fill="none" stroke="#000000" stroke-width="1.2667" stroke-linecap="round" d="M420.083,212.613
		c0.603-1.032,0.693-1.888,1.098-2.56"/>
	<path fill="none" stroke="#000000" stroke-width="0.8445" stroke-linecap="round" d="M437.635,238.21c0-0.488,0-0.977,0-1.463"/>
	<path fill="none" stroke="#000000" stroke-width="1.4627" stroke-linecap="round" d="M437.635,236.747
		c-0.256-0.346-0.279-0.898-0.365-1.463"/>
	<path fill="none" stroke="#000000" stroke-width="1.2986" stroke-linecap="round" d="M437.269,235.284
		c-2.025-10.368,0.938-21.007-0.365-31.447"/>
	<path fill="none" stroke="#000000" stroke-width="1.4862" stroke-linecap="round" d="M439.464,235.284
		c-0.468-4.486,0.768-8.592,1.389-12.758c1.232-8.279,2.178-16.061,0.684-24.053"/>
	<path fill="none" stroke="#000000" stroke-width="1.1668" stroke-linecap="round" d="M441.535,198.474
		c-2.203-0.407-6.446-0.973-10.364-0.371c-1.095,0.168-2.716,0.522-3.546,0.843c-5.342,2.069-8.814,7.258-13.299,10.355
		c-0.985-2.593-0.21-5.626-0.458-8.389"/>
	<path fill="none" stroke="#000000" stroke-width="1.1697" stroke-linecap="round" d="M441.535,198.474
		c0.142-2.542,0.713-5.161,2.523-7.228c0.125-0.656,0.258-1.168,0.338-1.642c-1.697-0.93-3.756-0.758-5.664-0.761"/>
	<path fill="none" stroke="#000000" stroke-width="1.0134" stroke-linecap="round" d="M438.732,188.844
		c-4.709,2.212-9.523,4.345-14.992,4.388"/>
	<path fill="none" stroke="#000000" stroke-width="1.2028" stroke-linecap="round" d="M423.74,193.233
		c-3.915,1.829-8.605,1.973-11.531,4.924c-0.668,0.675-0.321,1.934-1.1,1.813c0.013,1.897-0.959,3.604-0.899,5.513"/>
	<path fill="none" stroke="#000000" stroke-width="2.3127" stroke-linecap="round" d="M439.22,271.485
		c-0.041,0.121-0.082,0.244-0.123,0.365"/>
	<path fill="none" stroke="#000000" stroke-width="1.114" stroke-linecap="round" d="M439.097,271.85
		c0.242,0.854,0.75,1.193,1.287,1.648c1.987,5.647,5.16,13.992,0.735,18.657c-0.885,0.935-3.727,0.945-4.381,2.935
		c-2.586-0.18-4.901,0.988-6.582,2.926c-1.766,0.334-3.635-0.104-5.315,0.635c-0.646,1.438-1.572,2.685-2.729,3.752
		c-2.474,0.426-5.586,0.131-6.99-2.188c-0.061-0.875-0.222-1.771-0.646-2.523"/>
	<path fill="none" stroke="#000000" stroke-width="1.2338" stroke-linecap="round" d="M437.269,317.194
		c0.053-0.067,0.105-0.137,0.158-0.203c3.606-1.082,7.504-0.543,10.963-2.209c2.184-1.051,3.508-3.278,5.869-4.354
		c0.28-0.49,0.711-1.019,1.008-1.572c-1.207-2.518-3.832-4.018-5.355-6.553c-1.643-6.113-1.592-12.562-4.508-18.344
		c0.279-2.474-0.854-5.021-0.09-7.354"/>
	<path fill="none" stroke="#000000" stroke-width="1.0661" stroke-linecap="round" d="M445.314,276.604
		c-1.221-2.305-3.5-4.606-6.094-5.119"/>
	<path fill="none" stroke="#000000" stroke-width="1.3051" stroke-linecap="round" d="M409.845,276.969
		c-0.362,1.078-0.48,2.236-1.017,3.26c0.812,4.849-2.526,9.431-0.961,14.078c0.416,0.627,1.176,1.74,2.063,2.269
		c1.673-0.144,2.882,1.336,4.546,1.114"/>
	<path fill="none" stroke="#000000" stroke-width="1.2061" stroke-linecap="round" d="M414.477,297.69
		c-0.052-3.035-0.44-6.225-1.707-9.02"/>
	<path fill="none" stroke="#000000" stroke-width="1.1563" stroke-linecap="round" d="M439.097,271.85
		c-0.486,0.4-0.976,0.572-1.463,0.732"/>
	<path fill="none" stroke="#000000" stroke-width="1.1188" stroke-linecap="round" d="M439.22,271.485
		c-0.494-0.637-0.931-1.284-1.133-1.768c0.049-2.252,3.987-2.275,3.442-4.805c-0.396-0.254-0.778-0.593-1.133-0.949
		c-2.641-0.558-5.441-0.551-7.883-1.619"/>
	<path fill="none" stroke="#000000" stroke-width="1.1601" stroke-linecap="round" d="M432.515,262.344
		c-3.49,1.021-7.75,1.178-11.335,1.096"/>
	<path fill="none" stroke="#000000" stroke-width="0.9482" stroke-linecap="round" d="M421.18,263.44
		c-1.407,0.992-3.065,1.211-4.75,1.101c-0.58,0.396-1.349,0.604-1.99,0.94c-0.171,0.336-0.328,0.603-0.484,0.867
		c0.184,1.93,1.708,3.385,2.229,5.258"/>
	<path fill="none" stroke="#000000" stroke-width="0.9675" stroke-linecap="round" d="M416.183,271.606
		c2.862-1.002,6.03-0.254,9.02-0.485"/>
	<path fill="none" stroke="#000000" stroke-width="0.9283" stroke-linecap="round" d="M415.696,272.582
		c2.107,1.043,4.552,0.973,6.582,2.192"/>
	<path fill="none" stroke="#000000" stroke-width="1.6353" stroke-linecap="round" d="M410.21,205.482
		c-0.677,0.521-1.129,0.917-1.462,1.28"/>
	<path fill="none" stroke="#000000" stroke-width="1.0824" stroke-linecap="round" d="M399.972,223.948
		c0.228,0.545,0.45,0.961,0.766,1.221c1.734-0.328,1.768-2.51,2.142-3.889c-0.32-0.435-1.341-0.475-2.176-0.623"/>
	<path fill="none" stroke="#000000" stroke-width="1.2206" stroke-linecap="round" d="M394.731,237.721
		c0.313,0.632,0.542,1.052,0.879,1.333c2.05-0.289,3.372-2.884,2.13-4.724c-0.451-0.165-1.366,0.132-2.522,0.954"/>
	<path fill="none" stroke="#000000" stroke-width="1.5514" stroke-linecap="round" d="M439.464,236.747c0-0.487,0-0.977,0-1.463"/>
	<path fill="none" stroke="#000000" stroke-width="0.8445" stroke-linecap="round" d="M439.464,235.284c-0.73,0-1.461,0-2.193,0"/>
	<path fill="none" stroke="#000000" stroke-width="1.5514" stroke-linecap="round" d="M439.343,238.453
		c0.086-0.391,0.094-1.092,0.121-1.706"/>
	<path fill="none" stroke="#000000" stroke-width="0.8445" stroke-linecap="round" d="M439.464,236.747c-0.688,0-1.261,0-1.828,0"/>
	<path fill="none" stroke="#000000" stroke-width="1.1357" stroke-linecap="round" d="M416.061,238.575
		c-1.461,1.48-2.622,1.745-3.129,2.726c-1.382,2.672,2.147,5.17-0.013,8.041c-0.718,1.668,1.957,2.4,1.192,4.119
		c-2.873,1.477-2.292,5.684,1.096,5.469"/>
	<path fill="none" stroke="#000000" stroke-width="1.2667" stroke-linecap="round" d="M441.535,245.035
		c-0.008-1.355,0.42-2.625,0.822-3.89c-0.068-0.393-0.303-0.867-0.533-1.286c-0.694-0.49-1.578-0.816-2.481-1.407"/>
	<path fill="none" stroke="#000000" stroke-width="1.2667" stroke-linecap="round" d="M439.343,238.453
		c-0.32,0.104-0.933-0.172-1.707-0.243"/>
	<path fill="none" stroke="#000000" stroke-width="1.2304" stroke-linecap="round" d="M437.635,238.21
		c-7.082-0.724-14.269-0.217-21.108,0.614c-0.145,0.018-0.32-0.246-0.466-0.249"/>
	<path fill="none" stroke="#000000" stroke-width="2.3011" stroke-linecap="round" d="M432.955,258.395
		c-0.672,1.199-0.348,2.64-0.438,3.949"/>
	<path fill="none" stroke="#000000" stroke-width="1.2759" stroke-linecap="round" d="M445.314,276.604
		c2.811-0.455,4.262,3.219,6.984,2.81c2.229-3.802,0.371-9.396-0.884-14.031c-0.932-3.445-2.141-7.31-3.938-10.574
		c-0.086-0.154-0.455-0.141-0.533-0.297c-0.268-0.535-0.11-1.443-0.338-1.832c-0.078-0.137-0.457-0.135-0.572-0.307
		c-1.68-2.556-2.209-5.076-4.5-7.336"/>
	<path fill="none" stroke="#000000" stroke-width="1.4535" stroke-linecap="round" d="M441.535,245.035
		c-0.123,0.079-0.248,0.161-0.373,0.241c-1.805,3.558,3.523,6.638,2.238,10.412c-0.672,0.785-1.66,1.236-2.271,2.103
		c-2.754,0.528-5.408,0.074-8.175,0.604"/>
	<path fill="none" stroke="#000000" stroke-width="1.3468" stroke-linecap="round" d="M390.465,256.309
		c0.673,0.615,1.681,0.851,2.335,0.672c0.458-1.367,0.896-2.887,0.424-4.303c-0.389-0.154-1.026-0.15-1.529-0.166
		c-0.125,0.027-0.25,0.053-0.375,0.08"/>
	<path fill="none" stroke="#000000" stroke-width="0.9056" stroke-linecap="round" d="M415.208,258.93
		c1.775,1.146,4.15-0.143,5.973,0.854"/>
	<path fill="none" stroke="#000000" stroke-width="1.3352" stroke-linecap="round" d="M421.547,257.955
		c-2.005-0.086-5.178-1.312-6.339,0.975"/>
	<path fill="none" stroke="#000000" stroke-width="1.1171" stroke-linecap="round" d="M432.955,258.395
		c-3.414-1.551-7.623,0.164-11.408-0.438"/>
	<path fill="none" stroke="#000000" stroke-width="0.8957" stroke-linecap="round" d="M421.547,257.955
		c0.021,0.752-0.168,1.295-0.366,1.828"/>
	<path fill="none" stroke="#000000" stroke-width="1.8161" stroke-linecap="round" d="M425.08,327.065
		c0.32,0.646,0.429,1.635,0.488,2.562"/>
	<path fill="none" stroke="#000000" stroke-width="1.2742" stroke-linecap="round" d="M441.779,327.188
		c-1.151-3.75-4.129-5.939-4.51-9.994"/>
	<path fill="none" stroke="#000000" stroke-width="1.1288" stroke-linecap="round" d="M437.269,317.194
		c-4.436,0.344-8.758,1.354-13.164,2.01"/>
	<path fill="none" stroke="#000000" stroke-width="1.2237" stroke-linecap="round" d="M418.498,342.424
		c0.964,2.457,2.547,4.758,3.291,7.19"/>
	<path fill="none" stroke="#000000" stroke-width="1.1849" stroke-linecap="round" d="M441.658,350.469
		c-0.336-1.562-2.09-0.842-3.176-1.213c-2.486-1.332-5.496-0.609-8.16-1.349"/>
	<path fill="none" stroke="#000000" stroke-width="1.342" stroke-linecap="round" d="M447.142,347.178
		c-1.672-2.354,1.475-3.148,1.803-5.111c-1.276-1.504-3.281-2.945-2.002-5.281c1.557-0.491,2.428-1.789,3.312-3.055
		c0.256-1.688,0.278-3.479,0.065-5.164c-0.586-0.324-1.176-0.709-1.82-1.031c-2.262,0.009-4.448-0.844-6.721-0.348"/>
	<path fill="none" stroke="#000000" stroke-width="1.5514" stroke-linecap="round" d="M441.779,327.188
		c-0.108,0.535-0.104,1.529-0.121,2.438"/>
	<path fill="none" stroke="#000000" stroke-width="0.9751" stroke-linecap="round" d="M441.658,329.625
		c1.646,0.03,2.813,0.049,3.656-0.365"/>
	<path fill="none" stroke="#000000" stroke-width="1.133" stroke-linecap="round" d="M441.658,329.625
		c-0.053,0.069-0.104,0.139-0.155,0.206c-5.16,0.517-10.916,1.228-15.935-0.206"/>
	<path fill="none" stroke="#000000" stroke-width="0.8957" stroke-linecap="round" d="M425.568,329.625c-0.988,0-1.742,0-2.559,0"/>
	<path fill="none" stroke="#000000" stroke-width="1.243" stroke-linecap="round" d="M407.895,349.127
		c0.876,2.354,2.299,4.604,4.51,5.729"/>
	<path fill="none" stroke="#000000" stroke-width="1.0498" stroke-linecap="round" d="M412.405,354.856
		c2.85-2.201,5.502-5.104,9.385-5.24"/>
	<path fill="none" stroke="#000000" stroke-width="1.2784" stroke-linecap="round" d="M447.142,347.178
		c-1.313,1.604-3.389,2.901-5.484,3.291"/>
	<path fill="none" stroke="#000000" stroke-width="0.937" stroke-linecap="round" d="M441.658,350.469
		c-0.207,0.207-0.414,0.414-0.619,0.623c-3.995,0.643-7.739,3.496-11.961,2.446c-1.979-2.19-5.141-1.889-7.289-3.924"/>
	<path fill="none" stroke="#000000" stroke-width="1.1969" stroke-linecap="round" d="M450.8,355.952
		c-0.354-2.813,0.707-9.465-3.656-8.774"/>
	<path fill="none" stroke="#000000" stroke-width="1.1014" stroke-linecap="round" d="M396.681,372.774
		c6.518,2.098,12.8-2.021,18.805-3.865c0.692-0.553,1.146-1.367,1.271-1.975c-0.33-2.66-2.197-4.943-2.159-7.689"/>
	<path fill="none" stroke="#000000" stroke-width="1.1369" stroke-linecap="round" d="M414.598,359.243
		c-1.245-1.19-2.077-2.659-2.193-4.389"/>
	<path fill="none" stroke="#000000" stroke-width="1.3087" stroke-linecap="round" d="M364.137,374.602
		c0.945,0.271,1.875,0.563,2.66,0.996c9.827,0.567,22.221,1.356,29.884-2.824"/>
	<path fill="none" stroke="#000000" stroke-width="1.1802" stroke-linecap="round" d="M396.681,372.774
		c-2.493-5.887-3.503-13.004-8.41-17.186"/>
	<path fill="none" stroke="#000000" stroke-width="0.9725" stroke-linecap="round" d="M433.734,380.329
		c-0.027-0.092-0.055-0.184-0.082-0.274c3.662-8.07,13.889-8.101,19.342-14.594"/>
	<path fill="none" stroke="#000000" stroke-width="1.6418" stroke-linecap="round" d="M452.994,365.461
		c-0.11-3.24-1.026-6.505-2.194-9.509"/>
	<path fill="none" stroke="#000000" stroke-width="1.0415" stroke-linecap="round" d="M450.8,355.952
		c-2.935,0.438-5.56,0.701-8.664,1.574c-4.521,1.271-9.775,3.519-13.797,1.871c-0.449-0.184-0.687-0.869-1.109-1.084
		c-1.332-0.676-2.656-0.59-3.657-2.193c-0.646-0.129-1.149-0.256-1.624-0.34c-2.709,0.488-5.021,2.063-7.35,3.463"/>
	<path fill="none" stroke="#000000" stroke-width="1.4717" stroke-linecap="round" d="M433.734,380.329
		c5.504,0.48,10.789-1.366,16.221-1.819c5.328-1.886,3.354-8.771,3.039-13.049"/>
</g>
</svg>
