<?xml version="1.0" encoding="utf-8"?>
<!-- Generator: Adobe Illustrator 14.0.0, SVG Export Plug-In . SVG Version: 6.00 Build 43363)  -->
<!DOCTYPE svg PUBLIC "-//W3C//DTD SVG 1.1//EN" "http://www.w3.org/Graphics/SVG/1.1/DTD/svg11.dtd">
<svg version="1.1" id="图层_1" xmlns="http://www.w3.org/2000/svg" xmlns:xlink="http://www.w3.org/1999/xlink" x="0px" y="0px"
	 width="848px" height="480px" viewBox="0 0 848 480" enable-background="new 0 0 848 480" xml:space="preserve">
<g>
	<path fill="none" stroke="#000000" stroke-width="1.0847" stroke-linecap="round" d="M295.758,100.719
		c1.027,0.607,1.612,0.97,2.194,1.463"/>
	<path fill="none" stroke="#000000" stroke-width="1.2579" stroke-linecap="round" d="M295.758,100.719
		c-0.286,1.071-0.439,1.496-0.775,1.763c-1.021-0.066-1.659-0.932-2.318-1.595c-0.863-0.168-1.521-0.455-2.107-0.392
		c-0.223,0.406-0.195,0.9-0.156,1.291c0.433,0.233,0.75,0.637,0.97,1.127"/>
	<path fill="none" stroke="#000000" stroke-width="2.194" stroke-linecap="round" d="M295.758,100.719c0-0.244,0-0.487,0-0.731"/>
	<path fill="none" stroke="#000000" stroke-width="0.9251" stroke-linecap="round" d="M256.632,145.697
		c0.519-0.214,0.851-0.612,1.098-1.097"/>
	<path fill="none" stroke="#000000" stroke-width="1.5514" stroke-linecap="round" d="M256.632,145.697c0,0.288,0,0.689,0,1.098"/>
	<path fill="none" stroke="#000000" stroke-width="1.1626" stroke-linecap="round" d="M256.632,145.697
		c-0.958-1.948,0.472-4.046,0.59-6.004c0.336-0.204,0.594-0.287,0.849-0.365c0.267,0.338,0.601,0.715,0.952,1.059
		c1.253,3.988,3.554,7.79,4.731,11.856c-0.371,0.259-0.866,0.475-1.271,0.768"/>
	<path fill="none" stroke="#000000" stroke-width="1.097" stroke-linecap="round" d="M262.482,153.01
		c0.234,0.497,0.446,1.017,0.73,1.463"/>
	<path fill="none" stroke="#000000" stroke-width="1.2362" stroke-linecap="round" d="M262.482,153.01
		c-0.432-0.065-0.749-0.512-1.128-0.666c-0.365,0.043-0.837,0.274-1.242,0.503c-0.114,0.849-0.503,1.437-0.921,1.992"/>
	<path fill="none" stroke="#000000" stroke-width="1.0343" stroke-linecap="round" d="M282.594,154.838
		c0.617-0.727,1.002-1.201,1.203-1.823c0.685-0.427,1.301-1.047,1.886-1.671c2.066-0.703,3.653,0.892,5.499,1.498
		c0.471,0.738,0.784,1.644,1.65,1.996"/>
	<path fill="none" stroke="#000000" stroke-width="1.1861" stroke-linecap="round" d="M286.616,166.174
		c0.71,1.478,2.348,2.514,3.92,2.428c0.813-0.375,1.481-0.928,2.132-1.5c0.854-3.436,1.235-8.03-1.135-10.965
		c-0.813-0.884-2.532-0.652-3.602-0.348C285.796,158.471,285.107,162.921,286.616,166.174"/>
	<path fill="none" stroke="#000000" stroke-width="1.6546" stroke-linecap="round" d="M262.848,168.002
		c-2.381-1.423-1.717-7.271-0.687-9.809c2.129,0.429,1.653,3.478,1.777,5.427c0.099,1.563,0.674,3.65-0.413,4.688
		C263.31,168.293,263.079,168.15,262.848,168.002"/>
	<path fill="none" stroke="#000000" stroke-width="0.7313" stroke-linecap="round" d="M263.945,172.756c0.488,0,0.976,0,1.463,0
		c0,0.487,0,0.975,0,1.462c-0.487,0-0.975,0-1.463,0C263.945,173.731,263.945,173.243,263.945,172.756z"/>
	<path fill="none" stroke="#000000" stroke-width="0.9168" stroke-linecap="round" d="M267.236,176.778
		c4.575-1.491,10.745-1.593,14.627-3.655"/>
	<path fill="none" stroke="#000000" stroke-width="1.0474" stroke-linecap="round" d="M260.654,257.223
		c-1.169-0.527-0.977-2.445-0.51-3.445c1.251-1.063,3.073-0.502,4.006,0.691c0.105,1.1-0.146,1.756-0.317,2.379
		C263.067,257.61,261.218,258.764,260.654,257.223"/>
	<path fill="none" stroke="#000000" stroke-width="1.0401" stroke-linecap="round" d="M261.751,333.647
		c5.583-0.242,10.324,3.604,15.725,1.83"/>
	<path fill="none" stroke="#000000" stroke-width="1.1495" stroke-linecap="round" d="M296.855,335.842
		c4.148,0.43,7.917,1.297,12.066,0.364"/>
	<path fill="none" stroke="#000000" stroke-width="1.0086" stroke-linecap="round" d="M259.923,354.49
		c-0.073-0.174-0.146-0.348-0.221-0.52c-0.326-0.189-0.597-0.285-0.866-0.379c-4.722,2.039-10.294,3.438-13.904,7.114"/>
	<path fill="none" stroke="#000000" stroke-width="1.6534" stroke-linecap="round" d="M250.415,369.116
		c1.11-0.108,1.523-1.407,2.561-1.828"/>
	<path fill="none" stroke="#000000" stroke-width="1.0689" stroke-linecap="round" d="M252.975,367.288
		c2.854-0.301,4.841-2.645,7.013-3.971c1.469,0.93,1.208,3.553,2.295,4.644c2.198,0.123,3.417-2.164,4.404-3.779
		c2.418-2.445,5.047-4.666,6.68-7.844c-0.804-1.406-1.861,0.569-2.643,0.909c-1.737,0.757-3.188,0.935-5.133,2.31
		c-1.7-0.129-0.209-2.523-1.329-3.174c-4.612,1.68-6.396,7.024-10.76,9.239C253.264,366.115,253.091,366.674,252.975,367.288"/>
	<path fill="none" stroke="#000000" stroke-width="1.2195" stroke-linecap="round" d="M292.832,359.61
		c0.631,3.438,1.622,8.615,5.157,9.924c1.197-0.553,0.004-3.26,1.794-2.854c0.121,0.082,0.242,0.162,0.363,0.242"/>
	<path fill="none" stroke="#000000" stroke-width="1.6353" stroke-linecap="round" d="M292.832,359.61
		c-0.509-0.756-0.808-1.045-1.097-1.463"/>
	<path fill="none" stroke="#000000" stroke-width="1.2525" stroke-linecap="round" d="M292.832,359.61
		c1.287,0.916,2.706,1.896,3.136,3.451c0.33,0.176,0.604,0.332,0.875,0.486c0.976-0.05,1.012-1.412,1.142-2.375
		c0.559-0.435,1.378-0.173,1.956,0.108c0.132,0.599,0.464,0.996,0.772,1.418c0.883,2.199,2.152,4.236,3.089,6.418"/>
	<path fill="none" stroke="#000000" stroke-width="1.1984" stroke-linecap="round" d="M303.437,199.083
		c0.001,0.12,0.002,0.239,0.003,0.359c0.729,1.192,1.221,2.516,2.211,3.386c2.07,6.642,1.86,12.936,5.137,18.776
		c0.199,0.355,1.198,1.157,1.445,1.701c0.959,2.114,1.516,4.665,2.174,6.493"/>
	<path fill="none" stroke="#000000" stroke-width="1.1414" stroke-linecap="round" d="M214.215,368.752
		c-1.47-10.009,8.597-14.865,16.211-17.675"/>
	<path fill="none" stroke="#000000" stroke-width="1.1991" stroke-linecap="round" d="M230.426,351.077
		c-0.026-0.092-0.055-0.184-0.081-0.274c0.115-0.469,0.339-1.232,0.724-1.771c6.435-2.963,12.26-8.071,19.591-8.194"/>
	<path fill="none" stroke="#000000" stroke-width="1.2214" stroke-linecap="round" d="M250.659,340.838
		c0.634-2.754,3.621-3.904,5.973-4.996"/>
	<path fill="none" stroke="#000000" stroke-width="1.1643" stroke-linecap="round" d="M256.632,335.842
		c-0.703-0.767-0.167-1.801,0.434-2.83c-0.893-2.822-6.805-3.656-3.261-7.398c3.129-1.758,5.954-5.278,9.959-5.129"/>
	<path fill="none" stroke="#000000" stroke-width="1.5514" stroke-linecap="round" d="M263.762,320.485
		c0.198-0.854,0.163-2.16,0.183-2.926"/>
	<path fill="none" stroke="#000000" stroke-width="1.3116" stroke-linecap="round" d="M263.945,317.559
		c-5.496-0.813-11.059-1.717-15.946-4.424c-0.115-0.496-0.046-0.914,0.026-1.222c0.407-0.143,1.056-0.795,1.229-1.278
		c0.053-1.783-1.98-1.656-3.047-2.416c-0.171-0.34-0.259-0.611-0.343-0.881c2.827-3.896,1.271-8.884,0.348-13.183"/>
	<path fill="none" stroke="#000000" stroke-width="1.1019" stroke-linecap="round" d="M246.21,294.156
		c-3.396,0.425-7.588,1.664-10.258-1.266c-0.861-1.305-0.553-3.043-1.626-4.221"/>
	<path fill="none" stroke="#000000" stroke-width="1.2122" stroke-linecap="round" d="M234.326,288.67
		c-0.209-0.082-0.417-0.166-0.626-0.248c-2.016-1.82-1.698-5.074-1.936-6.957c-0.076-0.598-0.722-1.074-0.673-1.535
		c0.554-5.227,6.785-9.186,9.321-13.586c0.287-1.734-1.46-2.773-1.303-4.717c0.069-0.396,0.301-0.873,0.532-1.293
		c0.803-0.162,1.778-0.162,2.729-0.187"/>
	<path fill="none" stroke="#000000" stroke-width="0.8957" stroke-linecap="round" d="M242.371,260.149
		c0.073-0.17,0.146-0.342,0.219-0.512c0.725-0.193,1.821-0.191,3.072-0.219"/>
	<path fill="none" stroke="#000000" stroke-width="1.5617" stroke-linecap="round" d="M245.662,259.418
		c0.802-3.123,2.95-5.896,3.291-9.144"/>
	<path fill="none" stroke="#000000" stroke-width="1.0147" stroke-linecap="round" d="M248.952,250.276
		c-2.681-0.221-4.967-1.116-7.133-2.75c-0.172-0.342-0.261-0.616-0.345-0.889c0.686-2.402,2.589-4.24,3.673-6.391
		c0.111-2.026-0.969-4.04-0.824-6.05c0.398-0.255,0.781-0.593,1.133-0.948c1.734-0.181,3.521-0.18,5.202-0.402"/>
	<path fill="none" stroke="#000000" stroke-width="0.9728" stroke-linecap="round" d="M250.659,232.846
		c1.712-0.636,1.149-3.215,3.047-3.779"/>
	<path fill="none" stroke="#000000" stroke-width="1.3082" stroke-linecap="round" d="M253.706,229.068
		c0.016-0.107,0.03-0.216,0.045-0.323c4.541-4.976,4.354-13.979,7.826-18.113c0.278-1.833,1.554-3.122,3.099-3.868"/>
	<path fill="none" stroke="#000000" stroke-width="1.534" stroke-linecap="round" d="M264.676,206.762
		c-0.058-1.543,1.189-2.661,2.194-3.657"/>
	<path fill="none" stroke="#000000" stroke-width="1.2128" stroke-linecap="round" d="M266.87,203.106
		c-0.018-0.781,0.232-1.395,0.566-2c1.068-0.272,1.718-0.557,2.358-0.376"/>
	<path fill="none" stroke="#000000" stroke-width="1.0402" stroke-linecap="round" d="M269.796,200.729
		c3.808-2.982,4.977-7.461,9.182-10.017c0.139-0.084,0.192-0.311,0.327-0.405"/>
	<path fill="none" stroke="#000000" stroke-width="1.0598" stroke-linecap="round" d="M279.303,190.307
		c-0.744-0.23-1.475-0.477-1.979-0.946c-0.873-0.103-1.852-0.099-2.557-0.368c-3.027-2.902-7.782-2.854-10.63-6.19
		c-2.287-0.908-4.575-2.251-5.571-4.667c0.333-5.347,1.165-9.694-0.391-14.852c-0.559-1.854-1.538-5.802-2.313-8.662
		c-0.217-0.08-0.373-0.19-0.526-0.304c-0.092-0.51-0.207-1.501-0.532-2.404"/>
	<path fill="none" stroke="#000000" stroke-width="1.0784" stroke-linecap="round" d="M254.803,151.913
		c-2.996,0.652-5.803,2.798-8.86,2.688c-0.55-1.388,0.875-2.604,1.037-3.936c0.503-0.236,0.673-0.654,0.838-1.07
		c-0.525-0.575-1.642-0.559-2.303-0.385c-1.832,1.693-4.711,2.344-6.995,2.886c-0.399-4.409,4.821-6.809,4.348-11.234
		c-0.939-0.27-2.805-0.127-2.195-1.708c1.406-1.015,2.054-2.81,2.603-4.404c-4.396-1.415-9.128,1.792-13.553,0.396
		c0.617-2.188,2.81-4.177,4.96-4.92c2.304-4.114,7.636-5.021,10.039-8.637c-0.344-0.27-0.717-0.607-1.054-0.967
		c-0.947-0.022-1.683-0.264-2.029-0.891"/>
	<path fill="none" stroke="#000000" stroke-width="1.4847" stroke-linecap="round" d="M254.803,151.913
		c-1.52-3.822-0.814-8.052-1.28-12.067"/>
	<path fill="none" stroke="#000000" stroke-width="1.5224" stroke-linecap="round" d="M253.523,139.846c-0.609,0-1.219,0-1.828,0"/>
	<path fill="none" stroke="#000000" stroke-width="1.5514" stroke-linecap="round" d="M251.695,139.846
		c-0.1,0.244-0.143,0.487-0.183,0.731"/>
	<path fill="none" stroke="#000000" stroke-width="1.0259" stroke-linecap="round" d="M251.695,139.846
		c-0.303-2.782,2.511-4.957,2.261-7.756c-1.166-0.21-1.84,1.313-3.175,0.808"/>
	<path fill="none" stroke="#000000" stroke-width="1.3485" stroke-linecap="round" d="M250.781,132.898
		c-0.24,0.496-0.738,1.018-1.097,1.462"/>
	<path fill="none" stroke="#000000" stroke-width="0.95" stroke-linecap="round" d="M250.781,132.898
		c1.131-2.761,2.564-6.212,5.485-7.313"/>
	<path fill="none" stroke="#000000" stroke-width="1.0253" stroke-linecap="round" d="M253.523,139.846
		c0.044-0.121,0.088-0.241,0.131-0.361c0.125-0.388,0.363-0.865,0.611-1.281c2.644-0.527,4.551-2.672,6.552-4.41
		c1.009,0.089,2.021-0.612,2.959-0.352c0.138,0.986-0.509,2.123-0.089,3.184c3.041-1.297,5.593-4.82,9.035-5.438
		c1.337,1.738,0.015,5.788,2.188,6.334c0.163-0.257,0.362-0.521,0.563-0.788c1.463-1.348,2.868-3.143,3.667-5.093
		c0.574-0.647,1.402-1.492,2.356-1.185c0.413,0.686,0.206,2.105,0.586,2.967c0.806,0.618,1.805,0.314,2.473,0.013
		c0.701-1.32,1.038-3.274,2.775-3.633c0.335,0.063,0.629,0.219,0.921,0.378c2.076,2.789,4.956,4.891,6.407,8.203"/>
	<path fill="none" stroke="#000000" stroke-width="1.5798" stroke-linecap="round" d="M294.66,138.383
		c0.353,0.083,0.843,0.003,1.341-0.122"/>
	<path fill="none" stroke="#000000" stroke-width="1.3169" stroke-linecap="round" d="M296.001,138.261
		c0.604-1.777,0.061-4.174,1.589-5.471c1.586,0.586,2.419,2.018,2.771,3.559c0.34,0.198,0.6,0.287,0.855,0.37
		c0.23-0.342,0.633-1.025,1.122-1.626"/>
	<path fill="none" stroke="#000000" stroke-width="1.4004" stroke-linecap="round" d="M302.34,135.092
		c0.277-0.622,0.112-1.01,0-1.462"/>
	<path fill="none" stroke="#000000" stroke-width="1.3" stroke-linecap="round" d="M333.055,157.763
		c0.243,0.171,0.486,0.343,0.73,0.515c0.857,0.466,1.419,0.452,1.736,0.176c0.036-1.548-1.195-3.478-0.119-4.756
		c0.369,0.006,0.643,0.078,0.912,0.154c1.525,1.269,1.842,4.318,4.099,4.334c1.652-1.558-0.101-3.652,0.007-5.438
		c3.126-0.494,5.111,3.843,8.333,4.571c1.165-2.16-0.516-4.561-1.31-7.601c-0.19-0.727,0.021-1.462-0.124-2.084
		c-0.261-1.124-2.378-3.128-0.358-4.085c0.987,0.534,1.917,1.31,3.097,1.417"/>
	<path fill="none" stroke="#000000" stroke-width="1.1006" stroke-linecap="round" d="M350.059,144.965
		c0.36-2.481-3.929-6.523-0.084-7.341c-0.05-0.281-0.07-0.69-0.089-1.105c-0.48-1.908-2.372-2.845-2.684-4.688
		c-0.27-0.167-0.543-0.378-0.818-0.592c-0.128-0.496-0.029-0.927,0.079-1.354c2.536-0.884,4.902,1.441,7.43,0.592
		c0.021-0.623-0.317-1.237-0.542-1.748c-1.052-0.664-2.876-3.12-4.368-4.436c-1.701-1.501-4.467-2.2-5.295-4.469
		c0.31-0.255,0.647-0.336,0.988-0.409c1.696,0.466,3.528,0.376,5.268,0.211c0.316-1.183-1.127-1.811-1.694-2.646
		c-5.663-3.153-11.251-6.771-17.669-7.948c-0.189-1.477,2.625-1.433,2.167-3.127c-1.483-1.009-3.558,0.134-5.024-0.743
		c0.852-2.733,3.701-4.417,5.886-6.098c0.183-0.353,0.267-0.624,0.346-0.89c-5.619-0.517-11.631,0.813-17.184,1.269
		c-0.603-1.669,2.118-2.021,1.964-3.425c-0.745-0.439-2.165-0.486-3.001-0.188c-1.51,0.556-3.063,1.233-4.726,1.573
		c-0.623-0.585-0.479-1.583-0.211-2.018c0.213-0.081,0.367-0.196,0.519-0.313c0.304-1.666,2.561-2.603,1.881-4.669
		c-0.33-0.04-1.223,0.059-2.085,0.075c-3.349,2.018-6.699,4.083-9.963,5.907c-0.686-0.586-1.032-1.194-1.561-1.686
		c-0.354-1.748-1.6-2.815-2.157-4.382c-0.532-0.358-1.483-1.012-2.038-0.819c-0.69,0.99-0.01,2.761-1.141,3.484
		c-0.354-0.05-0.823-0.282-1.223-0.517c-0.487-2.246-2.985-2.856-4.406-4.357c-0.333-1.383-1.704-2.974-3.188-2.97
		c-0.734,1.756,0.96,3.882,0.141,5.564c-2.036-0.404-3.853-1.593-5.341-2.982c-1.111-0.23-1.792-0.562-2.219-0.358
		c-0.45,1.161,0.01,2.387,0.481,3.457c-1.681,1.059-3.292-0.8-4.836-1.63c-0.829-0.444-1.821-0.574-2.562-1.108
		c-0.889-0.641-1.127-0.834-2.905-1.483c-1.795-0.654-2.729-2.292-6.147-2.456c-0.216,0.609-0.163,1.03-0.114,1.377
		c1.462,1.677,2.81,7.935,3.61,12.061c-3.223,1.021-6.789-1.158-9.788,0.363c0.315,1.877,2.711,2.602,2.877,4.576
		c-2.028,1.111-4.944-0.36-6.864,0.803c0.174,0.698,0.883,1.416,1.013,2.131c-6.014,1.328-12.62,0.61-18.667,1.767
		c-0.193,0.427-0.095,0.792-0.037,1.168c0.404,0.256,0.792,0.59,1.154,0.938c1.316,0.106,2.021,1.398,2.917,2.198
		c2.48,0.422,5.909,1.714,6.647,4.172c-0.389,0.26-0.773,0.594-1.133,0.942c-1.442,0.442-2.693,1.313-4.216,1.631"/>
	<path fill="none" stroke="#000000" stroke-width="1.5514" stroke-linecap="round" d="M350.059,144.965
		c0.1,0.244,0.143,0.487,0.183,0.73"/>
	<path fill="none" stroke="#000000" stroke-width="1.4988" stroke-linecap="round" d="M279.303,190.307
		c1.448-0.062,3.042-0.223,4.021,1.097"/>
	<path fill="none" stroke="#000000" stroke-width="1.115" stroke-linecap="round" d="M283.325,191.405
		c1.983-1.63,6.369-1.506,9.281-2.42c0.673-0.211,1.381-0.603,2.055-0.14"/>
	<path fill="none" stroke="#000000" stroke-width="1.05" stroke-linecap="round" d="M294.66,188.844
		c0.084-0.16,0.168-0.319,0.252-0.479c2.25-1.251,5.51-1.995,8.313-3.389c5.11-2.54,8.415-5.834,14.244-6.233
		c3.824-0.263,6.728-3.518,8.471-6.143c-0.015-1.649,0.802-2.957,1.631-4.232"/>
	<path fill="none" stroke="#000000" stroke-width="1.0857" stroke-linecap="round" d="M327.571,168.367
		c-0.483-3.083-0.865-6.479-2.776-8.927c-0.592-0.139-0.987-0.474-1.399-0.793c-0.423-0.087-0.871-0.111-1.32-0.135
		c-1.972,0.911-4.029,1.684-6.021,2.542"/>
	<path fill="none" stroke="#000000" stroke-width="1.4004" stroke-linecap="round" d="M316.052,161.054
		c-0.107,0.365-0.308,0.731-0.549,1.097"/>
	<path fill="none" stroke="#000000" stroke-width="1.1204" stroke-linecap="round" d="M316.052,161.054
		c-1.436-5.674-2.296-11.62-4.741-16.622c-0.388-0.132-0.829-0.208-1.17-0.32"/>
	<path fill="none" stroke="#000000" stroke-width="1.2" stroke-linecap="round" d="M310.14,144.112
		c-0.846,0.578-0.92,2.637-2.321,2.196c-1.321-4.214-2.692-7.889-5.479-11.216"/>
	<path fill="none" stroke="#000000" stroke-width="0.9203" stroke-linecap="round" d="M296.001,138.261
		c0.782,0.413,1.787,0.375,2.451,0.717c1.021,2.746,3.857,4.838,3.771,7.894c-2.306-0.483-3.634-3.524-6.451-3.338
		c-5.66,0.897-10.316,4.702-15.739,6.186"/>
	<path fill="none" stroke="#000000" stroke-width="1.2474" stroke-linecap="round" d="M280.034,149.719
		c-1.385,0.616-2.043,2.269-3.291,2.925"/>
	<path fill="none" stroke="#000000" stroke-width="1.6353" stroke-linecap="round" d="M263.945,285.379
		c0.058,0.646-0.063,1.635-0.365,2.561"/>
	<path fill="none" stroke="#000000" stroke-width="1.0765" stroke-linecap="round" d="M272.721,313.17
		c1.51-0.052,2.558,1.121,4.021,1.098"/>
	<path fill="none" stroke="#000000" stroke-width="1.2667" stroke-linecap="round" d="M271.867,315.241
		c1.057,1.47,3.169,1.029,4.146,2.683"/>
	<path fill="none" stroke="#000000" stroke-width="1.3045" stroke-linecap="round" d="M276.012,317.924
		c1.146-0.693,2.371,0.012,3.556,0.104c0.313,0.301,0.414,0.594,0.588,0.869"/>
	<path fill="none" stroke="#000000" stroke-width="1.6945" stroke-linecap="round" d="M280.156,318.899
		c2.346,0.85,4.821,1.039,7.191,1.768"/>
	<path fill="none" stroke="#000000" stroke-width="1.6353" stroke-linecap="round" d="M287.347,320.665
		c0.821-0.229,2.11-0.211,3.291,0.185"/>
	<path fill="none" stroke="#000000" stroke-width="1.0357" stroke-linecap="round" d="M290.638,320.85
		c4.058-1.086,8.465-2.398,12.323-3.492c0.129-0.035,0.341,0.217,0.476,0.201"/>
	<path fill="none" stroke="#000000" stroke-width="1.0248" stroke-linecap="round" d="M303.437,317.559
		c0.736-1.184,2.228-0.728,3.288-1.096c2.658-0.929,5.662-2.507,8.199-3.507c2.878-1.133,6.018-2.016,6.607-5.616
		c-2.536-3.814-5.529-7.009-5.297-12.088"/>
	<path fill="none" stroke="#000000" stroke-width="0.8924" stroke-linecap="round" d="M316.235,295.252
		c-1.754-0.123-2.625,1.791-3.82,2.762c-3.787,0.918-7.718-0.844-9.832-3.979"/>
	<path fill="none" stroke="#000000" stroke-width="1.2862" stroke-linecap="round" d="M302.583,294.033
		c-2.999,0.12-6.495-1.441-7.833-4.24c-0.062-3.164,0.778-6.398,1.73-9.908c1.139-4.197,2.56-6.543,5.655-8.238
		c0.067-0.176,0.136-0.352,0.203-0.526"/>
	<path fill="none" stroke="#000000" stroke-width="0.8957" stroke-linecap="round" d="M264.31,224.314
		c0.443,0.044,0.772,0.202,1.097,0.366"/>
	<path fill="none" stroke="#000000" stroke-width="1.7151" stroke-linecap="round" d="M260.288,239.306
		c0.476,0.214,1.185,0.613,1.828,1.097"/>
	<path fill="none" stroke="#000000" stroke-width="1.1495" stroke-linecap="round" d="M257.363,264.719
		c0.124,0.041,0.247,0.082,0.371,0.121c1.677,2.004,1.895,4.565,3.005,6.938c0.167,0.357,0.712,0.345,0.842,0.601
		c1.616,3.186,3.625,6.74,4.437,9.955"/>
	<path fill="none" stroke="#000000" stroke-width="0.99" stroke-linecap="round" d="M266.017,282.332
		c1.756,1.844,2.387,4.367,4.122,5.903c1.991-0.868,3.79-2.141,5.305-3.791c1.42,0.386,1.9-0.911,2.935-1.452
		c4.458-2.332,8.984-4.552,13.514-6.964c0.438-0.233,0.686-0.842,1.112-1.079c2.567-1.439,5.381-2.093,7.31-4.394
		c0.642-0.09,1.164-0.299,1.66-0.535"/>
	<path fill="none" stroke="#000000" stroke-width="1.0343" stroke-linecap="round" d="M301.974,270.022
		c0.243-0.244,0.486-0.485,0.73-0.729"/>
	<path fill="none" stroke="#000000" stroke-width="0.9925" stroke-linecap="round" d="M302.705,269.291
		c-1.205-1.463-3.737-2.063-4.193-4.373c1.141-2.947,4.397-3.756,6.754-5.5"/>
	<path fill="none" stroke="#000000" stroke-width="2.0359" stroke-linecap="round" d="M305.265,259.418
		c0.18-2.234-0.427-4.396-0.731-6.582"/>
	<path fill="none" stroke="#000000" stroke-width="0.9023" stroke-linecap="round" d="M304.533,252.836
		c-3.226-0.146-5.929,2.021-8.924,2.774c-0.677,0.142-1.293,0.063-1.826-0.08c-0.22-0.262-0.557-0.409-0.899-0.555
		c-0.484-0.488-0.845-1.104-1.354-1.567c-0.09-0.421-0.116-0.867-0.14-1.314c1.146-2.021,3.892-4.926,0.864-6.744
		c-0.419-1.373,1.323-1.959,1.677-3.119"/>
	<path fill="none" stroke="#000000" stroke-width="1.0616" stroke-linecap="round" d="M293.929,242.231
		c-1.455-0.543-4.233-1.666-3.548-3.648c1.162-0.859,2.477-1.82,2.816-3.298"/>
	<path fill="none" stroke="#000000" stroke-width="1.5481" stroke-linecap="round" d="M293.198,235.284
		c-0.27-6.672,0.688-13.188-0.366-19.746"/>
	<path fill="none" stroke="#000000" stroke-width="1.5514" stroke-linecap="round" d="M292.832,215.538
		c-0.443-0.2-0.772-0.286-1.097-0.366"/>
	<path fill="none" stroke="#000000" stroke-width="1.6078" stroke-linecap="round" d="M292.832,215.538
		c0.585-1.384,0.278-2.932,0.366-4.389"/>
	<path fill="none" stroke="#000000" stroke-width="0.9675" stroke-linecap="round" d="M302.705,269.291
		c1.317-0.519,3.079-0.611,4.388,0"/>
	<path fill="none" stroke="#000000" stroke-width="0.8957" stroke-linecap="round" d="M301.974,270.022
		c0.199,0.287,0.286,0.689,0.365,1.099"/>
	<path fill="none" stroke="#000000" stroke-width="1.133" stroke-linecap="round" d="M302.34,271.119
		c1.29-0.154,2.411,0.618,3.657,0.729"/>
	<path fill="none" stroke="#000000" stroke-width="1.2061" stroke-linecap="round" d="M302.583,294.033
		c0.628-1.566,1.197-3.06,1.796-4.636c-0.582-1.789-1.317-4.123-3.502-4.385"/>
	<path fill="none" stroke="#000000" stroke-width="1.1066" stroke-linecap="round" d="M316.235,295.252
		c2.236-1.558,5.912-1.174,7.487-4.213c0.624-0.107,1.021-0.443,1.44-0.752c0.871-0.105,1.852-0.103,2.55-0.377
		c4.224-1.689,4.321-10.716,2.44-15.896c-1.161-3.201-2.588-5.877-5.508-6.918"/>
	<path fill="none" stroke="#000000" stroke-width="0.9812" stroke-linecap="round" d="M324.645,267.096
		c-0.78,0.439-1.492,0.947-1.829,1.83"/>
	<path fill="none" stroke="#000000" stroke-width="1.895" stroke-linecap="round" d="M324.645,267.096
		c1.695-2.686,1.134-6.164,0.874-9.146c-1.16-1.293-2.95-0.125-4.409-0.238"/>
	<path fill="none" stroke="#000000" stroke-width="1.1474" stroke-linecap="round" d="M321.11,257.711
		c-0.555,1.637-3.048,0.778-4.388,1.219"/>
	<path fill="none" stroke="#000000" stroke-width="0.9148" stroke-linecap="round" d="M316.722,258.93
		c-3.311,1.025-6.626,2.549-9.887,3.248c-0.138,0.029-0.333-0.211-0.474-0.201"/>
	<path fill="none" stroke="#000000" stroke-width="0.9168" stroke-linecap="round" d="M306.362,261.977
		c-0.159,0.33-0.355,0.621-0.552,0.912c-0.396,0.09-0.835,0.139-1.276,0.187"/>
	<path fill="none" stroke="#000000" stroke-width="1.3876" stroke-linecap="round" d="M316.6,257.223
		c-1.053-2.322-1.146-5.025-1.584-7.557"/>
	<path fill="none" stroke="#000000" stroke-width="0.9251" stroke-linecap="round" d="M305.265,259.418
		c0.601,1.033,0.692,1.887,1.097,2.559"/>
	<path fill="none" stroke="#000000" stroke-width="1.1563" stroke-linecap="round" d="M304.533,252.836
		c3.266-1.605,6.772-2.947,10.482-3.17"/>
	<path fill="none" stroke="#000000" stroke-width="1.0237" stroke-linecap="round" d="M315.016,249.666
		c2.015-2.129,5.319-1.388,7.729-2.752c0.567-0.437,0.797-1.187,0.979-1.738c-1.679-2.389-4.487-4.885-2.203-8.033
		c-0.346-1.852-0.798-3.704-1.822-5.324c-1.571-1.238-3.446-1.562-5.293-2.02"/>
	<path fill="none" stroke="#000000" stroke-width="0.9981" stroke-linecap="round" d="M314.406,229.799
		c-7.411,1.078-14.438,2.609-21.208,5.485"/>
	<path fill="none" stroke="#000000" stroke-width="1.0081" stroke-linecap="round" d="M293.929,242.231
		c3.024-0.61,5.481-2.754,8.409-3.291"/>
	<path fill="none" stroke="#000000" stroke-width="1.6657" stroke-linecap="round" d="M290.516,322.678
		c0.151,2.129,1.465,4.018,1.219,6.217"/>
	<path fill="none" stroke="#000000" stroke-width="1.2346" stroke-linecap="round" d="M291.735,328.895
		c0.036,0.121,0.072,0.244,0.107,0.367c4.578,1.469,10.243,2.363,14.642-0.125"/>
	<path fill="none" stroke="#000000" stroke-width="1.379" stroke-linecap="round" d="M304.533,320.85
		c-0.767-0.924-1.209-2.086-1.097-3.291"/>
	<path fill="none" stroke="#000000" stroke-width="1.4627" stroke-linecap="round" d="M294.66,189.21c0-0.122,0-0.244,0-0.366"/>
	<path fill="none" stroke="#000000" stroke-width="0.9449" stroke-linecap="round" d="M278.206,200.18
		c2.722-0.465,8.313-3.29,12.544-5.007c1.208-0.49,3.406-0.928,4.095-2.672"/>
	<path fill="none" stroke="#000000" stroke-width="1.0365" stroke-linecap="round" d="M276.377,202.009
		c0.084,0.16,0.168,0.32,0.252,0.479c0.625,0.745,1.896,0.563,2.457,0.033c0.68-0.141,1.296-0.063,1.823,0.084
		c0.162,0.32,0.383,0.585,0.608,0.848c1.114,2.622,1.433,5.971,3.217,8.035c1.949-1.236,2.575-3.928,4.608-5.288
		c4.674-2.522,8.214-8.475,14.094-7.115"/>
	<path fill="none" stroke="#000000" stroke-width="1.0648" stroke-linecap="round" d="M303.437,199.083
		c1.386-1.393-0.398-2.871-0.533-4.356c-0.196-2.155,1.495-3.949,0.695-6.06c-3.019-0.639-5.914,0.723-8.938,0.543"/>
	<path fill="none" stroke="#000000" stroke-width="1.5609" stroke-linecap="round" d="M294.66,189.21
		c-0.015,1.25-0.023,2.485,0.184,3.291"/>
	<path fill="none" stroke="#000000" stroke-width="1.0343" stroke-linecap="round" d="M294.844,192.501
		c0.6-0.21,1.471-0.321,2.377-0.366"/>
	<path fill="none" stroke="#000000" stroke-width="1.3435" stroke-linecap="round" d="M247.198,283.114
		c0.141,0.072,0.283,0.144,0.424,0.216c0.92,0.203,1.783-0.06,2.396-0.226c0.933-4.936,2.061-10.508,5.335-14.36"/>
	<path fill="none" stroke="#000000" stroke-width="1.746" stroke-linecap="round" d="M255.352,268.742
		c0.252-1.437,0.397-3.492,2.011-4.023"/>
	<path fill="none" stroke="#000000" stroke-width="1.2053" stroke-linecap="round" d="M257.363,264.719
		c-0.604-1.836-0.345-3.229-0.075-5.627c0.713-6.318,1.689-13.947,3-19.786"/>
	<path fill="none" stroke="#000000" stroke-width="1.3367" stroke-linecap="round" d="M260.288,239.306
		c0.847-4.962,2.037-10.117,3.508-14.776c0.036-0.114,0.451-0.109,0.515-0.216"/>
	<path fill="none" stroke="#000000" stroke-width="1.1132" stroke-linecap="round" d="M264.31,224.314
		c0.147-4.014,2.791-9.927,4.586-12.227c-0.083-1.147,0.684-1.642,1.63-2.034"/>
	<path fill="none" stroke="#000000" stroke-width="1.5798" stroke-linecap="round" d="M270.527,210.053
		c0.029-0.336,0.207-0.525,0.366-0.731"/>
	<path fill="none" stroke="#000000" stroke-width="0.9695" stroke-linecap="round" d="M270.892,209.322
		c0.146-3.156,3.198-5.707,5.484-7.313"/>
	<path fill="none" stroke="#000000" stroke-width="0.9121" stroke-linecap="round" d="M276.377,202.009
		c0.78-0.438,1.492-0.946,1.829-1.828"/>
	<path fill="none" stroke="#000000" stroke-width="1.0163" stroke-linecap="round" d="M278.206,200.18
		c-0.141-1.712,1.087-3.462,2.715-3.867c1.224-1.458,1.407-3.368,2.404-4.909"/>
	<path fill="none" stroke="#000000" stroke-width="0.9488" stroke-linecap="round" d="M264.676,206.762
		c1.625-0.139,3.437-0.455,4.755-1.463"/>
	<path fill="none" stroke="#000000" stroke-width="1.0626" stroke-linecap="round" d="M266.87,203.106
		c1.02,0.03,1.566-0.173,2.146-0.404c0.379-0.635,0.635-1.293,0.78-1.973"/>
	<path fill="none" stroke="#000000" stroke-width="1.0256" stroke-linecap="round" d="M270.527,210.053
		c0.219,0.754,0.455,1.507,1.052,1.869c0.368,0.097,0.953-0.022,1.55-0.017c0.935-0.669,1.401-2.515,0.482-3.506
		c-1.071-0.438-1.677,0.905-2.719,0.922"/>
	<path fill="none" stroke="#000000" stroke-width="1.2611" stroke-linecap="round" d="M265.407,224.68
		c-0.068,0.839,0.12,1.629,0.563,2.372c0.829,0.193,1.817,0.204,2.51-0.04c0.773-1.089,1.173-2.513,0.502-3.762
		C267.614,222.172,265.944,223.323,265.407,224.68"/>
	<path fill="none" stroke="#000000" stroke-width="0.9838" stroke-linecap="round" d="M252.243,237.112
		c0.593-2.617,2.32-5.35,1.463-8.044"/>
	<path fill="none" stroke="#000000" stroke-width="1.1719" stroke-linecap="round" d="M248.952,250.276
		c1.338-4.176,2.478-8.719,3.291-13.164"/>
	<path fill="none" stroke="#000000" stroke-width="1.1171" stroke-linecap="round" d="M252.243,237.112
		c-0.677-0.229-1.418-0.728-1.887-1.393c-0.149-0.999,0.438-1.914,0.302-2.873"/>
	<path fill="none" stroke="#000000" stroke-width="0.905" stroke-linecap="round" d="M262.116,240.403
		c0.833,1.169,1.262,1.859,2.249,2.131c1.822-0.441,1.868-3.14,0.508-4.156c-0.413-0.093-0.864-0.127-1.315-0.159
		C263.037,238.53,262.82,239.529,262.116,240.403"/>
	<path fill="none" stroke="#000000" stroke-width="0.8957" stroke-linecap="round" d="M321.11,257.711
		c-1.313-0.867-3.033-0.314-4.51-0.488"/>
	<path fill="none" stroke="#000000" stroke-width="1.5685" stroke-linecap="round" d="M316.6,257.223
		c-0.007,0.76,0.056,1.24,0.122,1.707"/>
	<path fill="none" stroke="#000000" stroke-width="0.9751" stroke-linecap="round" d="M242.371,260.149
		c-0.041,0.529,0.089,0.888,0.228,1.236c0.675,0.543,1.569,0.867,2.333,1.324"/>
	<path fill="none" stroke="#000000" stroke-width="1.1849" stroke-linecap="round" d="M244.93,262.709
		c0.383-1.039,0.698-2.164,0.73-3.291"/>
	<path fill="none" stroke="#000000" stroke-width="1.1102" stroke-linecap="round" d="M234.326,288.67
		c2.132-2.354,1.275-5.854,1.463-8.775"/>
	<path fill="none" stroke="#000000" stroke-width="1.5592" stroke-linecap="round" d="M246.21,294.156
		c0.249-1.547,0.398-3.26-0.183-4.754"/>
	<path fill="none" stroke="#000000" stroke-width="1.1668" stroke-linecap="round" d="M246.027,289.403
		c-1.391,0.623-1.98,1.111-2.925,1.464"/>
	<path fill="none" stroke="#000000" stroke-width="1.6353" stroke-linecap="round" d="M246.027,289.403
		c0.946-1.989-0.438-4.541,1.17-6.289"/>
	<path fill="none" stroke="#000000" stroke-width="1.5623" stroke-linecap="round" d="M247.198,283.114
		c-1.465-6.643-2.602-13.463-2.267-20.403"/>
	<path fill="none" stroke="#000000" stroke-width="1.056" stroke-linecap="round" d="M255.352,268.742
		c3.936,4.997,2.911,12.918,8.593,16.637"/>
	<path fill="none" stroke="#000000" stroke-width="1.1691" stroke-linecap="round" d="M263.945,285.379
		c1.427-0.59,0.516-2.719,2.072-3.047"/>
	<path fill="none" stroke="#000000" stroke-width="1.0115" stroke-linecap="round" d="M263.945,317.559
		c2.255-1.769,5.252-1.482,7.923-2.316"/>
	<path fill="none" stroke="#000000" stroke-width="1.2237" stroke-linecap="round" d="M271.867,315.241
		c0.153-0.391,0.418-1.338,0.854-2.071"/>
	<path fill="none" stroke="#000000" stroke-width="1.3621" stroke-linecap="round" d="M272.721,313.17
		c-0.158-0.086-0.316-0.173-0.476-0.257c-2.185-4.065-0.502-9.684-0.89-14.327c-0.409-2.521-3.857-1.842-4.97-3.719
		c0.059-0.285,0.083-0.695,0.105-1.113c0.376-0.576,0.713-1.215,1.108-1.793"/>
	<path fill="none" stroke="#000000" stroke-width="0.8445" stroke-linecap="round" d="M267.601,291.961
		c-0.519-0.213-0.851-0.611-1.098-1.097"/>
	<path fill="none" stroke="#000000" stroke-width="0.8653" stroke-linecap="round" d="M266.505,290.865
		c-0.964,0.104-1.397-0.678-2.193-1.463"/>
	<path fill="none" stroke="#000000" stroke-width="1.9349" stroke-linecap="round" d="M264.31,289.403
		c-0.244-0.487-0.487-0.975-0.731-1.463"/>
	<path fill="none" stroke="#000000" stroke-width="1.0949" stroke-linecap="round" d="M263.579,287.94
		c-3.854-1.994-4.779-6.914-8.045-9.508"/>
	<path fill="none" stroke="#000000" stroke-width="1.0343" stroke-linecap="round" d="M266.505,290.133
		c-0.072-0.17-0.146-0.34-0.218-0.512c-0.803-0.142-1.342-0.158-1.976-0.22"/>
	<path fill="none" stroke="#000000" stroke-width="0.9675" stroke-linecap="round" d="M267.601,291.961
		c0.305-0.521,0.229-1.14,0.132-1.615c-0.37-0.104-0.798-0.16-1.229-0.213"/>
	<path fill="none" stroke="#000000" stroke-width="0.9441" stroke-linecap="round" d="M266.505,290.133c0,0.244,0,0.488,0,0.731"/>
	<path fill="none" stroke="#000000" stroke-width="1.1563" stroke-linecap="round" d="M263.762,320.485
		c0.393,2.291,0.691,4.588,0.548,6.947"/>
	<path fill="none" stroke="#000000" stroke-width="1.1982" stroke-linecap="round" d="M264.31,327.432
		c4.478,0.51,9.971,0.693,13.529-2.195"/>
	<path fill="none" stroke="#000000" stroke-width="1.5711" stroke-linecap="round" d="M277.84,325.237
		c0.37-1.852-0.53-3.457-1.097-5.119"/>
	<path fill="none" stroke="#000000" stroke-width="2.0685" stroke-linecap="round" d="M276.743,320.116
		c-0.265-0.569-0.507-1.317-0.73-2.192"/>
	<path fill="none" stroke="#000000" stroke-width="1.0343" stroke-linecap="round" d="M276.743,320.116
		c1.239-0.754,2.47-0.588,3.413-1.219"/>
	<path fill="none" stroke="#000000" stroke-width="0.9876" stroke-linecap="round" d="M264.31,344.252
		c2.477,1.479,4.917,3.389,8.042,2.92c4.456-1.74,7.979-5.136,12.679-6.334"/>
	<path fill="none" stroke="#000000" stroke-width="1.3256" stroke-linecap="round" d="M285.031,340.838
		c0.333-0.941,0.679-1.873,1.036-2.804"/>
	<path fill="none" stroke="#000000" stroke-width="1.2842" stroke-linecap="round" d="M286.068,338.034
		c-1.078-1.541-0.389-3.116-0.184-4.754"/>
	<path fill="none" stroke="#000000" stroke-width="1.3115" stroke-linecap="round" d="M285.885,333.281
		c-1.019-1.199-2.337-2.112-3.477-3.246c-0.125-0.521-0.147-1.192-0.177-1.776c1.425-2.271,4.551-3.215,5.969-5.459"/>
	<path fill="none" stroke="#000000" stroke-width="1.097" stroke-linecap="round" d="M288.2,322.799
		c-0.445-0.779-0.697-1.433-0.853-2.133"/>
	<path fill="none" stroke="#000000" stroke-width="0.8957" stroke-linecap="round" d="M277.84,325.237
		c1.293-0.01,1.714-0.551,2.561-0.729"/>
	<path fill="none" stroke="#000000" stroke-width="0.8957" stroke-linecap="round" d="M264.31,327.432c-1.706,0-3.413,0-5.119,0"/>
	<path fill="none" stroke="#000000" stroke-width="1.379" stroke-linecap="round" d="M256.632,335.842
		c0.847,0.742,2.113,0.426,2.926,1.096"/>
	<path fill="none" stroke="#000000" stroke-width="1.0343" stroke-linecap="round" d="M259.557,336.938
		c1.415-0.051,1.864,0.34,2.193,0.732"/>
	<path fill="none" stroke="#000000" stroke-width="0.8878" stroke-linecap="round" d="M261.751,337.67
		c2.645,0.219,4.855,1.653,7.313,2.559"/>
	<path fill="none" stroke="#000000" stroke-width="1.5798" stroke-linecap="round" d="M261.751,337.67c0,0.243,0,0.485,0,0.729"/>
	<path fill="none" stroke="#000000" stroke-width="1.1943" stroke-linecap="round" d="M286.068,338.034
		c0.946-0.018,1.552,0.234,2.187,0.562c0.108,0.399,0.142,0.84,0.168,1.283c-0.555,0.922-1.054,1.875-1.44,2.909"/>
	<path fill="none" stroke="#000000" stroke-width="0.9638" stroke-linecap="round" d="M286.982,342.788
		c1.695,1.597,3,3.802,5.459,4.55c0.313-0.086,0.73-0.117,1.154-0.146c1.709-1.104,3.646-1.557,5.452-2.574"/>
	<path fill="none" stroke="#000000" stroke-width="0.8957" stroke-linecap="round" d="M299.049,344.616
		c0.257-0.453,0.279-1.35,0.366-2.192"/>
	<path fill="none" stroke="#000000" stroke-width="1.0343" stroke-linecap="round" d="M299.414,342.424
		c-0.436,0.209-1.313,0.319-2.193,0.364"/>
	<path fill="none" stroke="#000000" stroke-width="1.0802" stroke-linecap="round" d="M299.414,342.424
		c4.616-3.027,10.23-3.697,15.725-4.023"/>
	<path fill="none" stroke="#000000" stroke-width="1.0802" stroke-linecap="round" d="M315.138,338.401
		c1.106-1.588,0.119-3.18-1.221-4.045c3.511-5.35,3.416-9.219-0.776-11.875c-1.487-0.943-5.085-2.07-7.891-2.129
		c-0.234-0.006-0.48,0.469-0.717,0.498"/>
	<path fill="none" stroke="#000000" stroke-width="1.6836" stroke-linecap="round" d="M304.533,320.85
		c0.237,2.914,2.219,5.313,1.95,8.287"/>
	<path fill="none" stroke="#000000" stroke-width="1.0156" stroke-linecap="round" d="M306.484,329.137
		c1.606,0.328,2.661-1.094,3.899-1.705"/>
	<path fill="none" stroke="#000000" stroke-width="1.0014" stroke-linecap="round" d="M291.735,328.895
		c-1.732,0.115-2.584-0.182-3.291-0.732"/>
	<path fill="none" stroke="#000000" stroke-width="0.7313" stroke-linecap="round" d="M285.885,333.281c0.365,0,0.73,0,1.097,0"/>
	<path fill="none" stroke="#000000" stroke-width="1.5514" stroke-linecap="round" d="M288.2,322.799
		c0.687-0.109,1.615-0.103,2.316-0.121"/>
	<path fill="none" stroke="#000000" stroke-width="2.2541" stroke-linecap="round" d="M290.516,322.678
		c0.085-0.476,0.093-1.185,0.122-1.828"/>
	<path fill="none" stroke="#000000" stroke-width="1.0014" stroke-linecap="round" d="M250.659,340.838
		c3.433,0.95,5.842,3.475,8.167,5.973"/>
	<path fill="none" stroke="#000000" stroke-width="1.0034" stroke-linecap="round" d="M258.825,346.811
		c1.956-0.631,3.474-2.355,5.485-2.559"/>
	<path fill="none" stroke="#000000" stroke-width="1.1849" stroke-linecap="round" d="M264.31,344.252
		c0.757-2.621-1.946-3.937-2.561-5.853"/>
	<path fill="none" stroke="#000000" stroke-width="0.9902" stroke-linecap="round" d="M259.557,336.938
		c0.087,0.385,0.318,0.863,0.56,1.277c0.439,0.092,1.033,0.141,1.634,0.186"/>
	<path fill="none" stroke="#000000" stroke-width="0.8957" stroke-linecap="round" d="M285.031,340.838
		c0.334,0.746,1.098,1.188,1.95,1.95"/>
	
		<line fill="none" stroke="#000000" stroke-width="2.3127" stroke-linecap="round" x1="286.982" y1="342.788" x2="286.982" y2="342.788"/>
	<path fill="none" stroke="#000000" stroke-width="1.4627" stroke-linecap="round" d="M285.763,354.735
		c0.769,0.932,0.735,1.672,0.853,2.316"/>
	<path fill="none" stroke="#000000" stroke-width="1.0753" stroke-linecap="round" d="M290.638,367.655
		c3.927,4.01,8.449,7.049,12.595,10.808c2.813,0.53,4.871,2.426,7.303,3.668c3.734,0.774,6.51,2.086,11.878,2.637
		c5.458,0.561,10.465,0.324,15.359-0.576c4.334-0.795,11.146-2.172,10.272-9.588"/>
	<path fill="none" stroke="#000000" stroke-width="1.0767" stroke-linecap="round" d="M348.048,374.602
		c-11.658,7.01-27.875,5.607-39.65-0.576c-0.171-0.332-0.325-0.6-0.479-0.865c-0.222-5.215,0.021-12,5.224-14.45
		c4.919-4.582,12.616-6.105,19.427-5.438"/>
	<path fill="none" stroke="#000000" stroke-width="1.0468" stroke-linecap="round" d="M332.568,353.272
		c0.032-0.129,0.063-0.258,0.096-0.387c-2.228-5.504-8.139-8.479-13.503-10.097"/>
	<path fill="none" stroke="#000000" stroke-width="1.5514" stroke-linecap="round" d="M319.16,342.788
		c-0.752,0.257-1.295,0.279-1.828,0.365"/>
	<path fill="none" stroke="#000000" stroke-width="0.9902" stroke-linecap="round" d="M301.242,351.198
		c-0.248,0.48-0.586,0.881-0.949,1.267c-0.111,0.442-0.014,0.768,0.095,1.088c2.813,1.285,5.203,3.021,7.618,4.776
		c0.123,0.609,0.145,1.32,0.185,2.013"/>
	<path fill="none" stroke="#000000" stroke-width="0.9675" stroke-linecap="round" d="M301.242,351.198
		c0.519-1.155,1.687-1.776,2.194-2.926"/>
	<path fill="none" stroke="#000000" stroke-width="0.8363" stroke-linecap="round" d="M303.437,348.274
		c-2-0.818-1.923-3.551-4.389-3.656"/>
	<path fill="none" stroke="#000000" stroke-width="0.9433" stroke-linecap="round" d="M286.982,350.102
		c1.396,0.803,2.262,2.213,3.763,2.82c3.387,0.565,5.752-3.002,9.177-2.58c0.396,0.324,0.911,0.539,1.321,0.856"/>
	<path fill="none" stroke="#000000" stroke-width="0.8957" stroke-linecap="round" d="M317.332,343.155
		c-0.397-0.819-0.325-2.36-0.366-3.291"/>
	<path fill="none" stroke="#000000" stroke-width="1.6353" stroke-linecap="round" d="M316.966,339.864
		c-0.773-0.711-1.519-1.082-1.827-1.463"/>
	<path fill="none" stroke="#000000" stroke-width="0.9874" stroke-linecap="round" d="M303.437,348.274
		c4.704-1.904,8.848-4.584,13.895-5.119"/>
	<path fill="none" stroke="#000000" stroke-width="1.8565" stroke-linecap="round" d="M319.16,342.788
		c0.044-1.396-0.866-2.559-2.194-2.926"/>
	<path fill="none" stroke="#000000" stroke-width="1.0434" stroke-linecap="round" d="M214.215,368.752
		c-0.171,0.204-0.341,0.411-0.512,0.618c-0.254,2.031-0.815,4.693,1.054,6.152c2.004,0.932,3.257,1.281,6.29,1.754
		c0.307,0.047,0.596,0.484,0.948,0.515c5.922,0.516,16.085,0.639,21.726-0.744c1.198-0.293,1.961-0.92,3.141-1.246
		c0.87-0.24,1.871-0.121,2.595-0.33c1.464-0.424,2.853-1.271,4.767-1.816c0.822-0.233,1.858-0.063,2.66-0.266
		c5.153-1.293,10.188-3.264,16.354-4.855c1.58-0.405,1.813-0.051,3.508-1.61"/>
	<path fill="none" stroke="#000000" stroke-width="1.0816" stroke-linecap="round" d="M276.743,366.922
		c1.081-5.234,5.321-8.918,9.021-12.188"/>
	<path fill="none" stroke="#000000" stroke-width="1.6216" stroke-linecap="round" d="M285.763,354.735
		c0.681-1.479,0.854-2.984,1.219-4.633"/>
	<path fill="none" stroke="#000000" stroke-width="1.5798" stroke-linecap="round" d="M286.982,350.102
		c-0.246-0.752-0.362-1.295-0.548-1.828"/>
	<path fill="none" stroke="#000000" stroke-width="1.0401" stroke-linecap="round" d="M258.825,346.811
		c0.437,1.176,0.635,2.547,1.487,3.518c2.246,0.994,3.785-1.899,5.969-0.731c2.262,1.615,4.811,2.59,7.521,3.037
		c4.589-0.699,8.253-3.086,12.63-4.359"/>
	<path fill="none" stroke="#000000" stroke-width="1.5999" stroke-linecap="round" d="M286.433,348.274
		c0.503-1.787-0.239-3.75,0.548-5.484"/>
	<path fill="none" stroke="#000000" stroke-width="1.1013" stroke-linecap="round" d="M214.215,368.752
		c8.938,3.762,19.842,3.295,29.253,0.629c0.72-3.861-0.848-8.078-3.091-11.402c-2.243-3.322-5.506-6.76-9.951-6.9"/>
	<path fill="none" stroke="#000000" stroke-width="1.1675" stroke-linecap="round" d="M348.048,374.602
		c0.09-0.158,0.178-0.316,0.267-0.475c-1.196-10.888-8.356-15.06-15.746-20.855"/>
	<path fill="none" stroke="#000000" stroke-width="1.2164" stroke-linecap="round" d="M276.743,366.922
		c2.814,0.838,5.544-0.941,7.847-2.382c0.129-0.905,0.787-1.684,1.295-2.129"/>
	<path fill="none" stroke="#000000" stroke-width="1.5077" stroke-linecap="round" d="M285.885,362.411
		c0.261-1.77-0.665-3.936,0.73-5.36"/>
	<path fill="none" stroke="#000000" stroke-width="1.3034" stroke-linecap="round" d="M285.885,362.411
		c1.146,1.785,1.615,6.298,4.754,5.242"/>
	<path fill="none" stroke="#000000" stroke-width="1.3916" stroke-linecap="round" d="M290.638,367.655
		c-0.137-1.51-0.289-3.065-0.536-4.541c-1.963-1.367-1.369-4.772-3.487-6.063"/>
	<path fill="none" stroke="#000000" stroke-width="1.0545" stroke-linecap="round" d="M327.571,168.367
		c2.702-2.865,3.712-7.12,5.485-10.604"/>
	<path fill="none" stroke="#000000" stroke-width="1.2147" stroke-linecap="round" d="M333.055,157.763
		c-0.232-0.762-0.299-1.289-0.475-1.784c-1.799-1.969-3.382-4.229-4.854-6.783c-0.897-1.558-2.874-2.368-3.658-4.392
		c-0.628-0.406-1.113-0.529-1.62-0.454c-0.84,1.623,0.1,3.656-0.739,5.327c-0.402,0.44-0.976,0.404-1.454,0.304
		c-0.756-2.529-2.741-4.019-3.502-6.644c-0.34-0.195-0.606-0.283-0.871-0.365c-1.342,4.551-2.477-1.831-4.905-1.53
		c-1.048,0.843-0.875,2.025-0.838,2.67"/>
	<path fill="none" stroke="#000000" stroke-width="0.9166" stroke-linecap="round" d="M294.66,138.383
		c-0.999,0.932-2.393,1.845-3.443,2.407c-0.555,0.297-1.328,0.078-1.826,0.366c-3.021,1.756-4.654,4.481-8.029,5.813
		c-0.115,1.083-1.229,1.652-1.327,2.75"/>
	<path fill="none" stroke="#000000" stroke-width="1.0821" stroke-linecap="round" d="M301.608,104.376
		c1.333-0.864,2.667-2.667,4.463-1.952c0.997,1.42-1.461,1.813-1.052,3.054c1.403,0.647,3.175,0.427,4.633-0.005"/>
	<path fill="none" stroke="#000000" stroke-width="1.0416" stroke-linecap="round" d="M320.623,163.614
		c-1.43,0.903-3.549,1.604-3.593,3.658c0.386,1.748,2.459,2.667,1.646,4.711c-0.977,0.539-1.188,1.713-1.709,2.602"/>
</g>
</svg>
