<?xml version="1.0" encoding="utf-8"?>
<!-- Generator: Adobe Illustrator 14.0.0, SVG Export Plug-In . SVG Version: 6.00 Build 43363)  -->
<!DOCTYPE svg PUBLIC "-//W3C//DTD SVG 1.1//EN" "http://www.w3.org/Graphics/SVG/1.1/DTD/svg11.dtd">
<svg version="1.1" id="图层_1" xmlns="http://www.w3.org/2000/svg" xmlns:xlink="http://www.w3.org/1999/xlink" x="0px" y="0px"
	 width="848px" height="480px" viewBox="0 0 848 480" enable-background="new 0 0 848 480" xml:space="preserve">
<g>
	<path fill-rule="evenodd" clip-rule="evenodd" fill="none" stroke="#000000" stroke-width="1.4342" stroke-linecap="round" d="
		M549.929,173.074c0.044,0.115,0.088,0.23,0.131,0.345c-0.93,1.022-0.662,2.61-1.865,3.471"/>
	<path fill-rule="evenodd" clip-rule="evenodd" fill="none" stroke="#000000" stroke-width="1.2171" stroke-linecap="round" d="
		M545.42,170.646c-0.807,1.678-0.072,3.547-1.041,5.204"/>
	<path fill-rule="evenodd" clip-rule="evenodd" fill="none" stroke="#000000" stroke-width="0.8498" stroke-linecap="round" d="
		M544.379,170.299c0.421,0.042,0.733,0.192,1.041,0.347"/>
	<path fill-rule="evenodd" clip-rule="evenodd" fill="none" stroke="#000000" stroke-width="0.9969" stroke-linecap="round" d="
		M545.42,170.646c0.488-0.668,0.887-1.426,1.24-2.229c0.661-0.476,1.467-0.965,2.314-0.947c1.496,1.425,0.779,3.759,0.955,5.604"/>
	<path fill-rule="evenodd" clip-rule="evenodd" fill="none" stroke="#000000" stroke-width="2.8041" stroke-linecap="round" d="
		M547.501,176.891c0.231,0,0.463,0,0.694,0"/>
	<path fill-rule="evenodd" clip-rule="evenodd" fill="none" stroke="#000000" stroke-width="1.2238" stroke-linecap="round" d="
		M549.929,173.074c-0.997-0.684-1.817-0.55-2.285-0.302c-0.017,1.401-2.261,2.214-0.52,3.671c0.125,0.149,0.251,0.298,0.376,0.448"
		/>
	<path fill-rule="evenodd" clip-rule="evenodd" fill="none" stroke="#000000" stroke-width="1.7481" stroke-linecap="round" d="
		M547.501,176.891c-1.146,0.936-2.201,3.411-0.296,4.165c2.063-0.076,2.077-2.976,0.99-4.165"/>
	<path fill-rule="evenodd" clip-rule="evenodd" fill="none" stroke="#000000" stroke-width="0.6938" stroke-linecap="round" d="
		M553.746,190.073c0.127,0.59-0.271,0.654-0.694,0.694c-0.413,0.305-0.886-0.502-0.693-0.694
		C552.59,189.842,553.461,190.251,553.746,190.073z"/>
	<path fill-rule="evenodd" clip-rule="evenodd" fill="none" stroke="#000000" stroke-width="0.9013" stroke-linecap="round" d="
		M657.127,287.905c0.328-1.625,1.002-4.348-0.347-5.551"/>
	<path fill-rule="evenodd" clip-rule="evenodd" fill="none" stroke="#000000" stroke-width="1.0286" stroke-linecap="round" d="
		M631.455,301.78c1.837,2.967,1.912,6.654,2.813,9.572c0.039,0.125,0.45,0.156,0.498,0.289c1.131,3.121,1.45,5.305,2.787,6.938
		c0.403,0.492,1.3,0.58,1.694,1.082c0.957,1.215,2.987,4.076,5.202,5.898c1.101,0.906,2.591,2.135,3.957,3.68
		c0.277,0.314,0.344,0.604,0.54,0.82c1.344,0.662,2.376,2.004,2.977,3.291"/>
	<path fill-rule="evenodd" clip-rule="evenodd" fill="none" stroke="#000000" stroke-width="1.3116" stroke-linecap="round" d="
		M621.048,308.026c0.506,2.184,1.135,3.621,1.594,5.344c0.147,0.555-0.08,1.365,0.135,1.945c1.677,4.521,1.187,5.793-0.267,10.021
		c-0.422,1.23-0.387,2.441-1.009,3.947c-1.033,2.5-0.963,5.117,0.097,8.012c0.84,1.201,1.753,2.432,3.073,3.172
		c0.128,1.387,1.808,1.885,1.928,3.291"/>
	<path fill-rule="evenodd" clip-rule="evenodd" fill="none" stroke="#000000" stroke-width="0.8807" stroke-linecap="round" d="
		M646.372,362.49c1.948,0.836,4.737,0.938,6.014-1.156"/>
	<path fill-rule="evenodd" clip-rule="evenodd" fill="none" stroke="#000000" stroke-width="0.9812" stroke-linecap="round" d="
		M652.385,361.334c-0.824-2.936-2.343-5.402-3.932-7.863"/>
	<path fill-rule="evenodd" clip-rule="evenodd" fill="none" stroke="#000000" stroke-width="1.0918" stroke-linecap="round" d="
		M652.385,361.334c2.106,1.262,4.869,2.322,6.822,0.115"/>
	<path fill-rule="evenodd" clip-rule="evenodd" fill="none" stroke="#000000" stroke-width="1.1392" stroke-linecap="round" d="
		M659.208,361.449c-0.352-3.174-2.452-5.373-3.815-7.979"/>
	<path fill-rule="evenodd" clip-rule="evenodd" fill="none" stroke="#000000" stroke-width="1.3548" stroke-linecap="round" d="
		M659.208,361.449c1.348-0.08,2.757,0.762,3.994-0.152c0.098-0.346,0.289-1.004,0.516-1.582"/>
	<path fill-rule="evenodd" clip-rule="evenodd" fill="none" stroke="#000000" stroke-width="1.4189" stroke-linecap="round" d="
		M663.718,359.715c-0.053-2.813-1.634-5.754-3.469-7.633"/>
	<path fill-rule="evenodd" clip-rule="evenodd" fill="none" stroke="#000000" stroke-width="1.0598" stroke-linecap="round" d="
		M663.718,359.715c1.078,1.152,2.802,0.656,3.687-0.371c0.08-0.455,0.181-0.945,0.304-1.363"/>
	<path fill-rule="evenodd" clip-rule="evenodd" fill="none" stroke="#000000" stroke-width="1.0939" stroke-linecap="round" d="
		M667.708,357.981c-0.394-2.826-1.927-5.707-3.99-7.633"/>
	<path fill-rule="evenodd" clip-rule="evenodd" fill="none" stroke="#000000" stroke-width="1.0944" stroke-linecap="round" d="
		M667.708,357.981c1.438,0.152,2.966,0.676,4.159-0.529c0.867-1.125,0.417-2.605-0.035-3.775
		c-5.728-5.576-10.762-12.566-17.134-17.551"/>
	<path fill-rule="evenodd" clip-rule="evenodd" fill="none" stroke="#000000" stroke-width="1.6287" stroke-linecap="round" d="
		M532.93,319.127c-2.819-1.043-4.973-3.592-6.811-6.262c-5.049-7.342-4.189-16.535-3.597-26.002"/>
	<path fill-rule="evenodd" clip-rule="evenodd" fill="none" stroke="#000000" stroke-width="1.4476" stroke-linecap="round" d="
		M522.523,286.864c-0.448-2.227,0.833-4.139,1.041-6.244"/>
	<path fill-rule="evenodd" clip-rule="evenodd" fill="none" stroke="#000000" stroke-width="1.3975" stroke-linecap="round" d="
		M523.564,280.619c0.234-2.018,0.655-3.826,1.291-5.648c3.073-8.795-0.501-17.258,0.097-26.27"/>
	<path fill-rule="evenodd" clip-rule="evenodd" fill="none" stroke="#000000" stroke-width="1.1126" stroke-linecap="round" d="
		M524.952,248.701c-0.352-1.648-0.295-3.197,0-4.855"/>
	<path fill-rule="evenodd" clip-rule="evenodd" fill="none" stroke="#000000" stroke-width="1.3698" stroke-linecap="round" d="
		M524.952,243.846c-0.491-4.762,0.803-9.193,1.04-13.877"/>
	<path fill-rule="evenodd" clip-rule="evenodd" fill="none" stroke="#000000" stroke-width="1.6995" stroke-linecap="round" d="
		M525.992,229.969c-0.055-0.925,0.06-1.85,0.348-2.775"/>
	<path fill-rule="evenodd" clip-rule="evenodd" fill="none" stroke="#000000" stroke-width="0.8654" stroke-linecap="round" d="
		M526.34,227.194c0.753-1.157,0.62-2.313,0.693-3.469"/>
	<path fill-rule="evenodd" clip-rule="evenodd" fill="none" stroke="#000000" stroke-width="0.9647" stroke-linecap="round" d="
		M527.033,223.724c0.369-1.318-1.143-1.63-1.895-2.269c-1.532-2.258-0.632-5.137-0.649-7.676"/>
	<path fill-rule="evenodd" clip-rule="evenodd" fill="none" stroke="#000000" stroke-width="1.1227" stroke-linecap="round" d="
		M524.489,213.78c-0.091-0.025-0.181-0.05-0.271-0.074c-0.737-0.295-0.638-1.404-1.536-1.576c-0.891-4.65,0.333-9.515,4.164-12.182
		c1.033-2.132,1.776-4.623,4.003-5.71"/>
	<path fill-rule="evenodd" clip-rule="evenodd" fill="none" stroke="#000000" stroke-width="1.3061" stroke-linecap="round" d="
		M530.849,194.237c5.438-14.197,1.361-30.002,4.722-44.547c3.503-4.84,6.25-10.104,11.236-13.908"/>
	<path fill-rule="evenodd" clip-rule="evenodd" fill="none" stroke="#000000" stroke-width="0.9398" stroke-linecap="round" d="
		M546.807,135.781c0-0.238,0.001-0.476,0.001-0.714c4.015-6.366,12.484-5.543,17.837-9.722c7.137-0.097,15.143-3.86,21.017,0.896"/>
	<path fill-rule="evenodd" clip-rule="evenodd" fill="none" stroke="#000000" stroke-width="1.1834" stroke-linecap="round" d="
		M585.662,126.241c2.16-0.541,7.901-0.483,10.537-0.129c1.877,0.251,5.07,1.361,6.98,2.733c0.646,0.463,1.057,1.322,1.721,1.753
		c0.731,0.474,1.789,0.546,2.434,1.03c1.07,0.804,5.457,4.834,6.095,5.806c3.855,5.879,5.326,16.299,3.621,24.572
		c-0.051,0.245-0.438,0.421-0.512,0.661"/>
	<path fill-rule="evenodd" clip-rule="evenodd" fill="none" stroke="#000000" stroke-width="1.5339" stroke-linecap="round" d="
		M616.538,162.667c0.03,3.736,0.073,7.569-0.509,11.246c-0.02,0.123-0.508,0.139-0.552,0.286c-1.108,3.672-1.171,7.402-1.37,11.949
		c-0.332,7.6-1.691,15.648-1.732,23.006"/>
	<path fill-rule="evenodd" clip-rule="evenodd" fill="none" stroke="#000000" stroke-width="1.5515" stroke-linecap="round" d="
		M612.375,209.154c0.263,3.046,1.785,5.89,1.388,9.02"/>
	<path fill-rule="evenodd" clip-rule="evenodd" fill="none" stroke="#000000" stroke-width="0.8498" stroke-linecap="round" d="
		M613.762,218.174c-0.068,1.088-0.634,1.68-1.041,2.429"/>
	<path fill-rule="evenodd" clip-rule="evenodd" fill="none" stroke="#000000" stroke-width="0.9333" stroke-linecap="round" d="
		M612.721,220.602c0.151,0.08,0.303,0.159,0.455,0.239c1.754,2.75,5.652,6.844,8.748,9.978c4.257,4.309,6.518,8.347,8.987,11.82
		c0.082,0.115,0.411,0.119,0.562,0.252c0.343,2.266,2.271,3.752,3.321,5.482c1.229,2.027,2.262,4.146,3.471,6.244
		c1.689,2.928,2.806,4.225,4.578,8.074c0.121,0.264-0.041,0.656,0.06,0.928"/>
	<path fill-rule="evenodd" clip-rule="evenodd" fill="none" stroke="#000000" stroke-width="0.9899" stroke-linecap="round" d="
		M642.903,263.619c2.208-0.203,4.836-1.111,6.76,0.525c0.248,0.967,0.253,2.152-0.516,3.291"/>
	<path fill-rule="evenodd" clip-rule="evenodd" fill="none" stroke="#000000" stroke-width="1.308" stroke-linecap="round" d="
		M649.147,267.436c-1.06,0.688-1.634,1.732-2.775,2.082"/>
	<path fill-rule="evenodd" clip-rule="evenodd" fill="none" stroke="#000000" stroke-width="0.9669" stroke-linecap="round" d="
		M653.657,283.74c0.646-1.432,0.193-3.328,1.326-4.537c0.46-5.047-3.697-7.723-5.836-11.768"/>
	<path fill-rule="evenodd" clip-rule="evenodd" fill="none" stroke="#000000" stroke-width="1.2877" stroke-linecap="round" d="
		M656.78,293.801c1.218-1.717,1.238-4.039,0.347-5.896"/>
	<path fill-rule="evenodd" clip-rule="evenodd" fill="none" stroke="#000000" stroke-width="1.0291" stroke-linecap="round" d="
		M657.127,287.905c-2.113-0.088-2.751-2.605-3.47-4.164"/>
	<path fill-rule="evenodd" clip-rule="evenodd" fill="none" stroke="#000000" stroke-width="0.9843" stroke-linecap="round" d="
		M653.657,283.74c-2.833,0.102-2.214-4.436-5.088-4.162"/>
	<path fill-rule="evenodd" clip-rule="evenodd" fill="none" stroke="#000000" stroke-width="1.2018" stroke-linecap="round" d="
		M644.984,299.352c3.596-0.912,4.066-4.367,5.204-7.285"/>
	<path fill-rule="evenodd" clip-rule="evenodd" fill="none" stroke="#000000" stroke-width="0.8776" stroke-linecap="round" d="
		M650.188,292.067c-0.534-1.992-2.781-2.498-3.585-4.279"/>
	<path fill-rule="evenodd" clip-rule="evenodd" fill="none" stroke="#000000" stroke-width="1.298" stroke-linecap="round" d="
		M656.78,293.801c-1.157-0.811-2.313-0.711-3.47,0"/>
	<path fill-rule="evenodd" clip-rule="evenodd" fill="none" stroke="#000000" stroke-width="1.0281" stroke-linecap="round" d="
		M644.984,302.821c3.005-0.527,5.504-0.539,7.847-2.449c1.951-1.59,2.909-4.252,3.949-6.57"/>
	<path fill-rule="evenodd" clip-rule="evenodd" fill="none" stroke="#000000" stroke-width="0.9493" stroke-linecap="round" d="
		M540.216,225.806c1.786,1.254,2.226,4.137,2.99,6.035c0.221,0.547,1.253,0.914,1.7,1.773c0.804,1.547,1.06,3.624,1.765,5.165
		c0.554,0.371,1.14,0.709,1.689,1.086c0.984,3.918,5.593,5.946,9.201,7.45"/>
	<path fill-rule="evenodd" clip-rule="evenodd" fill="none" stroke="#000000" stroke-width="0.8941" stroke-linecap="round" d="
		M559.297,249.742c0.195-0.129,0.392-0.26,0.588-0.389c2.939,0.801,5.856,2.234,8.239,4.051c2.574,0.498,4.867,1.951,7.131,3.277"/>
	<path fill-rule="evenodd" clip-rule="evenodd" fill="none" stroke="#000000" stroke-width="0.8428" stroke-linecap="round" d="
		M575.255,256.682c4.007,0.809,7.775,3.262,11.593,5.059c0.536,0.252,1.246,0.143,1.729,0.354c1.855,0.809,3.919,1.861,5.065,3.26"
		/>
	<path fill-rule="evenodd" clip-rule="evenodd" fill="none" stroke="#000000" stroke-width="1.0755" stroke-linecap="round" d="
		M593.641,265.354c4.07,0.682,7.682,3.152,10.945,5.707c0.663,4.186,2.826,8.098,3.394,12.564"/>
	<path fill-rule="evenodd" clip-rule="evenodd" fill="none" stroke="#000000" stroke-width="1.0659" stroke-linecap="round" d="
		M607.98,283.625c0.852-0.086,1.255,0.652,1.98,0.893c0.912,2.121,2.642,4.391,1.373,6.855"/>
	<path fill-rule="evenodd" clip-rule="evenodd" fill="none" stroke="#000000" stroke-width="1.254" stroke-linecap="round" d="
		M611.334,291.373c0.243,1.783-0.451,3.432-0.347,5.203"/>
	<path fill-rule="evenodd" clip-rule="evenodd" fill="none" stroke="#000000" stroke-width="0.9543" stroke-linecap="round" d="
		M605.436,297.965c1.543,0.506,1.292,2.244,2.26,3.289c3.295,0.762,6.607,1.055,9.882,1.221"/>
	<path fill-rule="evenodd" clip-rule="evenodd" fill="none" stroke="#000000" stroke-width="1.0343" stroke-linecap="round" d="
		M617.578,302.475c0.553-0.93,1.293-1.689,1.562-2.775"/>
	<path fill-rule="evenodd" clip-rule="evenodd" fill="none" stroke="#000000" stroke-width="1.3112" stroke-linecap="round" d="
		M619.139,299.699c-0.458-2.379,1.516-3.736,1.379-6.047c0.365-0.133,0.784-0.205,1.107-0.314"/>
	<path fill-rule="evenodd" clip-rule="evenodd" fill="none" stroke="#000000" stroke-width="1.4881" stroke-linecap="round" d="
		M621.626,293.338c0.081-0.369,0.088-1.033,0.115-1.619"/>
	<path fill-rule="evenodd" clip-rule="evenodd" fill="none" stroke="#000000" stroke-width="1.2334" stroke-linecap="round" d="
		M617.578,302.475c-0.6,2.5,0.953,5.088,3.47,5.551"/>
	<path fill-rule="evenodd" clip-rule="evenodd" fill="none" stroke="#000000" stroke-width="0.9695" stroke-linecap="round" d="
		M621.048,308.026c3.275-2.396,6.582-4.916,10.407-6.246"/>
	<path fill-rule="evenodd" clip-rule="evenodd" fill="none" stroke="#000000" stroke-width="0.9735" stroke-linecap="round" d="
		M631.455,301.78c1.64-3.709,0.181-7.447,0.347-11.447"/>
	<path fill-rule="evenodd" clip-rule="evenodd" fill="none" stroke="#000000" stroke-width="1.7251" stroke-linecap="round" d="
		M631.802,290.332c-1.521-0.846-0.647-2.873-1.388-4.162"/>
	<path fill-rule="evenodd" clip-rule="evenodd" fill="none" stroke="#000000" stroke-width="1.1482" stroke-linecap="round" d="
		M631.802,290.332c5.212,4.125,3.051,15.408,11.597,15.74c1.015-0.75,1.655-1.965,1.586-3.252"/>
	<path fill-rule="evenodd" clip-rule="evenodd" fill="none" stroke="#000000" stroke-width="2.1385" stroke-linecap="round" d="
		M644.984,302.821c-0.006-0.713,0.053-1.229,0.116-1.734"/>
	<path fill-rule="evenodd" clip-rule="evenodd" fill="none" stroke="#000000" stroke-width="2.1385" stroke-linecap="round" d="
		M645.1,301.086c-0.081-0.451-0.089-1.123-0.116-1.734"/>
	<path fill-rule="evenodd" clip-rule="evenodd" fill="none" stroke="#000000" stroke-width="1.4859" stroke-linecap="round" d="
		M644.984,299.352c-0.739-0.443-1.341-0.572-1.86-0.895c-0.167-0.789-0.798-1.086-1.139-1.549c-0.529-2.613-0.167-5.178-0.296-7.791
		"/>
	<path fill-rule="evenodd" clip-rule="evenodd" fill="none" stroke="#000000" stroke-width="1.4033" stroke-linecap="round" d="
		M641.689,289.117c-1.19-1.232-2.01-2.557-2.256-4.336"/>
	<path fill-rule="evenodd" clip-rule="evenodd" fill="none" stroke="#000000" stroke-width="1.4513" stroke-linecap="round" d="
		M639.433,284.781c-0.737-0.211-1.343-0.566-1.869-0.852c-0.106-0.432-0.16-1.002-0.212-1.576"/>
	<path fill-rule="evenodd" clip-rule="evenodd" fill="none" stroke="#000000" stroke-width="0.9395" stroke-linecap="round" d="
		M637.352,282.354c-0.478-0.303-1.08-0.924-1.388-1.734"/>
	<path fill-rule="evenodd" clip-rule="evenodd" fill="none" stroke="#000000" stroke-width="1.2018" stroke-linecap="round" d="
		M642.903,263.619c-1.979,0.104-3.944,0.373-5.897,0.693"/>
	<path fill-rule="evenodd" clip-rule="evenodd" fill="none" stroke="#000000" stroke-width="1.2095" stroke-linecap="round" d="
		M637.006,264.313c-1.367,2.143-1.191,4.555-2.242,6.74c-0.815,0.314-1.055,1.262-1.731,1.777c-1.827,0.035-4.295,0.85-5.594-0.865
		c-0.333-1.258-0.577-2.527-0.493-3.836"/>
	<path fill-rule="evenodd" clip-rule="evenodd" fill="none" stroke="#000000" stroke-width="1.0157" stroke-linecap="round" d="
		M626.945,268.129c-1.689-0.98-4.152-0.627-5.204-2.428"/>
	<path fill-rule="evenodd" clip-rule="evenodd" fill="none" stroke="#000000" stroke-width="0.8447" stroke-linecap="round" d="
		M621.741,265.701c-0.15,0.08-0.301,0.162-0.451,0.242c-2.618-0.373-5.312-1.236-7.673-2.525c-4.112-0.738-8.24-1.662-11.65-4.309"
		/>
	<path fill-rule="evenodd" clip-rule="evenodd" fill="none" stroke="#000000" stroke-width="1.2713" stroke-linecap="round" d="
		M641.689,289.117c1.386-1.273,3.348-0.512,4.914-1.33"/>
	<path fill-rule="evenodd" clip-rule="evenodd" fill="none" stroke="#000000" stroke-width="1.3877" stroke-linecap="round" d="
		M646.603,287.787c0.979-2.684,1.322-5.418,1.966-8.209"/>
	<path fill-rule="evenodd" clip-rule="evenodd" fill="none" stroke="#000000" stroke-width="1.5844" stroke-linecap="round" d="
		M648.569,279.578c0.28-3.631-1.09-6.877-2.197-10.061"/>
	<path fill-rule="evenodd" clip-rule="evenodd" fill="none" stroke="#000000" stroke-width="1.194" stroke-linecap="round" d="
		M646.372,269.518c-1.835-0.057-3.574-0.52-5.346,0.205c-3.688,3.229,0.052,8.422-1.419,12.631"/>
	<path fill-rule="evenodd" clip-rule="evenodd" fill="none" stroke="#000000" stroke-width="1.5771" stroke-linecap="round" d="
		M639.433,284.781c0.341-0.98,0.271-1.791,0.174-2.428"/>
	<path fill-rule="evenodd" clip-rule="evenodd" fill="none" stroke="#000000" stroke-width="1.4718" stroke-linecap="round" d="
		M639.607,282.354c-0.815,0-1.52,0-2.255,0"/>
	<path fill-rule="evenodd" clip-rule="evenodd" fill="none" stroke="#000000" stroke-width="1.072" stroke-linecap="round" d="
		M645.1,301.086c3.699-0.984,7.059-3.656,8.21-7.285"/>
	<path fill-rule="evenodd" clip-rule="evenodd" fill="none" stroke="#000000" stroke-width="1.0081" stroke-linecap="round" d="
		M653.31,293.801c-0.942-0.891-1.95-1.313-3.122-1.734"/>
	<path fill-rule="evenodd" clip-rule="evenodd" fill="none" stroke="#000000" stroke-width="0.9084" stroke-linecap="round" d="
		M612.721,220.602c-0.959-0.411-1.589-1.216-2.082-2.082"/>
	<path fill-rule="evenodd" clip-rule="evenodd" fill="none" stroke="#000000" stroke-width="0.9235" stroke-linecap="round" d="
		M610.639,218.521c-3.824-0.352-8.737,2.247-11.795-3.469"/>
	<path fill-rule="evenodd" clip-rule="evenodd" fill="none" stroke="#000000" stroke-width="0.9686" stroke-linecap="round" d="
		M598.844,215.052c-0.114-0.001-0.228-0.002-0.342-0.003c-0.367-0.085-0.817-0.309-1.214-0.533
		c-1.754-3.512-0.657-8.031-0.642-11.838"/>
	<path fill-rule="evenodd" clip-rule="evenodd" fill="none" stroke="#000000" stroke-width="1.046" stroke-linecap="round" d="
		M596.647,202.678c-0.393-0.019-0.728-0.517-1.102-0.989c-0.825-0.091-1.637-0.205-2.252-0.514"/>
	<path fill-rule="evenodd" clip-rule="evenodd" fill="none" stroke="#000000" stroke-width="1.7319" stroke-linecap="round" d="
		M593.294,201.175c-1.683,3.005-1.467,6.724-2.428,10.061"/>
	<path fill-rule="evenodd" clip-rule="evenodd" fill="none" stroke="#000000" stroke-width="1.4781" stroke-linecap="round" d="
		M590.866,211.235c0.71,1.65,0.033,3.513,0.521,5.204"/>
	<path fill-rule="evenodd" clip-rule="evenodd" fill="none" stroke="#000000" stroke-width="1.298" stroke-linecap="round" d="
		M630.067,260.151c-3.325,1.41-2.536,5.139-3.122,7.979"/>
	<path fill-rule="evenodd" clip-rule="evenodd" fill="none" stroke="#000000" stroke-width="0.9509" stroke-linecap="round" d="
		M637.006,264.313c-0.833-1.908-2.282-3.09-3.959-4.352c-1.021-0.404-1.978,0.133-2.979,0.189"/>
	<path fill-rule="evenodd" clip-rule="evenodd" fill="none" stroke="#000000" stroke-width="0.9256" stroke-linecap="round" d="
		M592.716,235.288c3.184-2.479,5.261-6.244,8.904-8.441"/>
	<path fill-rule="evenodd" clip-rule="evenodd" fill="none" stroke="#000000" stroke-width="0.835" stroke-linecap="round" d="
		M601.62,226.846c-1.897-4.09-6.378-7.478-9.743-10.32c-0.11-0.093-0.37-0.007-0.49-0.087"/>
	<path fill-rule="evenodd" clip-rule="evenodd" fill="none" stroke="#000000" stroke-width="1.4443" stroke-linecap="round" d="
		M571.785,134.567c0-0.231,0-0.463,0-0.694"/>
	<path fill-rule="evenodd" clip-rule="evenodd" fill="none" stroke="#000000" stroke-width="0.8191" stroke-linecap="round" d="
		M571.785,133.873c-3.329-2.834-7.994-2.43-12.142-2.429"/>
	<path fill-rule="evenodd" clip-rule="evenodd" fill="none" stroke="#000000" stroke-width="1.161" stroke-linecap="round" d="
		M571.785,133.873c0.942-0.325,1.306-0.836,1.504-1.272"/>
	<path fill-rule="evenodd" clip-rule="evenodd" fill="none" stroke="#000000" stroke-width="0.7911" stroke-linecap="round" d="
		M573.289,132.601c-1.27-0.782-2.39-1.813-3.932-1.851"/>
	<path fill-rule="evenodd" clip-rule="evenodd" fill="none" stroke="#000000" stroke-width="1.2018" stroke-linecap="round" d="
		M573.289,132.601c1.324-0.689,3.061-0.105,4.047-1.503"/>
	<path fill-rule="evenodd" clip-rule="evenodd" fill="none" stroke="#000000" stroke-width="1.0568" stroke-linecap="round" d="
		M577.336,131.098c-2.293-2.334-5.457-3.549-8.673-3.816"/>
	
		<line fill-rule="evenodd" clip-rule="evenodd" fill="none" stroke="#000000" stroke-width="2.7753" stroke-linecap="round" x1="577.336" y1="131.098" x2="577.336" y2="131.098"/>
	<path fill-rule="evenodd" clip-rule="evenodd" fill="none" stroke="#000000" stroke-width="1.1241" stroke-linecap="round" d="
		M577.336,131.098c0.288-0.749,0.215-1.603,0.123-2.172c-0.436-0.283-0.784-0.628-1.164-0.951"/>
	<path fill-rule="evenodd" clip-rule="evenodd" fill="none" stroke="#000000" stroke-width="1.5771" stroke-linecap="round" d="
		M577.336,131.098c0.818,0.649,2.064,0.661,2.66,0.578"/>
	<path fill-rule="evenodd" clip-rule="evenodd" fill="none" stroke="#000000" stroke-width="0.8762" stroke-linecap="round" d="
		M579.996,131.676c0.024-0.09,0.049-0.181,0.074-0.271c4.572-2.233,9.265,2.146,13.571,3.509"/>
	<path fill-rule="evenodd" clip-rule="evenodd" fill="none" stroke="#000000" stroke-width="0.9179" stroke-linecap="round" d="
		M579.996,131.676c2.48,0.902,5.027,1.583,7.4,2.544"/>
	<path fill-rule="evenodd" clip-rule="evenodd" fill="none" stroke="#000000" stroke-width="1.0685" stroke-linecap="round" d="
		M602.661,179.319c-1.224-4.01-3.578-7.936-3.47-12.489"/>
	<path fill-rule="evenodd" clip-rule="evenodd" fill="none" stroke="#000000" stroke-width="1.1404" stroke-linecap="round" d="
		M605.32,179.666c-0.844-4.524-1.711-8.958-3.167-12.985c-0.046-0.127-0.485-0.124-0.552-0.282
		c-1.164-2.758-1.633-5.584-2.792-8.101c-0.105-0.229-0.795-0.408-0.658-1.182"/>
	<path fill-rule="evenodd" clip-rule="evenodd" fill="none" stroke="#000000" stroke-width="1.4631" stroke-linecap="round" d="
		M607.517,200.134c0.712-3.31,0.417-8.854,0.697-13.876c0.027-0.477,0.497-0.904,0.55-1.388c0.713-6.444-0.405-12.496-0.771-19.21
		c-0.335-0.359-0.361-1.027-0.477-1.605"/>
	<path fill-rule="evenodd" clip-rule="evenodd" fill="none" stroke="#000000" stroke-width="1.1352" stroke-linecap="round" d="
		M616.538,162.667c-0.198-0.079-0.396-0.158-0.595-0.236c-1.355-2.39-1.551-5.535-2.565-8.293c-0.05-0.136-0.453-0.143-0.497-0.289
		c-0.199-0.65-0.161-1.952-0.32-2.429c-0.043-0.126-0.492-0.129-0.552-0.285c-0.754-1.961-1.331-4.721-2.098-6.713
		c-0.203-0.527-1.272-1.255-1.699-2.569"/>
	<path fill-rule="evenodd" clip-rule="evenodd" fill="none" stroke="#000000" stroke-width="0.8776" stroke-linecap="round" d="
		M585.662,126.241c-0.657,0.268-0.968,0.882-1.388,1.388"/>
	<path fill-rule="evenodd" clip-rule="evenodd" fill="none" stroke="#000000" stroke-width="0.936" stroke-linecap="round" d="
		M584.274,127.629c6.322,0.583,12.66,2.023,17.692,5.897"/>
	<path fill-rule="evenodd" clip-rule="evenodd" fill="none" stroke="#000000" stroke-width="1.107" stroke-linecap="round" d="
		M584.274,127.629c-1.394-0.028-2.371,1.309-3.816,1.041"/>
	<path fill-rule="evenodd" clip-rule="evenodd" fill="none" stroke="#000000" stroke-width="0.9468" stroke-linecap="round" d="
		M546.807,135.781c3.142-0.717,6.218-3.267,9.853-2.047c2.718,1.473,3.842,3.921,5.563,6.219c0.242,0.094,0.578,0.285,0.89,0.512"/>
	<path fill-rule="evenodd" clip-rule="evenodd" fill="none" stroke="#000000" stroke-width="1.1037" stroke-linecap="round" d="
		M533.277,228.581c1.052,0.274,0.96,1.5,1.673,2.109c-0.222,1.444-0.567,3.019-1.893,3.809c-0.191,0.817-0.235,1.481-0.028,2.058
		c0.413,0.265,0.883,0.395,1.26,0.516c0.73-2.195,2.98-2.844,4.384-4.483c1.002-2.155,0.376-4.7,1.543-6.783"/>
	<path fill-rule="evenodd" clip-rule="evenodd" fill="none" stroke="#000000" stroke-width="1.4304" stroke-linecap="round" d="
		M540.216,225.806c-0.891-0.873-1.143-2.104-1.734-3.123"/>
	<path fill-rule="evenodd" clip-rule="evenodd" fill="none" stroke="#000000" stroke-width="1.4988" stroke-linecap="round" d="
		M538.481,222.683c-1.864-0.707-3.088-2.645-1.734-4.51"/>
	<path fill-rule="evenodd" clip-rule="evenodd" fill="none" stroke="#000000" stroke-width="1.2563" stroke-linecap="round" d="
		M536.747,218.174c-0.213-0.984-0.334-1.802-0.228-2.386c0.251-0.173,0.503-0.367,0.756-0.562c1.153-6.077,2.877-12.05,3.461-18.213
		"/>
	<path fill-rule="evenodd" clip-rule="evenodd" fill="none" stroke="#000000" stroke-width="1.5042" stroke-linecap="round" d="
		M540.736,197.012c-0.071-2.479-0.783-5.395,0.521-7.632"/>
	<path fill-rule="evenodd" clip-rule="evenodd" fill="none" stroke="#000000" stroke-width="2.8041" stroke-linecap="round" d="
		M541.257,189.38c0-0.231,0-0.462,0-0.694"/>
	<path fill-rule="evenodd" clip-rule="evenodd" fill="none" stroke="#000000" stroke-width="1.8357" stroke-linecap="round" d="
		M541.257,188.686c-0.471-0.719-0.965-1.506-1.388-2.082"/>
	<path fill-rule="evenodd" clip-rule="evenodd" fill="none" stroke="#000000" stroke-width="1.0992" stroke-linecap="round" d="
		M539.869,186.604c-1.563,2.19-1.091,5.165-1.317,7.599c-0.345,3.699-0.427,7.188-1.469,10.743
		c-0.057,0.192-0.446,0.302-0.499,0.499c-0.186,0.695-0.115,1.972-0.296,2.627c-0.063,0.226-0.695,0.315-0.763,0.561
		c-0.679,2.493-0.774,6.842-2.436,7.952c-0.23,1.618,0.123,3.272-1.199,4.364"/>
	<path fill-rule="evenodd" clip-rule="evenodd" fill="none" stroke="#000000" stroke-width="2.8607" stroke-linecap="round" d="
		M539.869,186.604c-0.013-0.354,0.513-1.048,1.041-1.734"/>
	<path fill-rule="evenodd" clip-rule="evenodd" fill="none" stroke="#000000" stroke-width="2.41" stroke-linecap="round" d="
		M540.91,184.87c0.184-7.57-1.295-15.279,1.041-22.55"/>
	<path fill-rule="evenodd" clip-rule="evenodd" fill="none" stroke="#000000" stroke-width="1.133" stroke-linecap="round" d="
		M541.951,162.32c-0.521-4.196,0.05-7.84,1.954-11.118c0.938-1.614,2.21-3.041,3.943-4.494"/>
	<path fill-rule="evenodd" clip-rule="evenodd" fill="none" stroke="#000000" stroke-width="0.9812" stroke-linecap="round" d="
		M547.848,146.709c0.734-1.602,1.76-3.717,3.815-3.816"/>
	<path fill-rule="evenodd" clip-rule="evenodd" fill="none" stroke="#000000" stroke-width="1.3963" stroke-linecap="round" d="
		M559.297,147.576c0.935,0.784,1.551,2.025,1.82,3.203c0.678,0.926,2.271,0.713,2.855-0.217c0.06-0.128,0.12-0.256,0.181-0.384"/>
	<path fill-rule="evenodd" clip-rule="evenodd" fill="none" stroke="#000000" stroke-width="0.9898" stroke-linecap="round" d="
		M564.153,150.178c0.165-3.788,5.947-9.814,9.136-5.319"/>
	<path fill-rule="evenodd" clip-rule="evenodd" fill="none" stroke="#000000" stroke-width="1.3015" stroke-linecap="round" d="
		M577.336,150.525c1.471,1.123,2.075,2.991,2.934,4.665c0.064,0.125,0.47,0.115,0.555,0.276c1.041,1.969,1.539,4.581,2.1,6.711
		c0.033,0.124,0.466,0.151,0.498,0.289c0.396,1.7,0.46,4.503,0.39,6.099"/>
	<path fill-rule="evenodd" clip-rule="evenodd" fill="none" stroke="#000000" stroke-width="1.0876" stroke-linecap="round" d="
		M582.54,201.522c-0.487,3.446-0.329,7.093-1.475,10.313c-0.269,0.285-0.784,0.497-1.301,0.788"/>
	<path fill-rule="evenodd" clip-rule="evenodd" fill="none" stroke="#000000" stroke-width="1.3436" stroke-linecap="round" d="
		M579.764,212.623c-0.29,1.035-0.728,1.732-1.388,2.082"/>
	<path fill-rule="evenodd" clip-rule="evenodd" fill="none" stroke="#000000" stroke-width="0.9812" stroke-linecap="round" d="
		M578.377,214.704c0.1,0.915-0.643,1.326-1.388,2.082"/>
	<path fill-rule="evenodd" clip-rule="evenodd" fill="none" stroke="#000000" stroke-width="0.8535" stroke-linecap="round" d="
		M573.751,223.262c0.108,0.177,0.216,0.354,0.324,0.532c0.137,0.69,0.059,1.285-0.08,1.8c-2.859,1.916-5.245,4.489-8.415,5.922
		c-2.104-1.06-4.811-2.135-5.937-4.322"/>
	<path fill-rule="evenodd" clip-rule="evenodd" fill="none" stroke="#000000" stroke-width="1.0081" stroke-linecap="round" d="
		M555.306,221.296c-0.042,0.151-0.084,0.302-0.126,0.453c2.545,6.287,3.677,16.626,12.789,17.24"/>
	<path fill-rule="evenodd" clip-rule="evenodd" fill="none" stroke="#000000" stroke-width="0.9721" stroke-linecap="round" d="
		M567.969,238.989c1.469-4.094,5.78-7.085,8.846-10.061"/>
	<path fill-rule="evenodd" clip-rule="evenodd" fill="none" stroke="#000000" stroke-width="1.2018" stroke-linecap="round" d="
		M576.815,228.928c-0.07-0.236-0.164-0.466-0.26-0.696c-0.233-0.186-0.591-0.268-0.954-0.345"/>
	<path fill-rule="evenodd" clip-rule="evenodd" fill="none" stroke="#000000" stroke-width="1.3683" stroke-linecap="round" d="
		M576.815,228.928c1.068-0.367,2.483-0.175,3.064-1.388"/>
	<path fill-rule="evenodd" clip-rule="evenodd" fill="none" stroke="#000000" stroke-width="1.1568" stroke-linecap="round" d="
		M579.88,227.54c0.021-5.865,5.429-9.675,5.436-15.611"/>
	<path fill-rule="evenodd" clip-rule="evenodd" fill="none" stroke="#000000" stroke-width="1.1705" stroke-linecap="round" d="
		M579.88,227.54c1.714,0.002,3.486-0.155,5.089-0.694"/>
	<path fill-rule="evenodd" clip-rule="evenodd" fill="none" stroke="#000000" stroke-width="1.0603" stroke-linecap="round" d="
		M584.969,226.846c1.155-2.459,3.916-3.658,5.059-6.042c-0.101-1.627,1.088-2.821,1.359-4.365"/>
	<path fill-rule="evenodd" clip-rule="evenodd" fill="none" stroke="#000000" stroke-width="1.0667" stroke-linecap="round" d="
		M590.866,211.235c-0.431,0.168-0.723,0.292-1.009,0.414c-0.684,0.898,0.003,2.319-1.073,3.055"/>
	<path fill-rule="evenodd" clip-rule="evenodd" fill="none" stroke="#000000" stroke-width="0.9356" stroke-linecap="round" d="
		M593.294,201.175c-0.871-1.385,0.031-2.922,0.694-4.163"/>
	<path fill-rule="evenodd" clip-rule="evenodd" fill="none" stroke="#000000" stroke-width="1.1679" stroke-linecap="round" d="
		M593.988,197.012c-1.19-1.562,0.479-2.517,0.693-3.816"/>
	<path fill-rule="evenodd" clip-rule="evenodd" fill="none" stroke="#000000" stroke-width="1.3797" stroke-linecap="round" d="
		M597.457,180.36c-0.015-0.148,0.019-0.303,0-0.451c-0.798-6.388-0.191-14.791-2.119-20.914c-0.04-0.127-0.449-0.155-0.497-0.29
		c-0.266-0.743,0.104-1.91-0.872-2.02c-0.619-3.584-3.997-7.601-6.321-10.332c-1.485-1.746-3.041-2.612-4.745-4.248
		c-0.623-0.598-1.092-1.681-1.802-2.287c-2.991-2.554-5.679-4.441-9.315-5.251"/>
	<path fill-rule="evenodd" clip-rule="evenodd" fill="none" stroke="#000000" stroke-width="1.1593" stroke-linecap="round" d="
		M571.785,134.567c-3.585,2.102-4.53,6.526-7.348,9.291c-0.499,0.667-1.52,0.567-2.177,0.26c0.033-0.909-0.713-1.106-1.13-1.706
		c-0.033-0.187-0.066-0.373-0.1-0.559"/>
	<path fill-rule="evenodd" clip-rule="evenodd" fill="none" stroke="#000000" stroke-width="1.723" stroke-linecap="round" d="
		M605.32,179.666c-0.642,0.051-1.675-0.058-2.659-0.347"/>
	<path fill-rule="evenodd" clip-rule="evenodd" fill="none" stroke="#000000" stroke-width="1.0629" stroke-linecap="round" d="
		M602.661,179.319c-1.678,0.436-3.647,3.16-5.204,1.041"/>
	<path fill-rule="evenodd" clip-rule="evenodd" fill="none" stroke="#000000" stroke-width="1.332" stroke-linecap="round" d="
		M597.457,180.36c-0.345,0.251-0.715,0.501-1.085,0.751c-0.85,1.824-0.62,3.874-0.653,5.84c-0.967,1.945-1.165,4.094-1.037,6.244"/>
	<path fill-rule="evenodd" clip-rule="evenodd" fill="none" stroke="#000000" stroke-width="1.0164" stroke-linecap="round" d="
		M594.681,193.196c2.163,0.177,3.154-2.035,4.686-3.084c-0.751-3.252,0.026-6.437,3.294-8.017"/>
	<path fill-rule="evenodd" clip-rule="evenodd" fill="none" stroke="#000000" stroke-width="1.5602" stroke-linecap="round" d="
		M603.008,193.543c2.535-4.167,4.272-8.925,2.313-13.877"/>
	<path fill-rule="evenodd" clip-rule="evenodd" fill="none" stroke="#000000" stroke-width="1.054" stroke-linecap="round" d="
		M598.844,215.052c0.684-4.953,0.976-10.586,2.813-15.122c0.056-0.137,0.468-0.136,0.498-0.289c0.385-0.996-0.104-2.147,0.32-3.122
		c1.192-0.369,1.038-2.107,0.532-2.977"/>
	<path fill-rule="evenodd" clip-rule="evenodd" fill="none" stroke="#000000" stroke-width="0.9835" stroke-linecap="round" d="
		M603.008,193.543c-2.288,0.599-3.875,2.776-6.244,3.469"/>
	<path fill-rule="evenodd" clip-rule="evenodd" fill="none" stroke="#000000" stroke-width="0.8592" stroke-linecap="round" d="
		M596.647,202.678c0.704-1.685,0.688-3.938,0.116-5.666"/>
	<path fill-rule="evenodd" clip-rule="evenodd" fill="none" stroke="#000000" stroke-width="1.4627" stroke-linecap="round" d="
		M596.763,197.012c-0.809,0-2.049,0-2.775,0"/>
	<path fill-rule="evenodd" clip-rule="evenodd" fill="none" stroke="#000000" stroke-width="1.298" stroke-linecap="round" d="
		M609.252,202.562c0.039-0.637,0.06-1.593-0.319-2.219c-0.489-0.104-0.952-0.158-1.415-0.209"/>
	<path fill-rule="evenodd" clip-rule="evenodd" fill="none" stroke="#000000" stroke-width="0.8654" stroke-linecap="round" d="
		M607.517,200.134c-0.028,1.185-0.046,2.358,0.348,3.122"/>
	<path fill-rule="evenodd" clip-rule="evenodd" fill="none" stroke="#000000" stroke-width="0.9689" stroke-linecap="round" d="
		M612.375,209.154c-0.43-0.168-0.723-0.292-1.009-0.414c-1.079-1.906-0.284-4.844-2.114-6.178"/>
	<path fill-rule="evenodd" clip-rule="evenodd" fill="none" stroke="#000000" stroke-width="0.8957" stroke-linecap="round" d="
		M609.252,202.562c-0.471,0.223-0.964,0.423-1.387,0.694"/>
	<path fill-rule="evenodd" clip-rule="evenodd" fill="none" stroke="#000000" stroke-width="1.1177" stroke-linecap="round" d="
		M607.865,203.256c-0.126,5.548,3.634,9.545,3.815,14.917"/>
	<path fill-rule="evenodd" clip-rule="evenodd" fill="none" stroke="#000000" stroke-width="0.821" stroke-linecap="round" d="
		M613.762,218.174c-0.694,0-1.388,0-2.082,0"/>
	<path fill-rule="evenodd" clip-rule="evenodd" fill="none" stroke="#000000" stroke-width="0.8957" stroke-linecap="round" d="
		M611.68,218.174c-0.421,0.042-0.733,0.192-1.041,0.347"/>
	<path fill-rule="evenodd" clip-rule="evenodd" fill="none" stroke="#000000" stroke-width="1.4342" stroke-linecap="round" d="
		M526.34,227.194c1.414,0.367,3.343,0.83,4.51-0.347"/>
	<path fill-rule="evenodd" clip-rule="evenodd" fill="none" stroke="#000000" stroke-width="0.7809" stroke-linecap="round" d="
		M530.849,226.846c-0.201-0.495-0.307-1.079-0.549-1.523c-1.476,0.062-1.719-1.953-3.268-1.599"/>
	<path fill-rule="evenodd" clip-rule="evenodd" fill="none" stroke="#000000" stroke-width="0.9812" stroke-linecap="round" d="
		M556.521,254.6c1.366-0.752,1.602-2.477,2.96-3.303c0.127-0.594-0.031-1.088-0.185-1.555"/>
	<path fill-rule="evenodd" clip-rule="evenodd" fill="none" stroke="#000000" stroke-width="0.9892" stroke-linecap="round" d="
		M559.297,249.742c-3.456,0.648-10.021,0.279-14.814-0.236c-1.009-0.107-4.521,0.143-6.491-1.355
		c-4.022-0.121-7.547-2.275-11.099-4.15c-0.513-0.271-1.349,0.014-1.94-0.154"/>
	<path fill-rule="evenodd" clip-rule="evenodd" fill="none" stroke="#000000" stroke-width="1.1029" stroke-linecap="round" d="
		M543.685,279.231c1.569-2.143,2.682-4.727,3.975-7.094c0.063-0.115,0.484-0.121,0.554-0.275c0.762-1.707,1.038-3.137,2.092-4.639
		c0.273-0.389,1.135-1.059,1.378-1.607c0.793-1.791,1.414-4.049,2.465-5.76c0.204-0.332,0.688-0.301,0.825-0.551
		c0.718-1.305,1.41-2.777,1.776-4.268c0.029-0.119-0.237-0.313-0.229-0.438"/>
	<path fill-rule="evenodd" clip-rule="evenodd" fill="none" stroke="#000000" stroke-width="0.8843" stroke-linecap="round" d="
		M556.521,254.6c-6.217-0.645-11.873,0.045-17.476-1.258c-1.729-0.402-3.53-1.152-5.216-1.723c-2.21-0.75-5.132-2.133-8.878-2.918"
		/>
	<path fill-rule="evenodd" clip-rule="evenodd" fill="none" stroke="#000000" stroke-width="1.0625" stroke-linecap="round" d="
		M532.93,319.127c2.642,3.041,7.783,5.057,12.977,6.449c0.814,0.219,1.753,0.037,2.419,0.357c2.648,1.275,8.67,0.938,11.969-0.572
		c0.322-0.477,1.099-0.639,1.661-0.801"/>
	<path fill-rule="evenodd" clip-rule="evenodd" fill="none" stroke="#000000" stroke-width="1.161" stroke-linecap="round" d="
		M561.956,324.561c-0.018-0.533,0.831-0.836,1.503-1.271"/>
	<path fill-rule="evenodd" clip-rule="evenodd" fill="none" stroke="#000000" stroke-width="1.3038" stroke-linecap="round" d="
		M563.459,323.289c3.009-2.051,5.384-4.988,5.587-8.537c2.477-5.346,2.452-11.965,4.613-17.273c0.05-0.125,0.478-0.096,0.555-0.209"
		/>
	<path fill-rule="evenodd" clip-rule="evenodd" fill="none" stroke="#000000" stroke-width="1.2804" stroke-linecap="round" d="
		M574.214,297.27c0.285-3.928,0.965-7.789,1.488-11.688c0.379-0.355,1.1-0.713,1.634-1.148"/>
	<path fill-rule="evenodd" clip-rule="evenodd" fill="none" stroke="#000000" stroke-width="1.5059" stroke-linecap="round" d="
		M577.336,284.434c-0.156-9.311-3.516-18.436-2.081-27.752"/>
	<path fill-rule="evenodd" clip-rule="evenodd" fill="none" stroke="#000000" stroke-width="1.1052" stroke-linecap="round" d="
		M524.489,213.78c0.964-2.076,0.957-4.039,1.664-6.158c0.04-0.121,0.503-0.135,0.552-0.286c0.644-1.967,1.032-4.425,1.931-6.298
		c0.123-0.256,0.596-0.305,0.704-0.575c0.817-2.038,2.269-4.144,1.51-6.226"/>
	<path fill-rule="evenodd" clip-rule="evenodd" fill="none" stroke="#000000" stroke-width="0.9417" stroke-linecap="round" d="
		M525.992,229.969c2.496-0.081,5.304,0.534,7.285-1.387"/>
	<path fill-rule="evenodd" clip-rule="evenodd" fill="none" stroke="#000000" stroke-width="0.9395" stroke-linecap="round" d="
		M533.277,228.581c-1.088-0.822-1.68-1.253-2.428-1.735"/>
	<path fill-rule="evenodd" clip-rule="evenodd" fill="none" stroke="#000000" stroke-width="1.2376" stroke-linecap="round" d="
		M540.216,285.475c1.916-1.648,1.852-4.352,3.47-6.244"/>
	<path fill-rule="evenodd" clip-rule="evenodd" fill="none" stroke="#000000" stroke-width="0.9501" stroke-linecap="round" d="
		M543.685,279.231c-0.231-0.162-0.463-0.324-0.694-0.486c-6.545-0.422-13.065,0.926-19.427,1.875"/>
	<path fill-rule="evenodd" clip-rule="evenodd" fill="none" stroke="#000000" stroke-width="1.1269" stroke-linecap="round" d="
		M532.93,319.127c0.394-1.402-1.089-1.912-1.589-3.268c-1.765-4.783-1.618-10.152,0.07-14.906c0.281-0.793,1.232-1.818,1.359-2.1
		c2.122-4.68,5.336-8.908,7.444-13.379"/>
	<path fill-rule="evenodd" clip-rule="evenodd" fill="none" stroke="#000000" stroke-width="0.866" stroke-linecap="round" d="
		M540.216,285.475c-4.793-1.309-10.019,0.994-15.047,0.912c-0.441,0.428-1.499,0.41-2.646,0.477"/>
	<path fill-rule="evenodd" clip-rule="evenodd" fill="none" stroke="#000000" stroke-width="1.1955" stroke-linecap="round" d="
		M596.416,316.004c-0.731,2.609-0.069,5.396,0.448,7.975c1.064,0.676,2.654,1.098,3.021,2.434"/>
	<path fill-rule="evenodd" clip-rule="evenodd" fill="none" stroke="#000000" stroke-width="1.0312" stroke-linecap="round" d="
		M581.499,323.983c0.083,0.152,0.165,0.305,0.248,0.457c0.143,1.16-0.403,2.613-1.472,3.162c-2.202,3.068-3.455,5.24-6.114,8.473
		c-0.596,0.725-0.498,0.246-1.096,2.146c-0.896,2.842-1.462,4.055-0.55,6.436c1.959,5.117,16.106,9.926,24.738,12.834
		c6.386,2.154,12.539,4.461,16.301,4.514c2.607,3.137,6.323,7.381,10.957,5.59c0.225-0.404,0.428-0.885,0.699-1.287"/>
	<path fill-rule="evenodd" clip-rule="evenodd" fill="none" stroke="#000000" stroke-width="1.0033" stroke-linecap="round" d="
		M625.211,366.307c-1.271-2.385-2.83-5.232-4.511-7.285"/>
	<path fill-rule="evenodd" clip-rule="evenodd" fill="none" stroke="#000000" stroke-width="1.0693" stroke-linecap="round" d="
		M625.211,366.307c2.034,0.422,4.352,2.203,6.408,0.85c0.103-0.586,0.302-1.08,0.529-1.543"/>
	<path fill-rule="evenodd" clip-rule="evenodd" fill="none" stroke="#000000" stroke-width="1.0702" stroke-linecap="round" d="
		M632.148,365.614c-1.625-3.109-2.975-7.037-6.591-8.674"/>
	<path fill-rule="evenodd" clip-rule="evenodd" fill="none" stroke="#000000" stroke-width="0.9341" stroke-linecap="round" d="
		M632.148,365.614c0.458,0.236,0.834,0.555,1.191,0.891c1.491,0.18,3.345,0.559,4.359-0.891"/>
	<path fill-rule="evenodd" clip-rule="evenodd" fill="none" stroke="#000000" stroke-width="0.948" stroke-linecap="round" d="
		M637.699,365.614c-0.738-4.041-3.085-7.455-5.897-10.061"/>
	<path fill-rule="evenodd" clip-rule="evenodd" fill="none" stroke="#000000" stroke-width="1.2604" stroke-linecap="round" d="
		M637.699,365.614c1.298,0.119,2.631-0.371,3.47-1.389"/>
	<path fill-rule="evenodd" clip-rule="evenodd" fill="none" stroke="#000000" stroke-width="0.9899" stroke-linecap="round" d="
		M641.169,364.225c-0.955-3.723-3.081-6.932-5.897-9.367"/>
	<path fill-rule="evenodd" clip-rule="evenodd" fill="none" stroke="#000000" stroke-width="1.0213" stroke-linecap="round" d="
		M641.169,364.225c1.978,0.018,3.454-1.088,5.203-1.734"/>
	<path fill-rule="evenodd" clip-rule="evenodd" fill="none" stroke="#000000" stroke-width="1.0196" stroke-linecap="round" d="
		M646.372,362.49c0-0.23,0-0.461-0.001-0.693c-1.586-2.037-3.501-4.125-4.609-5.893c-3.13-4.992-9.813-6.785-14.074-10.811
		c-0.443-0.418-0.651-1.037-1.089-1.336"/>
	<path fill-rule="evenodd" clip-rule="evenodd" fill="none" stroke="#000000" stroke-width="0.948" stroke-linecap="round" d="
		M626.598,343.758c-0.311-0.002-0.621-0.004-0.932-0.006c-6.542-3.98-13.313-7.826-18.998-13.014
		c-1.283-0.242-2.7-1.154-3.314-2.246"/>
	<path fill-rule="evenodd" clip-rule="evenodd" fill="none" stroke="#000000" stroke-width="1.1648" stroke-linecap="round" d="
		M577.682,323.637c1.321-0.229,2.507,0.465,3.816,0.346"/>
	<path fill-rule="evenodd" clip-rule="evenodd" fill="none" stroke="#000000" stroke-width="1.2574" stroke-linecap="round" d="
		M581.499,323.983c0.081-0.15,0.162-0.301,0.243-0.451c0.369-10.125-1.069-22.438-2.948-33.512
		c-0.345-2.035,0.054-3.764-1.458-5.586"/>
	<path fill-rule="evenodd" clip-rule="evenodd" fill="none" stroke="#000000" stroke-width="1.1401" stroke-linecap="round" d="
		M564.153,324.676c4.398-0.758,9.179-0.123,13.529-1.039"/>
	<path fill-rule="evenodd" clip-rule="evenodd" fill="none" stroke="#000000" stroke-width="1.6038" stroke-linecap="round" d="
		M577.682,323.637c-1.837-5.613-1.05-14.016-2.189-20.705c-0.138-0.807,0.202-3.668-1.279-5.662"/>
	<path fill-rule="evenodd" clip-rule="evenodd" fill="none" stroke="#000000" stroke-width="0.8776" stroke-linecap="round" d="
		M561.956,324.561c0.771,0.473,1.592,0.34,2.197,0.115"/>
	<path fill-rule="evenodd" clip-rule="evenodd" fill="none" stroke="#000000" stroke-width="0.8957" stroke-linecap="round" d="
		M564.153,324.676c-0.223-0.471-0.423-0.963-0.694-1.387"/>
	<path fill-rule="evenodd" clip-rule="evenodd" fill="none" stroke="#000000" stroke-width="1.1679" stroke-linecap="round" d="
		M594.335,254.948c1.468,2.529,4.818,3.826,7.632,4.162"/>
	<path fill-rule="evenodd" clip-rule="evenodd" fill="none" stroke="#000000" stroke-width="1.1841" stroke-linecap="round" d="
		M601.967,259.11c-1.594-6.518-0.927-13.451-1.734-20.121"/>
	<path fill-rule="evenodd" clip-rule="evenodd" fill="none" stroke="#000000" stroke-width="1.2668" stroke-linecap="round" d="
		M616.653,241.416c-1.145-4.766-1.242-11.338-5.826-14.063c-2.428-1.443-5.409-1.379-8.851-0.533
		c-0.119,0.009-0.237,0.018-0.356,0.026"/>
	<path fill-rule="evenodd" clip-rule="evenodd" fill="none" stroke="#000000" stroke-width="1.193" stroke-linecap="round" d="
		M616.653,241.416c1.228,6.859,2.476,13.846,3.862,20.613c1.355,0.588,0.744,2.494,1.226,3.672"/>
	<path fill-rule="evenodd" clip-rule="evenodd" fill="none" stroke="#000000" stroke-width="0.9083" stroke-linecap="round" d="
		M630.067,260.151c-1.855-3.215-4.625-7.307-6.346-10.402c-0.124-0.223-0.6-0.301-0.763-0.537c-1.465-2.135-1.784-4.033-4.489-7.238
		c-0.322-0.381-1.214-0.342-1.816-0.557"/>
	<path fill-rule="evenodd" clip-rule="evenodd" fill="none" stroke="#000000" stroke-width="1.1534" stroke-linecap="round" d="
		M594.335,254.948c-0.948-1.941-0.781-4.396-0.971-6.553c-0.383-4.363-0.864-9.208-0.648-13.107"/>
	<path fill-rule="evenodd" clip-rule="evenodd" fill="none" stroke="#000000" stroke-width="1.1487" stroke-linecap="round" d="
		M592.716,235.288c-1.145-0.864-1.45-2.215-1.61-3.541c-1.468-1.055-1.885-3.209-3.814-3.754c-0.826,0.011-1.496-0.472-2.322-1.146"
		/>
	<path fill-rule="evenodd" clip-rule="evenodd" fill="none" stroke="#000000" stroke-width="0.8582" stroke-linecap="round" d="
		M567.969,238.989c1.7,1.97,4.293,4.328,7.169,4.394"/>
	<path fill-rule="evenodd" clip-rule="evenodd" fill="none" stroke="#000000" stroke-width="1.4718" stroke-linecap="round" d="
		M575.138,243.383c0.228-1.33,0.065-2.701,0.116-4.047"/>
	<path fill-rule="evenodd" clip-rule="evenodd" fill="none" stroke="#000000" stroke-width="0.8851" stroke-linecap="round" d="
		M575.138,243.383c0.367,1.137,1.534,1.672,2.342,2.039c3.083,2.447,11.497,8.768,16.256,9.74c0.178,0.037,0.417-0.23,0.599-0.215"
		/>
	<path fill-rule="evenodd" clip-rule="evenodd" fill="none" stroke="#000000" stroke-width="0.924" stroke-linecap="round" d="
		M564.153,150.178c2.139,0.427,4.074-2.411,6.099-1.004c1.222,2.33,4.896,1.9,7.084,1.351"/>
	<path fill-rule="evenodd" clip-rule="evenodd" fill="none" stroke="#000000" stroke-width="1.1697" stroke-linecap="round" d="
		M577.336,150.525c-0.74-2.148-2.325-4.213-4.047-5.667"/>
	<path fill-rule="evenodd" clip-rule="evenodd" fill="none" stroke="#000000" stroke-width="0.8592" stroke-linecap="round" d="
		M573.289,144.859c-1.391,0.512-2.621,1.238-3.932,1.85"/>
	<path fill-rule="evenodd" clip-rule="evenodd" fill="none" stroke="#000000" stroke-width="1.0169" stroke-linecap="round" d="
		M541.951,162.32c2.244-1.773,5.149-2.396,7.979-1.734"/>
	<path fill-rule="evenodd" clip-rule="evenodd" fill="none" stroke="#000000" stroke-width="1.0598" stroke-linecap="round" d="
		M541.257,189.38c1.137,2.349,2.699,4.086,4.163,6.245"/>
	<path fill-rule="evenodd" clip-rule="evenodd" fill="none" stroke="#000000" stroke-width="1.0055" stroke-linecap="round" d="
		M545.42,195.624c0.765,0.488,2.11,0.887,2.913,1.241c0.358,0.596,0.516,1.05,0.729,1.535"/>
	<path fill-rule="evenodd" clip-rule="evenodd" fill="none" stroke="#000000" stroke-width="0.9698" stroke-linecap="round" d="
		M549.062,198.4c3.91,0.942,5.074,4.295,7.965,5.738c4.471,2.23,9.207,0.973,15.105,0.854"/>
	<path fill-rule="evenodd" clip-rule="evenodd" fill="none" stroke="#000000" stroke-width="1.1401" stroke-linecap="round" d="
		M572.133,204.991c0.906-0.703,2.174-0.453,3.122-1.041"/>
	<path fill-rule="evenodd" clip-rule="evenodd" fill="none" stroke="#000000" stroke-width="0.9501" stroke-linecap="round" d="
		M575.255,203.95c0.809-0.348,2.048-0.264,2.775-0.694"/>
	<path fill-rule="evenodd" clip-rule="evenodd" fill="none" stroke="#000000" stroke-width="0.8498" stroke-linecap="round" d="
		M578.03,203.256c1.357-0.992,2.901-1.4,4.51-1.734"/>
	<path fill-rule="evenodd" clip-rule="evenodd" fill="none" stroke="#000000" stroke-width="2.0721" stroke-linecap="round" d="
		M582.54,201.522c1.694-7.15,1.134-14.548,1.041-21.856"/>
	<path fill-rule="evenodd" clip-rule="evenodd" fill="none" stroke="#000000" stroke-width="0.9631" stroke-linecap="round" d="
		M583.581,179.666c-1.55-1.666-1.815-3.97-3.487-5.523c-1.236-0.802-2.835-1.465-4.284-0.859c-1.821,1.374-2.982,3.164-4.371,4.648"
		/>
	<path fill-rule="evenodd" clip-rule="evenodd" fill="none" stroke="#000000" stroke-width="1.0351" stroke-linecap="round" d="
		M583.581,179.666c1.754-3.061,1.426-7.824,0.23-11.101"/>
	<path fill-rule="evenodd" clip-rule="evenodd" fill="none" stroke="#000000" stroke-width="0.8498" stroke-linecap="round" d="
		M583.811,168.565c-2.917-1.085-5.409-3.127-8.903-2.428"/>
	<path fill-rule="evenodd" clip-rule="evenodd" fill="none" stroke="#000000" stroke-width="1.0262" stroke-linecap="round" d="
		M559.297,147.576c-0.662-2.725-2.997-6.928-6.387-6.208c-0.528,0.391-0.847,0.999-1.246,1.524"/>
	<path fill-rule="evenodd" clip-rule="evenodd" fill="none" stroke="#000000" stroke-width="0.7867" stroke-linecap="round" d="
		M551.664,142.893c0.721,0.794,2.066,0.712,2.429,1.735"/>
	<path fill-rule="evenodd" clip-rule="evenodd" fill="none" stroke="#000000" stroke-width="0.9276" stroke-linecap="round" d="
		M547.848,146.709c3.19-1.716,5.688,0.714,8.64,1.543c0.507-1.381,1.852-0.359,2.809-0.676"/>
	<path fill-rule="evenodd" clip-rule="evenodd" fill="none" stroke="#000000" stroke-width="1.2747" stroke-linecap="round" d="
		M544.379,196.665c0.659,1.203,1.692,2.007,2.775,2.775"/>
	<path fill-rule="evenodd" clip-rule="evenodd" fill="none" stroke="#000000" stroke-width="1.4988" stroke-linecap="round" d="
		M547.154,199.44c0.721-0.236,1.177-0.317,1.619-0.462"/>
	<path fill-rule="evenodd" clip-rule="evenodd" fill="none" stroke="#000000" stroke-width="0.8498" stroke-linecap="round" d="
		M572.133,204.991c0,0.231,0,0.462,0,0.694"/>
	<path fill-rule="evenodd" clip-rule="evenodd" fill="none" stroke="#000000" stroke-width="1.5515" stroke-linecap="round" d="
		M549.062,198.4c-0.097,0.192-0.192,0.385-0.289,0.578"/>
	<path fill-rule="evenodd" clip-rule="evenodd" fill="none" stroke="#000000" stroke-width="0.8698" stroke-linecap="round" d="
		M548.773,198.978c0.474,0.934,0.367,2.152,0.81,2.891"/>
	<path fill-rule="evenodd" clip-rule="evenodd" fill="none" stroke="#000000" stroke-width="0.9251" stroke-linecap="round" d="
		M549.583,201.868c0.377,0.751,0.31,1.957,0.347,3.469"/>
	<path fill-rule="evenodd" clip-rule="evenodd" fill="none" stroke="#000000" stroke-width="1.5359" stroke-linecap="round" d="
		M549.929,205.338c0.422,0,0.638,0.077,0.844,0.159c0.244,0.609,0.223,1.86-0.149,2.964"/>
	<path fill-rule="evenodd" clip-rule="evenodd" fill="none" stroke="#000000" stroke-width="1.2577" stroke-linecap="round" d="
		M550.624,208.46c1.534,4.365,2.004,9.235,4.683,12.836"/>
	<path fill-rule="evenodd" clip-rule="evenodd" fill="none" stroke="#000000" stroke-width="0.9468" stroke-linecap="round" d="
		M555.306,221.296c1.748-0.457,6.081,5.802,9.507,6.85c1.76,0.538,1.759-0.831,3.313-1.488c1.256-0.532,3.328-2.811,5.624-3.396"/>
	<path fill-rule="evenodd" clip-rule="evenodd" fill="none" stroke="#000000" stroke-width="1.2464" stroke-linecap="round" d="
		M573.751,223.262c0.663-2.39,2.882-3.96,3.238-6.476"/>
	<path fill-rule="evenodd" clip-rule="evenodd" fill="none" stroke="#000000" stroke-width="0.8563" stroke-linecap="round" d="
		M576.295,208.46c-1.864,0.286-3.488,1.525-4.856,2.775"/>
	<path fill-rule="evenodd" clip-rule="evenodd" fill="none" stroke="#000000" stroke-width="1.3486" stroke-linecap="round" d="
		M541.257,188.686c1.581-0.966,0.948-2.934-0.347-3.816"/>
	<path fill-rule="evenodd" clip-rule="evenodd" fill="none" stroke="#000000" stroke-width="1.6736" stroke-linecap="round" d="
		M540.736,197.012c1.345,0.029,2.468,0.045,3.643-0.347"/>
	<path fill-rule="evenodd" clip-rule="evenodd" fill="none" stroke="#000000" stroke-width="1.298" stroke-linecap="round" d="
		M544.379,196.665c0.347-0.347,0.694-0.694,1.041-1.041"/>
	<path fill-rule="evenodd" clip-rule="evenodd" fill="none" stroke="#000000" stroke-width="0.8957" stroke-linecap="round" d="
		M548.542,202.216c0.421-0.042,0.733-0.191,1.041-0.347"/>
	<path fill-rule="evenodd" clip-rule="evenodd" fill="none" stroke="#000000" stroke-width="1.3436" stroke-linecap="round" d="
		M547.154,199.44c0.357,1.258,0.194,2.201,0.833,2.662c0.185,0.038,0.37,0.076,0.555,0.114"/>
	<path fill-rule="evenodd" clip-rule="evenodd" fill="none" stroke="#000000" stroke-width="1.0886" stroke-linecap="round" d="
		M578.03,203.256c1.356,2.945,0.324,6.536,1.734,9.367"/>
	<path fill-rule="evenodd" clip-rule="evenodd" fill="none" stroke="#000000" stroke-width="1.4988" stroke-linecap="round" d="
		M549.236,205.338c0.23,0,0.462,0,0.693,0"/>
	<path fill-rule="evenodd" clip-rule="evenodd" fill="none" stroke="#000000" stroke-width="0.9251" stroke-linecap="round" d="
		M548.542,202.216c0.197,0.984-0.537,2.643,0.694,3.122"/>
	<path fill-rule="evenodd" clip-rule="evenodd" fill="none" stroke="#000000" stroke-width="1.5051" stroke-linecap="round" d="
		M576.295,208.46c0.657,1.999,0.215,4.172,0.348,6.244"/>
	<path fill-rule="evenodd" clip-rule="evenodd" fill="none" stroke="#000000" stroke-width="0.8012" stroke-linecap="round" d="
		M576.642,214.704c0.652,0,1.195,0,1.734,0"/>
	<path fill-rule="evenodd" clip-rule="evenodd" fill="none" stroke="#000000" stroke-width="1.2018" stroke-linecap="round" d="
		M575.255,203.95c0.505,1.452,0.3,3.087,1.04,4.51"/>
	<path fill-rule="evenodd" clip-rule="evenodd" fill="none" stroke="#000000" stroke-width="0.9501" stroke-linecap="round" d="
		M549.236,205.338c-0.045,0.98,0.044,1.598,0.212,2.203c0.355,0.203,0.765,0.557,1.176,0.919"/>
	<path fill-rule="evenodd" clip-rule="evenodd" fill="none" stroke="#000000" stroke-width="1.4881" stroke-linecap="round" d="
		M576.642,214.704c-0.021,0.694,0.158,1.388,0.347,2.082"/>
	<path fill-rule="evenodd" clip-rule="evenodd" fill="none" stroke="#000000" stroke-width="0.9026" stroke-linecap="round" d="
		M538.481,222.683c0.462-1.534-0.251-3.619-1.734-4.51"/>
	<path fill-rule="evenodd" clip-rule="evenodd" fill="none" stroke="#000000" stroke-width="1.1985" stroke-linecap="round" d="
		M596.416,316.004c3.253-1.195,4.845-4.293,6.056-7.098c0.042-0.098,0.52-0.137,0.555-0.273c0.723-2.766,0.777-5.564,1.299-8.207
		c0.152-0.773,0.331-1.824,1.111-2.461"/>
	<path fill-rule="evenodd" clip-rule="evenodd" fill="none" stroke="#000000" stroke-width="1.1772" stroke-linecap="round" d="
		M605.436,297.965c-0.075-2.529-1.89-4.887-1.18-7.426c0.232-0.23,0.439-0.484,0.646-0.74c0.841-0.086,1.651-0.199,2.269-0.508"/>
	<path fill-rule="evenodd" clip-rule="evenodd" fill="none" stroke="#000000" stroke-width="1.614" stroke-linecap="round" d="
		M593.641,265.354c2.409,16.645-0.318,34.188,2.774,50.65"/>
	<path fill-rule="evenodd" clip-rule="evenodd" fill="none" stroke="#000000" stroke-width="0.9119" stroke-linecap="round" d="
		M607.171,289.291c1.569,0.289,2.894,1.16,4.163,2.082"/>
	<path fill-rule="evenodd" clip-rule="evenodd" fill="none" stroke="#000000" stroke-width="1.2387" stroke-linecap="round" d="
		M607.98,283.625c-0.705,1.75-0.852,3.748-0.81,5.666"/>
	<path fill-rule="evenodd" clip-rule="evenodd" fill="none" stroke="#000000" stroke-width="0.9717" stroke-linecap="round" d="
		M619.139,299.699c1.523,0.275,2.521-0.973,3.487-1.891c0.492-1.6-0.108-3.164-1.001-4.471"/>
	<path fill-rule="evenodd" clip-rule="evenodd" fill="none" stroke="#000000" stroke-width="1.2347" stroke-linecap="round" d="
		M572.479,187.298c-0.556-1.215-0.683-3.176,0.693-3.932"/>
	<path fill-rule="evenodd" clip-rule="evenodd" fill="none" stroke="#000000" stroke-width="1.3925" stroke-linecap="round" d="
		M573.173,183.366c0.08-1.214-0.168-2.473,0.112-3.657c0.59-0.275,0.771-1.019,1.124-1.583c0.824-0.23,1.646-0.12,2.094,0.186
		c0.38,1.727,0.004,3.494-0.438,5.17"/>
	<path fill-rule="evenodd" clip-rule="evenodd" fill="none" stroke="#000000" stroke-width="1.1903" stroke-linecap="round" d="
		M573.867,189.38c1.209,1.302,3.177,1.396,4.856,1.388"/>
	<path fill-rule="evenodd" clip-rule="evenodd" fill="none" stroke="#000000" stroke-width="2.1385" stroke-linecap="round" d="
		M573.173,183.366c0.54,0.104,1.63,0.1,2.892,0.116"/>
	<path fill-rule="evenodd" clip-rule="evenodd" fill="none" stroke="#000000" stroke-width="1.4554" stroke-linecap="round" d="
		M572.479,187.298c0.431,0,1.281,0,2.081,0"/>
	<path fill-rule="evenodd" clip-rule="evenodd" fill="none" stroke="#000000" stroke-width="1.7802" stroke-linecap="round" d="
		M574.56,187.298c0.915-1.006,1.961-2.372,1.504-3.816"/>
	<path fill-rule="evenodd" clip-rule="evenodd" fill="none" stroke="#000000" stroke-width="1.3436" stroke-linecap="round" d="
		M573.867,189.38c0.486-0.549,0.529-1.275,0.693-2.082"/>
	<path fill-rule="evenodd" clip-rule="evenodd" fill="none" stroke="#000000" stroke-width="1.0848" stroke-linecap="round" d="
		M572.479,187.298c-0.288,0.491-0.215,1.078-0.123,1.535c0.574,0.378,1.029,0.479,1.511,0.547"/>
	<path fill-rule="evenodd" clip-rule="evenodd" fill="none" stroke="#000000" stroke-width="1.133" stroke-linecap="round" d="
		M553.398,192.502c0.231,0.231,0.463,0.463,0.694,0.694"/>
	<path fill-rule="evenodd" clip-rule="evenodd" fill="none" stroke="#000000" stroke-width="1.0291" stroke-linecap="round" d="
		M554.093,193.196c3.7,0.788,7.665-0.789,11.102,0.694"/>
	
		<line fill-rule="evenodd" clip-rule="evenodd" fill="none" stroke="#000000" stroke-width="2.1941" stroke-linecap="round" x1="565.194" y1="193.889" x2="565.194" y2="193.889"/>
	<path fill-rule="evenodd" clip-rule="evenodd" fill="none" stroke="#000000" stroke-width="1.6123" stroke-linecap="round" d="
		M565.194,193.889c0.366-0.689,0.85-0.796,1.388-1.041"/>
	<path fill-rule="evenodd" clip-rule="evenodd" fill="none" stroke="#000000" stroke-width="1.0598" stroke-linecap="round" d="
		M565.194,193.889c-2.617,1.221-6.313,1.007-7.979,3.816"/>
	<path fill-rule="evenodd" clip-rule="evenodd" fill="none" stroke="#000000" stroke-width="0.9108" stroke-linecap="round" d="
		M557.215,197.706c2.611,4.018,8.271,0.815,9.524-2.736c-0.326-0.229-0.974-0.613-1.545-1.08"/>
	<path fill-rule="evenodd" clip-rule="evenodd" fill="none" stroke="#000000" stroke-width="1.019" stroke-linecap="round" d="
		M554.093,193.196c0.445,1.621,1.617,3.454,3.122,4.51"/>
	<path fill-rule="evenodd" clip-rule="evenodd" fill="none" stroke="#000000" stroke-width="0.757" stroke-linecap="round" d="
		M554.093,204.991c2.658,2.389,5.252,5.603,9.02,6.244"/>
</g>
</svg>
