<?xml version="1.0" encoding="utf-8"?>
<!-- Generator: Adobe Illustrator 14.0.0, SVG Export Plug-In . SVG Version: 6.00 Build 43363)  -->
<!DOCTYPE svg PUBLIC "-//W3C//DTD SVG 1.1//EN" "http://www.w3.org/Graphics/SVG/1.1/DTD/svg11.dtd">
<svg version="1.1" id="图层_1" xmlns="http://www.w3.org/2000/svg" xmlns:xlink="http://www.w3.org/1999/xlink" x="0px" y="0px"
	 width="848px" height="480px" viewBox="0 0 848 480" enable-background="new 0 0 848 480" xml:space="preserve">
<g>
	<path fill="none" stroke="#000000" stroke-width="1.0667" stroke-linecap="round" d="M318.19,95.365
		c-1.022-6.539-1.538-12.592,1.147-18.352c0.111-0.237,0.624-0.31,0.768-0.555c0.497-0.854,0.219-1.935,0.859-2.603"/>
	<path fill="none" stroke="#000000" stroke-width="0.9914" stroke-linecap="round" d="M333.801,185.564
		c-0.142,0.184-0.436,0.28-0.712,0.435c-0.333,2.396-1.3,4.666-1.021,7.197"/>
	<path fill="none" stroke="#000000" stroke-width="1.2018" stroke-linecap="round" d="M275.172,398.571
		c-0.532-0.738-0.477-1.34-0.46-1.867c1.671-0.639,2.306-2.403,3.931-2.989"/>
	
		<line fill="none" stroke="#000000" stroke-width="1.9625" stroke-linecap="round" x1="278.641" y1="393.713" x2="278.641" y2="393.713"/>
	<path fill="none" stroke="#000000" stroke-width="1.097" stroke-linecap="round" d="M278.641,393.713
		c0.169-0.431,0.29-0.724,0.408-1.009c0.394-0.266,1.231-0.291,2.02-0.379"/>
	<path fill="none" stroke="#000000" stroke-width="1.3436" stroke-linecap="round" d="M281.07,392.325
		c0.083-0.272,0.383-0.653,0.694-1.041"/>
	<path fill="none" stroke="#000000" stroke-width="0.9309" stroke-linecap="round" d="M281.763,391.284
		c0.15-0.313,0.336-0.59,0.522-0.864c0.826-0.101,1.638-0.214,2.252-0.523"/>
	<path fill="none" stroke="#000000" stroke-width="1.7689" stroke-linecap="round" d="M284.539,389.897
		c0.57-0.465,1.117-0.688,1.734-1.041"/>
	<path fill="none" stroke="#000000" stroke-width="0.9135" stroke-linecap="round" d="M286.273,388.856
		c2.984-2.271,7.321-1.42,10.754-1.041"/>
	<path fill="none" stroke="#000000" stroke-width="1.1784" stroke-linecap="round" d="M297.028,387.815
		c0.566-0.277,3.899-0.971,5.699-1.932c0.397-0.213,0.646-0.865,1.047-1.035c0.939-0.4,2.217-0.9,3.46-1.398
		c1.003-0.399,2.351-0.936,3.469-1.387c5.788-2.334,11.688-3.365,13.994-7.412c0.665-10.221,0.213-20.518-0.959-30.895
		c-0.053-0.47-0.496-0.906-0.55-1.388c-0.568-5.063-0.189-10.188-0.813-15.264c-0.057-0.469-0.523-0.91-0.572-1.389
		c-0.676-6.552-0.719-13.47-1.186-20.013c-0.123-1.723-0.129-3.274-0.349-4.965c-0.366-2.811-1.481-5.639-1.932-8.325
		c-0.471-2.818-0.633-5.234-1.058-8.109c0.035,0.234-0.673-2.594-0.861-3.195c-0.041-0.131-0.459-0.147-0.497-0.291
		c-0.176-0.647-0.087-1.938-0.271-2.588c-0.064-0.227-0.691-0.313-0.763-0.561c-0.567-1.955-0.569-3.978-1.077-5.855
		c-0.419-1.547-1.562-6.521-2.373-9.381c-0.033-0.115-0.515-0.143-0.552-0.285c-0.536-2.026-1.072-3.949-1.575-5.955
		c-0.229-0.912-0.807-2.162-1.06-3.328c-0.256-1.178-0.134-2.381-0.284-2.92c-0.034-0.129-0.491-0.131-0.551-0.286
		c-0.979-2.564-1.398-6.082-2.101-8.791c-0.032-0.123-0.464-0.154-0.497-0.291c-0.152-0.635-0.051-1.872-0.271-2.977
		c-0.098-0.492-0.621-0.904-0.763-1.387c-0.348-1.184-0.376-3.283-0.489-4.148c-0.46-3.523-0.67-7.198-1.063-11.115"/>
	<path fill="none" stroke="#000000" stroke-width="1.0514" stroke-linecap="round" d="M303.619,201.175
		c0.049-1.25-0.396-2.794,0.919-3.486c0.821-1.427,1.612-4.84,2.766-7.751c0.099-0.251,0.622-0.296,0.703-0.569
		c0.17-0.578,0.042-1.554,0.233-2.418c0.108-0.488,0.678-0.893,0.763-1.386c0.484-2.799-0.3-6.517,0.514-9.366"/>
	<path fill="none" stroke="#000000" stroke-width="0.8625" stroke-linecap="round" d="M309.517,176.197
		c-0.491-1.25-0.579-2.921,0-4.162"/>
	<path fill="none" stroke="#000000" stroke-width="1.0659" stroke-linecap="round" d="M309.517,172.034
		c-0.854-2.809-0.089-5.851,0.347-8.674"/>
	<path fill="none" stroke="#000000" stroke-width="0.8498" stroke-linecap="round" d="M309.864,163.361
		c0.055-0.979-0.059-1.792-0.347-2.429"/>
	<path fill="none" stroke="#000000" stroke-width="0.9769" stroke-linecap="round" d="M309.517,160.932
		c-3.862,1.868-5.58,5.948-9.181,8.167c-0.146,1.297-1.603,1.805-1.773,3.082c-4.819,3.901-9.355,10.175-16.245,9.705
		c-0.494-0.43-0.945-0.904-1.439-1.335c-0.15-4.258-1.028-10.094,3.126-12.521c1.334-3.261,3.908-4.596,5.954-7.117
		c1.414-1.744,2.618-3.655,3.702-5.525c0.128-0.221,0.65-0.272,0.769-0.533c1.034-2.295,1.188-4.228,2.459-6.557
		c0.461-0.847,3.861-3.336,4.304-5.578"/>
	<path fill="none" stroke="#000000" stroke-width="1.2698" stroke-linecap="round" d="M301.191,142.719
		c-0.493-0.335-1.081-0.702-1.533-1.022c-1.428-3.623,0.33-7.198,2.402-9.737c1.344-2.447,0.265-5.691,2.452-7.744
		c-0.178-2.393,0.547-7.046-0.201-11.505c-0.153-0.912-0.744-2.535-0.963-3.781c-0.297-1.69-0.394-3.176-0.7-4.858
		c-1.443-7.917-4.606-16.388-3.089-22.481c0.429-1.724,1.655-2.504,2.495-3.756c0.826-1.233,0.89-2.557,1.639-3.906
		c0.186-0.335,0.647-0.351,0.802-0.568c1.068-1.505,2.545-3.639,3.73-4.716c3.215-2.92,6.441-6.646,11.833-5.676
		c1.236,0.695,2.664,2.137,4.163,1.642c0.336-0.328,1.182-0.354,1.947-0.467"/>
	<path fill="none" stroke="#000000" stroke-width="1.097" stroke-linecap="round" d="M326.169,64.143
		c0.101-0.512,0.947-0.604,1.734-0.693"/>
	<path fill="none" stroke="#000000" stroke-width="1.133" stroke-linecap="round" d="M327.903,63.449
		c0.069-0.165,0.139-0.33,0.208-0.495c0.796-0.22,1.61,0.409,2.22,0.842"/>
	<path fill="none" stroke="#000000" stroke-width="1.4476" stroke-linecap="round" d="M330.332,63.796
		c1.936-0.81,4.213-1.608,6.245-0.694"/>
	<path fill="none" stroke="#000000" stroke-width="0.9501" stroke-linecap="round" d="M336.576,63.102
		c0.808-0.406,2.048-0.355,2.775,0"/>
	<path fill="none" stroke="#000000" stroke-width="1.5122" stroke-linecap="round" d="M366.064,131.445
		c-0.956-1.175-0.247-2.343,0.462-3.237"/>
	<path fill="none" stroke="#000000" stroke-width="1.8909" stroke-linecap="round" d="M366.527,128.207
		c0.12-0.154,0.239-0.309,0.359-0.461c0.381-2.361,0.157-4.517,0.329-7.018c0.021-0.305,0.451-0.692,0.487-1.111
		c0.63-7.318-0.389-15.063,0.443-23.559"/>
	<path fill="none" stroke="#000000" stroke-width="1.0213" stroke-linecap="round" d="M368.146,96.059
		c-0.486-0.694-0.53-1.388-0.694-2.082"/>
	<path fill="none" stroke="#000000" stroke-width="1.2462" stroke-linecap="round" d="M367.452,93.978
		c0.561-3.682-0.999-6.985-1.203-10.552c-0.234-0.122-0.568-0.314-0.879-0.549"/>
	<path fill="none" stroke="#000000" stroke-width="1.3508" stroke-linecap="round" d="M369.533,93.978
		c0.031-5.578-0.136-12.149-3.833-16.391c-0.336-1.539-1.198-2.886-1.791-4.354c-0.4-0.498-1.275-0.805-1.666-1.205
		c-3.832-3.923-7.979-6.868-13.402-7.2c-0.094-0.007-0.199,0.175-0.296,0.183"/>
	<path fill="none" stroke="#000000" stroke-width="1.2903" stroke-linecap="round" d="M348.545,65.01
		c1.359,2.964,4.701,4.364,4.685,7.805"/>
	<path fill="none" stroke="#000000" stroke-width="1.6843" stroke-linecap="round" d="M353.228,72.816
		c1.651,0.273,0.382,2.524,1.922,2.921c1.342,12.399,0.539,25.821-5.739,36.627"/>
	<path fill="none" stroke="#000000" stroke-width="1.097" stroke-linecap="round" d="M349.412,112.365
		c0.052,1.696-0.525,1.926-0.925,2.197"/>
	<path fill="none" stroke="#000000" stroke-width="1.1177" stroke-linecap="round" d="M344.357,130.156
		c0.541-0.223,0.868-0.364,1.186-0.503c1.87-4.365,3.91-8.13,4.91-12.778"/>
	<path fill="none" stroke="#000000" stroke-width="1.0241" stroke-linecap="round" d="M348.949,137.921
		c0.025-0.09,0.049-0.182,0.074-0.271c2.098-2.122,4.5-3.196,6.155-5.185c7.499-9.005,3.869-24.636,4.641-36.405"/>
	<path fill="none" stroke="#000000" stroke-width="1.5515" stroke-linecap="round" d="M353.749,139.424
		c0.213-0.344,0.481-0.579,0.751-0.811"/>
	<path fill="none" stroke="#000000" stroke-width="1.6541" stroke-linecap="round" d="M354.5,138.614
		c0.025-0.09,0.049-0.18,0.074-0.271c1.821-0.833,3.062-2.809,4.903-3.87c0.231-0.395,0.55-0.761,0.881-1.104
		c4.56-10.107,2.989-27.576,1.266-40.395c-0.167-1.246,0.064-2.465-0.417-3.854"/>
	<path fill="none" stroke="#000000" stroke-width="0.9235" stroke-linecap="round" d="M354.5,138.614
		c3.321,1.616,6.649-0.635,9.3-2.494c0.417-1.682,1.319-3.234,2.265-4.675"/>
	<path fill="none" stroke="#000000" stroke-width="1.5822" stroke-linecap="round" d="M353.749,139.424
		c-0.814-0.021-1.521,0.159-2.255,0.347"/>
	<path fill="none" stroke="#000000" stroke-width="1.8682" stroke-linecap="round" d="M351.493,139.771
		c0.514,1.308,0.45,2.848,0,4.163"/>
	<path fill="none" stroke="#000000" stroke-width="3.5037" stroke-linecap="round" d="M351.493,143.934c0,1.156,0,2.313,0,3.469"/>
	<path fill="none" stroke="#000000" stroke-width="1.5618" stroke-linecap="round" d="M351.493,147.403
		c0.15,1.736,1.182,4.811-0.347,5.898"/>
	<path fill="none" stroke="#000000" stroke-width="1.1874" stroke-linecap="round" d="M350.569,162.436
		c0.41-0.063,0.808-0.145,1.087-0.271c0.731-2.599,1.998-5.016,2.613-7.824"/>
	<path fill="none" stroke="#000000" stroke-width="1.205" stroke-linecap="round" d="M349.412,177.238
		c1.046,3.631,5.438,5.096,8.91,4.756c3.471-2.551,2.524-7.208,1.915-12.008c-0.74-5.831-2.271-12.17-2.607-18.31
		c-0.122-2.233-0.417-6.993-1.49-9.62c-0.624-0.332-0.693-0.81-0.925-1.245c-0.632-0.261-1.082-0.62-1.302-1.048
		c-0.055-0.113-0.108-0.227-0.163-0.34"/>
	<path fill="none" stroke="#000000" stroke-width="1.0015" stroke-linecap="round" d="M317.264,138.614
		c0.074-1.522,0.809-3.269-0.116-4.74"/>
	<path fill="none" stroke="#000000" stroke-width="1.2018" stroke-linecap="round" d="M309.517,160.932
		c0.23-0.23,0.462-0.462,0.693-0.694"/>
	<path fill="none" stroke="#000000" stroke-width="0.8592" stroke-linecap="round" d="M310.211,160.239
		c0.412-1.02,1.246-1.63,2.231-1.931c0.099-0.364,0.148-0.776,0.197-1.19"/>
	<path fill="none" stroke="#000000" stroke-width="1.1864" stroke-linecap="round" d="M310.211,160.239
		c2.235,1.16,7.872,3.805,12.771,3.465c0.351-0.024,0.632-0.422,0.924-0.651c0.427-4.547-0.252-9.121-0.858-13.567"/>
	<path fill="none" stroke="#000000" stroke-width="1.5254" stroke-linecap="round" d="M323.047,149.484
		c-0.636-1.385-0.121-2.954-0.463-4.394"/>
	<path fill="none" stroke="#000000" stroke-width="1.0438" stroke-linecap="round" d="M322.584,145.09
		c-1.49-1.407-1.611-4.243-2.774-6.245"/>
	<path fill="none" stroke="#000000" stroke-width="1.4835" stroke-linecap="round" d="M319.808,138.845
		c-0.692-0.116-1.96-0.088-2.544-0.231"/>
	<path fill="none" stroke="#000000" stroke-width="0.9309" stroke-linecap="round" d="M317.264,138.614
		c-3.336,0.411-6.583,1.751-9.004,4.301c-1.329,1.397-2.882,4.719-3.702,6.218c-0.302,0.55-1.094,1.245-1.479,1.885
		c-0.178,0.296-0.145,0.863-0.356,1.261c-0.733,1.372-1.859,1.62-2.393,2.239c-1.456,1.693-3.04,3.514-4.874,5.539
		c-0.231,0.256-0.117,0.788-0.356,1.03c-0.692,0.697-1.695,1.067-2.408,1.758c-0.977,0.943-2.079,3.051-2.704,3.634
		c-2.871,2.679-4.61,4.529-6.491,7.29"/>
	<path fill="none" stroke="#000000" stroke-width="0.8552" stroke-linecap="round" d="M309.864,163.361
		c2.826-0.133,5.126,1.432,7.772,1.94c1.523,0.294,2.899,0.077,4.605,0.251c0.285,0.029,0.571,0.458,0.9,0.487
		c6.368,0.552,14.277,0.443,20.607-0.016c0.547-0.04,4.017-1.111,6.355-0.583"/>
	<path fill="none" stroke="#000000" stroke-width="1.0033" stroke-linecap="round" d="M350.106,165.443
		c0.919-0.864,0.441-1.945,0.463-3.007"/>
	<path fill="none" stroke="#000000" stroke-width="0.8731" stroke-linecap="round" d="M350.569,162.436
		c-0.802-1.379-0.626-3.477-0.116-4.972"/>
	<path fill="none" stroke="#000000" stroke-width="0.8957" stroke-linecap="round" d="M350.453,157.464
		c-0.471-0.223-0.964-0.423-1.388-0.694"/>
	<path fill="none" stroke="#000000" stroke-width="1.0995" stroke-linecap="round" d="M349.065,156.769
		c-0.105,0.009-0.21,0.02-0.314,0.028c-0.343,2.219-1.563,3.939-1.631,6.353c-2.51,0.426-5.14,1.604-7.652,0.442"/>
	<path fill="none" stroke="#000000" stroke-width="0.9359" stroke-linecap="round" d="M339.467,163.592
		c-3.41,0.759-7.662,0.718-10.977,0.074c1.797-2.279,3.833-4.975,6.351-6.549"/>
	<path fill="none" stroke="#000000" stroke-width="1.0813" stroke-linecap="round" d="M339.467,163.592
		c-0.076-0.342,0.236-1.224,0.231-2.313"/>
	<path fill="none" stroke="#000000" stroke-width="0.9179" stroke-linecap="round" d="M349.065,156.769
		c0.795-1.249-0.141-2.921,0.693-4.163"/>
	<path fill="none" stroke="#000000" stroke-width="1.5898" stroke-linecap="round" d="M350.106,139.771
		c-0.196-0.563-0.634-1.17-1.156-1.85"/>
	<path fill="none" stroke="#000000" stroke-width="1.2397" stroke-linecap="round" d="M348.949,137.921
		c-0.087,0.025-0.174,0.052-0.261,0.078c-2.261-0.461-3.19-2.072-3.821-3.984c0.026,0.08-1.28-1.88-0.51-3.857"/>
	<path fill="none" stroke="#000000" stroke-width="2.1757" stroke-linecap="round" d="M344.357,130.156
		c-1.007-1.357-0.131-3.246-0.669-4.781"/>
	<path fill="none" stroke="#000000" stroke-width="2.1941" stroke-linecap="round" d="M343.688,125.374
		c-0.289-0.098-0.578-0.193-0.867-0.289"/>
	<path fill="none" stroke="#000000" stroke-width="1.8874" stroke-linecap="round" d="M342.821,125.085
		c-1.758,0.06-2.263,1.596-3.469,2.544"/>
	<path fill="none" stroke="#000000" stroke-width="0.9281" stroke-linecap="round" d="M339.351,127.629
		c-0.354,2.34-3.032,3.842-5.204,3.815"/>
	
		<line fill="none" stroke="#000000" stroke-width="1.7689" stroke-linecap="round" x1="334.148" y1="131.445" x2="334.148" y2="131.445"/>
	<path fill="none" stroke="#000000" stroke-width="1.4601" stroke-linecap="round" d="M334.148,131.445
		c-0.355,0.971-1.192,1.268-1.734,1.735"/>
	<path fill="none" stroke="#000000" stroke-width="1.5278" stroke-linecap="round" d="M324.665,149.022
		c0.835,3.948,1.681,8.077,1.503,12.258"/>
	<path fill="none" stroke="#000000" stroke-width="1.161" stroke-linecap="round" d="M346.637,173.074
		c0.159-0.071,0.319-0.143,0.479-0.214c0.138-1.07,0.658-1.393,1.602-1.868"/>
	<path fill="none" stroke="#000000" stroke-width="1.3992" stroke-linecap="round" d="M348.719,170.993
		c-0.01-1.972,1.397-3.592,1.387-5.551"/>
	<path fill="none" stroke="#000000" stroke-width="1.1525" stroke-linecap="round" d="M313.68,104.732
		c-0.031,2.613,2.763,3.747,3.717,6.689c0.786,2.428-0.143,4.729,0.998,7.332c0.771,0.205,1.704,0.221,2.356-0.019
		c0.367-0.573,0.945-0.978,1.429-1.341"/>
	<path fill="none" stroke="#000000" stroke-width="2.1385" stroke-linecap="round" d="M322.179,117.395
		c0.156-0.769,0.149-1.701,0.174-2.602"/>
	<path fill="none" stroke="#000000" stroke-width="1.0343" stroke-linecap="round" d="M322.353,114.793
		c-0.431-0.168-0.723-0.292-1.008-0.414c-0.471-0.711-0.432-1.941,0.313-3.055"/>
	<path fill="none" stroke="#000000" stroke-width="1.9181" stroke-linecap="round" d="M301.191,142.719
		c1.384-1.707,3.072-3.078,4.856-4.336"/>
	<path fill="none" stroke="#000000" stroke-width="1.049" stroke-linecap="round" d="M306.048,138.383
		c0.088-0.363,0.311-0.814,0.526-1.214c0.429-0.242,1.136-0.406,1.902-0.521"/>
	<path fill="none" stroke="#000000" stroke-width="2.5016" stroke-linecap="round" d="M308.476,136.648
		c0.032-0.049,0.065-0.099,0.099-0.147"/>
	<path fill="none" stroke="#000000" stroke-width="1.0768" stroke-linecap="round" d="M308.575,136.5
		c-0.306-0.761-0.948-2.409,0.269-2.71c1.788-6.946,0.935-14.331,0.157-21.389c0.354-0.249,0.825-0.453,1.21-0.73"/>
	<path fill="none" stroke="#000000" stroke-width="0.8698" stroke-linecap="round" d="M310.211,111.671
		c-0.416-0.799-0.371-2.034,0.116-2.892"/>
	<path fill="none" stroke="#000000" stroke-width="2.0045" stroke-linecap="round" d="M310.326,108.78
		c-0.788-3.774-2.979-7.368-2.313-11.333"/>
	<path fill="none" stroke="#000000" stroke-width="1.256" stroke-linecap="round" d="M308.013,97.447
		c-2.613-7.481,0.551-15.251,2.544-22.202"/>
	<path fill="none" stroke="#000000" stroke-width="1.1443" stroke-linecap="round" d="M308.013,97.447
		c3.045,1.456,3.13,5.366,5.667,7.285"/>
	<path fill="none" stroke="#000000" stroke-width="0.821" stroke-linecap="round" d="M313.68,104.732
		c0.127-0.837,0.605-2.094,2.082-2.428"/>
	<path fill="none" stroke="#000000" stroke-width="1.0652" stroke-linecap="round" d="M315.761,102.304
		c-0.381-3.535-4.806-5.067-5.898-8.326"/>
	<path fill="none" stroke="#000000" stroke-width="1.7503" stroke-linecap="round" d="M315.761,102.304
		c0.886,1.168,3.303,1.377,3.469,3.295"/>
	<path fill="none" stroke="#000000" stroke-width="1.3877" stroke-linecap="round" d="M319.23,105.599
		c1.491,0.509,1.944,1.247,2.082,2.429"/>
	<path fill="none" stroke="#000000" stroke-width="2.1941" stroke-linecap="round" d="M321.312,108.028
		c1.063,0.965,1.122,2.351,1.293,2.98"/>
	<path fill="none" stroke="#000000" stroke-width="1.3286" stroke-linecap="round" d="M323.047,112.711
		c0.591,0.223,0.958,0.423,1.389,0.693"/>
	<path fill="none" stroke="#000000" stroke-width="1.6053" stroke-linecap="round" d="M318.19,132.832
		c1.927-0.493,3.926-0.314,5.896-0.348"/>
	<path fill="none" stroke="#000000" stroke-width="2.1197" stroke-linecap="round" d="M328.597,134.22c0.463,0,0.925,0,1.388,0"/>
	<path fill="none" stroke="#000000" stroke-width="1.2018" stroke-linecap="round" d="M329.985,134.22
		c0.232-1.037,1.038-1.25,1.735-1.734"/>
	<path fill="none" stroke="#000000" stroke-width="1.298" stroke-linecap="round" d="M345.249,121.731
		c0.334-1.598,0.925-3.104,1.734-4.51"/>
	<path fill="none" stroke="#000000" stroke-width="0.8957" stroke-linecap="round" d="M346.984,117.221
		c-0.471-0.223-0.964-0.423-1.388-0.694"/>
	<path fill="none" stroke="#000000" stroke-width="0.9836" stroke-linecap="round" d="M345.596,116.527
		c-4.717,4.722-9.673,9.386-14.917,13.53"/>
	<path fill="none" stroke="#000000" stroke-width="1.0407" stroke-linecap="round" d="M345.596,116.527
		c0.223-0.471,0.423-0.964,0.693-1.388"/>
	<path fill="none" stroke="#000000" stroke-width="1.5614" stroke-linecap="round" d="M353.228,72.816
		c-1.691,3.653-0.726,9.479-1.712,14.917c-0.808,4.441-1.575,8.155-2.488,11.999c-0.291,0.127-0.469,0.308-0.656,0.49"/>
	<path fill="none" stroke="#000000" stroke-width="1.1862" stroke-linecap="round" d="M348.545,65.01
		c-2.766-1.375-6.028-3.034-9.192-1.908"/>
	<path fill="none" stroke="#000000" stroke-width="0.8885" stroke-linecap="round" d="M339.351,63.102
		c-1.328,2.007-3.624,2.896-4.511,5.204"/>
	<path fill="none" stroke="#000000" stroke-width="0.9376" stroke-linecap="round" d="M336.576,63.102
		c-0.305,0.621-0.785,1.065-1.203,1.573c-3.98,1.144-6.176,4.996-9.205,7.447"/>
	<path fill="none" stroke="#000000" stroke-width="1.9625" stroke-linecap="round" d="M330.332,63.796
		c-0.116,0.116-0.23,0.23-0.347,0.347"/>
	<path fill="none" stroke="#000000" stroke-width="0.9695" stroke-linecap="round" d="M329.985,64.143
		c-1.041,1.77-2.817,3.567-4.856,4.163"/>
	<path fill="none" stroke="#000000" stroke-width="0.9295" stroke-linecap="round" d="M326.169,64.837
		c-0.033,0.113-0.067,0.226-0.102,0.339c-3.107,2.29-7.36,2.032-9.958,5.211"/>
	<path fill="none" stroke="#000000" stroke-width="0.6938" stroke-linecap="round" d="M327.903,63.449c0,0.23,0,0.463,0,0.693"/>
	<path fill="none" stroke="#000000" stroke-width="0.8012" stroke-linecap="round" d="M327.903,64.143c0.889,0,1.421,0,2.082,0"/>
	<path fill="none" stroke="#000000" stroke-width="1.3877" stroke-linecap="round" d="M326.169,64.143c0,0.231,0,0.463,0,0.694"/>
	<path fill="none" stroke="#000000" stroke-width="0.8498" stroke-linecap="round" d="M326.169,64.837
		c0.979,0.041,1.335-0.316,1.734-0.694"/>
	<path fill="none" stroke="#000000" stroke-width="1.3165" stroke-linecap="round" d="M368.146,96.059
		c0.445-0.694,0.846-1.388,1.387-2.082"/>
	<path fill="none" stroke="#000000" stroke-width="0.8012" stroke-linecap="round" d="M369.533,93.978c-0.542,0-1.251,0-2.081,0"/>
	<path fill="none" stroke="#000000" stroke-width="1.4921" stroke-linecap="round" d="M310.326,108.78
		c0.41,0.064,0.808,0.146,1.087,0.271c0.111,0.475,0.219,1.416,0.531,2.273"/>
	<path fill="none" stroke="#000000" stroke-width="1.5122" stroke-linecap="round" d="M311.945,111.323
		c1.008,0.708,0.963,1.929,1.156,3.008"/>
	<path fill="none" stroke="#000000" stroke-width="1.671" stroke-linecap="round" d="M313.101,114.33
		c0.12,0.075,0.239,0.151,0.358,0.229c0.569,2.521,1.433,4.678,2.186,7.172"/>
	<path fill="none" stroke="#000000" stroke-width="0.9606" stroke-linecap="round" d="M315.646,121.731
		c1.852,0.841,3.168,2.244,4.972,3.122"/>
	<path fill="none" stroke="#000000" stroke-width="1.3963" stroke-linecap="round" d="M320.618,124.853
		c0.978-2.241,2.53-5.036,1.562-7.458"/>
	<path fill="none" stroke="#000000" stroke-width="1.6586" stroke-linecap="round" d="M319.23,105.599
		c-0.021,0.876,0.004,1.855,0.16,2.38c0.189,0.12,0.531,0.172,0.881,0.223"/>
	<path fill="none" stroke="#000000" stroke-width="2.1385" stroke-linecap="round" d="M321.659,111.323
		c0.315-0.104,0.631-0.21,0.946-0.314"/>
	<path fill="none" stroke="#000000" stroke-width="1.4988" stroke-linecap="round" d="M321.312,108.028
		c-0.273,0.096-0.654,0.136-1.041,0.174"/>
	<path fill="none" stroke="#000000" stroke-width="1.0407" stroke-linecap="round" d="M320.271,108.201
		c-0.021,0.963,0.021,1.632,0.101,2.311c0.259,0.301,0.773,0.516,1.287,0.811"/>
	<path fill="none" stroke="#000000" stroke-width="1.3877" stroke-linecap="round" d="M310.211,111.671c0.115,0,0.231,0,0.348,0"/>
	<path fill="none" stroke="#000000" stroke-width="1.6272" stroke-linecap="round" d="M310.557,111.671
		c0.463-0.042,0.925-0.192,1.388-0.347"/>
	<path fill="none" stroke="#000000" stroke-width="1.7346" stroke-linecap="round" d="M308.575,136.5
		c1.903-0.929,3.721-2.026,5.452-2.975"/>
	<path fill="none" stroke="#000000" stroke-width="1.1823" stroke-linecap="round" d="M314.027,133.526
		c0.26-6.27-1.099-12.432-2.544-18.271"/>
	<path fill="none" stroke="#000000" stroke-width="0.8957" stroke-linecap="round" d="M311.483,115.255
		c0.545-0.297,1.104-0.564,1.619-0.925"/>
	<path fill="none" stroke="#000000" stroke-width="1.0055" stroke-linecap="round" d="M310.557,111.671
		c-0.014,1.249-0.021,2.176,0.106,3.015c0.281,0.308,0.558,0.402,0.818,0.569"/>
	<path fill="none" stroke="#000000" stroke-width="1.6995" stroke-linecap="round" d="M322.353,114.793
		c0.223-0.694,0.423-1.389,0.693-2.082"/>
	<path fill="none" stroke="#000000" stroke-width="2.266" stroke-linecap="round" d="M323.047,112.711
		c-0.07-0.716-0.276-1.215-0.441-1.703"/>
	<path fill="none" stroke="#000000" stroke-width="1.0848" stroke-linecap="round" d="M349.412,112.365
		c-0.741-0.017-1.322,0.222-1.902,0.533c-0.088,0.371-0.135,0.786-0.179,1.202"/>
	<path fill="none" stroke="#000000" stroke-width="1.4881" stroke-linecap="round" d="M347.677,115.833
		c0.559,0.063,0.632-0.742,0.81-1.272"/>
	<path fill="none" stroke="#000000" stroke-width="0.8498" stroke-linecap="round" d="M348.487,114.561
		c-0.336-0.253-0.745-0.36-1.156-0.462"/>
	<path fill="none" stroke="#000000" stroke-width="0.8776" stroke-linecap="round" d="M347.331,114.099
		c-0.466,0.229-0.688,0.7-1.041,1.041"/>
	<path fill="none" stroke="#000000" stroke-width="0.9251" stroke-linecap="round" d="M314.027,133.526
		c1.185-0.028,2.358-0.046,3.122,0.348"/>
	<path fill="none" stroke="#000000" stroke-width="1.5515" stroke-linecap="round" d="M317.149,133.873
		c0.347-0.348,0.693-0.694,1.041-1.041"/>
	<path fill="none" stroke="#000000" stroke-width="1.9625" stroke-linecap="round" d="M318.19,132.832
		c-0.252-0.542-0.481-1.251-0.694-2.082"/>
	<path fill="none" stroke="#000000" stroke-width="1.3627" stroke-linecap="round" d="M317.496,130.751
		c-0.732-2.907-1.905-5.888-1.85-9.021"/>
	<path fill="none" stroke="#000000" stroke-width="1.0407" stroke-linecap="round" d="M346.984,117.221
		c0.223-0.471,0.423-0.964,0.694-1.388"/>
	<path fill="none" stroke="#000000" stroke-width="0.8957" stroke-linecap="round" d="M347.677,115.833
		c-0.472-0.224-0.965-0.423-1.389-0.694"/>
	<path fill="none" stroke="#000000" stroke-width="1.3372" stroke-linecap="round" d="M317.496,130.751
		c0.737-0.228,1.158-0.32,1.537-0.496c0.329-1.943,1.645-3.212,1.585-5.402"/>
	<path fill="none" stroke="#000000" stroke-width="1.1793" stroke-linecap="round" d="M343.688,125.374
		c0.354-0.229,0.831-0.412,1.195-0.593c0.397-0.703,0.324-2.176,0.365-3.05"/>
	<path fill="none" stroke="#000000" stroke-width="1.5515" stroke-linecap="round" d="M345.249,121.731
		c-0.722,0.104-1.224,0.282-1.696,0.429c-0.467,0.68-0.684,1.295-0.731,2.925"/>
	<path fill="none" stroke="#000000" stroke-width="0.9395" stroke-linecap="round" d="M339.351,127.629
		c-2.305,0.247-3.987,2.013-5.204,3.815"/>
	<path fill="none" stroke="#000000" stroke-width="1.402" stroke-linecap="round" d="M366.064,131.445
		c0.503-0.345,0.848-0.592,1.186-0.834c0.205-0.84-0.388-1.688-0.723-2.402"/>
	<path fill="none" stroke="#000000" stroke-width="0.9812" stroke-linecap="round" d="M331.719,132.486
		c0.23,0.231,0.462,0.462,0.693,0.694"/>
	<path fill="none" stroke="#000000" stroke-width="0.9812" stroke-linecap="round" d="M334.148,131.445
		c-0.585-0.033-1.186,0.049-1.795,0.215c-0.193,0.311-0.413,0.569-0.633,0.826"/>
	<path fill="none" stroke="#000000" stroke-width="0.9501" stroke-linecap="round" d="M324.087,136.995
		c1.321,0.071,2.32-0.768,3.611-0.904c0.328-0.533,0.542-1.102,0.899-1.872"/>
	<path fill="none" stroke="#000000" stroke-width="0.9026" stroke-linecap="round" d="M328.597,134.22
		c-0.618-0.933-1.085-1.364-1.542-1.921c-1.022-0.198-2.22-0.191-2.969,0.187"/>
	<path fill="none" stroke="#000000" stroke-width="1.161" stroke-linecap="round" d="M319.808,138.845
		c0.977-0.561,1.61-0.768,2.082-0.694"/>
	<path fill="none" stroke="#000000" stroke-width="1.4163" stroke-linecap="round" d="M321.89,138.152
		c1.176-0.833,1.867-0.765,2.196-1.155"/>
	<path fill="none" stroke="#000000" stroke-width="0.8893" stroke-linecap="round" d="M324.087,136.995
		c0.192-0.59,0.323-1.67,0.908-2.234c0.07-0.926-0.512-1.541-0.908-2.275"/>
	<path fill="none" stroke="#000000" stroke-width="0.8498" stroke-linecap="round" d="M329.985,134.22
		c0.585,0.034,1.185-0.048,1.796-0.214c0.193-0.312,0.412-0.57,0.633-0.826"/>
	<path fill="none" stroke="#000000" stroke-width="1.1764" stroke-linecap="round" d="M306.048,138.383
		c0.689,0.044,1.097-0.083,1.491-0.217c0.418-0.567,0.73-1.061,0.938-1.519"/>
	<path fill="none" stroke="#000000" stroke-width="0.8957" stroke-linecap="round" d="M322.584,145.09
		c0.553-0.304,1.054-0.511,1.503-0.811"/>
	<path fill="none" stroke="#000000" stroke-width="1.133" stroke-linecap="round" d="M324.087,144.281
		c-0.232-2.342-1.344-3.93-2.196-6.129"/>
	<path fill="none" stroke="#000000" stroke-width="2.1197" stroke-linecap="round" d="M351.493,139.771c-0.462,0-0.925,0-1.388,0"/>
	<path fill="none" stroke="#000000" stroke-width="1.3683" stroke-linecap="round" d="M350.106,139.771
		c-0.165,1.55,0.002,3.176,1.388,4.163"/>
	<path fill="none" stroke="#000000" stroke-width="1.4988" stroke-linecap="round" d="M323.047,149.484
		c0.722-0.235,1.177-0.316,1.619-0.462"/>
	<path fill="none" stroke="#000000" stroke-width="1.0157" stroke-linecap="round" d="M324.665,149.022
		c-0.354-1.495,0.08-3.288-0.578-4.741"/>
	<path fill="none" stroke="#000000" stroke-width="1.216" stroke-linecap="round" d="M351.493,147.403
		c-2.046,1.123-0.878,3.55-1.734,5.204"/>
	<path fill="none" stroke="#000000" stroke-width="0.9179" stroke-linecap="round" d="M350.453,157.464
		c0.795-1.25-0.14-2.922,0.694-4.163"/>
	<path fill="none" stroke="#000000" stroke-width="0.8957" stroke-linecap="round" d="M351.147,153.301
		c-0.472-0.223-0.964-0.423-1.389-0.694"/>
	<path fill="none" stroke="#000000" stroke-width="1.4049" stroke-linecap="round" d="M346.637,174.809
		c0.866,0.72,1.044,2.518,2.774,2.428"/>
	<path fill="none" stroke="#000000" stroke-width="1.2142" stroke-linecap="round" d="M349.412,177.238
		c0.494-2.001,0.277-4.443-0.692-6.244"/>
	<path fill="none" stroke="#000000" stroke-width="1.0813" stroke-linecap="round" d="M345.48,177.006
		c0.392-1.044,0.585-1.98,1.157-2.197"/>
	<path fill="none" stroke="#000000" stroke-width="0.8012" stroke-linecap="round" d="M346.637,174.809c0-0.651,0-1.196,0-1.734"/>
	<path fill="none" stroke="#000000" stroke-width="0.9438" stroke-linecap="round" d="M346.637,173.074
		c-1.275-0.118-2.091,0.224-2.872,0.598c-11.501,0.542-23.212,1.618-34.249-1.639"/>
	<path fill="none" stroke="#000000" stroke-width="1.1689" stroke-linecap="round" d="M342.127,199.787
		c0.162-5.598-0.212-10.689,1.427-15.814c0.042-0.131,0.459-0.146,0.496-0.29c0.172-0.65,0.1-1.935,0.271-2.588
		c0.058-0.222,0.653-0.332,0.762-0.561c0.307-0.643,0.271-3.078,0.397-3.528"/>
	<path fill="none" stroke="#000000" stroke-width="0.9549" stroke-linecap="round" d="M345.48,177.006
		c-11.906,1.003-24.376,1.879-35.963-0.81"/>
	<path fill="none" stroke="#000000" stroke-width="1.5176" stroke-linecap="round" d="M348.371,221.643
		c0.51-3.742,0.278-7.534-0.162-11.246c-1.541-1.502-1.422-4.619-2.96-6.1"/>
	<path fill="none" stroke="#000000" stroke-width="0.8625" stroke-linecap="round" d="M345.249,204.297c-1.157,0-2.313,0-3.469,0"/>
	<path fill="none" stroke="#000000" stroke-width="0.9812" stroke-linecap="round" d="M345.249,204.297
		c-0.412-1.769-1.831-3.236-3.123-4.51"/>
	<path fill="none" stroke="#000000" stroke-width="1.0413" stroke-linecap="round" d="M342.127,199.787
		c-12.812,1.041-25.596,2.582-38.507,1.388"/>
	<path fill="none" stroke="#000000" stroke-width="0.9635" stroke-linecap="round" d="M303.619,201.175
		c-0.117,0.034-0.232,0.068-0.349,0.103c-0.674,1.326-0.194,2.961-0.346,4.408"/>
	<path fill="none" stroke="#000000" stroke-width="1.2204" stroke-linecap="round" d="M302.926,205.685
		c11.16,0.913,22.234-0.182,33.305-1.041"/>
	<path fill="none" stroke="#000000" stroke-width="1.0407" stroke-linecap="round" d="M302.926,205.685
		c-0.685,5.025-0.784,10.137-0.693,15.265"/>
	<path fill="none" stroke="#000000" stroke-width="0.9812" stroke-linecap="round" d="M302.232,220.949
		c1.979,0.01,3.979-0.14,5.896,0.347"/>
	<path fill="none" stroke="#000000" stroke-width="0.8957" stroke-linecap="round" d="M297.028,387.815
		c-0.189,0.273-0.271,0.654-0.347,1.041"/>
	<path fill="none" stroke="#000000" stroke-width="0.8776" stroke-linecap="round" d="M286.273,388.856
		c0.693,0.486,1.388,0.529,2.082,0.695"/>
	<path fill="none" stroke="#000000" stroke-width="0.8776" stroke-linecap="round" d="M281.07,392.672
		c0.451,0.243,1.123,0.266,1.735,0.348"/>
	<path fill="none" stroke="#000000" stroke-width="0.9179" stroke-linecap="round" d="M278.988,395.1
		c1.665,0.469,2.91-0.797,4.51-0.693"/>
	<path fill="none" stroke="#000000" stroke-width="1.1018" stroke-linecap="round" d="M275.172,398.571
		c2.049,4.418,7.439,1.265,10.994,1.5c2.255,1.855,5.525,1.556,9.018,2.078c0.291,0.045,0.564,0.453,0.899,0.488
		c8.049,0.838,18.509,2.229,27.966,2.455c5.486,0.129,10.844,0.396,14.847-0.39c2.991-0.586,6.048-1.649,7.049-4.053"/>
	<path fill="none" stroke="#000000" stroke-width="1.309" stroke-linecap="round" d="M345.943,400.651
		c1.52-7.629-3.046-13.871-4.857-20.813"/>
	<path fill="none" stroke="#000000" stroke-width="1.5703" stroke-linecap="round" d="M341.086,379.836
		c-2.833-4.007-2.287-11.808-2.778-18.039c-0.038-0.476-0.497-0.904-0.551-1.39c-0.496-4.487-0.42-9.086-0.422-13.875
		c-0.005-10.559,0.21-21.676-1.215-32.5c-0.321-2.44-0.439-7.756-0.934-11.795c-0.172-1.41-0.688-2.16-0.898-3.58
		c-0.622-4.211-0.746-8.844-1.636-13.071c-0.411-1.951-0.803-7.771-0.935-11.104c-0.285-7.225-1.933-13.5-1.04-18.842"/>
	<path fill="none" stroke="#000000" stroke-width="1.4862" stroke-linecap="round" d="M330.678,255.641
		c-1.408-8.145-1.492-16.413-2.429-24.631"/>
	<path fill="none" stroke="#000000" stroke-width="0.796" stroke-linecap="round" d="M328.25,231.01
		c-3.107-3.271-8.251-3.944-11.602-7.13c-1.557,0.023-2.673-1.031-4.009-1.543"/>
	<path fill="none" stroke="#000000" stroke-width="0.9695" stroke-linecap="round" d="M331.719,229.275
		c1.678-3.706,4.517-6.57,3.815-11.102"/>
	<path fill="none" stroke="#000000" stroke-width="1.3242" stroke-linecap="round" d="M345.943,400.651
		c7.662,1.049,16.634,3.271,23.763-0.488c0.803-5.409-1.084-10.536-3.453-14.934c-1.004-1.865-3.235-4.42-4.02-5.828
		c-1.556-2.797-1.813-6.496-3.296-8.383c-2.331-14.865-2.055-30.959-2.31-46.998c-0.184-11.619-1.642-23.422-2.637-35.383
		c-0.36-4.332-0.215-8.703-1.112-13.572c-0.176-0.955-0.775-1.832-0.955-2.771c-0.308-1.617-0.194-3.715-0.408-5.551
		c-0.056-0.476-0.511-0.904-0.574-1.39c-0.779-5.938-0.763-13.272-1.186-20.012c-0.204-3.271-0.143-6.738-0.349-9.823
		c-0.032-0.479-0.479-0.899-0.55-1.388c-0.585-4.119-0.368-8.291-0.487-12.489"/>
	<path fill="none" stroke="#000000" stroke-width="0.8683" stroke-linecap="round" d="M348.371,221.643
		c-3.614,1.084-6.681,3.702-10.202,5.396c-0.557,0.268-1.251,0.084-1.736,0.357c-0.602,0.338-2.434,2.181-4.713,1.878"/>
	<path fill="none" stroke="#000000" stroke-width="0.9857" stroke-linecap="round" d="M331.719,229.275
		c-0.034,0.116-0.068,0.232-0.103,0.35c-1.1,0.453-2.35,0.693-3.367,1.386"/>
	<path fill="none" stroke="#000000" stroke-width="1.4015" stroke-linecap="round" d="M341.086,379.836
		c0.198-0.078,0.396-0.156,0.596-0.236c0.657-0.307,0.801-1.49,1.062-2.16c0.45-1.158,1.084-2.529,1.344-3.848
		c0.732-3.726,0.149-9.625,0.06-14.57c-0.065-3.555-0.091-7.475-0.288-11.102c-0.026-0.479-0.485-0.902-0.55-1.388
		c-0.449-3.387-0.333-6.871-0.417-9.328c-0.287-8.375-0.398-16.651-0.767-25.254c-0.103-2.391-0.144-4.563-0.349-7.049
		c-0.039-0.473-0.5-0.906-0.55-1.387c-0.756-7.379-0.985-15.145-3.298-20.328c-0.063-0.143-0.444-0.137-0.5-0.287
		c-0.229-0.614-0.185-1.967-0.32-2.428c-0.034-0.117-0.512-0.141-0.552-0.285c-0.263-0.949-0.757-2.701-0.926-3.828
		c-1.053-6.983-2.778-13.567-3.666-19.918c-0.259-0.293-0.773-0.508-1.287-0.801"/>
	<path fill="none" stroke="#000000" stroke-width="0.8731" stroke-linecap="round" d="M281.763,391.284
		c0.905,0.392,2.471,0.689,3.225-0.039c-0.042-0.268-0.117-0.602-0.193-0.938c-0.085-0.137-0.171-0.273-0.256-0.412"/>
	<path fill="none" stroke="#000000" stroke-width="0.8498" stroke-linecap="round" d="M278.641,393.713
		c0.584,0.032,1.185-0.05,1.795-0.216c0.192-0.311,0.413-0.567,0.633-0.825"/>
	<path fill="none" stroke="#000000" stroke-width="1.3877" stroke-linecap="round" d="M281.07,392.672c0-0.115,0-0.23,0-0.347"/>
	<path fill="none" stroke="#000000" stroke-width="0.9948" stroke-linecap="round" d="M275.172,398.571
		c1.392-1.018,2.757-2.223,3.816-3.471"/>
	<path fill="none" stroke="#000000" stroke-width="1.4718" stroke-linecap="round" d="M278.988,395.1
		c-0.042-0.461-0.191-0.924-0.347-1.387"/>
</g>
</svg>
