<?xml version="1.0" encoding="utf-8"?>
<!-- Generator: Adobe Illustrator 14.0.0, SVG Export Plug-In . SVG Version: 6.00 Build 43363)  -->
<!DOCTYPE svg PUBLIC "-//W3C//DTD SVG 1.1//EN" "http://www.w3.org/Graphics/SVG/1.1/DTD/svg11.dtd">
<svg version="1.1" id="图层_1" xmlns="http://www.w3.org/2000/svg" xmlns:xlink="http://www.w3.org/1999/xlink" x="0px" y="0px"
	 width="848px" height="480px" viewBox="0 0 848 480" enable-background="new 0 0 848 480" xml:space="preserve">
<g>
	<path fill-rule="evenodd" clip-rule="evenodd" fill="none" stroke="#000000" stroke-width="1.0384" stroke-linecap="round" d="
		M136.264,105.977c0-0.565,0-1.131,0-1.696"/>
	<path fill-rule="evenodd" clip-rule="evenodd" fill="none" stroke="#000000" stroke-width="2.5717" stroke-linecap="round" d="
		M254.967,172.959c0.282,0,0.565,0,0.848,0"/>
	<path fill-rule="evenodd" clip-rule="evenodd" fill="none" stroke="#000000" stroke-width="1.1127" stroke-linecap="round" d="
		M255.814,172.959c0.466-1.612,2.197-2.426,3.189-3.593c0.277-0.327,0.161-0.949,0.438-1.258c1.893-2.119,3.861-3.954,5.505-6.366
		c0.781-1.147,0.681-2.295,2.314-2.773"/>
	<path fill-rule="evenodd" clip-rule="evenodd" fill="none" stroke="#000000" stroke-width="1.0725" stroke-linecap="round" d="
		M255.814,172.959c4.023,0.119,7.497-2.23,11.022-3.392"/>
	<path fill-rule="evenodd" clip-rule="evenodd" fill="none" stroke="#000000" stroke-width="1.5088" stroke-linecap="round" d="
		M208.333,192.037c0.081-0.06,0.161-0.12,0.241-0.181c1.816-3.925-1.324-6.071-3.166-8.718c0.891-2.949,2.381-6.444,6.073-5.674
		c0.708,0.681,1.569,1.237,1.939,2.278"/>
	<path fill-rule="evenodd" clip-rule="evenodd" fill="none" stroke="#000000" stroke-width="0.8479" stroke-linecap="round" d="
		M181.625,206.451c-0.156-0.721,0.331-0.8,0.848-0.848c0.565,0,1.131,0,1.696,0c0.155,0.721-0.331,0.8-0.849,0.848
		C182.756,206.451,182.19,206.451,181.625,206.451z"/>
	<path fill-rule="evenodd" clip-rule="evenodd" fill="none" stroke="#000000" stroke-width="0.8479" stroke-linecap="round" d="
		M185.864,206.451c-0.438-0.438,0.613-1.083,0.848-0.848C187.15,206.042,186.099,206.685,185.864,206.451z"/>
	<path fill-rule="evenodd" clip-rule="evenodd" fill="none" stroke="#000000" stroke-width="0.8479" stroke-linecap="round" d="
		M187.561,205.603c0.564,0,1.13,0,1.695,0c-0.156,0.721,0.331,0.8,0.848,0.848C190.439,208.096,186.242,207.689,187.561,205.603z"/>
	<path fill-rule="evenodd" clip-rule="evenodd" fill="none" stroke="#000000" stroke-width="1.3017" stroke-linecap="round" d="
		M196.887,342.959c5.775-0.377,11.047-2.436,16.534-3.814"/>
	<path fill-rule="evenodd" clip-rule="evenodd" fill="none" stroke="#000000" stroke-width="1.3256" stroke-linecap="round" d="
		M212.572,100.89c-0.088,1.56,1.086,2.264,1.696,3.392"/>
	<path fill-rule="evenodd" clip-rule="evenodd" fill="none" stroke="#000000" stroke-width="0.9667" stroke-linecap="round" d="
		M175.266,100.042c2.596,1.523,6.17,1.648,8.479,3.392"/>
	<path fill-rule="evenodd" clip-rule="evenodd" fill="none" stroke="#000000" stroke-width="1.0682" stroke-linecap="round" d="
		M175.266,100.042c-0.084,0.198-0.169,0.396-0.254,0.594c-1.229,0.36-2.607,0.241-3.31-0.422c-3.972-0.248-8.074-0.358-12.28,0.095
		c-0.51,0.055-5,0.669-5.705,2.64c0.508,0.339,1.313,0.37,2.048,0.485"/>
	<path fill-rule="evenodd" clip-rule="evenodd" fill="none" stroke="#000000" stroke-width="1.2086" stroke-linecap="round" d="
		M175.266,100.042c-0.04-0.525-0.248-0.882-0.464-1.232c-3.686-0.883-6.415-3.387-11.423-5.362
		c-0.869-0.342-3.285,0.229-2.879-1.399c3.081-0.782,6.117-0.938,9.413-1.598c6.942-1.39,16.533-2.741,24.589-0.317
		c5.864,1.764,10.613,5.36,16.171,9.266c0.05,0.515,0.244,0.887,0.444,1.251c0.445,0.121,0.949,0.182,1.455,0.241"/>
	<path fill-rule="evenodd" clip-rule="evenodd" fill="none" stroke="#000000" stroke-width="1.0492" stroke-linecap="round" d="
		M212.572,100.89c0.688-4.91-1.429-9.152-2.543-13.566"/>
	<path fill-rule="evenodd" clip-rule="evenodd" fill="none" stroke="#000000" stroke-width="1.5862" stroke-linecap="round" d="
		M238.433,119.967c-0.571-0.054-1.45,0.713-2.119,1.272"/>
	<path fill-rule="evenodd" clip-rule="evenodd" fill="none" stroke="#000000" stroke-width="1.4161" stroke-linecap="round" d="
		M229.53,110.216c-0.738,2.517-0.279,5.396-1.696,7.631"/>
	<path fill-rule="evenodd" clip-rule="evenodd" fill="none" stroke="#000000" stroke-width="1.2324" stroke-linecap="round" d="
		M215.964,87.324c2.344,2.925,4.835,5.271,7.43,7.82c0.497,2.778,2.484,4.879,3.467,7.568c0.591,1.619,0.442,3.897,1.096,5.678
		c0.317,0.862,1.285,1.162,1.574,1.827"/>
	<path fill-rule="evenodd" clip-rule="evenodd" fill="none" stroke="#000000" stroke-width="1.7943" stroke-linecap="round" d="
		M229.53,110.216c2.339-2.812,0.185-6.864,2.119-9.75"/>
	<path fill-rule="evenodd" clip-rule="evenodd" fill="none" stroke="#000000" stroke-width="2.9857" stroke-linecap="round" d="
		M231.649,100.466c0.062-0.499-0.392-1.203-0.848-2.12"/>
	<path fill-rule="evenodd" clip-rule="evenodd" fill="none" stroke="#000000" stroke-width="1.3406" stroke-linecap="round" d="
		M231.649,100.466c4.582,4.279,2.726,11.745,3.091,17.459c0.313,0.08,0.967-0.044,1.615-0.06c0.835-0.713,2.905-1.588,3.35-0.018"/>
	<path fill-rule="evenodd" clip-rule="evenodd" fill="none" stroke="#000000" stroke-width="1.4686" stroke-linecap="round" d="
		M239.705,117.847c1.685-0.06,2.535-1.821,4.521-1.413"/>
	<path fill-rule="evenodd" clip-rule="evenodd" fill="none" stroke="#000000" stroke-width="1.0629" stroke-linecap="round" d="
		M239.705,117.847c-0.421,0.709-0.817,1.444-1.272,2.12"/>
	<path fill-rule="evenodd" clip-rule="evenodd" fill="none" stroke="#000000" stroke-width="1.098" stroke-linecap="round" d="
		M238.433,119.967c3.653,0.938,7.604,0.054,11.181,0.69c3.063,0.544,5.355,2.148,8.491,2.526c0.675,0.488,1.094,1.235,1.296,1.85
		c-2.308-0.016-4.791,1.33-7.15,1.968c-2.82,0.762-6.715-0.068-7.81,3.078c0.556,0.292,1.251,0.433,1.795,0.738
		c6.171,1.749,13.001,3.297,19.754,2.292"/>
	<path fill-rule="evenodd" clip-rule="evenodd" fill="none" stroke="#000000" stroke-width="1.6236" stroke-linecap="round" d="
		M244.51,194.439c0.3,0.05,0.934,0.495,1.554,0.989"/>
	<path fill-rule="evenodd" clip-rule="evenodd" fill="none" stroke="#000000" stroke-width="1.0384" stroke-linecap="round" d="
		M238.009,195.004c2.14-0.265,4.572,0.599,6.501-0.565"/>
	<path fill-rule="evenodd" clip-rule="evenodd" fill="none" stroke="#000000" stroke-width="1.0673" stroke-linecap="round" d="
		M244.51,194.439c-0.309-1.551-2.521-1.342-3.294-2.625c-0.518-0.055-0.903-0.244-1.284-0.439c-0.237-0.372-0.267-0.761-0.286-1.151
		c1.373-1.562,2.643-1.479,4.886-2.263c3.859-1.348,7.43-3.825,11.166-5.792c4.389-2.31,8.015-6.375,11.14-10.058"/>
	<path fill-rule="evenodd" clip-rule="evenodd" fill="none" stroke="#000000" stroke-width="1.1384" stroke-linecap="round" d="
		M142.198,105.977c8.028,3.508,17.036,5.556,26.034,4.817c-1.335-2.519-4.393-4.611-7.381-4.817"/>
	<path fill-rule="evenodd" clip-rule="evenodd" fill="none" stroke="#000000" stroke-width="1.8316" stroke-linecap="round" d="
		M162.063,166.418c0.749-0.333,1.768-0.576,2.463-0.808"/>
	<path fill-rule="evenodd" clip-rule="evenodd" fill="none" stroke="#000000" stroke-width="1.6236" stroke-linecap="round" d="
		M164.526,165.611c0.123-0.325-0.086-0.74-0.283-1.13"/>
	<path fill-rule="evenodd" clip-rule="evenodd" fill="none" stroke="#000000" stroke-width="1.1832" stroke-linecap="round" d="
		M164.526,165.611c1.362,2.659,0.513,7.026,3.956,8.196"/>
	<path fill-rule="evenodd" clip-rule="evenodd" fill="none" stroke="#000000" stroke-width="1.4838" stroke-linecap="round" d="
		M168.482,173.807c0.706-4.456-2.698-9.961,0.425-13.99"/>
	<path fill-rule="evenodd" clip-rule="evenodd" fill="none" stroke="#000000" stroke-width="3.4366" stroke-linecap="round" d="
		M168.907,159.817c0-0.782,0-1.859,0-2.756"/>
	<path fill-rule="evenodd" clip-rule="evenodd" fill="none" stroke="#000000" stroke-width="1.9985" stroke-linecap="round" d="
		M168.907,157.062c-0.328-0.587-0.121-1.764,0.365-2.502c0.612-0.127,1.185-0.192,1.754-0.253"/>
	<path fill-rule="evenodd" clip-rule="evenodd" fill="none" stroke="#000000" stroke-width="1.2602" stroke-linecap="round" d="
		M171.026,154.306c-0.006-5.64,4.537-9.281,7.821-13.388c2.169,0.184,4.416,2.698,6.009,4.51c1.376,1.566,2.072,2.852,3.128,4.638"
		/>
	<path fill-rule="evenodd" clip-rule="evenodd" fill="none" stroke="#000000" stroke-width="2.1617" stroke-linecap="round" d="
		M168.907,159.817c0.308,0.384,0.682,1.033,1.06,1.696"/>
	<path fill-rule="evenodd" clip-rule="evenodd" fill="none" stroke="#000000" stroke-width="1.6403" stroke-linecap="round" d="
		M169.967,161.513c2.961,0.013,5.394-2.799,8.516-1.676c2.193,1.82,4.385,3.624,5.263,6.339"/>
	<path fill-rule="evenodd" clip-rule="evenodd" fill="none" stroke="#000000" stroke-width="1.5599" stroke-linecap="round" d="
		M169.967,161.513c-0.652,1.851,0.208,3.663,0.212,5.511"/>
	<path fill-rule="evenodd" clip-rule="evenodd" fill="none" stroke="#000000" stroke-width="1.3415" stroke-linecap="round" d="
		M168.482,173.807c0.368,1.008-0.049,2.737,1.295,3.07c0.263,4.402,3.738,10.412-0.209,13.954c-0.227,1.822-0.531,3.857,0.021,5.611
		c0.901,0.095,2.036,0.369,3.134,1.106"/>
	<path fill-rule="evenodd" clip-rule="evenodd" fill="none" stroke="#000000" stroke-width="1.2894" stroke-linecap="round" d="
		M172.723,197.548c0.205-0.525,0.356-0.883,0.506-1.232c1.587-0.34,2.952-1.146,4.581-1.312"/>
	<path fill-rule="evenodd" clip-rule="evenodd" fill="none" stroke="#000000" stroke-width="1.2166" stroke-linecap="round" d="
		M172.723,197.548c1.647,2.339,3.433,5.246,5.935,6.783"/>
	<path fill-rule="evenodd" clip-rule="evenodd" fill="none" stroke="#000000" stroke-width="1.8479" stroke-linecap="round" d="
		M162.039,166.516c0.635,0.885,0.883,1.576,1.356,2.205"/>
	<path fill-rule="evenodd" clip-rule="evenodd" fill="none" stroke="#000000" stroke-width="2.6179" stroke-linecap="round" d="
		M159.368,167.236c-0.408,2.158-0.125,4.385-0.212,6.571"/>
	<path fill-rule="evenodd" clip-rule="evenodd" fill="none" stroke="#000000" stroke-width="1.1756" stroke-linecap="round" d="
		M159.368,167.236c-1.628-2.592,0.168-5.77-0.473-8.436c-2.112-1.25-5.29-0.412-6.919-1.986c0.209-0.482,0.942-0.897,1.443-1.465
		c1.039-0.237,2.399-0.887,2.747-1.921c-2.472-2.316-4.723-5.288-7.805-6.981c-4.138-5.986-7.302-13.024-9.382-20.293
		c-0.282-0.984-0.152-2.119-0.44-2.958c-0.101-0.295-0.767-0.375-0.856-0.701c-0.256-0.94-0.083-2.515-0.285-3.325
		c-0.069-0.275-0.83-0.391-0.932-0.686c-0.713-2.06,0.12-4.856-0.203-7.42"/>
	<path fill-rule="evenodd" clip-rule="evenodd" fill="none" stroke="#000000" stroke-width="2.7474" stroke-linecap="round" d="
		M159.368,167.236c1.02-0.16,1.991-0.435,2.671-0.721"/>
	<path fill-rule="evenodd" clip-rule="evenodd" fill="none" stroke="#000000" stroke-width="3.4959" stroke-linecap="round" d="
		M162.039,166.516c0.008-0.032,0.016-0.065,0.024-0.097"/>
	<path fill-rule="evenodd" clip-rule="evenodd" fill="none" stroke="#000000" stroke-width="1.8813" stroke-linecap="round" d="
		M162.063,166.418c-0.974-2.27,0.849-4.344,0.908-6.601"/>
	<path fill-rule="evenodd" clip-rule="evenodd" fill="none" stroke="#000000" stroke-width="1.1991" stroke-linecap="round" d="
		M168.907,157.062c0.603-0.409,1.32-0.858,1.872-1.25c0.124-0.475,0.187-0.99,0.247-1.506"/>
	<path fill-rule="evenodd" clip-rule="evenodd" fill="none" stroke="#000000" stroke-width="1.2064" stroke-linecap="round" d="
		M160.004,154.306c1.362-3.73,4.363-6.807,5.753-10.357c0.379-0.967,0.031-2.063,1.03-2.361"/>
	<path fill-rule="evenodd" clip-rule="evenodd" fill="none" stroke="#000000" stroke-width="1.8959" stroke-linecap="round" d="
		M194.343,179.318c-0.333,0.333-0.799,0.799-1.271,1.272"/>
	<path fill-rule="evenodd" clip-rule="evenodd" fill="none" stroke="#000000" stroke-width="1.5676" stroke-linecap="round" d="
		M194.343,179.318c0.468-5.706-1.171-15.733-3.222-21.366c-0.255-0.699-0.725-1.673-0.594-2.799"/>
	<path fill-rule="evenodd" clip-rule="evenodd" fill="none" stroke="#000000" stroke-width="1.06" stroke-linecap="round" d="
		M208.757,202.211c3.886,0.67,7.193-2.245,10.771-3.639c1.941-0.756,3.927-0.752,5.822-1.813c0.676-0.378,4.345-1.727,6.725-1.755"
		/>
	<path fill-rule="evenodd" clip-rule="evenodd" fill="none" stroke="#000000" stroke-width="1.3208" stroke-linecap="round" d="
		M218.084,347.623c0.191,1.711-0.238,3.32-0.539,4.975c-5.9,4.885-14.518,4.293-21.93,5.199"/>
	<path fill-rule="evenodd" clip-rule="evenodd" fill="none" stroke="#000000" stroke-width="1.5988" stroke-linecap="round" d="
		M159.368,356.525c0.263,1.457,2.22,1.852,3.462,1.555"/>
	<path fill-rule="evenodd" clip-rule="evenodd" fill="none" stroke="#000000" stroke-width="1.8316" stroke-linecap="round" d="
		M162.83,358.08c0.077-0.256,0.11-0.689,0.142-1.131"/>
	<path fill-rule="evenodd" clip-rule="evenodd" fill="none" stroke="#000000" stroke-width="1.2126" stroke-linecap="round" d="
		M162.972,356.949c-0.233-2.945,2.591-4.617,3.815-6.783"/>
	<path fill-rule="evenodd" clip-rule="evenodd" fill="none" stroke="#000000" stroke-width="1.0384" stroke-linecap="round" d="
		M162.972,356.949c1.17-0.025,1.825,0.193,2.544,0.424"/>
	<path fill-rule="evenodd" clip-rule="evenodd" fill="none" stroke="#000000" stroke-width="1.0946" stroke-linecap="round" d="
		M165.516,357.373c0.934-2.23,2.565-4.402,4.663-5.512"/>
	
		<line fill-rule="evenodd" clip-rule="evenodd" fill="none" stroke="#000000" stroke-width="2.5436" stroke-linecap="round" x1="165.939" y1="358.645" x2="165.939" y2="358.645"/>
	<path fill-rule="evenodd" clip-rule="evenodd" fill="none" stroke="#000000" stroke-width="1.5862" stroke-linecap="round" d="
		M165.939,358.645c0.282-0.283,0.565-0.564,0.848-0.848"/>
	<path fill-rule="evenodd" clip-rule="evenodd" fill="none" stroke="#000000" stroke-width="1.1687" stroke-linecap="round" d="
		M165.939,358.645c1.356,1.121,3.751,1.256,5.087,0"/>
	<path fill-rule="evenodd" clip-rule="evenodd" fill="none" stroke="#000000" stroke-width="1.3969" stroke-linecap="round" d="
		M171.026,358.645c-0.098-0.238-0.195-0.477-0.293-0.715c0.214-1.52,0.864-3.834,2.837-3.523"/>
	<path fill-rule="evenodd" clip-rule="evenodd" fill="none" stroke="#000000" stroke-width="1.3007" stroke-linecap="round" d="
		M171.026,358.645c2.296,2.461,5.285,1.395,8.008,0.648c3.443-0.035,7.583,1.098,10.646-0.648"/>
	<path fill-rule="evenodd" clip-rule="evenodd" fill="none" stroke="#000000" stroke-width="1.1143" stroke-linecap="round" d="
		M160.852,350.166c-1.9,1.039-4.106,3.33-3.129,5.682c0.528,0.326,1.064,0.527,1.646,0.678"/>
	<path fill-rule="evenodd" clip-rule="evenodd" fill="none" stroke="#000000" stroke-width="1.3732" stroke-linecap="round" d="
		M159.368,356.525c1.63-6.896,12.411-12.02,19.289-15.686"/>
	<path fill-rule="evenodd" clip-rule="evenodd" fill="none" stroke="#000000" stroke-width="1.5262" stroke-linecap="round" d="
		M178.657,340.84c0.086-1.563,1.626-2.355,1.896-3.797c-1.479-2.07-2.478-5.275,0.365-6.943"/>
	<path fill-rule="evenodd" clip-rule="evenodd" fill="none" stroke="#000000" stroke-width="1.51" stroke-linecap="round" d="
		M180.918,330.1c-1.924-4.537-4.817-8.9-7.577-12.756c-0.204-0.801-0.125-2.414-0.392-2.967c-0.033-0.15-0.618-0.166-0.674-0.348
		c-2.428-7.871-0.914-17.859-3.51-26.041"/>
	<path fill-rule="evenodd" clip-rule="evenodd" fill="none" stroke="#000000" stroke-width="1.5577" stroke-linecap="round" d="
		M168.766,287.988c-1.201-0.166-1.427-1.695-1.555-2.686"/>
	<path fill-rule="evenodd" clip-rule="evenodd" fill="none" stroke="#000000" stroke-width="1.3832" stroke-linecap="round" d="
		M167.211,285.303c-1.307-3.301-2.519-7.053-1.729-10.58c-1.314-5.475,0.1-10.742,0.458-16.127"/>
	<path fill-rule="evenodd" clip-rule="evenodd" fill="none" stroke="#000000" stroke-width="1.3737" stroke-linecap="round" d="
		M165.939,258.596c-1.218,0.072-2.22-0.068-2.801-0.469c-0.224-2.662,2.904-4.674,2.235-7.445"/>
	<path fill-rule="evenodd" clip-rule="evenodd" fill="none" stroke="#000000" stroke-width="1.2842" stroke-linecap="round" d="
		M165.374,250.682c-2.087-0.083-4.155-0.688-6.003-1.639c-0.437-2.721-0.115-5.507-0.215-8.253"/>
	<path fill-rule="evenodd" clip-rule="evenodd" fill="none" stroke="#000000" stroke-width="1.9581" stroke-linecap="round" d="
		M165.374,250.682c1.053-1.729,2.084-3.529,2.261-5.652"/>
	<path fill-rule="evenodd" clip-rule="evenodd" fill="none" stroke="#000000" stroke-width="1.2859" stroke-linecap="round" d="
		M167.635,245.029c0.1-4.73,1.384-9.336,2.12-13.99"/>
	<path fill-rule="evenodd" clip-rule="evenodd" fill="none" stroke="#000000" stroke-width="1.4018" stroke-linecap="round" d="
		M169.755,231.039c-1.125-2.023,0.232-4.23,0-6.359"/>
	<path fill-rule="evenodd" clip-rule="evenodd" fill="none" stroke="#000000" stroke-width="1.7986" stroke-linecap="round" d="
		M169.755,224.68c0.008-0.881-0.064-1.438-0.142-1.979"/>
	<path fill-rule="evenodd" clip-rule="evenodd" fill="none" stroke="#000000" stroke-width="1.2782" stroke-linecap="round" d="
		M169.613,222.702c-2.588,0.195-5.438-0.063-7.826,1.222c-0.467,0.705-0.715,1.005-1.381,1.287c-1.045,2.767,0.24,5.992-0.826,8.797
		"/>
	<path fill-rule="evenodd" clip-rule="evenodd" fill="none" stroke="#000000" stroke-width="1.5213" stroke-linecap="round" d="
		M172.723,222.984c4.516-1.262,8.223-4.07,11.87-6.783"/>
	<path fill-rule="evenodd" clip-rule="evenodd" fill="none" stroke="#000000" stroke-width="1.2057" stroke-linecap="round" d="
		M184.593,216.201c0.085-0.28,0.169-0.561,0.254-0.841c2.202-1.652,4.537-3.208,7.377-3.398"/>
	<path fill-rule="evenodd" clip-rule="evenodd" fill="none" stroke="#000000" stroke-width="1.4411" stroke-linecap="round" d="
		M192.224,211.962c-0.708-1.485-0.128-3.243,0.424-4.664"/>
	<path fill-rule="evenodd" clip-rule="evenodd" fill="none" stroke="#000000" stroke-width="1.4188" stroke-linecap="round" d="
		M206.638,206.875c-0.118-1.771,0.984-3.395,2.119-4.663"/>
	<path fill-rule="evenodd" clip-rule="evenodd" fill="none" stroke="#000000" stroke-width="1.2978" stroke-linecap="round" d="
		M208.757,202.211c-0.001-0.186-0.003-0.371-0.004-0.556c-0.011-0.447,0.08-0.714,0.177-0.972c4.43-3.968,7.65-7.411,8.995-14.741
		c1.269-6.91-3.058-16.088-11.207-12.044c-1.771,0.878-4.023,5.255-5.403,7.303c-1.583,2.35-3.63,3.645-6.096,4.808
		c-1.486-1.995,0.837-4.832-0.876-6.691"/>
	<path fill-rule="evenodd" clip-rule="evenodd" fill="none" stroke="#000000" stroke-width="1.7986" stroke-linecap="round" d="
		M168.907,284.455c0-2.402,0-4.805,0-7.207"/>
	<path fill-rule="evenodd" clip-rule="evenodd" fill="none" stroke="#000000" stroke-width="1.6236" stroke-linecap="round" d="
		M180.918,330.1c0.325,0.074,0.74,0.301,1.131,0.564"/>
	<path fill-rule="evenodd" clip-rule="evenodd" fill="none" stroke="#000000" stroke-width="1.0843" stroke-linecap="round" d="
		M178.657,340.84c4.712,2.162,8.224,5.9,12.896,7.453c0.968,0.322,2.136,0.049,2.95,0.441c5.042,2.428,16.376-0.801,23.581-1.111"/>
	<path fill-rule="evenodd" clip-rule="evenodd" fill="none" stroke="#000000" stroke-width="1.6753" stroke-linecap="round" d="
		M218.084,347.623c-2.08-9.355,5.361-17.924,0.21-26.07c-0.693-1.096-2.701-2.035-3.624-5.162c-0.297-0.367-0.582-0.682-0.75-1.021
		c1.687-3.006,0.356-6.02-1.913-8.162"/>
	<path fill-rule="evenodd" clip-rule="evenodd" fill="none" stroke="#000000" stroke-width="1.085" stroke-linecap="round" d="
		M212.007,307.207c-5.824-0.281-9.866-5.311-14.696-7.914"/>
	<path fill-rule="evenodd" clip-rule="evenodd" fill="none" stroke="#000000" stroke-width="1.4318" stroke-linecap="round" d="
		M212.007,307.207c-0.401-4.051-1.986-8.146-1.978-12.152"/>
	<path fill-rule="evenodd" clip-rule="evenodd" fill="none" stroke="#000000" stroke-width="1.6461" stroke-linecap="round" d="
		M210.029,295.055c-0.241-0.086-0.482-0.17-0.724-0.256c-0.057-2.066-1.979-2.799-1.82-4.832"/>
	<path fill-rule="evenodd" clip-rule="evenodd" fill="none" stroke="#000000" stroke-width="1.5509" stroke-linecap="round" d="
		M210.029,295.055c0.282-0.199,0.564-0.396,0.847-0.596c4.423-8.646,3.916-19.26-1.307-27.645c-0.232-0.373-2.434-2.797-2.649-4.262
		"/>
	<path fill-rule="evenodd" clip-rule="evenodd" fill="none" stroke="#000000" stroke-width="1.7986" stroke-linecap="round" d="
		M206.92,262.553c-0.621-0.129-1.773-0.123-2.826-0.143"/>
	<path fill-rule="evenodd" clip-rule="evenodd" fill="none" stroke="#000000" stroke-width="1.248" stroke-linecap="round" d="
		M204.094,262.41c-0.069,5.021,4.809,10.197,1.695,14.838"/>
	<path fill-rule="evenodd" clip-rule="evenodd" fill="none" stroke="#000000" stroke-width="1.2304" stroke-linecap="round" d="
		M205.789,277.248c0.271,3.885,1.405,8.676-1.899,11.666c-3.504,1.797-7.698,1.916-10.847,4.387
		c-3.766-3.125-5.779,3.785-9.893,1.498c-0.582-0.547-1.109-1.15-1.949-1.441"/>
	<path fill-rule="evenodd" clip-rule="evenodd" fill="none" stroke="#000000" stroke-width="1.1292" stroke-linecap="round" d="
		M205.789,277.248c-8.091,0.994-14.669-3.092-22.469-3.814"/>
	<path fill-rule="evenodd" clip-rule="evenodd" fill="none" stroke="#000000" stroke-width="1.2655" stroke-linecap="round" d="
		M183.32,273.434c-0.84,0.291-1.06,1.186-1.521,1.873c-4.681,2.668-5.847,9.547-3.993,14.666c0.584,1.613,1.067,3.35,3.396,3.385"/>
	<path fill-rule="evenodd" clip-rule="evenodd" fill="none" stroke="#000000" stroke-width="1.5714" stroke-linecap="round" d="
		M181.201,293.357c-0.627-3.346-0.224-6.822-0.848-10.174"/>
	<path fill-rule="evenodd" clip-rule="evenodd" fill="none" stroke="#000000" stroke-width="1.0245" stroke-linecap="round" d="
		M184.593,216.201c2.979-0.054,5.872-1.86,7.631-4.239"/>
	<path fill-rule="evenodd" clip-rule="evenodd" fill="none" stroke="#000000" stroke-width="1.0384" stroke-linecap="round" d="
		M199.007,209.418c0.053,0.617-0.101,1.036-0.264,1.445c-0.686,0.203-1.361-0.062-1.998-0.314"/>
	<path fill-rule="evenodd" clip-rule="evenodd" fill="none" stroke="#000000" stroke-width="1.9967" stroke-linecap="round" d="
		M196.745,210.549c-1.529,0.482-2.848,1.142-4.521,1.413"/>
	
		<line fill-rule="evenodd" clip-rule="evenodd" fill="none" stroke="#000000" stroke-width="1.8959" stroke-linecap="round" x1="192.224" y1="211.962" x2="192.224" y2="211.962"/>
	<path fill-rule="evenodd" clip-rule="evenodd" fill="none" stroke="#000000" stroke-width="1.765" stroke-linecap="round" d="
		M169.755,231.039c0.804-0.527,2.525-0.805,3.307-0.763"/>
	<path fill-rule="evenodd" clip-rule="evenodd" fill="none" stroke="#000000" stroke-width="1.2923" stroke-linecap="round" d="
		M173.062,230.276c3.181-2.286,5.453-6.301,9.835-6.444"/>
	<path fill-rule="evenodd" clip-rule="evenodd" fill="none" stroke="#000000" stroke-width="1.0891" stroke-linecap="round" d="
		M182.896,223.832c1.003-2.25,3.919-1.982,5.936-2.967"/>
	<path fill-rule="evenodd" clip-rule="evenodd" fill="none" stroke="#000000" stroke-width="1.3135" stroke-linecap="round" d="
		M188.832,220.865c1.254-0.509,2.131-1.74,3.392-2.12"/>
	<path fill-rule="evenodd" clip-rule="evenodd" fill="none" stroke="#000000" stroke-width="1.2646" stroke-linecap="round" d="
		M165.939,258.596c6.665,1.568,13.836,2.174,20.772,3.18"/>
	<path fill-rule="evenodd" clip-rule="evenodd" fill="none" stroke="#000000" stroke-width="1.6037" stroke-linecap="round" d="
		M186.712,261.775c0.144-0.047,0.287-0.094,0.431-0.141c1.761-4.182,2.122-8.834,2.875-13.598c0.535-3.384,1.548-10.277,0.51-16.574
		"/>
	<path fill-rule="evenodd" clip-rule="evenodd" fill="none" stroke="#000000" stroke-width="1.4188" stroke-linecap="round" d="
		M190.527,231.463c-1.014-0.254-1.424-0.83-1.695-1.696"/>
	<path fill-rule="evenodd" clip-rule="evenodd" fill="none" stroke="#000000" stroke-width="1.4787" stroke-linecap="round" d="
		M190.527,231.463c0.78-2.79-0.022-6.673,2.544-8.479"/>
	<path fill-rule="evenodd" clip-rule="evenodd" fill="none" stroke="#000000" stroke-width="1.9148" stroke-linecap="round" d="
		M186.712,261.775c0.284,1.932-1.513,3.369-1.271,5.299"/>
	<path fill-rule="evenodd" clip-rule="evenodd" fill="none" stroke="#000000" stroke-width="1.4188" stroke-linecap="round" d="
		M185.44,267.074c0.88,0.389,1.568,0.686,2.544,0.848"/>
	<path fill-rule="evenodd" clip-rule="evenodd" fill="none" stroke="#000000" stroke-width="1.4332" stroke-linecap="round" d="
		M185.44,267.074c-0.658,2.094-3.432,3.994-2.12,6.359"/>
	<path fill-rule="evenodd" clip-rule="evenodd" fill="none" stroke="#000000" stroke-width="1.575" stroke-linecap="round" d="
		M204.094,262.41c-0.08-0.061-0.16-0.119-0.241-0.18c-0.743-12.896,1.275-25.609,1.937-38.398"/>
	<path fill-rule="evenodd" clip-rule="evenodd" fill="none" stroke="#000000" stroke-width="1.6502" stroke-linecap="round" d="
		M206.92,262.553c2.003-0.955,4.791-0.432,6.314-2.461c-0.824-4.682-1.329-8.131-3.164-12.559
		c-2.407-5.811-1.832-10.289-0.916-16.07c0.203-1.287,0.889-2.156,0.725-3.262c-0.191-1.288,0.602-6.617-0.118-10.042
		c-0.712-0.345-0.965-1.06-1.331-2.003c-0.032-0.268-0.064-0.535-0.097-0.802"/>
	<path fill-rule="evenodd" clip-rule="evenodd" fill="none" stroke="#000000" stroke-width="1.1991" stroke-linecap="round" d="
		M208.333,215.354c-3.596-1.927-7.338,0.659-11.022,0.848"/>
	<path fill-rule="evenodd" clip-rule="evenodd" fill="none" stroke="#000000" stroke-width="1.7909" stroke-linecap="round" d="
		M208.333,215.354c1.204-1.767,2.041-3.793,2.12-5.936"/>
	<path fill-rule="evenodd" clip-rule="evenodd" fill="none" stroke="#000000" stroke-width="1.1014" stroke-linecap="round" d="
		M210.453,209.418c-2.35,0.385-5.257-0.863-7.207,0.848"/>
	<path fill-rule="evenodd" clip-rule="evenodd" fill="none" stroke="#000000" stroke-width="1.3093" stroke-linecap="round" d="
		M210.453,209.418c0.02-0.905-0.271-1.616-0.651-2.325c-0.931-0.192-2.063-0.191-3.164-0.219"/>
	<path fill-rule="evenodd" clip-rule="evenodd" fill="none" stroke="#000000" stroke-width="1.082" stroke-linecap="round" d="
		M206.638,206.875c-2.271,1.479-5.354,0.846-7.631,2.543"/>
	<path fill-rule="evenodd" clip-rule="evenodd" fill="none" stroke="#000000" stroke-width="1.1991" stroke-linecap="round" d="
		M169.755,224.68c1.499,0.121,1.986-0.785,2.968-1.696"/>
	<path fill-rule="evenodd" clip-rule="evenodd" fill="none" stroke="#000000" stroke-width="1.0725" stroke-linecap="round" d="
		M172.723,222.984c-1.176-0.854-2.213-0.636-3.109-0.283"/>
	<path fill-rule="evenodd" clip-rule="evenodd" fill="none" stroke="#000000" stroke-width="1.562" stroke-linecap="round" d="
		M167.635,245.029c4.609-3.057,2.966-10.116,5.427-14.753"/>
	<path fill-rule="evenodd" clip-rule="evenodd" fill="none" stroke="#000000" stroke-width="1.0629" stroke-linecap="round" d="
		M168.766,287.988c0.649-1.141,0.561-2.629,0.142-3.533"/>
	<path fill-rule="evenodd" clip-rule="evenodd" fill="none" stroke="#000000" stroke-width="1.0946" stroke-linecap="round" d="
		M168.907,284.455c-0.576,0.273-1.179,0.518-1.696,0.848"/>
	<path fill-rule="evenodd" clip-rule="evenodd" fill="none" stroke="#000000" stroke-width="1.5088" stroke-linecap="round" d="
		M162.83,358.08c1.056,0.512,2.192,0.473,3.109,0.564"/>
	<path fill-rule="evenodd" clip-rule="evenodd" fill="none" stroke="#000000" stroke-width="1.7986" stroke-linecap="round" d="
		M165.939,358.645c-0.232-0.514-0.331-0.896-0.424-1.271"/>
	<path fill-rule="evenodd" clip-rule="evenodd" fill="none" stroke="#000000" stroke-width="1.3406" stroke-linecap="round" d="
		M199.007,209.418c-1.612-0.063-1.975,0.643-2.262,1.131"/>
	<path fill-rule="evenodd" clip-rule="evenodd" fill="none" stroke="#000000" stroke-width="1.2094" stroke-linecap="round" d="
		M182.896,223.832c-0.085,1.205,0.098,2.258,0.54,2.866c0.52,0.088,1.005,0.005,1.348-0.098c1.202-1.978,4.485-2.923,4.048-5.735"/>
	<path fill-rule="evenodd" clip-rule="evenodd" fill="none" stroke="#000000" stroke-width="1.8959" stroke-linecap="round" d="
		M177.81,169.568c-0.282-0.141-0.565-0.283-0.848-0.424"/>
	<path fill-rule="evenodd" clip-rule="evenodd" fill="none" stroke="#000000" stroke-width="1.6497" stroke-linecap="round" d="
		M177.81,169.568c2.192,0.604,3.173,2.755,3.815,4.663"/>
	<path fill-rule="evenodd" clip-rule="evenodd" fill="none" stroke="#000000" stroke-width="1.6541" stroke-linecap="round" d="
		M177.81,169.568c-0.716,1.177-1.162,1.844-1.573,2.667c2.185,3.726,0.729,8.419,1.149,12.595"/>
</g>
</svg>
