<?xml version="1.0" encoding="utf-8"?>
<!-- Generator: Adobe Illustrator 14.0.0, SVG Export Plug-In . SVG Version: 6.00 Build 43363)  -->
<!DOCTYPE svg PUBLIC "-//W3C//DTD SVG 1.1//EN" "http://www.w3.org/Graphics/SVG/1.1/DTD/svg11.dtd">
<svg version="1.1" id="图层_1" xmlns="http://www.w3.org/2000/svg" xmlns:xlink="http://www.w3.org/1999/xlink" x="0px" y="0px"
	 width="848px" height="480px" viewBox="0 0 848 480" enable-background="new 0 0 848 480" xml:space="preserve">
<g>
	<path fill-rule="evenodd" clip-rule="evenodd" fill="none" stroke="#000000" stroke-width="1.3822" stroke-linecap="round" d="
		M246.097,196.38c3.551,0.833,6.747,4.257,8.182,7.612c2.8,0.894,3.665,4.081,5.869,6.001c5.21,4.541,11.658,7.935,18.629,5.234
		c2.08-2.691,4.886-4.227,6.381-7.451c3.569-7.695,0.645-19.396-3.35-26.359c1.367-8.562,2.278-16.682-1.268-23.432
		c-1.467-2.793-2.467-3.548-5.501-5.367c-2.223-1.333-4.387-2.897-8.399-1.951c0.085-0.02-5.317,2.87-6.493,4.432
		c-0.676,0.897-1.387,1.996-1.972,2.968c-2.457,4.08-5.431,10.357-6.999,16.712c-0.604,2.448-0.536,5.554-1.129,7.763
		c-1.277,4.752-3.582,8.781-4.182,12.307C246.001,195.27,246.051,195.822,246.097,196.38"/>
	<path fill-rule="evenodd" clip-rule="evenodd" fill="none" stroke="#000000" stroke-width="1.7932" stroke-linecap="round" d="
		M153.225,271.468c-2.641-5.326-3.505-11.944-2.964-17.784"/>
	<path fill-rule="evenodd" clip-rule="evenodd" fill="none" stroke="#000000" stroke-width="1.618" stroke-linecap="round" d="
		M150.261,253.684c-1.657-15.08,0.065-30.121,3.751-44.66c0.286-1.128,0.039-2.518,0.356-3.595c0.336-1.143,1.339-2.124,1.68-3.261
		c0.258-0.862,0.068-1.861,0.294-2.67c2.418-8.679,6.503-17.828,10.491-26.069c0.572-1.183,0.884-2.275,1.349-3.587
		c0.791-2.229,2.197-2.902,3.587-5.305c2.051-3.546,3.723-6.688,5.921-9.887c3.225-4.692,5.989-9.083,10.608-13.104"/>
	<path fill-rule="evenodd" clip-rule="evenodd" fill="none" stroke="#000000" stroke-width="1.482" stroke-linecap="round" d="
		M188.299,141.546c2.497-4.021,6.143-7.105,8.665-11.095c3.757-0.508,4.834-4.808,8.625-5.207"/>
	<path fill-rule="evenodd" clip-rule="evenodd" fill="none" stroke="#000000" stroke-width="1.4036" stroke-linecap="round" d="
		M205.589,125.244c0.99-1.863,3.168-3.337,5.27-3.293"/>
	<path fill-rule="evenodd" clip-rule="evenodd" fill="none" stroke="#000000" stroke-width="1.3929" stroke-linecap="round" d="
		M229.548,112.895c0.055-0.167,0.109-0.334,0.164-0.501c1.638-1.829,4.329-1.332,8.325-2.126c5.913-1.175,11.753-2.469,17.632-0.522
		c0.057,0.019,3.016,0.476,5.249,2.655"/>
	<path fill-rule="evenodd" clip-rule="evenodd" fill="none" stroke="#000000" stroke-width="1.3569" stroke-linecap="round" d="
		M260.917,112.4c1.799,0.316,2.49,0.757,3.217,1.731c3.18,0.944,6.391,2.86,7.903,5.925c3.263,1.195,4.903,4.332,6.911,6.916
		c0.697,0.896,1.853,1.519,2.481,2.458c1.511,2.26,2.881,5.065,3.199,7.669"/>
	<path fill-rule="evenodd" clip-rule="evenodd" fill="none" stroke="#000000" stroke-width="1.5694" stroke-linecap="round" d="
		M153.225,271.468c-0.729,5.362,2.385,10.867,4.727,16.021c2.66,5.854,4.815,11.734,10.093,15.595"/>
	<path fill-rule="evenodd" clip-rule="evenodd" fill="none" stroke="#000000" stroke-width="1.594" stroke-linecap="round" d="
		M168.045,303.084c4.609-10.981,18.806-6.827,28.269-9.97c1.222,1.855,1.927,3.48,3.113,5.263
		c5.949,8.936,18.097,20.258,14.56,30.889"/>
	<path fill-rule="evenodd" clip-rule="evenodd" fill="none" stroke="#000000" stroke-width="1.566" stroke-linecap="round" d="
		M213.987,329.266c0.214,0.115,0.428,0.23,0.642,0.346c5.254,0.124,10.638,0.498,15.524-0.989c0.542-0.166,0.934-0.91,1.5-1.095
		c1.018-0.333,2.253-0.114,3.024-0.396c0.335-0.122,0.44-0.937,0.797-1.087c0.767-0.323,1.805-0.106,2.567-0.388
		c0.927-0.342,1.538-1.242,2.346-1.605c1.824-0.819,4.113-0.921,4.435-2.463c0.806-0.17,1.936-0.21,2.474-0.455
		c2.392-2.742,6.033-4.319,8.917-6.885c3.498-3.111,6.059-6.802,9.159-11.107c1.171-1.626,4.541-6.148,6.198-9.168
		c1.894-3.45,4.39-6.83,5.929-9.875c0.367-0.725,0.225-1.789,0.509-2.454c4.348-10.151,9.932-20.2,11.23-32.242"/>
	<path fill-rule="evenodd" clip-rule="evenodd" fill="none" stroke="#000000" stroke-width="1.4674" stroke-linecap="round" d="
		M289.24,249.402c-1.77-3.611-0.456-13.432,0.486-19.273c0.292-1.814,1.15-5.454,2.601-7.279c0.142-1.175,0.127-2.507,0.506-3.449
		c0.62-0.38,1.244-0.616,1.923-0.791"/>
	<path fill-rule="evenodd" clip-rule="evenodd" fill="none" stroke="#000000" stroke-width="1.6976" stroke-linecap="round" d="
		M294.756,218.61c0.162-0.486,0.603-1.189,1.028-1.872c1.253-25.435,1.622-52.211-8.692-75.624c-0.44-0.505-1.105-1.174-1.677-1.678
		c-0.171-0.553-0.451-1.496-0.786-2.336"/>
	<path fill-rule="evenodd" clip-rule="evenodd" fill="none" stroke="#000000" stroke-width="1.6016" stroke-linecap="round" d="
		M229.548,112.895c-1.879-1.033-3.36,0.815-3.824,1.015c-2.797,1.205-6.055,1.93-8.981,3.723c-0.361,0.221-0.459,0.808-0.807,1.015
		c-1.095,0.652-2.57,0.257-5.078,3.304"/>
	<path fill-rule="evenodd" clip-rule="evenodd" fill="none" stroke="#000000" stroke-width="1.5506" stroke-linecap="round" d="
		M188.299,141.546c0.356,3.455,1.303,7.149,4.892,8.712c2.838,0.084,5.721,0.485,8.298,0.182c0.771-0.09,1.498-1.14,2.233-1.311
		c6.409-1.487,12.812,0.332,19.358-1.454c0.701-0.616,1.344-1.29,2.04-1.912c0.074-2.306,2.48-4.201,3.974-6.894
		c0.404-0.729,0.125-1.802,0.496-2.468c1.43-2.564,3.573-4.725,4.446-7.409c1.757-5.398,3.915-12.577-4.045-15.154
		c-0.133-0.305-0.288-0.624-0.444-0.944"/>
	<path fill-rule="evenodd" clip-rule="evenodd" fill="none" stroke="#000000" stroke-width="1.4968" stroke-linecap="round" d="
		M168.045,303.084c2.759,7.342,7.404,11.498,14.545,16.083c1.408,0.903,1.756,2.341,3.503,3.425
		c2.638,1.637,5.883,2.405,8.329,3.522c0.369,0.168,0.416,0.87,0.812,1.002c1.065,0.354,2.967,0.2,3.646,0.403
		c0.178,0.054,0.188,0.71,0.406,0.785c4.647,1.617,10.045,1.815,14.701,0.961"/>
	<path fill-rule="evenodd" clip-rule="evenodd" fill="none" stroke="#000000" stroke-width="1.7489" stroke-linecap="round" d="
		M205.589,125.244c1.401,0.463,2.566,0.467,3.398,0.33c0.712-1.14,2.233-2.103,1.871-3.623"/>
	<path fill-rule="evenodd" clip-rule="evenodd" fill="none" stroke="#000000" stroke-width="1.6654" stroke-linecap="round" d="
		M289.24,249.402c0.128-0.035,0.257-0.07,0.385-0.105c3.367-9.398,5.048-20.376,5.131-30.687"/>
	<path fill-rule="evenodd" clip-rule="evenodd" fill="none" stroke="#000000" stroke-width="1.5323" stroke-linecap="round" d="
		M153.225,271.468c1.746-2.894,1.429-6.029,0.679-9.571c-0.137-0.646-1.182-5.733-1.801-7.085c-0.22-0.48-1.234-0.655-1.842-1.128"
		/>
	<path fill-rule="evenodd" clip-rule="evenodd" fill="none" stroke="#000000" stroke-width="1.4283" stroke-linecap="round" d="
		M260.917,112.4c-1.954,6.688,5.824,9.935,10.583,12.142c4.527,4.047,8.385,8.816,13.129,12.558"/>
	<path fill-rule="evenodd" clip-rule="evenodd" fill="none" stroke="#000000" stroke-width="1.4771" stroke-linecap="round" d="
		M170.021,242.816c-2.605-2.954-1.514-7.906-1.482-11.856c0.111-13.703,2.796-25.337,8.687-35.279
		c1.901-3.208,4.775-5.472,7.866-7.955c6.944-1.781,13.936,0.655,16.911,7.143c1.877,4.093,0.613,8.238,0.366,12.604
		c1.987,0.911,3.667,2.062,5.65,3.274c3.033,4.4,5.403,7.083,4.483,16.266c-0.605,6.042-3.377,11.613-8.66,16.033
		c-2.445,2.046-6.314,4.651-9.328,5.492c-6.301,1.757-12.236-0.279-18.614-1.722C174.016,245.335,172.331,243.714,170.021,242.816"
		/>
	<path fill-rule="evenodd" clip-rule="evenodd" fill="none" stroke="#000000" stroke-width="1.3704" stroke-linecap="round" d="
		M228.807,274.926c-2.777-8.856,0.39-18.433,6.66-24.956c3.651-1.405,8.333-3.584,13.285-1.904c2.447,0.831,3.691,3.517,6.729,4.252
		c4.877-3.35,9.836-5.847,14.524-2.781c3.856,2.522,5.1,8.973,4.741,15.021c-0.292,4.913-2.99,11.778-6.003,16.714
		c-1.129,1.849-2.206,3.738-3.799,6.08c-1.48,2.176-2.098,3.832-4.243,5.638c-0.654,0.551-1.852,0.87-2.463,1.488
		c-1.003,1.014-1.559,2.722-2.498,3.43c-2.157,1.627-5.044,2.861-6.693,3.176c-3.274-1.522-4.903-3.961-7.681-7.099
		c-1.186-1.338-2.605-2.081-3.641-3.274c-0.598-0.688-0.776-1.961-1.301-2.651c-1.14-1.5-3.202-2.793-3.937-3.961
		C230.666,281.204,229.583,278.243,228.807,274.926"/>
</g>
</svg>
