<?xml version="1.0" encoding="utf-8"?>
<!-- Generator: Adobe Illustrator 14.0.0, SVG Export Plug-In . SVG Version: 6.00 Build 43363)  -->
<!DOCTYPE svg PUBLIC "-//W3C//DTD SVG 1.1//EN" "http://www.w3.org/Graphics/SVG/1.1/DTD/svg11.dtd">
<svg version="1.1" id="图层_1" xmlns="http://www.w3.org/2000/svg" xmlns:xlink="http://www.w3.org/1999/xlink" x="0px" y="0px"
	 width="848px" height="480px" viewBox="0 0 848 480" enable-background="new 0 0 848 480" xml:space="preserve">
<g>
	<path fill-rule="evenodd" clip-rule="evenodd" fill="none" stroke="#000000" stroke-width="1.905" stroke-linecap="round" d="
		M181.278,152.233c1.469,0.203,1.744,2.074,1.901,3.284"/>
	<path fill-rule="evenodd" clip-rule="evenodd" fill="none" stroke="#000000" stroke-width="1.5959" stroke-linecap="round" d="
		M183.179,155.517c2.514,2.091,3.816,5.961,4.148,9.333"/>
	<path fill-rule="evenodd" clip-rule="evenodd" fill="none" stroke="#000000" stroke-width="1.9065" stroke-linecap="round" d="
		M181.969,178.503c-6.509-4.255-4.622-13.457-5.105-20.233c2.213-1.404,1.774-4.676,4.414-6.037"/>
	<path fill-rule="evenodd" clip-rule="evenodd" fill="none" stroke="#000000" stroke-width="1.9857" stroke-linecap="round" d="
		M181.278,152.233c-0.091-0.397-0.369-0.905-0.691-1.383"/>
	<path fill-rule="evenodd" clip-rule="evenodd" fill="none" stroke="#000000" stroke-width="1.9857" stroke-linecap="round" d="
		M181.969,178.503c0.973-0.817,1.801-1.16,2.766-1.729"/>
	<path fill-rule="evenodd" clip-rule="evenodd" fill="none" stroke="#000000" stroke-width="1.7605" stroke-linecap="round" d="
		M184.735,176.774c-1.649-2.896-3.228-6.161-2.42-9.678"/>
	<path fill-rule="evenodd" clip-rule="evenodd" fill="none" stroke="#000000" stroke-width="1.6609" stroke-linecap="round" d="
		M182.315,167.096c-2.377-3.213-2.029-8.996,0.864-11.58"/>
	<path fill-rule="evenodd" clip-rule="evenodd" fill="none" stroke="#000000" stroke-width="1.6837" stroke-linecap="round" d="
		M182.315,167.096c2.007,0.071,3.46-1.251,5.012-2.247"/>
	
		<line fill-rule="evenodd" clip-rule="evenodd" fill="none" stroke="#000000" stroke-width="3.1109" stroke-linecap="round" x1="184.735" y1="176.774" x2="184.735" y2="176.774"/>
	<path fill-rule="evenodd" clip-rule="evenodd" fill="none" stroke="#000000" stroke-width="1.9526" stroke-linecap="round" d="
		M184.735,176.774c2.111-0.422,4.218-0.948,5.185-3.111"/>
	<path fill-rule="evenodd" clip-rule="evenodd" fill="none" stroke="#000000" stroke-width="1.776" stroke-linecap="round" d="
		M189.919,173.664c-1.219-2.854-0.02-6.611-2.592-8.814"/>
	<path fill-rule="evenodd" clip-rule="evenodd" fill="none" stroke="#000000" stroke-width="2.1453" stroke-linecap="round" d="
		M184.216,181.441c1.623,0.917,3.953,1.712,5.554,0.307c0.489-2.526,2.452-5.903,0.149-8.084"/>
	<path fill-rule="evenodd" clip-rule="evenodd" fill="none" stroke="#000000" stroke-width="1.8797" stroke-linecap="round" d="
		M184.216,181.441c0.826-1.401,1.447-3.124,0.519-4.667"/>
	<path fill-rule="evenodd" clip-rule="evenodd" fill="none" stroke="#000000" stroke-width="1.7084" stroke-linecap="round" d="
		M181.969,178.503c0.261,1.345,1.012,2.374,2.247,2.938"/>
	<path fill-rule="evenodd" clip-rule="evenodd" fill="none" stroke="#000000" stroke-width="1.037" stroke-linecap="round" d="
		M245.398,170.034c0.691,0,1.382,0,2.074,0c-0.045,1.773,0.771,2.686,2.074,3.111c0.19,0.882-0.405,0.979-1.037,1.037
		c-1.362-0.366-1.631-1.826-3.111-2.074C245.398,171.417,245.398,170.726,245.398,170.034z"/>
	<path fill-rule="evenodd" clip-rule="evenodd" fill="none" stroke="#000000" stroke-width="1.2933" stroke-linecap="round" d="
		M209.622,203.736c-0.164-1.546,0.176-2.589,1.037-3.111"/>
	<path fill-rule="evenodd" clip-rule="evenodd" fill="none" stroke="#000000" stroke-width="1.037" stroke-linecap="round" d="
		M251.62,202.181c0.862-0.19,1.003,0.403,1.037,1.037c0.013,0.25,0.088,0.806,0,1.037c-0.046,0.121-0.936-0.101-1.037,0
		c-0.144,0.144,0.074,0.837,0,1.037c-0.336,0.912-1.245,1.624-1.037,3.111c-0.691,0-1.382,0-2.074,0
		C247.607,204.39,251.042,204.713,251.62,202.181z"/>
	<path fill-rule="evenodd" clip-rule="evenodd" fill="none" stroke="#000000" stroke-width="2.1998" stroke-linecap="round" d="
		M217.399,205.292c0.669,0.022,0.882,0.501,1.037,1.037"/>
	<path fill-rule="evenodd" clip-rule="evenodd" fill="none" stroke="#000000" stroke-width="1.3387" stroke-linecap="round" d="
		M258.36,284.62c-0.062-0.629-0.286-1.097-0.519-1.556"/>
	<path fill-rule="evenodd" clip-rule="evenodd" fill="none" stroke="#000000" stroke-width="1.037" stroke-linecap="round" d="
		M277.544,284.102c3.042,0.882-1.349,2.609,0,5.185c-0.882,0.19-0.978-0.404-1.037-1.037c0-1.036,0-2.073,0-3.11
		C277.389,285.329,277.485,284.734,277.544,284.102z"/>
	<path fill-rule="evenodd" clip-rule="evenodd" fill="none" stroke="#000000" stroke-width="1.7625" stroke-linecap="round" d="
		M260.434,148.776c0.479,1.246,0.033,2.536-0.142,4c-0.393,0.43-1.163,0.749-1.933,1.184"/>
	<path fill-rule="evenodd" clip-rule="evenodd" fill="none" stroke="#000000" stroke-width="1.9078" stroke-linecap="round" d="
		M258.36,153.961c1.936,2.374,1.094,5.6,2.074,8.296"/>
	<path fill-rule="evenodd" clip-rule="evenodd" fill="none" stroke="#000000" stroke-width="2.8399" stroke-linecap="round" d="
		M260.434,162.257c0.636,1.729,0.971,3.457,1.037,5.185"/>
	<path fill-rule="evenodd" clip-rule="evenodd" fill="none" stroke="#000000" stroke-width="2.1998" stroke-linecap="round" d="
		M261.471,167.442c0.691,0.283,1.383,0.405,2.074,0.518"/>
	<path fill-rule="evenodd" clip-rule="evenodd" fill="none" stroke="#000000" stroke-width="1.5877" stroke-linecap="round" d="
		M263.545,167.96c13.471-8.423,30.152-11.21,45.973-10.197"/>
	<path fill-rule="evenodd" clip-rule="evenodd" fill="none" stroke="#000000" stroke-width="1.5289" stroke-linecap="round" d="
		M309.518,157.763c7.322-1.574,15.555-0.264,22.182,2.72c0.262,0.466,0.396,0.855,0.524,1.24c-0.078,0.48-0.303,0.891-0.535,1.299
		c-3.789,1.434-7.918,2.145-11.628,3.902"/>
	<path fill-rule="evenodd" clip-rule="evenodd" fill="none" stroke="#000000" stroke-width="1.6801" stroke-linecap="round" d="
		M320.06,166.923c0.751,1.601,2.449,2.496,3.975,3.284"/>
	<path fill-rule="evenodd" clip-rule="evenodd" fill="none" stroke="#000000" stroke-width="1.5422" stroke-linecap="round" d="
		M324.035,170.207c0.27-0.166,0.54-0.333,0.81-0.499c6.276,1.757,13.993,5.343,16.556,11.858c-3.62,1.027-8.462,1.179-12.505,0.952
		c-1.54,0.498-3.476,0.905-4.86-0.213"/>
	<path fill-rule="evenodd" clip-rule="evenodd" fill="none" stroke="#000000" stroke-width="1.6269" stroke-linecap="round" d="
		M324.035,182.305c-2.132,1.615-4.813,1.862-7.086,3.284"/>
	<path fill-rule="evenodd" clip-rule="evenodd" fill="none" stroke="#000000" stroke-width="1.9857" stroke-linecap="round" d="
		M263.286,195.958c-0.812,1.622-1.844,3.15-2.852,4.667"/>
	<path fill-rule="evenodd" clip-rule="evenodd" fill="none" stroke="#000000" stroke-width="1.3387" stroke-linecap="round" d="
		M263.026,256.104c0.704,0.333,1.441,0.632,2.074,1.037"/>
	<path fill-rule="evenodd" clip-rule="evenodd" fill="none" stroke="#000000" stroke-width="1.5888" stroke-linecap="round" d="
		M265.101,257.141c3.97-6.756,10.763-14.224,19.037-14.882c0.846,0.568,1.171,1.634,1.426,2.403
		c-1.015,7.142-5.038,14.088-4.391,21.292"/>
	<path fill-rule="evenodd" clip-rule="evenodd" fill="none" stroke="#000000" stroke-width="1.6721" stroke-linecap="round" d="
		M227.769,288.249c0.398-5.143,0.715-10.464,0.778-15.555"/>
	<path fill-rule="evenodd" clip-rule="evenodd" fill="none" stroke="#000000" stroke-width="1.8056" stroke-linecap="round" d="
		M205.128,274.941c1.171,8.292,0.287,16.828,0.849,25.127c-1.106,2.57-2.274,5.088-3.268,7.711"/>
	<path fill-rule="evenodd" clip-rule="evenodd" fill="none" stroke="#000000" stroke-width="1.5973" stroke-linecap="round" d="
		M202.709,307.779c0.164,0.268,0.328,0.534,0.491,0.802c-0.371,3.715-1.867,7.448-3.192,11.036
		c-0.908,0.548-1.595,0.726-2.299,0.599c-2.646-3.492-5.013-7.873-4.938-12.264"/>
	<path fill-rule="evenodd" clip-rule="evenodd" fill="none" stroke="#000000" stroke-width="1.7352" stroke-linecap="round" d="
		M192.771,307.952c-0.053-0.972-1.297-1.381-2.506-2.247"/>
	<path fill-rule="evenodd" clip-rule="evenodd" fill="none" stroke="#000000" stroke-width="1.6346" stroke-linecap="round" d="
		M172.032,212.55c-1.95-6.876-11.296-5.235-15.987-9.506"/>
	<path fill-rule="evenodd" clip-rule="evenodd" fill="none" stroke="#000000" stroke-width="1.5555" stroke-linecap="round" d="
		M156.045,203.044c-4.475,1.195-7.648,4.905-12.271,5.358"/>
	<path fill-rule="evenodd" clip-rule="evenodd" fill="none" stroke="#000000" stroke-width="1.7006" stroke-linecap="round" d="
		M77.926,235.882c-3.504,1.183-3.754,6.834-7.779,6.575c-1.714-6.926,1.154-14.589,4.105-21.085
		c2.457-5.408,5.577-10.015,9.117-14.254c0.957-0.511,1.576-0.72,2.162-0.962"/>
	<path fill-rule="evenodd" clip-rule="evenodd" fill="none" stroke="#000000" stroke-width="1.5611" stroke-linecap="round" d="
		M85.531,206.155c0.691-4.021,6.999-8.242,13.373-12.551c13.268-8.969,28.261-18.705,43.78-20.188
		c8.71-0.833,15.75,1.235,23.326,6.994c0.112,0.085,0.288,0.087,0.405,0.167"/>
	<path fill-rule="evenodd" clip-rule="evenodd" fill="none" stroke="#000000" stroke-width="1.8944" stroke-linecap="round" d="
		M166.415,180.577c1.232-4.958,0.501-9.787,1.104-14.64c0.477-3.832,2.458-10.272,3.167-16.293
		c-2.525-2.479-1.056-6.042-0.159-8.864c0.908-0.538,1.531-0.745,2.109-0.99"/>
	<path fill-rule="evenodd" clip-rule="evenodd" fill="none" stroke="#000000" stroke-width="1.6213" stroke-linecap="round" d="
		M172.637,139.789c0.095-5.295,1.157-11.294,7.127-12.575c2.55-0.6,5.305,0.28,7.771-0.525c6.776-8.146,30.724-12.705,44.586-7.671
		c4.455,1.618,7.887,5.091,11.878,6.802c8.311-1.568,11.984,0.363,15.25,6.512c0.368,0.693,0.113,2.091,0.309,2.802
		c1.201,4.37,2.357,9.196,0.876,13.642"/>
	<path fill-rule="evenodd" clip-rule="evenodd" fill="none" stroke="#000000" stroke-width="1.3117" stroke-linecap="round" d="
		M172.637,139.789c0.541,1.153,0.685,2.379,1.21,3.284"/>
	<path fill-rule="evenodd" clip-rule="evenodd" fill="none" stroke="#000000" stroke-width="1.8448" stroke-linecap="round" d="
		M166.415,180.577c0.151,0.193,0.303,0.385,0.455,0.578c1.017,4.335,1.71,7.635,2.557,10.803
		c2.733,10.214,4.684,15.396,11.901,19.333c3.163,1.726,4.411,5.487,5.962,7.908c2.393,3.733,5.836,7.115,7.296,11.499"/>
	<path fill-rule="evenodd" clip-rule="evenodd" fill="none" stroke="#000000" stroke-width="1.6829" stroke-linecap="round" d="
		M194.586,230.697c0.213,0.272,0.649,0.421,1.057,0.657c4.446,6.623,6.841,14.131,12.138,17.78
		c9.289,6.399,22.645,5.873,33.21,1.784"/>
	<path fill-rule="evenodd" clip-rule="evenodd" fill="none" stroke="#000000" stroke-width="2.0248" stroke-linecap="round" d="
		M240.991,250.918c2.766-2.05,4.298-5.171,5.703-8.296"/>
	<path fill-rule="evenodd" clip-rule="evenodd" fill="none" stroke="#000000" stroke-width="1.9492" stroke-linecap="round" d="
		M246.694,242.622c-0.211-2.644,1.464-5.362,0.605-8.123"/>
	<path fill-rule="evenodd" clip-rule="evenodd" fill="none" stroke="#000000" stroke-width="2.2171" stroke-linecap="round" d="
		M247.299,234.5c-0.76-0.156-2.168-0.149-3.457-0.173"/>
	<path fill-rule="evenodd" clip-rule="evenodd" fill="none" stroke="#000000" stroke-width="1.518" stroke-linecap="round" d="
		M243.842,234.327c-0.069,2.482-0.175,6.058-2.419,7.432"/>
	<path fill-rule="evenodd" clip-rule="evenodd" fill="none" stroke="#000000" stroke-width="1.7308" stroke-linecap="round" d="
		M241.423,241.759c-0.461,2.665-3.43,3.92-5.876,3.975"/>
	<path fill-rule="evenodd" clip-rule="evenodd" fill="none" stroke="#000000" stroke-width="1.5934" stroke-linecap="round" d="
		M235.546,245.733c-5.481,0.62-10.988,1.107-16.437,0.359c-0.549-0.603-0.771-1.055-1.191-1.396"/>
	<path fill-rule="evenodd" clip-rule="evenodd" fill="none" stroke="#000000" stroke-width="1.8933" stroke-linecap="round" d="
		M205.215,230.179c-2.271-1.575-2.105-4.806-4.58-6.395"/>
	<path fill-rule="evenodd" clip-rule="evenodd" fill="none" stroke="#000000" stroke-width="1.9121" stroke-linecap="round" d="
		M200.635,223.784c-0.846,0.172-2.094,0.188-2.896,0.018c-0.694-1.001-0.639-2.853,0.476-4.512"/>
	<path fill-rule="evenodd" clip-rule="evenodd" fill="none" stroke="#000000" stroke-width="1.8933" stroke-linecap="round" d="
		M198.215,219.291c0.18-4.946-4.087-8.707-8.814-8.814"/>
	<path fill-rule="evenodd" clip-rule="evenodd" fill="none" stroke="#000000" stroke-width="1.4665" stroke-linecap="round" d="
		M189.401,210.476c-0.223,0.463-0.508,0.886-0.797,1.307c-1.89,0.865-2.168-1.975-2.142-3.208"/>
	<path fill-rule="evenodd" clip-rule="evenodd" fill="none" stroke="#000000" stroke-width="1.49" stroke-linecap="round" d="
		M186.463,208.575c-3.145-4.533-1.293-12.664-6.913-15.209"/>
	<path fill-rule="evenodd" clip-rule="evenodd" fill="none" stroke="#000000" stroke-width="2.0465" stroke-linecap="round" d="
		M247.299,234.5c3.158-2.204,6.45-4.614,8.469-7.95"/>
	<path fill-rule="evenodd" clip-rule="evenodd" fill="none" stroke="#000000" stroke-width="1.787" stroke-linecap="round" d="
		M255.768,226.549c1.699-6.225,3.273-12.43,4.667-18.666"/>
	<path fill-rule="evenodd" clip-rule="evenodd" fill="none" stroke="#000000" stroke-width="3.1885" stroke-linecap="round" d="
		M260.434,207.884c0-2.074,0-4.148,0-6.222"/>
	<path fill-rule="evenodd" clip-rule="evenodd" fill="none" stroke="#000000" stroke-width="1.1974" stroke-linecap="round" d="
		M260.434,201.662c-0.811,0-1.871,0-3.111,0"/>
	<path fill-rule="evenodd" clip-rule="evenodd" fill="none" stroke="#000000" stroke-width="1.3117" stroke-linecap="round" d="
		M257.323,201.662c0,0.691,0,1.382,0,2.074"/>
	<path fill-rule="evenodd" clip-rule="evenodd" fill="none" stroke="#000000" stroke-width="1.1594" stroke-linecap="round" d="
		M257.323,201.662c0.061-1.098-0.474-1.601-1.037-2.074"/>
	<path fill-rule="evenodd" clip-rule="evenodd" fill="none" stroke="#000000" stroke-width="3.2241" stroke-linecap="round" d="
		M260.434,201.662c0-0.346,0-0.691,0-1.037"/>
	<path fill-rule="evenodd" clip-rule="evenodd" fill="none" stroke="#000000" stroke-width="1.5488" stroke-linecap="round" d="
		M260.434,200.625c-2.013-2.175-1.666-5.241-2.593-7.777"/>
	<path fill-rule="evenodd" clip-rule="evenodd" fill="none" stroke="#000000" stroke-width="2.8868" stroke-linecap="round" d="
		M261.471,167.442c-0.345,0.691-0.691,1.382-1.037,2.074"/>
	<path fill-rule="evenodd" clip-rule="evenodd" fill="none" stroke="#000000" stroke-width="2.0052" stroke-linecap="round" d="
		M324.035,170.207c1.75,3.775,1.728,8.317,0,12.098"/>
	<path fill-rule="evenodd" clip-rule="evenodd" fill="none" stroke="#000000" stroke-width="1.5741" stroke-linecap="round" d="
		M105.233,221.71c0.267,0.164,0.535,0.328,0.802,0.492c4.724,0.381,7.246-3.844,9.913-6.713"/>
	<path fill-rule="evenodd" clip-rule="evenodd" fill="none" stroke="#000000" stroke-width="1.936" stroke-linecap="round" d="
		M115.949,215.488c-0.579-7.042,5.652-11.799,7.604-17.974"/>
	<path fill-rule="evenodd" clip-rule="evenodd" fill="none" stroke="#000000" stroke-width="2.2515" stroke-linecap="round" d="
		M115.949,215.488c1.632,0.167,1.376,2.477,2.938,2.938"/>
	<path fill-rule="evenodd" clip-rule="evenodd" fill="none" stroke="#000000" stroke-width="1.8136" stroke-linecap="round" d="
		M118.887,218.426c2.376-5.313,11.631-10.505,16.286-4.983c0.587,2.528,0.184,5.173,0.306,7.748"/>
	<path fill-rule="evenodd" clip-rule="evenodd" fill="none" stroke="#000000" stroke-width="1.7649" stroke-linecap="round" d="
		M135.479,221.191c0.714-0.032,1.434-0.292,2.025-0.479c3.063-3.56,3.449-8.694,6.271-12.31"/>
	<path fill-rule="evenodd" clip-rule="evenodd" fill="none" stroke="#000000" stroke-width="1.3387" stroke-linecap="round" d="
		M143.774,208.402c-0.284-0.408-0.405-0.978-0.519-1.556"/>
	<path fill-rule="evenodd" clip-rule="evenodd" fill="none" stroke="#000000" stroke-width="1.94" stroke-linecap="round" d="
		M156.045,203.044c0.007-0.461,1.109-1.713,2.247-2.938"/>
	<path fill-rule="evenodd" clip-rule="evenodd" fill="none" stroke="#000000" stroke-width="1.6065" stroke-linecap="round" d="
		M88.814,209.439c1.262-0.91,2.911-1.488,3.37-3.111"/>
	<path fill-rule="evenodd" clip-rule="evenodd" fill="none" stroke="#000000" stroke-width="1.4508" stroke-linecap="round" d="
		M92.185,206.328c-0.059-0.17-0.118-0.341-0.177-0.511c1.494-8.065,10.932-8.762,14.954-14.525"/>
	
		<line fill-rule="evenodd" clip-rule="evenodd" fill="none" stroke="#000000" stroke-width="3.1109" stroke-linecap="round" x1="258.36" y1="153.961" x2="258.36" y2="153.961"/>
	<path fill-rule="evenodd" clip-rule="evenodd" fill="none" stroke="#000000" stroke-width="2.2108" stroke-linecap="round" d="
		M260.434,148.776c-0.348,0.104-0.695,0.207-1.043,0.311c-0.994,1.274-1.848,3.291-1.031,4.874"/>
	<path fill-rule="evenodd" clip-rule="evenodd" fill="none" stroke="#000000" stroke-width="3.168" stroke-linecap="round" d="
		M256.286,165.368c0.346,0,0.691,0,1.037,0"/>
	<path fill-rule="evenodd" clip-rule="evenodd" fill="none" stroke="#000000" stroke-width="1.6231" stroke-linecap="round" d="
		M258.36,153.961c-1.98,3.408-2.283,7.491-2.074,11.407"/>
	<path fill-rule="evenodd" clip-rule="evenodd" fill="none" stroke="#000000" stroke-width="1.7256" stroke-linecap="round" d="
		M263.545,167.96c2.913,8.92,2.103,18.688-0.401,27.467c-0.043,0.151,0.167,0.375,0.142,0.532"/>
	<path fill-rule="evenodd" clip-rule="evenodd" fill="none" stroke="#000000" stroke-width="1.6013" stroke-linecap="round" d="
		M263.286,195.958c3.674-0.831,5.874-4.378,9.045-5.939c6.766,2.373,13.954,1.404,21.121,2.475c1.855,0.277,3.356,1.857,5.507,2.789
		c4.386,1.9,9.728,2.094,14.706,1.886"/>
	<path fill-rule="evenodd" clip-rule="evenodd" fill="none" stroke="#000000" stroke-width="1.5513" stroke-linecap="round" d="
		M313.666,197.168c2.78-1.707,5.325-4.517,5.357-7.95"/>
	<path fill-rule="evenodd" clip-rule="evenodd" fill="none" stroke="#000000" stroke-width="1.4041" stroke-linecap="round" d="
		M319.023,189.218c-0.25-1.466-1.453-2.364-2.074-3.629"/>
	<path fill-rule="evenodd" clip-rule="evenodd" fill="none" stroke="#000000" stroke-width="1.4665" stroke-linecap="round" d="
		M316.949,185.589c-0.303-0.734-0.869-1.205-1.556-1.556"/>
	<path fill-rule="evenodd" clip-rule="evenodd" fill="none" stroke="#000000" stroke-width="2.1061" stroke-linecap="round" d="
		M311.764,165.886c-1.33,0.043-2.737,0.068-3.629-0.519"/>
	<path fill-rule="evenodd" clip-rule="evenodd" fill="none" stroke="#000000" stroke-width="1.3219" stroke-linecap="round" d="
		M311.764,165.886c2.825,0.173,5.67,1.657,8.296,1.037"/>
	<path fill-rule="evenodd" clip-rule="evenodd" fill="none" stroke="#000000" stroke-width="1.584" stroke-linecap="round" d="
		M309.518,157.763c0.408,2.829,3.772,5.21,2.247,8.123"/>
	<path fill-rule="evenodd" clip-rule="evenodd" fill="none" stroke="#000000" stroke-width="1.3117" stroke-linecap="round" d="
		M257.323,165.368c0.77,1.383,1.071,2.765,2.074,4.148"/>
	<path fill-rule="evenodd" clip-rule="evenodd" fill="none" stroke="#000000" stroke-width="3.168" stroke-linecap="round" d="
		M259.397,169.516c0.346,0,0.691,0,1.037,0"/>
	<path fill-rule="evenodd" clip-rule="evenodd" fill="none" stroke="#000000" stroke-width="1.8453" stroke-linecap="round" d="
		M260.434,162.257c-1.506,0.306-1.799,1.483-3.111,3.111"/>
	<path fill-rule="evenodd" clip-rule="evenodd" fill="none" stroke="#000000" stroke-width="3.1962" stroke-linecap="round" d="
		M255.508,174.96c0.259-0.086,0.519-0.173,0.778-0.259"/>
	<path fill-rule="evenodd" clip-rule="evenodd" fill="none" stroke="#000000" stroke-width="1.6934" stroke-linecap="round" d="
		M256.286,174.701c1.075-1.733,1.238-3.911,3.111-5.185"/>
	<path fill-rule="evenodd" clip-rule="evenodd" fill="none" stroke="#000000" stroke-width="1.8883" stroke-linecap="round" d="
		M256.286,165.368c-0.625,3.115-3.233,6.828-0.778,9.592"/>
	<path fill-rule="evenodd" clip-rule="evenodd" fill="none" stroke="#000000" stroke-width="1.6065" stroke-linecap="round" d="
		M258.878,176.256c1.085-2.081,1.71-4.372,1.556-6.74"/>
	<path fill-rule="evenodd" clip-rule="evenodd" fill="none" stroke="#000000" stroke-width="1.3387" stroke-linecap="round" d="
		M258.878,176.256c-0.673-0.303-1.678-0.869-2.592-1.555"/>
	<path fill-rule="evenodd" clip-rule="evenodd" fill="none" stroke="#000000" stroke-width="2.1586" stroke-linecap="round" d="
		M255.508,174.96c-0.3,1.534,0.169,3.126,1.245,3.982c1.278-0.087,1.857-1.354,2.079-2.162c0.015-0.175,0.031-0.35,0.046-0.524"/>
	<path fill-rule="evenodd" clip-rule="evenodd" fill="none" stroke="#000000" stroke-width="1.616" stroke-linecap="round" d="
		M313.666,197.168c0.037,0.135,0.074,0.27,0.111,0.405c3.625,1.501,11.348,2.513,16.415,1.265c-0.535-4.489-6.43-5.783-8.806-9.387
		c-0.649-0.11-1.501-0.172-2.363-0.232"/>
	<path fill-rule="evenodd" clip-rule="evenodd" fill="none" stroke="#000000" stroke-width="1.576" stroke-linecap="round" d="
		M77.926,235.882c0.275,1.733,1.056,3.137,2.042,3.531c9.092-4.757,15.553-13.658,25.266-17.703"/>
	<path fill-rule="evenodd" clip-rule="evenodd" fill="none" stroke="#000000" stroke-width="1.6193" stroke-linecap="round" d="
		M105.233,221.71c1.119-6.049-0.087-12.637-3.718-17.696c-0.836-0.557-1.702-1.112-2.895-1.259
		c-0.777,0.511-1.859,0.819-2.776,1.271c-1.02,1.054-2.099,2.188-3.66,2.302"/>
	<path fill-rule="evenodd" clip-rule="evenodd" fill="none" stroke="#000000" stroke-width="1.7028" stroke-linecap="round" d="
		M77.926,235.882c0.95-5.836,3.007-11.105,6.07-17.78c1.162-2.533,1.516-4.839,4.061-6.31c0.127-0.91,0.425-1.649,0.758-2.353"/>
	<path fill-rule="evenodd" clip-rule="evenodd" fill="none" stroke="#000000" stroke-width="1.4665" stroke-linecap="round" d="
		M88.814,209.439c-1.219-1.607-1.986-2.352-3.284-3.284"/>
	<path fill-rule="evenodd" clip-rule="evenodd" fill="none" stroke="#000000" stroke-width="1.6396" stroke-linecap="round" d="
		M189.401,210.476c-0.4-1.179-1.666-2.203-2.938-1.901"/>
	<path fill-rule="evenodd" clip-rule="evenodd" fill="none" stroke="#000000" stroke-width="1.94" stroke-linecap="round" d="
		M255.768,226.549c2.993-0.049,3.478-3.249,5.358-4.839"/>
	<path fill-rule="evenodd" clip-rule="evenodd" fill="none" stroke="#000000" stroke-width="1.609" stroke-linecap="round" d="
		M261.125,221.71c-0.078-3.922,0.775-7.879,1.381-11.761c-0.316-0.655-1.28-1.26-2.073-2.065"/>
	<path fill-rule="evenodd" clip-rule="evenodd" fill="none" stroke="#000000" stroke-width="1.9542" stroke-linecap="round" d="
		M118.887,218.426c0.251,6.636-5.816,13.35-2.123,19.771c5.532,0.111,9.996-6.055,13.808-10.828
		c1.656-2.074,3.196-4.637,4.907-6.178"/>
	<path fill-rule="evenodd" clip-rule="evenodd" fill="none" stroke="#000000" stroke-width="1.9381" stroke-linecap="round" d="
		M172.032,212.55c-1.012,4.227-2.577,8.569-3.255,12.399c-1.251,7.066-2.325,13.191,0.529,20.153
		c0.419,1.023,1.605,3.972,1.602,5.643"/>
	<path fill-rule="evenodd" clip-rule="evenodd" fill="none" stroke="#000000" stroke-width="1.7605" stroke-linecap="round" d="
		M170.908,250.745c3.23,1.733,3.69,6.028,5.531,8.987"/>
	<path fill-rule="evenodd" clip-rule="evenodd" fill="none" stroke="#000000" stroke-width="1.5281" stroke-linecap="round" d="
		M176.439,259.732c3.233,2.863,6.225,5.303,10.063,7.56c1.126,0.662,2.504,1.597,3.648,2.579c2.057-0.064,3.242,1.769,4.608,2.996"
		/>
	<path fill-rule="evenodd" clip-rule="evenodd" fill="none" stroke="#000000" stroke-width="1.7803" stroke-linecap="round" d="
		M194.759,272.867c3.43,0.155,7.265,0.387,10.37,2.074"/>
	<path fill-rule="evenodd" clip-rule="evenodd" fill="none" stroke="#000000" stroke-width="1.9526" stroke-linecap="round" d="
		M205.128,274.941c7.911-0.054,15.683-0.972,23.418-2.247"/>
	<path fill-rule="evenodd" clip-rule="evenodd" fill="none" stroke="#000000" stroke-width="1.7352" stroke-linecap="round" d="
		M228.547,272.694c0.241-0.608,0.616-1.471,0.778-2.592"/>
	<path fill-rule="evenodd" clip-rule="evenodd" fill="none" stroke="#000000" stroke-width="1.3662" stroke-linecap="round" d="
		M194.586,230.697c-7.835-0.178-13.72-5.063-16.896-11.621c-1.093-2.257-1.074-4.907-2.59-6.757
		c-1.147-0.246-2.066,0.141-3.068,0.231"/>
	<path fill-rule="evenodd" clip-rule="evenodd" fill="none" stroke="#000000" stroke-width="1.5678" stroke-linecap="round" d="
		M200.635,223.784c0.319-1.815-1.645-3.054-2.42-4.494"/>
	<path fill-rule="evenodd" clip-rule="evenodd" fill="none" stroke="#000000" stroke-width="1.7308" stroke-linecap="round" d="
		M246.694,242.622c0.937,0.213,2.01,0.531,2.809,1.083c2.656,3.646,1.294,8.482,3.414,12.398"/>
	<path fill-rule="evenodd" clip-rule="evenodd" fill="none" stroke="#000000" stroke-width="1.5317" stroke-linecap="round" d="
		M252.916,256.104c2.818-0.182,3.896,2.254,5.962,3.37"/>
	<path fill-rule="evenodd" clip-rule="evenodd" fill="none" stroke="#000000" stroke-width="1.8797" stroke-linecap="round" d="
		M258.878,259.474c0.772-0.097,2.492-1.759,4.148-3.37"/>
	<path fill-rule="evenodd" clip-rule="evenodd" fill="none" stroke="#000000" stroke-width="1.8863" stroke-linecap="round" d="
		M263.026,256.104c3.331-10.911,2.487-22.7-0.676-33.551c-0.422-0.453-0.835-0.594-1.225-0.843"/>
	<path fill-rule="evenodd" clip-rule="evenodd" fill="none" stroke="#000000" stroke-width="1.4831" stroke-linecap="round" d="
		M212.042,241.759c0.887-1.496,2.343-3.565,4.315-3.112c1.289,1.775,1.845,3.826,1.561,6.049"/>
	<path fill-rule="evenodd" clip-rule="evenodd" fill="none" stroke="#000000" stroke-width="1.7207" stroke-linecap="round" d="
		M243.842,234.327c-10.969-2.735-20.703,2.452-30.958-0.673c-2.591-0.79-4.753-2.234-7.669-3.475"/>
	<path fill-rule="evenodd" clip-rule="evenodd" fill="none" stroke="#000000" stroke-width="1.5592" stroke-linecap="round" d="
		M205.215,230.179c-0.116,4.456,3.562,8.825,6.827,11.58"/>
	<path fill-rule="evenodd" clip-rule="evenodd" fill="none" stroke="#000000" stroke-width="1.2999" stroke-linecap="round" d="
		M241.423,241.759c-0.707-1.345-0.948-3.125-2.289-3.983c-0.446,0.042-0.844,0.261-1.239,0.489
		c-0.819,2.542-2.978,4.493-2.349,7.468"/>
	<path fill-rule="evenodd" clip-rule="evenodd" fill="none" stroke="#000000" stroke-width="1.8453" stroke-linecap="round" d="
		M212.042,241.759c0.915,2.118,3.561,3.281,5.876,2.938"/>
	<path fill-rule="evenodd" clip-rule="evenodd" fill="none" stroke="#000000" stroke-width="1.6432" stroke-linecap="round" d="
		M265.101,257.141c-2.214,8.563,10.213,16.244,16.073,8.813"/>
	<path fill-rule="evenodd" clip-rule="evenodd" fill="none" stroke="#000000" stroke-width="1.8522" stroke-linecap="round" d="
		M240.991,250.918c-0.073,3.952-1.95,7.821-4.062,11.234"/>
	<path fill-rule="evenodd" clip-rule="evenodd" fill="none" stroke="#000000" stroke-width="1.7119" stroke-linecap="round" d="
		M236.929,262.152c1.105,2.125,0.361,4.741,1.83,6.812c3.896,5.713,15.734,4.813,13.89-3.889c0.159-0.513,0.68-1.195,1.218-1.886"/>
	<path fill-rule="evenodd" clip-rule="evenodd" fill="none" stroke="#000000" stroke-width="2.1522" stroke-linecap="round" d="
		M253.867,263.189c-1.424-2.046-1.492-4.696-0.951-7.086"/>
	<path fill-rule="evenodd" clip-rule="evenodd" fill="none" stroke="#000000" stroke-width="1.584" stroke-linecap="round" d="
		M160.539,298.446c2.478,1.938,5.404,2.622,8.296,3.457"/>
	<path fill-rule="evenodd" clip-rule="evenodd" fill="none" stroke="#000000" stroke-width="2.4866" stroke-linecap="round" d="
		M168.834,301.903c0.553-0.091,1.546-0.369,2.419-0.691"/>
	<path fill-rule="evenodd" clip-rule="evenodd" fill="none" stroke="#000000" stroke-width="2.2954" stroke-linecap="round" d="
		M171.254,301.212c0.563-1.729,0.463-3.457,0.519-5.186"/>
	<path fill-rule="evenodd" clip-rule="evenodd" fill="none" stroke="#000000" stroke-width="1.6544" stroke-linecap="round" d="
		M171.254,301.212c0.809,2.601,1.999,4.78,3.111,7.259"/>
	<path fill-rule="evenodd" clip-rule="evenodd" fill="none" stroke="#000000" stroke-width="1.9096" stroke-linecap="round" d="
		M174.365,308.471c4.159,2.183,8.317,0.782,12.703,0.519"/>
	<path fill-rule="evenodd" clip-rule="evenodd" fill="none" stroke="#000000" stroke-width="1.9985" stroke-linecap="round" d="
		M187.068,308.989c0.432-1.535,1.761-2.696,3.197-3.284"/>
	<path fill-rule="evenodd" clip-rule="evenodd" fill="none" stroke="#000000" stroke-width="1.7625" stroke-linecap="round" d="
		M190.265,305.705c0.542-1.523-0.649-2.934-0.346-4.493"/>
	<path fill-rule="evenodd" clip-rule="evenodd" fill="none" stroke="#000000" stroke-width="1.7155" stroke-linecap="round" d="
		M170.908,250.745c-4.649,9.285-8.91,19.256-10.434,30.191c-0.835,5.99-0.945,11.601-0.219,15.564
		c0.135,0.735,0.108,1.406,0.283,1.945"/>
	<path fill-rule="evenodd" clip-rule="evenodd" fill="none" stroke="#000000" stroke-width="1.9857" stroke-linecap="round" d="
		M253.867,263.189c0.367,0.061,1.142,0.605,1.901,1.21"/>
	<path fill-rule="evenodd" clip-rule="evenodd" fill="none" stroke="#000000" stroke-width="1.3718" stroke-linecap="round" d="
		M255.768,264.399c1.703-0.953,2.5-3.092,3.111-4.926"/>
	<path fill-rule="evenodd" clip-rule="evenodd" fill="none" stroke="#000000" stroke-width="1.7961" stroke-linecap="round" d="
		M236.929,262.152c-0.134,0.041-0.268,0.081-0.402,0.122c-5.272,4.241-4.429,11.815-4.666,17.987
		c-2.184,2.485-0.814,6.2-2.019,9.024"/>
	<path fill-rule="evenodd" clip-rule="evenodd" fill="none" stroke="#000000" stroke-width="2.2443" stroke-linecap="round" d="
		M229.843,289.286c-0.343,3.34,0.794,7.022-0.778,10.11"/>
	<path fill-rule="evenodd" clip-rule="evenodd" fill="none" stroke="#000000" stroke-width="1.6082" stroke-linecap="round" d="
		M229.065,299.396c-0.015,0.885-0.207,1.84-0.222,2.704c0.799,1.524,1.248,3.183,1.921,4.771
		c-0.013,10.957,1.756,20.422,11.228,25.225c10.605,5.378,20.67,1.051,27.531-7.263c4.992-6.05,7.317-12.839,11.717-18.371
		c2.578-3.241,9.669-8.549,9.771-14.479c3.037-3.606,9.044-7.518,7.272-13.067"/>
	<path fill-rule="evenodd" clip-rule="evenodd" fill="none" stroke="#000000" stroke-width="1.2947" stroke-linecap="round" d="
		M298.284,278.917c-0.225,0.121-0.449,0.241-0.674,0.362c-7.271,0.502-10.118-8.036-10.732-13.844"/>
	<path fill-rule="evenodd" clip-rule="evenodd" fill="none" stroke="#000000" stroke-width="1.9245" stroke-linecap="round" d="
		M286.877,265.436c-1.786,0.078-3.313,1.411-5.185,1.037"/>
	<path fill-rule="evenodd" clip-rule="evenodd" fill="none" stroke="#000000" stroke-width="1.5136" stroke-linecap="round" d="
		M281.692,266.473c1.163,4.222-0.969,8.211-2.592,11.926"/>
	<path fill-rule="evenodd" clip-rule="evenodd" fill="none" stroke="#000000" stroke-width="2.933" stroke-linecap="round" d="
		M281.692,266.473c-0.173-0.173-0.346-0.346-0.519-0.519"/>
	<path fill-rule="evenodd" clip-rule="evenodd" fill="none" stroke="#000000" stroke-width="1.8721" stroke-linecap="round" d="
		M255.768,264.399c1.437,4.554,1.043,9.326,0.519,13.999"/>
	<path fill-rule="evenodd" clip-rule="evenodd" fill="none" stroke="#000000" stroke-width="1.5264" stroke-linecap="round" d="
		M298.284,278.917c3.27-6.758,7.953-12.609,11.365-19.176c-0.286-0.752-1.037-1.403-1.649-1.886
		c-7.802-0.483-15.052,2.98-21.123,7.58"/>
	<path fill-rule="evenodd" clip-rule="evenodd" fill="none" stroke="#000000" stroke-width="1.8425" stroke-linecap="round" d="
		M176.439,259.732c-2.495,9.151,10.613,20.553,18.32,13.135"/>
	<path fill-rule="evenodd" clip-rule="evenodd" fill="none" stroke="#000000" stroke-width="1.3387" stroke-linecap="round" d="
		M229.843,289.286c-0.704-0.333-1.442-0.632-2.074-1.037"/>
	<path fill-rule="evenodd" clip-rule="evenodd" fill="none" stroke="#000000" stroke-width="1.5897" stroke-linecap="round" d="
		M227.769,288.249c-0.372,3.468-2.115,8.73,1.296,11.147"/>
	<path fill-rule="evenodd" clip-rule="evenodd" fill="none" stroke="#000000" stroke-width="1.5407" stroke-linecap="round" d="
		M160.539,298.446c-1.699,4.536-0.987,11.083,2.379,14.683c3.614-2.461,4.855-7.113,5.917-11.226"/>
	<path fill-rule="evenodd" clip-rule="evenodd" fill="none" stroke="#000000" stroke-width="1.584" stroke-linecap="round" d="
		M202.709,307.779c-3.232,0.73-6.693,1.12-9.938,0.173"/>
	<path fill-rule="evenodd" clip-rule="evenodd" fill="none" stroke="#000000" stroke-width="1.6577" stroke-linecap="round" d="
		M174.365,308.471c-0.658,4.494,2.265,8.813,3.671,12.92c5.021,1.962,8.25-8.995,9.032-12.401"/>
	<path fill-rule="evenodd" clip-rule="evenodd" fill="none" stroke="#000000" stroke-width="1.3912" stroke-linecap="round" d="
		M199.252,174.701c0.94-0.998,1.792-2.545,3.111-3.111"/>
</g>
</svg>
