<?xml version="1.0" encoding="utf-8"?>
<!-- Generator: Adobe Illustrator 14.0.0, SVG Export Plug-In . SVG Version: 6.00 Build 43363)  -->
<!DOCTYPE svg PUBLIC "-//W3C//DTD SVG 1.1//EN" "http://www.w3.org/Graphics/SVG/1.1/DTD/svg11.dtd">
<svg version="1.1" id="图层_1" xmlns="http://www.w3.org/2000/svg" xmlns:xlink="http://www.w3.org/1999/xlink" x="0px" y="0px"
	 width="848px" height="480px" viewBox="0 0 848 480" enable-background="new 0 0 848 480" xml:space="preserve">
<g>
	<path fill="none" stroke="#000000" stroke-width="1.0793" stroke-linecap="round" d="M285.768,118.886
		c-0.56-0.559,0.78-1.378,1.079-1.08C287.405,118.365,286.066,119.184,285.768,118.886z"/>
	<path fill="none" stroke="#000000" stroke-width="1.0793" stroke-linecap="round" d="M282.53,119.965
		c-0.559-0.559,0.78-1.378,1.079-1.079C284.167,119.444,282.828,120.264,282.53,119.965z"/>
	<path fill="none" stroke="#000000" stroke-width="1.9019" stroke-linecap="round" d="M287.386,164.756
		c0.353-2.368,1.044-5.668,3.208-6.93c4.496,1.812,6.488,6.731,7.046,11.246"/>
	<path fill="none" stroke="#000000" stroke-width="2.4996" stroke-linecap="round" d="M246.374,176.628
		c-1.438-5.435,1.23-10.46,2.949-15.357c4.175-1.154,6.505,3.738,7.844,6.724"/>
	<path fill="none" stroke="#000000" stroke-width="1.5923" stroke-linecap="round" d="M289.545,167.993
		c-0.04-1.477-0.068-2.942,0.345-4.004c2.5-0.949,2.134,2.678,2.894,4.004"/>
	<path fill="none" stroke="#000000" stroke-width="3.0527" stroke-linecap="round" d="M292.783,167.993
		c0.18,0.18,0.36,0.359,0.54,0.54"/>
	<path fill="none" stroke="#000000" stroke-width="1.2463" stroke-linecap="round" d="M289.545,167.993c1.384,0,2.211,0,3.238,0"/>
	<path fill="none" stroke="#000000" stroke-width="2.0478" stroke-linecap="round" d="M290.085,170.692
		c1.038-0.417,2.321-1.373,3.238-2.158"/>
	<path fill="none" stroke="#000000" stroke-width="1.3652" stroke-linecap="round" d="M289.545,167.993
		c-0.031,1.11,0.247,1.911,0.54,2.697"/>
	<path fill="none" stroke="#000000" stroke-width="2.1454" stroke-linecap="round" d="M290.085,170.692
		c0.107,2.891-0.478,10.461,4.105,8.577c0.026-3.504,1.13-7.619-0.867-10.734"/>
	<path fill="none" stroke="#000000" stroke-width="1.8915" stroke-linecap="round" d="M255.278,173.12
		c0.296,0.173,0.593,0.347,0.889,0.52c2.299,3.097,2.08,7.946,0.696,11.359c-1.363,0.168-2.357-0.728-3.445-1.387
		c-0.762-2.457-2.097-4.778-1.646-7.524"/>
	<path fill="none" stroke="#000000" stroke-width="2.0364" stroke-linecap="round" d="M255.278,173.12
		c0.381-2.136-0.25-5.458-2.526-6.112c-2.379,1.048-1.232,4.324-1.521,6.382"/>
	<path fill="none" stroke="#000000" stroke-width="1.2463" stroke-linecap="round" d="M255.008,173.39c-1.375,0-2.579,0-3.777,0"/>
	<path fill="none" stroke="#000000" stroke-width="2.3315" stroke-linecap="round" d="M251.23,173.39
		c-0.055,1.571,0.197,2.182,0.54,2.698"/>
	<path fill="none" stroke="#000000" stroke-width="2.7517" stroke-linecap="round" d="M255.278,173.12
		c-0.09,0.09-0.18,0.18-0.271,0.27"/>
	<path fill="none" stroke="#000000" stroke-width="1.5263" stroke-linecap="round" d="M255.008,173.39
		c-1.151,1.864-2.286,2.347-3.237,2.698"/>
	<path fill="none" stroke="#000000" stroke-width="1.0793" stroke-linecap="round" d="M281.45,189.04c0.72,0,1.439,0,2.159,0
		c0,0.719,0,1.438,0,2.158c-0.72,0-1.439,0-2.159,0C281.45,190.479,281.45,189.759,281.45,189.04z"/>
	<path fill="none" stroke="#000000" stroke-width="1.5781" stroke-linecap="round" d="M280.371,208.467
		c-2.397,1.524-5.839,2.449-8.415,1.021c-0.034-2.167-0.371-5.317,1.939-6.417"/>
	<path fill="none" stroke="#000000" stroke-width="1.6859" stroke-linecap="round" d="M280.371,208.467
		c0.177-0.001,0.354-0.003,0.532-0.005c0.738-0.219,1.865-0.549,2.671-1.114c0.993-2.696,1.945-6.188,0.286-8.855
		c-3.127-0.534-6.457-0.623-9.11,1.116c-0.415,1.557-0.812,2.52-0.854,3.462"/>
	<path fill="none" stroke="#000000" stroke-width="1.4967" stroke-linecap="round" d="M280.371,208.467
		c-1.424-2.647-3.358-4.959-6.476-5.396"/>
	<path fill="none" stroke="#000000" stroke-width="1.0793" stroke-linecap="round" d="M240.437,214.943
		c1.418,0.381,1.697,1.9,3.237,2.159c0.197,0.897-0.42,1.044-1.079,1.079c-0.358,0.02-0.721-0.015-1.079,0
		c0.607-1.093-0.955-0.789-1.08-1.079C240.177,216.493,240.637,215.576,240.437,214.943z"/>
	<path fill="none" stroke="#000000" stroke-width="1.0793" stroke-linecap="round" d="M227.486,217.101
		c3.309,1.061-1.24,2.879-1.08,4.317C223.098,220.359,227.647,218.539,227.486,217.101z"/>
	<path fill="none" stroke="#000000" stroke-width="1.9236" stroke-linecap="round" d="M256.087,226.275
		c0.754,1.119,1.046,1.892,1.488,2.639c0.148,1.255-0.223,3.345-1.588,4.589c-2.422,0.545-5.179,0.682-7.177-1.03
		c-0.415-1.195-0.06-2.636,0.801-4.039"/>
	<path fill="none" stroke="#000000" stroke-width="1.6215" stroke-linecap="round" d="M256.087,226.275
		c0.313-3.524-2.192-6.145-4.573-8.407c-0.649-0.17-1.129-0.027-1.6,0.13c-2.177,3.154-1.28,7.046-0.303,10.437"/>
	<path fill="none" stroke="#000000" stroke-width="1.7625" stroke-linecap="round" d="M249.612,228.434
		c0.59,0.719,0.843,1.439,1.079,2.159"/>
	<path fill="none" stroke="#000000" stroke-width="2.8555" stroke-linecap="round" d="M256.087,226.275
		c-0.359-0.359-0.72-0.719-1.079-1.079"/>
	<path fill="none" stroke="#000000" stroke-width="1.9041" stroke-linecap="round" d="M224.788,230.593
		c1.122,1.688,3.442,3.364,2.541,5.905c-1.87,3.94-7.465,4.489-11.448,4.182c-4.157-4.754-3.624-14.799,2.534-17.57
		c3.033,0.301,5.362,3.246,6.784,5.828C225.191,229.388,224.993,229.987,224.788,230.593"/>
	<path fill="none" stroke="#000000" stroke-width="2.0192" stroke-linecap="round" d="M224.788,230.593
		c-0.359-0.36-0.72-0.72-1.079-1.08"/>
	<path fill="none" stroke="#000000" stroke-width="1.6249" stroke-linecap="round" d="M242.596,239.766
		c-0.799-0.922-0.79-1.495-0.891-2.147c0.639-0.457,1.537-0.347,2.215-0.19C244.249,238.615,243.27,239.086,242.596,239.766"/>
	<path fill="none" stroke="#000000" stroke-width="4.3619" stroke-linecap="round" d="M309.512,198.753c0,0.392,0,0.869,0,1.349"/>
	<path fill="none" stroke="#000000" stroke-width="1.4909" stroke-linecap="round" d="M309.512,200.102
		c1.904,1.753,5.061,1.822,7.165,0.419c3.346,0.153,8.27-0.479,12.202-0.58c1.828-0.046,5.9-1.919,6.343,0.965
		c-0.578,0.372-1.148,0.864-1.679,1.375c-4.936,2.914-9.812,6.941-13.776,11.042"/>
	<path fill="none" stroke="#000000" stroke-width="1.0842" stroke-linecap="round" d="M319.765,213.323
		c2.743,5.089,8.991,7.074,11.872,11.873"/>
	<path fill="none" stroke="#000000" stroke-width="1.3864" stroke-linecap="round" d="M319.765,213.323
		c-7.399,0.078-15.141-0.844-22.125,1.619"/>
	<path fill="none" stroke="#000000" stroke-width="1.4088" stroke-linecap="round" d="M297.1,220.879
		c5.368-0.152,10.682-0.198,15.648,1.619"/>
	<path fill="none" stroke="#000000" stroke-width="1.4647" stroke-linecap="round" d="M297.64,224.656
		c2.306,3.074,9.009,9.806,16.134,7.673c4.222-1.265,15.084-1.693,21.101-3.354"/>
	<path fill="none" stroke="#000000" stroke-width="1.4035" stroke-linecap="round" d="M307.353,305.603
		c4.02,2.396,8.713,3.835,11.873,7.016"/>
	<path fill="none" stroke="#000000" stroke-width="4.515" stroke-linecap="round" d="M328.76,350.753
		c-0.12-0.12-0.24-0.239-0.36-0.359"/>
	<path fill="none" stroke="#000000" stroke-width="3.2379" stroke-linecap="round" d="M328.4,350.394
		c-1.094,0.159-2.754-0.183-4.317-1.079"/>
	<path fill="none" stroke="#000000" stroke-width="3.7775" stroke-linecap="round" d="M324.082,349.315
		c-1.117-0.112-1.862-0.412-2.59-0.648"/>
	<path fill="none" stroke="#000000" stroke-width="1.5167" stroke-linecap="round" d="M240.617,332.765
		c-0.042,0.14-0.085,0.279-0.127,0.419c-0.496,1.58-2.43,1.663-3.52,2.404c-3.016,2.05-5.626,4.896-9.2,6.994
		c-3.921,2.305-9.885,5.738-15.104,8.643c-6.629,3.688-17.811,7.65-25.354,2.104c-7.767-5.71-9.494-16.184,3.476-30.459"/>
	<path fill="none" stroke="#000000" stroke-width="1.3219" stroke-linecap="round" d="M190.79,322.87
		c2.949-4.265,7.419-7.992,12.951-7.015"/>
	<path fill="none" stroke="#000000" stroke-width="1.5263" stroke-linecap="round" d="M205.9,313.157
		c-0.499-2.672-3.71-1.979-4.497-4.138"/>
	<path fill="none" stroke="#000000" stroke-width="1.772" stroke-linecap="round" d="M201.403,309.021
		c-14.579,3.439-22.046-20.596-10.793-26.263"/>
	<path fill="none" stroke="#000000" stroke-width="1.6709" stroke-linecap="round" d="M190.61,282.758
		c-0.003-0.71,0.537-7.806,0.177-10.98c-0.115-1.018-0.952-2.843-0.968-3.9c-0.15-9.903,1.044-21.38,3.837-31.721
		c1.033-3.824,2.893-7.229,4.461-11.727c0.875-0.564,1.788-1.09,2.634-1.683c3.65-8.625,13.633-11.377,21.023-15.674
		c2.604-0.419,5.578,0.06,7.87-1.304"/>
	<path fill="none" stroke="#000000" stroke-width="1.5263" stroke-linecap="round" d="M229.645,205.769
		c-0.365-0.848-0.451-2.665-1.08-3.777"/>
	<path fill="none" stroke="#000000" stroke-width="1.5483" stroke-linecap="round" d="M228.565,201.991
		c-0.239,0.131-0.479,0.262-0.716,0.393c-8.13-0.922-11.612-9.231-12.235-16.582"/>
	<path fill="none" stroke="#000000" stroke-width="1.6524" stroke-linecap="round" d="M215.614,185.802
		c-2.814-2.646-3.735-6.628-4.707-10.404c-2.832-11-3.171-25.539,0.185-36.211c4.042-12.854,14.469-25.535,25.793-32.486
		c4.225-1.553,8.038-0.794,11.323-1.629c0.642-0.162,1.035-1.454,1.643-1.596c8.61-2,15.51-3.526,22.092-0.983
		c0.984,0.38,2.206,0.386,3.573,0.742c3.276,0.856,5.48,3.817,8.89,6.221c4.088,2.881,8.782,5.475,12.436,9.149
		c0.335,0.336,0.259,1.217,0.58,1.584c1.022,1.165,2.828,2.489,3.74,3.809c3.469,5.019,5.785,11.905,7.97,19.014
		c3.743,12.174,4.6,32.512,2.649,47.047c-0.396,2.954,0.315,6.449-2.268,8.694"/>
	<path fill="none" stroke="#000000" stroke-width="1.4779" stroke-linecap="round" d="M215.614,185.802
		c0.592-1.896,1.247-3.76,1.941-5.614c1.229-0.294,2.098-0.688,2.916-0.861"/>
	<path fill="none" stroke="#000000" stroke-width="1.4779" stroke-linecap="round" d="M220.47,179.326
		c0.051-2.437-0.866-3.215-1.079-4.857"/>
	<path fill="none" stroke="#000000" stroke-width="1.7524" stroke-linecap="round" d="M220.47,179.326
		c1.145,1.918,2.386,4.102,2.158,6.476"/>
	<path fill="none" stroke="#000000" stroke-width="1.3219" stroke-linecap="round" d="M229.645,205.769
		c2.43,0.044,4.15,0.071,5.396-0.54"/>
	<path fill="none" stroke="#000000" stroke-width="2.3454" stroke-linecap="round" d="M235.041,205.229
		c-1.545-9.629-4.368-19.487-2.159-29.141"/>
	<path fill="none" stroke="#000000" stroke-width="2.508" stroke-linecap="round" d="M232.883,176.088
		c-1.316-0.735-1.864-1.553-2.158-2.698"/>
	<path fill="none" stroke="#000000" stroke-width="2.1" stroke-linecap="round" d="M232.883,176.088
		c2.782-4.854-0.837-11.824,3.238-16.189"/>
	<path fill="none" stroke="#000000" stroke-width="1.5263" stroke-linecap="round" d="M236.12,159.899
		c-0.572-1.038-0.374-2.32,0-3.237"/>
	<path fill="none" stroke="#000000" stroke-width="1.4671" stroke-linecap="round" d="M236.12,156.661
		c2.479-7.017,6.082-14.107,10.942-19.428c1.146-0.64,2.2-1.12,3.075-0.893c5.79,7.215,12.843,13.857,16.202,22.479"/>
	<path fill="none" stroke="#000000" stroke-width="1.5444" stroke-linecap="round" d="M266.341,158.82
		c3.361,0.757,2.477,5.827,5.637,6.102c0.15-1.656,0.384-2.953,1.02-4.123"/>
	<path fill="none" stroke="#000000" stroke-width="2.3315" stroke-linecap="round" d="M272.996,160.798
		c-0.098-0.326-0.14-0.877-0.18-1.439"/>
	<path fill="none" stroke="#000000" stroke-width="2.4807" stroke-linecap="round" d="M272.996,160.798
		c4.062,1.838,3.511,8.36,7.781,9.86c1.39-5.031,2.093-11.711,3.602-16.328c0.063-0.194,0.742-0.188,0.851-0.368"/>
	<path fill="none" stroke="#000000" stroke-width="2.008" stroke-linecap="round" d="M305.735,167.993
		c1.964-1.631,2.014-4.24,2.698-6.477"/>
	<path fill="none" stroke="#000000" stroke-width="1.3486" stroke-linecap="round" d="M304.115,318.555
		c1.696,2.6,4.265,4.271,6.178,6.772c6.335-0.067,12.522,1.312,17.268,5.397c6.551,1.114,10.051,9.188,10.226,15.031
		c-0.666,0.766-1.402,1.469-2.081,2.229c-2.388,0.736-4.825,1.345-6.946,2.769"/>
	<path fill="none" stroke="#000000" stroke-width="2.2017" stroke-linecap="round" d="M328.76,350.753
		c4.31,3.508,11.138,1.614,15.829-0.359"/>
	<path fill="none" stroke="#000000" stroke-width="1.5923" stroke-linecap="round" d="M344.589,350.394
		c4.137-3.891,5.042-10.405,3.283-15.155c-1.847-4.986-7.326-8.541-12.151-11.569c-1.014-0.637-2.393-1.808-3.259-2.16
		c-4.932-2.015-9.581-1.982-14.06-1.054c-0.746-2.628,0.208-5.3,0.824-7.837"/>
	<path fill="none" stroke="#000000" stroke-width="1.3752" stroke-linecap="round" d="M344.589,350.394
		c10.113-1.754,13.518-9.688,10.474-18.032c-1.897-5.201-6.402-8.148-9.636-11.932c-8.802-3.062-17.009-6.26-26.2-7.813"/>
	<path fill="none" stroke="#000000" stroke-width="1.4112" stroke-linecap="round" d="M240.617,332.765
		c-7.151-0.888-12.602-3.41-18.236-6.947c-5.443-3.418-9.822-8.086-14.854-11.532c-0.132-0.091-0.406,0.027-0.548-0.048"/>
	<path fill="none" stroke="#000000" stroke-width="1.682" stroke-linecap="round" d="M206.979,314.238
		c-0.416,1.229-1.733,2.293-3.059,1.979"/>
	<path fill="none" stroke="#000000" stroke-width="1.6008" stroke-linecap="round" d="M219.931,262.701
		c6.323,0.355,13.105,0.329,19.427,0"/>
	<path fill="none" stroke="#000000" stroke-width="1.7332" stroke-linecap="round" d="M239.358,262.701
		c2.922-1.507,5.934-3.683,7.016-6.927"/>
	<path fill="none" stroke="#000000" stroke-width="3.5249" stroke-linecap="round" d="M246.374,255.776
		c-0.359-0.12-0.72-0.238-1.08-0.358"/>
	<path fill="none" stroke="#000000" stroke-width="1.4833" stroke-linecap="round" d="M245.294,255.416
		c-1.621,1.354-4.252,1.357-6.156,0.745c-0.285-0.477-0.425-0.871-0.558-1.264c0.028-0.938,0.826-2.054,2.038-3.439"/>
	<path fill="none" stroke="#000000" stroke-width="1.3834" stroke-linecap="round" d="M247.992,254.876
		c2.911-0.759,6.301-1.133,8.634,1.079"/>
	<path fill="none" stroke="#000000" stroke-width="1.682" stroke-linecap="round" d="M256.627,255.955
		c0.416-1.228,1.733-2.293,3.059-1.979"/>
	<path fill="none" stroke="#000000" stroke-width="1.7065" stroke-linecap="round" d="M259.685,253.977
		c5.321-5.575,6.599-13.389,4.497-20.686"/>
	<path fill="none" stroke="#000000" stroke-width="1.6633" stroke-linecap="round" d="M190.61,282.758
		c1.726,1.457,1.1,4.022,2.132,5.816c1.155,0.276,1.833-0.493,2.651-1.038c0.144-1.376,0.721-2.063,1.333-2.439"/>
	<path fill="none" stroke="#000000" stroke-width="1.6761" stroke-linecap="round" d="M196.726,285.097
		c0.145-3.489,1.333-6.405,3.237-9.175"/>
	<path fill="none" stroke="#000000" stroke-width="2.2343" stroke-linecap="round" d="M199.964,275.922
		c0.947-4.953,0.396-10.455,2.159-15.109"/>
	<path fill="none" stroke="#000000" stroke-width="3.3363" stroke-linecap="round" d="M202.123,260.813
		c-0.015-1.844-0.023-3.669,0.181-4.856"/>
	<path fill="none" stroke="#000000" stroke-width="2.0386" stroke-linecap="round" d="M202.302,255.955
		c-0.819-7.072,0.77-13.969,0.359-21.046"/>
	<path fill="none" stroke="#000000" stroke-width="1.6486" stroke-linecap="round" d="M202.302,255.955
		c2.368,0.047,4.08,1.801,5.756,3.237"/>
	<path fill="none" stroke="#000000" stroke-width="1.7277" stroke-linecap="round" d="M214.534,288.334
		c3.358-0.935,6.843-1.401,9.951-3c0.822-0.639,1.334-1.57,1.789-2.359c0.551-3.687-0.146-7.29-0.947-10.83"/>
	<path fill="none" stroke="#000000" stroke-width="1.402" stroke-linecap="round" d="M225.327,272.145
		c-1.325-3.543-4.588-5.728-5.396-9.442"/>
	<path fill="none" stroke="#000000" stroke-width="1.4114" stroke-linecap="round" d="M219.931,262.701
		c-3.997-1.233-7.901-2.024-11.872-3.509"/>
	<path fill="none" stroke="#000000" stroke-width="1.8119" stroke-linecap="round" d="M228.565,201.991
		c-0.046-2.188-1.781-3.829-2.159-5.937"/>
	<path fill="none" stroke="#000000" stroke-width="1.672" stroke-linecap="round" d="M226.406,196.055
		c-1.089,0.068-1.708-0.128-2.305-0.337c-0.174-1.239-1.785-3.047,0.146-3.71"/>
	<path fill="none" stroke="#000000" stroke-width="2.0837" stroke-linecap="round" d="M224.248,192.008
		c0.164-2.129-0.306-4.532-1.619-6.206"/>
	<path fill="none" stroke="#000000" stroke-width="2.2895" stroke-linecap="round" d="M222.629,185.802
		c-1.146-0.029-1.801,0.09-2.392,0.254c-0.215,0.559-0.236,1.304-0.307,1.904"/>
	<path fill="none" stroke="#000000" stroke-width="1.4768" stroke-linecap="round" d="M235.041,205.229
		c9.354,2.032,19.813,5.165,25.093,13.761"/>
	<path fill="none" stroke="#000000" stroke-width="1.7625" stroke-linecap="round" d="M260.135,218.99
		c1.313-1.701,4.176-1.805,5.667-0.27"/>
	<path fill="none" stroke="#000000" stroke-width="1.8" stroke-linecap="round" d="M265.801,218.72
		c4.284-1.335,8.605-0.434,12.613-1.417c4.258-1.046,7.883-4.094,12.57-4.698"/>
	<path fill="none" stroke="#000000" stroke-width="2.3315" stroke-linecap="round" d="M290.984,212.604
		c0.35-0.567,0.802-0.688,1.259-0.898"/>
	<path fill="none" stroke="#000000" stroke-width="1.7486" stroke-linecap="round" d="M292.243,211.705
		c0.555-1.834,2.624-2.321,4.317-2.159"/>
	<path fill="none" stroke="#000000" stroke-width="3.2178" stroke-linecap="round" d="M296.561,209.546
		c1.257-1.257,3.187-3.188,4.316-4.317"/>
	<path fill="none" stroke="#000000" stroke-width="2.3182" stroke-linecap="round" d="M306.274,192.817
		c-1.64-7.921-1.394-16.635-0.54-24.823"/>
	<path fill="none" stroke="#000000" stroke-width="1.6289" stroke-linecap="round" d="M305.735,167.993
		c-2.927-7.198-3.479-14.595-6.792-21.27c-3.021-6.086-6.988-8.921-11.805-14.114c-0.988-0.193-1.672,0.08-2.244,0.368
		c1.111,6.933,0.543,13.915,0.335,20.984"/>
	<path fill="none" stroke="#000000" stroke-width="1.5263" stroke-linecap="round" d="M285.228,153.963
		c2.188-1.392,3.401-3.756,5.626-5.159c1.537-0.231,3.545-0.373,4.843,0.086c0.361,0.358,0.749,0.689,1.139,1.021
		c0.112,0.967,0.699,1.459,1.344,1.895"/>
	<path fill="none" stroke="#000000" stroke-width="1.5263" stroke-linecap="round" d="M265.801,218.72
		c-1.799,1.175-3.965,0.958-5.396,1.08"/>
	<path fill="none" stroke="#000000" stroke-width="3.0527" stroke-linecap="round" d="M260.405,219.8
		c0.318,1.383,0.712,2.21,1.079,3.238"/>
	<path fill="none" stroke="#000000" stroke-width="1.7307" stroke-linecap="round" d="M261.484,223.037
		c1.946,1.024,1.938,2.625,2.698,3.776"/>
	<path fill="none" stroke="#000000" stroke-width="1.6189" stroke-linecap="round" d="M264.182,226.815
		c0.347,0.733,0.657,1.5,1.079,2.159"/>
	<path fill="none" stroke="#000000" stroke-width="1.5263" stroke-linecap="round" d="M265.261,228.973
		c0.4,1.038,0.558,2.321,1.079,3.238"/>
	<path fill="none" stroke="#000000" stroke-width="1.9985" stroke-linecap="round" d="M290.085,225.196
		c0.723-2.457,1.275-4.956,1.08-7.555"/>
	<path fill="none" stroke="#000000" stroke-width="1.3219" stroke-linecap="round" d="M291.164,217.641
		c-4.411,0.853-8.324,4.56-11.333,7.555"/>
	<path fill="none" stroke="#000000" stroke-width="1.3934" stroke-linecap="round" d="M236.12,156.661
		c0.732,0.347,1.5,0.657,2.159,1.08"/>
	<path fill="none" stroke="#000000" stroke-width="1.3519" stroke-linecap="round" d="M238.279,157.74
		c1.649-0.792,2.75-2.278,4.019-3.536c9.101-2.714,15.521,7.253,24.043,4.615"/>
	<path fill="none" stroke="#000000" stroke-width="1.5263" stroke-linecap="round" d="M236.12,159.899
		c1.022-0.417,1.505-1.373,2.159-2.157"/>
	<path fill="none" stroke="#000000" stroke-width="1.8344" stroke-linecap="round" d="M226.406,196.055
		c-0.683-1.429-0.093-3.691-2.158-4.047"/>
	<path fill="none" stroke="#000000" stroke-width="1.448" stroke-linecap="round" d="M307.893,197.135
		c1.01-1.479,1.007-2.945,0.743-3.988c-0.619-0.166-1.485-0.25-2.362-0.33"/>
	<path fill="none" stroke="#000000" stroke-width="3.0906" stroke-linecap="round" d="M306.274,192.817
		c-0.378,1.079-0.412,2.159-0.54,3.238"/>
	<path fill="none" stroke="#000000" stroke-width="3.0527" stroke-linecap="round" d="M309.512,198.753
		c-0.54-0.54-1.079-1.079-1.619-1.619"/>
	<path fill="none" stroke="#000000" stroke-width="2.8555" stroke-linecap="round" d="M307.893,197.135
		c-0.721-0.36-1.439-0.72-2.159-1.08"/>
	<path fill="none" stroke="#000000" stroke-width="1.6368" stroke-linecap="round" d="M305.735,196.055
		c-1.663,3.123-4.063,5.733-4.857,9.174"/>
	<path fill="none" stroke="#000000" stroke-width="3.6601" stroke-linecap="round" d="M309.512,200.102
		c-0.142,0.277-0.34,0.808-0.54,1.35"/>
	<path fill="none" stroke="#000000" stroke-width="2.4134" stroke-linecap="round" d="M308.972,201.451
		c0.18,0.359,0.359,0.72,0.54,1.079"/>
	<path fill="none" stroke="#000000" stroke-width="1.4808" stroke-linecap="round" d="M308.972,201.451
		c-2.799,1.141-5.124,3.09-8.096,3.776"/>
	<path fill="none" stroke="#000000" stroke-width="1.2067" stroke-linecap="round" d="M296.021,212.244
		c0.536,0.902,1.04,1.838,1.619,2.697"/>
	<path fill="none" stroke="#000000" stroke-width="1.3219" stroke-linecap="round" d="M292.243,211.705
		c0.953,0.485,2.413,0.465,3.777,0.54"/>
	<path fill="none" stroke="#000000" stroke-width="1.6189" stroke-linecap="round" d="M296.021,212.244
		c0.192-0.887,0.421-1.737,0.54-2.698"/>
	<path fill="none" stroke="#000000" stroke-width="2.7517" stroke-linecap="round" d="M292.064,226.995
		c0.6-0.601,1.199-1.199,1.799-1.8"/>
	<path fill="none" stroke="#000000" stroke-width="2.1884" stroke-linecap="round" d="M293.863,225.196
		c0.345-1.125,0.436-1.9,0.684-2.633c0.607-0.359,1.634-0.957,2.555-1.685"/>
	
		<line fill="none" stroke="#000000" stroke-width="3.0527" stroke-linecap="round" x1="297.1" y1="220.879" x2="297.1" y2="220.879"/>
	<path fill="none" stroke="#000000" stroke-width="2.2895" stroke-linecap="round" d="M297.1,220.879
		c0.819-1.866,0.433-3.961,0.54-5.937"/>
	<path fill="none" stroke="#000000" stroke-width="1.6089" stroke-linecap="round" d="M290.984,212.604
		c1.162,1.453,0.656,3.437,0.18,5.037"/>
	<path fill="none" stroke="#000000" stroke-width="3.413" stroke-linecap="round" d="M260.135,218.99
		c0.09,0.271,0.18,0.54,0.27,0.811"/>
	<path fill="none" stroke="#000000" stroke-width="1.806" stroke-linecap="round" d="M293.863,225.196
		c1.358,0.556,2.619,0.025,3.777-0.54"/>
	<path fill="none" stroke="#000000" stroke-width="2.2895" stroke-linecap="round" d="M297.64,224.656
		c0.085-0.952-0.093-2.411-0.54-3.776"/>
	<path fill="none" stroke="#000000" stroke-width="1.3934" stroke-linecap="round" d="M262.563,227.354
		c0.654-0.063,1.141-0.298,1.619-0.54"/>
	<path fill="none" stroke="#000000" stroke-width="1.8694" stroke-linecap="round" d="M261.484,223.037
		c-0.531,1.271-0.527,3.859,1.079,4.316"/>
	<path fill="none" stroke="#000000" stroke-width="1.5372" stroke-linecap="round" d="M279.112,231.312
		c0.041,0.135,0.081,0.271,0.122,0.406c-2.249,4.729-5.87,9.019-9.477,12.545"/>
	<path fill="none" stroke="#000000" stroke-width="1.6593" stroke-linecap="round" d="M282.71,252.538
		c-0.261-1.87,1.596-3.229,2.52-4.679"/>
	<path fill="none" stroke="#000000" stroke-width="2.7727" stroke-linecap="round" d="M291.704,250.02
		c2.127-7.431,3.585-15.632,0.36-23.024"/>
	<path fill="none" stroke="#000000" stroke-width="2.09" stroke-linecap="round" d="M292.064,226.995
		c-0.651-0.094-1.601-1.063-1.979-1.8"/>
	<path fill="none" stroke="#000000" stroke-width="1.4913" stroke-linecap="round" d="M290.085,225.196
		c-4.788-0.896-7.738,3.473-10.973,6.116"/>
	<path fill="none" stroke="#000000" stroke-width="1.3934" stroke-linecap="round" d="M263.103,230.052
		c0.731-0.347,1.5-0.658,2.158-1.079"/>
	<path fill="none" stroke="#000000" stroke-width="1.3219" stroke-linecap="round" d="M262.563,227.354
		c-0.032,1.111,0.247,1.913,0.54,2.698"/>
	<path fill="none" stroke="#000000" stroke-width="1.8694" stroke-linecap="round" d="M263.103,230.052
		c0.029,0.773,0.457,2.137,1.079,3.238"/>
	<path fill="none" stroke="#000000" stroke-width="1.7286" stroke-linecap="round" d="M279.112,231.312
		c-3.917,0.172-7.415,2.162-11.512,2.159"/>
	<path fill="none" stroke="#000000" stroke-width="2.0882" stroke-linecap="round" d="M269.848,265.669
		c1.062-6.896,1.326-14.491-0.091-21.406"/>
	<path fill="none" stroke="#000000" stroke-width="1.6424" stroke-linecap="round" d="M269.758,244.263
		c-0.526-3.573-2.28-7.093-2.157-10.792"/>
	<path fill="none" stroke="#000000" stroke-width="1.8694" stroke-linecap="round" d="M267.6,233.47
		c-0.42-0.42-0.839-0.839-1.26-1.259"/>
	<path fill="none" stroke="#000000" stroke-width="1.3934" stroke-linecap="round" d="M266.341,232.211
		c-0.732,0.347-1.5,0.658-2.158,1.08"/>
	<path fill="none" stroke="#000000" stroke-width="1.5904" stroke-linecap="round" d="M245.294,255.416
		c-0.878-2.034-2.54-3.418-4.677-3.958"/>
	<path fill="none" stroke="#000000" stroke-width="3.2379" stroke-linecap="round" d="M246.374,255.776
		c0.655-0.261,1.142-0.579,1.619-0.898"/>
	<path fill="none" stroke="#000000" stroke-width="2.0294" stroke-linecap="round" d="M247.992,254.876
		c0.225-2.602-1.213-4.924-1.242-7.497c-0.89-0.551-1.773-0.938-2.518-1.09c-0.578,0.101-1.278,0.447-1.897,0.787
		c-0.705,1.25-1.678,2.479-1.799,3.958c0.027,0.142,0.054,0.282,0.081,0.424"/>
	<path fill="none" stroke="#000000" stroke-width="1.612" stroke-linecap="round" d="M218.852,295.889
		c-1.135-2.781-3.98-4.4-4.317-7.555"/>
	<path fill="none" stroke="#000000" stroke-width="1.3758" stroke-linecap="round" d="M214.534,288.334
		c-1.708-0.765-2.623-2.487-4.317-3.237"/>
	<path fill="none" stroke="#000000" stroke-width="1.3395" stroke-linecap="round" d="M201.403,309.021
		c6.224-3.864,12.095-8.102,17.449-13.132"/>
	<path fill="none" stroke="#000000" stroke-width="1.6778" stroke-linecap="round" d="M240.617,332.765
		c6.599,0.794,13.194-0.108,19.787-0.72"/>
	<path fill="none" stroke="#000000" stroke-width="1.4988" stroke-linecap="round" d="M260.405,332.045
		c11.691-4.361,23.718-9.104,36.156-11.332"/>
	<path fill="none" stroke="#000000" stroke-width="1.55" stroke-linecap="round" d="M296.561,320.713
		c2.434-1.083,4.828-1.866,7.555-2.158"/>
	<path fill="none" stroke="#000000" stroke-width="1.9457" stroke-linecap="round" d="M304.115,318.555
		c0.813-0.746,1.245-1.371,1.66-1.989c-0.122-2.541-0.683-4.985-0.76-7.545"/>
	<path fill="none" stroke="#000000" stroke-width="2.0351" stroke-linecap="round" d="M305.015,309.021
		c-1.739-0.365-2.152-2.819-1.8-4.317"/>
	<path fill="none" stroke="#000000" stroke-width="1.9057" stroke-linecap="round" d="M303.216,304.702
		c-5.445-5.801-7.349-14.267-12.879-19.843c-1.557-11.654,2.02-23.398,1.367-34.841"/>
	<path fill="none" stroke="#000000" stroke-width="1.9808" stroke-linecap="round" d="M291.704,250.02
		c-2.358,2.313-5.738,3.172-8.994,2.52"/>
	<path fill="none" stroke="#000000" stroke-width="1.4175" stroke-linecap="round" d="M282.71,252.538
		c-5.468,3.158-7.089,10.738-12.86,13.131"/>
	<path fill="none" stroke="#000000" stroke-width="1.7814" stroke-linecap="round" d="M269.848,265.669
		c-0.958,3.775-0.147,8.741-3.421,11.434c-0.53-0.006-0.976-0.21-1.415-0.424c-0.18-1.316-0.754-2.006-1.37-2.375"/>
	<path fill="none" stroke="#000000" stroke-width="1.8908" stroke-linecap="round" d="M256.087,291.573
		c0.18-0.056,0.357-0.11,0.535-0.167c3.033-4.321,4.462-9.954,2.163-14.942"/>
	<path fill="none" stroke="#000000" stroke-width="2.0116" stroke-linecap="round" d="M258.785,276.462
		c-0.236,0.128-0.473,0.257-0.709,0.386c-1.072,0.146-1.691-0.135-2.145-0.439c1.456-5.637-0.274-11.715,1.773-17.215"/>
	<path fill="none" stroke="#000000" stroke-width="1.8694" stroke-linecap="round" d="M257.706,259.194
		c-0.662-1.309-1.01-2.32-1.08-3.237"/>
	<path fill="none" stroke="#000000" stroke-width="1.6867" stroke-linecap="round" d="M236.66,271.606
		c1.393,8.067,10.201,9.037,16.849,7.459c0.545,0.432,0.71,0.794,0.857,1.153c-0.068,1.057-0.96,2.084-1.767,3.005
		c-0.936,0.127-1.799,0.528-2.627,0.976"/>
	<path fill="none" stroke="#000000" stroke-width="1.6189" stroke-linecap="round" d="M257.706,259.194
		c1.03-0.493,1.913-0.873,2.698-1.079"/>
	<path fill="none" stroke="#000000" stroke-width="1.7065" stroke-linecap="round" d="M260.405,258.115
		c-0.061-2.495-0.504-3.31-0.72-4.138"/>
	<path fill="none" stroke="#000000" stroke-width="1.806" stroke-linecap="round" d="M202.123,260.813
		c1.031,2.021,1.688,2.465,3.238,3.237"/>
	<path fill="none" stroke="#000000" stroke-width="1.6909" stroke-linecap="round" d="M205.361,264.05
		c0.97-1.615,1.498-3.365,2.698-4.856"/>
	<path fill="none" stroke="#000000" stroke-width="1.5607" stroke-linecap="round" d="M258.785,276.462
		c1.838-0.298,3.074-1.703,4.857-2.158"/>
	<path fill="none" stroke="#000000" stroke-width="1.7587" stroke-linecap="round" d="M263.642,274.304
		c-1.022-5.304-2.095-10.948-3.238-16.189"/>
	<path fill="none" stroke="#000000" stroke-width="1.4338" stroke-linecap="round" d="M199.964,275.922
		c1.622,1.35,2.711,1.853,4.002,2.472c0.172,2.572,2.596,4.535,5.173,4.005"/>
	<path fill="none" stroke="#000000" stroke-width="2.0409" stroke-linecap="round" d="M209.138,282.399
		c-1.117-6.146-2.501-12.242-3.777-18.349"/>
	<path fill="none" stroke="#000000" stroke-width="1.3219" stroke-linecap="round" d="M225.327,272.145
		c3.575-1.147,7.588-0.253,11.333-0.539"/>
	<path fill="none" stroke="#000000" stroke-width="1.6951" stroke-linecap="round" d="M236.66,271.606
		c-0.212-3.266,2.044-5.863,2.698-8.903"/>
	<path fill="none" stroke="#000000" stroke-width="1.5263" stroke-linecap="round" d="M218.852,295.889
		c2.534,2.778,5.602,5.493,9.443,6.477"/>
	<path fill="none" stroke="#000000" stroke-width="1.744" stroke-linecap="round" d="M228.296,302.365
		c-0.432-7.55,3.353-13.284,11.603-12.411"/>
	<path fill="none" stroke="#000000" stroke-width="1.5263" stroke-linecap="round" d="M239.898,289.953
		c-0.359-0.36-0.719-0.721-1.079-1.079"/>
	<path fill="none" stroke="#000000" stroke-width="2.4996" stroke-linecap="round" d="M239.898,289.953
		c2.994,4.016,8.863,3.834,11.333,8.095"/>
	<path fill="none" stroke="#000000" stroke-width="1.3137" stroke-linecap="round" d="M251.23,298.048
		c1.098,0.341,2.175,0.703,2.921,1.396c0.995,0.21,1.906,0.095,2.698-0.105c0.354-0.357,0.75-0.68,1.147-0.999
		c0.228-0.978,0.113-1.886-0.083-2.673c-0.964-0.773-1.724-1.789-1.828-4.093"/>
	<path fill="none" stroke="#000000" stroke-width="1.4746" stroke-linecap="round" d="M256.087,291.573
		c-3.438-0.964-4.797-4.437-6.115-7.375"/>
	<path fill="none" stroke="#000000" stroke-width="1.3616" stroke-linecap="round" d="M249.971,284.198
		c-4.663-1.057-9.147-2.828-13.313-5.036"/>
	<path fill="none" stroke="#000000" stroke-width="1.4278" stroke-linecap="round" d="M196.726,285.097
		c4.321,0.611,9.346,1.275,13.49,0"/>
	<path fill="none" stroke="#000000" stroke-width="2.1039" stroke-linecap="round" d="M210.218,285.097
		c-0.017-0.729-0.814-1.848-1.079-2.698"/>
	<path fill="none" stroke="#000000" stroke-width="1.672" stroke-linecap="round" d="M228.296,302.365
		c1.523,4.061,1.344,8.827,4.121,12.339c0.727,0.712,1.634,1.243,2.319,1.997c6.557,1.209,15.804-0.325,16.449-8.382
		c-0.096-3.326-2.255-7.359,0.046-10.271"/>
	<path fill="none" stroke="#000000" stroke-width="1.353" stroke-linecap="round" d="M305.015,309.021
		c0.888-1.302,1.628-2.291,2.338-3.418"/>
	<path fill="none" stroke="#000000" stroke-width="1.682" stroke-linecap="round" d="M307.353,305.603
		c-1.293-0.446-2.754-1.021-4.138-0.899"/>
	<path fill="none" stroke="#000000" stroke-width="1.8694" stroke-linecap="round" d="M206.979,314.238
		c-0.359-0.359-0.719-0.72-1.079-1.079"/>
	<path fill="none" stroke="#000000" stroke-width="1.5263" stroke-linecap="round" d="M205.9,313.157
		c-1.278,0.565-1.864,1.806-2.159,2.698"/>
	<path fill="none" stroke="#000000" stroke-width="1.4506" stroke-linecap="round" d="M190.79,322.87
		c4.895,1.905,10.313-2.87,13.131-6.654"/>
	<path fill="none" stroke="#000000" stroke-width="2.4134" stroke-linecap="round" d="M203.922,316.216
		c-0.06-0.12-0.119-0.24-0.18-0.359"/>
	<path fill="none" stroke="#000000" stroke-width="1.3934" stroke-linecap="round" d="M296.561,320.713
		c0.346,0.731,0.658,1.5,1.079,2.157"/>
	<path fill="none" stroke="#000000" stroke-width="1.3314" stroke-linecap="round" d="M297.64,322.87
		c5.939-0.817,7.2,5.729,11.333,8.096"/>
	<path fill="none" stroke="#000000" stroke-width="1.6089" stroke-linecap="round" d="M308.972,330.966
		c1.681,0.448,3.258-0.704,4.856-0.271"/>
	<path fill="none" stroke="#000000" stroke-width="1.6881" stroke-linecap="round" d="M313.829,330.697
		c0.177-0.062,0.354-0.123,0.532-0.185c1.114-0.003,1.979,1.229,2.729,1.712c1.507,0.044,3.229-1.021,4.54,0.137
		c0.247,1.172,1.013,1.847,1.619,2.677c2.97-0.486,4.889,1.373,7.553,2.104c0.403,4.104-0.287,8.587-2.402,12.174"/>
	<path fill="none" stroke="#000000" stroke-width="1.6445" stroke-linecap="round" d="M260.405,332.045
		c1.266,9.775-0.319,28.323,6.725,35.367c1.094,1.094,3.095,2.434,4.324,3.23c3.128,2.029,7.677,4.412,14.531,3.171
		c3.313-2.928,5.99-6.33,9.756-8.592c3.063-6.177,9.398-11.499,8.375-19.146"/>
	<path fill="none" stroke="#000000" stroke-width="2.1039" stroke-linecap="round" d="M304.115,346.075
		c-0.621-1.029-0.948-1.913-1.079-2.697"/>
	<path fill="none" stroke="#000000" stroke-width="1.6189" stroke-linecap="round" d="M303.036,343.378
		c-0.495-0.987-0.874-1.959-1.08-2.969"/>
	<path fill="none" stroke="#000000" stroke-width="1.8243" stroke-linecap="round" d="M301.957,340.409
		c-1.532-0.646-2.76-1.81-4.316-2.429"/>
	<path fill="none" stroke="#000000" stroke-width="1.9025" stroke-linecap="round" d="M297.64,337.982
		c-1.927,4.881-1.012,10.462-1.619,15.649"/>
	<path fill="none" stroke="#000000" stroke-width="1.6189" stroke-linecap="round" d="M303.036,343.378
		c0.732-0.348,1.5-0.658,2.159-1.079"/>
	<path fill="none" stroke="#000000" stroke-width="1.7373" stroke-linecap="round" d="M305.195,342.299
		c3.013-2.79,3.705-7.271,3.777-11.333"/>
	<path fill="none" stroke="#000000" stroke-width="1.448" stroke-linecap="round" d="M297.64,322.87
		c-0.947,1.813-0.577,4.063,0,5.938"/>
	<path fill="none" stroke="#000000" stroke-width="1.6223" stroke-linecap="round" d="M301.957,340.409
		c0.184-0.06,0.365-0.118,0.547-0.179c3.989-3.129,2.836-8.704-1.32-11.183c-0.896-0.158-2.222-0.189-3.543-0.241"/>
	<path fill="none" stroke="#000000" stroke-width="2.2895" stroke-linecap="round" d="M297.64,328.808c0,3.058,0,6.116,0,9.174"/>
	<path fill="none" stroke="#000000" stroke-width="1.9564" stroke-linecap="round" d="M310.322,343.378
		c0.306-1.467,0.471-3.053,1.349-4.317"/>
	<path fill="none" stroke="#000000" stroke-width="2.1586" stroke-linecap="round" d="M311.671,339.061
		c-0.171-0.944,0.185-2.005,1.079-3.237"/>
	<path fill="none" stroke="#000000" stroke-width="1.3934" stroke-linecap="round" d="M312.75,335.823
		c0.348-0.732,0.658-1.501,1.08-2.159"/>
	<path fill="none" stroke="#000000" stroke-width="1.4833" stroke-linecap="round" d="M324.082,349.315
		c0.688-1.166,1.352-1.651,2.234-2.059c0.633,0.256,1.261,1.256,2.083,2.059"/>
	<path fill="none" stroke="#000000" stroke-width="2.2639" stroke-linecap="round" d="M313.829,330.697c0,1.3,0,2.118,0,2.968"/>
	<path fill="none" stroke="#000000" stroke-width="1.7065" stroke-linecap="round" d="M313.829,333.663
		c2.234,1.891,4.762,2.916,6.767,5.106c0.758,2.691,1.328,5.676,0.249,8.385"/>
	<path fill="none" stroke="#000000" stroke-width="1.2463" stroke-linecap="round" d="M311.671,339.061
		c2.068,1.087,2.772,3.662,2.698,5.937"/>
	<path fill="none" stroke="#000000" stroke-width="2.0192" stroke-linecap="round" d="M314.369,344.996
		c1.101,0.715,1.994,1.152,2.878,1.8"/>
	<path fill="none" stroke="#000000" stroke-width="2.3148" stroke-linecap="round" d="M317.247,346.796
		c0.791-0.248,2.257-0.063,3.599,0.358"/>
	<path fill="none" stroke="#000000" stroke-width="1.3652" stroke-linecap="round" d="M312.75,335.823
		c2.156,1.05,3.422,3.067,4.857,4.856"/>
	<path fill="none" stroke="#000000" stroke-width="1.9828" stroke-linecap="round" d="M310.322,346.615
		c0.736,2.179-0.461,4.797,1.106,6.729c0.91,0.16,1.68,0.47,2.401,0.825"/>
	<path fill="none" stroke="#000000" stroke-width="2.2467" stroke-linecap="round" d="M313.829,354.171c0.36,0,0.719,0,1.079,0"/>
	<path fill="none" stroke="#000000" stroke-width="1.6008" stroke-linecap="round" d="M314.908,354.171
		c0.295-0.916,1.087-2.035,2.338-3.418"/>
	<path fill="none" stroke="#000000" stroke-width="2.3076" stroke-linecap="round" d="M317.247,350.753
		c-0.21-1.077-0.185-3.051,0-3.957"/>
	<path fill="none" stroke="#000000" stroke-width="2.7304" stroke-linecap="round" d="M314.369,344.996
		c-0.295,0.721-0.421,1.438-0.54,2.158"/>
	<path fill="none" stroke="#000000" stroke-width="1.9037" stroke-linecap="round" d="M304.115,346.075
		c2.122-0.188,4.061,0.886,6.206,0.54"/>
	<path fill="none" stroke="#000000" stroke-width="2.3148" stroke-linecap="round" d="M310.322,346.615
		c0.286-1.039,0.187-2.32,0-3.237"/>
	<path fill="none" stroke="#000000" stroke-width="1.4391" stroke-linecap="round" d="M310.322,343.378
		c-1.072,0.385-3.003,0.693-4.258,0.202c-0.234-0.479-0.549-0.884-0.868-1.281"/>
	<path fill="none" stroke="#000000" stroke-width="2.3434" stroke-linecap="round" d="M317.247,350.753
		c0.852,0.63,2.821-0.768,4.245-2.088"/>
	<path fill="none" stroke="#000000" stroke-width="3.6601" stroke-linecap="round" d="M321.492,348.665
		c-0.2-0.364-0.423-0.933-0.646-1.511"/>
	<path fill="none" stroke="#000000" stroke-width="3.2379" stroke-linecap="round" d="M328.4,350.394c0-0.36,0-0.72,0-1.079"/>
	<path fill="none" stroke="#000000" stroke-width="1.612" stroke-linecap="round" d="M313.829,354.171
		c-0.756,1.422-0.228,2.954,0.563,3.181c1.013-0.201,1.054-2.131,0.516-3.181"/>
	<path fill="none" stroke="#000000" stroke-width="1.2951" stroke-linecap="round" d="M219.391,235.989
		c-0.726-1.109-1.07-1.911-1.619-2.697"/>
</g>
</svg>
