<?xml version="1.0" encoding="utf-8"?>
<!-- Generator: Adobe Illustrator 14.0.0, SVG Export Plug-In . SVG Version: 6.00 Build 43363)  -->
<!DOCTYPE svg PUBLIC "-//W3C//DTD SVG 1.1//EN" "http://www.w3.org/Graphics/SVG/1.1/DTD/svg11.dtd">
<svg version="1.1" id="图层_1" xmlns="http://www.w3.org/2000/svg" xmlns:xlink="http://www.w3.org/1999/xlink" x="0px" y="0px"
	 width="848px" height="480px" viewBox="0 0 848 480" enable-background="new 0 0 848 480" xml:space="preserve">
<g>
	<path fill="none" stroke="#000000" stroke-width="1.6103" stroke-linecap="round" d="M446.375,104.909
		c0.123,0.038,0.247,0.076,0.371,0.115c1.165,1.843,1.525,4.437,2.29,6.473c0.057,0.147,0.493,0.148,0.532,0.312
		c0.693,2.832,0.799,6.041,0.318,9.208c-0.619,0.544-1.143,0.706-1.61,0.915c-0.241-2.573-1.997-4.519-2.275-6.909"/>
	<path fill="none" stroke="#000000" stroke-width="1.0594" stroke-linecap="round" d="M460.607,124.01
		c-1.65-0.665-4.166-3.217-5.53-1.42c1.611,1.543,3.007,3.204,4.781,4.417"/>
	<path fill="none" stroke="#000000" stroke-width="1.005" stroke-linecap="round" d="M454.24,260.718
		c2.396-1.955,5.21-3.307,7.865-4.869"/>
	<path fill="none" stroke="#000000" stroke-width="0.9639" stroke-linecap="round" d="M441.132,309.032
		c0.248-0.002,0.495-0.004,0.743-0.006c1.301-0.597,2.138-1.861,3.175-2.816c4.021-1.624,7.48-4.933,11.063-6.915"/>
	<path fill="none" stroke="#000000" stroke-width="1.0667" stroke-linecap="round" d="M451.243,311.281
		c-0.706-4.29,5.054-4.936,6.367-8.239"/>
	<path fill="none" stroke="#000000" stroke-width="1.0164" stroke-linecap="round" d="M411.168,347.237
		c3.905-0.731,7.5-3.916,11.492-3.795c-0.039,0.73-0.438,1.659-1.005,2.297"/>
	<path fill="none" stroke="#000000" stroke-width="1.204" stroke-linecap="round" d="M471.469,384.691
		c1.215,0.726,1.939,2.281,1.873,3.746"/>
	<path fill="none" stroke="#000000" stroke-width="1.2213" stroke-linecap="round" d="M435.887,141.24
		c2.435-5.732,5.105-11.082,9.156-15.572c1.29-0.315,2.106,1.075,1.821,1.865c-0.347,0.16-0.54,0.385-0.726,0.611
		c-2.035,3.191-3.029,6.987-4.635,10.101"/>
	<path fill="none" stroke="#000000" stroke-width="2.0514" stroke-linecap="round" d="M465.101,100.04
		c0.006-0.999,0.283-1.998,0.375-2.996"/>
	<path fill="none" stroke="#000000" stroke-width="1.6264" stroke-linecap="round" d="M467.348,118.018
		c0.778-0.343,1.386-0.605,2.247-0.749"/>
	<path fill="none" stroke="#000000" stroke-width="1.6182" stroke-linecap="round" d="M469.595,130.003
		c0.796,0.245,1.251,0.346,1.659,0.537c0.114,0.211,0.166,0.582,0.214,0.961"/>
	<path fill="none" stroke="#000000" stroke-width="2.145" stroke-linecap="round" d="M469.595,140.49
		c-0.021,0.749,0.172,1.498,0.375,2.247"/>
	<path fill="none" stroke="#000000" stroke-width="1.19" stroke-linecap="round" d="M444.128,167.457
		c1.236,1.021,2.851,1.388,4.602,2.141c0.605,0.261,1.445-0.009,2.024,0.223c2.933,1.175,3.094,2.018,0.22,5.99
		c-0.06,1.146,0.271,1.77,0.271,3.07"/>
	<path fill="none" stroke="#000000" stroke-width="1.2082" stroke-linecap="round" d="M451.243,178.881
		c1.708,0.676,6.996,1.667,8.255,4.032c1.365,2.564,1.896,6.229,2.993,9.966c0.063,0.21,0.477,0.322,0.539,0.539
		c0.225,0.752,0.199,2.145,0.373,2.663c0.046,0.14,0.524,0.137,0.597,0.308c0.892,2.132,1.584,5.309,2.265,7.248
		c0.049,0.14,0.48,0.164,0.539,0.31c0.227,0.576,0.173,1.459,0.345,1.876c0.053,0.128,0.537,0.141,0.597,0.305
		c0.976,2.705,1.789,5.309,3.008,7.254c0.101,0.16,0.476,0.132,0.546,0.309c1.497,3.789,2.308,8.705,2.605,11.073"/>
	<path fill="none" stroke="#000000" stroke-width="1.2002" stroke-linecap="round" d="M473.903,224.762
		c9.229,1.685,12.61,15.825,5.058,21.349"/>
	<path fill="none" stroke="#000000" stroke-width="1.2974" stroke-linecap="round" d="M478.961,246.111
		c-0.055,4.504,2.418,10.687-4.12,11.611"/>
	<path fill="none" stroke="#000000" stroke-width="1.1663" stroke-linecap="round" d="M474.841,257.722
		c-1.105,3.659-4.087,7.259-8.115,7.49"/>
	<path fill="none" stroke="#000000" stroke-width="1.6768" stroke-linecap="round" d="M466.724,265.212
		c-2.204,4.933-1.469,12.015-1.999,18.981c-0.117,1.533-0.782,3.114-0.971,4.614c-0.486,3.873,0.083,7.624-0.646,11.241
		c-0.421,2.093-1.875,4.218-2.391,6.1c-1.919,7-3.083,13.923-1.817,21.02c1.711,0.912,1.538,3.435,0.868,5.01
		c-1.011,0.404-1.055,1.402-1.409,2.324"/>
	<path fill="none" stroke="#000000" stroke-width="1.5282" stroke-linecap="round" d="M458.36,334.502
		c0.444,1.004,0.397,2.607,0.2,3.146c-3.83,3.034,0.163,7.956-0.2,11.836"/>
	<path fill="none" stroke="#000000" stroke-width="1.3528" stroke-linecap="round" d="M458.36,349.485
		c0.418,0.726,0.752,0.871,1.127,1.202c0.881,1.663,1.169,3.309,0.282,4.713c-0.422,0.669-2.251,1.085-2.452,3.412
		c-0.066,0.782-0.069,2.022,0.265,3.442c0.232,0.989,1.437,4.35,1.923,4.175c1.424,2.393-2.166,3.206-3.018,4.777"/>
	<path fill="none" stroke="#000000" stroke-width="1.3902" stroke-linecap="round" d="M456.487,371.206
		c0.159,1.203-0.765,2.194-0.749,3.371"/>
	<path fill="none" stroke="#000000" stroke-width="1.1636" stroke-linecap="round" d="M455.738,374.577
		c5.446,3.271,10.859,6.751,17.079,7.528c0.063,0.009,0.089,0.309,0.149,0.337"/>
	<path fill="none" stroke="#000000" stroke-width="1.233" stroke-linecap="round" d="M428.022,162.588
		c-5.825-3.896-12.062-6.884-17.983-10.588c-3.241-6.14-9.967-2.933-14.805-1.58c-0.211-1.438,1.415-2.44,1.902-3.743
		c0.713-0.346,0.864-0.817,0.859-1.263c-3.729-1.795-7.98,0.469-11.922-0.66c0.121-1.84,2.359-2.561,2.959-4.189
		c-1.332-3.247-6.021-1.606-7.82-4.185c2.278-1.725,5.876-1.924,8.178-4.188c0.217-0.231,0.321-0.443,0.422-0.653
		c0.288-0.264,0.596-0.694,0.786-1.123c0.007-0.272-0.063-0.53-0.137-0.787c-0.659-0.273-1.561-0.376-1.886-0.792
		c0.03-0.31,0.184-0.602,0.341-0.892c1.727-1.898,4.252-3.451,5.208-5.996"/>
	<path fill="none" stroke="#000000" stroke-width="1.9098" stroke-linecap="round" d="M394.126,121.95
		c-0.57-0.352-1.125-0.632-1.685-0.937"/>
	<path fill="none" stroke="#000000" stroke-width="2.1187" stroke-linecap="round" d="M392.441,121.014
		c-0.333,0.167-0.666,0.333-0.999,0.499"/>
	<path fill="none" stroke="#000000" stroke-width="1.1994" stroke-linecap="round" d="M392.441,121.014
		c1.315-3.443,6.361-4.08,7.802-7.061c-1.496-0.902-3.896,0.005-5.112-1.341c0.143-0.453,0.321-0.79,0.502-1.118
		c1.441-1.547,4.47-0.86,5.048-3.215"/>
	<path fill="none" stroke="#000000" stroke-width="1.1844" stroke-linecap="round" d="M400.68,108.28
		c-4.79-1.013-9.524,1.228-14.232,1.498"/>
	<path fill="none" stroke="#000000" stroke-width="1.0115" stroke-linecap="round" d="M386.448,109.778
		c-0.398,0.84-2.258,0.746-2.412,0.327c0.073-0.892,1.299-0.967,2.038-1.451"/>
	<path fill="none" stroke="#000000" stroke-width="1.085" stroke-linecap="round" d="M386.073,108.655
		c5.553-3.931,11.878-6.621,17.765-9.953c3.647-1.024,7.811-0.326,11.074-2.406"/>
	<path fill="none" stroke="#000000" stroke-width="0.865" stroke-linecap="round" d="M414.913,96.295
		c-1.298-0.712-2.167-1.827-2.996-2.997"/>
	<path fill="none" stroke="#000000" stroke-width="2.0239" stroke-linecap="round" d="M411.917,93.298
		c-1.279-0.621-2.546-1.091-3.371-1.124"/>
	<path fill="none" stroke="#000000" stroke-width="1.2376" stroke-linecap="round" d="M411.917,93.298
		c4.835-0.952,9.771,1.092,14.606,0.937"/>
	<path fill="none" stroke="#000000" stroke-width="1.0884" stroke-linecap="round" d="M426.523,94.235
		c-0.347-3.421-4.124-4.498-5.673-7.626c-0.359-0.274-0.639-0.387-0.892-0.585c-0.102-0.379-0.308-1.09-0.552-1.714"/>
	<path fill="none" stroke="#000000" stroke-width="1.5648" stroke-linecap="round" d="M419.407,84.309
		c-1.584-0.66-2.088-2.563-3.746-2.997"/>
	<path fill="none" stroke="#000000" stroke-width="1.0594" stroke-linecap="round" d="M419.407,84.309
		c1.25-0.227,2.434,0.323,3.165,1.333c3.179,1.417,6.271,3.146,8.982,5.241c0.622,0.109,1.542,0.131,2.46,0.167"/>
	<path fill="none" stroke="#000000" stroke-width="1.7568" stroke-linecap="round" d="M434.014,91.051
		c0.045-0.5,0.207-0.999,0.375-1.498"/>
	<path fill="none" stroke="#000000" stroke-width="1.6412" stroke-linecap="round" d="M434.389,89.553
		c-0.769-1.13-1.562-1.059-1.873-1.499"/>
	<path fill="none" stroke="#000000" stroke-width="1.4666" stroke-linecap="round" d="M434.389,89.553
		c1.284,0.897,1.896,1.085,2.996,0.749"/>
	<path fill="none" stroke="#000000" stroke-width="1.4652" stroke-linecap="round" d="M437.385,90.302
		c0.164-3.324-3.172-5.58-2.247-8.989"/>
	<path fill="none" stroke="#000000" stroke-width="2.0651" stroke-linecap="round" d="M435.138,81.313
		c-0.226-0.749-0.927-1.498-1.498-2.247"/>
	<path fill="none" stroke="#000000" stroke-width="1.2137" stroke-linecap="round" d="M436.261,257.722
		c-0.376,0.942-0.608,1.981-0.749,2.996"/>
	<path fill="none" stroke="#000000" stroke-width="1.4964" stroke-linecap="round" d="M435.512,260.718
		c1.032,0.97,2.489,1.467,3.229,2.717c0.221,6.722-2.032,13.19-3.152,19.715c-1.038,6.041-1.666,12.117-2.948,18.395"/>
	<path fill="none" stroke="#000000" stroke-width="1.3186" stroke-linecap="round" d="M428.585,349.11
		c0.04,0.127,0.081,0.253,0.124,0.38c1.461,1.407,4.512,1.617,8.262,1.792c6.693,0.312,13.84,0.751,19.67-0.527
		c0.301-0.626,0.933-0.841,1.721-1.27"/>
	<path fill="none" stroke="#000000" stroke-width="1.187" stroke-linecap="round" d="M458.36,334.502
		c-3.538,2.878-6.104,7.352-9.926,10.311c-0.146,0.112-0.408,0.075-0.563,0.177"/>
	<path fill="none" stroke="#000000" stroke-width="1.8157" stroke-linecap="round" d="M466.724,265.212
		c-0.245-3.416,1.469-6.542,0.156-9.363c-0.229-0.492-3.374-3.376-3.479-3.529c-0.424-1.748-0.144-3.566-0.116-5.348
		c0.043-0.162,0.087-0.324,0.131-0.486"/>
	<path fill="none" stroke="#000000" stroke-width="1.0533" stroke-linecap="round" d="M460.232,231.504
		c-9.616,3.196-19.023,7.01-29.214,8.24"/>
	<path fill="none" stroke="#000000" stroke-width="1.2926" stroke-linecap="round" d="M431.018,239.743
		c-1.224,4.149-1.081,8.092,0.787,11.833c0.077,0.154,0.464,0.153,0.539,0.314c0.671,1.435,1.468,3.03,1.795,4.207"/>
	<path fill="none" stroke="#000000" stroke-width="1.1844" stroke-linecap="round" d="M434.139,256.099
		c0.954,0.192,1.153,1.348,2.122,1.623"/>
	<path fill="none" stroke="#000000" stroke-width="1.0178" stroke-linecap="round" d="M436.261,257.722
		c5.946,1.54,11.379-1.134,16.854-2.622"/>
	<path fill="none" stroke="#000000" stroke-width="1.2232" stroke-linecap="round" d="M426.523,94.235
		c1.849,0.929,2.658,2.851,4.12,4.308"/>
	<path fill="none" stroke="#000000" stroke-width="1.589" stroke-linecap="round" d="M414.913,96.295
		c1.034,0.444,2.304,1.168,3.371,0.375"/>
	<path fill="none" stroke="#000000" stroke-width="2.01" stroke-linecap="round" d="M400.68,108.28
		c1.774,0.168,3.463-0.553,5.243-0.375"/>
	<path fill="none" stroke="#000000" stroke-width="1.6264" stroke-linecap="round" d="M394.126,121.95
		c1.081-0.399,1.729-0.765,2.81-0.937"/>
	<path fill="none" stroke="#000000" stroke-width="1.3743" stroke-linecap="round" d="M428.022,162.588
		c1.07-1.146,1.771-2.425,2.93-3.438c2.602-0.216,3.525,3.43,5.882,3.25c0.037-2.359,2.893-0.72,4.183-1.195
		c1.75-1.954,3.665-4.675,5.089-6.117c0.423-0.429,1.242-0.716,1.595-1.289c0.563-0.917,0.23-1.924,0.534-2.739
		c0.255-0.684,0.829-1.046,1.138-1.581"/>
	<path fill="none" stroke="#000000" stroke-width="1.675" stroke-linecap="round" d="M449.371,149.479
		c0.044-1.307,0.271-2.646,0.548-3.901c0.954-0.487,1.336-1.782,2.637-1.717"/>
	<path fill="none" stroke="#000000" stroke-width="1.481" stroke-linecap="round" d="M452.554,143.861
		c1.809-1.528,3.107-5.048,5.964-4.321c0.13,0.369,0.337,1.079,0.591,1.699"/>
	<path fill="none" stroke="#000000" stroke-width="1.4602" stroke-linecap="round" d="M459.109,141.24
		c2.039-0.261,1.966-2.813,3.959-3.104"/>
	<path fill="none" stroke="#000000" stroke-width="2.1187" stroke-linecap="round" d="M463.068,138.136
		c-0.072-0.441,0.04-0.915,0.16-1.391"/>
	<path fill="none" stroke="#000000" stroke-width="2.7009" stroke-linecap="round" d="M463.068,138.136
		c0.179,0.119,0.356,0.238,0.535,0.357"/>
	<path fill="none" stroke="#000000" stroke-width="1.4534" stroke-linecap="round" d="M463.603,138.493
		c1.011-0.672,2.026-0.9,2.884-0.866c1.165,0.899,1.575,2.394,3.108,2.864"/>
	<path fill="none" stroke="#000000" stroke-width="1.4982" stroke-linecap="round" d="M469.595,140.49
		c1.355-3.468-0.771-7.098,0-10.486"/>
	<path fill="none" stroke="#000000" stroke-width="1.4134" stroke-linecap="round" d="M469.595,130.003
		c1.047-4.034-2.839-6.6-4.993-9.239"/>
	<path fill="none" stroke="#000000" stroke-width="1.3578" stroke-linecap="round" d="M464.602,120.764
		c-0.742-0.047-1.45-0.346-2.497-0.5"/>
	<path fill="none" stroke="#000000" stroke-width="1.1167" stroke-linecap="round" d="M464.602,120.764
		c0.406-1.577,2.612-0.904,2.746-2.747"/>
	<path fill="none" stroke="#000000" stroke-width="1.5085" stroke-linecap="round" d="M467.348,118.018
		c-0.902-0.374-1.786,0.159-3.009-0.234c-0.411-1.136,0.199-2.212,0.602-2.919c2.548-4.487,2.582-9.959,0.16-14.824"/>
	<path fill="none" stroke="#000000" stroke-width="1.586" stroke-linecap="round" d="M465.101,100.04
		c-1.093,0.941-1.66,2.67-2.378,3.403c-0.742,0.026-1.52-0.631-1.962-1.264c-0.457-1.834-2.111-3.194-3.9-3.639"/>
	<path fill="none" stroke="#000000" stroke-width="1.6468" stroke-linecap="round" d="M456.861,98.542
		c-0.669,2.98,1.696,5.361,1.49,8.239c-0.426,0.999-0.65,1.997-0.741,2.996"/>
	<path fill="none" stroke="#000000" stroke-width="1.4825" stroke-linecap="round" d="M456.861,98.542
		c-0.327-1.16-1.024-2.089-1.668-3.061c-0.637-0.338-1.364-0.232-2.077-0.311"/>
	<path fill="none" stroke="#000000" stroke-width="1.2163" stroke-linecap="round" d="M453.116,95.171
		c0.035,1.473-0.411,1.989-0.779,2.22c-0.565-0.236-0.937-1.279-1.023-1.802c0.019-0.098,0.037-0.195,0.056-0.293"/>
	<path fill="none" stroke="#000000" stroke-width="1.1333" stroke-linecap="round" d="M451.368,95.296
		c-5.255-4.164-9.469-8.95-14.472-13.401c-0.409-0.119-1.124-0.331-1.758-0.582"/>
	<path fill="none" stroke="#000000" stroke-width="1.1774" stroke-linecap="round" d="M440.009,94.984
		c2.683,0.169,3.882,3.055,4.868,5.057"/>
	<path fill="none" stroke="#000000" stroke-width="1.3923" stroke-linecap="round" d="M440.009,94.984
		c-0.501-1.741-1.682-3.139-2.622-4.682"/>
	<path fill="none" stroke="#000000" stroke-width="1.1346" stroke-linecap="round" d="M434.014,91.051
		c1.044,2.332,3.349,4.292,5.993,3.933"/>
	<path fill="none" stroke="#000000" stroke-width="1.589" stroke-linecap="round" d="M453.116,95.171
		c-0.777-0.007-1.271,0.057-1.748,0.125"/>
	<path fill="none" stroke="#000000" stroke-width="0.9174" stroke-linecap="round" d="M386.448,109.778
		c-0.045-0.455-0.207-0.792-0.375-1.124"/>
	<path fill="none" stroke="#000000" stroke-width="1.3812" stroke-linecap="round" d="M428.022,162.588
		c-1.435,1.471-1.501,3.907-1.374,5.868"/>
	<path fill="none" stroke="#000000" stroke-width="1.4222" stroke-linecap="round" d="M426.648,168.456
		c5.579,0.125,11.183-0.592,16.729-0.999"/>
	<path fill="none" stroke="#000000" stroke-width="1.675" stroke-linecap="round" d="M443.379,167.457
		c-0.125-0.25-0.249-0.5-0.374-0.749"/>
	<path fill="none" stroke="#000000" stroke-width="2.3088" stroke-linecap="round" d="M443.379,167.457c0.25,0,0.5,0,0.749,0"/>
	<path fill="none" stroke="#000000" stroke-width="1.4074" stroke-linecap="round" d="M444.128,167.457
		c4.317-2.393,9.78-3.188,13.319-6.909c0.944-2.865,1.678-8.021,2.699-12.154c0.314-1.27,0.5-2.24,0.577-3.293
		c0.888-1.151,0.933-2.982,2.328-3.645c0.165-0.443,0.437-1.622,0.552-2.963"/>
	<path fill="none" stroke="#000000" stroke-width="1.1725" stroke-linecap="round" d="M451.243,150.603
		c-0.141,1.718,0.678,3.198,1.342,4.658c0.344,0.175,0.617,0.335,0.889,0.496c1.01,0.246,1.805-0.59,2.471-1.204
		c0.189-3.938-0.346-8.667,2.614-11.599c0.101-0.379,0.307-1.091,0.552-1.715"/>
	<path fill="none" stroke="#000000" stroke-width="1.4213" stroke-linecap="round" d="M449.371,149.479
		c0.771,0.503,1.327,0.743,1.872,1.124"/>
	<path fill="none" stroke="#000000" stroke-width="1.3226" stroke-linecap="round" d="M451.243,150.603
		c0.939-2.078,1.065-4.548,1.313-6.742"/>
	<path fill="none" stroke="#000000" stroke-width="1.34" stroke-linecap="round" d="M426.648,168.456
		c-2.969,2.04-7.589-0.316-10.357,2.401c1.39,2.869,2.402,4.576-0.472,8.595c-0.053,0.246-0.105,0.492-0.158,0.738"/>
	<path fill="none" stroke="#000000" stroke-width="1.1104" stroke-linecap="round" d="M415.662,180.192
		c9.715,5.377,19.886-0.358,29.965-0.749"/>
	<path fill="none" stroke="#000000" stroke-width="1.6972" stroke-linecap="round" d="M445.627,179.443
		c1.779-0.768,3.792-0.036,5.616-0.562"/>
	<path fill="none" stroke="#000000" stroke-width="1.7407" stroke-linecap="round" d="M415.662,180.192
		c-0.396,0.745-0.918,0.86-1.498,1.124"/>
	<path fill="none" stroke="#000000" stroke-width="1.4094" stroke-linecap="round" d="M414.164,181.315
		c-0.197,6.458-2.171,12.978-0.25,19.353"/>
	<path fill="none" stroke="#000000" stroke-width="1.3912" stroke-linecap="round" d="M413.914,200.667
		c0.443,0.068,0.872,0.155,1.174,0.292c2.097,5.654,4.965,11.73,6.756,17.782c-1.067,2.576-4.901,3.755-2.437,7.145"/>
	<path fill="none" stroke="#000000" stroke-width="1.2232" stroke-linecap="round" d="M419.407,225.885
		c0.5,0.41,0.999,0.585,1.498,0.749"/>
	<path fill="none" stroke="#000000" stroke-width="1.2974" stroke-linecap="round" d="M419.407,225.885
		c-1.056,1.233-0.759,3.609-2.497,4.245"/>
	<path fill="none" stroke="#000000" stroke-width="1.326" stroke-linecap="round" d="M416.91,230.131
		c-1.073,2.291-0.207,4.148,0.625,6.242"/>
	<path fill="none" stroke="#000000" stroke-width="0.9868" stroke-linecap="round" d="M417.535,236.373
		c4.549,0.879,8.719,3.186,13.483,3.371"/>
	<path fill="none" stroke="#000000" stroke-width="1.1" stroke-linecap="round" d="M460.232,221.017
		c-3.691,1.866-6.392,4.984-9.738,7.491"/>
	<path fill="none" stroke="#000000" stroke-width="1.4344" stroke-linecap="round" d="M451.805,197.795
		c0.153-0.375-0.028-0.749-0.188-1.124"/>
	<path fill="none" stroke="#000000" stroke-width="1.2361" stroke-linecap="round" d="M451.805,197.795
		c0.839,1.58,1.78,3.399,2.604,5.041c0.058,0.114,0.544,0.137,0.601,0.294c1.191,3.377,2.838,6.479,3.896,9.438
		c0.046,0.127,0.541,0.136,0.6,0.299c0.854,2.423,1.153,5.675,0.729,8.148"/>
	<path fill="none" stroke="#000000" stroke-width="1.3242" stroke-linecap="round" d="M460.232,221.017
		c1.421,1.914,2.267,4.549,2.436,6.929"/>
	<path fill="none" stroke="#000000" stroke-width="2.2472" stroke-linecap="round" d="M462.668,227.946
		c0.655,0.881,0.715,1.642,0.937,2.436"/>
	<path fill="none" stroke="#000000" stroke-width="1.1844" stroke-linecap="round" d="M463.603,230.38
		c0.464,0.184,0.779,0.312,1.089,0.437c0.37,0.77,0.343,1.778,0.409,2.561"/>
	<path fill="none" stroke="#000000" stroke-width="1.9792" stroke-linecap="round" d="M445.627,179.443
		c0.224,4.845-0.51,9.808,0.487,14.563c1.836,1.375,3.213,3.516,5.691,3.791"/>
	<path fill="none" stroke="#000000" stroke-width="1.2309" stroke-linecap="round" d="M398.433,231.878
		c1.872,0.44,2.969,2.003,4.494,2.997"/>
	<path fill="none" stroke="#000000" stroke-width="1.2255" stroke-linecap="round" d="M402.927,234.875
		c2.255-0.44,3.233-2.995,4.282-4.691c0.604-0.976,1.726-1.174,1.211-2.421c-1.068-0.626-2.358-1.021-2.872-2.251"/>
	<path fill="none" stroke="#000000" stroke-width="1.2464" stroke-linecap="round" d="M414.164,181.315
		c-2.408-0.229-5.241,2.347-7.286,5.79c-0.06,0.102-0.55,0.146-0.6,0.294c-1.062,3.181-1.979,6.835-3.887,10.928
		c-0.063,0.132-0.54,0.14-0.606,0.308c-0.869,2.178-1.417,4.351-2.682,6.2c-0.244,0.356-0.714,0.351-0.866,0.612
		c-1.51,2.604-3.088,4.904-4.529,7.343c-1.304,2.208-2.193,4.298-3.171,5.834c-0.141,0.222-0.696,1.22-1.662,2.206
		c-0.145,0.647-0.114,1.333-0.059,1.952c0.194,0.248,0.396,0.364,0.601,0.474c2.852,3,6.181,5.543,9.017,8.623"/>
	<path fill="none" stroke="#000000" stroke-width="1.3204" stroke-linecap="round" d="M405.55,225.511
		c4.54-3.163,8.646,1.254,11.361,4.62"/>
	<path fill="none" stroke="#000000" stroke-width="1.1712" stroke-linecap="round" d="M413.914,200.667
		c-1.677,1.351-2.125,3.341-3.292,5.161c-1.099,1.711-2.396,3.259-3.735,5.271c-1.574,2.364-3.254,5.896-5.097,7.02
		c-0.745,1.114-1.086,2.696-0.156,3.825c1.585,0.838,3.055,1.989,3.916,3.566"/>
	<path fill="none" stroke="#000000" stroke-width="1.2863" stroke-linecap="round" d="M395.25,240.493
		c-0.046,0.162-0.091,0.325-0.137,0.488c-0.063,0.698,0.2,1.323,0.528,1.938c3.903,1.782,7.601,5.431,12.155,4.314"/>
	<path fill="none" stroke="#000000" stroke-width="1.0594" stroke-linecap="round" d="M407.797,247.235
		c0.394-0.855,1.252-1.243,1.873-1.873"/>
	<path fill="none" stroke="#000000" stroke-width="1.317" stroke-linecap="round" d="M407.797,247.235
		c0.745,0.865,1.779,0.933,2.808,1.338c1.301,2.125,1.596,5.621,4.934,5.403"/>
	<path fill="none" stroke="#000000" stroke-width="1.9049" stroke-linecap="round" d="M415.537,253.976
		c-0.105-5.992-0.414-12.012,1.998-17.603"/>
	<path fill="none" stroke="#000000" stroke-width="1.3153" stroke-linecap="round" d="M473.842,240.368
		c-3.587,1.671-7.064-1.114-8.489-4.245"/>
	<path fill="none" stroke="#000000" stroke-width="1.1844" stroke-linecap="round" d="M465.351,236.123
		c-1.373-0.108-0.856-1.821-0.999-2.747"/>
	<path fill="none" stroke="#000000" stroke-width="1.4602" stroke-linecap="round" d="M462.668,227.946
		c-1.38,0.676-1.668,2.37-2.436,3.559"/>
	<path fill="none" stroke="#000000" stroke-width="1.3827" stroke-linecap="round" d="M460.232,231.504
		c0.893,3.591,1.729,7.272,2.622,10.862"/>
	<path fill="none" stroke="#000000" stroke-width="0.9174" stroke-linecap="round" d="M462.854,242.365
		c1.926,1.643,3.575,3.162,5.992,3.745"/>
	<path fill="none" stroke="#000000" stroke-width="1.2609" stroke-linecap="round" d="M462.854,242.365
		c-0.704,1.026-0.688,2.038-0.506,2.766c0.643,0.369,0.796,0.877,1.066,1.354"/>
	<path fill="none" stroke="#000000" stroke-width="1.0143" stroke-linecap="round" d="M463.416,246.486
		c0.938,0.107,1.499,0.831,2.436,1.123"/>
	<path fill="none" stroke="#000000" stroke-width="1.0208" stroke-linecap="round" d="M474.841,257.722
		c-0.119-1.806,0.185-2.696,0.749-2.997"/>
	<path fill="none" stroke="#000000" stroke-width="0.9174" stroke-linecap="round" d="M478.961,246.111
		c-1.033-0.021-1.613,0.171-2.247,0.375"/>
	<path fill="none" stroke="#000000" stroke-width="1.4705" stroke-linecap="round" d="M473.903,224.762
		c-0.178,5.247-0.737,10.408-0.063,15.606"/>
	<path fill="none" stroke="#000000" stroke-width="1.2147" stroke-linecap="round" d="M473.842,240.368
		c3.364,0.48,5.412-2.596,6.242-5.493"/>
	<path fill="none" stroke="#000000" stroke-width="2.329" stroke-linecap="round" d="M464.352,233.376c0.25,0,0.499,0,0.749,0"/>
	<path fill="none" stroke="#000000" stroke-width="1.8727" stroke-linecap="round" d="M463.603,230.38
		c-0.557,1.311-0.199,2.596,0.749,2.996"/>
	<path fill="none" stroke="#000000" stroke-width="1.2732" stroke-linecap="round" d="M395.25,240.493
		c3.078-0.604,7.128-2.188,7.679-5.618"/>
	<path fill="none" stroke="#000000" stroke-width="1.2473" stroke-linecap="round" d="M398.433,231.878
		c-1.523,2.663-3.167,5.518-3.185,8.615"/>
	<path fill="none" stroke="#000000" stroke-width="1.2609" stroke-linecap="round" d="M465.351,236.123
		c0.568-0.774,0.304-1.782-0.25-2.747"/>
	<path fill="none" stroke="#000000" stroke-width="1.5006" stroke-linecap="round" d="M429.145,334.502
		c0.256-0.634,0.599-1.186,0.962-1.783c0.438-3.662,0.381-7.164,1.281-10.954c0.611-2.573,2.219-4.695,2.546-7.071
		c0.434-3.147,0.664-6.087-1.044-9.405"/>
	<path fill="none" stroke="#000000" stroke-width="1.1301" stroke-linecap="round" d="M432.89,305.287
		c-2.861,1.495-6.857,3.449-7.49,6.742"/>
	<path fill="none" stroke="#000000" stroke-width="2.3088" stroke-linecap="round" d="M432.89,305.287
		c0.021-1.248,0.033-2.497-0.249-3.744"/>
	<path fill="none" stroke="#000000" stroke-width="1.136" stroke-linecap="round" d="M432.641,301.543
		c-3.165-0.632-5.671,2.691-8.339,4.146c-0.937,0.51-2.683,0.967-4.146,2.222"/>
	<path fill="none" stroke="#000000" stroke-width="0.997" stroke-linecap="round" d="M435.512,260.718
		c-3.684,1.297-6.147,4.479-9.363,6.367"/>
	<path fill="none" stroke="#000000" stroke-width="1.0594" stroke-linecap="round" d="M434.139,256.099
		c-3.145,1.804-6.234,3.51-9.488,4.993"/>
	<path fill="none" stroke="#000000" stroke-width="1.5789" stroke-linecap="round" d="M415.537,253.976
		c0.031,0.163,0.063,0.325,0.092,0.487c0.129,1.583-0.823,3.156-0.223,4.721c0.271,0.188,0.546,0.395,0.822,0.603
		c0.258,0.482,0.584,0.909,0.828,1.421c0.372,0.925-0.589,1.548-0.549,2.243c0.112,1.938,0.989,3.313,1.017,5.051
		c0.019,1.187-0.372,3.816-0.74,5.959c-0.22,1.275-0.396,1.717-0.97,3.862c-0.768,2.863-0.429,5.138-0.905,8.238
		c-0.483,3.148-1.143,4.88-1.786,7.839c-0.625,2.873-1.258,7.571,0.477,11.979c-0.275,1.371-1.305,2.651-2.379,3.444
		c-0.292,0.322-0.486,0.898-0.712,1.497c1.817,3.841-0.843,8.169-1.879,12.289c-0.682,2.712-1.408,8.527-2.874,12.916
		c-0.25,0.749-1.623,1.197-1.975,2.585c-0.188,2.629,2.159,5.457,0.146,7.877"/>
	<path fill="none" stroke="#000000" stroke-width="1.0972" stroke-linecap="round" d="M403.927,346.988
		c0.025,0.098,0.053,0.194,0.079,0.292c5.547,4.667,13.981,2.313,20.646,2.954"/>
	<path fill="none" stroke="#000000" stroke-width="1.6066" stroke-linecap="round" d="M424.651,350.234
		c1.283-0.476,2.518-1.245,3.934-1.124"/>
	<path fill="none" stroke="#000000" stroke-width="1.5514" stroke-linecap="round" d="M428.585,349.11
		c1.54-3.273-2.969-3.724-0.85-7.04c0.146-0.226,1.594-1.396,1.806-2.04c0.585-1.782-0.396-3.29-0.396-5.526"/>
	<path fill="none" stroke="#000000" stroke-width="0.9987" stroke-linecap="round" d="M429.145,334.502
		c-0.21-0.086-0.421-0.174-0.631-0.26c-5.313,2.496-10.381,6.003-16.224,7.375"/>
	<path fill="none" stroke="#000000" stroke-width="1.387" stroke-linecap="round" d="M404.426,371.206
		c1-0.197,2.542,0.417,3.371,1.124"/>
	<path fill="none" stroke="#000000" stroke-width="1.8566" stroke-linecap="round" d="M407.797,372.33
		c5.673-0.213,10.982-2.18,16.729-2.246"/>
	<path fill="none" stroke="#000000" stroke-width="1.4444" stroke-linecap="round" d="M403.927,346.988
		c-0.133-0.033-0.265-0.064-0.396-0.099c-1.769,0.125-3.359,2.003-3.771,3.688c0.083,2.421,2.035,4.559,2.341,7.183
		c0.349,2.996-3.22,7.021-2.433,10.814c1.281,1.447,3.318,1.43,4.759,2.632"/>
	<path fill="none" stroke="#000000" stroke-width="1.3337" stroke-linecap="round" d="M424.651,350.234
		c-0.363,1.088-0.313,1.929-0.197,2.403c0.157,0.093,0.373,0.2,0.594,0.309c2.036,3.17,1.228,6.606,2.193,10.009
		c-0.845,2.399-1.325,4.966-2.715,7.131"/>
	<path fill="none" stroke="#000000" stroke-width="1.4014" stroke-linecap="round" d="M424.526,370.084
		c0.746,0.735,1.471,1.429,2.372,2.62"/>
	
		<line fill="none" stroke="#000000" stroke-width="2.2472" stroke-linecap="round" x1="426.898" y1="372.704" x2="426.898" y2="372.704"/>
	<path fill="none" stroke="#000000" stroke-width="1.5451" stroke-linecap="round" d="M405.55,373.079
		c-2.447,6.289-5.55,13.394-4.27,20.3c0.046,0.249,0.453,0.431,0.524,0.676"/>
	<path fill="none" stroke="#000000" stroke-width="1.3229" stroke-linecap="round" d="M401.804,394.055
		c7.383,1.863,15.146,1.942,22.722,1.498"/>
	<path fill="none" stroke="#000000" stroke-width="1.6816" stroke-linecap="round" d="M424.526,395.553
		c0.393-5.764,1.653-11.35,3.481-16.87c-0.724-1.122,0.002-2.4,0.514-3.355"/>
	<path fill="none" stroke="#000000" stroke-width="1.326" stroke-linecap="round" d="M426.898,372.704
		c-1.967,0.407-3.971,0.683-5.993,0.749"/>
	<path fill="none" stroke="#000000" stroke-width="1.7082" stroke-linecap="round" d="M405.55,373.079
		c0.721,0.055,1.61-0.347,2.247-0.749"/>
	<path fill="none" stroke="#000000" stroke-width="1.4344" stroke-linecap="round" d="M404.426,371.206
		c0.22,0.615,0.629,1.206,1.124,1.873"/>
	<path fill="none" stroke="#000000" stroke-width="1.1874" stroke-linecap="round" d="M455.738,374.577
		c-4.772,0.87-9.731,1.093-14.606,1.498"/>
	<path fill="none" stroke="#000000" stroke-width="1.0628" stroke-linecap="round" d="M456.487,371.206
		c-8.348,0.682-16.446,3.386-24.975,2.129c-1.261-0.187-2.7-1.632-4.614-0.631"/>
	<path fill="none" stroke="#000000" stroke-width="1.7832" stroke-linecap="round" d="M426.898,372.704
		c0.335,0.85,1.193,1.89,1.623,2.622"/>
	<path fill="none" stroke="#000000" stroke-width="1.2974" stroke-linecap="round" d="M428.521,375.326
		c0.591,0.045,0.987,0.207,1.373,0.375"/>
	<path fill="none" stroke="#000000" stroke-width="1.8349" stroke-linecap="round" d="M424.526,395.553
		c0.13,0.726,0.957,1.894,1.248,2.621"/>
	<path fill="none" stroke="#000000" stroke-width="1.1802" stroke-linecap="round" d="M425.774,398.174
		c1.023-0.01,1.468,0.314,2.014,0.598c6.46,0.462,12.94,0.882,19.669,0.604c13.425-0.561,27.556-0.021,40.747-0.568
		c3.092-0.128,8.457-1.827,12.292-2.504"/>
	<path fill="none" stroke="#000000" stroke-width="1.29" stroke-linecap="round" d="M500.496,396.302
		c2.354-5.994-6.354-11.733-10.78-13.003c-5.635-1.615-12.701,0.137-16.748-0.855"/>
	<path fill="none" stroke="#000000" stroke-width="1.2683" stroke-linecap="round" d="M472.968,382.444
		c0.599,2.017,2.476,3.398,2.996,5.244"/>
	<path fill="none" stroke="#000000" stroke-width="1.6016" stroke-linecap="round" d="M425.589,400.796
		c0.169-0.661,0.161-1.676,0.187-2.622"/>
	<path fill="none" stroke="#000000" stroke-width="1.2296" stroke-linecap="round" d="M401.804,394.055
		c-0.088,0.162-0.176,0.324-0.263,0.485c-0.46,1.688,0.688,3.149,1.096,4.718c7.167,3.126,15.5,1.469,22.951,1.538"/>
	<path fill="none" stroke="#000000" stroke-width="1.2748" stroke-linecap="round" d="M425.589,400.796
		c0.128,0.864,0.304,1.653,0.758,2.434c0.267,0.229,0.498,0.494,0.729,0.763c10.583,2.723,27.256,0.137,42.506-0.17
		c4.486-0.09,13.957,0.122,20.976-0.753c1.112-0.139,2.745-0.222,3.643-0.52c3.778-1.255,7.328-1.737,6.299-6.248"/>
</g>
</svg>
