<?xml version="1.0" encoding="utf-8"?>
<!-- Generator: Adobe Illustrator 14.0.0, SVG Export Plug-In . SVG Version: 6.00 Build 43363)  -->
<!DOCTYPE svg PUBLIC "-//W3C//DTD SVG 1.1//EN" "http://www.w3.org/Graphics/SVG/1.1/DTD/svg11.dtd">
<svg version="1.1" id="图层_1" xmlns="http://www.w3.org/2000/svg" xmlns:xlink="http://www.w3.org/1999/xlink" x="0px" y="0px"
	 width="848px" height="480px" viewBox="0 0 848 480" enable-background="new 0 0 848 480" xml:space="preserve">
<g>
	<path fill-rule="evenodd" clip-rule="evenodd" fill="none" stroke="#000000" stroke-width="0.9647" stroke-linecap="round" d="
		M581.209,96.295c-4.037,0.333-7.783,3.634-8.988,7.491"/>
	<path fill-rule="evenodd" clip-rule="evenodd" fill="none" stroke="#000000" stroke-width="0.9808" stroke-linecap="round" d="
		M576.715,105.283c1.092-2.786,3.651-4.465,5.992-5.993"/>
	<path fill-rule="evenodd" clip-rule="evenodd" fill="none" stroke="#000000" stroke-width="1.0095" stroke-linecap="round" d="
		M552.744,103.785c-4.783,0.612-9.021,3.799-12.619,6.887c-0.122,0.104-0.011,0.48-0.115,0.604"/>
	<path fill-rule="evenodd" clip-rule="evenodd" fill="none" stroke="#000000" stroke-width="0.9697" stroke-linecap="round" d="
		M563.98,106.032c-4.417-0.939-7.253,3.216-11.236,3.746"/>
	<path fill-rule="evenodd" clip-rule="evenodd" fill="none" stroke="#000000" stroke-width="1.2389" stroke-linecap="round" d="
		M593.943,123.261c-0.037-0.212-0.076-0.425-0.113-0.637c-2.891-3.824-7.614-4.223-11.872-5.355"/>
	<path fill-rule="evenodd" clip-rule="evenodd" fill="none" stroke="#000000" stroke-width="1.589" stroke-linecap="round" d="
		M585.329,125.134c0.25,0.022,0.5,0.104,0.749,0.188"/>
	<path fill-rule="evenodd" clip-rule="evenodd" fill="none" stroke="#000000" stroke-width="1.7718" stroke-linecap="round" d="
		M586.078,125.322c1.833-0.581,3.855-0.068,5.102,1.331c0.539,3.324-0.563,6.718-0.606,10.093"/>
	<path fill-rule="evenodd" clip-rule="evenodd" fill="none" stroke="#000000" stroke-width="1.3676" stroke-linecap="round" d="
		M586.078,125.322c-0.89,2.274,0.39,4.573,0,6.929"/>
	<path fill-rule="evenodd" clip-rule="evenodd" fill="none" stroke="#000000" stroke-width="1.1748" stroke-linecap="round" d="
		M563.98,140.49c-0.27-0.5-0.724-0.744-0.999-1.138c-1.098-2.3,1.855-3.433,2.088-5.593c-0.228-1.213-0.561-2.399-1.487-3.239
		c-0.479-0.208-1.412-0.495-2.598-0.517"/>
	<path fill-rule="evenodd" clip-rule="evenodd" fill="none" stroke="#000000" stroke-width="0.9855" stroke-linecap="round" d="
		M579.337,220.267c-3.17,0.813-6.166,2.185-9.364,2.622"/>
	<path fill-rule="evenodd" clip-rule="evenodd" fill="none" stroke="#000000" stroke-width="0.7491" stroke-linecap="round" d="
		M630.274,238.994c-0.388-0.387,0.542-0.956,0.749-0.749C631.411,238.633,630.481,239.202,630.274,238.994z"/>
	<path fill-rule="evenodd" clip-rule="evenodd" fill="none" stroke="#000000" stroke-width="1.1293" stroke-linecap="round" d="
		M562.856,314.652c-1.336-0.355-2.767-0.263-4.087-0.755c-0.29-0.21-0.356-0.663-0.412-1.128c2.328-2.441,5.408-3.444,8.245-4.858"
		/>
	<path fill-rule="evenodd" clip-rule="evenodd" fill="none" stroke="#000000" stroke-width="1.1614" stroke-linecap="round" d="
		M577.214,69.577c0.448,0.162,1.326-0.249,1.91-0.84c1.55,0.261,2.855-1.688,4.292-0.584c-1.007,3.438-5.274,4.543-5.952,7.916"/>
	<path fill-rule="evenodd" clip-rule="evenodd" fill="none" stroke="#000000" stroke-width="0.9174" stroke-linecap="round" d="
		M577.464,76.069c1.949,0.015,3.691-1.973,5.618-1.124"/>
	<path fill-rule="evenodd" clip-rule="evenodd" fill="none" stroke="#000000" stroke-width="1.2422" stroke-linecap="round" d="
		M583.082,74.946c3.502-1.209,7.52-1.715,11.236-2.06"/>
	<path fill-rule="evenodd" clip-rule="evenodd" fill="none" stroke="#000000" stroke-width="1.2535" stroke-linecap="round" d="
		M594.318,72.885c0.439-0.174,1.063-0.444,1.873-0.562"/>
	<path fill-rule="evenodd" clip-rule="evenodd" fill="none" stroke="#000000" stroke-width="1.1026" stroke-linecap="round" d="
		M594.318,72.885c0.097,1.578-1.298,1.596-2.403,1.904c-0.595,0.533-1.538,1.341-1.159,2.222c7.512,0.858,15.534,0.818,22.664,3.552
		"/>
	<path fill-rule="evenodd" clip-rule="evenodd" fill="none" stroke="#000000" stroke-width="2.0417" stroke-linecap="round" d="
		M613.42,80.564c0.749,0.134,1.498,0.292,2.247,0.375"/>
	<path fill-rule="evenodd" clip-rule="evenodd" fill="none" stroke="#000000" stroke-width="0.9276" stroke-linecap="round" d="
		M609.675,82.811c1.069,0.629,1.419,1.283,1.665,1.853c-1.179,0.778-3.109-0.181-3.663,1.644"/>
	<path fill-rule="evenodd" clip-rule="evenodd" fill="none" stroke="#000000" stroke-width="1.675" stroke-linecap="round" d="
		M619.038,115.958c0.356,0.201,0.557,0.382,0.749,0.562"/>
	<path fill-rule="evenodd" clip-rule="evenodd" fill="none" stroke="#000000" stroke-width="1.675" stroke-linecap="round" d="
		M612.671,116.52c0.792,0.729,1.556,1.108,1.872,1.498"/>
	<path fill-rule="evenodd" clip-rule="evenodd" fill="none" stroke="#000000" stroke-width="1.9819" stroke-linecap="round" d="
		M613.42,123.636c0.25,0.125,0.499,0.25,0.749,0.375"/>
	<path fill-rule="evenodd" clip-rule="evenodd" fill="none" stroke="#000000" stroke-width="1.589" stroke-linecap="round" d="
		M607.427,130.003c0.263,0.771,0.286,1.327,0.375,1.873"/>
	<path fill-rule="evenodd" clip-rule="evenodd" fill="none" stroke="#000000" stroke-width="1.3185" stroke-linecap="round" d="
		M596.753,132.063c-2.517,2.257-2.705,8.931,1.914,8.839c0.15,0.429-0.117,1.066-0.438,1.643c-1.32,0.254-0.617,1.776-1.088,2.6
		c-0.812,0.71-1.986,0.335-2.822,0.964"/>
	
		<line fill-rule="evenodd" clip-rule="evenodd" fill="none" stroke="#000000" stroke-width="2.2885" stroke-linecap="round" x1="575.217" y1="159.218" x2="575.217" y2="159.218"/>
	<path fill-rule="evenodd" clip-rule="evenodd" fill="none" stroke="#000000" stroke-width="1.0594" stroke-linecap="round" d="
		M575.217,159.218c1.279-0.845,2.546-0.719,3.371-0.375"/>
	<path fill-rule="evenodd" clip-rule="evenodd" fill="none" stroke="#000000" stroke-width="1.3595" stroke-linecap="round" d="
		M585.329,174.573c0.666,2.586,2.042,4.778,3.166,7.288c0.062,0.137,0.509,0.122,0.6,0.295c1.323,2.511,1.722,5.826,2.689,8.448
		c0.134,0.362,0.753,0.358,0.864,0.607c0.344,0.773-0.208,1.912,0.941,2.18c0.857,3.432,1.735,8.512,2.15,13.351
		c0.48,5.599,0.25,11.434,1.545,16.784c0.24,0.992,1.545,1.938,0.904,2.885c-1.342,0.519-1.141,2.313-0.705,3.377
		c1.88,1.489,1.273,4.715,1.218,6.924c-0.725,0.382-2.062,0.267-3.261,1.158"/>
	<path fill-rule="evenodd" clip-rule="evenodd" fill="none" stroke="#000000" stroke-width="1.2793" stroke-linecap="round" d="
		M595.441,237.871c0.833,3.134,1.151,6.432-0.374,9.364"/>
	<path fill-rule="evenodd" clip-rule="evenodd" fill="none" stroke="#000000" stroke-width="1.1167" stroke-linecap="round" d="
		M595.067,247.235c-1.165,2.128,1.288,5.246-1.873,6.367"/>
	<path fill-rule="evenodd" clip-rule="evenodd" fill="none" stroke="#000000" stroke-width="2.0356" stroke-linecap="round" d="
		M593.194,253.602c0.037,1.77-0.23,3.56-0.749,5.243"/>
	<path fill-rule="evenodd" clip-rule="evenodd" fill="none" stroke="#000000" stroke-width="1.4142" stroke-linecap="round" d="
		M592.445,258.845c-1.657,8.984-3.096,17.942-5.348,26.848c-0.418,1.651-1.118,5.437-1.692,7.949
		c-0.907,3.974-2.41,8.479-4.397,12.199c-0.898,0.128-0.767,1.331-1.686,1.419c-4.019,9.558-1.741,20.735-1.98,30.871
		c-0.295,0.451-0.497,1.002-0.708,1.538c-1.445,1.564-2.921,3.248-3.415,5.57"/>
	<path fill-rule="evenodd" clip-rule="evenodd" fill="none" stroke="#000000" stroke-width="1.4753" stroke-linecap="round" d="
		M573.219,345.24c1.149,1.616,2.709,2.705,3.813,4.223c-0.488,1.117-1.602,1.753-2.179,1.99c-1.741,1.825,0.304,3.585,0.364,5.522"
		/>
	<path fill-rule="evenodd" clip-rule="evenodd" fill="none" stroke="#000000" stroke-width="1.52" stroke-linecap="round" d="
		M575.217,356.975c2.047,1.071,2.39,2.846,1.41,4.418c-0.198,0.317-0.797,0.367-0.862,0.616c-0.253,0.961-0.621,0.869-0.938,1.43
		c-3.072,5.437,1.701,7.904,0.904,14.512c-0.832,0.631-1.426,1.017-2.118,1.377c-0.678,0.038-1.416,0.436-2.142,0.869"/>
	<path fill-rule="evenodd" clip-rule="evenodd" fill="none" stroke="#000000" stroke-width="1.1167" stroke-linecap="round" d="
		M571.471,380.197c0.575,0.796,0.514,1.445,0.491,2.016c-0.63,0.369-0.783,0.877-1.054,1.355"/>
	<path fill-rule="evenodd" clip-rule="evenodd" fill="none" stroke="#000000" stroke-width="1.0874" stroke-linecap="round" d="
		M570.909,383.568c0.098,0.156,0.195,0.313,0.293,0.47c2.648,1.327,5.274,2.982,7.921,4.237c0.581,0.275,1.34,0.148,1.861,0.387
		c2.187,0.999,4.161,2.538,6.326,3.412c0.635,0.256,1.361,0.11,1.906,0.34c0.846,0.357,2.42,0.917,3.229,2.016"/>
	<path fill-rule="evenodd" clip-rule="evenodd" fill="none" stroke="#000000" stroke-width="1.2732" stroke-linecap="round" d="
		M592.445,394.429c1.002-1.371,2.375-0.338,3.371,0.375"/>
	<path fill-rule="evenodd" clip-rule="evenodd" fill="none" stroke="#000000" stroke-width="1.1242" stroke-linecap="round" d="
		M556.864,150.603c-2.484-0.594-5.322-2.555-8.39-3.596c-4.678-1.586-7.338-2.503-10.889-6.346
		c-1.492-1.616-6.128-5.182-9.907-7.199c-2.347-0.942-5.7,0.427-7.427-1.285c0.437-0.464,0.824-0.825,1.205-1.244
		c1.222-0.64,2.895-0.778,3.688-2.043c-0.023-0.347-0.177-0.644-0.336-0.938c-0.916-0.125-1.41-0.514-1.641-0.918
		c2.41-2.606-1.664-2.776-2.057-4.878c0.575-0.291,1.477-0.392,1.789-0.81c-2.46-4.057-6.508-6.704-10.018-9.889
		c-0.595-0.203-1.152-0.954-1.588-1.654c2.979-1.504,6.872-0.429,10.511-1.751c1.595-0.58,2.8-1.634,4.144-2.597
		c1.254-0.897,4.827-1.119,3.262-4.228c1.912-0.308,3.667-0.931,2.867-3.332c0.521-0.474,1.61,0,2.768-0.219
		c0.063-0.272-0.048-0.849-0.063-1.421c-1.966-4.74-4.201-9.212-4.511-14.569"/>
	<path fill-rule="evenodd" clip-rule="evenodd" fill="none" stroke="#000000" stroke-width="1.3362" stroke-linecap="round" d="
		M530.271,81.687c-0.459-1.296-1.03-2.765-1.498-4.12"/>
	<path fill-rule="evenodd" clip-rule="evenodd" fill="none" stroke="#000000" stroke-width="1.1325" stroke-linecap="round" d="
		M530.271,81.687c3.526,0.127,3.805,5.625,7.679,5.244"/>
	<path fill-rule="evenodd" clip-rule="evenodd" fill="none" stroke="#000000" stroke-width="1.3514" stroke-linecap="round" d="
		M537.95,86.931c-0.197-5.66,1.038-10.115,3.353-14.778c0.067-0.136,0.507-0.121,0.6-0.295c2.387-4.431,4.676-9.027,7.569-13.386
		c0.444-0.304,1.12-0.551,1.683-0.736c0.841,4.797-3.295,10.196-1.251,14.997c0.38,0,0.66-0.073,0.937-0.148
		c0.278-0.417,0.621-0.813,0.982-1.185c0.668-1.499,0.902-3.794,3.169-3.57"/>
	<path fill-rule="evenodd" clip-rule="evenodd" fill="none" stroke="#000000" stroke-width="1.9098" stroke-linecap="round" d="
		M554.991,67.829c0.125-0.25,0.25-0.5,0.375-0.749"/>
	<path fill-rule="evenodd" clip-rule="evenodd" fill="none" stroke="#000000" stroke-width="1.5792" stroke-linecap="round" d="
		M554.991,67.829c0.845,1.542-0.881,3.122-0.374,4.682"/>
	<path fill-rule="evenodd" clip-rule="evenodd" fill="none" stroke="#000000" stroke-width="1.0298" stroke-linecap="round" d="
		M554.617,72.511c3.023-1.437,3.504-3.869,6.538-6.014c0.709-0.501,1.831-0.542,2.639-1.11c0.404-0.285,0.68-0.887,1.108-1.13
		c0.934-0.529,2.426-0.55,3.358-1.136c1.114-0.701,4.084-2.436,6.363-3.375c1.249-0.515,2.683-1.059,3.75-1.493
		c4.129-1.678,7.386-3.215,10.326-3.158"/>
	<path fill-rule="evenodd" clip-rule="evenodd" fill="none" stroke="#000000" stroke-width="1.3846" stroke-linecap="round" d="
		M588.7,55.095c0.909-0.843,1.861-1.817,2.996-2.247"/>
	<path fill-rule="evenodd" clip-rule="evenodd" fill="none" stroke="#000000" stroke-width="1.0792" stroke-linecap="round" d="
		M588.7,55.095c-0.894,2.201-4.05,3.985-6.568,6.914c-0.467,0.543-0.614,1.377-1.117,1.88c-0.485,0.484-1.437,0.601-1.851,1.146
		c-0.826,1.089-1.952,3.451-1.95,4.542"/>
	<path fill-rule="evenodd" clip-rule="evenodd" fill="none" stroke="#000000" stroke-width="1.675" stroke-linecap="round" d="
		M564.979,71.075c0.256-0.333,0.746-0.666,1.248-0.999"/>
	<path fill-rule="evenodd" clip-rule="evenodd" fill="none" stroke="#000000" stroke-width="1.6823" stroke-linecap="round" d="
		M554.617,72.511c-0.095,3.443-2.286,5.534-2.622,8.802"/>
	<path fill-rule="evenodd" clip-rule="evenodd" fill="none" stroke="#000000" stroke-width="1.3412" stroke-linecap="round" d="
		M537.95,86.931c1.229,4.342,1.424,9.071,4.307,12.36"/>
	<path fill-rule="evenodd" clip-rule="evenodd" fill="none" stroke="#000000" stroke-width="1.0979" stroke-linecap="round" d="
		M556.864,150.603c0.439-0.761,0.16-1.507-0.236-2.038c-0.113-0.462-0.007-0.797,0.109-1.125c1.144-0.562,1.978,0.723,3.098,0.719
		c0.983-1.029-0.467-2.384,0.213-3.549"/>
	<path fill-rule="evenodd" clip-rule="evenodd" fill="none" stroke="#000000" stroke-width="1.2356" stroke-linecap="round" d="
		M560.048,144.61c-0.044-0.127-0.088-0.255-0.132-0.383c-0.759-1.501-2.855-1.737-4.006-3.903
		c-2.297-4.324-0.084-12.217,3.737-13.905c1.735-0.766,6.444-0.848,7.115,2.276c0.228,0.106,0.542,0.16,0.861,0.211
		c0.788-0.361,1.728-1.292,2.203-1.986c-0.612-5.948-0.047-12.626,4.06-16.975c3.082,0.655,4.636-0.357,6.361-2.612
		c0.178-0.232,0.921-0.474,1.156-1.123c5.699-2.043,8.628,3.136,11.578,6.76c0.1,0.123,0.455,0.112,0.596,0.282
		c1.103,1.333,1.823,3.428,2.828,4.549c0.8,0.892,2.67,1.641,3.065,3.564c0.026,0.247-0.003,0.448-0.035,0.646"/>
	<path fill-rule="evenodd" clip-rule="evenodd" fill="none" stroke="#000000" stroke-width="1.2012" stroke-linecap="round" d="
		M599.436,122.013c0.995,0.525,1.783,0.938,2.55,1.446c0.281,1.064,0.557,2.095,0.759,3.173"/>
	<path fill-rule="evenodd" clip-rule="evenodd" fill="none" stroke="#000000" stroke-width="1.3464" stroke-linecap="round" d="
		M602.745,126.632c2.081,0.397,2.744,2.605,4.682,3.371"/>
	<path fill-rule="evenodd" clip-rule="evenodd" fill="none" stroke="#000000" stroke-width="1.3955" stroke-linecap="round" d="
		M607.427,130.003c-0.33-3.174,0.748-6.195,0.557-9.191c2.259-0.313,3.44,2.337,5.437,2.824"/>
	<path fill-rule="evenodd" clip-rule="evenodd" fill="none" stroke="#000000" stroke-width="1.149" stroke-linecap="round" d="
		M613.42,123.636c0.07-2.438-2.404-4.613-1.498-7.116"/>
	<path fill-rule="evenodd" clip-rule="evenodd" fill="none" stroke="#000000" stroke-width="1.0855" stroke-linecap="round" d="
		M611.922,116.52c-4.117-1.846-3.688-7.836-7.491-9.738"/>
	<path fill-rule="evenodd" clip-rule="evenodd" fill="none" stroke="#000000" stroke-width="2.329" stroke-linecap="round" d="
		M611.922,116.52c0.249,0,0.499,0,0.749,0"/>
	<path fill-rule="evenodd" clip-rule="evenodd" fill="none" stroke="#000000" stroke-width="1.0994" stroke-linecap="round" d="
		M612.671,116.52c0.438-1.45-1.078-2.412-0.626-3.827c2.578,0.229,4.527,3.036,6.993,3.265"/>
	<path fill-rule="evenodd" clip-rule="evenodd" fill="none" stroke="#000000" stroke-width="1.1375" stroke-linecap="round" d="
		M619.038,115.958c0.002-0.257,0.005-0.515,0.007-0.773c-2.188-4.111-5.324-7.65-7.338-11.934c-1.217-1.508-3.939-1.971-3.905-4.334
		"/>
	<path fill-rule="evenodd" clip-rule="evenodd" fill="none" stroke="#000000" stroke-width="1.1094" stroke-linecap="round" d="
		M607.802,98.916c-4.124-1.984-7.348-5.491-11.61-7.116"/>
	<path fill-rule="evenodd" clip-rule="evenodd" fill="none" stroke="#000000" stroke-width="1.0226" stroke-linecap="round" d="
		M607.802,98.916c0.559-0.234,0.982-0.461,1.244-0.779c-0.624-2.946-3.109-4.727-4.989-6.712"/>
	<path fill-rule="evenodd" clip-rule="evenodd" fill="none" stroke="#000000" stroke-width="1.3213" stroke-linecap="round" d="
		M604.056,91.426c-1.212-0.382-1.779-1.85-1.312-2.997"/>
	<path fill-rule="evenodd" clip-rule="evenodd" fill="none" stroke="#000000" stroke-width="1.675" stroke-linecap="round" d="
		M602.745,88.429c-0.187-0.375-0.374-0.749-0.562-1.124"/>
	<path fill-rule="evenodd" clip-rule="evenodd" fill="none" stroke="#000000" stroke-width="2.0965" stroke-linecap="round" d="
		M602.183,87.305c-0.771-0.134-1.327-0.292-1.873-0.375"/>
	<path fill-rule="evenodd" clip-rule="evenodd" fill="none" stroke="#000000" stroke-width="1.0715" stroke-linecap="round" d="
		M582.333,80.938c-2.997,1.199-5.493,2.956-8.414,4.33c-1.979,3.238-5.203,5.542-6.193,9.528"/>
	<path fill-rule="evenodd" clip-rule="evenodd" fill="none" stroke="#000000" stroke-width="1.2974" stroke-linecap="round" d="
		M577.464,76.069c-0.295,0.295-0.706,0.707-1.124,1.124"/>
	<path fill-rule="evenodd" clip-rule="evenodd" fill="none" stroke="#000000" stroke-width="1.1266" stroke-linecap="round" d="
		M577.214,69.577c-4.127,2.187-7.276,5.798-11.735,7.241"/>
	<path fill-rule="evenodd" clip-rule="evenodd" fill="none" stroke="#000000" stroke-width="1.2556" stroke-linecap="round" d="
		M565.478,76.819c-0.213,2.646-1.909,4.521-2.622,6.742"/>
	<path fill-rule="evenodd" clip-rule="evenodd" fill="none" stroke="#000000" stroke-width="1.1753" stroke-linecap="round" d="
		M565.478,76.819c-0.922-1.817,0.889-4.006-0.499-5.743"/>
	<path fill-rule="evenodd" clip-rule="evenodd" fill="none" stroke="#000000" stroke-width="1.0899" stroke-linecap="round" d="
		M564.979,71.075c-0.098,0.027-0.195,0.053-0.293,0.08c-2.827,2.337-4.759,6.188-6.494,9.58c-0.071,0.139-0.494,0.12-0.6,0.294
		c-3.894,6.448-2.688,11.62,0.059,18.483c0.059,0.147,0.508,0.145,0.539,0.31c0.077,0.667,0.528,2.034,0.279,3.21
		c-0.573,0.518-0.977,0.886-1.39,1.329c-3.334,0.38-5.79,2.424-8.628,4.12c-1.362,3.536-5.43,5.058-6.195,8.787"/>
	<path fill-rule="evenodd" clip-rule="evenodd" fill="none" stroke="#000000" stroke-width="1.1528" stroke-linecap="round" d="
		M583.082,74.946c-0.475,1.304-2.066,1.815-2.227,3.276c0.707,0.342,1.733,0.441,2.146,0.998c-0.191,0.665-0.389,1.207-0.669,1.719"
		/>
	<path fill-rule="evenodd" clip-rule="evenodd" fill="none" stroke="#000000" stroke-width="1.098" stroke-linecap="round" d="
		M582.333,80.938c7.586,0.463,15.442,0.35,22.831,1.472c1.716,0.261,2.563,0.953,4.511,0.4"/>
	<path fill-rule="evenodd" clip-rule="evenodd" fill="none" stroke="#000000" stroke-width="1.1844" stroke-linecap="round" d="
		M609.675,82.811c1.011-0.662,2.026-0.625,2.88-0.852c0.317-0.284,0.548-0.84,0.865-1.396"/>
	<path fill-rule="evenodd" clip-rule="evenodd" fill="none" stroke="#000000" stroke-width="1.1975" stroke-linecap="round" d="
		M604.056,91.426c2.514-1.221,6.252,0.06,8.216-1.904c-0.186-0.426-0.835-0.792-1.266-1.305c-1.322-0.029-2.854-0.586-3.33-1.91"/>
	<path fill-rule="evenodd" clip-rule="evenodd" fill="none" stroke="#000000" stroke-width="1.4847" stroke-linecap="round" d="
		M607.677,86.307c-1.848-0.222-4.032-0.422-5.493,0.999"/>
	<path fill-rule="evenodd" clip-rule="evenodd" fill="none" stroke="#000000" stroke-width="1.589" stroke-linecap="round" d="
		M602.745,88.429c0.603,0,1.146,0,1.686,0"/>
	<path fill-rule="evenodd" clip-rule="evenodd" fill="none" stroke="#000000" stroke-width="1.1206" stroke-linecap="round" d="
		M556.864,150.603c2.754,1.087,3.53,4.29,3.371,7.116"/>
	<path fill-rule="evenodd" clip-rule="evenodd" fill="none" stroke="#000000" stroke-width="1.0094" stroke-linecap="round" d="
		M560.235,157.719c5.136-0.403,9.942,2.12,14.981,1.499"/>
	<path fill-rule="evenodd" clip-rule="evenodd" fill="none" stroke="#000000" stroke-width="1.1266" stroke-linecap="round" d="
		M575.217,159.218c-0.649-1.1-1.338-2.628-0.945-3.917c4.112,0.288,8.361,2.739,12.701,1.44c2.684-1.827,4.033-4.824,5.71-7.654
		c0.548-0.926,1.262-1.642,1.636-2.978"/>
	<path fill-rule="evenodd" clip-rule="evenodd" fill="none" stroke="#000000" stroke-width="1.1501" stroke-linecap="round" d="
		M594.318,146.109c-1.637-1.141-3.693-1.556-5.618-1.873"/>
	<path fill-rule="evenodd" clip-rule="evenodd" fill="none" stroke="#000000" stroke-width="1.2232" stroke-linecap="round" d="
		M560.048,144.61c1.396,0.06,2.117,1.613,3.558,1.499"/>
	<path fill-rule="evenodd" clip-rule="evenodd" fill="none" stroke="#000000" stroke-width="1.5168" stroke-linecap="round" d="
		M596.753,132.063c0.092,0.146,0.184,0.292,0.275,0.437c0.481,0.748,1.177,0.817,1.701,0.814c0.987-0.894-0.151-2.628,0.867-3.427
		c0.643,0.15,1.672,0.715,2.479,0.579c0.859-1.103,0.176-2.606,0.669-3.835"/>
	<path fill-rule="evenodd" clip-rule="evenodd" fill="none" stroke="#000000" stroke-width="1.5196" stroke-linecap="round" d="
		M599.436,122.013c-0.097,0.027-0.194,0.053-0.292,0.08c-1.286,2.887-3.561,6.544-2.392,9.97"/>
	<path fill-rule="evenodd" clip-rule="evenodd" fill="none" stroke="#000000" stroke-width="1.1453" stroke-linecap="round" d="
		M560.235,157.719c-4.237-0.576-7.882,1.496-11.763,2.476c-0.181,0.337-0.344,0.609-0.506,0.877c-0.1,0.48,0.163,1.114,0.492,1.697
		c1.321,0.499,3.35,4.063,1.804,6.707c-0.374,0.64-1.239,1.173-0.765,2.067c1.242,0.997,2.37,2.039,3.621,3.031"/>
	<path fill-rule="evenodd" clip-rule="evenodd" fill="none" stroke="#000000" stroke-width="1.578" stroke-linecap="round" d="
		M553.119,174.573c3.609-2.267,7.515-4.216,11.985-3.745"/>
	<path fill-rule="evenodd" clip-rule="evenodd" fill="none" stroke="#000000" stroke-width="1.0884" stroke-linecap="round" d="
		M565.104,170.828c0.211-0.175,0.423-0.35,0.634-0.525c6.919-0.342,13.222,1.743,19.591,4.27"/>
	<path fill-rule="evenodd" clip-rule="evenodd" fill="none" stroke="#000000" stroke-width="1.1613" stroke-linecap="round" d="
		M585.329,174.573c0.16-0.089,0.32-0.179,0.48-0.269c0.444-0.303,0.803-0.698,1.229-1.03c-0.813-3.818-1.646-8.124,0.513-11.816
		c-0.486-0.514-0.875-0.876-1.271-1.31c-0.643-0.113-1.049-0.457-1.481-0.775c-2.107-0.03-4.106-0.573-6.21-0.531"/>
	<path fill-rule="evenodd" clip-rule="evenodd" fill="none" stroke="#000000" stroke-width="0.9312" stroke-linecap="round" d="
		M577.839,160.341c1.239,0.675,2.765,0.239,4.119,0.375"/>
	<path fill-rule="evenodd" clip-rule="evenodd" fill="none" stroke="#000000" stroke-width="1.2974" stroke-linecap="round" d="
		M575.217,159.218c1.315,0.866,1.945,1.036,2.622,1.124"/>
	<path fill-rule="evenodd" clip-rule="evenodd" fill="none" stroke="#000000" stroke-width="0.9671" stroke-linecap="round" d="
		M577.839,160.341c0.24-0.508,0.456-1.042,0.749-1.498"/>
	<path fill-rule="evenodd" clip-rule="evenodd" fill="none" stroke="#000000" stroke-width="1.4783" stroke-linecap="round" d="
		M560.984,189.18c-1.973,0.854-4.47,1.545-5.244,3.746"/>
	<path fill-rule="evenodd" clip-rule="evenodd" fill="none" stroke="#000000" stroke-width="1.1897" stroke-linecap="round" d="
		M555.74,192.926c3.762,6.647,8.462,15.495,2.794,23.002c-0.119,0.371-0.132,1.178-0.172,1.905"/>
	<path fill-rule="evenodd" clip-rule="evenodd" fill="none" stroke="#000000" stroke-width="1.1391" stroke-linecap="round" d="
		M567.351,229.257c1.948-1.458,5.085-1.668,7.116-0.375"/>
	<path fill-rule="evenodd" clip-rule="evenodd" fill="none" stroke="#000000" stroke-width="1.1488" stroke-linecap="round" d="
		M565.104,170.828c0.26,0.988,1.544,0.953,2.402,1.342c0.247,0.252,0.516,0.483,0.785,0.713c2.051,4.813,2.456,10.892,0.524,15.891
		c-2.406,0.99-5.309,1.088-7.832,0.406"/>
	<path fill-rule="evenodd" clip-rule="evenodd" fill="none" stroke="#000000" stroke-width="1.1851" stroke-linecap="round" d="
		M553.119,174.573c-2.968,8.805-12.229,14.467-19.906,22.795c-2.001,1.384-4.557,3.088-4.063,5.942
		c3.72,7.14,9.098,13.051,12.358,20.328"/>
	<path fill-rule="evenodd" clip-rule="evenodd" fill="none" stroke="#000000" stroke-width="1.2776" stroke-linecap="round" d="
		M541.508,223.638c1.991,0.677,3.017,2.775,4.994,3.496"/>
	<path fill-rule="evenodd" clip-rule="evenodd" fill="none" stroke="#000000" stroke-width="1.1753" stroke-linecap="round" d="
		M546.502,227.134c2.996-0.725,6.337-2.108,7.74-4.994"/>
	<path fill-rule="evenodd" clip-rule="evenodd" fill="none" stroke="#000000" stroke-width="1.5247" stroke-linecap="round" d="
		M554.242,222.14c-0.333-1.098-1.466-1.995-0.999-3.246"/>
	<path fill-rule="evenodd" clip-rule="evenodd" fill="none" stroke="#000000" stroke-width="1.1674" stroke-linecap="round" d="
		M560.984,189.18c0.799-1.293,1.587-1.628,2.247-1.873"/>
	<path fill-rule="evenodd" clip-rule="evenodd" fill="none" stroke="#000000" stroke-width="1.6182" stroke-linecap="round" d="
		M557.238,218.02c0.455-0.022,0.792-0.104,1.124-0.187"/>
	<path fill-rule="evenodd" clip-rule="evenodd" fill="none" stroke="#000000" stroke-width="1.2109" stroke-linecap="round" d="
		M555.74,192.926c-5.216,2.365-9.306,6.76-14.174,9.788c-0.593,0.534-0.585,1.829-0.331,2.53c4.104,4.553,7.404,9.548,12.008,13.65"
		/>
	<path fill-rule="evenodd" clip-rule="evenodd" fill="none" stroke="#000000" stroke-width="1.1605" stroke-linecap="round" d="
		M554.242,222.14c0.801-0.319,1.43-0.561,2.044-0.957c0.323-0.89,0.917-1.527,0.952-3.163"/>
	<path fill-rule="evenodd" clip-rule="evenodd" fill="none" stroke="#000000" stroke-width="1.2974" stroke-linecap="round" d="
		M557.238,218.02c-1.355,0.107-2.708,0.407-3.995,0.874"/>
	<path fill-rule="evenodd" clip-rule="evenodd" fill="none" stroke="#000000" stroke-width="1.1844" stroke-linecap="round" d="
		M565.853,253.976c2.442,0.479,5.907,0.201,7.116,2.622"/>
	<path fill-rule="evenodd" clip-rule="evenodd" fill="none" stroke="#000000" stroke-width="1.3111" stroke-linecap="round" d="
		M572.969,256.598c1.726,0.57,3.59,1.361,4.031,3.338c-0.881,5.92,4.137,7.149,7.581,4.426c1.042-2.447-1.005-5.008,0.747-7.389"/>
	<path fill-rule="evenodd" clip-rule="evenodd" fill="none" stroke="#000000" stroke-width="1.589" stroke-linecap="round" d="
		M585.329,256.973c0.03-0.721-0.031-1.611-0.188-2.248"/>
	<path fill-rule="evenodd" clip-rule="evenodd" fill="none" stroke="#000000" stroke-width="1.1442" stroke-linecap="round" d="
		M585.141,254.725c-0.97,0.019-1.591-0.237-2.229-0.585c-0.094-1.099-1.235-1.673-1.328-2.785"/>
	<path fill-rule="evenodd" clip-rule="evenodd" fill="none" stroke="#000000" stroke-width="1.4437" stroke-linecap="round" d="
		M581.584,251.355c-0.682-0.524-1.78-0.493-2.622-0.749"/>
	<path fill-rule="evenodd" clip-rule="evenodd" fill="none" stroke="#000000" stroke-width="1.149" stroke-linecap="round" d="
		M585.329,256.973c1.93,2.025,4.698,1.698,7.116,1.872"/>
	<path fill-rule="evenodd" clip-rule="evenodd" fill="none" stroke="#000000" stroke-width="0.9714" stroke-linecap="round" d="
		M593.194,253.602c-0.465-0.181-0.777-0.317-1.083-0.452c-1.602-1.692-0.869-4.052-1.389-6.065
		c-0.465-0.533-0.977-1.021-1.441-1.555c-2.873-0.903-5.461-2.467-8.072-3.913"/>
	<path fill-rule="evenodd" clip-rule="evenodd" fill="none" stroke="#000000" stroke-width="1.0984" stroke-linecap="round" d="
		M595.067,247.235c-1.571-1.071-1.383-3.592-2.362-5.212c-2.653-2.324-5.992-3.858-9.248-4.901"/>
	<path fill-rule="evenodd" clip-rule="evenodd" fill="none" stroke="#000000" stroke-width="1.9341" stroke-linecap="round" d="
		M595.441,237.871c-0.22-1.821-2.254-1.856-3.245-2.996"/>
	<path fill-rule="evenodd" clip-rule="evenodd" fill="none" stroke="#000000" stroke-width="1.1195" stroke-linecap="round" d="
		M592.196,234.875c-4.125,0.656-7.984-1.604-12.11-1.873"/>
	<path fill-rule="evenodd" clip-rule="evenodd" fill="none" stroke="#000000" stroke-width="1.3875" stroke-linecap="round" d="
		M592.196,234.875c0.667-1.727-0.129-3.441-0.717-5.018c-0.49-0.296-0.864-0.462-1.271-0.564c-2.533,0.161-4.905,0.974-7.384,0.965
		c-2.673-0.82-5.459-1.475-8.356-1.376"/>
	<path fill-rule="evenodd" clip-rule="evenodd" fill="none" stroke="#000000" stroke-width="0.9974" stroke-linecap="round" d="
		M568.849,230.755c0.089,0.164,0.178,0.328,0.268,0.492c-0.633,4.158-6.506,7.342-10.38,8.872"/>
	<path fill-rule="evenodd" clip-rule="evenodd" fill="none" stroke="#000000" stroke-width="1.7832" stroke-linecap="round" d="
		M550.871,241.241c-0.099,2.191,3.238,2.257,2.997,4.683"/>
	<path fill-rule="evenodd" clip-rule="evenodd" fill="none" stroke="#000000" stroke-width="1.0692" stroke-linecap="round" d="
		M553.868,245.924c0.675,0.284,1.052,0.457,1.413,0.625c1.644,2.976,4.975,4.906,8.057,6.197c0.402,0.168,0.99-0.078,1.403,0.095
		c0.509,0.214,0.72,0.799,1.112,1.135"/>
	<path fill-rule="evenodd" clip-rule="evenodd" fill="none" stroke="#000000" stroke-width="1.6297" stroke-linecap="round" d="
		M553.868,245.924c-1.104,3.903,1.269,8.331,3.332,11.461c0.094,0.142,0.311,0.201,0.413,0.337"/>
	<path fill-rule="evenodd" clip-rule="evenodd" fill="none" stroke="#000000" stroke-width="1.0403" stroke-linecap="round" d="
		M557.613,257.722c1.526-0.356,3.354-0.136,4.286-1.707c1.612,0.052,2.85-0.988,3.954-2.039"/>
	<path fill-rule="evenodd" clip-rule="evenodd" fill="none" stroke="#000000" stroke-width="3.0274" stroke-linecap="round" d="
		M567.351,230.006c0-0.25,0-0.5,0-0.749"/>
	<path fill-rule="evenodd" clip-rule="evenodd" fill="none" stroke="#000000" stroke-width="1.2843" stroke-linecap="round" d="
		M567.351,229.257c-2.123-4.342-5.077-8.408-8.989-11.423"/>
	<path fill-rule="evenodd" clip-rule="evenodd" fill="none" stroke="#000000" stroke-width="1.1026" stroke-linecap="round" d="
		M546.502,227.134c-1.004,1.845-3.667,1.859-5.368,2.872"/>
	<path fill-rule="evenodd" clip-rule="evenodd" fill="none" stroke="#000000" stroke-width="1.1826" stroke-linecap="round" d="
		M541.508,223.638c-1.308,2.008-3.25,3.75-4.729,5.635c-0.279,0.85-0.321,2.222-0.038,2.935c4.186,3.682,8.805,7.165,14.131,9.033"
		/>
	<path fill-rule="evenodd" clip-rule="evenodd" fill="none" stroke="#000000" stroke-width="1.0198" stroke-linecap="round" d="
		M550.871,241.241c2.141-1.173,4.984-0.923,6.535-3.204c4.188-1.249,7.732-4.246,9.945-8.032"/>
	<path fill-rule="evenodd" clip-rule="evenodd" fill="none" stroke="#000000" stroke-width="1.7832" stroke-linecap="round" d="
		M567.351,230.006c0.508,0.396,1.041,0.578,1.498,0.749"/>
	<path fill-rule="evenodd" clip-rule="evenodd" fill="none" stroke="#000000" stroke-width="1.0594" stroke-linecap="round" d="
		M568.849,230.755c1.797-0.898,3.921-0.792,5.618-1.873"/>
	<path fill-rule="evenodd" clip-rule="evenodd" fill="none" stroke="#000000" stroke-width="1.0994" stroke-linecap="round" d="
		M585.141,254.725c0.043-0.123,0.086-0.246,0.128-0.369c-0.137-0.478-0.237-1.389-0.539-2.031c-0.639-0.575-1.517-0.928-3.146-0.97"
		/>
	<path fill-rule="evenodd" clip-rule="evenodd" fill="none" stroke="#000000" stroke-width="1.5683" stroke-linecap="round" d="
		M557.613,257.722c-0.541,1.184-1.852,1.994-1.832,3.403c0.447,0.719,0.682,1.749,1.296,2.376c0.125,0.669,0.254,1.187,0.338,1.674
		c-1.213,5.759-0.612,12.651-2.42,18.399c-1.136,3.613-1.775,6.164-1.5,8.979c0.3,3.065,1.596,6.523,0.205,10.644
		c-1.678,1.008-2.196,3.545-0.956,5.087"/>
	<path fill-rule="evenodd" clip-rule="evenodd" fill="none" stroke="#000000" stroke-width="1.0157" stroke-linecap="round" d="
		M552.744,308.284c4.745-0.557,8.71-3.567,12.896-5.831c0.554-0.3,1.359-0.115,1.866-0.381c1.785-0.936,2.437-2.559,4.715-2.777"/>
	<path fill-rule="evenodd" clip-rule="evenodd" fill="none" stroke="#000000" stroke-width="1.4479" stroke-linecap="round" d="
		M552.744,308.284c-0.471,0.943-1.905,1.043-2.551,1.956c-0.209,0.465,0.494,1.39,0.595,2.133c0.285,2.106-0.939,2.572-1.584,4.322
		c-0.049,0.131-0.533,0.128-0.601,0.295c-0.874,2.184-1.675,5.759-3.553,7.558c-0.753,2.821-0.09,5.618,0.202,8.456"/>
	<path fill-rule="evenodd" clip-rule="evenodd" fill="none" stroke="#000000" stroke-width="1.2535" stroke-linecap="round" d="
		M545.253,333.004c0.896,0.225,1.259,0.733,1.499,1.498"/>
	<path fill-rule="evenodd" clip-rule="evenodd" fill="none" stroke="#000000" stroke-width="1.3937" stroke-linecap="round" d="
		M545.253,333.004c-2.007,2.249-5.272,5.076-3.952,8.396c3.985,3.536-1.235,7.032-2.382,10.318c0.146,0.909,0.732,1.698,0.716,2.634
		"/>
	<path fill-rule="evenodd" clip-rule="evenodd" fill="none" stroke="#000000" stroke-width="1.32" stroke-linecap="round" d="
		M539.635,354.353c2.177,1.309,4.739,2.536,7.366,2.123"/>
	<path fill-rule="evenodd" clip-rule="evenodd" fill="none" stroke="#000000" stroke-width="1.1674" stroke-linecap="round" d="
		M547.001,356.476c0.673-1.44-1.419-3.021-0.214-4.249c3.137,1.167,7.085,2.563,8.579,5.685"/>
	<path fill-rule="evenodd" clip-rule="evenodd" fill="none" stroke="#000000" stroke-width="1.1488" stroke-linecap="round" d="
		M573.219,345.24c-2.885,1.104-3.543,4.74-6.202,6.041c-0.511-0.117-1.413-0.229-2.067-0.521c-3.651-2.242-7.606-4.324-10.707-7.269
		"/>
	<path fill-rule="evenodd" clip-rule="evenodd" fill="none" stroke="#000000" stroke-width="1.1199" stroke-linecap="round" d="
		M572.969,256.598c-3.259,1.975-6.367,4.377-9.738,5.993"/>
	<path fill-rule="evenodd" clip-rule="evenodd" fill="none" stroke="#000000" stroke-width="1.2556" stroke-linecap="round" d="
		M547.001,356.476c2.509,1.414,5.576,1.609,8.365,1.436"/>
	<path fill-rule="evenodd" clip-rule="evenodd" fill="none" stroke="#000000" stroke-width="1.2051" stroke-linecap="round" d="
		M539.635,380.946c1.576-0.538,3.106,0.443,4.224,0.646c9.612,1.735,17.408-0.193,26.967-1.628c0.199-0.03,0.443,0.242,0.646,0.233"
		/>
	<path fill-rule="evenodd" clip-rule="evenodd" fill="none" stroke="#000000" stroke-width="1.3262" stroke-linecap="round" d="
		M575.217,356.975c-6.335,2.296-13.282,1.898-19.851,0.937"/>
	<path fill-rule="evenodd" clip-rule="evenodd" fill="none" stroke="#000000" stroke-width="1.351" stroke-linecap="round" d="
		M539.635,354.353c-1.474,1.014-2.508,2.51-3.938,3.563c-0.223,1.064-0.229,2.451,0.235,3.024c0.588,0.078,0.583,1.004,0.877,1.45
		c2.841,4.302,1.626,6.913-0.332,11.222c-0.051,0.111-1.705,2.703-2.035,4.307c0.652,2.504,3.629,1.775,5.193,3.027"/>
	<path fill-rule="evenodd" clip-rule="evenodd" fill="none" stroke="#000000" stroke-width="1.3781" stroke-linecap="round" d="
		M539.635,380.946c-0.745,0.696,0.127,1.73,0.238,2.4c0.397,2.397-0.116,5.454-0.955,7.332c-0.59,1.321-1.757,2.37-2.104,2.793
		c-0.446,0.541-0.132,1.382-0.944,1.424c-1.733,4.762-2.258,10.441-0.729,15.265"/>
	<path fill-rule="evenodd" clip-rule="evenodd" fill="none" stroke="#000000" stroke-width="1.3919" stroke-linecap="round" d="
		M535.14,410.159c9.58,0.735,18.729,2.155,29.922,2.546c13.537,0.474,31.562,0.651,45.241,0.074
		c4.681-0.197,8.852-0.589,12.854-1.871"/>
	<path fill-rule="evenodd" clip-rule="evenodd" fill="none" stroke="#000000" stroke-width="1.3229" stroke-linecap="round" d="
		M623.158,410.908c0.22-3.088-2.102-5.453-3.213-8.028c-7.183-4.747-16.066-5.516-24.129-8.076"/>
	<path fill-rule="evenodd" clip-rule="evenodd" fill="none" stroke="#000000" stroke-width="1.0257" stroke-linecap="round" d="
		M595.816,394.804c-0.533,2.152-1.721,4.119-1.873,6.367"/>
	<path fill-rule="evenodd" clip-rule="evenodd" fill="none" stroke="#000000" stroke-width="1.3883" stroke-linecap="round" d="
		M592.445,394.429c-1.251,2.774-1.757,6.249-4.12,8.24"/>
	<path fill-rule="evenodd" clip-rule="evenodd" fill="none" stroke="#000000" stroke-width="1.1236" stroke-linecap="round" d="
		M570.909,383.568c-1.296,0.228-2.4,0.939-3.558,1.498"/>
	<path fill-rule="evenodd" clip-rule="evenodd" fill="none" stroke="#000000" stroke-width="1.3249" stroke-linecap="round" d="
		M535.14,410.159c-0.074,1.454,0.023,2.95,0.599,4.278c8.714,3.398,26.548,2.75,39.812,2.763
		c14.369,0.015,26.731,1.186,40.449-0.598c2.349-0.306,4.553-0.407,6.334-1.287c0.574-0.283,0.506-1.133,1.218-1.13
		c0.445-0.743,0.417-2.076-0.394-3.277"/>
</g>
</svg>
